<?xml version="1.0" encoding="UTF-8" standalone="no"?>
<!-- Created with Inkscape (http://www.inkscape.org/) -->

<svg
   width="64"
   height="64"
   viewBox="0 0 16.933333 16.933333"
   version="1.1"
   id="svg20974"
   inkscape:version="1.2.1 (9c6d41e410, 2022-07-14, custom)"
   sodipodi:docname="torpedo.svg"
   inkscape:export-filename="torpedo.png"
   inkscape:export-xdpi="384"
   inkscape:export-ydpi="384"
   xml:space="preserve"
   xmlns:inkscape="http://www.inkscape.org/namespaces/inkscape"
   xmlns:sodipodi="http://sodipodi.sourceforge.net/DTD/sodipodi-0.dtd"
   xmlns="http://www.w3.org/2000/svg"
   xmlns:svg="http://www.w3.org/2000/svg"><sodipodi:namedview
     id="namedview20976"
     pagecolor="#505050"
     bordercolor="#eeeeee"
     borderopacity="1"
     inkscape:showpageshadow="0"
     inkscape:pageopacity="0"
     inkscape:pagecheckerboard="0"
     inkscape:deskcolor="#505050"
     inkscape:document-units="mm"
     showgrid="false"
     inkscape:zoom="13.266815"
     inkscape:cx="30.112728"
     inkscape:cy="28.680584"
     inkscape:window-width="1916"
     inkscape:window-height="1036"
     inkscape:window-x="0"
     inkscape:window-y="20"
     inkscape:window-maximized="1"
     inkscape:current-layer="layer1" /><defs
     id="defs20971"><linearGradient
       id="linearGradient53638"
       inkscape:swatch="solid"><stop
         style="stop-color:#3a0dcd;stop-opacity:1;"
         offset="0"
         id="stop53636" /></linearGradient></defs><g
     inkscape:label="Layer 1"
     inkscape:groupmode="layer"
     id="layer1"><path
       id="path30330"
       class="ink"
       style="fill-opacity:1;fill-rule:nonzero;stroke:none;stroke-width:0.465;stroke-dasharray:1.31792, 1.31792;stroke-dashoffset:0;stroke-opacity:0;paint-order:stroke fill markers"
       d="m 11.887738,2.2596271 c -0.26736,0.003 -0.52366,0.32153 -0.72296,0.56535 -0.1151,0.1408 0.0656,0.57547 -0.0367,0.53071 -0.15218,-0.0666 -0.36927,0.17136 -0.52916,0.12041 -0.46432,-0.14797 -0.9382304,-0.0331 -1.4516004,-0.0331 -2.6753407,3e-5 -4.8441607,2.1688 -4.8441407,4.84414 7.3e-4,0.2649398 0.0232,0.5293798 0.0672,0.7906498 l 3.9873507,3.9868401 c 0.26094,0.0437 0.52504,0.066 0.78961,0.0667 2.6753604,3e-5 4.8441204,-2.16879 4.8441504,-4.8441499 10e-6,-0.54861 -0.0914,-1.07566 -0.25941,-1.56734 -0.0636,-0.18594 -0.10134,-0.84005 0.0636,-0.9431 0.0538,-0.0336 0.28748,0.2561 0.38292,0.17209 0.23508,-0.20695 0.38263,-0.88211 0.41238,-1.11983 0.0608,-0.48569 -2.11045,-2.12004 -2.41071,-2.42931 -0.0976,-0.10049 -0.19578,-0.14097 -0.29248,-0.14005 z m -4.6374511,4.79144 a 1.6937649,1.6937649 0 0 1 1.6939607,1.6934398 1.6937649,1.6937649 0 0 1 -1.6939607,1.6939501 1.6937649,1.6937649 0 0 1 -1.69343,-1.6939501 1.6937649,1.6937649 0 0 1 1.69343,-1.6934398 z" /><path
       class="ink"
       id="path30440"
       style="fill-opacity:1;fill-rule:nonzero;stroke:none;stroke-width:0.465;stroke-dasharray:1.31792, 1.31792;stroke-dashoffset:0;stroke-opacity:0;paint-order:stroke fill markers"
       d="m 0.94725692,14.229957 a 1.2816912,1.2816912 0 0 0 -0.51676,1.02785 1.2816912,1.2816912 0 0 0 1.28157998,1.28157 1.2816912,1.2816912 0 0 0 1.17048,-0.76171 z" /><path
       style="fill-opacity:1;stroke:none;stroke-width:0.264583px;stroke-linecap:butt;stroke-linejoin:miter;stroke-opacity:1"
       d="m 14.362108,6.8074671 c 0,0 0.0836,0.89669 0.0472,1.34324 -0.0358,0.4401498 -0.11716,0.8811998 -0.26004,1.2990498 -0.0995,0.29104 -0.41081,0.8262701 -0.41081,0.8262701 0,0 0.62463,-0.26162 0.9005,-0.4536001 0.17616,-0.1226 0.36852,-0.20851 0.47139,-0.43858 0.21116,-0.47225 0.15995,-1.0792798 0.0802,-1.6109898 -0.0431,-0.28718 -0.29667,-0.81912 -0.29667,-0.81912 z"
       id="path30448"
       sodipodi:nodetypes="csscssscc" /><path
       class="ink"
       style="fill-opacity:1;stroke:none;stroke-width:0.264583px;stroke-linecap:butt;stroke-linejoin:miter;stroke-opacity:1"
       d="m 10.440368,2.7828671 c 0,0 -0.8966904,-0.0836 -1.3432404,-0.0472 -0.44015,0.0358 -0.8812,0.11716 -1.2990503,0.26004 -0.29104,0.0995 -0.8262704,0.41081 -0.8262704,0.41081 0,0 0.26162,-0.62463 0.4536004,-0.9005 0.1226,-0.17616 0.20851,-0.36852 0.43858,-0.47139 0.4722503,-0.21116 1.0792803,-0.15995 1.6109903,-0.0802 0.28718,0.0431 0.8191204,0.29667 0.8191204,0.29667 z"
       id="path30456"
       sodipodi:nodetypes="csscssscc" /><g
       id="g34360"
       transform="translate(-116.43743,-267.62416)"><path
         style="fill:#35bcbd;fill-opacity:1;stroke:none;stroke-width:0.264583px;stroke-linecap:butt;stroke-linejoin:miter;stroke-opacity:1"
         d="m 119.36162,279.42889 2.2744,2.03237 0.35741,0.35742 0.36636,-0.36636 0.8266,-0.82659 -2.65191,-2.65192 -0.93449,0.93451 -0.37894,0.37894 z"
         id="path30460" /><path
         style="fill:#ffffff;fill-opacity:1;stroke:none;stroke-width:0.264583px;stroke-linecap:butt;stroke-linejoin:miter;stroke-opacity:1"
         d="m 120.01837,280.01575 0.0251,0.59911 -0.85031,0.85267 -1.63436,0.0468 -0.17414,0.33978 1.93531,1.54771 0.31031,-0.26172 -0.20135,-1.06424 1.07881,-1.07879 0.61617,0.007 z"
         id="path31083"
         sodipodi:nodetypes="ccccccccccc" /><circle
         style="fill:#ffffff;fill-opacity:1;fill-rule:nonzero;stroke:none;stroke-width:0.465;stroke-dasharray:1.31792, 1.31792;stroke-dashoffset:0;stroke-opacity:0;paint-order:stroke fill markers"
         id="path31775"
         cx="123.61741"
         cy="276.4458"
         r="1.0183033" /><path
         style="fill:#ffffff;fill-opacity:1;stroke:none;stroke-width:0.264583px;stroke-linecap:butt;stroke-linejoin:miter;stroke-opacity:1"
         d="m 122.42097,273.47214 c 0,0 1.2368,0.14205 1.77337,0.42823 0.86981,0.46392 1.60635,1.19752 2.17792,2.0007 0.28527,0.40088 0.43201,0.88733 0.58727,1.35421 0.15529,0.46696 0.34076,1.43645 0.34076,1.43645 0,0 0.10264,-0.99607 0.0179,-1.57162 -0.0741,-0.50293 -0.16385,-1.13483 -0.42551,-1.57068 -0.22742,-0.37882 -0.47353,-0.91009 -0.91445,-1.25113 -0.351,-0.27148 -0.95767,-0.5978 -1.49812,-0.74034 -0.67671,-0.17847 -2.0591,-0.0858 -2.0591,-0.0858 z"
         id="path31777"
         sodipodi:nodetypes="cssscsssscc" /><path
         style="fill:#ffffff;fill-opacity:1;stroke:none;stroke-width:0.264583px;stroke-linecap:butt;stroke-linejoin:miter;stroke-opacity:1"
         d="m 125.36063,272.54189 c 0,0 0.62479,-0.13175 0.86695,0.0262 0.13627,0.0889 0.25116,0.33437 0.31226,0.48515 0.11054,0.27277 0.0106,0.54603 0.17973,0.79212 0.0775,0.11268 0.21733,0.21496 0.30497,0.27263 0.22228,0.14629 0.59068,0.0302 0.74883,0.18928 0.16459,0.16556 0.3526,0.28156 0.4644,0.47182 0.18621,0.31691 0.31005,1.05822 0.31005,1.05822 0,0 0.0777,-0.81718 -0.0634,-1.20173 -0.1018,-0.2774 -0.37622,-0.49139 -0.58889,-0.61953 -0.27544,-0.16595 -0.54767,0.0946 -0.80126,-0.15523 -0.27478,-0.27069 -0.2107,-0.63723 -0.31514,-0.88301 -0.10296,-0.2423 -0.29049,-0.54934 -0.50418,-0.63549 -0.3333,-0.13437 -0.91432,0.19957 -0.91432,0.19957 z"
         id="path32055"
         sodipodi:nodetypes="csssssscsssssc" /><path
         style="fill:#ffffff;fill-opacity:1;stroke:none;stroke-width:0.264583px;stroke-linecap:butt;stroke-linejoin:miter;stroke-opacity:1"
         d="m 127.4289,272.30014 0.72044,0.0177 0.30364,0.30366 v 0.73438 l 0.39584,0.39584 v -1.35935 l -0.41138,-0.41137 h -1.24047 z"
         id="path34129" /><circle
         style="fill:#ffffff;fill-opacity:1;fill-rule:nonzero;stroke:none;stroke-width:0.465;stroke-dasharray:1.31792, 1.31792;stroke-dashoffset:0;stroke-opacity:0;paint-order:stroke fill markers"
         id="path34338"
         cx="130.1335"
         cy="268.6445"
         r="0.46988407" /><circle
         style="fill:#ffffff;fill-opacity:1;fill-rule:nonzero;stroke:none;stroke-width:0.465;stroke-dasharray:1.31792, 1.31792;stroke-dashoffset:0;stroke-opacity:0;paint-order:stroke fill markers"
         id="path34340"
         cx="132.44144"
         cy="271.00644"
         r="0.48184061" /><circle
         style="fill:#ffffff;fill-opacity:1;fill-rule:nonzero;stroke:none;stroke-width:0.465;stroke-dasharray:1.31792, 1.31792;stroke-dashoffset:0;stroke-opacity:0;paint-order:stroke fill markers"
         id="path34342"
         cx="130.86089"
         cy="270.23984"
         r="0.60202736" /><path
         id="rect34344"
         style="fill:#ffffff;stroke-width:0.465;stroke-dasharray:1.31792, 1.31792;stroke-opacity:0;paint-order:stroke fill markers"
         transform="rotate(-10.915314)"
         d="m 76.678238,288.78998 h 0.340669 l 0.06519,0.77337 0.237525,1.20865 -0.09931,0.43101 -0.921306,-1.34649 0.409244,-0.004 z"
         sodipodi:nodetypes="cccccccc" /><rect
         style="fill:#ffffff;fill-opacity:1;fill-rule:nonzero;stroke:none;stroke-width:0.465;stroke-dasharray:1.31792, 1.31792;stroke-dashoffset:0;stroke-opacity:0;paint-order:stroke fill markers"
         id="rect34346"
         width="0.34066895"
         height="1.1679513"
         x="-241.16568"
         y="-181.0209"
         transform="matrix(0.18935783,-0.98190815,-0.98190815,-0.18935783,0,0)" /></g></g></svg>
