<?xml version="1.0" encoding="UTF-8" standalone="no"?>
<!-- Created with Inkscape (http://www.inkscape.org/) -->

<svg
   width="256"
   height="256"
   viewBox="0 0 67.733332 67.733333"
   version="1.1"
   id="svg457"
   sodipodi:docname="s3custom_killer_wail.svg"
   inkscape:version="1.2.2 (b0a8486541, 2022-12-01)"
   inkscape:export-filename="killerwail.png"
   inkscape:export-xdpi="96"
   inkscape:export-ydpi="96"
   xmlns:inkscape="http://www.inkscape.org/namespaces/inkscape"
   xmlns:sodipodi="http://sodipodi.sourceforge.net/DTD/sodipodi-0.dtd"
   xmlns:xlink="http://www.w3.org/1999/xlink"
   xmlns="http://www.w3.org/2000/svg"
   xmlns:svg="http://www.w3.org/2000/svg">
  <sodipodi:namedview
     id="namedview459"
     pagecolor="#b1b1b1"
     bordercolor="#666666"
     borderopacity="1.0"
     inkscape:showpageshadow="2"
     inkscape:pageopacity="0"
     inkscape:pagecheckerboard="0"
     inkscape:deskcolor="#d1d1d1"
     inkscape:document-units="mm"
     showgrid="false"
     inkscape:zoom="2.2450725"
     inkscape:cx="65.922147"
     inkscape:cy="114.0275"
     inkscape:window-width="1906"
     inkscape:window-height="1026"
     inkscape:window-x="5"
     inkscape:window-y="25"
     inkscape:window-maximized="1"
     inkscape:current-layer="g23825" />
  <defs
     id="defs454">
    <inkscape:path-effect
       effect="mirror_symmetry"
       start_point="181.03942,107.68606"
       end_point="181.03942,113.30377"
       center_point="181.03942,110.49491"
       id="path-effect2019"
       is_visible="true"
       lpeversion="1.2"
       lpesatellites=""
       mode="free"
       discard_orig_path="false"
       fuse_paths="true"
       oposite_fuse="false"
       split_items="false"
       split_open="false"
       link_styles="false" />
    <inkscape:path-effect
       effect="mirror_symmetry"
       start_point="181.03942,107.68606"
       end_point="181.03942,113.30377"
       center_point="181.03942,110.49491"
       id="path-effect1285"
       is_visible="true"
       lpeversion="1.2"
       lpesatellites=""
       mode="free"
       discard_orig_path="false"
       fuse_paths="true"
       oposite_fuse="false"
       split_items="false"
       split_open="false"
       link_styles="false" />
    <inkscape:path-effect
       effect="mirror_symmetry"
       start_point="181.03942,107.68606"
       end_point="181.03942,113.30377"
       center_point="181.03942,110.49491"
       id="path-effect1277"
       is_visible="true"
       lpeversion="1.2"
       lpesatellites=""
       mode="free"
       discard_orig_path="false"
       fuse_paths="true"
       oposite_fuse="false"
       split_items="false"
       split_open="false"
       link_styles="false" />
    <linearGradient
       id="linearGradient1269"
       inkscape:swatch="solid">
      <stop
         style="stop-color:#3a0dcd;stop-opacity:1;"
         offset="0"
         id="stop1267" />
    </linearGradient>
    <inkscape:path-effect
       effect="mirror_symmetry"
       start_point="181.03942,107.68606"
       end_point="181.03942,113.30377"
       center_point="181.03942,110.49491"
       id="path-effect477"
       is_visible="true"
       lpeversion="1.2"
       lpesatellites=""
       mode="free"
       discard_orig_path="false"
       fuse_paths="true"
       oposite_fuse="false"
       split_items="false"
       split_open="false"
       link_styles="false" />
    <linearGradient
       id="linearGradient4469"
       inkscape:swatch="solid">
      <stop
         style="stop-color:#3a0dcd;stop-opacity:1;"
         offset="0"
         id="stop4467" />
    </linearGradient>
    <linearGradient
       id="linearGradient4409"
       inkscape:swatch="solid">
      <stop
         style="stop-color:#3a0dcd;stop-opacity:1;"
         offset="0"
         id="stop4407" />
    </linearGradient>
    <linearGradient
       id="linearGradient53638"
       inkscape:swatch="solid">
      <stop
         style="stop-color:#3a0dcd;stop-opacity:1;"
         offset="0"
         id="stop53636" />
    </linearGradient>
    <linearGradient
       inkscape:collect="always"
       xlink:href="#linearGradient53638"
       id="linearGradient23837"
       gradientUnits="userSpaceOnUse"
       x1="174.03864"
       y1="114.59361"
       x2="175.89046"
       y2="114.59361"
       gradientTransform="matrix(2.5247796,0,0,1.1018216,-265.88948,-11.668106)" />
    <linearGradient
       inkscape:collect="always"
       xlink:href="#linearGradient53638"
       id="linearGradient1271"
       x1="179.75871"
       y1="110.97617"
       x2="182.32011"
       y2="110.97617"
       gradientUnits="userSpaceOnUse" />
    <linearGradient
       inkscape:collect="always"
       xlink:href="#linearGradient53638"
       id="linearGradient1279"
       gradientUnits="userSpaceOnUse"
       x1="179.75871"
       y1="110.97617"
       x2="182.32011"
       y2="110.97617" />
    <linearGradient
       inkscape:collect="always"
       xlink:href="#linearGradient53638"
       id="linearGradient1287"
       gradientUnits="userSpaceOnUse"
       x1="179.75871"
       y1="110.97617"
       x2="182.32011"
       y2="110.97617" />
  </defs>
  <g
     inkscape:label="Layer 1"
     inkscape:groupmode="layer"
     id="layer1">
    <g
       id="g23825"
       transform="matrix(3.2359779,0,0,3.2359779,-527.98389,-337.55222)">
      <path
         style="fill:url(#linearGradient1287);fill-opacity:1;stroke:none;stroke-width:0.081763px;stroke-linecap:butt;stroke-linejoin:miter;stroke-opacity:1"
         d="m 181.03942,113.30377 -0.77775,-0.35235 c 0,0 -0.17535,-0.55294 -0.22451,-0.83788 -0.16627,-0.96371 -0.23415,-2.92449 -0.23415,-2.92449 h 0.94273 l -0.10385,-0.53437 0.39753,-0.0102 0.39753,0.0102 -0.10385,0.53437 h 0.94273 c 0,0 -0.0679,1.96078 -0.23415,2.92449 -0.0492,0.28494 -0.22451,0.83788 -0.22451,0.83788 z"
         id="path1281"
         sodipodi:nodetypes="ccscccc"
         transform="matrix(-0.98641621,-0.16426518,-0.16426518,0.98641621,373.39755,32.413816)"
         inkscape:transform-center-x="-1.0057381"
         inkscape:transform-center-y="-0.46115085"
         inkscape:original-d="m 181.03942,113.30377 -0.77775,-0.35235 c 0,0 -0.17535,-0.55294 -0.22451,-0.83788 -0.16627,-0.96371 -0.23415,-2.92449 -0.23415,-2.92449 h 0.94273 l -0.10385,-0.53437 0.50091,-0.0128"
         inkscape:path-effect="#path-effect1285"
         class="UnoptimicedTransforms" />
      <path
         style="fill:url(#linearGradient1279);fill-opacity:1;stroke:none;stroke-width:0.081763px;stroke-linecap:butt;stroke-linejoin:miter;stroke-opacity:1"
         d="m 181.03942,113.30377 -0.77775,-0.35235 c 0,0 -0.17535,-0.55294 -0.22451,-0.83788 -0.16627,-0.96371 -0.23415,-2.92449 -0.23415,-2.92449 h 0.94273 l -0.10385,-0.53437 0.39753,-0.0102 0.39753,0.0102 -0.10385,0.53437 h 0.94273 c 0,0 -0.0679,1.96078 -0.23415,2.92449 -0.0492,0.28494 -0.22451,0.83788 -0.22451,0.83788 z"
         id="path1273"
         inkscape:path-effect="#path-effect1277"
         inkscape:original-d="m 181.03942,113.30377 -0.77775,-0.35235 c 0,0 -0.17535,-0.55294 -0.22451,-0.83788 -0.16627,-0.96371 -0.23415,-2.92449 -0.23415,-2.92449 h 0.94273 l -0.10385,-0.53437 0.50091,-0.0128"
         class="UnoptimicedTransforms"
         sodipodi:nodetypes="ccscccc"
         transform="matrix(0.88018988,-0.47462173,-0.47462173,-0.88018988,71.982634,300.7609)" />
      <ellipse
         style="fill:#3a0dcd;fill-opacity:1;stroke:none;stroke-width:0.112795;stroke-linecap:round;stroke-opacity:0.998965;paint-order:stroke fill markers"
         id="path4557"
         cx="169.77557"
         cy="114.52863"
         rx="3.7043021"
         ry="5.2373414" />
      <path
         style="fill:url(#linearGradient23837);fill-opacity:1;stroke:none;stroke-width:0.441296px;stroke-linecap:butt;stroke-linejoin:miter;stroke-opacity:1"
         d="m 173.21062,118.17654 c 0.10576,-0.343 0.4614,-0.98817 0.58145,-1.3668 0.16184,-0.51045 0.26703,-1.78142 0.24713,-2.23824 -0.0224,-0.51463 -0.27604,-1.6777 -0.57565,-2.75782 -0.21956,-0.79149 -1.30696,-2.28232 -1.50311,-2.69694 0.20759,0.071 2.74853,3.02604 3.23044,3.2661 1.31513,0.65514 2.0654,1.04321 2.47184,1.12422 0.38448,0.18231 0.50627,0.79187 0.53584,1.16911 0.0312,0.39795 -0.0965,0.90914 -0.66549,1.4495 -1.47812,0.19419 -2.96736,1.63453 -4.32247,2.05087 z"
         id="path23821"
         sodipodi:nodetypes="cssscscsccc" />
      <path
         id="path23823"
         style="display:inline;fill:#fbfbf7;fill-opacity:1;fill-rule:nonzero;stroke:none;stroke-width:0.125;stroke-linecap:butt;stroke-linejoin:miter;stroke-dasharray:none;stroke-opacity:1;paint-order:stroke fill markers"
         d="m 169.38885,110.51436 a 2.7860172,3.9997649 0 0 0 -2.78588,3.99976 2.7860172,3.9997649 0 0 0 2.78588,3.99975 2.7860172,3.9997649 0 0 0 2.78639,-3.99975 2.7860172,3.9997649 0 0 0 -2.78639,-3.99976 z m 0.81597,2.38383 a 1.1853242,1.7284131 0 0 1 1.18494,1.72858 1.1853242,1.7284131 0 0 1 -1.18494,1.72858 1.1853242,1.7284131 0 0 1 -1.18546,-1.72858 1.1853242,1.7284131 0 0 1 1.18546,-1.72858 z" />
      <path
         id="path2442"
         style="fill:#3a0dcd;stroke-width:0.176403;paint-order:stroke fill markers"
         d="m 171.21935,114.44959 c 0.0969,1.33787 -1.28769,1.48096 -3.05312,1.21778 -1.82228,-0.27166 -2.25834,-0.50807 -2.25834,-1.18062 0,-0.67256 0.4216,-1.05496 2.25834,-1.25493 2.03659,-0.22174 2.94155,-0.32232 3.05312,1.21777 z"
         sodipodi:nodetypes="sssss" />
      <ellipse
         style="fill:#fbfbf7;fill-opacity:1;stroke-width:0.112795;stroke-linecap:round;stroke-opacity:0.998965;paint-order:stroke fill markers"
         id="path3518"
         cx="166.19585"
         cy="114.44786"
         rx="0.44463986"
         ry="0.71944237" />
      <path
         style="fill:url(#linearGradient1271);fill-opacity:1;stroke:none;stroke-width:0.081763px;stroke-linecap:butt;stroke-linejoin:miter;stroke-opacity:1"
         d="m 181.03942,113.30377 -0.77775,-0.35235 c 0,0 -0.17535,-0.55294 -0.22451,-0.83788 -0.16627,-0.96371 -0.23415,-2.92449 -0.23415,-2.92449 h 0.94273 l -0.10385,-0.53437 0.39753,-0.0102 0.39753,0.0102 -0.10385,0.53437 h 0.94273 c 0,0 -0.0679,1.96078 -0.23415,2.92449 -0.0492,0.28494 -0.22451,0.83788 -0.22451,0.83788 z"
         id="path475"
         inkscape:path-effect="#path-effect477"
         inkscape:original-d="m 181.03942,113.30377 -0.77775,-0.35235 c 0,0 -0.17535,-0.55294 -0.22451,-0.83788 -0.16627,-0.96371 -0.23415,-2.92449 -0.23415,-2.92449 h 0.94273 l -0.10385,-0.53437 0.50091,-0.0128"
         class="UnoptimicedTransforms"
         sodipodi:nodetypes="ccscccc"
         transform="rotate(36.111033,177.88057,108.522)" />
      <circle
         style="fill:#ffffff;stroke-width:0;paint-order:markers stroke fill;stop-color:#000000"
         id="path419"
         cx="177.61909"
         cy="114.68011"
         r="1.336681" />
    </g>
  </g>
</svg>
