<?xml version="1.0" encoding="UTF-8" standalone="no"?>
<!-- Created with Inkscape (http://www.inkscape.org/) -->

<svg
   width="256"
   height="256"
   viewBox="0 0 67.733332 67.733333"
   version="1.1"
   id="svg5168"
   xml:space="preserve"
   inkscape:version="1.2.1 (9c6d41e410, 2022-07-14, custom)"
   sodipodi:docname="autobomb_rush.svg"
   inkscape:export-filename="autobomb_rush.png"
   inkscape:export-xdpi="96"
   inkscape:export-ydpi="96"
   xmlns:inkscape="http://www.inkscape.org/namespaces/inkscape"
   xmlns:sodipodi="http://sodipodi.sourceforge.net/DTD/sodipodi-0.dtd"
   xmlns="http://www.w3.org/2000/svg"
   xmlns:svg="http://www.w3.org/2000/svg"><sodipodi:namedview
     id="namedview5170"
     pagecolor="#505050"
     bordercolor="#eeeeee"
     borderopacity="1"
     inkscape:showpageshadow="0"
     inkscape:pageopacity="0"
     inkscape:pagecheckerboard="0"
     inkscape:deskcolor="#505050"
     inkscape:document-units="mm"
     showgrid="false"
     inkscape:zoom="5.3702251"
     inkscape:cx="119.08253"
     inkscape:cy="162.2837"
     inkscape:window-width="1916"
     inkscape:window-height="1036"
     inkscape:window-x="0"
     inkscape:window-y="20"
     inkscape:window-maximized="1"
     inkscape:current-layer="layer1" /><defs
     id="defs5165"><linearGradient
       id="linearGradient53638"
       inkscape:swatch="solid"><stop
         style="stop-color:#3a0dcd;stop-opacity:1;"
         offset="0"
         id="stop53636" /></linearGradient></defs><g
     inkscape:label="Layer 1"
     inkscape:groupmode="layer"
     id="layer1"><ellipse
       style="fill-opacity:1;fill-rule:nonzero;stroke:none;stroke-width:0.705332;stroke-dasharray:1.99908, 1.99908;stroke-dashoffset:0;stroke-opacity:0;paint-order:stroke fill markers"
       id="path23915"
       cx="20.393648"
       cy="47.660419"
       rx="2.5752895"
       ry="2.7356305" 
       class="ink"/><rect
       style="fill-opacity:1;fill-rule:nonzero;stroke:none;stroke-width:0.705528;stroke-dasharray:1.99963, 1.99963;stroke-dashoffset:0;stroke-opacity:0;paint-order:stroke fill markers"
       id="rect23917"
       width="2.7350631"
       height="6.8770142"
       x="5.7210855"
       y="51.698502"
       ry="1.4381158"
       class="ink"
       transform="matrix(0.95240267,-0.30484282,0.27289027,0.96204517,0,0)" /><path
       class="ink"
       style="fill-opacity:1;stroke:none;stroke-width:0.401331px;stroke-linecap:butt;stroke-linejoin:miter;stroke-opacity:1"
       d="M 20.873651,52.55293 H 18.2151 l -0.383403,-0.407268 h -0.888098 l -0.554235,0.588741 v 1.111041 l 0.355504,0.218041 v 0.448775 h -3.540983 v 0.711918 l 0.92724,0.568668 h 10.51141 l 0.855408,-0.524613 v -0.672396 h -7.339866 v -0.829404 h 2.960325 0.379234 L 21.18006,52.507436 Z"
       id="path23919" /><path
       id="path24684"
       class="ink"
       style="fill-opacity:1;stroke:none;stroke-width:0.401331px;stroke-linecap:butt;stroke-linejoin:miter;stroke-opacity:1"
       d="m 29.815892,40.194873 -2.820812,1.83631 0.03575,5.467345 2.445927,1.709913 2.476233,-0.01251 v -9.000623 z m -0.936976,1.052665 h 0.759011 l 0.679154,0.19309 v 2.744381 l -0.473811,0.29083 h -1.223695 l -0.592454,-0.629342 v -1.820161 z m -0.359732,3.732419 h 1.223696 l 0.474571,0.290845 v 2.744381 l -0.679914,0.193887 h -0.759011 l -0.851795,-0.779611 v -1.82016 z"
       sodipodi:nodetypes="ccccccccccccccccccccccccc" /><path
       class="ink"
       style="fill-opacity:1;stroke:none;stroke-width:0.401331px;stroke-linecap:butt;stroke-linejoin:miter;stroke-opacity:1"
       d="m 11.162633,34.128671 v 2.612294 l 8.878716,0.416601 v -0.493377 l -6.000276,-2.685787 z"
       id="path25297" /><path
       id="path27766"
       style="fill:#ffffff;fill-opacity:1;stroke:none;stroke-width:0.401331px;stroke-linecap:butt;stroke-linejoin:miter;stroke-opacity:1"
       d="m 10.169773,43.422361 2.098302,5.218928 c 0,0 0.428874,0.731179 0.741011,0.980799 0.319613,0.255576 1.154239,0.53479 1.154239,0.53479 l 3.410221,-0.03471 0.09816,-0.0161 c -0.596016,-0.729255 -0.924621,-1.662293 -0.925563,-2.628037 8.68e-4,-1.358253 0.648144,-2.623972 1.72032,-3.36403 z m 12.887968,1.074489 c 0.794449,0.761273 1.247958,1.844549 1.248032,2.981088 -9.42e-4,0.545531 -0.106552,1.085137 -0.310297,1.585878 l 0.401558,-0.06629 c 0,0 0.999326,-0.796433 1.230548,-1.380672 0.352579,-0.890859 0.103462,-2.897058 0.103462,-2.897058 z"
       sodipodi:nodetypes="ccsccccccccccscc" /><path
       id="path27771"
       style="fill:#ffffff;fill-opacity:1;stroke:none;stroke-width:0.401331px;stroke-linecap:butt;stroke-linejoin:miter;stroke-opacity:1"
       d="m 10.356932,38.248675 c 0,0 -0.266219,0.0752 -0.334669,0.165605 -0.091982,0.121473 -0.1467302,0.470209 -0.1467302,0.470209 l -0.287481,3.318772 16.0008242,1.232841 0.127745,-2.657944 c 0,0 -0.09875,-1.046646 -0.386002,-1.421694 -0.25318,-0.330507 -1.235449,-0.694955 -1.235449,-0.694955 z m 1.306591,1.68848 c 0.41451,1.56e-4 0.750503,0.357069 0.75065,0.797386 2.65e-4,0.44063 -0.335846,0.798027 -0.75065,0.798184 -0.415098,2.81e-4 -0.751665,-0.357241 -0.7514,-0.798184 1.47e-4,-0.44063 0.336596,-0.797668 0.7514,-0.797386 z"
       sodipodi:nodetypes="csccccsccccccc" /><ellipse
       style="fill-opacity:1;fill-rule:nonzero;stroke:none;stroke-width:0.705332;stroke-dasharray:1.99908, 1.99908;stroke-dashoffset:0;stroke-opacity:0;paint-order:stroke fill markers"
       class="ink"
       id="circle5322"
       cx="-46.578342"
       cy="47.537422"
       transform="scale(-1,1)"
       rx="2.5752895"
       ry="2.7356305" /><rect
       class="ink"
       style="fill-opacity:1;fill-rule:nonzero;stroke:none;stroke-width:0.705528;stroke-dasharray:1.99963, 1.99963;stroke-dashoffset:0;stroke-opacity:0;paint-order:stroke fill markers"
       id="rect5324"
       width="2.7350631"
       height="6.8770142"
       x="-58.711315"
       y="31.153984"
       ry="1.4381158"
       transform="matrix(-0.95240267,-0.30484282,-0.27289027,0.96204517,0,0)" /><path
       class="ink"
       style="fill-opacity:1;stroke:none;stroke-width:0.401331px;stroke-linecap:butt;stroke-linejoin:miter;stroke-opacity:1"
       d="m 46.098338,52.429933 h 2.658551 l 0.383403,-0.407268 h 0.888098 l 0.554234,0.588741 v 1.111041 l -0.355503,0.218041 v 0.448775 h 3.540983 v 0.711918 l -0.92724,0.568668 H 42.329454 L 41.474046,55.145236 V 54.47284 h 7.339866 v -0.829404 h -2.960326 -0.379233 l 0.317576,-1.258997 z"
       id="path5326" /><path
       class="ink"
       id="path5328"
       style="fill-opacity:1;stroke:none;stroke-width:0.401331px;stroke-linecap:butt;stroke-linejoin:miter;stroke-opacity:1"
       d="m 37.156097,40.071876 2.820811,1.83631 -0.03575,5.467345 -2.445926,1.709913 -2.476233,-0.01251 v -9.000623 z m 0.936975,1.052665 h -0.75901 l -0.679154,0.19309 v 2.744381 l 0.473811,0.29083 h 1.223695 L 38.944868,43.7235 v -1.820161 z m 0.359733,3.732419 h -1.223696 l -0.474571,0.290845 v 2.744381 l 0.679914,0.193887 h 0.759011 l 0.851795,-0.779611 v -1.82016 z"
       sodipodi:nodetypes="ccccccccccccccccccccccccc" /><path
       class="ink"
       style="fill-opacity:1;stroke:none;stroke-width:0.401331px;stroke-linecap:butt;stroke-linejoin:miter;stroke-opacity:1"
       d="m 55.809356,34.005674 v 2.612294 l -8.878716,0.416601 v -0.493377 l 6.000275,-2.685787 z"
       id="path5330" /><path
       id="path5332"
       style="fill:#ffffff;fill-opacity:1;stroke:none;stroke-width:0.401331px;stroke-linecap:butt;stroke-linejoin:miter;stroke-opacity:1"
       d="m 56.802215,43.299364 -2.098302,5.218928 c 0,0 -0.428873,0.731179 -0.74101,0.980799 -0.319613,0.255576 -1.154239,0.53479 -1.154239,0.53479 l -3.410221,-0.03471 -0.09816,-0.0161 c 0.596016,-0.729255 0.924621,-1.662293 0.925563,-2.628037 -8.68e-4,-1.358253 -0.648145,-2.623972 -1.720321,-3.36403 z m -12.887968,1.074489 c -0.794448,0.761273 -1.247958,1.844549 -1.248031,2.981088 9.42e-4,0.545531 0.106552,1.085137 0.310297,1.585878 l -0.401559,-0.06629 c 0,0 -0.999326,-0.796433 -1.230547,-1.380672 -0.35258,-0.890859 -0.103462,-2.897058 -0.103462,-2.897058 z"
       sodipodi:nodetypes="ccsccccccccccscc" /><path
       id="path5334"
       style="fill:#ffffff;fill-opacity:1;stroke:none;stroke-width:0.401331px;stroke-linecap:butt;stroke-linejoin:miter;stroke-opacity:1"
       d="m 56.615057,38.125678 c 0,0 0.266219,0.0752 0.334669,0.165605 0.09198,0.121473 0.14673,0.470209 0.14673,0.470209 l 0.287481,3.318772 -16.000824,1.232841 -0.127745,-2.657944 c 0,0 0.09875,-1.046646 0.386002,-1.421694 0.25318,-0.330507 1.235449,-0.694955 1.235449,-0.694955 z m -1.306591,1.68848 c -0.41451,1.56e-4 -0.750503,0.357069 -0.75065,0.797386 -2.65e-4,0.44063 0.335846,0.798027 0.75065,0.798184 0.415098,2.81e-4 0.751665,-0.357241 0.7514,-0.798184 -1.47e-4,-0.44063 -0.336597,-0.797668 -0.7514,-0.797386 z"
       sodipodi:nodetypes="csccccsccccccc" /><ellipse
       class="ink"
       style="fill-opacity:1;fill-rule:nonzero;stroke:none;stroke-width:0.705332;stroke-dasharray:1.99908, 1.99908;stroke-dashoffset:0;stroke-opacity:0;paint-order:stroke fill markers"
       id="circle5348"
       cx="-32.49715"
       cy="23.543961"
       transform="scale(-1,1)"
       rx="2.5752895"
       ry="2.7356305" /><rect
       class="ink"
       style="fill-opacity:1;fill-rule:nonzero;stroke:none;stroke-width:0.705528;stroke-dasharray:1.99963, 1.99963;stroke-dashoffset:0;stroke-opacity:0;paint-order:stroke fill markers"
       id="rect5350"
       width="2.7350631"
       height="6.8770142"
       x="-38.605793"
       y="12.584756"
       ry="1.4381158"
       transform="matrix(-0.95240267,-0.30484282,-0.27289027,0.96204517,0,0)" /><path
       class="ink"
       style="fill-opacity:1;stroke:none;stroke-width:0.401331px;stroke-linecap:butt;stroke-linejoin:miter;stroke-opacity:1"
       d="m 32.017147,28.436472 h 2.658551 l 0.383403,-0.407268 h 0.888098 l 0.554234,0.588742 v 1.111041 l -0.355503,0.21804 v 0.448775 h 3.540983 v 0.711918 l -0.92724,0.568668 h -10.51141 l -0.855408,-0.524613 v -0.672396 h 7.339866 v -0.829404 h -2.960326 -0.379233 l 0.317576,-1.258996 z"
       id="path5352" /><path
       id="path5354"
       class="ink"
       style="fill-opacity:1;stroke:none;stroke-width:0.401331px;stroke-linecap:butt;stroke-linejoin:miter;stroke-opacity:1"
       d="m 23.074906,16.078415 2.820811,1.83631 -0.03575,5.467345 -2.445926,1.709913 -2.476233,-0.01251 V 16.07885 Z m 0.936975,1.052666 h -0.75901 l -0.679154,0.193089 v 2.744381 l 0.473811,0.29083 h 1.223695 l 0.592454,-0.629342 v -1.82016 z m 0.359733,3.732418 h -1.223696 l -0.474571,0.290845 v 2.744382 l 0.679914,0.193886 h 0.759011 l 0.851795,-0.779611 v -1.82016 z"
       sodipodi:nodetypes="ccccccccccccccccccccccccc" /><path
       class="ink"
       style="fill-opacity:1;stroke:none;stroke-width:0.401331px;stroke-linecap:butt;stroke-linejoin:miter;stroke-opacity:1"
       d="m 41.728165,10.012213 v 2.612294 l -8.878716,0.416602 v -0.493378 l 6.000275,-2.6857869 z"
       id="path5356" /><path
       id="path5358"
       style="fill:#ffffff;fill-opacity:1;stroke:none;stroke-width:0.401331px;stroke-linecap:butt;stroke-linejoin:miter;stroke-opacity:1"
       d="m 42.721024,19.305903 -2.098302,5.218928 c 0,0 -0.428873,0.731179 -0.74101,0.980799 -0.319613,0.255576 -1.154239,0.53479 -1.154239,0.53479 l -3.410221,-0.03471 -0.09816,-0.0161 c 0.596016,-0.729255 0.924621,-1.662293 0.925563,-2.628037 -8.68e-4,-1.358253 -0.648145,-2.623972 -1.720321,-3.36403 z m -12.887968,1.07449 c -0.794448,0.761273 -1.247958,1.844549 -1.248031,2.981088 9.42e-4,0.54553 0.106552,1.085136 0.310297,1.585877 l -0.401559,-0.06629 c 0,0 -0.999326,-0.796433 -1.230547,-1.380672 -0.35258,-0.890859 -0.103462,-2.897058 -0.103462,-2.897058 z"
       sodipodi:nodetypes="ccsccccccccccscc" /><path
       id="path5360"
       style="fill:#ffffff;fill-opacity:1;stroke:none;stroke-width:0.401331px;stroke-linecap:butt;stroke-linejoin:miter;stroke-opacity:1"
       d="m 42.533866,14.132217 c 0,0 0.266219,0.0752 0.334669,0.165606 0.09198,0.121472 0.14673,0.470208 0.14673,0.470208 l 0.287481,3.318772 -16.000824,1.232842 -0.127745,-2.657944 c 0,0 0.09875,-1.046647 0.386002,-1.421695 0.25318,-0.330507 1.235449,-0.694955 1.235449,-0.694955 z m -1.306591,1.68848 c -0.41451,1.56e-4 -0.750503,0.357069 -0.75065,0.797386 -2.65e-4,0.44063 0.335846,0.798027 0.75065,0.798184 0.415098,2.81e-4 0.751665,-0.357241 0.7514,-0.798184 -1.47e-4,-0.44063 -0.336597,-0.797668 -0.7514,-0.797386 z"
       sodipodi:nodetypes="csccccsccccccc" /></g></svg>
