<?xml version="1.0" encoding="UTF-8" standalone="no"?>
<!-- Created with Inkscape (http://www.inkscape.org/) -->

<svg
   width="128"
   height="128"
   viewBox="0 0 33.866666 33.866666"
   version="1.1"
   id="svg11778"
   inkscape:version="1.2.1 (9c6d41e410, 2022-07-14, custom)"
   sodipodi:docname="s3_booyah_bomb.svg"
   xml:space="preserve"
   xmlns:inkscape="http://www.inkscape.org/namespaces/inkscape"
   xmlns:sodipodi="http://sodipodi.sourceforge.net/DTD/sodipodi-0.dtd"
   xmlns="http://www.w3.org/2000/svg"
   xmlns:svg="http://www.w3.org/2000/svg"><sodipodi:namedview
     id="namedview11780"
     pagecolor="#505050"
     bordercolor="#eeeeee"
     borderopacity="1"
     inkscape:showpageshadow="0"
     inkscape:pageopacity="0"
     inkscape:pagecheckerboard="0"
     inkscape:deskcolor="#505050"
     inkscape:document-units="mm"
     showgrid="false"
     inkscape:zoom="4.5858234"
     inkscape:cx="25.840507"
     inkscape:cy="80.79247"
     inkscape:window-width="1916"
     inkscape:window-height="1036"
     inkscape:window-x="0"
     inkscape:window-y="20"
     inkscape:window-maximized="1"
     inkscape:current-layer="layer1" /><defs
     id="defs11775"><linearGradient
       id="linearGradient53638"
       inkscape:swatch="solid"><stop
         style="stop-color:#3a0dcd;stop-opacity:1;"
         offset="0"
         id="stop53636" /></linearGradient></defs><g
     inkscape:label="Layer 1"
     inkscape:groupmode="layer"
     id="layer1"><path
       style="fill:#ffffff;fill-opacity:1;stroke:none;stroke-width:0.252393px;stroke-linecap:butt;stroke-linejoin:miter;stroke-opacity:1"
       d="m 21.374674,28.166343 -0.0094,-0.418135 0.221668,-0.611954 0.736469,1.220235 c 0,0 0.81717,-0.118554 1.237597,0.02547 0.265504,0.09091 0.471065,0.456759 0.555107,0.576191 0.146016,0.207508 0.193721,0.389479 0.08611,0.785187 -0.107606,0.395708 -0.573642,0.646181 -0.991657,0.645227 -0.427403,-9.5e-4 -0.841748,-0.274369 -1.082829,-0.686694 -0.09032,-0.15446 -0.156869,-0.609255 -0.156869,-0.609255 z"
       id="path24630"
       sodipodi:nodetypes="ccccssssscc" /><path
       id="path24616"
       class="ink"
       style="fill-opacity:1;stroke:none;stroke-width:0.252393px;stroke-linecap:butt;stroke-linejoin:miter;stroke-opacity:1"
       d="m 22.227895,13.752673 1.960876,-0.03902 1.853473,0.259601 1.510028,0.37124 0.890755,0.73689 -0.02282,0.925262 -0.909447,0.732959 -1.351296,-0.122455 -2.774059,-1.507711 z m -10.0966,4.731479 -2.7800379,2.769957 -0.633879,1.793317 0.128451,0.810971 0.985966,0.167395 1.0972969,-0.0807 0.623355,-1.574495 0.743569,-1.854702 z m 10.90998,-9.3485828 0.901719,0.275971 1.761899,0.04636 0.972704,-0.608491 -0.0063,-1.141126 L 25.947162,7.1433484 24.956359,7.3863899 22.98611,8.8208682 Z M 10.484132,6.9465449 10.327359,5.9496239 9.5146771,4.275653 8.4146121,3.7039072 7.2453381,4.344021 7.0185236,5.3354284 7.7519761,6.1272354 10.1877,7.1730739 Z m -0.36325,5.9323881 -4.6118205,0.597454 -1.1696818,0.408777 -0.1282126,0.995165 0.5743548,0.846878 1.0964862,0.226548 4.5947369,-1.983339 z m 5.859351,-6.5489976 0.182663,-2.9059677 0.265689,-1.068618 0.950205,-0.6528392 0.956497,0.1927315 0.542959,0.9942212 -0.261798,1.0138625 -1.426087,2.7992332 z m 4.85159,5.3423836 c 1e-6,3.016366 -2.445248,5.461616 -5.461615,5.461616 -3.016366,0 -5.4616149,-2.44525 -5.4616139,-5.461616 -1e-6,-3.0163648 2.4452479,-5.4616146 5.4616139,-5.4616146 3.016367,0 5.461616,2.4452498 5.461615,5.4616146 z m -2.058868,13.323684 c 0,0 -0.821612,0.869362 -1.039482,1.411565 -0.291955,0.726568 -0.142533,1.563076 -0.303165,2.329462 -0.08528,0.406869 -0.349203,1.197255 -0.349203,1.197255 l 1.281781,0.25776 2.172788,-0.02451 1.074623,-0.282219 c 0,0 -0.232573,-0.575705 -0.271829,-0.880284 -0.05419,-0.420444 -0.02022,-0.853355 0.05485,-1.270574 0.07423,-0.412526 0.355112,-0.778462 0.387073,-1.196387 0.02963,-0.387457 -0.186016,-1.150818 -0.186016,-1.150818 l -1.630686,-0.975219 0.197218,-1.508159 1.527033,0.400192 1.722728,1.160767 -0.21299,0.671775 c 0,0 -0.03412,0.903617 0.218542,1.237863 0.234742,0.310532 0.664903,0.459879 1.051067,0.508987 0.305929,0.03892 0.680331,0.02699 0.907101,-0.181999 0.283464,-0.261252 0.454217,-0.98804 0.319053,-1.111602 -0.135164,-0.123553 -0.364923,-0.225604 -0.424014,-0.414129 -0.144449,-0.460842 0.185325,-0.947975 0.273204,-1.422868 0.08572,-0.463227 0.285232,-0.921771 0.247825,-1.39138 -0.04148,-0.520701 -0.338901,-1.226845 -0.515564,-1.479827 -0.245552,-0.351627 -0.539921,-0.686293 -0.89963,-0.919853 -0.331305,-0.215111 -0.672915,-0.276734 -1.111053,-0.412182 -0.246539,-0.07622 -0.84829,-0.227522 -1.138301,-0.247048 -0.655233,-0.04416 -1.089127,-0.0496 -1.645183,0.29979 -0.502117,0.315502 -0.900758,1.32532 -1.227666,1.820084 -0.342012,0.517639 -0.777571,1.21744 -0.777571,1.21744 l -0.486795,0.08442 -0.487765,0.915312 0.325455,1.09342 z"
       sodipodi:nodetypes="ccccccccccccccccccccccccccccccccccccccccccccccccccccccssssscssccccsssccccccsssssssssssssccccc" /><path
       style="fill:#ffffff;fill-opacity:1;stroke:none;stroke-width:0.252393px;stroke-linecap:butt;stroke-linejoin:miter;stroke-opacity:1"
       d="m 20.505557,21.40316 c 0,0 0.667517,0.692475 1.07361,0.940239 0.483919,0.29525 1.030425,0.492531 1.581587,0.625089 0.363562,0.08748 1.116653,0.107145 1.116653,0.107145 l -0.120068,1.373741 -0.702458,1.142767 c 0,0 -0.551386,0.252772 -0.846393,0.259373 -0.531544,0.01192 -1.06597,-0.166775 -1.544401,-0.398684 -0.361414,-0.175189 -0.869655,-0.364258 -1.054433,-0.720864 -0.380143,-0.733656 0.0075,-2.485734 0.0075,-2.485734 z"
       id="path7608" /><path
       style="fill:#ffffff;fill-opacity:1;stroke:none;stroke-width:0.252393px;stroke-linecap:butt;stroke-linejoin:miter;stroke-opacity:1"
       d="m 19.177038,24.747133 c 0.07156,0.32301 -0.03544,0.961702 -0.09643,1.093649 -0.05082,0.10995 -0.331772,0.399095 -0.611131,0.480007 -0.323203,0.09358 -0.743925,0.05523 -0.995293,-0.168502 -0.27619,-0.245779 -0.3109,-1.064669 -0.3109,-1.064669 l -0.368311,-3.50305 -0.06809,-1.135526 c 0,0 -0.897503,-0.265497 -1.243877,-0.560117 -0.257804,-0.21928 -0.577904,-0.508949 -0.560034,-0.846926 0.01216,-0.230106 0.232792,-0.432329 0.439972,-0.533197 0.36026,-0.175389 0.810766,-0.118306 1.201677,-0.03034 0.259351,0.05838 0.445951,0.357207 0.711777,0.359716 0.335131,0.0029 0.598343,-0.158943 0.9115,-0.296328 0.211361,-0.09272 0.550261,0.09415 0.550261,0.272537 0,0.178413 -0.428734,0.836032 -0.480562,0.880513 -0.09193,0.07889 -0.255624,0.336202 -0.255624,0.336202 l 0.140704,1.161731 c 0,0 0.06688,1.483767 0.293725,2.181575 0.160739,0.494458 0.628185,0.865097 0.74064,1.37272 z"
       id="path7606"
       sodipodi:nodetypes="sssscccssssssssccss" /></g></svg>
