<?xml version="1.0" encoding="UTF-8" standalone="no"?>
<!-- Created with Inkscape (http://www.inkscape.org/) -->

<svg
   width="256"
   height="256"
   viewBox="0 0 67.733332 67.733333"
   version="1.1"
   id="svg5438"
   xml:space="preserve"
   inkscape:version="1.2.1 (9c6d41e410, 2022-07-14, custom)"
   sodipodi:docname="s3_burst_bomb_rush.svg"
   inkscape:export-filename="burstbomb_rush.png"
   inkscape:export-xdpi="96"
   inkscape:export-ydpi="96"
   xmlns:inkscape="http://www.inkscape.org/namespaces/inkscape"
   xmlns:sodipodi="http://sodipodi.sourceforge.net/DTD/sodipodi-0.dtd"
   xmlns:xlink="http://www.w3.org/1999/xlink"
   xmlns="http://www.w3.org/2000/svg"
   xmlns:svg="http://www.w3.org/2000/svg"><sodipodi:namedview
     id="namedview5440"
     pagecolor="#505050"
     bordercolor="#eeeeee"
     borderopacity="1"
     inkscape:showpageshadow="0"
     inkscape:pageopacity="0"
     inkscape:pagecheckerboard="0"
     inkscape:deskcolor="#505050"
     inkscape:document-units="mm"
     showgrid="false"
     inkscape:zoom="4.1339357"
     inkscape:cx="147.68009"
     inkscape:cy="145.98679"
     inkscape:window-width="1916"
     inkscape:window-height="1036"
     inkscape:window-x="0"
     inkscape:window-y="20"
     inkscape:window-maximized="1"
     inkscape:current-layer="layer1" /><defs
     id="defs5435"><linearGradient
       id="linearGradient3158"
       inkscape:swatch="solid"><stop
         style="stop-color:#000000;stop-opacity:1;"
         offset="0"
         id="stop3156" /></linearGradient><linearGradient
       id="linearGradient3152"
       inkscape:swatch="solid"><stop
         style="stop-color:#000000;stop-opacity:1;"
         offset="0"
         id="stop3150" /></linearGradient><linearGradient
       id="linearGradient3146"
       inkscape:swatch="solid"><stop
         style="stop-color:#000000;stop-opacity:1;"
         offset="0"
         id="stop3144" /></linearGradient><linearGradient
       id="linearGradient3140"
       inkscape:swatch="solid"><stop
         style="stop-color:#000000;stop-opacity:1;"
         offset="0"
         id="stop3138" /></linearGradient><linearGradient
       id="linearGradient3126"
       inkscape:swatch="solid"><stop
         style="stop-color:#000000;stop-opacity:1;"
         offset="0"
         id="stop3124" /></linearGradient><linearGradient
       id="ink"
       inkscape:swatch="solid"><stop
         style="stop-opacity:1;"
         offset="0"
         id="stop3118" /></linearGradient><linearGradient
       inkscape:collect="always"
       xlink:href="#linearGradient10125"
       id="linearGradient20265"
       x1="68.883102"
       y1="293.61441"
       x2="76.790627"
       y2="293.61441"
       gradientUnits="userSpaceOnUse" /><linearGradient
       id="linearGradient10125"
       inkscape:swatch="solid"><stop
         style="stop-color:#ffffff;stop-opacity:1;"
         offset="0"
         id="stop10123" /></linearGradient><linearGradient
       inkscape:collect="always"
       xlink:href="#linearGradient10125"
       id="linearGradient20271"
       x1="65.361053"
       y1="296.63974"
       x2="77.476799"
       y2="296.63974"
       gradientUnits="userSpaceOnUse" /><linearGradient
       inkscape:collect="always"
       xlink:href="#linearGradient10125"
       id="linearGradient20277"
       x1="67.853035"
       y1="299.63614"
       x2="78.842667"
       y2="299.63614"
       gradientUnits="userSpaceOnUse" /><linearGradient
       inkscape:collect="always"
       xlink:href="#linearGradient10125"
       id="linearGradient5650"
       gradientUnits="userSpaceOnUse"
       x1="68.883102"
       y1="293.61441"
       x2="76.790627"
       y2="293.61441" /><linearGradient
       inkscape:collect="always"
       xlink:href="#linearGradient10125"
       id="linearGradient5652"
       gradientUnits="userSpaceOnUse"
       x1="65.361053"
       y1="296.63974"
       x2="77.476799"
       y2="296.63974" /><linearGradient
       inkscape:collect="always"
       xlink:href="#linearGradient10125"
       id="linearGradient5654"
       gradientUnits="userSpaceOnUse"
       x1="67.853035"
       y1="299.63614"
       x2="78.842667"
       y2="299.63614" /><linearGradient
       inkscape:collect="always"
       xlink:href="#linearGradient10125"
       id="linearGradient5672"
       gradientUnits="userSpaceOnUse"
       x1="68.883102"
       y1="293.61441"
       x2="76.790627"
       y2="293.61441" /><linearGradient
       inkscape:collect="always"
       xlink:href="#linearGradient10125"
       id="linearGradient5674"
       gradientUnits="userSpaceOnUse"
       x1="65.361053"
       y1="296.63974"
       x2="77.476799"
       y2="296.63974" /><linearGradient
       inkscape:collect="always"
       xlink:href="#linearGradient10125"
       id="linearGradient5676"
       gradientUnits="userSpaceOnUse"
       x1="67.853035"
       y1="299.63614"
       x2="78.842667"
       y2="299.63614" /><linearGradient
       inkscape:collect="always"
       xlink:href="#ink"
       id="linearGradient3122"
       x1="52.21082"
       y1="35.807154"
       x2="59.801177"
       y2="35.807154"
       gradientUnits="userSpaceOnUse" /><linearGradient
       inkscape:collect="always"
       xlink:href="#ink"
       id="linearGradient3128"
       x1="31.753702"
       y1="53.869617"
       x2="57.428825"
       y2="53.869617"
       gradientUnits="userSpaceOnUse" /><linearGradient
       inkscape:collect="always"
       xlink:href="#ink"
       id="linearGradient3142"
       x1="24.465696"
       y1="33.871735"
       x2="50.588573"
       y2="33.871735"
       gradientUnits="userSpaceOnUse" /><linearGradient
       inkscape:collect="always"
       xlink:href="#ink"
       id="linearGradient3148"
       x1="38.686272"
       y1="15.364399"
       x2="47.379936"
       y2="15.364399"
       gradientUnits="userSpaceOnUse" /><linearGradient
       inkscape:collect="always"
       xlink:href="#ink"
       id="linearGradient3154"
       x1="7.2387962"
       y1="46.930908"
       x2="36.061966"
       y2="46.930908"
       gradientUnits="userSpaceOnUse" /><linearGradient
       inkscape:collect="always"
       xlink:href="#ink"
       id="linearGradient3160"
       x1="16.661406"
       y1="26.498638"
       x2="26.812185"
       y2="26.498638"
       gradientUnits="userSpaceOnUse" /></defs><g
     inkscape:label="Layer 1"
     inkscape:groupmode="layer"
     id="layer1"
     transform="rotate(-11.793965,18.67408,50.912922)"><path
       id="path5634"
       class="ink"
       style="stroke-width:0.197833;stroke-opacity:0;paint-order:stroke fill markers;fill-opacity:1.0;fill:url(#linearGradient3142)"
       d="m 50.520891,38.726363 c -0.661672,5.166048 -8.200516,8.016532 -15.30552,6.149278 -7.105007,-1.867255 -12.100711,-7.61446 -10.423969,-12.911201 1.129976,-3.569553 5.100858,-6.594487 9.975894,-7.157046 1.697623,-0.195894 4.178651,-3.041923 5.97378,-2.42729 2.363155,0.809039 3.422319,4.40928 4.965195,5.694513 3.494818,2.911241 5.259515,7.17819 4.81462,10.651746 z"
       sodipodi:nodetypes="sssssss" /><path
       class="ink"
       style="fill-opacity:1.0;stroke:none;stroke-width:0.523432px;stroke-linecap:butt;stroke-linejoin:miter;stroke-opacity:1;fill:url(#linearGradient3148)"
       d="m 40.733302,17.299025 2.931201,0.758071 3.715433,-0.851256 -1.189065,-2.80286 -4.119688,-1.731278 -3.287643,0.305867 -0.09727,0.610141 z"
       id="path5636" /><g
       id="g5646"
       transform="matrix(1.9133556,0.50284571,-0.50284571,1.9133556,49.084847,-569.99709)"><path
         style="fill:url(#linearGradient5650);fill-opacity:1;stroke:none;stroke-width:0.264583px;stroke-linecap:butt;stroke-linejoin:miter;stroke-opacity:1"
         d="m 69.264569,293.59375 2.936507,-0.22074 2.662253,-0.76607 1.927299,1.1448 -1.027882,0.55803 -2.127755,0.3121 -2.832947,-0.12242 -1.918941,-0.59439 z"
         id="path5638" /><path
         style="fill:url(#linearGradient5652);fill-opacity:1;stroke:none;stroke-width:0.264583px;stroke-linecap:butt;stroke-linejoin:miter;stroke-opacity:1"
         d="m 76.744559,295.90558 -2.118071,0.43354 -2.350405,0.19402 -1.760117,-0.1248 -2.101927,-0.42841 -2.348825,-0.73867 -0.556035,0.7996 -0.01442,1.06598 2.35004,0.57568 2.758675,0.37767 3.081547,-0.37222 2.03818,-0.73626 0.995691,-0.75517 0.370006,-0.30528 z"
         id="path5640" /><path
         style="fill:url(#linearGradient5654);fill-opacity:1;stroke:none;stroke-width:0.264583px;stroke-linecap:butt;stroke-linejoin:miter;stroke-opacity:1"
         d="m 78.599264,298.32517 -3.611924,1.33805 -3.252208,0.46828 -3.358002,0.0277 -0.457581,-0.17917 1.327653,0.77223 2.981737,0.24453 4.250391,-0.22402 1.463527,-0.67249 0.761571,-0.90689 z"
         id="path5642" /><path
         style="fill:#ffffff;fill-opacity:1;stroke:none;stroke-width:0.264583px;stroke-linecap:butt;stroke-linejoin:miter;stroke-opacity:1"
         d="m 70.783592,290.29046 0.811445,-0.16748 h 0.964745 l 0.753549,0.20193 v -0.62828 l -0.609205,-0.60921 h -1.333958 l -0.652341,0.65236 z"
         id="path5644" /></g><path
       id="path16630"
       class="ink"
       style="stroke-width:0.213889;stroke-opacity:0;paint-order:stroke fill markers;fill-opacity:1.0;fill:url(#linearGradient3154)"
       d="m 36.01049,48.817576 c 0.727782,5.583713 -6.371887,10.636042 -14.314373,10.636042 -7.942488,0 -14.7456155,-4.636722 -14.4479038,-10.636042 0.2006276,-4.04303 3.5215148,-8.297276 8.4645058,-10.225204 1.721288,-0.671353 3.533473,-4.329106 5.579455,-4.179727 2.693363,0.196564 4.790246,3.670095 6.756745,4.590009 4.454385,2.083746 7.472224,6.060536 7.961571,9.814922 z"
       sodipodi:nodetypes="sssssss" /><path
       class="ink"
       style="fill-opacity:1.0;stroke:none;stroke-width:0.565913px;stroke-linecap:butt;stroke-linejoin:miter;stroke-opacity:1;fill:url(#linearGradient3160)"
       d="m 19.887736,29.101747 3.273335,-0.01283 3.651115,-1.911138 -2.013588,-2.604052 -4.783522,-0.678198 -3.353671,1.223294 0.06596,0.664723 z"
       id="path16633" /><g
       id="g20283"
       transform="matrix(2.1388868,0,0,2.1388868,-132.77179,-587.29999)"><path
         style="fill:url(#linearGradient20265);fill-opacity:1;stroke:none;stroke-width:0.264583px;stroke-linecap:butt;stroke-linejoin:miter;stroke-opacity:1"
         d="m 69.264569,293.59375 2.936507,-0.22074 2.662253,-0.76607 1.927299,1.1448 -1.027882,0.55803 -2.127755,0.3121 -2.832947,-0.12242 -1.918941,-0.59439 z"
         id="path17808" /><path
         style="fill:url(#linearGradient20271);fill-opacity:1;stroke:none;stroke-width:0.264583px;stroke-linecap:butt;stroke-linejoin:miter;stroke-opacity:1"
         d="m 76.744559,295.90558 -2.118071,0.43354 -2.350405,0.19402 -1.760117,-0.1248 -2.101927,-0.42841 -2.348825,-0.73867 -0.556035,0.7996 -0.01442,1.06598 2.35004,0.57568 2.758675,0.37767 3.081547,-0.37222 2.03818,-0.73626 0.995691,-0.75517 0.370006,-0.30528 z"
         id="path17810" /><path
         style="fill:url(#linearGradient20277);fill-opacity:1;stroke:none;stroke-width:0.264583px;stroke-linecap:butt;stroke-linejoin:miter;stroke-opacity:1"
         d="m 78.599264,298.32517 -3.611924,1.33805 -3.252208,0.46828 -3.358002,0.0277 -0.457581,-0.17917 1.327653,0.77223 2.981737,0.24453 4.250391,-0.22402 1.463527,-0.67249 0.761571,-0.90689 z"
         id="path17812" /><path
         style="fill:#ffffff;fill-opacity:1;stroke:none;stroke-width:0.264583px;stroke-linecap:butt;stroke-linejoin:miter;stroke-opacity:1"
         d="m 70.783592,290.29046 0.811445,-0.16748 h 0.964745 l 0.753549,0.20193 v -0.62828 l -0.609205,-0.60921 h -1.333958 l -0.652341,0.65236 z"
         id="path17814" /></g><path
       id="path5656"
       class="ink"
       style="stroke-width:0.205191;stroke-opacity:0;paint-order:stroke fill markers;fill-opacity:1.0;fill:url(#linearGradient3128)"
       d="M 56.623322,61.502086 C 54.451907,66.448427 46.11601,67.076594 39.593536,63.137751 33.071059,59.198906 29.783688,52.017358 33.00336,47.238278 c 2.169779,-3.220694 7.006704,-5.067441 12.022053,-4.199349 1.746483,0.302298 5.048628,-1.802798 6.654735,-0.66548 2.114346,1.497115 2.113738,5.389512 3.272448,7.120185 2.624628,3.920222 3.130745,8.682623 1.670726,12.008452 z"
       sodipodi:nodetypes="sssssss" /><path
       class="ink"
       style="fill-opacity:1;stroke:none;stroke-width:0.542902px;stroke-linecap:butt;stroke-linejoin:miter;stroke-opacity:1;fill:url(#linearGradient3122)"
       d="m 53.16059,37.315579 2.69447,1.612776 3.946117,0.241212 -0.362182,-3.137063 -3.591958,-2.929192 -3.360736,-0.65857 -0.275481,0.578592 z"
       id="path5658" /><g
       id="g5668"
       transform="matrix(1.7564821,1.0607182,-1.0607182,1.7564821,233.48094,-544.58869)"><path
         style="fill:url(#linearGradient5672);fill-opacity:1;stroke:none;stroke-width:0.264583px;stroke-linecap:butt;stroke-linejoin:miter;stroke-opacity:1"
         d="m 69.264569,293.59375 2.936507,-0.22074 2.662253,-0.76607 1.927299,1.1448 -1.027882,0.55803 -2.127755,0.3121 -2.832947,-0.12242 -1.918941,-0.59439 z"
         id="path5660" /><path
         style="fill:url(#linearGradient5674);fill-opacity:1;stroke:none;stroke-width:0.264583px;stroke-linecap:butt;stroke-linejoin:miter;stroke-opacity:1"
         d="m 76.744559,295.90558 -2.118071,0.43354 -2.350405,0.19402 -1.760117,-0.1248 -2.101927,-0.42841 -2.348825,-0.73867 -0.556035,0.7996 -0.01442,1.06598 2.35004,0.57568 2.758675,0.37767 3.081547,-0.37222 2.03818,-0.73626 0.995691,-0.75517 0.370006,-0.30528 z"
         id="path5662" /><path
         style="fill:url(#linearGradient5676);fill-opacity:1;stroke:none;stroke-width:0.264583px;stroke-linecap:butt;stroke-linejoin:miter;stroke-opacity:1"
         d="m 78.599264,298.32517 -3.611924,1.33805 -3.252208,0.46828 -3.358002,0.0277 -0.457581,-0.17917 1.327653,0.77223 2.981737,0.24453 4.250391,-0.22402 1.463527,-0.67249 0.761571,-0.90689 z"
         id="path5664" /><path
         style="fill:#ffffff;fill-opacity:1;stroke:none;stroke-width:0.264583px;stroke-linecap:butt;stroke-linejoin:miter;stroke-opacity:1"
         d="m 70.783592,290.29046 0.811445,-0.16748 h 0.964745 l 0.753549,0.20193 v -0.62828 l -0.609205,-0.60921 h -1.333958 l -0.652341,0.65236 z"
         id="path5666" /></g></g></svg>
