<?xml version="1.0" encoding="UTF-8" standalone="no"?>
<!-- Created with Inkscape (http://www.inkscape.org/) -->

<svg
   width="256"
   height="256"
   viewBox="0 0 67.733332 67.733333"
   version="1.1"
   id="svg5736"
   xml:space="preserve"
   inkscape:version="1.2.1 (9c6d41e410, 2022-07-14, custom)"
   sodipodi:docname="s3_curling_bomb_rush.svg"
   inkscape:export-filename="curlingbomb_rush.png"
   inkscape:export-xdpi="96"
   inkscape:export-ydpi="96"
   xmlns:inkscape="http://www.inkscape.org/namespaces/inkscape"
   xmlns:sodipodi="http://sodipodi.sourceforge.net/DTD/sodipodi-0.dtd"
   xmlns:xlink="http://www.w3.org/1999/xlink"
   xmlns="http://www.w3.org/2000/svg"
   xmlns:svg="http://www.w3.org/2000/svg"><sodipodi:namedview
     id="namedview5738"
     pagecolor="#505050"
     bordercolor="#eeeeee"
     borderopacity="1"
     inkscape:showpageshadow="0"
     inkscape:pageopacity="0"
     inkscape:pagecheckerboard="0"
     inkscape:deskcolor="#505050"
     inkscape:document-units="mm"
     showgrid="false"
     inkscape:zoom="2.4119818"
     inkscape:cx="139.51183"
     inkscape:cy="103.44191"
     inkscape:window-width="1916"
     inkscape:window-height="1036"
     inkscape:window-x="0"
     inkscape:window-y="20"
     inkscape:window-maximized="1"
     inkscape:current-layer="layer1" /><defs
     id="defs5733"><linearGradient
       id="linearGradient6012"
       inkscape:swatch="solid"><stop
         style="stop-color:#000000;stop-opacity:1;"
         offset="0"
         id="stop6010" /></linearGradient><linearGradient
       id="ink"
       inkscape:swatch="solid"
       gradientTransform="matrix(2.969176,0,0,2.969176,-163.06253,100.10314)"><stop
         style="stop-opacity:1;"
         offset="0"
         id="stop53636" /></linearGradient><linearGradient
       inkscape:collect="always"
       xlink:href="#ink"
       id="linearGradient5887"
       gradientUnits="userSpaceOnUse"
       gradientTransform="matrix(1.6648093,0,0,1.6648093,-74.654358,-412.13417)"
       x1="46.159122"
       y1="277.7435"
       x2="48.552834"
       y2="277.7435" /><linearGradient
       inkscape:collect="always"
       xlink:href="#ink"
       id="linearGradient5907"
       gradientUnits="userSpaceOnUse"
       gradientTransform="matrix(1.6648093,0,0,1.6648093,-142.79976,-411.96548)"
       x1="46.159122"
       y1="277.7435"
       x2="48.552834"
       y2="277.7435" /><linearGradient
       inkscape:collect="always"
       xlink:href="#ink"
       id="linearGradient5931"
       gradientUnits="userSpaceOnUse"
       gradientTransform="matrix(1.6648093,0,0,1.6648093,-124.4192,-441.27202)"
       x1="46.159122"
       y1="277.7435"
       x2="48.552834"
       y2="277.7435" /><linearGradient
       inkscape:collect="always"
       xlink:href="#ink"
       id="linearGradient6014"
       x1="-65.953621"
       y1="50.424461"
       x2="-61.968552"
       y2="50.424461"
       gradientUnits="userSpaceOnUse" /><linearGradient
       inkscape:collect="always"
       xlink:href="#ink"
       id="linearGradient6016"
       x1="-59.96904"
       y1="50.424461"
       x2="-45.441826"
       y2="50.424461"
       gradientUnits="userSpaceOnUse" /><linearGradient
       inkscape:collect="always"
       xlink:href="#ink"
       id="linearGradient6018"
       x1="-43.56303"
       y1="50.424461"
       x2="-38.026871"
       y2="50.424461"
       gradientUnits="userSpaceOnUse" /><linearGradient
       inkscape:collect="always"
       xlink:href="#ink"
       id="linearGradient6020"
       x1="24.582371"
       y1="50.255779"
       x2="30.11853"
       y2="50.255779"
       gradientUnits="userSpaceOnUse" /><linearGradient
       inkscape:collect="always"
       xlink:href="#ink"
       id="linearGradient6022"
       x1="8.1763639"
       y1="50.255779"
       x2="22.703581"
       y2="50.255779"
       gradientUnits="userSpaceOnUse" /><linearGradient
       inkscape:collect="always"
       xlink:href="#ink"
       id="linearGradient6024"
       x1="2.1917777"
       y1="50.255779"
       x2="6.1768484"
       y2="50.255779"
       gradientUnits="userSpaceOnUse" /><linearGradient
       inkscape:collect="always"
       xlink:href="#ink"
       id="linearGradient6026"
       x1="-25.182468"
       y1="21.117943"
       x2="-19.646309"
       y2="21.117943"
       gradientUnits="userSpaceOnUse" /><linearGradient
       inkscape:collect="always"
       xlink:href="#ink"
       id="linearGradient6028"
       x1="-41.588478"
       y1="21.117943"
       x2="-27.061262"
       y2="21.117943"
       gradientUnits="userSpaceOnUse" /><linearGradient
       inkscape:collect="always"
       xlink:href="#ink"
       id="linearGradient6030"
       x1="-47.573063"
       y1="21.117943"
       x2="-43.587994"
       y2="21.117943"
       gradientUnits="userSpaceOnUse" /></defs><g
     inkscape:label="Layer 1"
     inkscape:groupmode="layer"
     id="layer1"><rect
       style="fill:url(#linearGradient5887);fill-opacity:1;fill-rule:nonzero;stroke:none;stroke-width:0.166481;stroke-dasharray:none;stroke-opacity:0;paint-order:stroke fill markers"
       id="rect20834"
       width="3.9850705"
       height="8.843586"
       x="2.1917777"
       y="45.833988" /><rect
       class="ink"
       style="fill-opacity:1.0;fill-rule:nonzero;stroke:none;stroke-width:0.166481;stroke-dasharray:none;stroke-opacity:0;paint-order:stroke fill markers;fill:url(#linearGradient6024)"
       id="rect20842"
       width="3.9850705"
       height="8.843586"
       x="2.1917777"
       y="45.833988" /><rect
       class="ink"
       style="fill-opacity:1.0;fill-rule:nonzero;stroke:none;stroke-width:0.196223;stroke-dasharray:none;stroke-opacity:0;paint-order:stroke fill markers;fill:url(#linearGradient6020)"
       id="rect20850"
       width="5.5361605"
       height="8.843586"
       x="24.582371"
       y="45.833988" /><rect
       class="ink"
       style="fill-opacity:1.0;fill-rule:nonzero;stroke:none;stroke-width:0.31786;stroke-dasharray:none;stroke-opacity:0;paint-order:stroke fill markers;fill:url(#linearGradient6022)"
       id="rect20854"
       width="14.527216"
       height="8.843586"
       x="8.1763639"
       y="45.833988" /><g
       id="g21695"
       transform="matrix(1.6648093,0,0,1.6648093,-104.17507,-412.13416)"><path
         style="fill:#ffffff;fill-opacity:1;stroke:none;stroke-width:0.264583px;stroke-linecap:butt;stroke-linejoin:miter;stroke-opacity:1"
         d="m 65.63787,281.14577 -0.02532,0.43548 0.702098,0.85929 h 11.434165 l 0.796393,-0.74751 v -0.60997 z"
         id="path20858" /><path
         style="fill:#ffffff;fill-opacity:1;stroke:none;stroke-width:0.264583px;stroke-linecap:butt;stroke-linejoin:miter;stroke-opacity:1"
         d="m 71.057362,273.29537 c 0,0 -0.245786,-0.65746 -0.281115,-1.00282 -0.03165,-0.30937 -0.147779,-0.70364 0.06472,-0.9307 0.270024,-0.28852 0.86444,-0.28765 1.257782,-0.2497 0.532338,0.0514 0.972244,0.41914 1.435718,0.6063 0.692874,0.27979 1.47171,0.53034 2.206604,0.39511 0.34967,-0.0643 0.914223,-0.54944 0.914223,-0.54944 0,0 0.219724,-1.04736 0,-1.49442 -0.138925,-0.28266 -0.433692,-0.59617 -0.748081,-0.57721 -1.80507,0.10884 -4.339621,-0.32087 -5.688517,0 -0.445633,0.10601 -0.939369,0.33538 -1.159957,0.73684 -0.407145,0.74098 0.159937,1.7062 0,2.5364 -0.0465,0.24139 -0.273977,0.68469 -0.273977,0.68469 l 2.341552,0.014 z"
         id="path20860"
         sodipodi:nodetypes="cssssscsssssccc" /><path
         style="fill:#35bfc1;fill-opacity:1;stroke:none;stroke-width:0.217532px;stroke-linecap:butt;stroke-linejoin:miter;stroke-opacity:1"
         d="m 66.777752,274.50852 -0.02065,-0.36118 0.572209,-0.7127 h 9.318816 l 0.649059,0.61998 v 0.50591 z"
         id="path20862" /></g><rect
       style="fill:url(#linearGradient5907);fill-opacity:1;fill-rule:nonzero;stroke:none;stroke-width:0.166481;stroke-dasharray:none;stroke-opacity:0;paint-order:stroke fill markers"
       id="rect5889"
       width="3.9850705"
       height="8.843586"
       x="-65.953621"
       y="46.00267"
       transform="scale(-1,1)" /><rect
       class="ink"
       style="fill-opacity:1.0;fill-rule:nonzero;stroke:none;stroke-width:0.166481;stroke-dasharray:none;stroke-opacity:0;paint-order:stroke fill markers;fill:url(#linearGradient6014)"
       id="rect5891"
       width="3.9850705"
       height="8.843586"
       x="-65.953621"
       y="46.00267"
       transform="scale(-1,1)" /><rect
       class="ink"
       style="fill-opacity:1.0;fill-rule:nonzero;stroke:none;stroke-width:0.196223;stroke-dasharray:none;stroke-opacity:0;paint-order:stroke fill markers;fill:url(#linearGradient6018)"
       id="rect5893"
       width="5.5361605"
       height="8.843586"
       x="-43.56303"
       y="46.00267"
       transform="scale(-1,1)" /><rect
       class="ink"
       style="fill-opacity:1.0;fill-rule:nonzero;stroke:none;stroke-width:0.31786;stroke-dasharray:none;stroke-opacity:0;paint-order:stroke fill markers;fill:url(#linearGradient6016)"
       id="rect5895"
       width="14.527216"
       height="8.843586"
       x="-59.96904"
       y="46.00267"
       transform="scale(-1,1)" /><g
       id="g5903"
       transform="matrix(-1.6648093,0,0,1.6648093,172.32048,-411.96548)"><path
         style="fill:#ffffff;fill-opacity:1;stroke:none;stroke-width:0.264583px;stroke-linecap:butt;stroke-linejoin:miter;stroke-opacity:1"
         d="m 65.63787,281.14577 -0.02532,0.43548 0.702098,0.85929 h 11.434165 l 0.796393,-0.74751 v -0.60997 z"
         id="path5897" /><path
         style="fill:#ffffff;fill-opacity:1;stroke:none;stroke-width:0.264583px;stroke-linecap:butt;stroke-linejoin:miter;stroke-opacity:1"
         d="m 71.057362,273.29537 c 0,0 -0.245786,-0.65746 -0.281115,-1.00282 -0.03165,-0.30937 -0.147779,-0.70364 0.06472,-0.9307 0.270024,-0.28852 0.86444,-0.28765 1.257782,-0.2497 0.532338,0.0514 0.972244,0.41914 1.435718,0.6063 0.692874,0.27979 1.47171,0.53034 2.206604,0.39511 0.34967,-0.0643 0.914223,-0.54944 0.914223,-0.54944 0,0 0.219724,-1.04736 0,-1.49442 -0.138925,-0.28266 -0.433692,-0.59617 -0.748081,-0.57721 -1.80507,0.10884 -4.339621,-0.32087 -5.688517,0 -0.445633,0.10601 -0.939369,0.33538 -1.159957,0.73684 -0.407145,0.74098 0.159937,1.7062 0,2.5364 -0.0465,0.24139 -0.273977,0.68469 -0.273977,0.68469 l 2.341552,0.014 z"
         id="path5899"
         sodipodi:nodetypes="cssssscsssssccc" /><path
         style="fill:#35bfc1;fill-opacity:1;stroke:none;stroke-width:0.217532px;stroke-linecap:butt;stroke-linejoin:miter;stroke-opacity:1"
         d="m 66.777752,274.50852 -0.02065,-0.36118 0.572209,-0.7127 h 9.318816 l 0.649059,0.61998 v 0.50591 z"
         id="path5901" /></g><rect
       style="fill:url(#linearGradient5931);fill-opacity:1;fill-rule:nonzero;stroke:none;stroke-width:0.166481;stroke-dasharray:none;stroke-opacity:0;paint-order:stroke fill markers"
       id="rect5913"
       width="3.9850705"
       height="8.843586"
       x="-47.573063"
       y="16.69615"
       transform="scale(-1,1)" /><rect
       class="ink"
       style="fill-opacity:1.0;fill-rule:nonzero;stroke:none;stroke-width:0.166481;stroke-dasharray:none;stroke-opacity:0;paint-order:stroke fill markers;fill:url(#linearGradient6030)"
       id="rect5915"
       width="3.9850705"
       height="8.843586"
       x="-47.573063"
       y="16.69615"
       transform="scale(-1,1)" /><rect
       class="ink"
       style="fill-opacity:1.0;fill-rule:nonzero;stroke:none;stroke-width:0.196223;stroke-dasharray:none;stroke-opacity:0;paint-order:stroke fill markers;fill:url(#linearGradient6026)"
       id="rect5917"
       width="5.5361605"
       height="8.843586"
       x="-25.182468"
       y="16.69615"
       transform="scale(-1,1)" /><rect
       class="ink"
       style="fill-opacity:1.0;fill-rule:nonzero;stroke:none;stroke-width:0.31786;stroke-dasharray:none;stroke-opacity:0;paint-order:stroke fill markers;fill:url(#linearGradient6028)"
       id="rect5919"
       width="14.527216"
       height="8.843586"
       x="-41.588478"
       y="16.69615"
       transform="scale(-1,1)" /><g
       id="g5927"
       transform="matrix(-1.6648093,0,0,1.6648093,153.93991,-441.27201)"><path
         style="fill:#ffffff;fill-opacity:1;stroke:none;stroke-width:0.264583px;stroke-linecap:butt;stroke-linejoin:miter;stroke-opacity:1"
         d="m 65.63787,281.14577 -0.02532,0.43548 0.702098,0.85929 h 11.434165 l 0.796393,-0.74751 v -0.60997 z"
         id="path5921" /><path
         style="fill:#ffffff;fill-opacity:1;stroke:none;stroke-width:0.264583px;stroke-linecap:butt;stroke-linejoin:miter;stroke-opacity:1"
         d="m 71.057362,273.29537 c 0,0 -0.245786,-0.65746 -0.281115,-1.00282 -0.03165,-0.30937 -0.147779,-0.70364 0.06472,-0.9307 0.270024,-0.28852 0.86444,-0.28765 1.257782,-0.2497 0.532338,0.0514 0.972244,0.41914 1.435718,0.6063 0.692874,0.27979 1.47171,0.53034 2.206604,0.39511 0.34967,-0.0643 0.914223,-0.54944 0.914223,-0.54944 0,0 0.219724,-1.04736 0,-1.49442 -0.138925,-0.28266 -0.433692,-0.59617 -0.748081,-0.57721 -1.80507,0.10884 -4.339621,-0.32087 -5.688517,0 -0.445633,0.10601 -0.939369,0.33538 -1.159957,0.73684 -0.407145,0.74098 0.159937,1.7062 0,2.5364 -0.0465,0.24139 -0.273977,0.68469 -0.273977,0.68469 l 2.341552,0.014 z"
         id="path5923"
         sodipodi:nodetypes="cssssscsssssccc" /><path
         style="fill:#35bfc1;fill-opacity:1;stroke:none;stroke-width:0.217532px;stroke-linecap:butt;stroke-linejoin:miter;stroke-opacity:1"
         d="m 66.777752,274.50852 -0.02065,-0.36118 0.572209,-0.7127 h 9.318816 l 0.649059,0.61998 v 0.50591 z"
         id="path5925" /></g></g></svg>
