<?xml version="1.0" encoding="UTF-8" standalone="no"?>
<!-- Created with Inkscape (http://www.inkscape.org/) -->

<svg
   width="256"
   height="256"
   viewBox="0 0 67.733332 67.733333"
   version="1.1"
   id="svg74315"
   inkscape:version="1.2.1 (9c6d41e410, 2022-07-14, custom)"
   sodipodi:docname="echolocater.svg"
   inkscape:export-filename="echolocater.png"
   inkscape:export-xdpi="96"
   inkscape:export-ydpi="96"
   xmlns:inkscape="http://www.inkscape.org/namespaces/inkscape"
   xmlns:sodipodi="http://sodipodi.sourceforge.net/DTD/sodipodi-0.dtd"
   xmlns="http://www.w3.org/2000/svg"
   xmlns:svg="http://www.w3.org/2000/svg">
  <sodipodi:namedview
     id="namedview74317"
     pagecolor="#ffffff"
     bordercolor="#666666"
     borderopacity="1.0"
     inkscape:showpageshadow="2"
     inkscape:pageopacity="0.0"
     inkscape:pagecheckerboard="0"
     inkscape:deskcolor="#d1d1d1"
     inkscape:document-units="mm"
     showgrid="false"
     inkscape:lockguides="true"
     inkscape:zoom="8.3776618"
     inkscape:cx="137.56822"
     inkscape:cy="81.10855"
     inkscape:window-width="1916"
     inkscape:window-height="1036"
     inkscape:window-x="0"
     inkscape:window-y="20"
     inkscape:window-maximized="1"
     inkscape:current-layer="layer1" />
  <defs
     id="defs74312">
    <linearGradient
       id="linearGradient74803"
       inkscape:swatch="solid">
      <stop
         style="stop-color:#000000;stop-opacity:1;"
         offset="0"
         id="stop74801" />
    </linearGradient>
  </defs>
  <g
     inkscape:label="Layer 1"
     inkscape:groupmode="layer"
     id="layer1">
    <path
       id="path74436"
       class="ink"
       style="display:inline;fill-opacity:1;stroke:none;stroke-width:0.264583px;stroke-linecap:butt;stroke-linejoin:miter;stroke-opacity:1"
       d="m 40.798821,11.876426 1.667082,2.886646 c 0,0 -4.734896,0.92443 -7.558195,2.163692 3.488922,1.883968 6.680241,4.11067 9.403044,6.64714 1.037121,-0.299052 1.73116,-0.466639 1.73116,-0.466639 l 2.840654,5.051888 4.005957,-6.933426 c 0,0 1.668187,-4.148823 1.171504,-5.297868 C 53.721284,15.144195 49.935731,14.04632 49.935731,14.04632 Z M 26.0452,23.353762 c -2.289469,2.224608 -4.29035,4.735567 -5.889563,7.505485 -3.025976,5.241145 -3.952003,11.531231 -4.698938,17.536914 -0.335668,2.698913 0.116789,8.158158 0.116789,8.158158 0,0 0.310532,1.607005 0.836124,1.688786 0.645483,0.100435 1.612822,-1.575614 1.612822,-1.575614 0,0 0.405421,1.510999 0.82734,1.636076 0.667462,0.197868 1.601452,-1.492416 1.601452,-1.492416 0,0 0.350746,1.466067 0.949813,1.543059 0.6204,0.07973 1.35599,-1.297079 1.35599,-1.297079 0,0 0.687182,1.254562 1.307413,1.362708 0.74381,0.129693 2.028817,-1.007174 2.028817,-1.007174 0,0 0.3232,-10.626857 1.890841,-15.637805 1.366253,-4.367216 2.993077,-9.000665 5.895247,-12.519133 -1.162892,-1.520999 -2.528164,-2.919196 -4.174422,-4.109826 -0.90075,-0.651454 -2.213013,-1.254921 -3.659725,-1.792139 z" />
    <ellipse
       style="fill:#000000;fill-opacity:1;stroke:none;stroke-width:1.20449;paint-order:stroke fill markers"
       id="ellipse75260"
       cx="35.747654"
       cy="33.134571"
       rx="1.9082297"
       ry="2.3193085"
       transform="matrix(0.95300103,-0.30296705,0.33939511,0.94064391,0,0)" />
    <ellipse
       style="fill:#000000;fill-opacity:1;stroke:none;stroke-width:1.20449;paint-order:stroke fill markers"
       id="ellipse75262"
       cx="35.319786"
       cy="29.6339"
       rx="1.9082297"
       ry="2.3193085"
       transform="matrix(0.95300103,-0.30296705,0.33939511,0.94064391,0,0)" />
    <ellipse
       style="fill:#ffffff;fill-opacity:1;stroke:none;stroke-width:1.03247;paint-order:stroke fill markers"
       id="path74996"
       cx="32.165127"
       cy="33.075935"
       rx="1.6357106"
       ry="1.9880824"
       transform="matrix(0.9198469,-0.39227756,0.42736444,0.90407944,0,0)" />
    <ellipse
       style="fill:#ffffff;fill-opacity:1;stroke:none;stroke-width:1.10183;paint-order:stroke fill markers"
       id="ellipse75258"
       cx="35.747654"
       cy="33.134571"
       rx="1.7455885"
       ry="2.1216307"
       transform="matrix(0.95300103,-0.30296705,0.33939511,0.94064391,0,0)" />
    <ellipse
       style="fill:#000000;fill-opacity:1;stroke:none;stroke-width:1.20449;paint-order:stroke fill markers"
       id="ellipse75264"
       cx="35.329063"
       cy="30.766605"
       rx="0.5490905"
       ry="1.8984843"
       transform="matrix(0.9412394,-0.33774013,0.3736901,0.92755361,0,0)" />
    <ellipse
       style="fill:#000000;fill-opacity:1;stroke:none;stroke-width:1.20449;paint-order:stroke fill markers"
       id="ellipse75266"
       cx="27.579376"
       cy="40.739929"
       rx="0.56010044"
       ry="1.8984843"
       transform="matrix(0.85069086,-0.52566631,0.55799476,0.82984447,0,0)" />
    <ellipse
       style="fill:#000000;fill-opacity:1;stroke:none;stroke-width:0.853289;paint-order:stroke fill markers"
       id="ellipse75268"
       cx="34.362301"
       cy="31.288511"
       rx="0.66043937"
       ry="1.3449316"
       transform="matrix(0.94024167,-0.34050785,0.37641739,0.92645019,0,0)" />
    <ellipse
       style="fill:#000000;fill-opacity:1;stroke:none;stroke-width:0.853289;paint-order:stroke fill markers"
       id="ellipse75272"
       cx="29.522326"
       cy="38.744709"
       rx="0.66043937"
       ry="1.3449316"
       transform="matrix(0.88353688,-0.4683616,0.50199569,0.86487012,0,0)" />
    <ellipse
       style="fill:#000000;fill-opacity:1;stroke:none;stroke-width:0.853289;paint-order:stroke fill markers"
       id="ellipse75274"
       cx="40.24892"
       cy="25.641926"
       rx="0.66043937"
       ry="1.3449316"
       transform="matrix(0.99244191,-0.12271532,0.1607936,0.98698805,0,0)" />
    <path
       id="ellipse75278"
       style="stroke-width:0.852973;paint-order:stroke fill markers;fill:#000000;fill-opacity:1"
       d="m 45.022905,20.936244 c 0.30511,0.677229 0.377717,1.309008 0.03964,1.445934 -0.338073,0.136926 -0.859478,-0.301075 -1.164589,-0.978302 -0.305111,-0.677227 -0.27839,-1.33723 0.05968,-1.474156 0.338074,-0.136927 0.760151,0.329296 1.065262,1.006524 z"
       sodipodi:nodetypes="sssss" />
    <path
       id="ellipse75280"
       style="stroke-width:0.852973;paint-order:stroke fill markers;fill:#000000;fill-opacity:1"
       d="m 42.824026,16.882541 c 0.261832,0.694494 0.05893,1.239751 -0.305722,1.231312 -0.364653,-0.0084 -0.867624,-0.586694 -0.879011,-1.329392 -0.01139,-0.742697 0.274991,-1.337931 0.639644,-1.329493 0.364652,0.0084 0.283053,0.732543 0.545089,1.427573 z m 0.639115,0.914119 c 0.533219,0.517115 0.751613,1.14051 0.487798,1.392392 -0.263816,0.251881 -0.909941,0.03686 -1.44316,-0.480249 -0.533219,-0.517115 -0.751613,-1.140509 -0.487796,-1.39239 0.263815,-0.251881 0.90994,-0.03686 1.443158,0.480247 z"
       sodipodi:nodetypes="ssssssssss" />
    <path
       class="ink"
       style="display:inline;fill-opacity:1;stroke:none;stroke-width:0.274128px;stroke-linecap:butt;stroke-linejoin:miter;stroke-opacity:1"
       d="m 53.42419,51.861211 c 0,0 -0.361634,1.479959 -0.974248,1.555277 -0.752354,0.0925 -1.880162,-1.451359 -1.880162,-1.451359 0,0 -0.472552,1.39148 -0.964327,1.506671 -0.777973,0.18223 -1.86636,-1.374224 -1.86636,-1.374224 0,0 -0.408902,1.350191 -1.107156,1.421098 -0.723119,0.07343 -1.580298,-1.194794 -1.580298,-1.194794 0,0 -0.801024,1.155745 -1.523946,1.255344 -0.866961,0.119443 -2.364563,-0.927902 -2.364563,-0.927902 0,0 -0.37675,-9.786628 -2.203942,-14.40155 C 37.090495,33.530031 34.804721,28.47112 30.187965,25.132123 26.913791,22.764128 17.911198,21.057222 17.911198,21.057222 l -3.3108,4.652947 -4.6694515,-6.385445 c 0,0 -1.9439388,-3.821059 -1.3650214,-4.879293 0.3948289,-0.721729 4.8071399,-1.732926 4.8071399,-1.732926 l 10.64925,-1.998556 -1.942744,2.658783 c 0,0 6.937148,1.069257 9.894078,2.41818 6.576752,3.000252 12.312598,7.208982 16.109687,12.40557 3.526982,4.826926 4.606497,10.62017 5.477101,16.151212 0.391244,2.485612 -0.136247,7.513517 -0.136247,7.513517 z"
       id="path75334"
       sodipodi:nodetypes="cscscscscsscccscccsssc" />
    <ellipse
       style="fill:#000000;fill-opacity:1;stroke:none;stroke-width:1.25794;paint-order:stroke fill markers"
       id="ellipse75336"
       cx="-25.169714"
       cy="13.603656"
       rx="2.1854861"
       ry="2.2087915"
       transform="matrix(-0.96986947,-0.24362514,-0.41538107,0.9096475,0,0)" />
    <ellipse
       style="fill:#000000;fill-opacity:1;stroke:none;stroke-width:1.25794;paint-order:stroke fill markers"
       id="ellipse75338"
       cx="-25.659748"
       cy="10.269796"
       rx="2.1854861"
       ry="2.2087915"
       transform="matrix(-0.96986947,-0.24362514,-0.41538107,0.9096475,0,0)" />
    <ellipse
       style="fill:#ffffff;fill-opacity:1;stroke:none;stroke-width:1.08174;paint-order:stroke fill markers"
       id="ellipse75340"
       cx="-26.350554"
       cy="8.4850807"
       rx="1.8506031"
       ry="1.9289459"
       transform="matrix(-0.94764581,-0.31932338,-0.5133931,0.85815356,0,0)" />
    <ellipse
       style="fill:#ffffff;fill-opacity:1;stroke:none;stroke-width:1.15072;paint-order:stroke fill markers"
       id="ellipse75342"
       cx="-25.169714"
       cy="13.603656"
       rx="1.9992139"
       ry="2.0205331"
       transform="matrix(-0.96986947,-0.24362514,-0.41538107,0.9096475,0,0)" />
    <ellipse
       style="fill:#000000;fill-opacity:1;stroke:none;stroke-width:1.2595;paint-order:stroke fill markers"
       id="ellipse75344"
       cx="-24.610867"
       cy="9.3800001"
       rx="0.62613904"
       ry="1.8204179"
       transform="matrix(-0.96207868,-0.27277208,-0.45423944,0.89087964,0,0)" />
    <ellipse
       style="fill:#000000;fill-opacity:1;stroke:none;stroke-width:1.26747;paint-order:stroke fill markers"
       id="ellipse75346"
       cx="-25.690384"
       cy="8.2577848"
       rx="0.61802197"
       ry="1.9051999"
       transform="matrix(-0.89860962,-0.43874907,-0.64808792,0.76156553,0,0)" />
    <ellipse
       style="fill:#000000;fill-opacity:1;stroke:none;stroke-width:0.892349;paint-order:stroke fill markers"
       id="ellipse75348"
       cx="-25.625761"
       cy="9.7230988"
       rx="0.75283492"
       ry="1.2903595"
       transform="matrix(-0.96141311,-0.27510876,-0.45729503,0.88931505,0,0)" />
    <ellipse
       style="fill:#000000;fill-opacity:1;stroke:none;stroke-width:0.89635;paint-order:stroke fill markers"
       id="ellipse75350"
       cx="-26.244427"
       cy="9.6333399"
       rx="0.73738629"
       ry="1.3292338"
       transform="matrix(-0.92235883,-0.38633431,-0.59201969,0.8059235,0,0)" />
    <ellipse
       style="fill:#000000;fill-opacity:1;stroke:none;stroke-width:0.886231;paint-order:stroke fill markers"
       id="ellipse75352"
       cx="-23.671637"
       cy="16.575327"
       rx="0.7676059"
       ry="1.2482353"
       transform="matrix(-0.99526113,-0.09723833,-0.20193417,0.9793991,0,0)" />
    <path
       id="path75354"
       class="ink"
       style="stroke-width:0.883743;paint-order:stroke fill markers;fill:#000000;fill-opacity:1"
       d="m 19.099066,19.057958 c -0.355626,0.623706 -0.440255,1.205554 -0.04621,1.331658 0.394047,0.126104 1.001779,-0.27728 1.357406,-0.900984 0.355628,-0.623704 0.324482,-1.231545 -0.06957,-1.357649 -0.394049,-0.126106 -0.886007,0.30327 -1.241635,0.926975 z"
       sodipodi:nodetypes="sssss" />
    <path
       id="path75356"
       class="ink"
       style="stroke-width:0.883743;paint-order:stroke fill markers;fill:#000000;fill-opacity:1"
       d="m 21.662007,15.324631 c -0.305183,0.639606 -0.06869,1.141771 0.35634,1.133999 0.425027,-0.0078 1.011274,-0.540326 1.024546,-1.224327 0.01327,-0.684 -0.320521,-1.232191 -0.745548,-1.224419 -0.425027,0.0078 -0.329917,0.674648 -0.635338,1.314747 z m -0.744931,0.841874 c -0.621503,0.476246 -0.876056,1.050372 -0.568561,1.282347 0.307494,0.231974 1.060597,0.03395 1.6821,-0.442293 0.621501,-0.476246 0.876054,-1.050372 0.568558,-1.282345 -0.307494,-0.231974 -1.060596,-0.03395 -1.682097,0.442291 z"
       sodipodi:nodetypes="ssssssssss" />
  </g>
</svg>
