<?xml version="1.0" encoding="UTF-8" standalone="no"?>
<!-- Created with Inkscape (http://www.inkscape.org/) -->

<svg
   width="256"
   height="256"
   viewBox="0 0 67.733332 67.733333"
   version="1.1"
   id="svg1861"
   inkscape:export-filename="inkjet.png"
   inkscape:export-xdpi="96"
   inkscape:export-ydpi="96"
   inkscape:version="1.2.1 (9c6d41e410, 2022-07-14, custom)"
   sodipodi:docname="s3_inkjet.svg"
   xml:space="preserve"
   xmlns:inkscape="http://www.inkscape.org/namespaces/inkscape"
   xmlns:sodipodi="http://sodipodi.sourceforge.net/DTD/sodipodi-0.dtd"
   xmlns:xlink="http://www.w3.org/1999/xlink"
   xmlns="http://www.w3.org/2000/svg"
   xmlns:svg="http://www.w3.org/2000/svg"><sodipodi:namedview
     id="namedview1863"
     pagecolor="#505050"
     bordercolor="#eeeeee"
     borderopacity="1"
     inkscape:showpageshadow="0"
     inkscape:pageopacity="0"
     inkscape:pagecheckerboard="0"
     inkscape:deskcolor="#505050"
     inkscape:document-units="mm"
     showgrid="false"
     inkscape:zoom="3.2558375"
     inkscape:cx="178.29514"
     inkscape:cy="83.695824"
     inkscape:window-width="1916"
     inkscape:window-height="1036"
     inkscape:window-x="0"
     inkscape:window-y="20"
     inkscape:window-maximized="1"
     inkscape:current-layer="layer1" /><defs
     id="defs1858"><linearGradient
       id="linearGradient9667"
       inkscape:swatch="solid"><stop
         style="stop-color:#000000;stop-opacity:1;"
         offset="0"
         id="stop9665" /></linearGradient><linearGradient
       id="linearGradient9661"
       inkscape:swatch="solid"><stop
         style="stop-color:#000000;stop-opacity:1;"
         offset="0"
         id="stop9659" /></linearGradient><linearGradient
       id="linearGradient9649"
       inkscape:swatch="solid"><stop
         style="stop-color:#000000;stop-opacity:1;"
         offset="0"
         id="stop9647" /></linearGradient><linearGradient
       id="ink"
       inkscape:swatch="solid"><stop
         style="stop-opacity:1;"
         offset="0"
         id="stop53636" /></linearGradient><linearGradient
       inkscape:collect="always"
       xlink:href="#ink"
       id="linearGradient9651"
       x1="51.942303"
       y1="27.127619"
       x2="64.885017"
       y2="27.127619"
       gradientUnits="userSpaceOnUse" /><linearGradient
       inkscape:collect="always"
       xlink:href="#ink"
       id="linearGradient9653"
       x1="31.310818"
       y1="35.957443"
       x2="63.145004"
       y2="35.957443"
       gradientUnits="userSpaceOnUse" /><linearGradient
       inkscape:collect="always"
       xlink:href="#ink"
       id="linearGradient9655"
       x1="52.922791"
       y1="41.891846"
       x2="58.641048"
       y2="41.891846"
       gradientUnits="userSpaceOnUse" /><linearGradient
       inkscape:collect="always"
       xlink:href="#ink"
       id="linearGradient9657"
       x1="33.213074"
       y1="5.4537573"
       x2="50.649776"
       y2="5.4537573"
       gradientUnits="userSpaceOnUse" /><linearGradient
       inkscape:collect="always"
       xlink:href="#ink"
       id="linearGradient9663"
       x1="14.165817"
       y1="17.329735"
       x2="37.833427"
       y2="17.329735"
       gradientUnits="userSpaceOnUse" /><linearGradient
       inkscape:collect="always"
       xlink:href="#ink"
       id="linearGradient9669"
       x1="18.061052"
       y1="23.579758"
       x2="25.804764"
       y2="23.579758"
       gradientUnits="userSpaceOnUse" /></defs><g
     inkscape:label="Layer 1"
     inkscape:groupmode="layer"
     id="layer1"><path
       id="rect17826"
       class="ink"
       style="fill-opacity:1.0;stroke:none;stroke-width:0.246819;paint-order:stroke fill markers;fill:url(#linearGradient9663)"
       d="m 15.683556,11.177461 3.146978,1.50897 19.002895,3.299572 -1.301585,7.496005 -19.57034,-3.398102 -2.795687,0.353781 z"
       sodipodi:nodetypes="ccccccc" /><path
       style="fill-opacity:1.0;stroke:none;stroke-width:0.522432px;stroke-linecap:butt;stroke-linejoin:miter;stroke-opacity:1;fill:url(#linearGradient9669)"
       d="m 18.380752,20.491591 -0.319699,3.117915 1.101601,3.204062 2.33765,0.482028 3.61467,-0.424944 0.68979,-1.156375 -0.860192,-0.678139 -4.323634,-0.113143 -0.254362,-1.860321 0.770884,-2.088186 -0.123212,-0.730781 -2.313403,-0.379786 z"
       id="path17829" /><path
       class="ink"
       style="fill-opacity:1.0;stroke:none;stroke-width:0.522432px;stroke-linecap:butt;stroke-linejoin:miter;stroke-opacity:1;fill:url(#linearGradient9653)"
       d="m 40.064176,10.701889 -1.111198,4.081732 -1.288196,1.646637 -1.826558,8.734284 -1.272597,2.077464 -0.263721,2.439084 c 0,0 -1.085055,1.970838 -1.471653,2.007642 -0.561206,0.05351 -1.519435,-0.742666 -1.519435,-0.742666 l 1.451037,3.635087 -0.2312,4.537595 2.334235,0.543871 5.023769,-0.808164 3.463716,-3.000803 1.949217,-3.217905 -0.154409,7.931275 -0.944389,7.404997 -2.616535,5.791909 -3.867196,2.663392 c 0,0 -3.850789,1.403155 -4.718741,2.218586 -0.695792,0.653693 -1.457238,1.632321 -0.948377,2.44011 0.634996,1.008027 2.722549,1.443948 2.722549,1.443948 0,0 3.731783,-0.90847 5.372593,-1.855899 1.157956,-0.668623 3.576642,-2.628975 3.576642,-2.628975 l -0.893346,3.821306 -0.264233,2.208101 c 0,0 2.308505,1.983298 4.654883,1.961203 1.847014,-0.01778 4.546342,-1.784816 4.546342,-1.784816 l 0.02152,-2.429763 -0.719091,-1.887236 -0.19173,-1.432635 1.952911,1.649993 2.64254,2.603879 3.801483,0.567604 2.223481,-0.619021 1.604856,-1.413067 0.04166,-1.694915 -1.461345,-1.132049 -2.931043,-0.711746 -3.65653,-2.536962 -2.159388,-3.092066 c 0,0 -1.226829,-3.220492 -1.576956,-4.477391 -0.330737,-1.187298 -0.483744,-10.075242 -0.483744,-10.075242 l -0.929974,-10.920093 0.07562,-11.482543 0.354412,-2.715204 1.381771,-3.6378521 c 0,0 -0.175933,-2.3330678 -1.071826,-2.7041257 C 47.122399,4.6343155 40.064171,10.701889 40.064171,10.701889 Z"
       id="path18176"
       sodipodi:nodetypes="ccccccscccccccccccsscscccsccccccccccccccscccccsc" /><path
       class="ink"
       id="rect18592"
       style="fill-opacity:1.0;fill-rule:nonzero;stroke:none;stroke-width:0.246819;stroke-linecap:butt;stroke-linejoin:miter;stroke-dasharray:none;stroke-opacity:1;paint-order:stroke fill markers;fill:url(#linearGradient9651)"
       d="m 63.239947,18.737973 -11.297646,1.287724 1.637732,14.361792 c 0.07997,0.701183 0.708961,1.201317 1.410144,1.121387 l 8.765048,-0.999953 c 0.701183,-0.07997 1.201317,-0.707954 1.121407,-1.409137 z" /><rect
       class="ink"
       style="fill-opacity:1.0;fill-rule:nonzero;stroke:none;stroke-width:0.246819;stroke-linecap:butt;stroke-linejoin:miter;stroke-dasharray:none;stroke-opacity:1;paint-order:stroke fill markers;fill:url(#linearGradient9655)"
       id="rect18600"
       width="5.7182593"
       height="2.5027084"
       x="52.922791"
       y="40.640491"
       transform="rotate(-5.9065132)" /><path
       style="fill:#fbfbf7;stroke-width:0.246819;paint-order:stroke fill markers"
       d="m 40.299484,6.6350083 c 0,0 0.612604,3.9781057 0.296182,5.9326727 -0.27302,1.686582 -1.857637,4.777148 -1.857637,4.777148 0,0 -2.140196,0.132099 -3.134935,-0.19469 -0.786166,-0.258152 -1.509129,-0.752166 -2.086506,-1.344906 -0.640051,-0.65709 -1.255657,-1.450761 -1.429653,-2.351393 -0.159347,-0.824948 0.413036,-2.486532 0.413036,-2.486532 0,0 1.139927,-0.914354 1.420017,-1.559104 0.440424,-1.0138523 0.267907,-3.3053166 0.267907,-3.3053166 l 3.545977,0.648284 z"
       id="path20812"
       sodipodi:nodetypes="cscssscsccc" /><path
       class="ink"
       id="path17821"
       style="fill-opacity:1.0;fill-rule:nonzero;stroke:none;stroke-width:0.246819;stroke-linecap:butt;stroke-linejoin:miter;stroke-dasharray:none;stroke-opacity:1;paint-order:stroke fill markers;fill:url(#linearGradient9657)"
       d="m 39.481605,0.09328408 c -3.587008,0.48558144 -6.148927,2.50963362 -6.268052,4.95213222 -0.0079,0.1875822 0.08451,0.8654851 0.106031,1.0534229 l 6.91059,0.9318287 0.0774,3.7870491 c 0.289528,0.03594 0.58111,0.0618 0.873502,0.0774 4.547607,0.221761 9.319048,-0.889238 9.465244,-3.8979788 C 50.792827,3.988848 46.259635,0.22195917 41.712739,0 40.961858,-0.03672611 40.211192,-0.00591742 39.481577,0.09339621 Z"
       sodipodi:nodetypes="cccccccccc" /><path
       style="fill:#fbfbf7;stroke-width:0.246819;paint-order:stroke fill markers"
       d="M 4.6171159,7.6223609 11.399262,9.18575 c 0.966385,0.2227693 1.565049,1.18011 1.3423,2.146513 l -2.168195,9.405829 c -0.222749,0.966405 -1.1801297,1.565069 -2.1464945,1.3423 L 1.6447069,20.517003 C 0.67834219,20.294254 0.07967839,19.336893 0.30242739,18.370508 L 2.4706218,8.9646594 C 2.6933709,7.9982759 3.6507315,7.3996119 4.6171159,7.6223609 Z"
       id="path20820" /><path
       style="fill:#fbfbf7;stroke-width:0.246819;paint-order:stroke fill markers"
       d="m 15.683556,11.177461 -1.734978,8.51821 c 0,0 0.04171,0.772227 0.217239,0.742016 0.175538,-0.03041 4.214935,0.0539 4.214935,0.0539 l 1.132602,-7.63604 z"
       id="path20818"
       sodipodi:nodetypes="cccccc" /><path
       style="fill:#fbfbf7;stroke-width:0.246819;paint-order:stroke fill markers"
       d="m 26.552033,23.373112 -0.95205,-2.372975 -2.320471,-2.282423 -2.341678,0.124 -1.697008,1.16374 -0.542863,2.803882 1.327628,1.869445 1.833844,1.645531 3.914705,0.01778 4.337375,2.108976 2.981295,0.04305 6.040464,-4.65822 0.497942,-1.728502 -1.151655,-1.984226 -2.478515,-0.422751 -2.865784,2.049998 -1.69286,2.373093 -1.754645,0.57027 z"
       id="path20816" /><path
       style="fill:#fbfbf7;stroke-width:0.246819;paint-order:stroke fill markers"
       d="m 32.530655,39.118748 -2.710642,-1.951527 0.20555,2.861064 0.336522,6.133092 0.267177,1.95206 c 0,0 0.360237,1.907238 -0.115911,2.653756 -1.098105,1.72167 -3.480124,2.239239 -5.436943,2.823074 -1.052554,0.314032 -2.188236,0.46629 -3.278425,0.332178 -0.669095,-0.08234 -1.545756,-0.113536 -1.902715,-0.685465 -0.309946,-0.49652 -0.03298,-1.204732 0.190938,-1.745541 0.283881,-0.685801 0.849531,-1.231686 1.393204,-1.736993 1.225781,-1.139275 4.13528,-2.846689 4.13528,-2.846689 0,0 -0.475373,-1.644445 -0.986071,-3.004752 -0.400714,-1.067363 -1.571347,-3.154601 -1.724631,-4.28434 -0.215502,-1.588426 0.100508,-2.841556 0.455094,-4.404827 0.249406,-1.099548 0.386025,-2.715342 1.196578,-3.571151 0.724324,-0.764803 1.769394,-1.00163 2.752899,-1.141429 1.328951,-0.188965 4.002255,0.444808 4.002255,0.444808 l 1.451037,3.635087 z"
       id="path20814"
       sodipodi:nodetypes="cccccsssssscsssssccc" /><path
       style="fill:#fbfbf7;stroke-width:0.246819;paint-order:stroke fill markers"
       d="m 51.14091,11.37685 -2.577025,-0.735856 -2.656955,0.797383 -0.755107,3.575377 -0.05291,3.750817 0.424765,3.096233 1.996053,1.140796 3.354642,-0.688821 1.04349,-4.887743 3.580157,-0.319067 6.811052,-1.24689 -0.500568,-5.390028 h 1.230165 L 62.685023,8.2958215 c 0,0 -0.862049,-2.0522087 -1.713456,-2.6878756 -0.847358,-0.632646 -1.99309,-0.8259146 -3.049436,-0.8748438 -1.323561,-0.061206 -2.65107,0.3124919 -3.905798,0.7382047 -0.896821,0.3042989 -1.906606,0.5728369 -2.536369,1.2801414 -0.60905,0.6840425 -0.917357,1.6641694 -0.946225,2.5796109 -0.02251,0.7109749 0.607174,2.0457909 0.607174,2.0457909 z"
       id="path20810"
       sodipodi:nodetypes="ccccccccccccccsssssc" /><path
       style="display:inline;fill:#fbfbf7;stroke-width:0.246819;paint-order:stroke fill markers"
       d="m 56.369056,37.571333 7.112804,-0.794894 0.362252,3.242191 -7.112804,0.794895 z"
       id="rect20790" /></g></svg>
