<?xml version="1.0" encoding="UTF-8" standalone="no"?>
<!-- Created with Inkscape (http://www.inkscape.org/) -->

<svg
   width="256"
   height="256"
   viewBox="0 0 67.733332 67.733333"
   version="1.1"
   id="svg2768"
   inkscape:version="1.2.1 (9c6d41e410, 2022-07-14, custom)"
   sodipodi:docname="s3_inkstrike.svg"
   inkscape:export-filename="inkstrike.png"
   inkscape:export-xdpi="96"
   inkscape:export-ydpi="96"
   xmlns:inkscape="http://www.inkscape.org/namespaces/inkscape"
   xmlns:sodipodi="http://sodipodi.sourceforge.net/DTD/sodipodi-0.dtd"
   xmlns:xlink="http://www.w3.org/1999/xlink"
   xmlns="http://www.w3.org/2000/svg"
   xmlns:svg="http://www.w3.org/2000/svg">
  <sodipodi:namedview
     id="namedview2770"
     pagecolor="#9e9e9e"
     bordercolor="#666666"
     borderopacity="1.0"
     inkscape:showpageshadow="2"
     inkscape:pageopacity="0"
     inkscape:pagecheckerboard="0"
     inkscape:deskcolor="#d1d1d1"
     inkscape:document-units="mm"
     showgrid="false"
     inkscape:zoom="3.1847403"
     inkscape:cx="19.310837"
     inkscape:cy="135.80385"
     inkscape:window-width="1916"
     inkscape:window-height="1036"
     inkscape:window-x="0"
     inkscape:window-y="20"
     inkscape:window-maximized="1"
     inkscape:current-layer="layer1" />
  <defs
     id="defs2765">
    <linearGradient
       id="linearGradient10218"
       inkscape:swatch="solid">
      <stop
         style="stop-color:#000000;stop-opacity:1;"
         offset="0"
         id="stop10216" />
    </linearGradient>
    <linearGradient
       id="linearGradient10212"
       inkscape:swatch="solid">
      <stop
         style="stop-color:#000000;stop-opacity:1;"
         offset="0"
         id="stop10210" />
    </linearGradient>
    <linearGradient
       id="linearGradient10206"
       inkscape:swatch="solid">
      <stop
         style="stop-color:#000000;stop-opacity:1;"
         offset="0"
         id="stop10204" />
    </linearGradient>
    <linearGradient
       id="linearGradient858"
       inkscape:swatch="solid">
      <stop
         style="stop-color:#000000;stop-opacity:1;"
         offset="0"
         id="stop856" />
    </linearGradient>
    <linearGradient
       id="ink"
       inkscape:swatch="solid">
      <stop
         style="stop-opacity:1;"
         offset="0"
         id="stop53636" />
    </linearGradient>
    <linearGradient
       inkscape:collect="always"
       xlink:href="#linearGradient858"
       id="linearGradient860"
       x1="14.598208"
       y1="43.162051"
       x2="40.966525"
       y2="43.162051"
       gradientUnits="userSpaceOnUse" />
    <linearGradient
       inkscape:collect="always"
       xlink:href="#ink"
       id="linearGradient10208"
       x1="14.598208"
       y1="43.162052"
       x2="40.966526"
       y2="43.162052"
       gradientUnits="userSpaceOnUse" />
    <linearGradient
       inkscape:collect="always"
       xlink:href="#ink"
       id="linearGradient10214"
       x1="26.468138"
       y1="10.405382"
       x2="41.525047"
       y2="10.405382"
       gradientUnits="userSpaceOnUse" />
    <linearGradient
       inkscape:collect="always"
       xlink:href="#ink"
       id="linearGradient10220"
       x1="19.251177"
       y1="64.820793"
       x2="31.318733"
       y2="64.820793"
       gradientUnits="userSpaceOnUse" />
    <linearGradient
       inkscape:collect="always"
       xlink:href="#ink"
       id="linearGradient10222"
       x1="55.30175"
       y1="47.737995"
       x2="59.665295"
       y2="47.737995"
       gradientUnits="userSpaceOnUse" />
    <linearGradient
       inkscape:collect="always"
       xlink:href="#ink"
       id="linearGradient10224"
       x1="39.155548"
       y1="53.45055"
       x2="42.790192"
       y2="53.45055"
       gradientUnits="userSpaceOnUse" />
    <linearGradient
       inkscape:collect="always"
       xlink:href="#ink"
       id="linearGradient10226"
       x1="46.811111"
       y1="60.110275"
       x2="50.14378"
       y2="60.110275"
       gradientUnits="userSpaceOnUse" />
    <linearGradient
       inkscape:collect="always"
       xlink:href="#ink"
       id="linearGradient10228"
       x1="50.475403"
       y1="58.594894"
       x2="54.204533"
       y2="58.594894"
       gradientUnits="userSpaceOnUse" />
    <linearGradient
       inkscape:collect="always"
       xlink:href="#ink"
       id="linearGradient10230"
       x1="54.238876"
       y1="56.611458"
       x2="58.108513"
       y2="56.611458"
       gradientUnits="userSpaceOnUse" />
  </defs>
  <g
     inkscape:label="Layer 1"
     inkscape:groupmode="layer"
     id="layer1">
    <rect
       style="fill:#ffffff;fill-opacity:1;fill-rule:nonzero;stroke:none;stroke-width:0.24168;stroke-linecap:butt;stroke-linejoin:miter;stroke-dasharray:none;stroke-opacity:1;paint-order:stroke fill markers"
       id="rect16745"
       width="30.395714"
       height="10.45863"
       x="30.047276"
       y="-32.389362"
       ry="0"
       transform="rotate(68.732251)" />
    <rect
       class="ink"
       style="fill-opacity:1.0;fill-rule:nonzero;stroke:none;stroke-width:0.24168;stroke-linecap:butt;stroke-linejoin:miter;stroke-dasharray:none;stroke-opacity:1;paint-order:stroke fill markers;fill:url(#linearGradient10220)"
       id="rect14704"
       width="12.067557"
       height="8.318285"
       x="19.251177"
       y="60.661652"
       ry="1.6538609"
       transform="rotate(-23.071142)" />
    <path
       class="ink"
       style="fill-opacity:1.0;stroke:none;stroke-width:0.511554px;stroke-linecap:butt;stroke-linejoin:miter;stroke-opacity:1;fill:url(#linearGradient10222)"
       d="m 55.30175,45.531066 4.363543,1.871554 -2.597595,2.542306 z"
       id="path14712" />
    <path
       class="ink"
       style="fill-opacity:1.0;stroke:none;stroke-width:0.511554px;stroke-linecap:butt;stroke-linejoin:miter;stroke-opacity:1;fill:url(#linearGradient10224)"
       d="m 40.978116,51.252975 -1.822569,4.384229 3.634645,0.01092 z"
       id="path15625" />
    <path
       class="ink"
       style="fill-opacity:1.0;stroke:none;stroke-width:0.511554px;stroke-linecap:butt;stroke-linejoin:miter;stroke-opacity:1;fill:url(#linearGradient10226)"
       d="m 46.811113,59.253501 0.152314,2.961996 3.180352,-2.24755 -0.919817,-1.962893 z"
       id="path3336" />
    <path
       class="ink"
       style="fill-opacity:1.0;stroke:none;stroke-width:0.511554px;stroke-linecap:butt;stroke-linejoin:miter;stroke-opacity:1;fill:url(#linearGradient10228)"
       d="m 50.475402,57.860927 2.081405,2.505639 1.647727,-1.031204 -2.142382,-2.512141 z"
       id="path3334" />
    <path
       class="ink"
       style="fill-opacity:1.0;stroke:none;stroke-width:0.511554px;stroke-linecap:butt;stroke-linejoin:miter;stroke-opacity:1;fill:url(#linearGradient10230)"
       d="m 54.238876,56.114698 0.529489,2.115864 3.340149,-0.463563 -0.572174,-2.774649 z"
       id="path3332" />
    <path
       class="ink"
       id="path14696"
       style="fill-opacity:1.0;fill-rule:nonzero;stroke:none;stroke-width:0.24168;stroke-linecap:butt;stroke-linejoin:miter;stroke-dasharray:none;stroke-opacity:1;paint-order:stroke fill markers;fill:url(#linearGradient10214)"
       d="M 35.782939,2.8724666 C 34.228964,1.7840701 32.181019,1.4659694 30.268904,2.199699 27.209509,3.3736767 25.690882,6.781938 26.864913,9.8413451 L 30.382689,19.007808 41.525048,15.021585 37.909776,5.603178 C 37.469545,4.4559019 36.715376,3.5255499 35.782991,2.8724928 Z" />
    <path
       id="path16133"
       style="fill:#ffffff;fill-opacity:1;fill-rule:nonzero;stroke:none;stroke-width:0.24168;stroke-linecap:butt;stroke-linejoin:miter;stroke-dasharray:none;stroke-opacity:1;paint-order:stroke fill markers"
       d="m 34.191883,5.7809609 a 3.3772517,3.3772517 0 0 0 -4.435711,1.7720664 3.3772517,3.3772517 0 0 0 1.772982,4.4361067 3.3772517,3.3772517 0 0 0 4.435201,-1.773373 3.3772517,3.3772517 0 0 0 -1.772472,-4.4348001 z m -0.485998,1.1330979 a 2.1447205,2.1447205 0 0 1 1.12536,2.8157031 2.1447205,2.1447205 0 0 1 -2.816102,1.1262711 2.1447205,2.1447205 0 0 1 -1.125872,-2.8170116 2.1447205,2.1447205 0 0 1 2.816614,-1.1249626 z" />
    <path
       style="fill:#35bfc1;fill-opacity:1;stroke:none;stroke-width:0.511554px;stroke-linecap:butt;stroke-linejoin:miter;stroke-opacity:1"
       d="m 45.585804,55.151251 4.678952,4.557572 1.201903,-0.180845 -1.22898,-1.278375 -0.26561,-0.968754 2.38759,-0.700778 1.611505,1.737192 0.593046,-0.367763 -0.07912,-6.398427 z"
       id="path16889" />
    <rect
       style="fill:#35bfc1;fill-opacity:1;stroke-width:1.20357;paint-order:stroke fill markers"
       id="rect3511"
       width="33.045235"
       height="23.428732"
       x="11.259749"
       y="31.447687"
       ry="6.5442538"
       transform="rotate(5.6772894)" />
    <rect
       class="ink"
       style="fill-opacity:1.0;stroke-width:0.960387;paint-order:stroke fill markers;fill:url(#linearGradient10208)"
       id="rect4343"
       width="26.368317"
       height="18.694868"
       x="14.598208"
       y="33.814617"
       ry="5.2219625"
       transform="rotate(5.6772894)" />
    <path
       id="path4491"
       style="fill:#ffffff;fill-opacity:1;stroke-width:0.61161;paint-order:stroke fill markers"
       d="m 16.838526,37.365871 a 4.4733442,4.4733442 0 0 0 -4.894333,4.00877 4.4733442,4.4733442 0 0 0 4.009291,4.893908 4.4733442,4.4733442 0 0 0 4.893861,-4.008819 4.4733442,4.4733442 0 0 0 -4.008819,-4.893859 z m -0.493672,1.22807 -0.281723,2.833874 -2.833876,-0.281724 a 2.8480054,2.8480054 0 0 1 3.115599,-2.55215 z m 0.817718,0.08129 a 2.8480054,2.8480054 0 0 1 2.552625,3.115645 l -2.834349,-0.281771 z m -4.026316,3.40634 2.833876,0.281724 -0.281724,2.833875 a 2.8480054,2.8480054 0 0 1 -2.552152,-3.115599 z m 3.651593,0.363016 2.834349,0.281771 a 2.8480054,2.8480054 0 0 1 -3.116073,2.552104 z" />
  </g>
</svg>
