<?xml version="1.0" encoding="UTF-8" standalone="no"?>
<!-- Created with Inkscape (http://www.inkscape.org/) -->

<svg
   width="256"
   height="256"
   viewBox="0 0 67.733332 67.733333"
   version="1.1"
   id="svg15545"
   inkscape:version="1.2.1 (9c6d41e410, 2022-07-14, custom)"
   sodipodi:docname="s3_ink_storm.svg"
   xml:space="preserve"
   xmlns:inkscape="http://www.inkscape.org/namespaces/inkscape"
   xmlns:sodipodi="http://sodipodi.sourceforge.net/DTD/sodipodi-0.dtd"
   xmlns:xlink="http://www.w3.org/1999/xlink"
   xmlns="http://www.w3.org/2000/svg"
   xmlns:svg="http://www.w3.org/2000/svg"><sodipodi:namedview
     id="namedview15547"
     pagecolor="#505050"
     bordercolor="#eeeeee"
     borderopacity="1"
     inkscape:showpageshadow="0"
     inkscape:pageopacity="0"
     inkscape:pagecheckerboard="0"
     inkscape:deskcolor="#505050"
     inkscape:document-units="mm"
     showgrid="false"
     inkscape:zoom="2.1340591"
     inkscape:cx="135.65697"
     inkscape:cy="133.31402"
     inkscape:window-width="1916"
     inkscape:window-height="1036"
     inkscape:window-x="0"
     inkscape:window-y="20"
     inkscape:window-maximized="1"
     inkscape:current-layer="layer1" /><defs
     id="defs15542"><linearGradient
       id="linearGradient8501"
       inkscape:swatch="solid"><stop
         style="stop-color:#000000;stop-opacity:1;"
         offset="0"
         id="stop8499" /></linearGradient><linearGradient
       id="linearGradient8495"
       inkscape:swatch="solid"><stop
         style="stop-color:#000000;stop-opacity:1;"
         offset="0"
         id="stop8493" /></linearGradient><linearGradient
       id="ink"
       inkscape:swatch="solid"><stop
         style="stop-opacity:1;"
         offset="0"
         id="stop53636" /></linearGradient><linearGradient
       inkscape:collect="always"
       xlink:href="#ink"
       id="linearGradient8497"
       x1="1.3529799"
       y1="20.871586"
       x2="66.149284"
       y2="20.871586"
       gradientUnits="userSpaceOnUse" /><linearGradient
       inkscape:collect="always"
       xlink:href="#ink"
       id="linearGradient8503"
       x1="48.726212"
       y1="45.925411"
       x2="55.396832"
       y2="45.925411"
       gradientUnits="userSpaceOnUse" /><linearGradient
       inkscape:collect="always"
       xlink:href="#ink"
       id="linearGradient8505"
       x1="41.772442"
       y1="61.333771"
       x2="48.443062"
       y2="61.333771"
       gradientUnits="userSpaceOnUse" /><linearGradient
       inkscape:collect="always"
       xlink:href="#ink"
       id="linearGradient8507"
       x1="26.989717"
       y1="50.908161"
       x2="33.660332"
       y2="50.908161"
       gradientUnits="userSpaceOnUse" /><linearGradient
       inkscape:collect="always"
       xlink:href="#ink"
       id="linearGradient8509"
       x1="18.043171"
       y1="59.222698"
       x2="24.713787"
       y2="59.222698"
       gradientUnits="userSpaceOnUse" /><linearGradient
       inkscape:collect="always"
       xlink:href="#ink"
       id="linearGradient8511"
       x1="8.0693312"
       y1="46.317654"
       x2="14.739948"
       y2="46.317654"
       gradientUnits="userSpaceOnUse" /></defs><g
     inkscape:label="Layer 1"
     inkscape:groupmode="layer"
     id="layer1"><path
       style="display:inline;fill-opacity:1.0;stroke:none;stroke-width:0.524374px;stroke-linecap:butt;stroke-linejoin:miter;stroke-opacity:1;fill:url(#linearGradient8497)"
       class="ink"
       d="m 38.414104,9.5464279 c 0,0 -1.99989,-4.9040292 -4.00735,-6.442042 C 32.374244,1.5471843 27.607453,0.90665813 25.0475,0.85566003 21.775631,0.79047603 18.268255,3.1822108 15.91323,5.4544775 13.65938,7.6291196 14.331144,9.6933289 14.870159,12.350957 13.021925,11.686928 11.679112,10.733364 9.8626274,11.452359 8.1308497,12.137824 5.0776036,14.565737 4.9303092,16.42241 c -0.1520113,1.91551 3.4915218,4.451919 3.4915218,4.451919 0,0 -5.1094603,0.699071 -6.253231,2.653232 -1.46893988,2.509741 -0.8364186,6.385339 0.9615553,8.670918 1.8073879,2.297529 8.2436067,2.991687 8.2436067,2.991687 1.866726,-0.427825 3.640242,-0.407487 5.601247,-1.281299 -0.716335,2.610976 -1.226771,4.180302 0.234617,4.632812 0,0 2.410142,1.181009 3.701186,1.146053 1.169416,-0.03165 3.104597,-1.119493 4.094791,-1.742449 1.089684,-0.685551 1.972796,-2.160539 1.972796,-2.160539 0,0 0.940825,1.906259 1.761883,2.519534 1.933655,1.444289 4.48124,1.931242 6.867183,2.294883 2.589165,0.394614 5.302358,0.426161 7.855591,-0.157303 2.120091,-0.484482 4.37297,-1.199623 5.932224,-2.715626 1.044914,-1.015932 1.930939,-3.922661 1.930939,-3.922661 0,0 3.346686,1.776717 5.088531,1.481811 1.272951,-0.215519 2.618458,-1.034793 3.455788,-2.017517 0.447631,-0.525352 0.758808,-1.374197 0.617282,-2.085096 -0.163705,-0.822194 -1.583038,-1.954265 -1.583038,-1.954265 0,0 3.595413,-0.339678 4.963534,-1.37716 1.150331,-0.872321 2.069057,-2.272799 2.240967,-3.70621 0.222704,-1.857074 -0.504313,-3.90188 -1.685661,-5.351954 -0.749176,-0.919584 -3.357942,-1.615257 -4.52393,-1.832905 -1.876338,-0.350244 -4.25451,0.89661 -4.25451,0.89661 0,0 0.519374,-3.329017 0.119111,-4.919877 C 55.217192,10.762498 53.482876,8.2708822 51.68409,6.9321657 49.442687,5.2640335 46.84391,5.0953505 44.269389,5.2118204 41.849061,5.3213197 39.251771,6.3441352 38.414104,9.5464279 Z"
       id="path17162"
       sodipodi:nodetypes="cssscsscssccssscsssscssscsssscsssc" /><path
       id="path17224"
       class="ink"
       style="display:inline;fill-rule:nonzero;stroke-width:0.312329;paint-order:stroke fill markers;fill-opacity:1.0;fill:url(#linearGradient8507)"
       d="m 33.660333,52.953551 c 0,1.842041 -1.493278,3.335311 -3.335308,3.335313 -1.842031,-2e-6 -3.335308,-1.493272 -3.335308,-3.335313 0,-1.84204 1.493277,-3.335309 3.335308,-3.335311 1.84203,2e-6 3.335308,1.493271 3.335308,3.335311 z m -3.368643,-7.426094 3.156937,6.077346 -5.966431,-0.246449 z"
       sodipodi:nodetypes="ssssscccc" /><path
       id="path17513"
       class="ink"
       style="display:inline;fill-rule:nonzero;stroke-width:0.312329;paint-order:stroke fill markers;fill-opacity:1.0;fill:url(#linearGradient8509)"
       d="m 24.713788,61.26809 c 0,1.842042 -1.493277,3.335311 -3.335308,3.335313 -1.842031,-2e-6 -3.335309,-1.493271 -3.335309,-3.335313 0,-1.842041 1.493278,-3.335308 3.335309,-3.335311 1.842031,3e-6 3.335308,1.49327 3.335308,3.335311 z m -3.368643,-7.426094 3.156937,6.077345 -5.966431,-0.246447 z"
       sodipodi:nodetypes="ssssscccc" /><path
       id="path17517"
       class="ink"
       style="display:inline;fill-rule:nonzero;stroke-width:0.312329;paint-order:stroke fill markers;fill-opacity:1.0;fill:url(#linearGradient8511)"
       d="m 14.739948,48.363044 c 0,1.842041 -1.493276,3.335311 -3.335308,3.335313 -1.8420309,-2e-6 -3.3353087,-1.493272 -3.3353087,-3.335313 0,-1.842041 1.4932778,-3.335309 3.3353087,-3.335312 1.842032,3e-6 3.335308,1.493271 3.335308,3.335312 z m -3.368643,-7.426094 3.156937,6.077346 -5.9664298,-0.246449 z"
       sodipodi:nodetypes="ssssscccc" /><path
       id="path17521"
       class="ink"
       style="display:inline;fill-rule:nonzero;stroke-width:0.312329;paint-order:stroke fill markers;fill-opacity:1.0;fill:url(#linearGradient8505)"
       d="m 48.44306,63.379159 c 0,1.842042 -1.493278,3.335312 -3.335309,3.335313 -1.842031,-10e-7 -3.33531,-1.493271 -3.33531,-3.335313 0,-1.842041 1.493279,-3.335308 3.33531,-3.33531 1.842031,2e-6 3.335309,1.493269 3.335309,3.33531 z m -3.368644,-7.426094 3.156937,6.077347 -5.966431,-0.246449 z"
       sodipodi:nodetypes="ssssscccc" /><path
       id="path17525"
       class="ink"
       style="display:inline;fill-rule:nonzero;stroke-width:0.312329;paint-order:stroke fill markers;fill-opacity:1.0;fill:url(#linearGradient8503)"
       d="m 55.396831,47.970803 c 0,1.842041 -1.493278,3.335311 -3.335309,3.335312 -1.842032,-10e-7 -3.33531,-1.493271 -3.33531,-3.335312 0,-1.842041 1.493278,-3.335309 3.33531,-3.335311 1.842031,2e-6 3.335309,1.49327 3.335309,3.335311 z m -3.368646,-7.426094 3.15694,6.077347 -5.966432,-0.246449 z"
       sodipodi:nodetypes="ssssscccc" /><g
       id="g17540"
       transform="matrix(1.9818935,0,0,1.9818935,-432.11979,-75.646712)"
       style="display:inline"><path
         id="path17529"
         style="fill:#ffffff;fill-opacity:1;fill-rule:nonzero;stroke-width:0.133446;paint-order:stroke fill markers"
         d="m 230.25691,53.250671 c 0,0.855278 -0.58712,1.548618 -1.31135,1.548619 -0.72424,-10e-7 -1.31135,-0.693341 -1.31135,-1.548619 0,-0.855279 0.58711,-1.548618 1.31135,-1.548619 0.72423,10e-7 1.31135,0.69334 1.31135,1.548619 z m -1.32446,-3.448011 1.24122,2.821773 -2.34583,-0.114428 z"
         sodipodi:nodetypes="ssssscccc" /><path
         id="path17533"
         style="fill:#ffffff;fill-opacity:1;fill-rule:nonzero;stroke-width:0.133446;paint-order:stroke fill markers"
         d="m 240.08756,55.155599 c 0,0.855278 -0.58712,1.548618 -1.31135,1.548619 -0.72424,-10e-7 -1.31135,-0.693341 -1.31135,-1.548619 0,-0.855279 0.58711,-1.548618 1.31135,-1.548619 0.72423,10e-7 1.31135,0.69334 1.31135,1.548619 z m -1.32446,-3.448011 1.24122,2.821773 -2.34583,-0.114428 z"
         sodipodi:nodetypes="ssssscccc" /><path
         id="path17535"
         style="fill:#ffffff;fill-opacity:1;fill-rule:nonzero;stroke-width:0.133446;paint-order:stroke fill markers"
         d="m 244.06947,50.868764 c 0,0.855278 -0.58712,1.548618 -1.31135,1.548619 -0.72424,-10e-7 -1.31135,-0.693341 -1.31135,-1.548619 0,-0.855279 0.58711,-1.548618 1.31135,-1.548619 0.72423,1e-6 1.31135,0.69334 1.31135,1.548619 z m -1.32446,-3.448011 1.24122,2.821773 -2.34583,-0.114428 z"
         sodipodi:nodetypes="ssssscccc" /></g></g></svg>
