<?xml version="1.0" encoding="UTF-8" standalone="no"?>
<!-- Created with Inkscape (http://www.inkscape.org/) -->

<svg
   width="256"
   height="256"
   viewBox="0 0 67.733333 67.733333"
   version="1.1"
   id="svg14755"
   inkscape:version="1.2.1 (9c6d41e410, 2022-07-14, custom)"
   sodipodi:docname="s3_reefslider.svg"
   xml:space="preserve"
   xmlns:inkscape="http://www.inkscape.org/namespaces/inkscape"
   xmlns:sodipodi="http://sodipodi.sourceforge.net/DTD/sodipodi-0.dtd"
   xmlns:xlink="http://www.w3.org/1999/xlink"
   xmlns="http://www.w3.org/2000/svg"
   xmlns:svg="http://www.w3.org/2000/svg"><sodipodi:namedview
     id="namedview14757"
     pagecolor="#505050"
     bordercolor="#eeeeee"
     borderopacity="1"
     inkscape:showpageshadow="0"
     inkscape:pageopacity="0"
     inkscape:pagecheckerboard="0"
     inkscape:deskcolor="#505050"
     inkscape:document-units="mm"
     showgrid="false"
     inkscape:zoom="3.1299287"
     inkscape:cx="83.867724"
     inkscape:cy="96.008576"
     inkscape:window-width="1916"
     inkscape:window-height="1036"
     inkscape:window-x="0"
     inkscape:window-y="20"
     inkscape:window-maximized="1"
     inkscape:current-layer="layer1" /><defs
     id="defs14752"><linearGradient
       id="linearGradient15014"
       inkscape:swatch="solid"><stop
         style="stop-color:#000000;stop-opacity:1;"
         offset="0"
         id="stop15012" /></linearGradient><linearGradient
       id="linearGradient15008"
       inkscape:swatch="solid"><stop
         style="stop-color:#000000;stop-opacity:1;"
         offset="0"
         id="stop15006" /></linearGradient><linearGradient
       id="linearGradient15002"
       inkscape:swatch="solid"><stop
         style="stop-color:#000000;stop-opacity:1;"
         offset="0"
         id="stop15000" /></linearGradient><linearGradient
       id="ink"
       inkscape:swatch="solid"><stop
         style="stop-opacity:1;"
         offset="0"
         id="stop53636" /></linearGradient><linearGradient
       inkscape:collect="always"
       xlink:href="#ink"
       id="linearGradient15004"
       x1="3.3130281"
       y1="34.267574"
       x2="64.886917"
       y2="34.267574"
       gradientUnits="userSpaceOnUse" /><linearGradient
       inkscape:collect="always"
       xlink:href="#ink"
       id="linearGradient15010"
       x1="26.808926"
       y1="50.897812"
       x2="40.842857"
       y2="50.897812"
       gradientUnits="userSpaceOnUse" /><linearGradient
       inkscape:collect="always"
       xlink:href="#ink"
       id="linearGradient15016"
       x1="34.420677"
       y1="22.619139"
       x2="55.613052"
       y2="22.619139"
       gradientUnits="userSpaceOnUse" /></defs><g
     inkscape:label="Layer 1"
     inkscape:groupmode="layer"
     id="layer1"><path
       class="ink"
       style="fill-opacity:1.0;stroke:none;stroke-width:0.536492px;stroke-linecap:butt;stroke-linejoin:miter;stroke-opacity:1;fill:url(#linearGradient15004)"
       d="m 27.778478,16.200058 c -1.959681,0.664658 -2.994498,1.598577 -4.390374,3.094083 -1.319065,1.413213 -2.419819,4.53166 -2.419819,4.53166 l -0.685997,1.945451 c 0,0 -2.545193,0.377701 -3.545808,0.968061 -1.04269,0.615186 -2.232652,1.839206 -3.011504,3.031863 -0.649107,0.993976 -1.304432,3.313974 -1.304432,3.313974 l -4.9818208,0.843539 -3.9667857,3.075948 -0.1589093,5.22754 2.7539464,2.769837 7.6944174,3.378617 8.245028,1.627154 4.594728,0.0023 c 0,0 -0.691783,-2.279457 -0.508832,-3.431833 0.163047,-1.027002 0.652147,-2.01798 1.363318,-2.756031 0.644669,-0.669039 1.707289,-1.044799 2.605971,-1.280564 0.906512,-0.237819 1.776895,-0.203453 2.655977,-0.09392 1.389724,0.173165 2.828398,0.461606 4.03397,1.174287 1.165251,0.688847 2.317955,1.634803 2.874028,2.868942 0.444384,0.986254 0.195836,3.239322 0.195836,3.239322 l 3.795256,-0.502876 2.259742,-0.644265 c 0,0 1.116057,1.707773 1.909179,2.318838 1.182056,0.91072 2.589855,2.07917 4.067323,1.869992 0.428148,-0.06061 0.663478,-0.996196 0.700684,-1.567227 0.08432,-1.294138 -1.113659,-3.727853 -1.113659,-3.727853 l 2.031786,-0.85156 c 0,0 0.574346,1.505195 1.155302,2.018525 0.925307,0.817598 2.229351,1.092618 3.417067,1.430239 2.22152,0.631489 6.84282,1.086796 6.84282,1.086796 0,0 -3.011465,-3.256051 -3.774714,-5.280642 -0.623728,-1.654493 -0.626075,-3.512107 -0.531805,-5.27775 0.108623,-2.034482 0.472676,-4.101094 1.256833,-5.981523 0.594488,-1.425601 2.551262,-3.868184 2.551262,-3.868184 l -3.486613,-0.02843 c 0,0 -2.757386,1.188292 -3.925034,2.105252 -1.300664,1.021415 -3.314791,3.691518 -3.314791,3.691518 l -1.455057,2.281251 -3.706505,-2.477602 -6.455,-5.556867 -7.339908,-4.08227 -2.494723,-0.660296 c 0,0 -0.903216,-3.181387 -0.777922,-4.796139 0.07821,-1.007871 0.941526,-2.882843 0.941526,-2.882843 l 0.567682,-2.311874 -2.449963,-0.295919 c 0,0 -2.105202,0.255168 -2.713706,0.461554 z"
       id="path12010-9"
       sodipodi:nodetypes="ssccssccccccccsssssscccsssccsscsssccsccccccscccs" /><path
       class="ink"
       style="fill-opacity:1.0;stroke:none;stroke-width:0.536492px;stroke-linecap:butt;stroke-linejoin:miter;stroke-opacity:1;fill:url(#linearGradient15016)"
       d="m 34.84554,16.474074 c -0.420862,-0.696627 -0.590723,-1.622146 -0.222216,-2.54238 0.42426,-1.059471 1.481355,-2.270383 2.437671,-2.893229 1.041804,-0.678524 2.151466,-1.2576424 3.445338,-1.4287774 1.481797,-0.1959972 3.298622,0.08263 4.746623,0.4533254 0.760701,0.19474 1.53618,0.494286 2.12806,1.010304 0.959938,0.8369 2.093726,3.195817 2.093726,3.195817 l 0.328115,1.172882 c 0,0 2.415484,0.405825 3.23114,1.217958 0.535406,0.533095 0.807362,1.364957 0.808654,2.117484 0.0011,0.626116 -0.698341,1.861302 -0.698341,1.861302 l -1.34065,0.891359 -2.701595,0.58657 -2.261002,-0.126507 2.740431,1.070777 2.265745,1.422439 2.760803,2.268235 c 0,0 0.811199,1.061067 0.949727,1.693184 0.205933,0.93969 -0.229775,2.876809 -0.229775,2.876809 l -1.876376,2.362712 -1.699644,2.00883 c 0,0 -0.891077,-0.06959 -1.245808,-0.179632 -0.354734,-0.110044 -2.698165,-1.433402 -2.698165,-1.433402 l -1.322891,-0.460018 0.929868,-2.329498 c 0,0 0.241073,-0.809007 0.03889,-1.125166 -0.41985,-0.65653 -2.154855,-0.906831 -2.154855,-0.906831 l -1.781123,-1.737417 -1.030481,-1.414913 -0.40772,-1.364393 -0.344069,-1.242095 -2.356632,-1.618076 0.292108,-0.476016 -2.593742,-3.330477 -1.249359,-1.064321 c 0,0 -0.762552,-0.17284 -0.982459,-0.536839 z"
       id="path12008-1"
       sodipodi:nodetypes="ssssssccsscccccccscccscccscccccccccs" /><path
       class="ink"
       style="fill-opacity:1.0;stroke:none;stroke-width:0.536492px;stroke-linecap:butt;stroke-linejoin:miter;stroke-opacity:1;fill:url(#linearGradient15010)"
       d="m 27.546062,45.193659 c -0.621194,0.93276 -0.844745,2.180646 -0.689657,3.290541 0.192204,1.375561 1.100238,2.581268 1.939872,3.687669 1.275144,1.680278 2.83349,3.193324 4.601013,4.344488 0.980407,0.638526 2.10114,1.074823 3.235899,1.359842 1.160252,0.291419 2.495597,0.858135 3.572913,0.338038 0.348594,-0.168299 0.603753,-0.587364 0.633416,-0.973319 0.05155,-0.670568 -0.506059,-1.249538 -0.829172,-1.839383 -0.315392,-0.575747 -0.858067,-1.029865 -1.077294,-1.648652 -0.257693,-0.727353 -0.260314,-1.531606 -0.236151,-2.302882 0.0235,-0.749782 0.324216,-1.471149 0.369264,-2.219946 0.03696,-0.614533 0.124481,-1.265262 -0.08245,-1.845092 -0.191029,-0.535328 -0.635499,-0.947783 -1.019536,-1.366813 -0.412511,-0.450099 -0.853786,-0.888492 -1.36733,-1.218684 -0.834839,-0.536774 -1.752395,-1.002194 -2.724975,-1.200097 -1.334952,-0.271643 -2.788298,-0.358195 -4.086559,0.0546 -0.863251,0.274483 -1.737151,0.785741 -2.239258,1.539685 z"
       id="path2546"
       sodipodi:nodetypes="sssssssssssssssss" /><path
       id="path2561-2"
       style="fill:#ffffff;fill-opacity:1;fill-rule:nonzero;stroke:none;stroke-width:0.536492px;stroke-linecap:butt;stroke-linejoin:miter;stroke-opacity:1"
       d="m 30.867177,31.573681 -1.039459,0.151935 c 0,0 -2.430482,1.696249 -3.653813,2.532626 -1.516238,1.036633 -3.096366,1.982384 -4.568578,3.080646 -1.060899,0.791425 -3.065979,2.523198 -3.065979,2.523198 0,0 -0.273013,0.833712 -0.636038,0.94515 -0.410345,0.12596 -1.194536,-0.480959 -1.194536,-0.480959 l -3.369851,-1.975176 -0.300406,-6.970982 c 0,0 -1.171402,0.613058 -1.925202,0.867319 -1.5705326,0.529749 -3.1249764,1.134678 -4.5947717,1.900781 -1.0921249,0.56925 -2.3108331,1.055445 -3.1131296,1.989846 -0.4158236,0.484292 -0.6363227,1.127955 -0.7754004,1.750939 -0.1155583,0.517598 -0.1619715,1.060281 -0.1614848,1.590621 7.868e-4,0.838342 0.00831,2.124019 0.1868924,2.514289 0.5567925,1.217392 1.2432203,1.354041 2.1626032,2.300419 1.0496935,1.080518 2.5877566,1.907321 3.9799903,2.62852 0.996554,0.516233 2.1431786,0.665384 3.1797696,1.095611 1.070848,0.444446 2.143589,1.113317 3.302789,1.090801 0.434719,-0.0085 0.967034,-0.104507 1.22178,-0.456857 0.257223,-0.355785 0.05134,-1.316085 0.05134,-1.316085 0,0 -1.273452,-1.522397 -1.703788,-2.40584 -0.604234,-1.240445 -1.185104,-3.966071 -1.185104,-3.966071 l 4.240603,1.782374 c 0,0 1.05638,0.870537 1.674446,0.814172 0.261723,-0.02387 0.523066,-0.43542 0.634991,-0.673203 0.221394,-0.470357 -0.08802,-1.351223 -0.08802,-1.351223 l 0.611939,-0.787976 6.629677,-4.855686 4.619922,-2.853266 z m -19.403885,1.596907 -0.208519,4.945798 -2.5713978,-0.336355 0.073337,-3.20534 z m -5.7023403,2.496999 c 0.2911557,-0.157694 0.9933522,0 0.9933522,0 l -0.2808212,2.347159 -1.8386225,0.19474 c 0,0 -0.319794,-0.144839 -0.3408839,-0.293238 -0.1259192,-0.88605 0.6800297,-1.822442 1.4669754,-2.248655 z m 3.3143147,4.294044 2.8605996,0.524968 0.750254,3.556365 0.793213,2.760011 -2.638458,-0.836176 -0.733486,-0.725106 z m -4.5015173,0.104791 2.0370004,0.06917 0.5616423,2.39955 c 0,0 0.2580582,1.068242 -0.1215407,1.187202 -1.0770854,0.337541 -2.2057008,-2.569301 -2.2057008,-2.569301 z m 42.9832519,-6.775624 3.493755,2.04259 -1.046675,1.270115 -0.02028,0.811843 c 0,0 2.619114,4.233007 3.954264,5.725743 0.662664,0.740878 -0.431127,1.625619 -0.431127,1.625619 0,0 -3.591377,2.498575 -5.624028,2.382548 -0.438684,-0.02505 -0.880255,-0.300096 -1.147371,-0.648975 -0.319135,-0.416821 -0.456152,-1.004715 -0.390898,-1.525606 0.06572,-0.52467 0.370097,-1.035574 0.760629,-1.392062 0.698937,-0.638013 2.604874,-1.129071 2.604874,-1.129071 0,0 -3.522619,-3.024932 -4.131423,-5.136068 -0.130056,-0.450987 -0.0027,-0.959408 0.162823,-1.39865 0.37528,-0.996375 1.815454,-2.628026 1.815455,-2.628026 z m -2.657615,-9.166609 c -0.798786,0.194517 -1.53026,0.612686 -2.159533,1.191394 -0.47435,0.436231 -0.65749,1.299156 -1.177979,1.787176 -0.585873,0.549323 -1.361509,0.861846 -2.092813,1.193811 -0.664128,0.301472 -1.368788,0.506961 -2.067244,0.716986 -0.736017,0.221318 -1.468112,0.505121 -2.233837,0.571205 -0.497187,0.0429 -0.999787,-0.195875 -1.492534,-0.116896 -0.523809,0.08394 -1.221885,0.144087 -1.468325,0.613861 -0.274548,0.52335 0.0588,1.230339 0.36708,1.73456 0.349567,0.571758 0.91714,1.080977 1.560945,1.267046 0.649194,0.187622 1.458019,0.144696 2.012918,-0.240982 0.458102,-0.318396 0.765683,-1.488233 0.765683,-1.488233 0,0 1.699722,0.03143 2.285119,-0.03001 1.308097,-0.137275 2.038913,-0.489441 3.288095,-0.901151 0.70688,-0.232976 1.427844,-0.454087 2.078869,-0.814816 0.693928,-0.384499 1.325562,-0.883167 1.911242,-1.418285 0.620992,-0.567385 1.397547,-1.090573 1.680146,-1.882842 0.169394,-0.47489 0.195531,-1.079807 -0.06549,-1.511174 -0.211582,-0.349642 -0.66726,-0.503891 -1.060464,-0.615295 -0.683953,-0.193787 -1.441184,-0.224542 -2.131875,-0.05634 z m -8.040495,-6.919453 0.14725,2.072682 -0.740791,0.797071 c 0,0 0.04669,1.460222 0.374178,2.086252 0.265908,0.508308 0.699806,0.96999 1.218228,1.215597 0.796137,0.377176 1.749047,0.294034 2.629542,0.265295 0.593091,-0.01927 1.755809,-0.29382 1.755809,-0.29382 l 3.8396,-1.221221 0.604901,-0.816227 -2.207164,-1.696913 -1.513915,-1.749515 -0.449187,-1.159556 z"
       sodipodi:nodetypes="ccsscscccssssssssssscsccssccccccccccccccssccccccccccsccccccsccsssscssccssssssssscsssssssscccsssccccccccc" /></g></svg>
