<?xml version="1.0" encoding="UTF-8" standalone="no"?>
<!-- Created with Inkscape (http://www.inkscape.org/) -->

<svg
   width="128"
   height="128"
   viewBox="0 0 33.866666 33.866666"
   version="1.1"
   id="svg30007"
   inkscape:version="1.2.1 (9c6d41e410, 2022-07-14, custom)"
   sodipodi:docname="s3_splashdown.svg"
   inkscape:export-filename="splashdown.png"
   inkscape:export-xdpi="192"
   inkscape:export-ydpi="192"
   xml:space="preserve"
   xmlns:inkscape="http://www.inkscape.org/namespaces/inkscape"
   xmlns:sodipodi="http://sodipodi.sourceforge.net/DTD/sodipodi-0.dtd"
   xmlns:xlink="http://www.w3.org/1999/xlink"
   xmlns="http://www.w3.org/2000/svg"
   xmlns:svg="http://www.w3.org/2000/svg"><sodipodi:namedview
     id="namedview30009"
     pagecolor="#c1c1c1"
     bordercolor="#666666"
     borderopacity="1.0"
     inkscape:showpageshadow="2"
     inkscape:pageopacity="0"
     inkscape:pagecheckerboard="true"
     inkscape:deskcolor="#7b7b7b"
     inkscape:document-units="mm"
     showgrid="false"
     inkscape:zoom="6.5046699"
     inkscape:cx="94.316854"
     inkscape:cy="54.191835"
     inkscape:window-width="1916"
     inkscape:window-height="1036"
     inkscape:window-x="0"
     inkscape:window-y="20"
     inkscape:window-maximized="1"
     inkscape:current-layer="layer1" /><defs
     id="defs30004"><linearGradient
       id="linearGradient16167"
       inkscape:swatch="solid"><stop
         style="stop-color:#000000;stop-opacity:1;"
         offset="0"
         id="stop16165" /></linearGradient><linearGradient
       id="ink"
       inkscape:swatch="solid"><stop
         style="stop-opacity:1;"
         offset="0"
         id="stop53636" /></linearGradient><linearGradient
       inkscape:collect="always"
       xlink:href="#linearGradient10125"
       id="linearGradient10127"
       x1="51.504749"
       y1="89.924805"
       x2="58.720779"
       y2="89.924805"
       gradientUnits="userSpaceOnUse" /><linearGradient
       id="linearGradient10125"
       inkscape:swatch="solid"><stop
         style="stop-color:#ffffff;stop-opacity:1;"
         offset="0"
         id="stop10123" /></linearGradient><linearGradient
       inkscape:collect="always"
       xlink:href="#linearGradient10125"
       id="linearGradient10133"
       x1="55.063797"
       y1="96.669746"
       x2="60.028255"
       y2="96.669746"
       gradientUnits="userSpaceOnUse" /><linearGradient
       inkscape:collect="always"
       xlink:href="#linearGradient10125"
       id="linearGradient10139"
       x1="60.416283"
       y1="97.939865"
       x2="66.397041"
       y2="97.939865"
       gradientUnits="userSpaceOnUse" /><linearGradient
       inkscape:collect="always"
       xlink:href="#linearGradient10125"
       id="linearGradient10145"
       x1="66.804146"
       y1="98.375351"
       x2="76.603073"
       y2="98.375351"
       gradientUnits="userSpaceOnUse" /><linearGradient
       inkscape:collect="always"
       xlink:href="#ink"
       id="linearGradient16169"
       x1="2.2209733"
       y1="13.778882"
       x2="26.192085"
       y2="13.778882"
       gradientUnits="userSpaceOnUse" /></defs><g
     inkscape:label="Layer 1"
     inkscape:groupmode="layer"
     id="layer1"><path
       class="ink"
       style="fill-opacity:1.0;stroke:none;stroke-width:0.264583px;stroke-linecap:butt;stroke-linejoin:miter;stroke-opacity:1;fill:url(#linearGradient16169)"
       d="m 13.768675,12.960662 1.17206,-0.62059 c 0,0 0.819008,-1.39367 1.151446,-2.128711 0.361769,-0.7998995 0.90477,-1.5928595 0.91209,-2.4707395 0.0053,-0.63815 -0.27085,-1.28138 -0.632984,-1.80686 -0.356488,-0.51728 -0.854842,-0.98776 -1.440336,-1.2155 -0.705798,-0.27453 -2.270023,-0.0931 -2.270023,-0.0931 l -1.508462,2.40269 -3.1367852,0.0973 c 0,0 -1.8799627,0.2126 -2.6532077,0.70139 -0.90109,0.56961 -1.558113,1.50433 -2.0647,2.4422995 -0.598122,1.107451 -1.042796,2.361561 -1.074634,3.619811 -0.02603,1.02863 0.180575,2.12844 0.727735,2.99986 0.521404,0.8304 2.273478,1.86657 2.273478,1.86657 l 0.872112,-0.038 0.487368,-0.92158 3.8310059,-2.41493 2.821838,0.17405 0.05803,1.75484 c 0,0 1.572536,1.27529 2.50877,1.60601 0.405628,0.14329 0.858182,0.21021 1.282819,0.1413 0.541577,-0.0879 0.982154,-0.49374 1.495137,-0.68836 0.90295,-0.34257 1.82126,-0.6758 2.773132,-0.83894 0.36945,-0.0633 1.123336,-0.0514 1.123336,-0.0514 l 0.0763,0.69679 c 0,0 -1.392627,0.2554 -2.083322,0.40985 -0.622469,0.13918 -1.305311,0.14371 -1.856041,0.46548 -0.423602,0.2475 -1.012881,1.06785 -1.012881,1.06785 l 2.011537,2.87336 1.088568,-0.0375 3.024756,-0.71287 c 0,0 1.696092,-1.02565 2.134124,-1.86195 0.438013,-0.83625 0.315328,-2.81446 0.315328,-2.81446 0.05581,-0.49816 -0.555398,-1.39751 -0.555398,-1.39751 l -2.037807,-2.12087 -2.206144,-0.90434 -3.497397,-0.15965 -3.381208,0.31777 -0.666844,0.0994 z"
       id="path9415"
       sodipodi:nodetypes="ccsssscccssssccccccssssccssccccssccccccc" /><g
       id="g10152"
       transform="translate(-45.367425,-73.535235)"><path
         style="fill:url(#linearGradient10127);fill-opacity:1;stroke:none;stroke-width:0.264583px;stroke-linecap:butt;stroke-linejoin:miter;stroke-opacity:1"
         d="m 58.67315,86.148031 c 0,0 -1.68797,0.535897 -2.088963,0.619558 -1.196073,0.249541 -2.704959,-0.1172 -2.704959,-0.1172 l -2.374479,4.819039 c 0,0 1.115158,0.48095 1.308479,0.607874 0.692933,0.454942 0.894055,1.5263 0.894055,1.5263 0,0 1.577211,0.378132 2.286921,0.09797 0.746921,-0.294851 1.231963,-1.057973 1.687412,-1.719331 0.471159,-0.68417 0.867303,-1.452401 1.039162,-2.26514 0.246147,-1.164056 -0.04763,-3.56907 -0.04763,-3.56907 z"
         id="path9423"
         sodipodi:nodetypes="csccscsssc" /><path
         style="fill:url(#linearGradient10133);fill-opacity:1;stroke:none;stroke-width:0.264583px;stroke-linecap:butt;stroke-linejoin:miter;stroke-opacity:1"
         d="m 59.000143,90.933147 0.419354,0.275871 c 0,0 -0.581531,2.604892 -0.780327,3.923408 -0.175426,1.16351 -0.362816,3.511285 -0.362816,3.511285 0,0 0.689114,0.495386 0.968248,0.810377 0.261756,0.295381 0.562288,0.606912 0.645213,0.992772 0.140377,0.65319 -0.30534,1.98093 -0.30534,1.98093 l -4.1706,0.0415 c 0,0 -0.18654,-0.25483 -0.216159,-0.40495 -0.320873,-1.62628 0.307565,-3.115963 0.499959,-4.947688 0.07021,-0.668412 0.09191,-2.561492 0.09191,-2.561492 0,0 0.773129,0.0051 1.090398,-0.182341 0.619905,-0.366279 0.9668,-1.07847 1.339927,-1.694277 0.330248,-0.545038 0.780235,-1.745395 0.780235,-1.745395 z"
         id="path9425"
         sodipodi:nodetypes="ccscssccsscsscc" /><path
         style="fill:url(#linearGradient10139);fill-opacity:1;stroke:none;stroke-width:0.264583px;stroke-linecap:butt;stroke-linejoin:miter;stroke-opacity:1"
         d="m 63.218152,99.469071 c -0.246937,0.346832 -1.101673,0.409909 -1.501296,0.556779 -0.497694,0.18292 -0.787979,0.4773 -1.019125,0.82504 -0.271864,0.40899 -0.143662,1.49869 -0.143662,1.49869 l 0.947922,0.0135 4.051258,-0.004 c 0,0 0.589445,-0.34854 0.706948,-0.64513 0.212009,-0.53514 -0.132276,-1.721738 -0.132276,-1.721738 0,0 -0.382764,-1.445685 -0.638541,-2.241349 -0.188329,-0.585848 -0.399911,-1.354409 -0.399911,-1.354409 L 62.967195,93.55949 c 0,0 -0.669165,0.2644 -0.841732,0.552191 -0.34608,0.57716 -0.30294,1.348771 -0.181629,2.010714 0.165306,0.902006 0.961061,1.589569 1.203048,2.474093 0.07701,0.281486 0.240529,0.634853 0.07127,0.872583 z"
         id="path9427"
         sodipodi:nodetypes="ssscccscsccssss" /><path
         style="fill:url(#linearGradient10145);fill-opacity:1;stroke:none;stroke-width:0.264583px;stroke-linecap:butt;stroke-linejoin:miter;stroke-opacity:1"
         d="m 66.939358,96.879626 0.06101,2.239224 c 0,0 0.05787,0.93675 0.272647,1.33809 0.189048,0.35326 0.465838,0.72901 0.84682,0.85303 0.554221,0.18042 1.213536,-0.16395 1.766001,-0.34968 0.447349,-0.15039 1.210234,-0.59333 1.210234,-0.59333 l 2.168776,-1.819322 0.156332,0.851123 -0.813813,0.669769 c 0,0 -0.626134,0.96256 -0.293541,1.2118 0.798162,0.59812 2.302578,0.37034 3.253672,-0.0444 0.293487,-0.12798 0.617019,-0.73615 0.617019,-0.73615 l 0.283168,-4.121577 c 0,0 -0.499075,-0.500371 -0.831877,-0.670173 C 74.96391,95.365208 73.52618,95.432708 73.52618,95.432708 l -2.856404,2.241502 c 0,0 -0.308813,0.0896 -0.413596,0 -0.543646,-0.464852 -0.33328,-2.119828 -0.33328,-2.119828 0,0 -0.488853,0.390212 -0.757986,0.547357 -0.377827,0.220611 -0.77756,0.409433 -1.192208,0.549036 -0.334354,0.11257 -1.033348,0.228851 -1.033348,0.228851 z"
         id="path9429"
         sodipodi:nodetypes="ccsssccccssccsccscssc" /><path
         style="fill:#ffffff;fill-opacity:1;stroke:none;stroke-width:0.264583px;stroke-linecap:butt;stroke-linejoin:miter;stroke-opacity:1"
         d="m 60.512459,86.321653 c 0,0 -0.382031,0.988655 -0.08562,1.31105 0,0 0.39552,0.62771 0.714097,0.776695 0.384428,0.179781 0.855879,0.145182 1.27173,0.06048 0.441515,-0.08993 0.897037,-0.270506 1.217531,-0.587219 0.452149,-0.446815 0.848767,-1.707729 0.848767,-1.707729 l 0.701937,-1.552734 1.201309,0.997707 c 0,0 -0.312251,1.391736 -0.162465,2.066142 0.09467,0.426255 0.282044,0.898179 0.645843,1.139647 0.60122,0.399054 1.456683,0.451919 2.150073,0.252122 0.640418,-0.184534 1.263913,-0.655472 1.557432,-1.253832 0.2957,-0.602806 0.03852,-2.01391 0.03852,-2.01391 0,0 -0.2453,-0.481058 -0.759845,-0.644128 -0.114422,-0.03626 -1.010766,-0.102446 -1.010766,-0.102446 0,0 -0.959161,-1.715042 -1.625782,-2.343533 -0.409825,-0.386384 -0.80431,-0.856615 -1.340697,-1.028483 -0.544013,-0.174312 -1.180078,-0.147727 -1.712769,0.05861 -0.651704,0.252436 -1.59698,1.358543 -1.59698,1.358543 l -1.225545,1.700729 z"
         id="path9431"
         sodipodi:nodetypes="csssscccsssscscsssccc" /></g></g></svg>
