<?xml version="1.0" encoding="UTF-8" standalone="no"?>
<!-- Created with Inkscape (http://www.inkscape.org/) -->

<svg
   width="256"
   height="256"
   viewBox="0 0 67.733333 67.733333"
   version="1.1"
   id="svg10197"
   inkscape:version="1.2.1 (9c6d41e410, 2022-07-14, custom)"
   sodipodi:docname="s3_triple_inkstrike.svg"
   xml:space="preserve"
   xmlns:inkscape="http://www.inkscape.org/namespaces/inkscape"
   xmlns:sodipodi="http://sodipodi.sourceforge.net/DTD/sodipodi-0.dtd"
   xmlns:xlink="http://www.w3.org/1999/xlink"
   xmlns="http://www.w3.org/2000/svg"
   xmlns:svg="http://www.w3.org/2000/svg"><sodipodi:namedview
     id="namedview10199"
     pagecolor="#505050"
     bordercolor="#eeeeee"
     borderopacity="1"
     inkscape:showpageshadow="0"
     inkscape:pageopacity="0"
     inkscape:pagecheckerboard="0"
     inkscape:deskcolor="#505050"
     inkscape:document-units="mm"
     showgrid="false"
     inkscape:zoom="1.2196353"
     inkscape:cx="-180.79175"
     inkscape:cy="101.25978"
     inkscape:window-width="1916"
     inkscape:window-height="1036"
     inkscape:window-x="0"
     inkscape:window-y="20"
     inkscape:window-maximized="1"
     inkscape:current-layer="layer1" /><defs
     id="defs10194"><linearGradient
       id="linearGradient18948"
       inkscape:swatch="solid"><stop
         style="stop-color:#000000;stop-opacity:1;"
         offset="0"
         id="stop18946" /></linearGradient><linearGradient
       id="linearGradient18928"
       inkscape:swatch="solid"><stop
         style="stop-color:#000000;stop-opacity:1;"
         offset="0"
         id="stop18926" /></linearGradient><linearGradient
       id="ink"
       inkscape:swatch="solid"><stop
         style="stop-opacity:1;"
         offset="0"
         id="stop53636" /></linearGradient><linearGradient
       inkscape:collect="always"
       xlink:href="#ink"
       id="linearGradient18930"
       x1="28.10602"
       y1="55.51223"
       x2="39.627312"
       y2="55.51223"
       gradientUnits="userSpaceOnUse" /><linearGradient
       inkscape:collect="always"
       xlink:href="#ink"
       id="linearGradient18932"
       x1="35.623554"
       y1="48.562279"
       x2="39.049229"
       y2="48.562279"
       gradientUnits="userSpaceOnUse" /><linearGradient
       inkscape:collect="always"
       xlink:href="#ink"
       id="linearGradient18934"
       x1="-7.1042209"
       y1="59.276192"
       x2="5.0622249"
       y2="59.276192"
       gradientUnits="userSpaceOnUse" /><linearGradient
       inkscape:collect="always"
       xlink:href="#ink"
       id="linearGradient18936"
       x1="46.621391"
       y1="36.868874"
       x2="51.408268"
       y2="36.868874"
       gradientUnits="userSpaceOnUse" /><linearGradient
       inkscape:collect="always"
       xlink:href="#ink"
       id="linearGradient18938"
       x1="48.310184"
       y1="33.283581"
       x2="63.841923"
       y2="33.283581"
       gradientUnits="userSpaceOnUse" /><linearGradient
       inkscape:collect="always"
       xlink:href="#ink"
       id="linearGradient18940"
       x1="14.221541"
       y1="22.716436"
       x2="31.557718"
       y2="22.716436"
       gradientUnits="userSpaceOnUse" /><linearGradient
       inkscape:collect="always"
       xlink:href="#ink"
       id="linearGradient18942"
       x1="2.4120388"
       y1="38.76012"
       x2="20.150007"
       y2="38.76012"
       gradientUnits="userSpaceOnUse" /><linearGradient
       inkscape:collect="always"
       xlink:href="#ink"
       id="linearGradient18944"
       x1="30.945683"
       y1="11.242174"
       x2="47.59412"
       y2="11.242174"
       gradientUnits="userSpaceOnUse" /><linearGradient
       inkscape:collect="always"
       xlink:href="#ink"
       id="linearGradient18950"
       x1="38.047638"
       y1="50.927521"
       x2="64.688858"
       y2="50.927521"
       gradientUnits="userSpaceOnUse" /></defs><g
     inkscape:label="Layer 1"
     inkscape:groupmode="layer"
     id="layer1"><path
       id="path15653"
       class="ink"
       style="fill-opacity:1.0;stroke:none;stroke-width:0.515745px;stroke-linecap:butt;stroke-linejoin:miter;stroke-opacity:1;fill:url(#linearGradient18950)"
       d="m 60.356868,39.316405 1.194692,1.673942 3.137301,-1.292429 -1.123621,-2.483594 z m -3.675302,2.176952 1.932492,1.524354 1.50648,-0.114423 0.489267,-0.963586 -1.92101,-1.805888 z m -6.838956,3.910364 1.331471,1.75006 2.910639,-1.756921 -1.63283,-2.343497 z m -2.93107,2.931847 2.924323,1.494452 1.116917,-1.610297 -2.983406,-1.476244 z m -2.70384,2.92832 1.318257,2.683958 2.053601,-3.346399 -1.632343,-1.453205 z m -3.84212,7.646991 3.092857,0.715248 0.564862,-1.728911 -2.617663,-0.630122 z m -0.58412,1.074539 -1.733823,2.734775 2.267183,1.920524 1.242664,-3.426027 z" /><path
       class="ink"
       id="rect14685"
       style="fill-opacity:1.0;fill-rule:nonzero;stroke:none;stroke-width:0.243659;stroke-linecap:butt;stroke-linejoin:miter;stroke-dasharray:none;stroke-opacity:1;paint-order:stroke fill markers;fill:url(#linearGradient18942)"
       d="m 8.3644128,30.542441 c -1.9127856,0.0039 -3.785572,0.931443 -4.93584,2.64622 -1.8404288,2.743644 -1.1138161,6.434678 1.6298288,8.275105 l 8.2207224,5.514055 6.870884,-9.753867 -8.447343,-5.665142 C 10.673779,30.868653 9.5120687,30.539537 8.3644128,30.542441 Z" /><path
       class="ink"
       id="path14696"
       style="fill-opacity:1.0;fill-rule:nonzero;stroke:none;stroke-width:0.243659;stroke-linecap:butt;stroke-linejoin:miter;stroke-dasharray:none;stroke-opacity:1;paint-order:stroke fill markers;fill:url(#linearGradient18940)"
       d="m 21.409104,14.231074 c -1.872397,-0.390909 -3.89637,0.128262 -5.376474,1.567977 -2.368174,2.303596 -2.420805,6.065095 -0.11715,8.433252 l 6.902287,7.095325 8.739951,-8.12158 -7.092753,-7.290019 C 23.601123,15.027957 22.532608,14.46565 21.409163,14.231074 Z" /><path
       class="ink"
       id="path14700"
       style="fill-opacity:1.0;fill-rule:nonzero;stroke:none;stroke-width:0.243659;stroke-linecap:butt;stroke-linejoin:miter;stroke-dasharray:none;stroke-opacity:1;paint-order:stroke fill markers;fill:url(#linearGradient18944)"
       d="M 39.097614,2.9038874 C 37.317517,2.2039803 35.235085,2.3756726 33.534147,3.5462909 30.812606,5.4192724 30.128761,9.1184531 32.0018,11.839994 l 5.612123,8.154095 9.980197,-6.537754 -5.767149,-8.37803 C 41.124608,4.0577224 40.16574,3.3238785 39.097673,2.9039069 Z" /><rect
       class="ink"
       style="fill-opacity:1.0;fill-rule:nonzero;stroke:none;stroke-width:0.243659;stroke-linecap:butt;stroke-linejoin:miter;stroke-dasharray:none;stroke-opacity:1;paint-order:stroke fill markers;fill:url(#linearGradient18934)"
       id="rect14704"
       width="12.166446"
       height="8.3864489"
       x="-7.1042209"
       y="55.082966"
       ry="1.6674136"
       transform="rotate(-46.285974)" /><path
       class="ink"
       style="fill-opacity:1.0;stroke:none;stroke-width:0.515745px;stroke-linecap:butt;stroke-linejoin:miter;stroke-opacity:1;fill:url(#linearGradient18936)"
       d="m 46.62139,35.174914 h 4.786878 l -1.396501,3.387921 z"
       id="path14712" /><path
       style="fill-opacity:1.0;stroke:none;stroke-width:0.515745px;stroke-linecap:butt;stroke-linejoin:miter;stroke-opacity:1;fill:url(#linearGradient18932)"
       d="m 35.623556,46.168988 0.0536,4.786583 3.372072,-1.434335 z"
       id="path15625" /><path
       class="ink"
       style="fill-opacity:1.0;stroke:none;stroke-width:0.515745px;stroke-linecap:butt;stroke-linejoin:miter;stroke-opacity:1;fill:url(#linearGradient18938)"
       d="m 48.310186,32.566256 7.080706,-4.958802 1.47147,-0.148339 1.128748,1.617197 2.428739,-0.259058 0.719535,0.661389 2.559069,-0.25214 0.143468,1.34233 -4.7191,4.348504 -6.373842,4.19071 1.141049,-2.309092 0.09336,-1.934462 -1.247127,-1.559674 -3.192564,-0.69523 z"
       id="path15629" /><path
       class="ink"
       style="fill-opacity:1.0;stroke:none;stroke-width:0.515745px;stroke-linecap:butt;stroke-linejoin:miter;stroke-opacity:1;fill:url(#linearGradient18930)"
       d="m 32.956207,47.720125 -4.745709,7.225264 -0.104478,1.475212 1.650081,1.080094 -0.186545,2.435385 0.682539,0.699499 -0.175824,2.565443 1.345994,0.103315 4.206031,-4.846505 3.999017,-6.495825 -2.274084,1.209311 -1.930836,0.150874 -1.596145,-1.200131 -0.790002,-3.170439 z"
       id="path15637" /><g
       id="g16903"
       transform="matrix(1.9492762,0,0,1.9492762,-289.53598,-142.72706)"><path
         id="path16059"
         style="fill:#ffffff;fill-opacity:1;fill-rule:nonzero;stroke:none;stroke-width:0.125;stroke-linecap:butt;stroke-linejoin:miter;stroke-dasharray:none;stroke-opacity:1;paint-order:stroke fill markers"
         d="m 153.29146,90.721594 a 1.7467648,1.7467648 0 0 0 -1.74718,1.746664 1.7467648,1.7467648 0 0 0 1.74718,1.74718 1.7467648,1.7467648 0 0 0 1.74667,-1.74718 1.7467648,1.7467648 0 0 0 -1.74667,-1.746664 z m 0,0.637687 a 1.1092813,1.1092813 0 0 1 1.10898,1.108977 1.1092813,1.1092813 0 0 1 -1.10898,1.109493 1.1092813,1.1092813 0 0 1 -1.10949,-1.109493 1.1092813,1.1092813 0 0 1 1.10949,-1.108977 z" /><path
         id="path16133"
         style="fill:#ffffff;fill-opacity:1;fill-rule:nonzero;stroke:none;stroke-width:0.125;stroke-linecap:butt;stroke-linejoin:miter;stroke-dasharray:none;stroke-opacity:1;paint-order:stroke fill markers"
         d="m 159.35493,82.228137 a 1.7467648,1.7467648 0 0 0 -1.74718,1.746664 1.7467648,1.7467648 0 0 0 1.74718,1.74718 1.7467648,1.7467648 0 0 0 1.74667,-1.74718 1.7467648,1.7467648 0 0 0 -1.74667,-1.746664 z m 0,0.637687 a 1.1092813,1.1092813 0 0 1 1.10898,1.108977 1.1092813,1.1092813 0 0 1 -1.10898,1.109493 1.1092813,1.1092813 0 0 1 -1.10949,-1.109493 1.1092813,1.1092813 0 0 1 1.10949,-1.108977 z" /><path
         id="path16135"
         style="fill:#ffffff;fill-opacity:1;fill-rule:nonzero;stroke:none;stroke-width:0.125;stroke-linecap:butt;stroke-linejoin:miter;stroke-dasharray:none;stroke-opacity:1;paint-order:stroke fill markers"
         d="m 167.8354,76.206405 a 1.7467648,1.7467648 0 0 0 -1.74718,1.746664 1.7467648,1.7467648 0 0 0 1.74718,1.74718 1.7467648,1.7467648 0 0 0 1.74667,-1.74718 1.7467648,1.7467648 0 0 0 -1.74667,-1.746664 z m 0,0.637687 a 1.1092813,1.1092813 0 0 1 1.10898,1.108977 1.1092813,1.1092813 0 0 1 -1.10898,1.109493 1.1092813,1.1092813 0 0 1 -1.10949,-1.109493 1.1092813,1.1092813 0 0 1 1.10949,-1.108977 z" /><rect
         style="fill:#ffffff;fill-opacity:1;fill-rule:nonzero;stroke:none;stroke-width:0.125;stroke-linecap:butt;stroke-linejoin:miter;stroke-dasharray:none;stroke-opacity:1;paint-order:stroke fill markers"
         id="rect16189"
         width="7.8194733"
         height="5.4093585"
         x="184.33998"
         y="-9.5299349"
         ry="0"
         transform="rotate(33.250664)" /><rect
         style="fill:#ffffff;fill-opacity:1;fill-rule:nonzero;stroke:none;stroke-width:0.125;stroke-linecap:butt;stroke-linejoin:miter;stroke-dasharray:none;stroke-opacity:1;paint-order:stroke fill markers"
         id="rect16743"
         width="7.8194733"
         height="5.4093585"
         x="184.33998"
         y="-9.5299349"
         ry="0"
         transform="rotate(33.250664)" /><rect
         style="fill:#ffffff;fill-opacity:1;fill-rule:nonzero;stroke:none;stroke-width:0.125;stroke-linecap:butt;stroke-linejoin:miter;stroke-dasharray:none;stroke-opacity:1;paint-order:stroke fill markers"
         id="rect16745"
         width="7.8194733"
         height="5.4093585"
         x="175.46986"
         y="-62.643074"
         ry="0"
         transform="rotate(47.115075)" /><rect
         style="fill:#ffffff;fill-opacity:1;fill-rule:nonzero;stroke:none;stroke-width:0.125;stroke-linecap:butt;stroke-linejoin:miter;stroke-dasharray:none;stroke-opacity:1;paint-order:stroke fill markers"
         id="rect16747"
         width="7.8194733"
         height="5.4093585"
         x="162.85062"
         y="-99.947998"
         ry="0"
         transform="rotate(56.56831)" /><path
         style="fill:#35bfc1;fill-opacity:1;stroke:none;stroke-width:0.264583px;stroke-linecap:butt;stroke-linejoin:miter;stroke-opacity:1"
         d="m 166.45142,103.86487 3.3347,0.54118 0.45535,-0.43341 -0.90003,-0.17657 -0.40009,-0.33144 0.80316,-1.00562 1.19825,0.25733 0.14199,-0.33182 -1.93306,-2.686418 z"
         id="path16749" /><path
         style="fill:#35bfc1;fill-opacity:1;stroke:none;stroke-width:0.264583px;stroke-linecap:butt;stroke-linejoin:miter;stroke-opacity:1"
         d="m 169.79539,97.819342 3.15326,1.212461 0.53444,-0.331001 -0.84481,-0.357101 -0.32376,-0.406334 0.99204,-0.819878 1.12018,0.497207 0.20692,-0.295719 -1.34209,-3.025284 z"
         id="path16889" /><path
         style="fill:#35bfc1;fill-opacity:1;stroke:none;stroke-width:0.264583px;stroke-linecap:butt;stroke-linejoin:miter;stroke-opacity:1"
         d="m 175.15166,93.852056 2.82152,1.858004 0.5928,-0.209208 -0.74903,-0.529308 -0.2295,-0.46611 1.14427,-0.589061 0.98812,0.724998 0.26531,-0.244697 -0.66493,-3.242132 z"
         id="path16891" /></g></g></svg>
