<?xml version="1.0" encoding="UTF-8" standalone="no"?>
<!-- Created with Inkscape (http://www.inkscape.org/) -->

<svg
   width="256"
   height="256"
   viewBox="0 0 67.733333 67.733333"
   version="1.1"
   id="svg12964"
   inkscape:version="1.2.1 (9c6d41e410, 2022-07-14, custom)"
   sodipodi:docname="s3_trizooka.svg"
   xml:space="preserve"
   xmlns:inkscape="http://www.inkscape.org/namespaces/inkscape"
   xmlns:sodipodi="http://sodipodi.sourceforge.net/DTD/sodipodi-0.dtd"
   xmlns:xlink="http://www.w3.org/1999/xlink"
   xmlns="http://www.w3.org/2000/svg"
   xmlns:svg="http://www.w3.org/2000/svg"><sodipodi:namedview
     id="namedview12966"
     pagecolor="#505050"
     bordercolor="#eeeeee"
     borderopacity="1"
     inkscape:showpageshadow="0"
     inkscape:pageopacity="0"
     inkscape:pagecheckerboard="0"
     inkscape:deskcolor="#505050"
     inkscape:document-units="mm"
     showgrid="false"
     inkscape:zoom="5.5176301"
     inkscape:cx="67.510868"
     inkscape:cy="115.17626"
     inkscape:window-width="1916"
     inkscape:window-height="1036"
     inkscape:window-x="0"
     inkscape:window-y="20"
     inkscape:window-maximized="1"
     inkscape:current-layer="layer1" /><defs
     id="defs12961"><linearGradient
       id="linearGradient19500"
       inkscape:swatch="solid"><stop
         style="stop-color:#000000;stop-opacity:1;"
         offset="0"
         id="stop19498" /></linearGradient><linearGradient
       id="ink"
       inkscape:swatch="solid"><stop
         style="stop-opacity:1;"
         offset="0"
         id="stop53636" /></linearGradient><linearGradient
       inkscape:collect="always"
       xlink:href="#linearGradient2869"
       id="linearGradient8489"
       gradientUnits="userSpaceOnUse"
       x1="53.074783"
       y1="127.16794"
       x2="70.09037"
       y2="127.16794"
       gradientTransform="matrix(1.9641612,0,0,1.9641612,-88.47894,-212.36034)" /><linearGradient
       id="linearGradient2869"
       inkscape:swatch="solid"><stop
         style="stop-color:#ffffff;stop-opacity:1;"
         offset="0"
         id="stop2867" /></linearGradient><linearGradient
       inkscape:collect="always"
       xlink:href="#linearGradient2869"
       id="linearGradient14247"
       gradientUnits="userSpaceOnUse"
       x1="53.074783"
       y1="127.16794"
       x2="70.09037"
       y2="127.16794"
       gradientTransform="matrix(2.1622956,0,0,2.1622956,-100.41218,-236.70663)" /><linearGradient
       inkscape:collect="always"
       xlink:href="#linearGradient2869"
       id="linearGradient14245"
       gradientUnits="userSpaceOnUse"
       x1="53.074783"
       y1="127.16794"
       x2="70.09037"
       y2="127.16794"
       gradientTransform="matrix(2.1183667,0,0,2.1183667,-98.199685,-231.90177)" /><linearGradient
       inkscape:collect="always"
       xlink:href="#linearGradient2869"
       id="linearGradient13183"
       gradientUnits="userSpaceOnUse"
       gradientTransform="matrix(1.9641612,0,0,1.9641612,-88.47894,-212.36034)"
       x1="53.074783"
       y1="127.16794"
       x2="70.09037"
       y2="127.16794" /><linearGradient
       inkscape:collect="always"
       xlink:href="#linearGradient2869"
       id="linearGradient13185"
       gradientUnits="userSpaceOnUse"
       gradientTransform="matrix(1.9641612,0,0,1.9641612,-88.47894,-212.36034)"
       x1="53.074783"
       y1="127.16794"
       x2="70.09037"
       y2="127.16794" /><linearGradient
       inkscape:collect="always"
       xlink:href="#linearGradient2869"
       id="linearGradient13187"
       gradientUnits="userSpaceOnUse"
       gradientTransform="matrix(1.9641612,0,0,1.9641612,-88.47894,-212.36034)"
       x1="53.074783"
       y1="127.16794"
       x2="70.09037"
       y2="127.16794" /><linearGradient
       inkscape:collect="always"
       xlink:href="#ink"
       id="linearGradient19502"
       x1="0.73169273"
       y1="31.453766"
       x2="65.006699"
       y2="31.453766"
       gradientUnits="userSpaceOnUse" /></defs><g
     inkscape:label="Layer 1"
     inkscape:groupmode="layer"
     id="layer1"><path
       id="rect5837"
       class="ink"
       style="fill-opacity:1.0;stroke:none;stroke-width:0.245521;paint-order:stroke fill markers;fill:url(#linearGradient19502)"
       d="m 5.3528452,19.882015 1.8968791,2.12911 -3.3235072,6.899769 -3.19452439,-0.430654 z m 38.5832148,20.495163 4.742078,-1.880803 1.960374,4.942773 -4.742066,1.880762 z m 5.862909,-3.836342 9.963426,-3.802065 c 1.854613,-0.707668 3.917408,0.215607 4.625116,2.070185 l 0.381183,0.998916 c 0.707708,1.854599 -0.2156,3.91742 -2.070198,4.625127 l -9.963423,3.802065 c -1.854617,0.707669 -3.917417,-0.215605 -4.625129,-2.070186 L 47.72877,41.165964 c -0.707721,-1.854599 0.215586,-3.917401 2.070193,-4.625146 z m -11.787151,-2.491776 4.353706,-2.658943 2.771444,4.537961 -4.353705,2.658904 z m 5.126093,-4.776446 9.172846,-5.439154 c 1.707462,-1.012407 3.897105,-0.452917 4.909541,1.25451 l 0.545312,0.919638 c 1.012441,1.707447 0.452928,3.897133 -1.254514,4.909561 l -9.172843,5.439153 c -1.707466,1.012409 -3.897117,0.452919 -4.909555,-1.254508 l -0.545303,-0.919639 c -1.012447,-1.707448 -0.452936,-3.897114 1.254507,-4.909579 z m -12.94478,0.332098 4.12123,-3.006671 3.133911,4.295636 -4.121232,3.006671 z m 4.71754,-5.180326 8.696396,-6.172374 c 1.618781,-1.148899 3.846896,-0.770686 4.995817,0.848059 l 0.618822,0.871877 c 1.14892,1.618745 0.770686,3.846893 -0.848071,4.995824 l -8.696393,6.172372 c -1.618781,1.148898 -3.846909,0.770673 -4.995831,-0.848073 l -0.61881,-0.871862 C 32.913669,27.801449 33.291904,25.5733 34.91066,24.42437 Z" /><path
       style="fill:url(#linearGradient13183);fill-opacity:1;stroke:none;stroke-width:0.519684px;stroke-linecap:butt;stroke-linejoin:miter;stroke-opacity:1"
       d="m 18.348409,28.128586 2.582278,1.332998 -2.229836,4.319642 -2.58228,-1.332978 z"
       id="path14231" /><path
       style="fill:url(#linearGradient13185);fill-opacity:1;stroke:none;stroke-width:0.519684px;stroke-linecap:butt;stroke-linejoin:miter;stroke-opacity:1"
       d="m 21.405079,35.245606 3.321713,1.352601 1.682071,0.862129 -0.235731,2.267564 0.928232,0.289479 -0.03269,0.841702 -0.430267,0.405737 0.108987,1.066245 0.382846,1.444502 2.007192,-0.717783 7.326079,1.904275 9.599375,4.732292 2.625419,-5.152053 c 0,0 -2.380409,0.80458 -3.61297,1.021874 -1.154329,0.203506 -2.348197,0.434453 -3.506929,0.257757 C 40.758496,45.698381 39.9362,45.41295 39.28231,44.919356 38.822414,44.57219 38.231196,43.546996 38.231196,43.546996 L 30.173714,40.776842 29.592446,35.1528 27.757638,34.417948 26.102933,33.074344 25.466859,31.260873 23.802872,30.32499 Z"
       id="path14229"
       sodipodi:nodetypes="cccccccccccccssscccccccc" /><path
       style="fill:url(#linearGradient14247);fill-opacity:1;stroke:none;stroke-width:0.572107px;stroke-linecap:butt;stroke-linejoin:miter;stroke-opacity:1"
       d="m 33.045465,25.180282 c 0,0 -2.635603,-1.078737 -3.758282,-0.498543 -1.327378,0.685964 -1.728711,2.515717 -2.089521,3.965641 -0.317082,1.274231 -0.5835,2.757428 -0.01121,3.939224 0.296316,0.611896 0.939714,1.114209 1.60373,1.260128 0.497159,0.109211 1.485672,-0.353138 1.485672,-0.353138 l 2.005906,-0.983612 -1.237908,-1.773206 c 0,0 -1.062502,0.978565 -1.576447,0.715977 -0.464181,-0.237153 -0.318932,-1.011464 -0.310364,-1.532655 0.0081,-0.484264 0.185219,-0.953247 0.335021,-1.413823 0.173101,-0.532209 0.166404,-1.263722 0.647973,-1.548859 0.589604,-0.349111 2.044209,0.216235 2.044209,0.216235 z"
       id="path14227"
       sodipodi:nodetypes="csssscccsssscc" /><path
       style="fill:url(#linearGradient14245);fill-opacity:1;stroke:none;stroke-width:0.560483px;stroke-linecap:butt;stroke-linejoin:miter;stroke-opacity:1"
       d="m 30.955974,34.182602 2.019258,-1.103662 0.265573,3.618103 1.63893,0.165579 2.476334,-0.230259 1.710952,-1.220352 1.174196,1.698017 -2.973223,2.013559 c 0,0 -2.099756,0.948278 -3.207261,0.886879 -0.879761,-0.04871 -1.760185,-0.43901 -2.454222,-0.981846 -0.527515,-0.412591 -0.877307,-1.044757 -0.941229,-1.711393 -0.103134,-1.075614 0.290692,-3.134625 0.290692,-3.134625 z"
       id="path14225"
       sodipodi:nodetypes="ccccccccsssc" /><path
       style="fill:url(#linearGradient13187);fill-opacity:1;stroke:none;stroke-width:0.519684px;stroke-linecap:butt;stroke-linejoin:miter;stroke-opacity:1"
       d="m 41.184482,38.820007 1.581872,-1.615719 c 0,0 0.755476,0.633736 0.878552,0.661019 0.123076,0.0273 1.630727,-0.287495 1.630727,-0.287495 l 2.251923,-0.126688 -0.813784,1.603816 -3.894187,1.934228 z"
       id="path14223" /><path
       style="fill:url(#linearGradient8489);fill-opacity:1;stroke:none;stroke-width:0.519684px;stroke-linecap:butt;stroke-linejoin:miter;stroke-opacity:1"
       d="m 39.457768,38.443909 c 0,0 0.898921,1.517472 1.702024,2.412539 0.215157,0.239786 0.860513,1.135777 1.777262,1.077245 0.419651,-0.02671 1.362317,-0.506695 1.362317,-0.506695 l 0.33647,0.900608 1.069678,2.510905 c 0,0 -1.647025,0.379574 -2.483847,0.366669 -1.264634,-0.01964 -2.613647,-0.600463 -3.605179,-1.219842 -0.47281,-0.295332 -0.939516,-1.184664 -1.326169,-1.683738 -0.596251,-0.769617 -1.488237,-2.172185 -1.488237,-2.172185 z"
       id="path11565"
       sodipodi:nodetypes="csscccssscc" /><path
       style="fill:#35bfc1;fill-opacity:1;stroke:none;stroke-width:0.519684px;stroke-linecap:butt;stroke-linejoin:miter;stroke-opacity:1"
       d="m 17.301787,27.208279 -2.789431,-1.259793 0.216538,-1.686941 -1.431146,-0.628845 -0.382551,-1.094587 0.562826,-1.824589 c 0.249662,-0.809372 -2.095233,-1.43755 -2.095233,-1.43755 l -3.6234578,0.02258 -5.6096015,11.895571 1.973517,1.816534 1.7373775,0.974754 1.9443974,0.278557 0.6310374,-1.673387 1.726773,-0.01768 1.064833,-1.631667 3.437839,1.66822 z"
       id="path14243"
       sodipodi:nodetypes="ccccccccccccccccc" /><path
       style="fill:#35bfc1;fill-opacity:1;stroke:none;stroke-width:0.519684px;stroke-linecap:butt;stroke-linejoin:miter;stroke-opacity:1"
       d="m 23.415017,28.127624 c 1.195926,0.620852 1.658897,2.083444 1.038053,3.279384 l -2.046784,3.9427 c -0.620841,1.195918 -2.083436,1.65889 -3.279362,1.038058 -1.195927,-0.620852 -1.658898,-2.083444 -1.038054,-3.279363 l 2.046783,-3.94272 c 0.620842,-1.195919 2.083438,-1.658891 3.279364,-1.038059 z"
       id="path14241" /><path
       style="fill:#35bfc1;fill-opacity:1;stroke:none;stroke-width:0.519684px;stroke-linecap:butt;stroke-linejoin:miter;stroke-opacity:1"
       d="m 26.712692,42.67758 2.407698,0.645129 -1.252439,4.674173 -2.839706,-0.760897 z"
       id="path14239" /><path
       style="fill:#35bfc1;fill-opacity:1;stroke:none;stroke-width:0.519684px;stroke-linecap:butt;stroke-linejoin:miter;stroke-opacity:1"
       d="m 29.920615,37.410977 -1.521636,2.635549 0.748898,1.297114 v 1.79811 l 5.637789,2.321265 0.280224,1.045819 h 1.383066 l 1.882916,-3.261314 -1.531941,-2.653404 -0.784296,0.452818 h -3.013499 l -1.819935,-1.050748 z"
       id="path14237" /><path
       style="fill:#35bfc1;fill-opacity:1;stroke:none;stroke-width:0.592252px;stroke-linecap:butt;stroke-linejoin:miter;stroke-opacity:1"
       d="m 33.924217,32.968731 v 2.982009 h 1.408005 l 2.336605,-1.349024 1.144797,-1.144812 -1.778518,-1.026825 H 34.73368 Z"
       id="path14235" /><path
       style="fill:#35bfc1;fill-opacity:1;stroke:none;stroke-width:0.519684px;stroke-linecap:butt;stroke-linejoin:miter;stroke-opacity:1"
       d="m 48.270025,44.182894 -2.201446,4.798288 v 1.69397 l 1.047807,0.604943 2.913262,-6.393933 z"
       id="path9345" /></g></svg>
