<?xml version="1.0" encoding="UTF-8" standalone="no"?>
<!-- Created with Inkscape (http://www.inkscape.org/) -->

<svg
   width="256"
   height="256"
   viewBox="0 0 67.733332 67.733333"
   version="1.1"
   id="svg14099"
   inkscape:version="1.2.1 (9c6d41e410, 2022-07-14, custom)"
   sodipodi:docname="s3_ultra_stamp.svg"
   xml:space="preserve"
   xmlns:inkscape="http://www.inkscape.org/namespaces/inkscape"
   xmlns:sodipodi="http://sodipodi.sourceforge.net/DTD/sodipodi-0.dtd"
   xmlns:xlink="http://www.w3.org/1999/xlink"
   xmlns="http://www.w3.org/2000/svg"
   xmlns:svg="http://www.w3.org/2000/svg"><sodipodi:namedview
     id="namedview14101"
     pagecolor="#505050"
     bordercolor="#eeeeee"
     borderopacity="1"
     inkscape:showpageshadow="0"
     inkscape:pageopacity="0"
     inkscape:pagecheckerboard="0"
     inkscape:deskcolor="#505050"
     inkscape:document-units="mm"
     showgrid="false"
     inkscape:zoom="4.161656"
     inkscape:cx="86.383881"
     inkscape:cy="105.12642"
     inkscape:window-width="1916"
     inkscape:window-height="1036"
     inkscape:window-x="0"
     inkscape:window-y="20"
     inkscape:window-maximized="1"
     inkscape:current-layer="layer1" /><defs
     id="defs14096"><linearGradient
       id="linearGradient20031"
       inkscape:swatch="solid"><stop
         style="stop-color:#000000;stop-opacity:1;"
         offset="0"
         id="stop20029" /></linearGradient><linearGradient
       id="ink"
       inkscape:swatch="solid"><stop
         style="stop-opacity:1;"
         offset="0"
         id="stop53636" /></linearGradient><linearGradient
       inkscape:collect="always"
       xlink:href="#linearGradient2869"
       id="linearGradient13875"
       x1="119.14357"
       y1="122.90429"
       x2="144.15195"
       y2="122.90429"
       gradientUnits="userSpaceOnUse"
       gradientTransform="matrix(2.0136961,0,0,2.0136961,-230.80308,-218.73348)" /><linearGradient
       id="linearGradient2869"
       inkscape:swatch="solid"><stop
         style="stop-color:#ffffff;stop-opacity:1;"
         offset="0"
         id="stop2867" /></linearGradient><linearGradient
       inkscape:collect="always"
       xlink:href="#ink"
       id="linearGradient20033"
       x1="83.607811"
       y1="121.29756"
       x2="108.01814"
       y2="121.29756"
       gradientUnits="userSpaceOnUse" /></defs><g
     inkscape:label="Layer 1"
     inkscape:groupmode="layer"
     id="layer1"><g
       id="g12587"
       transform="matrix(2.0136961,0,0,2.0136961,-161.69993,-218.73348)"
       inkscape:label="g12587"
       style="fill-opacity:1.0;fill:url(#linearGradient20033)"><ellipse
         class="ink"
         style="fill-opacity:1.0;stroke:none;stroke-width:0.125;stroke-linecap:butt;stroke-linejoin:miter;stroke-dasharray:none;stroke-opacity:1;paint-order:stroke fill markers;fill:url(#linearGradient20033)"
         id="path11948"
         cx="147.49844"
         cy="32.637222"
         rx="7.6682687"
         ry="11.690689"
         transform="rotate(39.473323)" /><path
         class="ink"
         id="path11956"
         style="fill-opacity:1.0;stroke:none;stroke-width:0.125;stroke-linecap:butt;stroke-linejoin:miter;stroke-dasharray:none;stroke-opacity:1;paint-order:stroke fill markers;fill:url(#linearGradient20033)"
         d="m 105.42539,115.47312 c 0.85771,2.96408 0.86393,5.70897 -2.38606,9.74211 -3.975278,4.92992 -9.242726,7.48967 -12.180129,5.91902 0.237144,0.82094 0.65476,1.48025 1.234031,1.9482 2.750507,2.21654 8.440658,-0.28057 12.709298,-5.57744 4.26869,-5.29678 3.90083,-9.47464 1.15048,-11.69134 0,0 -0.33998,-0.24272 -0.52762,-0.34055 z"
         sodipodi:nodetypes="ccccccc" /><path
         class="ink"
         style="fill-opacity:1.0;stroke:none;stroke-width:0.264583px;stroke-linecap:butt;stroke-linejoin:miter;stroke-opacity:1;fill:url(#linearGradient20033)"
         d="m 88.884031,130.61378 c 0,0 2.189302,-0.24448 3.210436,-0.62677 2.097807,-0.78537 4.12433,-1.89607 5.819539,-3.36026 1.945259,-1.68017 3.628094,-3.75134 4.786284,-6.04603 0.64029,-1.26859 1.11745,-4.11401 1.11745,-4.11401 l 0.009,-3.03479 1.27284,0.95175 0.49669,1.44696 1.34961,6.60601 -6.998984,7.08493 -7.142676,2.93794 -1.65925,-0.6012 z"
         id="path12160"
         sodipodi:nodetypes="csssccccccccc" /></g><path
       style="fill:#35bfc1;fill-opacity:1;stroke:none;stroke-width:0.53279px;stroke-linecap:butt;stroke-linejoin:miter;stroke-opacity:1"
       d="m 34.455009,47.963948 5.05404,1.530429 -4.813564,5.005546 -3.629345,-0.512124 -6.620932,11.473073 -1.703885,1.333994 -2.797691,-1.147323 0.0598,-2.222175 5.452804,-11.510951 -0.262163,-1.212185 -1.240153,-0.992328 0.03625,-1.498856 1.915528,0.759788 4.639838,0.25274 z"
       id="path13866"
       sodipodi:nodetypes="ccccccccccccccc" /><path
       id="path13868"
       style="fill:url(#linearGradient13875);fill-opacity:1;stroke:none;stroke-width:0.53279px;stroke-linecap:butt;stroke-linejoin:miter;stroke-opacity:1"
       d="m 35.309642,48.209237 11.844571,3.624753 5.361224,-4.691166 5.034724,-8.776332 1.924954,-4.071291 -0.271568,-2.407575 -4.539858,-5.654197 -1.120098,3.359147 -2.544386,6.201339 -4.735428,4.918694 -5.251619,4.402484 -4.481109,2.511077 -2.07604,0.337778 z M 9.1158843,28.192936 9.3831226,29.909249 12.44664,27.541989 12.299035,25.987537 Z m 3.8199007,0.658016 -3.1780545,2.371188 0.135119,1.219997 4.3384685,-2.878216 z m 17.263539,-1.443317 0.677407,3.501435 1.67312,-1.681214 -0.631375,-2.901252 z m -4.125982,2.580975 1.252619,3.793722 1.864924,-1.344524 -1.256929,-3.513357 z m -4.181823,-3.760577 -2.052722,2.218892 -2.387217,1.518407 -1.419213,-0.03343 -5.71789,4.049785 0.781093,1.243176 9.023594,-6.60142 0.737114,-0.02195 2.188101,7.452045 2.002501,-1.003948 -1.606909,-5.01362 -1.053144,-0.244423 -0.474709,-0.606445 z m 4.467847,-3.070242 0.48653,0.958358 1.917481,-0.697505 0.333771,-1.245933 z m -1.800244,1.436712 0.707231,1.283509 2.338545,-0.144181 1.852298,-1.492229 0.882684,-0.97481 0.125456,-1.890519 1.565347,-0.03765 -0.01009,2.225759 -2.08784,2.072798 -2.583652,1.667098 -3.235949,0.03685 -0.310191,-1.751815 z m -5.852827,-1.646963 -0.335403,1.028919 0.596116,0.652235 1.52179,-0.940416 -0.149618,-1.285443 -1.444444,0.142973 z m 0.04552,-1.353808 -1.609727,1.057735 -0.519716,1.341524 0.468003,1.329221 1.032482,0.411479 1.335464,-0.159486 1.497061,-1.203928 0.542994,-0.244624 -0.811379,1.698634 -2.587982,1.877469 -2.324469,0.137133 -1.534558,-0.93208 0.09989,-1.679442 0.857914,-1.822698 0.722454,-1.570662 1.816414,-0.728192 z m 1.831699,-1.255538 2.628094,3.413093 16.189284,-7.971638 1.039993,1.722254 1.443436,-4.302745 -0.723519,-5.0270922 -0.957997,-1.7087426 -3.446875,0.1397509 0.829843,2.2006884 z m -7.061025,-2.958101 2.807695,-1.716997 1.203265,3.345735 2.182222,0.695611 8.274519,-5.720045 -1.624555,-4.9487785 3.123685,-2.4493186 -3.190539,-0.9034851 -2.863778,1.7180255 -5.230718,4.0120067 -3.035827,3.427674 z"
       sodipodi:nodetypes="cccccccccccccccccccccccccccccccccccccccccccccccccccccccccccccccccccccccccccccccccccccccccccccccccccccccccccccccc" /></g></svg>
