<?xml version="1.0" encoding="UTF-8" standalone="no"?>
<!-- Created with Inkscape (http://www.inkscape.org/) -->

<svg
   width="256"
   height="256"
   viewBox="0 0 67.733332 67.733333"
   version="1.1"
   id="svg4889"
   xml:space="preserve"
   inkscape:version="1.2.1 (9c6d41e410, 2022-07-14, custom)"
   sodipodi:docname="s3_suction_bomb_rush.svg"
   inkscape:export-filename="suction_bomb_rush.png"
   inkscape:export-xdpi="96"
   inkscape:export-ydpi="96"
   xmlns:inkscape="http://www.inkscape.org/namespaces/inkscape"
   xmlns:sodipodi="http://sodipodi.sourceforge.net/DTD/sodipodi-0.dtd"
   xmlns:xlink="http://www.w3.org/1999/xlink"
   xmlns="http://www.w3.org/2000/svg"
   xmlns:svg="http://www.w3.org/2000/svg"><sodipodi:namedview
     id="namedview4891"
     pagecolor="#505050"
     bordercolor="#eeeeee"
     borderopacity="1"
     inkscape:showpageshadow="0"
     inkscape:pageopacity="0"
     inkscape:pagecheckerboard="0"
     inkscape:deskcolor="#505050"
     inkscape:document-units="mm"
     showgrid="false"
     inkscape:zoom="2.2029467"
     inkscape:cx="0.68090617"
     inkscape:cy="262.60281"
     inkscape:window-width="1916"
     inkscape:window-height="1036"
     inkscape:window-x="0"
     inkscape:window-y="20"
     inkscape:window-maximized="1"
     inkscape:current-layer="layer1" /><defs
     id="defs4886"><linearGradient
       id="linearGradient17259"
       inkscape:swatch="solid"><stop
         style="stop-color:#000000;stop-opacity:1;"
         offset="0"
         id="stop17257" /></linearGradient><linearGradient
       id="linearGradient17251"
       inkscape:swatch="solid"><stop
         style="stop-color:#000000;stop-opacity:1;"
         offset="0"
         id="stop17249" /></linearGradient><linearGradient
       id="linearGradient17243"
       inkscape:swatch="solid"><stop
         style="stop-color:#000000;stop-opacity:1;"
         offset="0"
         id="stop17241" /></linearGradient><linearGradient
       id="linearGradient17233"
       inkscape:swatch="solid"><stop
         style="stop-color:#000000;stop-opacity:1;"
         offset="0"
         id="stop17231" /></linearGradient><linearGradient
       id="linearGradient1333"
       inkscape:swatch="solid"><stop
         style="stop-color:#3a0dcd;stop-opacity:1;"
         offset="0"
         id="stop1331" /></linearGradient><linearGradient
       id="linearGradient887"
       inkscape:swatch="solid"><stop
         style="stop-color:#800080;stop-opacity:1;"
         offset="0"
         id="stop885" /></linearGradient><linearGradient
       id="ink"
       inkscape:swatch="solid"><stop
         style="stop-opacity:1;"
         offset="0"
         id="stop53636" /></linearGradient><linearGradient
       inkscape:collect="always"
       xlink:href="#ink"
       id="linearGradient5069"
       gradientUnits="userSpaceOnUse"
       gradientTransform="matrix(2.2665388,0,0,2.2665388,-199.74916,-551.72484)"
       x1="89.13063"
       y1="262.97415"
       x2="90.64566"
       y2="262.97415" /><linearGradient
       inkscape:collect="always"
       xlink:href="#ink"
       id="linearGradient5097"
       gradientUnits="userSpaceOnUse"
       gradientTransform="matrix(2.2665388,0,0,2.2665388,-144.12937,-576.1958)"
       x1="89.13063"
       y1="262.97415"
       x2="90.64566"
       y2="262.97415" /><linearGradient
       inkscape:collect="always"
       xlink:href="#ink"
       id="linearGradient17235"
       x1="26.687302"
       y1="37.736012"
       x2="39.848511"
       y2="37.736012"
       gradientUnits="userSpaceOnUse" /><linearGradient
       inkscape:collect="always"
       xlink:href="#ink"
       id="linearGradient17237"
       x1="52.888763"
       y1="1.1877542"
       x2="66.049973"
       y2="1.1877542"
       gradientUnits="userSpaceOnUse" /><linearGradient
       inkscape:collect="always"
       xlink:href="#ink"
       id="linearGradient17239"
       x1="-2.7310262"
       y1="25.65871"
       x2="10.430182"
       y2="25.65871"
       gradientUnits="userSpaceOnUse" /><linearGradient
       inkscape:collect="always"
       xlink:href="#ink"
       id="linearGradient17245"
       x1="53.161098"
       y1="24.978369"
       x2="65.596939"
       y2="24.978369"
       gradientUnits="userSpaceOnUse" /><linearGradient
       inkscape:collect="always"
       xlink:href="#ink"
       id="linearGradient17247"
       x1="43.514496"
       y1="39.39806"
       x2="55.672962"
       y2="39.39806"
       gradientUnits="userSpaceOnUse" /><linearGradient
       inkscape:collect="always"
       xlink:href="#ink"
       id="linearGradient17253"
       x1="26.959639"
       y1="61.526627"
       x2="39.395481"
       y2="61.526627"
       gradientUnits="userSpaceOnUse" /><linearGradient
       inkscape:collect="always"
       xlink:href="#ink"
       id="linearGradient17255"
       x1="27.027609"
       y1="58.230656"
       x2="39.706825"
       y2="58.230656"
       gradientUnits="userSpaceOnUse" /><linearGradient
       inkscape:collect="always"
       xlink:href="#ink"
       id="linearGradient17261"
       x1="11.16989"
       y1="43.938126"
       x2="23.401539"
       y2="43.938126"
       gradientUnits="userSpaceOnUse" /><linearGradient
       inkscape:collect="always"
       xlink:href="#ink"
       id="linearGradient17263"
       x1="-2.4586895"
       y1="49.449326"
       x2="9.9771538"
       y2="49.449326"
       gradientUnits="userSpaceOnUse" /></defs><g
     inkscape:label="Layer 1"
     inkscape:groupmode="layer"
     id="layer1"><rect
       class="ink"
       style="fill-opacity:1.0;stroke:none;stroke-width:0.600631;stroke-dasharray:none;paint-order:stroke fill markers;fill:url(#linearGradient17235)"
       id="rect6523"
       width="13.161207"
       height="14.017263"
       x="26.687302"
       y="30.727381" /><path
       id="path6591"
       class="ink"
       style="fill-opacity:1.0;stroke:none;stroke-width:0.600631;stroke-dasharray:none;paint-order:stroke fill markers;fill:url(#linearGradient17255)"
       d="m 33.290317,55.951958 c -3.511869,0.0013 -5.932324,1.97488 -6.262708,4.557397 h 12.679218 c -0.330468,-2.583174 -2.903743,-4.556944 -6.41651,-4.557397 z"
       sodipodi:nodetypes="cccc" /><rect
       class="ink"
       style="fill-opacity:1.0;stroke:none;stroke-width:0.600631;stroke-dasharray:none;paint-order:stroke fill markers;fill:url(#linearGradient17253)"
       id="rect7067"
       width="12.435843"
       height="2.1366389"
       x="26.959639"
       y="60.458305" /><path
       id="path7556"
       style="fill:#ffffff;fill-opacity:1;stroke:none;stroke-width:0.226654;stroke-dasharray:none;stroke-opacity:1;paint-order:stroke fill markers"
       d="m 33.250493,55.853567 c -3.589782,-2.2e-5 -6.399871,1.469942 -6.400324,3.448177 -7.03e-4,1.978665 -0.0942,2.591764 0.246239,3.607899 0.918952,0.04896 11.649073,-0.07842 12.642477,-0.08998 0.06988,-1.17554 0.01269,-2.065769 0.01224,-3.384305 -4.53e-4,-1.978212 -2.910773,-3.581743 -6.500529,-3.581743 z m 1.335246,1.201719 c 0.449151,2.95e-4 0.813062,0.359473 0.812858,0.80231 -4.54e-4,0.44236 -0.364183,0.800859 -0.812858,0.801153 -0.449131,3.4e-4 -0.813579,-0.35834 -0.814032,-0.801153 -2.04e-4,-0.44329 0.364425,-0.80265 0.814032,-0.80231 z m -1.919707,0.0621 c 0.449154,2.95e-4 0.813062,0.359474 0.812858,0.80231 2.04e-4,0.442836 -0.363704,0.802037 -0.812858,0.802332 -0.449606,3.4e-4 -0.814233,-0.359042 -0.814029,-0.802332 -2.04e-4,-0.44329 0.364423,-0.80265 0.814029,-0.80231 z m 1.948988,1.989976 c 0.449151,2.95e-4 0.813062,0.359496 0.812858,0.802332 -4.53e-4,0.442361 -0.364183,0.800836 -0.812858,0.801131 -0.449153,3.4e-4 -0.813579,-0.358294 -0.814032,-0.801131 -2.04e-4,-0.443312 0.364403,-0.802672 0.814032,-0.802332 z m -3.86635,0.02584 c 0.449151,2.94e-4 0.813062,0.359473 0.812858,0.802309 2.04e-4,0.442837 -0.363707,0.802038 -0.812858,0.802332 -0.449607,3.4e-4 -0.814236,-0.359042 -0.814032,-0.802332 -2.04e-4,-0.44329 0.364425,-0.802649 0.814032,-0.802309 z m 5.875072,0.0091 c 0.449151,2.95e-4 0.813062,0.359473 0.812858,0.802309 2.04e-4,0.442837 -0.363707,0.802015 -0.812858,0.80231 -0.449606,3.4e-4 -0.814236,-0.35902 -0.814032,-0.80231 -2.04e-4,-0.443289 0.364426,-0.802649 0.814032,-0.802309 z m -3.954196,0.0023 c 0.449153,2.95e-4 0.813064,0.359473 0.81286,0.80231 2.04e-4,0.442836 -0.363707,0.802037 -0.81286,0.802332 -0.449607,3.4e-4 -0.814234,-0.359042 -0.81403,-0.802332 -2.04e-4,-0.44329 0.364423,-0.80265 0.81403,-0.80231 z"
       sodipodi:nodetypes="sccccsscscsscscsscscsscscsscscsscscs" /><rect
       style="fill:#ffffff;fill-opacity:1;stroke:#ffffff;stroke-width:0.600631;stroke-dasharray:none;stroke-opacity:1;paint-order:stroke fill markers"
       id="rect7484"
       width="14.317799"
       height="1.0723658"
       x="26.285686"
       y="27.639629" /><path
       style="fill:#ffffff;fill-opacity:1;stroke:none;stroke-width:0.226654;stroke-dasharray:none;stroke-opacity:1;paint-order:stroke fill markers"
       d="m 32.551837,50.092343 h 1.559857 v 4.750325 h -1.559857 z"
       id="path7599" /><path
       style="fill:#ffffff;fill-opacity:1;stroke:none;stroke-width:0.226654;stroke-dasharray:none;stroke-opacity:1;paint-order:stroke fill markers"
       d="m 31.582044,54.606064 h 3.548786 v 1.628531 h -3.548786 z"
       id="path7597" /><path
       style="fill:#ffffff;fill-opacity:1;stroke:none;stroke-width:0.226654;stroke-dasharray:none;stroke-opacity:1;paint-order:stroke fill markers"
       d="m 29.123299,48.317462 h 8.532074 v 1.800425 h -8.532074 z"
       id="path7595" /><path
       style="fill:#ffffff;fill-opacity:1;stroke:none;stroke-width:0.226654;stroke-dasharray:none;stroke-opacity:1;paint-order:stroke fill markers"
       d="M 40.489798,48.40631 H 26.257777 l -0.0045,-0.877309 0.315359,-0.72561 H 40.10022 l 0.379162,0.695238 z"
       id="path7593" /><rect
       class="ink"
       style="fill-opacity:1.0;stroke:none;stroke-width:0.600631;stroke-dasharray:none;paint-order:stroke fill markers;fill:url(#linearGradient17239)"
       id="rect5045"
       width="13.161208"
       height="14.017264"
       x="-2.7310262"
       y="18.650078"
       transform="rotate(-16.212402)" /><rect
       style="fill:url(#linearGradient5069);fill-opacity:1;stroke:none;stroke-width:0.600631;stroke-dasharray:none;paint-order:stroke fill markers"
       id="rect5047"
       width="3.4338815"
       height="2.7681479"
       x="2.2688749"
       y="42.932194"
       transform="rotate(-16.212402)" /><path
       class="ink"
       id="path5049"
       style="fill-opacity:1.0;stroke:none;stroke-width:0.600631;stroke-dasharray:none;paint-order:stroke fill markers;fill:url(#linearGradient17261)"
       d="m 15.967771,41.048849 c -3.371839,0.981794 -5.145029,3.552645 -4.741239,6.124707 l 12.175006,-3.540025 c -1.038546,-2.388183 -4.060564,-3.565008 -7.433767,-2.584682 z"
       sodipodi:nodetypes="cccc" /><rect
       class="ink"
       style="fill-opacity:1.0;stroke:none;stroke-width:0.600631;stroke-dasharray:none;paint-order:stroke fill markers;fill:url(#linearGradient17263)"
       id="rect5051"
       width="12.435843"
       height="2.1366389"
       x="-2.4586895"
       y="48.381004"
       transform="rotate(-16.212402)" /><path
       id="path5053"
       style="fill:#ffffff;fill-opacity:1;stroke:none;stroke-width:0.226654;stroke-dasharray:none;stroke-opacity:1;paint-order:stroke fill markers"
       d="m 15.902061,40.96549 c -3.447035,1.002242 -5.734964,3.198324 -5.183078,5.098018 0.551767,1.900177 0.633167,2.514998 1.243769,3.395675 0.896077,-0.20956 11.163933,-3.327713 12.114604,-3.61617 -0.261111,-1.148303 -0.564572,-1.987164 -0.933142,-3.25314 -0.55275,-1.899418 -3.79504,-2.626624 -7.242042,-1.624368 z m 1.617666,0.781132 c 0.431372,-0.12512 0.881093,0.118171 1.004537,0.543455 0.123071,0.424895 -0.126102,0.87069 -0.556852,0.996243 -0.431175,0.125723 -0.881274,-0.11694 -1.005342,-0.542017 -0.123962,-0.425605 0.125835,-0.872478 0.557657,-0.997681 z M 15.6937,42.342235 c 0.431374,-0.12512 0.881094,0.118172 1.004537,0.543455 0.123835,0.425169 -0.125313,0.871689 -0.556523,0.997375 -0.431632,0.125856 -0.882098,-0.117431 -1.005669,-0.54315 -0.123961,-0.425604 0.125833,-0.872477 0.557655,-0.99768 z m 2.427082,1.366686 c 0.431372,-0.12512 0.8811,0.118193 1.004543,0.543477 0.123072,0.424895 -0.126108,0.870669 -0.556858,0.996221 -0.431197,0.12573 -0.881261,-0.116896 -1.005335,-0.541996 -0.123969,-0.425626 0.125806,-0.872493 0.55765,-0.997702 z m -3.705384,1.104292 c 0.431372,-0.12512 0.881093,0.118172 1.004537,0.543455 0.123835,0.425169 -0.125316,0.871689 -0.556523,0.997375 -0.431632,0.125856 -0.882101,-0.117431 -1.005671,-0.543149 -0.123962,-0.425605 0.125835,-0.872478 0.557657,-0.997681 z m 5.643971,-1.631609 c 0.431372,-0.125119 0.881094,0.118172 1.004537,0.543455 0.123836,0.425169 -0.125321,0.871668 -0.556529,0.997354 -0.431632,0.125856 -0.882094,-0.117409 -1.005664,-0.543128 -0.123962,-0.425604 0.125834,-0.872478 0.557656,-0.997681 z m -3.796318,1.106184 c 0.431374,-0.12512 0.881095,0.118171 1.004539,0.543455 0.123835,0.425169 -0.125315,0.871689 -0.556525,0.997375 -0.431632,0.125856 -0.882099,-0.117431 -1.005669,-0.543149 -0.123962,-0.425605 0.125833,-0.872478 0.557655,-0.997681 z"
       sodipodi:nodetypes="sccccsscscsscscsscscsscscsscscsscscs" /><rect
       style="fill:#ffffff;fill-opacity:1;stroke:#ffffff;stroke-width:0.600631;stroke-dasharray:none;stroke-opacity:1;paint-order:stroke fill markers"
       id="rect5055"
       width="14.317799"
       height="1.0723658"
       x="-3.1326404"
       y="15.562327"
       transform="rotate(-16.212402)" /><path
       style="fill:#ffffff;fill-opacity:1;stroke:none;stroke-width:0.226654;stroke-dasharray:none;stroke-opacity:1;paint-order:stroke fill markers"
       d="m 13.62266,35.628435 1.497827,-0.435511 1.326286,4.561421 -1.497827,0.43551 z"
       id="path5057" /><path
       style="fill:#ffffff;fill-opacity:1;stroke:none;stroke-width:0.226654;stroke-dasharray:none;stroke-opacity:1;paint-order:stroke fill markers"
       d="m 13.951659,40.233426 3.407662,-0.990818 0.454684,1.56377 -3.407662,0.990817 z"
       id="path5059" /><path
       style="fill:#ffffff;fill-opacity:1;stroke:none;stroke-width:0.226654;stroke-dasharray:none;stroke-opacity:1;paint-order:stroke fill markers"
       d="m 9.8349183,34.881379 8.1927817,-2.382146 0.502677,1.728828 -8.192782,2.382146 z"
       id="path5061" /><path
       style="fill:#ffffff;fill-opacity:1;stroke:none;stroke-width:0.226654;stroke-dasharray:none;stroke-opacity:1;paint-order:stroke fill markers"
       d="M 20.774216,31.793179 7.1081554,35.766745 6.8588588,34.925589 6.9590879,34.140786 19.952565,30.362782 l 0.558194,0.561729 z"
       id="path5063" /><rect
       class="ink"
       style="fill-opacity:1.0;stroke:none;stroke-width:0.600631;stroke-dasharray:none;paint-order:stroke fill markers;fill:url(#linearGradient17237)"
       id="rect5073"
       width="13.161207"
       height="14.017263"
       x="52.888763"
       y="-5.8208776"
       transform="rotate(17.567386)" /><rect
       class="ink"
       style="fill-opacity:1;stroke:none;stroke-width:0.600631;stroke-dasharray:none;paint-order:stroke fill markers"
       id="rect5075"
       width="3.4338813"
       height="2.7681479"
       x="57.888664"
       y="18.461239"
       transform="rotate(17.567386)" /><path
       class="ink"
       id="path5077"
       style="fill-opacity:1.0;stroke:none;stroke-width:0.600631;stroke-dasharray:none;paint-order:stroke fill markers;fill:url(#linearGradient17247)"
       d="m 50.860672,36.455004 c -3.348487,-1.058703 -6.251728,0.09224 -7.346178,2.454596 l 12.087892,3.826934 c 0.464617,-2.562446 -1.392909,-5.220849 -4.741714,-6.28153 z"
       sodipodi:nodetypes="cccc" /><rect
       class="ink"
       style="fill-opacity:1.0;stroke:none;stroke-width:0.600631;stroke-dasharray:none;paint-order:stroke fill markers;fill:url(#linearGradient17245)"
       id="rect5079"
       width="12.435843"
       height="2.1366389"
       x="53.161098"
       y="23.910049"
       transform="rotate(17.567386)" /><path
       id="path5081"
       style="fill:#ffffff;fill-opacity:1;stroke:none;stroke-width:0.226654;stroke-dasharray:none;stroke-opacity:1;paint-order:stroke fill markers"
       d="m 50.852403,36.349182 c -3.422357,-1.083516 -6.545066,-0.530269 -7.142584,1.35557 -0.597885,1.886174 -0.872069,2.44246 -0.854207,3.513958 0.861318,0.324038 11.129461,3.441243 12.080024,3.730059 0.421429,-1.099625 0.635606,-1.965596 1.033144,-3.222776 0.596646,-1.886091 -1.693954,-4.293251 -5.116293,-5.376737 z m 0.910262,1.548687 c 0.428114,0.135847 0.666644,0.588113 0.532789,1.010235 -0.133948,0.421593 -0.588919,0.653588 -1.016758,0.518447 -0.428287,-0.135236 -0.667479,-0.587188 -0.534258,-1.009487 0.133603,-0.422677 0.589691,-0.655222 1.018227,-0.519195 z m -1.848921,-0.520213 c 0.428117,0.135848 0.666644,0.588113 0.53279,1.010235 -0.133466,0.422245 -0.58882,0.654856 -1.017114,0.519571 -0.428741,-0.13538 -0.667892,-0.588056 -0.5339,-1.01061 0.133602,-0.422677 0.589689,-0.655223 1.018224,-0.519196 z m 1.257463,2.485427 c 0.428115,0.135847 0.666637,0.588134 0.532783,1.010256 -0.133949,0.421593 -0.588913,0.653567 -1.016752,0.518425 -0.428308,-0.135242 -0.667492,-0.587145 -0.534264,-1.009465 0.133609,-0.422699 0.589676,-0.655251 1.018233,-0.519216 z m -3.693833,-1.142337 c 0.428115,0.135847 0.666644,0.588113 0.53279,1.010235 -0.133466,0.422245 -0.588821,0.654855 -1.017114,0.51957 -0.428741,-0.135379 -0.667893,-0.588056 -0.533902,-1.01061 0.133602,-0.422677 0.589691,-0.655222 1.018226,-0.519195 z m 5.598339,1.781901 c 0.428114,0.135846 0.666644,0.588112 0.532789,1.010234 -0.133465,0.422245 -0.588814,0.654834 -1.017107,0.519549 -0.428741,-0.135379 -0.6679,-0.588034 -0.533909,-1.010589 0.133603,-0.422677 0.589691,-0.655222 1.018227,-0.519194 z m -3.770468,-1.191324 c 0.428117,0.135848 0.666646,0.588113 0.532792,1.010235 -0.133466,0.422245 -0.588822,0.654856 -1.017116,0.51957 -0.428741,-0.135379 -0.667892,-0.588055 -0.5339,-1.01061 0.133602,-0.422677 0.589689,-0.655223 1.018224,-0.519195 z"
       sodipodi:nodetypes="sccccsscscsscscsscscsscscsscscsscscs" /><rect
       style="fill:#ffffff;fill-opacity:1;stroke:#ffffff;stroke-width:0.600631;stroke-dasharray:none;stroke-opacity:1;paint-order:stroke fill markers"
       id="rect5083"
       width="14.317799"
       height="1.0723658"
       x="52.487148"
       y="-8.9086285"
       transform="rotate(17.567386)" /><path
       style="fill:#ffffff;fill-opacity:1;stroke:none;stroke-width:0.226654;stroke-dasharray:none;stroke-opacity:1;paint-order:stroke fill markers"
       d="m 51.925225,30.645773 1.48711,0.470807 -1.433778,4.528783 -1.487109,-0.470808 z"
       id="path5085" /><path
       style="fill:#ffffff;fill-opacity:1;stroke:none;stroke-width:0.226654;stroke-dasharray:none;stroke-opacity:1;paint-order:stroke fill markers"
       d="m 49.638297,34.656276 3.383279,1.07112 -0.491535,1.552581 -3.383279,-1.071121 z"
       id="path5087" /><path
       style="fill:#ffffff;fill-opacity:1;stroke:none;stroke-width:0.226654;stroke-dasharray:none;stroke-opacity:1;paint-order:stroke fill markers"
       d="m 49.192292,27.91884 8.134161,2.575213 -0.543417,1.716459 -8.134161,-2.575213 z"
       id="path5089" /><path
       style="fill:#ffffff;fill-opacity:1;stroke:none;stroke-width:0.226654;stroke-dasharray:none;stroke-opacity:1;paint-order:stroke fill markers"
       d="m 60.001871,31.434265 -13.568277,-4.295612 0.260474,-0.837762 0.519661,-0.596586 12.900506,4.084201 0.151638,0.777256 z"
       id="path5091" /></g></svg>
