<?xml version="1.0" encoding="UTF-8" standalone="no"?>
<!-- Created with Inkscape (http://www.inkscape.org/) -->

<svg
   width="256"
   height="256"
   viewBox="0 0 67.733332 67.733333"
   version="1.1"
   id="svg5"
   inkscape:version="1.2.1 (9c6d41e410, 2022-07-14, custom)"
   sodipodi:docname="autobomb_launcher.svg"
   xml:space="preserve"
   xmlns:inkscape="http://www.inkscape.org/namespaces/inkscape"
   xmlns:sodipodi="http://sodipodi.sourceforge.net/DTD/sodipodi-0.dtd"
   xmlns:xlink="http://www.w3.org/1999/xlink"
   xmlns="http://www.w3.org/2000/svg"
   xmlns:svg="http://www.w3.org/2000/svg"><sodipodi:namedview
     id="namedview7"
     pagecolor="#505050"
     bordercolor="#eeeeee"
     borderopacity="1"
     inkscape:showpageshadow="0"
     inkscape:pageopacity="0"
     inkscape:pagecheckerboard="0"
     inkscape:deskcolor="#505050"
     inkscape:document-units="mm"
     showgrid="false"
     inkscape:zoom="2.6068962"
     inkscape:cx="196.21035"
     inkscape:cy="93.0225"
     inkscape:window-width="1916"
     inkscape:window-height="1036"
     inkscape:window-x="0"
     inkscape:window-y="20"
     inkscape:window-maximized="1"
     inkscape:current-layer="layer1" /><defs
     id="defs2"><linearGradient
       id="linearGradient2339"
       inkscape:swatch="solid"><stop
         style="stop-color:#3a0dcd;stop-opacity:1;"
         offset="0"
         id="stop2337" /></linearGradient><linearGradient
       id="linearGradient794"
       inkscape:swatch="solid"><stop
         style="stop-color:#35bfc2;stop-opacity:1;"
         offset="0"
         id="stop792" /></linearGradient><linearGradient
       inkscape:collect="always"
       xlink:href="#linearGradient794"
       id="linearGradient796"
       x1="6.5224088"
       y1="20.898144"
       x2="24.422064"
       y2="20.898144"
       gradientUnits="userSpaceOnUse" /><linearGradient
       inkscape:collect="always"
       xlink:href="#linearGradient794"
       id="linearGradient2110"
       gradientUnits="userSpaceOnUse"
       x1="6.5224088"
       y1="20.898144"
       x2="24.422064"
       y2="20.898144"
       gradientTransform="matrix(0.63637146,0,0,0.63637146,5.5659523,7.5996892)" /><linearGradient
       inkscape:collect="always"
       xlink:href="#linearGradient2339"
       id="linearGradient2341"
       x1="44.219523"
       y1="30.945915"
       x2="54.124345"
       y2="30.945915"
       gradientUnits="userSpaceOnUse" /><linearGradient
       inkscape:collect="always"
       xlink:href="#linearGradient2339"
       id="linearGradient2376"
       gradientUnits="userSpaceOnUse"
       x1="44.219523"
       y1="30.945915"
       x2="54.124345"
       y2="30.945915"
       gradientTransform="translate(-14.679755,7.8900557)" /><linearGradient
       inkscape:collect="always"
       xlink:href="#linearGradient2339"
       id="linearGradient2467"
       gradientUnits="userSpaceOnUse"
       gradientTransform="translate(-14.679755,7.8900557)"
       x1="44.219523"
       y1="30.945915"
       x2="54.124345"
       y2="30.945915" /><linearGradient
       inkscape:collect="always"
       xlink:href="#linearGradient2339"
       id="linearGradient2477"
       gradientUnits="userSpaceOnUse"
       gradientTransform="translate(-14.679755,7.8900557)"
       x1="44.219523"
       y1="30.945915"
       x2="54.124345"
       y2="30.945915" /><linearGradient
       inkscape:collect="always"
       xlink:href="#linearGradient2339"
       id="linearGradient2487"
       gradientUnits="userSpaceOnUse"
       gradientTransform="translate(-14.679755,7.8900557)"
       x1="44.219523"
       y1="30.945915"
       x2="54.124345"
       y2="30.945915" /><linearGradient
       inkscape:collect="always"
       xlink:href="#linearGradient2339"
       id="linearGradient29403"
       x1="88.140251"
       y1="223.98161"
       x2="91.639961"
       y2="223.98161"
       gradientUnits="userSpaceOnUse"
       gradientTransform="translate(-81.185133,-213.75475)" /><linearGradient
       inkscape:collect="always"
       xlink:href="#linearGradient2339"
       id="linearGradient29401"
       x1="20.842394"
       y1="242.64043"
       x2="22.690956"
       y2="242.64043"
       gradientUnits="userSpaceOnUse"
       gradientTransform="translate(-16.063752,-228.08786)" /><linearGradient
       inkscape:collect="always"
       xlink:href="#linearGradient2339"
       id="linearGradient29405"
       x1="85.004822"
       y1="228.01707"
       x2="93.35836"
       y2="228.01707"
       gradientUnits="userSpaceOnUse"
       gradientTransform="translate(-81.185133,-213.75475)" /><linearGradient
       inkscape:collect="always"
       xlink:href="#linearGradient2339"
       id="linearGradient29407"
       x1="94.375633"
       y1="222.08904"
       x2="97.744423"
       y2="222.08904"
       gradientUnits="userSpaceOnUse"
       gradientTransform="translate(-81.185133,-213.75475)" /><linearGradient
       inkscape:collect="always"
       xlink:href="#linearGradient2339"
       id="linearGradient29409"
       x1="83.617836"
       y1="216.24666"
       x2="89.650726"
       y2="216.24666"
       gradientUnits="userSpaceOnUse"
       gradientTransform="translate(-81.185133,-213.75475)" /></defs><g
     inkscape:label="Layer 1"
     inkscape:groupmode="layer"
     id="layer1"><g
       id="g2528"
       transform="matrix(1.4197451,-0.54681227,0.54681227,1.4197451,-20.668132,16.323426)"><g
         id="g2457"
         transform="matrix(0.55891621,0,0,0.55891621,12.234389,-4.649565)"><g
           id="g2452"><path
             id="path2374"
             style="fill:url(#linearGradient2376);fill-opacity:1;stroke-width:0.750001;stroke-linecap:round;stroke-dasharray:none;stroke-opacity:0.998965;paint-order:stroke fill markers"
             d="m 29.543902,36.304342 a 4.9525962,4.9525962 0 0 0 -0.0041,0.110588 4.9525962,4.9525962 0 0 0 4.952669,4.952669 4.9525962,4.9525962 0 0 0 4.952153,-4.952669 4.9525962,4.9525962 0 0 0 -0.0015,-0.110588 z" /></g><path
           id="path2378"
           style="fill:#ffffff;fill-opacity:1;stroke-width:0.750001;stroke-linecap:round;stroke-dasharray:none;stroke-opacity:0.998965;paint-order:stroke fill markers"
           d="m 29.543902,36.396867 a 4.9525962,4.9525962 0 0 1 -0.0041,-0.110588 4.9525962,4.9525962 0 0 1 4.952669,-4.952669 4.9525962,4.9525962 0 0 1 4.952153,4.952669 4.9525962,4.9525962 0 0 1 -0.0015,0.110588 z" /></g><g
         id="g2465"
         transform="matrix(0.55891621,0,0,0.55891621,3.5336214,-3.7673203)"><g
           id="g2461"><path
             id="path2459"
             style="fill:url(#linearGradient2467);fill-opacity:1;stroke-width:0.750001;stroke-linecap:round;stroke-dasharray:none;stroke-opacity:0.998965;paint-order:stroke fill markers"
             d="m 29.543902,36.304342 a 4.9525962,4.9525962 0 0 0 -0.0041,0.110588 4.9525962,4.9525962 0 0 0 4.952669,4.952669 4.9525962,4.9525962 0 0 0 4.952153,-4.952669 4.9525962,4.9525962 0 0 0 -0.0015,-0.110588 z" /></g><path
           id="path2463"
           style="fill:#ffffff;fill-opacity:1;stroke-width:0.750001;stroke-linecap:round;stroke-dasharray:none;stroke-opacity:0.998965;paint-order:stroke fill markers"
           d="m 29.543902,36.396867 a 4.9525962,4.9525962 0 0 1 -0.0041,-0.110588 4.9525962,4.9525962 0 0 1 4.952669,-4.952669 4.9525962,4.9525962 0 0 1 4.952153,4.952669 4.9525962,4.9525962 0 0 1 -0.0015,0.110588 z" /></g><g
         id="g2475"
         transform="matrix(0.55891621,0,0,0.55891621,-5.6166493,-2.3617783)"><g
           id="g2471"><path
             id="path2469"
             style="fill:url(#linearGradient2477);fill-opacity:1;stroke-width:0.750001;stroke-linecap:round;stroke-dasharray:none;stroke-opacity:0.998965;paint-order:stroke fill markers"
             d="m 29.543902,36.304342 a 4.9525962,4.9525962 0 0 0 -0.0041,0.110588 4.9525962,4.9525962 0 0 0 4.952669,4.952669 4.9525962,4.9525962 0 0 0 4.952153,-4.952669 4.9525962,4.9525962 0 0 0 -0.0015,-0.110588 z" /></g><path
           id="path2473"
           style="fill:#ffffff;fill-opacity:1;stroke-width:0.750001;stroke-linecap:round;stroke-dasharray:none;stroke-opacity:0.998965;paint-order:stroke fill markers"
           d="m 29.543902,36.396867 a 4.9525962,4.9525962 0 0 1 -0.0041,-0.110588 4.9525962,4.9525962 0 0 1 4.952669,-4.952669 4.9525962,4.9525962 0 0 1 4.952153,4.952669 4.9525962,4.9525962 0 0 1 -0.0015,0.110588 z" /></g><g
         id="g2485"
         transform="matrix(0.55891621,0,0,0.55891621,-9.3074715,2.6828189)"><g
           id="g2481"><path
             id="path2479"
             style="fill:url(#linearGradient2487);fill-opacity:1;stroke-width:0.750001;stroke-linecap:round;stroke-dasharray:none;stroke-opacity:0.998965;paint-order:stroke fill markers"
             d="m 29.543902,36.304342 a 4.9525962,4.9525962 0 0 0 -0.0041,0.110588 4.9525962,4.9525962 0 0 0 4.952669,4.952669 4.9525962,4.9525962 0 0 0 4.952153,-4.952669 4.9525962,4.9525962 0 0 0 -0.0015,-0.110588 z" /></g><path
           id="path2483"
           style="fill:#ffffff;fill-opacity:1;stroke-width:0.750001;stroke-linecap:round;stroke-dasharray:none;stroke-opacity:0.998965;paint-order:stroke fill markers"
           d="m 29.543902,36.396867 a 4.9525962,4.9525962 0 0 1 -0.0041,-0.110588 4.9525962,4.9525962 0 0 1 4.952669,-4.952669 4.9525962,4.9525962 0 0 1 4.952153,4.952669 4.9525962,4.9525962 0 0 1 -0.0015,0.110588 z" /></g><g
         id="g2226"
         transform="matrix(1.6350465,0,0,1.6350465,-3.9151984,-9.4576593)"><path
           style="fill:none;stroke:url(#linearGradient796);stroke-width:0.865;stroke-linecap:butt;stroke-linejoin:miter;stroke-dasharray:none;stroke-opacity:1"
           d="m 24.381074,15.320122 c 0,0 -11.851392,1.86142 -16.1772831,2.897451 -1.3813497,0.330827 -1.9407252,2.715932 -1.3938234,4.026837 0.6997769,1.677341 3.1488836,1.156768 4.9218815,0.757218 3.719801,-0.838267 11.317227,-1.785619 11.317227,-1.785619"
           id="path236"
           sodipodi:nodetypes="csssc" /><rect
           style="fill:#35bfc2;fill-opacity:1;stroke-width:0.750001;stroke-linecap:round;stroke-dasharray:none;stroke-opacity:0.998965;paint-order:stroke fill markers"
           id="rect2164"
           width="0.68809479"
           height="1.9922487"
           x="13.476755"
           y="19.356009"
           ry="0.3440474"
           transform="rotate(-11.178219)" /><rect
           style="fill:#35bfc2;fill-opacity:1;stroke-width:0.750001;stroke-linecap:round;stroke-dasharray:none;stroke-opacity:0.998965;paint-order:stroke fill markers"
           id="rect2166"
           width="0.68809479"
           height="1.9922487"
           x="11.094987"
           y="19.142141"
           ry="0.3440474"
           transform="rotate(-11.178219)" /><rect
           style="fill:#35bfc2;fill-opacity:1;stroke-width:0.750001;stroke-linecap:round;stroke-dasharray:none;stroke-opacity:0.998965;paint-order:stroke fill markers"
           id="rect2168"
           width="0.68809479"
           height="1.9922487"
           x="8.9687319"
           y="19.180466"
           ry="0.3440474"
           transform="rotate(-11.178219)" /><rect
           style="fill:#35bfc2;fill-opacity:1;stroke-width:0.750001;stroke-linecap:round;stroke-dasharray:none;stroke-opacity:0.998965;paint-order:stroke fill markers"
           id="rect2170"
           width="0.68809479"
           height="1.9922487"
           x="6.4595199"
           y="19.225651"
           ry="0.3440474"
           transform="rotate(-11.178219)" /><rect
           style="fill:#35bfc2;fill-opacity:1;stroke-width:0.750001;stroke-linecap:round;stroke-dasharray:none;stroke-opacity:0.998965;paint-order:stroke fill markers"
           id="rect2172"
           width="0.68809479"
           height="1.9922487"
           x="-8.7886953"
           y="18.221037"
           ry="0.3440474"
           transform="rotate(-45.752281)" /><rect
           style="fill:#35bfc2;fill-opacity:1;stroke-width:0.750001;stroke-linecap:round;stroke-dasharray:none;stroke-opacity:0.998965;paint-order:stroke fill markers"
           id="rect2174"
           width="0.68809479"
           height="1.9922487"
           x="-21.734892"
           y="3.4138026"
           ry="0.3440474"
           transform="rotate(-103.2393)" /><rect
           style="fill:#35bfc2;fill-opacity:1;stroke-width:0.750001;stroke-linecap:round;stroke-dasharray:none;stroke-opacity:0.998965;paint-order:stroke fill markers"
           id="rect2176"
           width="0.68809479"
           height="1.9922487"
           x="-22.884176"
           y="3.164402"
           ry="0.3440474"
           transform="rotate(-103.2393)" /><path
           style="fill:none;stroke:url(#linearGradient2110);stroke-width:0.75;stroke-linecap:butt;stroke-linejoin:miter;stroke-dasharray:none;stroke-opacity:1"
           d="m 24.513008,16.882679 c 0,0 -10.973524,1.650853 -13.726397,2.310154 -0.8790519,0.210529 -1.2350225,1.728341 -0.8869898,2.562564 0.4453178,1.067412 1.1779698,1.926382 2.3345338,1.932487 2.019862,0.01066 10.860533,-1.089195 10.860533,-1.089195"
           id="path2108"
           sodipodi:nodetypes="csssc" /><rect
           style="fill:#35bfc2;fill-opacity:1;stroke-width:0.750001;stroke-linecap:round;stroke-dasharray:none;stroke-opacity:0.998965;paint-order:stroke fill markers"
           id="rect2178"
           width="0.68809479"
           height="1.9922487"
           x="-20.573009"
           y="8.8359165"
           ry="0.3440474"
           transform="rotate(-84.35473)" /><rect
           style="fill:#35bfc2;fill-opacity:1;stroke-width:0.750001;stroke-linecap:round;stroke-dasharray:none;stroke-opacity:0.998965;paint-order:stroke fill markers"
           id="rect2180"
           width="0.68809479"
           height="1.9922487"
           x="-23.751101"
           y="1.4928952"
           ry="0.3440474"
           transform="rotate(-103.397)" /><rect
           style="fill:#35bfc2;fill-opacity:1;stroke-width:0.750001;stroke-linecap:round;stroke-dasharray:none;stroke-opacity:0.998965;paint-order:stroke fill markers"
           id="rect2182"
           width="0.68809479"
           height="1.9922487"
           x="-23.766031"
           y="2.7866323"
           ry="0.3440474"
           transform="rotate(-103.397)" /><rect
           style="fill:#35bfc2;fill-opacity:1;stroke-width:0.750001;stroke-linecap:round;stroke-dasharray:none;stroke-opacity:0.998965;paint-order:stroke fill markers"
           id="rect2184"
           width="0.68809479"
           height="1.9922487"
           x="-24.764711"
           y="3.005136"
           ry="0.3440474"
           transform="rotate(-103.397)" /><rect
           style="fill:#35bfc2;fill-opacity:1;stroke-width:0.750001;stroke-linecap:round;stroke-dasharray:none;stroke-opacity:0.998965;paint-order:stroke fill markers"
           id="rect2186"
           width="0.66194427"
           height="1.5958092"
           x="11.490614"
           y="23.434492"
           ry="0.3440474"
           transform="rotate(-5.1948433)" /><rect
           style="fill:#35bfc2;fill-opacity:1;stroke-width:0.750001;stroke-linecap:round;stroke-dasharray:none;stroke-opacity:0.998965;paint-order:stroke fill markers"
           id="rect2188"
           width="0.66194427"
           height="1.5958092"
           x="13.090084"
           y="23.434645"
           ry="0.3440474"
           transform="rotate(-5.1948433)" /><rect
           style="fill:#35bfc2;fill-opacity:1;stroke-width:0.750001;stroke-linecap:round;stroke-dasharray:none;stroke-opacity:0.998965;paint-order:stroke fill markers"
           id="rect2190"
           width="0.66194427"
           height="1.5958092"
           x="14.480076"
           y="23.425472"
           ry="0.3440474"
           transform="rotate(-5.1948433)" /><rect
           style="fill:#35bfc2;fill-opacity:1;stroke-width:0.750001;stroke-linecap:round;stroke-dasharray:none;stroke-opacity:0.998965;paint-order:stroke fill markers"
           id="rect2192"
           width="0.66194427"
           height="1.5958092"
           x="16.197336"
           y="23.277737"
           ry="0.3440474"
           transform="rotate(-5.1948433)" /><rect
           style="fill:#35bfc2;fill-opacity:1;stroke-width:0.750001;stroke-linecap:round;stroke-dasharray:none;stroke-opacity:0.998965;paint-order:stroke fill markers"
           id="rect2194"
           width="0.66194427"
           height="1.5958092"
           x="17.848526"
           y="23.212267"
           ry="0.3440474"
           transform="rotate(-5.1948433)" /><rect
           style="fill:#35bfc2;fill-opacity:1;stroke-width:0.750001;stroke-linecap:round;stroke-dasharray:none;stroke-opacity:0.998965;paint-order:stroke fill markers"
           id="rect2196"
           width="0.66194427"
           height="1.5958092"
           x="19.387506"
           y="23.145365"
           ry="0.3440474"
           transform="rotate(-5.1948433)" /><rect
           style="fill:#35bfc2;fill-opacity:1;stroke-width:0.750001;stroke-linecap:round;stroke-dasharray:none;stroke-opacity:0.998965;paint-order:stroke fill markers"
           id="rect2198"
           width="0.68809479"
           height="1.9922487"
           x="15.026153"
           y="19.374355"
           ry="0.3440474"
           transform="rotate(-11.178219)" /><rect
           style="fill:#35bfc2;fill-opacity:1;stroke-width:0.750001;stroke-linecap:round;stroke-dasharray:none;stroke-opacity:0.998965;paint-order:stroke fill markers"
           id="rect2200"
           width="0.68809479"
           height="1.9922487"
           x="16.780928"
           y="19.423216"
           ry="0.3440474"
           transform="rotate(-11.178219)" /><rect
           style="fill:#35bfc2;fill-opacity:1;stroke-width:0.750001;stroke-linecap:round;stroke-dasharray:none;stroke-opacity:0.998965;paint-order:stroke fill markers"
           id="rect2202"
           width="0.68809479"
           height="1.9922487"
           x="18.781322"
           y="19.42775"
           ry="0.3440474"
           transform="rotate(-11.178219)" /></g></g><g
       id="g2532"
       transform="matrix(-1,0,0,1,104.10583,7.3564997)"><path
         id="path2280"
         style="fill:url(#linearGradient2341);fill-opacity:1;stroke-width:0.750001;stroke-linecap:round;stroke-dasharray:none;stroke-opacity:0.998965;paint-order:stroke fill markers"
         d="m 44.223657,28.414286 a 4.9525962,4.9525962 0 0 0 -0.0041,0.110588 4.9525962,4.9525962 0 0 0 4.952669,4.952669 4.9525962,4.9525962 0 0 0 4.952153,-4.952669 4.9525962,4.9525962 0 0 0 -0.0015,-0.110588 z" /><path
         id="path2343"
         style="fill:#ffffff;fill-opacity:1;stroke-width:0.750001;stroke-linecap:round;stroke-dasharray:none;stroke-opacity:0.998965;paint-order:stroke fill markers"
         d="m 58.741384,19.85612 a 4.9525962,4.9525962 0 0 1 0.09782,0.05174 4.9525962,4.9525962 0 0 1 1.812803,6.765471 4.9525962,4.9525962 0 0 1 -6.765214,1.812356 4.9525962,4.9525962 0 0 1 -0.09497,-0.05668 z" /></g><g
       inkscape:label="Layer 1"
       id="layer1-3"
       transform="matrix(-0.88032549,0,0,0.88032549,66.739076,19.596816)"><circle
         style="fill:url(#linearGradient29403);fill-opacity:1;fill-rule:nonzero;stroke:none;stroke-width:0.465;stroke-dasharray:1.31792, 1.31792;stroke-dashoffset:0;stroke-opacity:0;paint-order:stroke fill markers"
         id="path23915"
         cx="8.7049742"
         cy="10.226866"
         r="1.7498524" /><rect
         style="fill:url(#linearGradient29401);fill-opacity:1;fill-rule:nonzero;stroke:none;stroke-width:0.465;stroke-dasharray:1.31792, 1.31792;stroke-dashoffset:0;stroke-opacity:0;paint-order:stroke fill markers"
         id="rect23917"
         width="1.8485632"
         height="4.4198785"
         x="4.7786422"
         y="12.342617"
         ry="0.9242816"
         transform="rotate(-16.76846)" /><path
         style="fill:url(#linearGradient29405);fill-opacity:1;stroke:none;stroke-width:0.264583px;stroke-linecap:butt;stroke-linejoin:miter;stroke-opacity:1"
         d="m 9.0311259,13.356372 h -1.806427 l -0.260514,-0.26051 h -0.603443 l -0.37659,0.37659 v 0.71068 l 0.241557,0.13947 v 0.28706 h -2.40602 v 0.45538 l 0.630039,0.36375 h 7.1422711 l 0.581231,-0.33557 v -0.4301 H 7.1859529 v -0.53053 h 2.011476 0.257681 l -0.215786,-0.80532 z"
         id="path23919" /><path
         id="path24684"
         style="fill:url(#linearGradient29407);fill-opacity:1;stroke:none;stroke-width:0.264583px;stroke-linecap:butt;stroke-linejoin:miter;stroke-opacity:1"
         d="m 15.107181,5.4515122 -1.916679,1.1746 0.02429,3.4971998 1.661953,1.09375 1.682546,-0.008 V 5.4517922 Z m -0.636654,0.67334 h 0.515731 l 0.46147,0.12351 v 1.75545 l -0.321944,0.18603 H 14.29431 l -0.402559,-0.40256 v -1.16427 z m -0.24443,2.38745 h 0.831474 l 0.322461,0.18604 v 1.7554498 l -0.461987,0.12402 h -0.515731 l -0.578776,-0.49868 V 8.9148622 Z"
         sodipodi:nodetypes="ccccccccccccccccccccccccc" /><path
         style="fill:url(#linearGradient29409);fill-opacity:1;stroke:none;stroke-width:0.264583px;stroke-linecap:butt;stroke-linejoin:miter;stroke-opacity:1"
         d="m 2.4327029,1.5712522 v 1.67096 l 6.032892,0.26648 v -0.31559 l -4.077055,-1.71797 z"
         id="path25297" /><path
         id="path27766"
         style="fill:#ffffff;fill-opacity:1;stroke:none;stroke-width:0.264583px;stroke-linecap:butt;stroke-linejoin:miter;stroke-opacity:1"
         d="m 1.7580769,7.5159822 1.42575,3.3382998 c 0,0 0.29141,0.4677 0.5035,0.62737 0.21717,0.16348 0.78428,0.34208 0.78428,0.34208 l 2.31717,-0.0222 0.0667,-0.0103 c -0.40498,-0.46647 -0.62826,-1.06329 -0.6289,-1.68103 5.9e-4,-0.8688098 0.4404,-1.6784298 1.16892,-2.1518098 z m 8.7570901,0.6873 c 0.53981,0.48695 0.84796,1.17987 0.84801,1.9068598 -6.4e-4,0.34895 -0.0724,0.69411 -0.21084,1.01441 l 0.27285,-0.0424 c 0,0 0.67902,-0.50944 0.83613,-0.88315 0.23957,-0.5698398 0.0703,-1.8531098 0.0703,-1.8531098 z"
         sodipodi:nodetypes="ccsccccccccccscc" /><path
         id="path27771"
         style="fill:#ffffff;fill-opacity:1;stroke:none;stroke-width:0.264583px;stroke-linecap:butt;stroke-linejoin:miter;stroke-opacity:1"
         d="m 1.8852469,4.2066222 c 0,0 -0.18089,0.0481 -0.2274,0.10593 -0.0625,0.0777 -0.0997,0.30077 -0.0997,0.30077 l -0.195337,2.12286 10.8722071,0.78859 0.0868,-1.70016 c 0,0 -0.0671,-0.66949 -0.26228,-0.90939 -0.17203,-0.21141 -0.83946,-0.44453 -0.83946,-0.44453 z m 0.8878,1.08004 c 0.28165,10e-5 0.50995,0.2284 0.51005,0.51005 1.8e-4,0.28185 -0.2282,0.51046 -0.51005,0.51056 -0.28205,1.8e-4 -0.51074,-0.22851 -0.51056,-0.51056 1e-4,-0.28185 0.22871,-0.51023 0.51056,-0.51005 z"
         sodipodi:nodetypes="csccccsccccccc" /></g></g></svg>
