<?xml version="1.0" encoding="UTF-8" standalone="no"?>
<!-- Created with Inkscape (http://www.inkscape.org/) -->

<svg
   width="256"
   height="256"
   viewBox="0 0 67.733332 67.733333"
   version="1.1"
   id="svg9109"
   xml:space="preserve"
   inkscape:version="1.2.1 (9c6d41e410, 2022-07-14, custom)"
   sodipodi:docname="blaster.svg"
   inkscape:export-filename="blaster.png"
   inkscape:export-xdpi="96"
   inkscape:export-ydpi="96"
   xmlns:inkscape="http://www.inkscape.org/namespaces/inkscape"
   xmlns:sodipodi="http://sodipodi.sourceforge.net/DTD/sodipodi-0.dtd"
   xmlns="http://www.w3.org/2000/svg"
   xmlns:svg="http://www.w3.org/2000/svg"><sodipodi:namedview
     id="namedview9111"
     pagecolor="#ffffff"
     bordercolor="#666666"
     borderopacity="1.0"
     inkscape:showpageshadow="2"
     inkscape:pageopacity="0.0"
     inkscape:pagecheckerboard="0"
     inkscape:deskcolor="#d1d1d1"
     inkscape:document-units="mm"
     showgrid="false"
     inkscape:zoom="4.2353819"
     inkscape:cx="151.69824"
     inkscape:cy="71.658237"
     inkscape:window-width="1916"
     inkscape:window-height="1036"
     inkscape:window-x="0"
     inkscape:window-y="20"
     inkscape:window-maximized="1"
     inkscape:current-layer="layer1" /><defs
     id="defs9106" /><g
     inkscape:label="Layer 1"
     inkscape:groupmode="layer"
     id="layer1"><rect
       style="display:inline;fill:#10131d;fill-opacity:1;stroke:none;stroke-width:1.365;stroke-linecap:round"
       id="rect9622"
       width="11.886248"
       height="16.521761"
       x="35.993652"
       y="29.290487"
       rx="0"
       ry="0"
       transform="rotate(-15.363397)" /><path
       style="fill:#ff0b0b;fill-opacity:1;stroke:none;stroke-width:0.264583px;stroke-linecap:butt;stroke-linejoin:miter;stroke-opacity:1"
       d="M 53.974801,15.533487 52.2454,16.021029 c 0,0 -0.07132,0.287372 -0.167371,0.392105 -0.382438,0.416993 -0.927125,0.660618 -1.497832,0.798608 -0.570707,0.13799 -1.216952,-0.04288 -1.825265,-0.02805 -0.29862,0.0073 -0.594096,-0.006 -0.894283,0.05742 -0.554018,0.116968 -1.06633,0.403792 -1.589737,0.619804 -0.560645,0.23138 -1.107897,0.502834 -1.688748,0.677393 -0.409934,0.123195 -1.257922,0.25814 -1.257922,0.25814 0,0 1.251459,0.08999 1.847742,-0.06582 0.708244,-0.185072 1.248852,-0.803183 1.952366,-1.005491 0.341617,-0.09824 0.893627,-0.06225 1.062585,-0.08994 0.16896,-0.02769 0.478698,0.05919 0.637635,0.2179 0.173782,0.173537 0.308005,0.461086 0.239236,0.696854 -0.106277,0.364362 -0.53625,0.57365 -0.89073,0.709291 -0.655221,0.250719 -1.400417,0.08727 -2.101062,0.122918 -0.476087,0.02422 -0.975913,-0.08708 -1.428771,0.0618 -0.500363,0.164494 -1.311219,0.88176 -1.311219,0.88176 0,0 0.840212,-0.504559 1.32365,-0.614468 0.795171,-0.180781 1.605287,0.03132 2.420736,0.03589 0.516668,0.0029 1.049151,0.06158 1.548376,-0.07157 0.477692,-0.127407 0.872264,-0.466468 1.318905,-0.678445 0.635172,-0.301455 1.234791,-0.764335 1.933456,-0.842979 0.423391,-0.04766 0.918704,-0.02283 1.255919,0.237586 0.21744,0.16792 0.309559,0.473507 0.35297,0.744787 0.06262,0.39132 0.112205,0.881092 -0.148473,1.179588 -0.288909,0.330823 -1.273276,0.339085 -1.273276,0.339085 -0.62966,0.167684 -1.305092,-0.321013 -1.944838,-0.197262 -0.351437,0.06798 -0.68716,0.224715 -0.950893,0.498967 -0.303165,0.315257 -0.314372,0.797155 -0.552091,1.164286 -0.168538,0.26029 -0.400931,0.490759 -0.66932,0.646077 -0.33947,0.196453 -0.844616,0.18565 -1.130335,0.326868 -0.258176,0.127604 -0.634562,0.664876 -0.634562,0.664876 0,0 0.610099,-0.484136 0.971981,-0.605694 0.187708,-0.06305 0.516031,-0.23693 0.591595,-0.0539 0.141186,0.341976 -0.537316,0.517868 -0.854456,0.708402 -0.342876,0.205996 -0.756142,0.269451 -1.109985,0.455982 -0.139898,0.07375 -0.396724,0.260199 -0.396724,0.260199 0,0 0.834313,-0.04343 1.216482,-0.193544 0.519564,-0.204082 0.934193,-0.611659 1.390785,-0.932782 0.196908,-0.138486 0.430349,-0.240982 0.581375,-0.428446 0.23054,-0.286163 0.272109,-0.684869 0.450154,-1.006332 0.152555,-0.275441 0.263438,-0.611065 0.526303,-0.784392 0.293987,-0.193848 0.747282,-0.39385 1.038199,-0.195425 0.173774,0.118526 0.118013,0.409627 0.117665,0.619974 -5e-4,0.30239 0.05083,0.686392 -0.172098,0.890697 -0.39924,0.365879 -1.006322,0.09115 -1.519666,0.263598 -0.131144,0.04406 -0.451236,0.119565 -0.451236,0.119565 0,0 0.576497,0.213959 0.878856,0.25243 0.514564,0.06547 1.064926,0.126906 1.555588,-0.04136 0.402285,-0.137958 0.713145,-0.469816 1.02779,-0.755935 0.238644,-0.217009 0.365532,-0.430519 0.657584,-0.567448 0.265247,-0.124361 0.579478,-0.249068 0.865358,-0.185083 0.248896,0.05571 0.571454,0.119588 0.680291,0.350255 0.16783,0.355696 -0.02645,0.829583 -0.250118,1.153091 -0.272774,0.394527 -0.760754,0.60843 -1.207895,0.781988 -0.624677,0.242468 -1.312727,0.316662 -1.982634,0.332082 -0.367927,0.0085 -0.73597,-0.05648 -1.096142,-0.132092 -0.282995,-0.05941 -0.505326,-0.248416 -0.830284,-0.251344 -0.343554,-0.0031 -0.671576,0.114593 -0.983403,0.258825 -0.463971,0.214604 -0.940023,0.404996 -1.391251,0.645241 -0.315698,0.168085 -0.917945,0.555549 -0.917945,0.555549 0,0 0.741927,0.0467 1.080857,-0.07825 0.398045,-0.146743 0.647173,-0.561649 1.025271,-0.754043 0.288941,-0.147027 0.602989,-0.284399 0.927039,-0.29417 0.290564,-0.0088 0.688088,-0.0311 0.845625,0.213207 0.182119,0.282431 -4.29e-4,0.707406 -0.178861,0.992181 -0.239152,0.381685 -0.670457,0.637328 -1.092095,0.795753 -0.65895,0.247592 -1.40069,0.14664 -2.103403,0.187991 -0.352073,0.02072 -1.057619,0.03006 -1.057619,0.03006 0,0 1.240257,0.265934 1.869975,0.268637 0.691834,0.003 1.40745,-0.03901 2.056889,-0.27749 0.492876,-0.180989 0.855235,-0.617868 1.326349,-0.849677 0.434339,-0.213715 0.899958,-0.362653 1.36675,-0.490831 0.404284,-0.111013 0.825212,-0.328377 1.234826,-0.239014 0.214765,0.04685 0.418946,0.197788 0.536408,0.383589 0.178319,0.282063 0.281672,0.66859 0.176774,0.985377 -0.116992,0.353309 -0.485604,0.589166 -0.814091,0.764126 -0.336422,0.179187 -0.735905,0.212388 -1.114661,0.25519 -0.601796,0.06801 -1.236684,-0.173654 -1.81688,0 -0.484635,0.145053 -0.878376,0.511217 -1.268082,0.833771 -0.34685,0.287082 -0.611594,0.661979 -0.939946,0.970047 -0.251202,0.235685 -0.490352,0.49431 -0.786408,0.67038 -0.313079,0.186194 -1.019963,0.392245 -1.019963,0.392245 0,0 1.342445,-0.136018 1.923259,-0.445346 0.678355,-0.361277 0.956524,-1.329191 1.685171,-1.573649 0.248821,-0.08348 0.598254,-0.104719 0.783114,0.08158 0.172847,0.174192 0.13124,0.495009 0.0706,0.732795 -0.09399,0.368571 -0.319195,0.740382 -0.640014,0.944721 -0.450166,0.286725 -1.043133,0.316028 -1.569585,0.403828 -0.593537,0.09899 -1.790102,0.157803 -1.790102,0.157803 0,0 1.904651,0.198008 2.795231,-0.07708 0.810805,-0.250447 1.445073,-0.891796 2.141106,-1.377252 0.575167,-0.401157 1.04901,-0.959757 1.679284,-1.267163 0.516971,-0.252144 1.093711,-0.49161 1.667044,-0.445514 0.59249,0.04764 1.366831,0.195315 1.627061,0.729726 0.306477,0.629385 0.131283,1.746813 -0.505106,2.038469 -0.539424,0.247217 -1.013978,-0.654793 -1.588362,-0.803711 -0.483653,-0.125395 -1.016882,-0.193849 -1.497796,-0.05833 -0.726074,0.204604 -1.277713,0.805143 -1.88264,1.255819 -0.402442,0.299823 -0.693601,0.773059 -1.158915,0.961041 -0.331053,0.133742 -0.71111,0.07378 -1.068088,0.08085 -0.54356,0.01077 -1.629947,-0.05858 -1.629947,-0.05858 0,0 1.24721,0.324976 1.688412,0.323743 0.51677,-0.0014 1.194339,-0.05737 1.911315,-0.434828 0.575453,-0.302956 0.861819,-0.960204 1.387145,-1.343561 0.373945,-0.272886 0.789847,-0.635959 1.264835,-0.660356 0.273953,-0.01407 0.58997,0.09264 0.764685,0.30412 0.284162,0.343955 0.447194,0.913953 0.25109,1.314698 -0.20098,0.410709 -0.781264,0.501143 -1.221817,0.623565 -0.679561,0.188839 -1.423753,-0.01141 -2.110721,0.148394 -0.566453,0.131769 -1.05661,0.199 -1.507561,0.566252 -0.329563,0.268394 -0.710255,1.058942 -0.710255,1.058942 0,0 0.813328,-0.776574 1.388429,-1.003545 0.955575,-0.37713 2.043436,-0.218975 3.059798,-0.368503 0.558214,-0.08212 1.175451,-0.01427 1.667608,-0.290187 0.454869,-0.25501 0.838586,-1.144122 1.032922,-1.174946 0.194337,-0.03083 0.840626,-0.234191 1.159877,-0.0602 0.487622,0.265749 0.559272,1.40611 0.559272,1.40611 l 0.878497,-0.216402 z"
       id="path10039"
       sodipodi:nodetypes="ccsssssscsssssssscsssssssssssssscsssscssssssssscssssssssssssscssssssscssssssssssssscsssssscssssssssssscssssssssscsssssccc" /><path
       style="fill:#9a989f;stroke:none;stroke-width:0.264583px;stroke-linecap:butt;stroke-linejoin:miter;stroke-opacity:1;fill-opacity:1"
       d="m 54.657405,18.251635 2.754754,0.3358 0.97268,3.966885 -2.084718,1.865264 z"
       id="path10041" /><rect
       style="fill:#676767;fill-opacity:1;stroke:none;stroke-width:0.665001;stroke-linecap:round;stroke-linejoin:round;stroke-dasharray:none;stroke-opacity:1"
       id="rect27527"
       width="1.9341513"
       height="2.7390914"
       x="23.111444"
       y="31.579294"
       transform="rotate(-10.258858)" /><rect
       style="fill:#6e6e70;fill-opacity:1;stroke:none;stroke-width:1.365;stroke-linecap:round"
       id="rect10043"
       width="2.4507039"
       height="3.9278483"
       x="49.189369"
       y="37.610653"
       transform="rotate(-13.261839)" /><path
       style="fill:none;stroke:#676767;stroke-width:0.96500002;stroke-linecap:round;stroke-linejoin:round;stroke-opacity:1;stroke-dasharray:none"
       d="m 27.762213,26.761244 v -3.353918 h -9.185127 v 3.634487"
       id="path27534" /><path
       style="fill:#0e111b;stroke:none;stroke-width:0.264583px;stroke-linecap:butt;stroke-linejoin:miter;stroke-opacity:1;fill-opacity:1"
       d="m 28.804647,47.027708 4.018439,-1.13846 0.214789,-1.223256 -1.696101,-1.770039 -0.09337,-2.519349 -0.03032,-4.429784 -1.790163,0.345282 -0.588695,-10.418131 -2.076627,0.368951 0.615042,12.977916 0.174151,4.938673 z"
       id="path10045" /><path
       style="fill:#10131d;fill-opacity:1;stroke:none;stroke-width:0.264583px;stroke-linecap:butt;stroke-linejoin:miter;stroke-opacity:1"
       d="m 31.940606,38.325528 0.08468,0.569485 0.45641,0.425962 -0.01317,0.365673 -0.870001,-0.488487 -0.460005,-0.83337 z"
       id="path10047" /><g
       id="g38009"
       inkscape:label="attachiebit"><rect
         style="fill:#a2a0a8;fill-opacity:1;stroke:none;stroke-width:0.865;stroke-linecap:round;stroke-dasharray:none;stroke-opacity:1"
         id="rect16511"
         width="2.453181"
         height="5.1994705"
         x="26.583574"
         y="31.575802"
         transform="rotate(-14.145631)" /><rect
         style="fill:#a2a0a8;fill-opacity:1;stroke:none;stroke-width:0.865;stroke-linecap:round;stroke-dasharray:none;stroke-opacity:1"
         id="rect16617"
         width="1.1503359"
         height="2.8636153"
         x="30.517824"
         y="31.603434"
         transform="rotate(-11.522957)" /></g><path
       style="fill:#0f121c;fill-opacity:1;stroke:none;stroke-width:0.264583px;stroke-linecap:butt;stroke-linejoin:miter;stroke-opacity:1"
       d="m 31.488263,37.425918 1.214893,-0.279392 -3.33597,-12.649358 4.154188,-1.225002 2.188846,8.228354 0.968863,-0.103824 0.310088,1.473811 -0.906782,0.07161 0.429849,1.492102 8.927171,-2.543702 0.96003,3.954365 -8.387413,2.977607 -0.598096,-1.981562 -6.300391,1.693236 0.06292,-1.2806 z"
       id="path10049"
       sodipodi:nodetypes="cccccccccccccccc" /><path
       style="fill:#0f121c;fill-opacity:1;stroke:none;stroke-width:0.264583px;stroke-linecap:butt;stroke-linejoin:miter;stroke-opacity:1"
       d="m 31.036331,40.186112 6.797004,-2.365747 0.331014,0.709822 -7.142751,2.452689 z"
       id="path10051"
       sodipodi:nodetypes="ccccc" /><path
       style="fill:#0f111b;stroke:none;stroke-width:0.264583px;stroke-linecap:butt;stroke-linejoin:miter;stroke-opacity:1;fill-opacity:1"
       d="m 36.617783,22.619691 1.803265,6.810447 5.251278,-1.924637 -1.308325,-5.992844 z"
       id="path10053" /><path
       style="fill:none;stroke:#6a6a6a;stroke-width:0.665;stroke-linecap:butt;stroke-linejoin:round;stroke-opacity:1;stroke-dasharray:none"
       d="m 37.105762,31.085208 1.350168,1.707586 0.411015,-2.338041 1.325528,1.891718 0.313311,-2.108607 1.219108,1.595498 0.553908,-2.241487 1.328996,1.946868"
       id="path25317" /><g
       id="g38001"
       inkscape:label="spring"><path
         style="fill:none;stroke:#949494;stroke-width:0.865;stroke-linecap:butt;stroke-linejoin:miter;stroke-opacity:1;stroke-dasharray:none;fill-opacity:1"
         d="m 36.715866,30.310166 0.822296,3.61211"
         id="path25315" /><path
         style="fill:none;stroke:#949494;stroke-width:0.865;stroke-linecap:butt;stroke-linejoin:miter;stroke-dasharray:none;stroke-opacity:1"
         d="m 43.360552,28.678212 0.663313,3.1183"
         id="path25373" /></g><g
       id="g37996"
       inkscape:label="wires"><path
         style="fill:none;stroke:#ff0b0b;stroke-width:0.965;stroke-linecap:round;stroke-linejoin:miter;stroke-opacity:1;stroke-dasharray:none;fill-opacity:1"
         d="m 39.067843,26.667269 1.293434,4.81185 -0.652994,3.836374 -1.008888,1.650952"
         id="path10055" /><path
         style="fill:#a2a0a8;stroke:#ff0b0b;stroke-width:0.865;stroke-linecap:round;stroke-linejoin:miter;stroke-opacity:1;stroke-dasharray:none;fill-opacity:1"
         d="m 41.590409,26.016969 1.278739,6.187516 0.988849,3.255179"
         id="path10057" /></g><path
       style="fill:none;stroke:#a5a5a5;stroke-width:1.265;stroke-linecap:butt;stroke-linejoin:miter;stroke-dasharray:none;stroke-opacity:1"
       d="m 41.778686,18.215553 4.828358,17.656669 15.981899,4.282337"
       id="path26272" /><circle
       style="fill:#676767;fill-opacity:1;stroke:none;stroke-width:0.778465;stroke-linecap:round;stroke-linejoin:round;stroke-dasharray:none;stroke-opacity:1"
       id="path26380"
       cy="24.137375"
       cx="54.628456"
       r="1.0838113" /><path
       style="fill:none;stroke:#b1b1b1;stroke-width:0.665;stroke-linecap:round;stroke-linejoin:round;stroke-dasharray:none;stroke-opacity:1"
       d="m 54.702895,23.97579 3.042116,11.587575"
       id="path26274"
       sodipodi:nodetypes="cc" /><path
       style="fill:#c4c8c5;fill-opacity:1;stroke:none;stroke-width:0.264583px;stroke-linecap:butt;stroke-linejoin:miter;stroke-opacity:1"
       d="m 9.9452087,26.950688 -2.6327023,1.899357 v 9.26175 l 3.0918396,1.303324 13.930464,-0.173265 1.70746,-1.700629 -0.327667,-9.627421 -1.427423,-1.137789 z"
       id="path27676"
       sodipodi:nodetypes="ccccccccc" /><path
       style="fill:#f5f6f6;stroke:none;stroke-width:0.264583px;stroke-linecap:butt;stroke-linejoin:miter;stroke-opacity:1;fill-opacity:1"
       d="m 12.615932,29.173889 -0.629168,-0.811043 -0.587855,0.246057 -0.342403,0.80654 -0.0327,1.144678 0.746902,0.901763 1.559692,-0.12206 0.610474,0.325247 1.566459,-0.09844 0.496388,-0.868349 -0.08289,-1.376884 -0.49243,-0.859649 -0.924223,-0.382416 -1.150146,0.425111 -0.438773,0.629876 -0.06766,1.214627 -0.649399,-0.01598 0.02247,-0.701318 z"
       id="path27678" /><ellipse
       style="fill:#c4c8c5;fill-opacity:1;stroke:none;stroke-width:0.964999;stroke-linecap:round;stroke-linejoin:round;stroke-dasharray:none;stroke-opacity:1"
       id="path28129"
       cx="14.592148"
       cy="30.105755"
       rx="0.40190017"
       ry="0.66410065" /><path
       style="fill:#f5f6f6;stroke:none;stroke-width:0.264583px;stroke-linecap:butt;stroke-linejoin:miter;stroke-opacity:1;fill-opacity:1"
       d="m 14.4736,32.215195 -2.954688,1.705888 v 0.914411 l 3.035178,-1.354413 v 0.608013 l -3.046389,1.758833 v 0.838684 l 3.054325,-1.306721 v 1.357728 h 1.454741 v -4.595223 z"
       id="path28993" /><path
       style="fill:#f5f6f6;stroke:none;stroke-width:0.264583px;stroke-linecap:butt;stroke-linejoin:miter;stroke-opacity:1;fill-opacity:1"
       d="m 11.421076,39.179484 0.01833,-0.713013 h 1.887193 v -1.045289 h 1.27213 v 1.542462 h 0.354627 v -1.572246 h 0.993702 v 1.698294 l -4.472393,0.302612 z"
       id="path29547" /><rect
       style="fill:#a9a7af;fill-opacity:1;stroke:none;stroke-width:0.97232;stroke-linecap:round;stroke-linejoin:round;stroke-dasharray:none;stroke-opacity:1"
       id="rect31809"
       width="1.3886466"
       height="13.176796"
       x="17.944113"
       y="26.657013"
       ry="0.70489889" /><rect
       style="fill:#a9a7af;fill-opacity:1;stroke:none;stroke-width:0.857913;stroke-linecap:round;stroke-linejoin:round;stroke-dasharray:none;stroke-opacity:1"
       id="rect31809-1"
       width="1.3886466"
       height="10.258358"
       x="6.0622392"
       y="28.295116"
       ry="0.54877567" /><rect
       style="fill:#a9a7af;fill-opacity:1;stroke:none;stroke-width:0.857913;stroke-linecap:round;stroke-linejoin:round;stroke-dasharray:none;stroke-opacity:1"
       id="rect31809-1-2"
       width="1.3886466"
       height="10.258358"
       x="24.415932"
       y="28.57773"
       ry="0.54877567"
       transform="rotate(-2.3375573)" /><g
       id="g34096"
       inkscape:label="eyeball top"><circle
         style="fill:#ffffff;fill-opacity:1;stroke:#000000;stroke-width:0.2;stroke-linecap:round;stroke-linejoin:round;stroke-dasharray:none;stroke-opacity:1"
         id="path33080"
         cx="21.742363"
         cy="32.447437"
         r="1.3591522" /><circle
         style="fill:#000000;fill-opacity:1;stroke:none;stroke-width:0.2;stroke-linecap:round;stroke-linejoin:round;stroke-dasharray:none;stroke-opacity:1"
         id="path33914"
         cx="21.760944"
         cy="32.440971"
         r="0.65265709" /></g><g
       id="g34102"
       transform="translate(0.11453676,4.0957452)"
       inkscape:label="eyeball bottom"><circle
         style="fill:#ffffff;fill-opacity:1;stroke:#000000;stroke-width:0.2;stroke-linecap:round;stroke-linejoin:round;stroke-dasharray:none;stroke-opacity:1"
         id="circle34098"
         cx="21.742363"
         cy="32.447437"
         r="1.3591522" /><circle
         style="fill:#000000;fill-opacity:1;stroke:none;stroke-width:0.2;stroke-linecap:round;stroke-linejoin:round;stroke-dasharray:none;stroke-opacity:1"
         id="circle34100"
         cx="21.760944"
         cy="32.440971"
         r="0.65265709" /></g></g></svg>
