<?xml version="1.0" encoding="UTF-8" standalone="no"?>
<!-- Created with Inkscape (http://www.inkscape.org/) -->

<svg
   width="256"
   height="256"
   viewBox="0 0 67.733332 67.733333"
   version="1.1"
   id="svg5"
   inkscape:version="1.2.1 (9c6d41e410, 2022-07-14, custom)"
   sodipodi:docname="bomblaunchertemp.svg"
   xmlns:inkscape="http://www.inkscape.org/namespaces/inkscape"
   xmlns:sodipodi="http://sodipodi.sourceforge.net/DTD/sodipodi-0.dtd"
   xmlns:xlink="http://www.w3.org/1999/xlink"
   xmlns="http://www.w3.org/2000/svg"
   xmlns:svg="http://www.w3.org/2000/svg">
  <sodipodi:namedview
     id="namedview7"
     pagecolor="#505050"
     bordercolor="#eeeeee"
     borderopacity="1"
     inkscape:showpageshadow="0"
     inkscape:pageopacity="0"
     inkscape:pagecheckerboard="0"
     inkscape:deskcolor="#505050"
     inkscape:document-units="mm"
     showgrid="false"
     inkscape:zoom="2.1543899"
     inkscape:cx="225.81799"
     inkscape:cy="86.103262"
     inkscape:window-width="1916"
     inkscape:window-height="1036"
     inkscape:window-x="0"
     inkscape:window-y="20"
     inkscape:window-maximized="1"
     inkscape:current-layer="layer1" />
  <defs
     id="defs2">
    <linearGradient
       id="linearGradient2339"
       inkscape:swatch="solid">
      <stop
         style="stop-color:#3a0dcd;stop-opacity:1;"
         offset="0"
         id="stop2337" />
    </linearGradient>
    <linearGradient
       id="linearGradient794"
       inkscape:swatch="solid">
      <stop
         style="stop-color:#35bfc2;stop-opacity:1;"
         offset="0"
         id="stop792" />
    </linearGradient>
    <linearGradient
       inkscape:collect="always"
       xlink:href="#linearGradient794"
       id="linearGradient796"
       x1="6.5224088"
       y1="20.898144"
       x2="24.422064"
       y2="20.898144"
       gradientUnits="userSpaceOnUse" />
    <linearGradient
       inkscape:collect="always"
       xlink:href="#linearGradient794"
       id="linearGradient2110"
       gradientUnits="userSpaceOnUse"
       x1="6.5224088"
       y1="20.898144"
       x2="24.422064"
       y2="20.898144"
       gradientTransform="matrix(0.63637146,0,0,0.63637146,5.5659523,7.5996892)" />
    <linearGradient
       inkscape:collect="always"
       xlink:href="#linearGradient2339"
       id="linearGradient2341"
       x1="44.219523"
       y1="30.945915"
       x2="54.124345"
       y2="30.945915"
       gradientUnits="userSpaceOnUse" />
    <linearGradient
       inkscape:collect="always"
       xlink:href="#linearGradient2339"
       id="linearGradient2376"
       gradientUnits="userSpaceOnUse"
       x1="44.219523"
       y1="30.945915"
       x2="54.124345"
       y2="30.945915"
       gradientTransform="translate(-14.679755,7.8900557)" />
    <linearGradient
       inkscape:collect="always"
       xlink:href="#linearGradient2339"
       id="linearGradient2467"
       gradientUnits="userSpaceOnUse"
       gradientTransform="translate(-14.679755,7.8900557)"
       x1="44.219523"
       y1="30.945915"
       x2="54.124345"
       y2="30.945915" />
    <linearGradient
       inkscape:collect="always"
       xlink:href="#linearGradient2339"
       id="linearGradient2477"
       gradientUnits="userSpaceOnUse"
       gradientTransform="translate(-14.679755,7.8900557)"
       x1="44.219523"
       y1="30.945915"
       x2="54.124345"
       y2="30.945915" />
    <linearGradient
       inkscape:collect="always"
       xlink:href="#linearGradient2339"
       id="linearGradient2487"
       gradientUnits="userSpaceOnUse"
       gradientTransform="translate(-14.679755,7.8900557)"
       x1="44.219523"
       y1="30.945915"
       x2="54.124345"
       y2="30.945915" />
  </defs>
  <g
     inkscape:label="Layer 1"
     inkscape:groupmode="layer"
     id="layer1">
    <g
       id="g2528"
       transform="matrix(1.4197451,-0.54681227,0.54681227,1.4197451,-20.668132,16.323426)">
      <g
         id="g2457"
         transform="matrix(0.55891621,0,0,0.55891621,12.234389,-4.649565)">
        <g
           id="g2452">
          <path
             id="path2374"
             style="fill:url(#linearGradient2376);fill-opacity:1;stroke-width:0.750001;stroke-linecap:round;stroke-dasharray:none;stroke-opacity:0.998965;paint-order:stroke fill markers"
             d="m 29.543902,36.304342 a 4.9525962,4.9525962 0 0 0 -0.0041,0.110588 4.9525962,4.9525962 0 0 0 4.952669,4.952669 4.9525962,4.9525962 0 0 0 4.952153,-4.952669 4.9525962,4.9525962 0 0 0 -0.0015,-0.110588 z" />
        </g>
        <path
           id="path2378"
           style="fill:#ffffff;fill-opacity:1;stroke-width:0.750001;stroke-linecap:round;stroke-dasharray:none;stroke-opacity:0.998965;paint-order:stroke fill markers"
           d="m 29.543902,36.396867 a 4.9525962,4.9525962 0 0 1 -0.0041,-0.110588 4.9525962,4.9525962 0 0 1 4.952669,-4.952669 4.9525962,4.9525962 0 0 1 4.952153,4.952669 4.9525962,4.9525962 0 0 1 -0.0015,0.110588 z" />
      </g>
      <g
         id="g2465"
         transform="matrix(0.55891621,0,0,0.55891621,3.5336214,-3.7673203)">
        <g
           id="g2461">
          <path
             id="path2459"
             style="fill:url(#linearGradient2467);fill-opacity:1;stroke-width:0.750001;stroke-linecap:round;stroke-dasharray:none;stroke-opacity:0.998965;paint-order:stroke fill markers"
             d="m 29.543902,36.304342 a 4.9525962,4.9525962 0 0 0 -0.0041,0.110588 4.9525962,4.9525962 0 0 0 4.952669,4.952669 4.9525962,4.9525962 0 0 0 4.952153,-4.952669 4.9525962,4.9525962 0 0 0 -0.0015,-0.110588 z" />
        </g>
        <path
           id="path2463"
           style="fill:#ffffff;fill-opacity:1;stroke-width:0.750001;stroke-linecap:round;stroke-dasharray:none;stroke-opacity:0.998965;paint-order:stroke fill markers"
           d="m 29.543902,36.396867 a 4.9525962,4.9525962 0 0 1 -0.0041,-0.110588 4.9525962,4.9525962 0 0 1 4.952669,-4.952669 4.9525962,4.9525962 0 0 1 4.952153,4.952669 4.9525962,4.9525962 0 0 1 -0.0015,0.110588 z" />
      </g>
      <g
         id="g2475"
         transform="matrix(0.55891621,0,0,0.55891621,-5.6166493,-2.3617783)">
        <g
           id="g2471">
          <path
             id="path2469"
             style="fill:url(#linearGradient2477);fill-opacity:1;stroke-width:0.750001;stroke-linecap:round;stroke-dasharray:none;stroke-opacity:0.998965;paint-order:stroke fill markers"
             d="m 29.543902,36.304342 a 4.9525962,4.9525962 0 0 0 -0.0041,0.110588 4.9525962,4.9525962 0 0 0 4.952669,4.952669 4.9525962,4.9525962 0 0 0 4.952153,-4.952669 4.9525962,4.9525962 0 0 0 -0.0015,-0.110588 z" />
        </g>
        <path
           id="path2473"
           style="fill:#ffffff;fill-opacity:1;stroke-width:0.750001;stroke-linecap:round;stroke-dasharray:none;stroke-opacity:0.998965;paint-order:stroke fill markers"
           d="m 29.543902,36.396867 a 4.9525962,4.9525962 0 0 1 -0.0041,-0.110588 4.9525962,4.9525962 0 0 1 4.952669,-4.952669 4.9525962,4.9525962 0 0 1 4.952153,4.952669 4.9525962,4.9525962 0 0 1 -0.0015,0.110588 z" />
      </g>
      <g
         id="g2485"
         transform="matrix(0.55891621,0,0,0.55891621,-9.3074715,2.6828189)">
        <g
           id="g2481">
          <path
             id="path2479"
             style="fill:url(#linearGradient2487);fill-opacity:1;stroke-width:0.750001;stroke-linecap:round;stroke-dasharray:none;stroke-opacity:0.998965;paint-order:stroke fill markers"
             d="m 29.543902,36.304342 a 4.9525962,4.9525962 0 0 0 -0.0041,0.110588 4.9525962,4.9525962 0 0 0 4.952669,4.952669 4.9525962,4.9525962 0 0 0 4.952153,-4.952669 4.9525962,4.9525962 0 0 0 -0.0015,-0.110588 z" />
        </g>
        <path
           id="path2483"
           style="fill:#ffffff;fill-opacity:1;stroke-width:0.750001;stroke-linecap:round;stroke-dasharray:none;stroke-opacity:0.998965;paint-order:stroke fill markers"
           d="m 29.543902,36.396867 a 4.9525962,4.9525962 0 0 1 -0.0041,-0.110588 4.9525962,4.9525962 0 0 1 4.952669,-4.952669 4.9525962,4.9525962 0 0 1 4.952153,4.952669 4.9525962,4.9525962 0 0 1 -0.0015,0.110588 z" />
      </g>
      <g
         id="g2226"
         transform="matrix(1.6350465,0,0,1.6350465,-3.9151984,-9.4576593)">
        <path
           style="fill:none;stroke:url(#linearGradient796);stroke-width:0.865;stroke-linecap:butt;stroke-linejoin:miter;stroke-dasharray:none;stroke-opacity:1"
           d="m 24.381074,15.320122 c 0,0 -11.851392,1.86142 -16.1772831,2.897451 -1.3813497,0.330827 -1.9407252,2.715932 -1.3938234,4.026837 0.6997769,1.677341 3.1488836,1.156768 4.9218815,0.757218 3.719801,-0.838267 11.317227,-1.785619 11.317227,-1.785619"
           id="path236"
           sodipodi:nodetypes="csssc" />
        <rect
           style="fill:#35bfc2;fill-opacity:1;stroke-width:0.750001;stroke-linecap:round;stroke-dasharray:none;stroke-opacity:0.998965;paint-order:stroke fill markers"
           id="rect2164"
           width="0.68809479"
           height="1.9922487"
           x="13.476755"
           y="19.356009"
           ry="0.3440474"
           transform="rotate(-11.178219)" />
        <rect
           style="fill:#35bfc2;fill-opacity:1;stroke-width:0.750001;stroke-linecap:round;stroke-dasharray:none;stroke-opacity:0.998965;paint-order:stroke fill markers"
           id="rect2166"
           width="0.68809479"
           height="1.9922487"
           x="11.094987"
           y="19.142141"
           ry="0.3440474"
           transform="rotate(-11.178219)" />
        <rect
           style="fill:#35bfc2;fill-opacity:1;stroke-width:0.750001;stroke-linecap:round;stroke-dasharray:none;stroke-opacity:0.998965;paint-order:stroke fill markers"
           id="rect2168"
           width="0.68809479"
           height="1.9922487"
           x="8.9687319"
           y="19.180466"
           ry="0.3440474"
           transform="rotate(-11.178219)" />
        <rect
           style="fill:#35bfc2;fill-opacity:1;stroke-width:0.750001;stroke-linecap:round;stroke-dasharray:none;stroke-opacity:0.998965;paint-order:stroke fill markers"
           id="rect2170"
           width="0.68809479"
           height="1.9922487"
           x="6.4595199"
           y="19.225651"
           ry="0.3440474"
           transform="rotate(-11.178219)" />
        <rect
           style="fill:#35bfc2;fill-opacity:1;stroke-width:0.750001;stroke-linecap:round;stroke-dasharray:none;stroke-opacity:0.998965;paint-order:stroke fill markers"
           id="rect2172"
           width="0.68809479"
           height="1.9922487"
           x="-8.7886953"
           y="18.221037"
           ry="0.3440474"
           transform="rotate(-45.752281)" />
        <rect
           style="fill:#35bfc2;fill-opacity:1;stroke-width:0.750001;stroke-linecap:round;stroke-dasharray:none;stroke-opacity:0.998965;paint-order:stroke fill markers"
           id="rect2174"
           width="0.68809479"
           height="1.9922487"
           x="-21.734892"
           y="3.4138026"
           ry="0.3440474"
           transform="rotate(-103.2393)" />
        <rect
           style="fill:#35bfc2;fill-opacity:1;stroke-width:0.750001;stroke-linecap:round;stroke-dasharray:none;stroke-opacity:0.998965;paint-order:stroke fill markers"
           id="rect2176"
           width="0.68809479"
           height="1.9922487"
           x="-22.884176"
           y="3.164402"
           ry="0.3440474"
           transform="rotate(-103.2393)" />
        <path
           style="fill:none;stroke:url(#linearGradient2110);stroke-width:0.75;stroke-linecap:butt;stroke-linejoin:miter;stroke-dasharray:none;stroke-opacity:1"
           d="m 24.513008,16.882679 c 0,0 -10.973524,1.650853 -13.726397,2.310154 -0.8790519,0.210529 -1.2350225,1.728341 -0.8869898,2.562564 0.4453178,1.067412 1.1779698,1.926382 2.3345338,1.932487 2.019862,0.01066 10.860533,-1.089195 10.860533,-1.089195"
           id="path2108"
           sodipodi:nodetypes="csssc" />
        <rect
           style="fill:#35bfc2;fill-opacity:1;stroke-width:0.750001;stroke-linecap:round;stroke-dasharray:none;stroke-opacity:0.998965;paint-order:stroke fill markers"
           id="rect2178"
           width="0.68809479"
           height="1.9922487"
           x="-20.573009"
           y="8.8359165"
           ry="0.3440474"
           transform="rotate(-84.35473)" />
        <rect
           style="fill:#35bfc2;fill-opacity:1;stroke-width:0.750001;stroke-linecap:round;stroke-dasharray:none;stroke-opacity:0.998965;paint-order:stroke fill markers"
           id="rect2180"
           width="0.68809479"
           height="1.9922487"
           x="-23.751101"
           y="1.4928952"
           ry="0.3440474"
           transform="rotate(-103.397)" />
        <rect
           style="fill:#35bfc2;fill-opacity:1;stroke-width:0.750001;stroke-linecap:round;stroke-dasharray:none;stroke-opacity:0.998965;paint-order:stroke fill markers"
           id="rect2182"
           width="0.68809479"
           height="1.9922487"
           x="-23.766031"
           y="2.7866323"
           ry="0.3440474"
           transform="rotate(-103.397)" />
        <rect
           style="fill:#35bfc2;fill-opacity:1;stroke-width:0.750001;stroke-linecap:round;stroke-dasharray:none;stroke-opacity:0.998965;paint-order:stroke fill markers"
           id="rect2184"
           width="0.68809479"
           height="1.9922487"
           x="-24.764711"
           y="3.005136"
           ry="0.3440474"
           transform="rotate(-103.397)" />
        <rect
           style="fill:#35bfc2;fill-opacity:1;stroke-width:0.750001;stroke-linecap:round;stroke-dasharray:none;stroke-opacity:0.998965;paint-order:stroke fill markers"
           id="rect2186"
           width="0.66194427"
           height="1.5958092"
           x="11.490614"
           y="23.434492"
           ry="0.3440474"
           transform="rotate(-5.1948433)" />
        <rect
           style="fill:#35bfc2;fill-opacity:1;stroke-width:0.750001;stroke-linecap:round;stroke-dasharray:none;stroke-opacity:0.998965;paint-order:stroke fill markers"
           id="rect2188"
           width="0.66194427"
           height="1.5958092"
           x="13.090084"
           y="23.434645"
           ry="0.3440474"
           transform="rotate(-5.1948433)" />
        <rect
           style="fill:#35bfc2;fill-opacity:1;stroke-width:0.750001;stroke-linecap:round;stroke-dasharray:none;stroke-opacity:0.998965;paint-order:stroke fill markers"
           id="rect2190"
           width="0.66194427"
           height="1.5958092"
           x="14.480076"
           y="23.425472"
           ry="0.3440474"
           transform="rotate(-5.1948433)" />
        <rect
           style="fill:#35bfc2;fill-opacity:1;stroke-width:0.750001;stroke-linecap:round;stroke-dasharray:none;stroke-opacity:0.998965;paint-order:stroke fill markers"
           id="rect2192"
           width="0.66194427"
           height="1.5958092"
           x="16.197336"
           y="23.277737"
           ry="0.3440474"
           transform="rotate(-5.1948433)" />
        <rect
           style="fill:#35bfc2;fill-opacity:1;stroke-width:0.750001;stroke-linecap:round;stroke-dasharray:none;stroke-opacity:0.998965;paint-order:stroke fill markers"
           id="rect2194"
           width="0.66194427"
           height="1.5958092"
           x="17.848526"
           y="23.212267"
           ry="0.3440474"
           transform="rotate(-5.1948433)" />
        <rect
           style="fill:#35bfc2;fill-opacity:1;stroke-width:0.750001;stroke-linecap:round;stroke-dasharray:none;stroke-opacity:0.998965;paint-order:stroke fill markers"
           id="rect2196"
           width="0.66194427"
           height="1.5958092"
           x="19.387506"
           y="23.145365"
           ry="0.3440474"
           transform="rotate(-5.1948433)" />
        <rect
           style="fill:#35bfc2;fill-opacity:1;stroke-width:0.750001;stroke-linecap:round;stroke-dasharray:none;stroke-opacity:0.998965;paint-order:stroke fill markers"
           id="rect2198"
           width="0.68809479"
           height="1.9922487"
           x="15.026153"
           y="19.374355"
           ry="0.3440474"
           transform="rotate(-11.178219)" />
        <rect
           style="fill:#35bfc2;fill-opacity:1;stroke-width:0.750001;stroke-linecap:round;stroke-dasharray:none;stroke-opacity:0.998965;paint-order:stroke fill markers"
           id="rect2200"
           width="0.68809479"
           height="1.9922487"
           x="16.780928"
           y="19.423216"
           ry="0.3440474"
           transform="rotate(-11.178219)" />
        <rect
           style="fill:#35bfc2;fill-opacity:1;stroke-width:0.750001;stroke-linecap:round;stroke-dasharray:none;stroke-opacity:0.998965;paint-order:stroke fill markers"
           id="rect2202"
           width="0.68809479"
           height="1.9922487"
           x="18.781322"
           y="19.42775"
           ry="0.3440474"
           transform="rotate(-11.178219)" />
      </g>
    </g>
    <g
       id="g2532"
       transform="matrix(-1,0,0,1,104.10583,7.3564997)">
      <path
         id="path2280"
         style="fill:url(#linearGradient2341);fill-opacity:1;stroke-width:0.750001;stroke-linecap:round;stroke-dasharray:none;stroke-opacity:0.998965;paint-order:stroke fill markers"
         d="m 44.223657,28.414286 a 4.9525962,4.9525962 0 0 0 -0.0041,0.110588 4.9525962,4.9525962 0 0 0 4.952669,4.952669 4.9525962,4.9525962 0 0 0 4.952153,-4.952669 4.9525962,4.9525962 0 0 0 -0.0015,-0.110588 z" />
      <path
         id="path2343"
         style="fill:#ffffff;fill-opacity:1;stroke-width:0.750001;stroke-linecap:round;stroke-dasharray:none;stroke-opacity:0.998965;paint-order:stroke fill markers"
         d="m 58.741384,19.85612 a 4.9525962,4.9525962 0 0 1 0.09782,0.05174 4.9525962,4.9525962 0 0 1 1.812803,6.765471 4.9525962,4.9525962 0 0 1 -6.765214,1.812356 4.9525962,4.9525962 0 0 1 -0.09497,-0.05668 z" />
    </g>
  </g>
</svg>
