<?xml version="1.0" encoding="UTF-8" standalone="no"?>
<!-- Created with Inkscape (http://www.inkscape.org/) -->

<svg
   width="256"
   height="256"
   viewBox="0 0 67.733332 67.733333"
   version="1.1"
   id="svg11778"
   inkscape:version="1.2.1 (9c6d41e410, 2022-07-14, custom)"
   sodipodi:docname="booyahbomb.svg"
   xmlns:inkscape="http://www.inkscape.org/namespaces/inkscape"
   xmlns:sodipodi="http://sodipodi.sourceforge.net/DTD/sodipodi-0.dtd"
   xmlns:xlink="http://www.w3.org/1999/xlink"
   xmlns="http://www.w3.org/2000/svg"
   xmlns:svg="http://www.w3.org/2000/svg">
  <sodipodi:namedview
     id="namedview11780"
     pagecolor="#505050"
     bordercolor="#eeeeee"
     borderopacity="1"
     inkscape:showpageshadow="0"
     inkscape:pageopacity="0"
     inkscape:pagecheckerboard="0"
     inkscape:deskcolor="#505050"
     inkscape:document-units="mm"
     showgrid="false"
     inkscape:zoom="2.7136602"
     inkscape:cx="96.732819"
     inkscape:cy="142.42756"
     inkscape:window-width="1916"
     inkscape:window-height="1036"
     inkscape:window-x="0"
     inkscape:window-y="20"
     inkscape:window-maximized="1"
     inkscape:current-layer="layer1" />
  <defs
     id="defs11775">
    <linearGradient
       inkscape:collect="always"
       xlink:href="#linearGradient53638"
       id="linearGradient24624"
       x1="13.66337"
       y1="194.90398"
       x2="39.065578"
       y2="194.90398"
       gradientUnits="userSpaceOnUse"
       gradientTransform="matrix(1.9078546,0,0,1.9078546,-19.210037,-340.10739)" />
    <linearGradient
       id="linearGradient53638"
       inkscape:swatch="solid">
      <stop
         style="stop-color:#3a0dcd;stop-opacity:1;"
         offset="0"
         id="stop53636" />
    </linearGradient>
  </defs>
  <g
     inkscape:label="Layer 1"
     inkscape:groupmode="layer"
     id="layer1">
    <path
       style="fill:#ffffff;fill-opacity:1;stroke:none;stroke-width:0.504786px;stroke-linecap:butt;stroke-linejoin:miter;stroke-opacity:1"
       d="m 41.184699,56.179195 -0.01889,-0.83627 0.443338,-1.223908 1.472938,2.44047 c 0,0 1.634339,-0.237108 2.475194,0.05094 0.531007,0.181818 0.942129,0.913519 1.110213,1.152382 0.292031,0.415016 0.387441,0.778958 0.172222,1.570374 -0.215212,0.791417 -1.147283,1.292362 -1.983313,1.290454 -0.854806,-0.0019 -1.683496,-0.548737 -2.165659,-1.373388 -0.180635,-0.30892 -0.313739,-1.218509 -0.313739,-1.218509 z"
       id="path24630"
       sodipodi:nodetypes="ccccssssscc" />
    <path
       id="path24616"
       style="fill:url(#linearGradient24624);fill-opacity:1;stroke:none;stroke-width:0.504786px;stroke-linecap:butt;stroke-linejoin:miter;stroke-opacity:1"
       d="m 42.891143,27.351855 3.921752,-0.07803 3.706946,0.519203 3.020056,0.74248 1.781509,1.473779 -0.04564,1.850524 -1.818893,1.465919 -2.702593,-0.244911 -5.548117,-3.015422 z m -20.1932,9.462959 -5.560077,5.539913 -1.267757,3.586634 0.256902,1.621943 1.971932,0.33479 2.194593,-0.161404 1.246711,-3.14899 1.487137,-3.709404 z m 21.819959,-18.697166 1.803438,0.551942 3.523798,0.09272 1.945407,-1.216982 -0.01259,-2.282252 -1.448271,-1.12987 -1.981605,0.486083 -3.940498,2.868956 z M 19.403616,13.739599 19.090071,11.745757 17.464707,8.3978153 15.264576,7.2543236 l -2.338548,1.2802277 -0.453629,1.9828147 1.466905,1.583614 4.871448,2.091677 z m -0.7265,11.864776 -9.2236412,1.194908 -2.3393636,0.817554 -0.2564252,1.990331 1.1487097,1.693755 2.1929723,0.453097 9.189475,-3.966678 z m 11.718702,-13.097995 0.365327,-5.8119354 0.531378,-2.137236 1.90041,-1.3056784 1.912994,0.3854629 1.085917,1.9884424 -0.523596,2.0277251 -2.852174,5.5984664 z m 9.70318,10.684768 c 2e-6,6.032732 -4.890495,10.923231 -10.923229,10.923231 -6.032733,0 -10.923231,-4.890499 -10.923229,-10.923231 -2e-6,-6.032731 4.890496,-10.92323 10.923229,-10.92323 6.032734,0 10.923231,4.890499 10.923229,10.92323 z m -4.117736,26.647368 c 0,0 -1.643223,1.738723 -2.078964,2.823129 -0.58391,1.453136 -0.285066,3.126153 -0.60633,4.658924 -0.170562,0.813738 -0.698406,2.39451 -0.698406,2.39451 l 2.563563,0.515521 4.345576,-0.04903 2.149244,-0.564439 c 0,0 -0.465145,-1.151409 -0.543658,-1.760568 -0.108386,-0.840887 -0.04045,-1.706709 0.109701,-2.541148 0.14845,-0.825051 0.710224,-1.556923 0.774146,-2.392774 0.05926,-0.774913 -0.372033,-2.301635 -0.372033,-2.301635 l -3.261371,-1.950438 0.394436,-3.016318 3.054065,0.800383 3.445456,2.321534 -0.42598,1.34355 c 0,0 -0.06824,1.807234 0.437085,2.475727 0.469483,0.621064 1.329805,0.919758 2.102134,1.017974 0.611858,0.07784 1.360662,0.05399 1.814201,-0.363999 0.566929,-0.522504 0.908435,-1.97608 0.638107,-2.223204 -0.270329,-0.247106 -0.729846,-0.451208 -0.848028,-0.828257 -0.288899,-0.921685 0.370649,-1.89595 0.546408,-2.845737 0.17144,-0.926454 0.570464,-1.843541 0.495649,-2.782759 -0.08295,-1.041402 -0.677802,-2.453691 -1.031127,-2.959654 -0.491104,-0.703255 -1.079842,-1.372587 -1.799261,-1.839706 -0.662609,-0.430222 -1.345829,-0.553469 -2.222105,-0.824365 -0.493079,-0.152438 -1.696581,-0.455043 -2.276603,-0.494096 -1.310465,-0.08833 -2.178253,-0.09921 -3.290366,0.599581 -1.004234,0.631004 -1.801515,2.65064 -2.455331,3.640167 -0.684025,1.035279 -1.555142,2.434881 -1.555142,2.434881 l -0.973591,0.168845 -0.97553,1.830625 0.65091,2.18684 z"
       sodipodi:nodetypes="ccccccccccccccccccccccccccccccccccccccccccccccccccccccssssscssccccsssccccccsssssssssssssccccc" />
    <path
       style="fill:#ffffff;fill-opacity:1;stroke:none;stroke-width:0.504786px;stroke-linecap:butt;stroke-linejoin:miter;stroke-opacity:1"
       d="m 39.446466,42.65283 c 0,0 1.335035,1.38495 2.14722,1.880477 0.967839,0.5905 2.060851,0.985063 3.163175,1.250179 0.727122,0.17495 2.233306,0.21429 2.233306,0.21429 l -0.240136,2.747482 -1.404917,2.285534 c 0,0 -1.102773,0.505543 -1.692786,0.518745 -1.063087,0.02385 -2.13194,-0.33355 -3.088802,-0.797368 -0.722828,-0.350378 -1.73931,-0.728515 -2.108866,-1.441728 -0.760287,-1.467312 0.01507,-4.971468 0.01507,-4.971468 z"
       id="path7608" />
    <path
       style="fill:#ffffff;fill-opacity:1;stroke:none;stroke-width:0.504786px;stroke-linecap:butt;stroke-linejoin:miter;stroke-opacity:1"
       d="m 36.789429,49.340776 c 0.143109,0.646019 -0.07088,1.923404 -0.192866,2.187298 -0.101651,0.219899 -0.663545,0.798189 -1.222262,0.960013 -0.646406,0.187161 -1.48785,0.110465 -1.990587,-0.337003 -0.552379,-0.491559 -0.6218,-2.129338 -0.6218,-2.129338 l -0.736621,-7.0061 -0.136182,-2.271052 c 0,0 -1.795007,-0.530995 -2.487755,-1.120235 -0.515607,-0.438559 -1.155807,-1.017898 -1.120067,-1.693851 0.02433,-0.460213 0.465583,-0.864659 0.879943,-1.066395 0.72052,-0.350778 1.621533,-0.236612 2.403354,-0.06067 0.518702,0.116761 0.891903,0.714415 1.423554,0.719433 0.670262,0.0057 1.196686,-0.317887 1.823001,-0.592656 0.422721,-0.185444 1.100521,0.188305 1.100521,0.545074 0,0.356826 -0.857468,1.672063 -0.961124,1.761026 -0.18386,0.15778 -0.511248,0.672404 -0.511248,0.672404 l 0.281409,2.323462 c 0,0 0.13376,2.967534 0.587449,4.363149 0.321478,0.988917 1.25637,1.730195 1.481281,2.745441 z"
       id="path7606"
       sodipodi:nodetypes="sssscccssssssssccss" />
  </g>
</svg>
