<?xml version="1.0" encoding="UTF-8" standalone="no"?>
<!-- Created with Inkscape (http://www.inkscape.org/) -->

<svg
   width="256"
   height="256"
   viewBox="0 0 67.733332 67.733333"
   version="1.1"
   id="svg76171"
   xml:space="preserve"
   inkscape:version="1.2.1 (9c6d41e410, 2022-07-14, custom)"
   sodipodi:docname="bubbler.svg"
   inkscape:export-filename="bubbler.png"
   inkscape:export-xdpi="96"
   inkscape:export-ydpi="96"
   xmlns:inkscape="http://www.inkscape.org/namespaces/inkscape"
   xmlns:sodipodi="http://sodipodi.sourceforge.net/DTD/sodipodi-0.dtd"
   xmlns:xlink="http://www.w3.org/1999/xlink"
   xmlns="http://www.w3.org/2000/svg"
   xmlns:svg="http://www.w3.org/2000/svg"><sodipodi:namedview
     id="namedview76173"
     pagecolor="#3c3c3c"
     bordercolor="#666666"
     borderopacity="1.0"
     inkscape:showpageshadow="2"
     inkscape:pageopacity="0"
     inkscape:pagecheckerboard="0"
     inkscape:deskcolor="#d1d1d1"
     inkscape:document-units="mm"
     showgrid="false"
     inkscape:zoom="1.8463297"
     inkscape:cx="-41.975168"
     inkscape:cy="152.46464"
     inkscape:window-width="1916"
     inkscape:window-height="1036"
     inkscape:window-x="0"
     inkscape:window-y="20"
     inkscape:window-maximized="1"
     inkscape:current-layer="layer1" /><defs
     id="defs76168"><linearGradient
       id="linearGradient892"
       inkscape:swatch="solid"><stop
         style="stop-color:#000000;stop-opacity:1;"
         offset="0"
         id="stop890" /></linearGradient><linearGradient
       id="linearGradient78115"
       inkscape:swatch="solid"><stop
         style="stop-color:#3a0dcd;stop-opacity:1;"
         offset="0"
         id="stop78113" /></linearGradient><linearGradient
       id="linearGradient78103"
       inkscape:swatch="solid"><stop
         style="stop-color:#3a0dcd;stop-opacity:1;"
         offset="0"
         id="stop78101" /></linearGradient><linearGradient
       id="linearGradient78097"
       inkscape:swatch="solid"><stop
         style="stop-color:#ffffff;stop-opacity:1;"
         offset="0"
         id="stop78095" /></linearGradient><linearGradient
       inkscape:collect="always"
       xlink:href="#linearGradient78097"
       id="linearGradient78099"
       x1="29.908385"
       y1="27.874551"
       x2="38.355624"
       y2="27.874551"
       gradientUnits="userSpaceOnUse" /><linearGradient
       inkscape:collect="always"
       xlink:href="#linearGradient78097"
       id="linearGradient78105"
       x1="26.145166"
       y1="34.505409"
       x2="30.268351"
       y2="34.505409"
       gradientUnits="userSpaceOnUse" /><linearGradient
       inkscape:collect="always"
       xlink:href="#linearGradient78097"
       id="linearGradient78107"
       x1="26.926628"
       y1="43.241177"
       x2="41.300621"
       y2="43.241177"
       gradientUnits="userSpaceOnUse" /><linearGradient
       inkscape:collect="always"
       xlink:href="#linearGradient78097"
       id="linearGradient78109"
       x1="38.387611"
       y1="34.521633"
       x2="42.510792"
       y2="34.521633"
       gradientUnits="userSpaceOnUse" /><linearGradient
       inkscape:collect="always"
       xlink:href="#linearGradient78115"
       id="linearGradient78117"
       x1="28.631636"
       y1="26.22117"
       x2="41.50815"
       y2="26.22117"
       gradientUnits="userSpaceOnUse"
       gradientTransform="translate(-0.53950473,-0.2360202)" /><linearGradient
       inkscape:collect="always"
       xlink:href="#linearGradient78115"
       id="linearGradient894"
       x1="9.2635174"
       y1="33.047077"
       x2="58.469814"
       y2="33.047077"
       gradientUnits="userSpaceOnUse"
       gradientTransform="matrix(0.96538146,0,0,0.96538146,1.0961519,2.5572211)" /></defs><g
     inkscape:label="Layer 1"
     inkscape:groupmode="layer"
     id="layer1"><path
       id="path76292"
       style="fill:url(#linearGradient894);fill-opacity:1;stroke-width:0.641979;paint-order:stroke fill markers"
       d="M 33.790405,10.708834 A 23.751454,23.751454 0 0 0 10.03898,34.460258 23.751454,23.751454 0 0 0 33.790405,58.211683 23.751454,23.751454 0 0 0 57.541829,34.460258 23.751454,23.751454 0 0 0 33.790405,10.708834 Z m 0,4.237941 A 19.513216,19.513216 0 0 1 53.303389,34.460258 19.513216,19.513216 0 0 1 33.790405,53.973243 19.513216,19.513216 0 0 1 14.276921,34.460258 19.513216,19.513216 0 0 1 33.790405,14.946775 Z" /><path
       style="fill:url(#linearGradient78107);fill-opacity:1;stroke:none;stroke-width:0.264583px;stroke-linecap:butt;stroke-linejoin:miter;stroke-opacity:1"
       d="m 30.703123,38.700434 h 7.110912 c 0,0 1.164268,4.908569 1.554605,6.693064 0.137476,0.628495 0.980402,0.551311 1.407237,0.912321 0.260477,0.220306 0.691534,0.754473 0.691534,0.754473 l -1.000818,0.148573 -2.89115,0.223523 0.01971,-1.138354 c 0,0 -0.400003,-1.596884 -0.668684,-2.373797 -0.330728,-0.956326 -1.157882,-2.806203 -1.157882,-2.806203 0,0 -1.24065,-1.423068 -1.705463,-1.355978 -0.662565,0.09563 -1.639205,1.160277 -1.639205,1.160277 0,0 -0.682483,1.981593 -0.981249,3.150417 -0.164816,0.644787 -0.447292,2.279045 -0.447292,2.279045 l -0.137723,0.731313 -0.151763,0.68742 c 0,0 -1.631568,-0.367504 -2.029669,-0.484132 -0.141165,-0.04136 -1.550707,-0.623311 -1.550707,-0.623311 0,0 0.173782,-0.375819 0.335084,-0.490815 0.351379,-0.250508 1.248754,-0.341477 1.248754,-0.341477 l 0.532977,-0.614357 z"
       id="path77604"
       sodipodi:nodetypes="ccssccccscscscccscsccc" /><path
       style="fill:url(#linearGradient78105);fill-opacity:1;stroke:none;stroke-width:0.264583px;stroke-linecap:butt;stroke-linejoin:miter;stroke-opacity:1"
       d="m 30.001998,30.477751 c 0,0 -1.549866,0.875383 -2.231467,1.44037 -0.316277,0.262166 -1.312673,1.602794 -1.525819,1.953979 -0.338256,0.557316 0.05616,1.069735 0.217825,1.574194 0.08415,0.262564 0.283147,0.476007 0.383998,0.732619 0.07907,0.201195 0.170579,0.625692 0.170579,0.625692 0,0 -0.377008,0.183937 -0.47176,0.439538 -0.04786,0.129109 -0.142337,0.496944 -0.09576,0.74191 0.0434,0.228296 -0.0018,0.464724 0.336759,0.610424 0.27862,0.119889 0.832253,0.08679 1.128634,0.02229 0.311185,-0.06773 0.666586,-0.195403 0.91375,-0.396232 0.171811,-0.139604 0.227901,-0.391608 0.261734,-0.610386 0.02673,-0.172866 0.0479,-0.378272 -0.05146,-0.522232 -0.17915,-0.259559 -0.847471,-0.420693 -0.847471,-0.420693 0,0 -0.513918,-1.014485 -0.563343,-1.5675 -0.03101,-0.346924 -0.01772,-0.739256 0.173424,-1.030428 0.215199,-0.327815 0.607584,-0.540566 0.986779,-0.64049 0.433228,-0.114162 1.67912,0.05773 1.67912,0.05773 z"
       id="path77606"
       sodipodi:nodetypes="csssscssssssacssscc" /><path
       style="fill:url(#linearGradient78109);fill-opacity:1;stroke:none;stroke-width:0.264583px;stroke-linecap:butt;stroke-linejoin:miter;stroke-opacity:1"
       d="m 38.653962,30.493976 c 0,0 1.549866,0.875383 2.231467,1.44037 0.316277,0.262166 0.635662,0.542338 0.848809,0.893522 0.338255,0.557316 0.643516,1.197574 0.636108,1.849466 -0.0061,0.539344 -0.39634,1.004148 -0.560921,1.517804 -0.06596,0.205866 -0.170579,0.625692 -0.170579,0.625692 0,0 0.581369,0.204454 0.676121,0.460055 0.04786,0.129109 -0.05442,0.271802 -0.107523,0.398846 -0.142153,0.340106 -0.093,0.570396 -0.431603,0.716095 -0.27862,0.11989 -0.734014,0.174013 -1.030395,0.109507 -0.311185,-0.06773 -0.818182,-0.04528 -1.065346,-0.246111 -0.171811,-0.139604 -0.08078,-0.412074 -0.114609,-0.630852 -0.02673,-0.172866 -0.10991,-0.455031 0.05146,-0.522232 0.16137,-0.0672 0.847471,-0.420693 0.847471,-0.420693 0,0 0.513918,-1.014485 0.563343,-1.5675 0.03101,-0.346924 0.01772,-0.739256 -0.173424,-1.030428 -0.215199,-0.327815 -0.607584,-0.540566 -0.986779,-0.64049 -0.433228,-0.114162 -1.341599,0.08114 -1.341599,0.08114 z"
       id="path78091"
       sodipodi:nodetypes="csssscssssssscssscc" /><path
       style="fill:#3a0dcd;fill-opacity:1;stroke:none;stroke-width:0.276683px;stroke-linecap:butt;stroke-linejoin:miter;stroke-opacity:1"
       d="m 29.977377,29.683653 0.100635,3.378255 0.73747,3.584572 -0.13478,2.238207 h 7.315052 V 36.81297 l 0.971876,-3.977219 v -3.247753 z"
       id="path78119" /><path
       style="fill:url(#linearGradient78099);fill-opacity:1;stroke:none;stroke-width:0.264583px;stroke-linecap:butt;stroke-linejoin:miter;stroke-opacity:1"
       d="m 30.824653,24.438068 c 0.08795,0.04034 7.006344,-0.04106 7.006344,-0.04106 l 1.784327,2.291142 0.297004,-0.619742 1.419853,0.918092 c 0,0 0.540199,0.44782 0.549415,0.804922 0.01249,0.484022 -0.734076,1.182461 -0.734076,1.182461 l -3.710635,0.833356 -1.165061,1.176875 -3.712998,0.0286 -2.015332,-1.352767 -2.67068,-0.482648 c 0,0 -1.019963,-0.484173 -1.175543,-0.967155 -0.142786,-0.443263 0.357936,-1.350449 0.357936,-1.350449 l 1.44554,-1.263185 1.567592,0.664869 z"
       id="path78093"
       sodipodi:nodetypes="cccccsccccccscccc" /><path
       style="fill:url(#linearGradient78117);fill-opacity:1;stroke:none;stroke-width:0.264583px;stroke-linecap:butt;stroke-linejoin:miter;stroke-opacity:1"
       d="m 28.53965,25.504081 -0.314798,2.891609 c 0,0 -0.17769,1.179312 0.09925,1.659181 0.22258,0.385677 0.670303,0.708 1.114703,0.736227 0.365099,0.02319 0.984959,-0.484121 0.984959,-0.484121 0,0 0.58853,-0.769284 0.594008,-1.222227 0.007,-0.578302 -0.641845,-1.005407 -0.720447,-1.578385 -0.0967,-0.704896 0.04795,-1.455808 0.330661,-2.108726 0.114283,-0.263933 0.530188,-0.680727 0.530188,-0.680727 h 5.543235 l 0.622141,0.622143 c 0,0 0.470498,1.149968 0.470498,1.755923 0,0.530155 -0.411642,1.006116 -0.411642,1.536271 0,0.532694 0.413616,1.543629 0.413616,1.543629 0,0 0.83812,0.342908 1.279752,0.342908 0.466774,0 1.022547,-0.03237 1.352606,-0.362429 0.367285,-0.367285 0.403307,-0.985742 0.403307,-1.505161 0,-0.701361 -0.544579,-2.032386 -0.544579,-2.032386 0,0 -0.265907,-1.417248 -0.554882,-2.070849 -0.323288,-0.731209 -0.660529,-1.382934 -1.295859,-2.018264 -0.496519,-0.496519 -0.910566,-0.908464 -1.588823,-1.090202 -0.91869,-0.246162 -2.194818,-0.37887 -3.140674,-0.27916 -0.89217,0.09405 -1.824553,0.226676 -2.632179,0.561206 -0.684139,0.28338 -1.481031,0.909957 -1.481031,0.909957 0,0 -0.67483,0.44892 -0.790475,1.206448 -0.04036,0.264411 -0.263535,1.667135 -0.263535,1.667135 z"
       id="path78111"
       sodipodi:nodetypes="ccsscssscccsscssscssssscsc" /></g></svg>
