<?xml version="1.0" encoding="UTF-8" standalone="no"?>
<!-- Created with Inkscape (http://www.inkscape.org/) -->

<svg
   width="256"
   height="256"
   viewBox="0 0 67.733332 67.733333"
   version="1.1"
   id="svg5"
   inkscape:version="1.2.1 (9c6d41e410, 2022-07-14, custom)"
   sodipodi:docname="bubbleblower.svg"
   inkscape:export-filename="bubbleblower.png"
   inkscape:export-xdpi="96"
   inkscape:export-ydpi="96"
   xmlns:inkscape="http://www.inkscape.org/namespaces/inkscape"
   xmlns:sodipodi="http://sodipodi.sourceforge.net/DTD/sodipodi-0.dtd"
   xmlns:xlink="http://www.w3.org/1999/xlink"
   xmlns="http://www.w3.org/2000/svg"
   xmlns:svg="http://www.w3.org/2000/svg">
  <sodipodi:namedview
     id="namedview7"
     pagecolor="#505050"
     bordercolor="#eeeeee"
     borderopacity="1"
     inkscape:showpageshadow="0"
     inkscape:pageopacity="0"
     inkscape:pagecheckerboard="0"
     inkscape:deskcolor="#505050"
     inkscape:document-units="mm"
     showgrid="false"
     inkscape:zoom="3.3784205"
     inkscape:cx="67.635157"
     inkscape:cy="128.0184"
     inkscape:window-width="1916"
     inkscape:window-height="1036"
     inkscape:window-x="0"
     inkscape:window-y="20"
     inkscape:window-maximized="1"
     inkscape:current-layer="layer1" />
  <defs
     id="defs2">
    <linearGradient
       id="linearGradient1358"
       inkscape:swatch="solid">
      <stop
         style="stop-color:#000000;stop-opacity:1;"
         offset="0"
         id="stop1356" />
    </linearGradient>
    <linearGradient
       id="linearGradient1352"
       inkscape:swatch="solid">
      <stop
         style="stop-color:#000000;stop-opacity:1;"
         offset="0"
         id="stop1350" />
    </linearGradient>
    <linearGradient
       id="linearGradient1346"
       inkscape:swatch="solid">
      <stop
         style="stop-color:#000000;stop-opacity:1;"
         offset="0"
         id="stop1344" />
    </linearGradient>
    <linearGradient
       id="linearGradient1340"
       inkscape:swatch="solid">
      <stop
         style="stop-color:#3a0dcd;stop-opacity:1;"
         offset="0"
         id="stop1338" />
    </linearGradient>
    <linearGradient
       inkscape:collect="always"
       xlink:href="#linearGradient1340"
       id="linearGradient1342"
       x1="30.956658"
       y1="23.453699"
       x2="58.831219"
       y2="23.453699"
       gradientUnits="userSpaceOnUse" />
    <linearGradient
       inkscape:collect="always"
       xlink:href="#linearGradient1340"
       id="linearGradient1348"
       x1="39.842068"
       y1="47.420746"
       x2="50.498112"
       y2="47.420746"
       gradientUnits="userSpaceOnUse" />
    <linearGradient
       inkscape:collect="always"
       xlink:href="#linearGradient1340"
       id="linearGradient1354"
       x1="50.605118"
       y1="53.906719"
       x2="60.020966"
       y2="53.906719"
       gradientUnits="userSpaceOnUse" />
    <linearGradient
       inkscape:collect="always"
       xlink:href="#linearGradient1340"
       id="linearGradient1360"
       x1="46.85907"
       y1="60.262627"
       x2="50.620827"
       y2="60.262627"
       gradientUnits="userSpaceOnUse" />
  </defs>
  <g
     inkscape:label="Layer 1"
     inkscape:groupmode="layer"
     id="layer1">
    <path
       id="path1051"
       style="stroke-width:0.222142;paint-order:stroke fill markers;fill-opacity:1;fill:url(#linearGradient1342)"
       d="m 57.199237,31.661521 c -8.268279,3.150765 -13.57647,5.866243 -18.933312,5.08232 C 31.30217,35.724761 28.71821,29.450513 33.14234,21.787694 37.566471,14.124875 50.401905,8.9619532 53.265487,10.214383 c 6.448169,2.820199 6.609185,20.427619 3.93375,21.447138 z"
       sodipodi:nodetypes="sssss" />
    <path
       style="fill:#ffffff;fill-opacity:1;stroke:none;stroke-width:0.264583px;stroke-linecap:butt;stroke-linejoin:miter;stroke-opacity:1"
       d="m 9.3764487,54.56972 c 0,0 -4.2366846,4.125214 -2.4974471,6.569142 1.5463334,2.172864 7.3473074,1.671472 7.3473074,1.671472 0,0 5.927663,-9.348991 9.837173,-13.917804 3.619843,-4.230297 12.739712,-12.486844 12.739712,-12.486844 L 30.27886,31.830111 c 0,0 -6.157672,10.993909 -10.526967,15.429493 C 16.782959,50.273581 9.3764487,54.56972 9.3764487,54.56972 Z"
       id="path236"
       sodipodi:nodetypes="cscsccsc" />
    <path
       id="path952"
       style="fill:#ffffff;stroke-width:0.264583;paint-order:stroke fill markers"
       d="m 53.610681,7.384795 c -4.934703,-0.09063 -17.937961,5.735179 -22.713342,14.00638 -5.269385,9.126844 -2.191748,16.599602 6.10247,17.813383 6.380296,0.933696 12.702583,-2.300642 22.550562,-6.053377 C 62.736964,31.936876 62.544994,10.9655 54.864868,7.6064868 54.545118,7.4666349 54.121168,7.3941704 53.610681,7.384795 Z m -1.773534,3.253031 c 0.40663,0.0075 0.744723,0.06534 0.999422,0.176734 6.117632,2.675635 6.314987,18.237511 3.918547,19.807444 C 49.73308,35.222215 43.68816,36.727821 38.605912,35.984083 31.999124,35.01724 29.547364,29.064787 33.74471,21.794768 37.548557,15.206314 47.906392,10.565634 51.837146,10.637826 Z"
       sodipodi:nodetypes="ssssssscssss" />
    <circle
       style="fill-opacity:1.0;stroke:none;stroke-width:0.376231;paint-order:stroke fill markers;fill:url(#linearGradient1348)"
       id="path1109"
       cx="45.17009"
       cy="47.420746"
       r="5.3280234" />
    <circle
       style="fill-opacity:1.0;stroke:none;stroke-width:0.332444;paint-order:stroke fill markers;fill:url(#linearGradient1354)"
       id="circle1111"
       cx="55.313042"
       cy="53.906719"
       r="4.7079253" />
    <circle
       style="fill-opacity:1.0;stroke:none;stroke-width:0.132816;paint-order:stroke fill markers;fill:url(#linearGradient1360)"
       id="circle1113"
       cx="48.739948"
       cy="60.262627"
       r="1.8808784" />
  </g>
</svg>
