<?xml version="1.0" encoding="UTF-8" standalone="no"?>
<!-- Created with Inkscape (http://www.inkscape.org/) -->

<svg
   width="256"
   height="256"
   viewBox="0 0 67.733332 67.733333"
   version="1.1"
   id="svg5"
   xml:space="preserve"
   inkscape:version="1.2.2 (b0a8486541, 2022-12-01)"
   sodipodi:docname="cherry_glooga.svg"
   inkscape:export-filename="s3custom_cherry_glooga_dualies.png"
   inkscape:export-xdpi="48"
   inkscape:export-ydpi="48"
   xmlns:inkscape="http://www.inkscape.org/namespaces/inkscape"
   xmlns:sodipodi="http://sodipodi.sourceforge.net/DTD/sodipodi-0.dtd"
   xmlns:xlink="http://www.w3.org/1999/xlink"
   xmlns="http://www.w3.org/2000/svg"
   xmlns:svg="http://www.w3.org/2000/svg"><sodipodi:namedview
     id="namedview7"
     pagecolor="#505050"
     bordercolor="#eeeeee"
     borderopacity="1"
     inkscape:showpageshadow="0"
     inkscape:pageopacity="0"
     inkscape:pagecheckerboard="0"
     inkscape:deskcolor="#505050"
     inkscape:document-units="mm"
     showgrid="false"
     inkscape:zoom="3.3242684"
     inkscape:cx="8.723724"
     inkscape:cy="128.44932"
     inkscape:window-width="1906"
     inkscape:window-height="1026"
     inkscape:window-x="5"
     inkscape:window-y="25"
     inkscape:window-maximized="1"
     inkscape:current-layer="layer1" /><defs
     id="defs2"><linearGradient
       id="linearGradient11082"
       inkscape:swatch="solid"><stop
         style="stop-color:#30345b;stop-opacity:1;"
         offset="0"
         id="stop11080" /></linearGradient><linearGradient
       id="linearGradient11076"
       inkscape:swatch="solid"><stop
         style="stop-color:#30345b;stop-opacity:1;"
         offset="0"
         id="stop11074" /></linearGradient><linearGradient
       id="linearGradient11070"
       inkscape:swatch="solid"><stop
         style="stop-color:#30345b;stop-opacity:1;"
         offset="0"
         id="stop11068" /></linearGradient><linearGradient
       id="linearGradient11064"
       inkscape:swatch="solid"><stop
         style="stop-color:#30345b;stop-opacity:1;"
         offset="0"
         id="stop11062" /></linearGradient><linearGradient
       id="linearGradient11058"
       inkscape:swatch="solid"><stop
         style="stop-color:#30345b;stop-opacity:1;"
         offset="0"
         id="stop11056" /></linearGradient><linearGradient
       id="linearGradient11052"
       inkscape:swatch="solid"><stop
         style="stop-color:#30345b;stop-opacity:1;"
         offset="0"
         id="stop11050" /></linearGradient><linearGradient
       id="linearGradient11046"
       inkscape:swatch="solid"><stop
         style="stop-color:#30345b;stop-opacity:1;"
         offset="0"
         id="stop11044" /></linearGradient><linearGradient
       id="linearGradient11040"
       inkscape:swatch="solid"><stop
         style="stop-color:#30345b;stop-opacity:1;"
         offset="0"
         id="stop11038" /></linearGradient><linearGradient
       id="linearGradient11034"
       inkscape:swatch="solid"><stop
         style="stop-color:#30345b;stop-opacity:1;"
         offset="0"
         id="stop11032" /></linearGradient><linearGradient
       id="linearGradient11028"
       inkscape:swatch="solid"><stop
         style="stop-color:#30345b;stop-opacity:1;"
         offset="0"
         id="stop11026" /></linearGradient><linearGradient
       id="linearGradient11022"
       inkscape:swatch="solid"><stop
         style="stop-color:#30345b;stop-opacity:1;"
         offset="0"
         id="stop11020" /></linearGradient><linearGradient
       id="linearGradient10290"
       inkscape:swatch="solid"><stop
         style="stop-color:#40202f;stop-opacity:1;"
         offset="0"
         id="stop10288" /></linearGradient><linearGradient
       id="linearGradient10284"
       inkscape:swatch="solid"><stop
         style="stop-color:#2942ce;stop-opacity:1;"
         offset="0"
         id="stop10282" /></linearGradient><linearGradient
       id="linearGradient10278"
       inkscape:swatch="solid"><stop
         style="stop-color:#2942ce;stop-opacity:1;"
         offset="0"
         id="stop10276" /></linearGradient><linearGradient
       id="linearGradient9546"
       inkscape:swatch="solid"><stop
         style="stop-color:#e4beb1;stop-opacity:1;"
         offset="0"
         id="stop9544" /></linearGradient><linearGradient
       id="linearGradient8935"
       inkscape:swatch="solid"><stop
         style="stop-color:#7a000e;stop-opacity:1;"
         offset="0"
         id="stop8933" /></linearGradient><linearGradient
       id="linearGradient2512"
       inkscape:swatch="solid"><stop
         style="stop-color:#ea3935;stop-opacity:1;"
         offset="0"
         id="stop2510" /></linearGradient><linearGradient
       id="linearGradient2506"
       inkscape:swatch="solid"><stop
         style="stop-color:#eee3d5;stop-opacity:1;"
         offset="0"
         id="stop2504" /></linearGradient><linearGradient
       id="linearGradient2500"
       inkscape:swatch="solid"><stop
         style="stop-color:#2b42db;stop-opacity:1;"
         offset="0"
         id="stop2498" /></linearGradient><linearGradient
       id="linearGradient2494"
       inkscape:swatch="solid"><stop
         style="stop-color:#2b42db;stop-opacity:1;"
         offset="0"
         id="stop2492" /></linearGradient><linearGradient
       id="linearGradient2488"
       inkscape:swatch="solid"><stop
         style="stop-color:#8e4068;stop-opacity:1;"
         offset="0"
         id="stop2486" /></linearGradient><linearGradient
       id="linearGradient2482"
       inkscape:swatch="solid"><stop
         style="stop-color:#57000e;stop-opacity:1;"
         offset="0"
         id="stop2480" /></linearGradient><linearGradient
       id="linearGradient2476"
       inkscape:swatch="solid"><stop
         style="stop-color:#57000e;stop-opacity:1;"
         offset="0"
         id="stop2474" /></linearGradient><linearGradient
       id="linearGradient2470"
       inkscape:swatch="solid"><stop
         style="stop-color:#56000f;stop-opacity:1;"
         offset="0"
         id="stop2468" /></linearGradient><linearGradient
       id="linearGradient2464"
       inkscape:swatch="solid"><stop
         style="stop-color:#d39179;stop-opacity:1;"
         offset="0"
         id="stop2462" /></linearGradient><linearGradient
       id="linearGradient2411"
       inkscape:swatch="solid"><stop
         style="stop-color:#7a000e;stop-opacity:1;"
         offset="0"
         id="stop2409" /></linearGradient><linearGradient
       id="linearGradient2405"
       inkscape:swatch="solid"><stop
         style="stop-color:#75000d;stop-opacity:1;"
         offset="0"
         id="stop2403" /></linearGradient><linearGradient
       id="linearGradient2399"
       inkscape:swatch="solid"><stop
         style="stop-color:#6f000d;stop-opacity:1;"
         offset="0"
         id="stop2397" /></linearGradient><linearGradient
       id="linearGradient2393"
       inkscape:swatch="solid"><stop
         style="stop-color:#75000d;stop-opacity:1;"
         offset="0"
         id="stop2391" /></linearGradient><linearGradient
       id="linearGradient2387"
       inkscape:swatch="solid"><stop
         style="stop-color:#e4beb1;stop-opacity:1;"
         offset="0"
         id="stop2385" /></linearGradient><linearGradient
       id="linearGradient929"
       inkscape:swatch="solid"><stop
         style="stop-color:#5162ec;stop-opacity:1;"
         offset="0"
         id="stop927" /></linearGradient><linearGradient
       id="linearGradient923"
       inkscape:swatch="solid"><stop
         style="stop-color:#5568f9;stop-opacity:1;"
         offset="0"
         id="stop921" /></linearGradient><linearGradient
       id="linearGradient917"
       inkscape:swatch="solid"><stop
         style="stop-color:#5162ec;stop-opacity:1;"
         offset="0"
         id="stop915" /></linearGradient><linearGradient
       id="linearGradient911"
       inkscape:swatch="solid"><stop
         style="stop-color:#572a3e;stop-opacity:1;"
         offset="0"
         id="stop909" /></linearGradient><linearGradient
       inkscape:collect="always"
       xlink:href="#linearGradient911"
       id="linearGradient913"
       x1="19.673735"
       y1="39.415164"
       x2="40.294698"
       y2="39.415164"
       gradientUnits="userSpaceOnUse" /><linearGradient
       inkscape:collect="always"
       xlink:href="#linearGradient911"
       id="linearGradient919"
       x1="39.665016"
       y1="41.442345"
       x2="43.591698"
       y2="41.442345"
       gradientUnits="userSpaceOnUse" /><linearGradient
       inkscape:collect="always"
       xlink:href="#linearGradient911"
       id="linearGradient925"
       x1="19.673735"
       y1="39.415165"
       x2="40.294697"
       y2="39.415165"
       gradientUnits="userSpaceOnUse" /><linearGradient
       inkscape:collect="always"
       xlink:href="#linearGradient911"
       id="linearGradient931"
       x1="39.665016"
       y1="41.442345"
       x2="43.591698"
       y2="41.442345"
       gradientUnits="userSpaceOnUse" /><linearGradient
       inkscape:collect="always"
       xlink:href="#linearGradient2387"
       id="linearGradient2389"
       x1="25.255936"
       y1="52.842514"
       x2="37.811191"
       y2="52.842514"
       gradientUnits="userSpaceOnUse" /><linearGradient
       inkscape:collect="always"
       xlink:href="#linearGradient2387"
       id="linearGradient2401"
       x1="25.255936"
       y1="52.842514"
       x2="37.811192"
       y2="52.842514"
       gradientUnits="userSpaceOnUse" /><linearGradient
       inkscape:collect="always"
       xlink:href="#linearGradient2387"
       id="linearGradient2407"
       x1="27.58847"
       y1="38.752739"
       x2="39.818287"
       y2="38.752739"
       gradientUnits="userSpaceOnUse" /><linearGradient
       inkscape:collect="always"
       xlink:href="#linearGradient2387"
       id="linearGradient2413"
       x1="14.797769"
       y1="41.854107"
       x2="22.631638"
       y2="41.854107"
       gradientUnits="userSpaceOnUse" /><linearGradient
       inkscape:collect="always"
       xlink:href="#linearGradient2464"
       id="linearGradient2466"
       x1="17.110165"
       y1="38.470702"
       x2="25.81743"
       y2="38.470702"
       gradientUnits="userSpaceOnUse" /><linearGradient
       inkscape:collect="always"
       xlink:href="#linearGradient2464"
       id="linearGradient2472"
       x1="17.110165"
       y1="38.470703"
       x2="25.81743"
       y2="38.470703"
       gradientUnits="userSpaceOnUse" /><linearGradient
       inkscape:collect="always"
       xlink:href="#linearGradient2464"
       id="linearGradient2478"
       x1="29.396193"
       y1="38.666767"
       x2="30.481134"
       y2="38.666767"
       gradientUnits="userSpaceOnUse" /><linearGradient
       inkscape:collect="always"
       xlink:href="#linearGradient2464"
       id="linearGradient2484"
       x1="29.396193"
       y1="38.666767"
       x2="30.481134"
       y2="38.666767"
       gradientUnits="userSpaceOnUse" /><linearGradient
       inkscape:collect="always"
       xlink:href="#linearGradient2488"
       id="linearGradient2490"
       x1="25.162855"
       y1="39.195934"
       x2="26.247797"
       y2="39.195934"
       gradientUnits="userSpaceOnUse" /><linearGradient
       inkscape:collect="always"
       xlink:href="#linearGradient2488"
       id="linearGradient2496"
       x1="30.973728"
       y1="33.292049"
       x2="36.467457"
       y2="33.292049"
       gradientUnits="userSpaceOnUse" /><linearGradient
       inkscape:collect="always"
       xlink:href="#linearGradient2488"
       id="linearGradient2502"
       x1="30.973728"
       y1="33.292049"
       x2="36.467457"
       y2="33.292049"
       gradientUnits="userSpaceOnUse" /><linearGradient
       inkscape:collect="always"
       xlink:href="#linearGradient2506"
       id="linearGradient2508"
       x1="28.294843"
       y1="44.355933"
       x2="32.928626"
       y2="44.355933"
       gradientUnits="userSpaceOnUse" /><linearGradient
       inkscape:collect="always"
       xlink:href="#linearGradient2506"
       id="linearGradient2514"
       x1="28.294844"
       y1="44.355934"
       x2="32.928627"
       y2="44.355934"
       gradientUnits="userSpaceOnUse" /><linearGradient
       inkscape:collect="always"
       xlink:href="#linearGradient2387"
       id="linearGradient8937"
       x1="14.797769"
       y1="41.854107"
       x2="22.631638"
       y2="41.854107"
       gradientUnits="userSpaceOnUse" /><linearGradient
       inkscape:collect="always"
       xlink:href="#linearGradient2387"
       id="linearGradient9548"
       x1="27.58847"
       y1="38.752739"
       x2="39.818287"
       y2="38.752739"
       gradientUnits="userSpaceOnUse" /><linearGradient
       inkscape:collect="always"
       xlink:href="#linearGradient2488"
       id="linearGradient10280"
       x1="11.476936"
       y1="36.471378"
       x2="20.479219"
       y2="36.471378"
       gradientUnits="userSpaceOnUse" /><linearGradient
       inkscape:collect="always"
       xlink:href="#linearGradient2488"
       id="linearGradient10286"
       x1="11.476936"
       y1="36.471378"
       x2="20.479219"
       y2="36.471378"
       gradientUnits="userSpaceOnUse" /><linearGradient
       inkscape:collect="always"
       xlink:href="#linearGradient10290"
       id="linearGradient10292"
       x1="31.644975"
       y1="33.783418"
       x2="34.04459"
       y2="33.783418"
       gradientUnits="userSpaceOnUse" /><linearGradient
       inkscape:collect="always"
       xlink:href="#linearGradient10290"
       id="linearGradient11024"
       x1="31.860096"
       y1="34.445202"
       x2="34.259712"
       y2="34.445202"
       gradientUnits="userSpaceOnUse" /><linearGradient
       inkscape:collect="always"
       xlink:href="#linearGradient10290"
       id="linearGradient11030"
       x1="31.495361"
       y1="33.124146"
       x2="33.894978"
       y2="33.124146"
       gradientUnits="userSpaceOnUse" /><linearGradient
       inkscape:collect="always"
       xlink:href="#linearGradient10290"
       id="linearGradient11036"
       x1="31.495361"
       y1="33.124146"
       x2="33.894978"
       y2="33.124146"
       gradientUnits="userSpaceOnUse" /><linearGradient
       inkscape:collect="always"
       xlink:href="#linearGradient10290"
       id="linearGradient11042"
       x1="31.644976"
       y1="33.783417"
       x2="34.04459"
       y2="33.783417"
       gradientUnits="userSpaceOnUse" /><linearGradient
       inkscape:collect="always"
       xlink:href="#linearGradient10290"
       id="linearGradient11048"
       x1="31.860096"
       y1="34.445202"
       x2="34.259712"
       y2="34.445202"
       gradientUnits="userSpaceOnUse" /><linearGradient
       inkscape:collect="always"
       xlink:href="#linearGradient10290"
       id="linearGradient11054"
       x1="31.860096"
       y1="34.445202"
       x2="34.259712"
       y2="34.445202"
       gradientUnits="userSpaceOnUse" /><linearGradient
       inkscape:collect="always"
       xlink:href="#linearGradient10290"
       id="linearGradient11060"
       x1="31.644976"
       y1="33.783417"
       x2="34.04459"
       y2="33.783417"
       gradientUnits="userSpaceOnUse" /><linearGradient
       inkscape:collect="always"
       xlink:href="#linearGradient10290"
       id="linearGradient11066"
       x1="31.495361"
       y1="33.124146"
       x2="33.894978"
       y2="33.124146"
       gradientUnits="userSpaceOnUse" /><linearGradient
       inkscape:collect="always"
       xlink:href="#linearGradient10290"
       id="linearGradient11072"
       x1="31.495361"
       y1="33.124146"
       x2="33.894978"
       y2="33.124146"
       gradientUnits="userSpaceOnUse" /><linearGradient
       inkscape:collect="always"
       xlink:href="#linearGradient10290"
       id="linearGradient11078"
       x1="31.644976"
       y1="33.783417"
       x2="34.04459"
       y2="33.783417"
       gradientUnits="userSpaceOnUse" /><linearGradient
       inkscape:collect="always"
       xlink:href="#linearGradient10290"
       id="linearGradient11084"
       x1="31.860096"
       y1="34.445202"
       x2="34.259712"
       y2="34.445202"
       gradientUnits="userSpaceOnUse" /></defs><g
     inkscape:label="Layer 1"
     inkscape:groupmode="layer"
     id="layer1"><g
       id="g136265"
       transform="translate(11.438697,-15.590011)"><rect
         style="display:inline;opacity:1;fill:#7a000e;fill-opacity:1;stroke:none;stroke-width:0.7;stroke-linecap:round;stroke-dasharray:none;stroke-opacity:1;paint-order:stroke fill markers"
         id="rect136166"
         width="7.5132589"
         height="2.9128413"
         x="15.118379"
         y="40.403572"
         transform="rotate(-23.058362)" /><path
         style="fill:none;stroke:#a8aea8;stroke-width:0.7;stroke-linecap:round;stroke-linejoin:miter;stroke-dasharray:none;stroke-opacity:1"
         d="m 25.747407,39.64106 -2.726836,-0.86627 -1.744293,-1.416251 -1.389188,-2.153626 -0.90687,-2.920206 -1.212176,-1.753905 -2.1812,-0.611388 -2.637007,0.261419 -1.955573,2.143357 -0.291728,1.673956 0.299904,0.955372"
         id="path136228"
         sodipodi:nodetypes="ccccccccccc" /><rect
         style="fill:#647070;fill-opacity:1;stroke:none;stroke-width:0.465;stroke-linecap:round;paint-order:stroke fill markers"
         id="rect136168"
         width="5.1196666"
         height="4.6059151"
         x="0.57354492"
         y="35.554962"
         transform="rotate(-14.889335)" /><path
         style="display:inline;fill:url(#linearGradient2514);fill-opacity:1.0;stroke:none;stroke-width:0.264583px;stroke-linecap:butt;stroke-linejoin:miter;stroke-opacity:1"
         d="m 30.967066,40.892142 -0.66407,1.731849 1.141897,2.152065 1.483733,2.013418 -1.58055,0.9681 -2.547389,0.06215 -0.505844,-6.549387 z"
         id="path136170" /><path
         style="fill:url(#linearGradient2401);fill-opacity:1.0;stroke:none;stroke-width:0.264583px;stroke-linecap:butt;stroke-linejoin:miter;stroke-opacity:1"
         d="m 25.255936,52.429224 9.379041,-2.72602 3.176214,4.369792 -7.91291,1.908828 z"
         id="path136172" /><path
         id="path136174"
         style="fill:url(#linearGradient919);stroke-width:0.465;stroke-linecap:round;paint-order:stroke fill markers;fill-opacity:1.0"
         d="m 39.694211,35.5027 0.31851,-0.959501 3.442808,-1.304515 0.136168,16.26093 -0.677108,0.146392 -3.053294,-2.641837 -0.196279,-0.800174 z"
         sodipodi:nodetypes="cccccccc"
         transform="rotate(6.0384191)" /><rect
         style="fill:#ccd0cd;fill-opacity:1;stroke:none;stroke-width:0.465;stroke-linecap:round;paint-order:stroke fill markers"
         id="rect136176"
         width="14.114686"
         height="6.5064993"
         x="5.7079329"
         y="37.201298"
         ry="0.40851438"
         transform="rotate(-17.128269)" /><path
         id="path136178"
         style="opacity:1;fill:url(#linearGradient2413);stroke-width:0.7;stroke-linecap:round;paint-order:stroke fill markers;fill-opacity:1.0"
         transform="rotate(-23.058362)"
         d="m 14.797769,40.391802 7.833869,0.01177 v 2.912841 h -7.513259 z"
         sodipodi:nodetypes="ccccc" /><rect
         style="opacity:1;fill:url(#linearGradient2466);fill-opacity:1;stroke:none;stroke-width:0.7;stroke-linecap:round;stroke-dasharray:none;stroke-opacity:1;paint-order:stroke fill markers"
         id="rect136180"
         width="8.7072649"
         height="1.8044788"
         x="17.110165"
         y="37.568462"
         transform="rotate(-19.042847)" /><rect
         style="opacity:1;fill:url(#linearGradient10286);fill-opacity:1.0;stroke:none;stroke-width:0.7;stroke-linecap:round;stroke-dasharray:none;stroke-opacity:1;paint-order:stroke fill markers"
         id="rect136182"
         width="9.002284"
         height="1.488887"
         x="11.476936"
         y="35.726936"
         ry="0.40851438"
         transform="rotate(-14.343484)" /><circle
         style="opacity:1;fill:#858e8f;fill-opacity:1;stroke:none;stroke-width:0.890837;stroke-linecap:round;stroke-dasharray:none;stroke-opacity:1;paint-order:stroke fill markers"
         id="circle136184"
         cx="40.327282"
         cy="30.755859"
         r="2.012414" /><rect
         style="opacity:1;fill:#4b5555;fill-opacity:1;stroke:none;stroke-width:0.665001;stroke-linecap:round;stroke-dasharray:none;stroke-opacity:1;paint-order:stroke fill markers"
         id="rect136186"
         width="4.8399315"
         height="1.1032025"
         x="5.4686308"
         y="45.135036"
         ry="0"
         transform="rotate(-16.145445)" /><path
         id="path136188"
         style="fill:url(#linearGradient913);fill-opacity:1;stroke:none;stroke-width:0.264583px;stroke-linecap:butt;stroke-linejoin:miter;stroke-opacity:1"
         d="m 37.898979,26.585457 -18.225244,4.883423 2.864424,10.690304 2.528528,-0.09457 0.280603,10.180257 4.034896,-0.771529 -0.531751,-9.820589 -0.54777,-3.772897 2.993099,-0.802018 0.424264,1.582333 7.432104,-1.99161 1.142566,-1.142049 z m -3.264917,1.90221 c 0.183684,-0.0031 0.368821,0.0637 0.51263,0.202055 l 1.688269,1.62419 c 0.287618,0.276704 0.297596,0.730238 0.02222,1.016475 -0.275375,0.286238 -0.728857,0.293757 -1.016476,0.01705 L 34.152437,29.72325 c -0.287618,-0.276703 -0.297595,-0.729721 -0.02222,-1.015958 0.137688,-0.143119 0.320162,-0.216515 0.503846,-0.219625 z M 32.1908,29.165662 c 0.183684,-0.0031 0.368821,0.06422 0.51263,0.202571 l 1.688269,1.624191 c 0.287619,0.276703 0.297079,0.729721 0.0217,1.015958 -0.275375,0.286237 -0.72834,0.293757 -1.015958,0.01705 l -1.688269,-1.62419 c -0.287619,-0.276704 -0.297596,-0.729721 -0.02222,-1.015959 0.137687,-0.143118 0.320161,-0.216514 0.503845,-0.219624 z m -2.472717,0.582393 c 0.183684,-0.0031 0.368821,0.06422 0.51263,0.202572 l 1.688269,1.62419 c 0.287618,0.276704 0.297596,0.729721 0.02222,1.015959 -0.275375,0.286237 -0.728857,0.293756 -1.016476,0.01705 l -1.687752,-1.62419 c -0.287618,-0.276704 -0.297596,-0.729722 -0.02222,-1.015959 0.137688,-0.143119 0.319645,-0.216515 0.503329,-0.219625 z m -2.69906,0.803569 c 0.184117,-0.0036 0.369854,0.06319 0.513663,0.201538 l 3.488676,3.356384 c 0.287619,0.276704 0.296341,0.731441 0.01964,1.019059 -0.276703,0.287619 -0.730924,0.296341 -1.018542,0.01964 l -3.488676,-3.356384 c -0.287618,-0.276704 -0.296341,-0.731441 -0.01964,-1.019059 0.138352,-0.14381 0.320761,-0.217614 0.504879,-0.221175 z m -2.585889,0.733805 c 0.184118,-0.0036 0.369854,0.0637 0.513664,0.202055 l 3.488676,3.356384 c 0.287618,0.276704 0.29634,0.730924 0.01964,1.018542 -0.276704,0.287619 -0.730924,0.296341 -1.018543,0.01964 l -3.489193,-3.356385 c -0.287618,-0.276703 -0.29634,-0.730924 -0.01964,-1.018542 0.138352,-0.143809 0.321278,-0.218131 0.505396,-0.221692 z m -2.279964,0.61805 c 0.184117,-0.0036 0.369338,0.06319 0.513147,0.201538 l 3.488676,3.356384 c 0.287618,0.276704 0.296857,0.730924 0.02015,1.018543 -0.276703,0.287618 -0.73144,0.296857 -1.019059,0.02015 l -3.488676,-3.356901 c -0.287618,-0.276704 -0.29634,-0.730924 -0.01964,-1.018543 0.138352,-0.143809 0.321278,-0.217614 0.505396,-0.221175 z" /><rect
         style="opacity:1;fill:#1d1b1b;fill-opacity:1;stroke:none;stroke-width:0.665001;stroke-linecap:round;stroke-dasharray:none;stroke-opacity:1;paint-order:stroke fill markers"
         id="rect136190"
         width="5.2015848"
         height="1.3687882"
         x="0.25685507"
         y="45.060108"
         ry="0"
         transform="rotate(-16.145445)" /><circle
         style="fill:#4d5858;fill-opacity:1;stroke:none;stroke-width:0.465;stroke-linecap:round;paint-order:stroke fill markers"
         id="circle136192"
         cx="13.481834"
         cy="37.747051"
         r="2.867969" /><rect
         style="opacity:1;fill:#1d1b1b;fill-opacity:1;stroke:none;stroke-width:0.665001;stroke-linecap:round;stroke-dasharray:none;stroke-opacity:1;paint-order:stroke fill markers"
         id="rect136194"
         width="1.1775362"
         height="3.2946887"
         x="-0.84731013"
         y="44.020947"
         ry="0"
         transform="rotate(-16.145445)" /><rect
         style="fill:#1d1d1d;fill-opacity:1;stroke:none;stroke-width:0.465;stroke-linecap:round;paint-order:stroke fill markers"
         id="rect136196"
         width="4.5656676"
         height="6.9689517"
         x="2.6275573"
         y="36.544548"
         ry="0"
         transform="rotate(-15.450467)" /><rect
         style="opacity:1;fill:#6a7272;fill-opacity:1;stroke:none;stroke-width:0.665001;stroke-linecap:round;stroke-dasharray:none;stroke-opacity:1;paint-order:stroke fill markers"
         id="rect136198"
         width="1.1775362"
         height="3.2946887"
         x="1.2831575"
         y="43.588734"
         ry="0"
         transform="rotate(-16.145445)" /><rect
         style="fill:#858d8e;fill-opacity:1;stroke:none;stroke-width:0.465;stroke-linecap:round;paint-order:stroke fill markers"
         id="rect136200"
         width="0.80499804"
         height="7.6515627"
         x="3.1535635"
         y="36.205517"
         transform="rotate(-13.905555)" /><rect
         style="opacity:1;fill:#6a7272;fill-opacity:1;stroke:none;stroke-width:0.665001;stroke-linecap:round;stroke-dasharray:none;stroke-opacity:1;paint-order:stroke fill markers"
         id="rect136202"
         width="1.1775362"
         height="3.2946887"
         x="3.6355045"
         y="43.472534"
         ry="0"
         transform="rotate(-16.145445)" /><rect
         style="fill:#858d8e;fill-opacity:1;stroke:none;stroke-width:0.465;stroke-linecap:round;paint-order:stroke fill markers"
         id="rect136204"
         width="0.80499804"
         height="7.6515627"
         x="5.4322705"
         y="36.007263"
         transform="rotate(-13.905555)" /><path
         style="opacity:1;fill:url(#linearGradient2407);fill-opacity:1.0;stroke:none;stroke-width:0.264583px;stroke-linecap:butt;stroke-linejoin:miter;stroke-opacity:1"
         d="m 39.818288,36.103806 -0.604062,2.552192 -10.373844,2.712995 -0.701156,0.03268 c 0,0 -0.727115,-3.894198 -0.510427,-3.894198 0.216689,0 4.127294,-0.973728 4.127294,-0.973728 z"
         id="path136206" /><circle
         style="fill:url(#linearGradient2484);fill-opacity:1.0;stroke:none;stroke-width:0.465;stroke-linecap:round;paint-order:stroke fill markers"
         id="circle136208"
         cx="29.938663"
         cy="38.666767"
         r="0.54247111" /><path
         sodipodi:type="star"
         style="opacity:1;fill:url(#linearGradient2496);fill-opacity:1.0;stroke:none;stroke-width:0.465;stroke-linecap:round;paint-order:stroke fill markers"
         id="path136210"
         inkscape:flatsided="true"
         sodipodi:sides="3"
         sodipodi:cx="33.468479"
         sodipodi:cy="33.866665"
         sodipodi:r1="3.2116346"
         sodipodi:r2="1.6058174"
         sodipodi:arg1="0.36594603"
         sodipodi:arg2="1.4131436"
         inkscape:rounded="0"
         inkscape:randomized="0"
         d="m 36.467458,35.015893 -5.493729,0.873349 1.990522,-5.194383 z"
         inkscape:transform-center-x="-0.093819804"
         inkscape:transform-center-y="-0.21383223"
         transform="matrix(0.37213175,0,0,0.37213175,24.308933,22.872717)" /><g
         id="g136218"><path
           style="fill:none;fill-opacity:1;stroke:url(#linearGradient11066);stroke-width:0.264583px;stroke-linecap:butt;stroke-linejoin:miter;stroke-opacity:1"
           d="m 31.529602,33.436459 2.331135,-0.624626"
           id="path136212" /><path
           style="fill:none;fill-opacity:1;stroke:url(#linearGradient11060);stroke-width:0.264583px;stroke-linecap:butt;stroke-linejoin:miter;stroke-opacity:1"
           d="M 31.679215,34.095731 34.01035,33.471105"
           id="path136214" /><path
           style="fill:none;fill-opacity:1;stroke:url(#linearGradient11054);stroke-width:0.264583px;stroke-linecap:butt;stroke-linejoin:miter;stroke-opacity:1"
           d="m 31.894336,34.757514 2.331135,-0.624626"
           id="path136216" /></g><g
         id="g136226"
         transform="translate(3.2192011,-0.89755455)"><path
           style="fill:none;fill-opacity:1;stroke:url(#linearGradient11072);stroke-width:0.264583px;stroke-linecap:butt;stroke-linejoin:miter;stroke-opacity:1"
           d="m 31.529602,33.436459 2.331135,-0.624626"
           id="path136220" /><path
           style="fill:none;fill-opacity:1;stroke:url(#linearGradient11078);stroke-width:0.264583px;stroke-linecap:butt;stroke-linejoin:miter;stroke-opacity:1"
           d="M 31.679215,34.095731 34.01035,33.471105"
           id="path136222" /><path
           style="fill:none;fill-opacity:1;stroke:url(#linearGradient11084);stroke-width:0.264583px;stroke-linecap:butt;stroke-linejoin:miter;stroke-opacity:1"
           d="m 31.894336,34.757514 2.331135,-0.624626"
           id="path136224" /></g><path
         style="fill:none;stroke:#535a60;stroke-width:0.665;stroke-linecap:butt;stroke-linejoin:miter;stroke-dasharray:none;stroke-opacity:1"
         d="m 42.597845,24.589063 -0.209116,-2.945571 -3.996275,5.295883 2.271795,4.55795 1.407464,7.052765 -0.529998,1.513099 -1.395521,1.515634"
         id="path136230" /><circle
         style="fill:url(#linearGradient2490);fill-opacity:1;stroke:none;stroke-width:0.465;stroke-linecap:round;paint-order:stroke fill markers"
         id="circle136267"
         cx="25.705326"
         cy="39.195934"
         r="0.54247111" /></g><rect
       style="display:inline;opacity:1;fill:#7a000e;fill-opacity:1;stroke:none;stroke-width:0.7;stroke-linecap:round;stroke-dasharray:none;stroke-opacity:1;paint-order:stroke fill markers"
       id="rect127152"
       width="7.5132589"
       height="2.9128413"
       x="15.118379"
       y="40.403572"
       transform="rotate(-23.058362)" /><rect
       style="fill:#647070;fill-opacity:1;stroke:none;stroke-width:0.465;stroke-linecap:round;paint-order:stroke fill markers"
       id="rect101188"
       width="5.1196666"
       height="4.6059151"
       x="0.57354492"
       y="35.554962"
       transform="rotate(-14.889335)" /><path
       style="display:inline;fill:url(#linearGradient2508);fill-opacity:1;stroke:none;stroke-width:0.264583px;stroke-linecap:butt;stroke-linejoin:miter;stroke-opacity:1"
       d="m 30.967066,40.892142 -0.66407,1.731849 1.141897,2.152065 1.483733,2.013418 -1.58055,0.9681 -2.547389,0.06215 -0.505844,-6.549387 z"
       id="path97145" /><path
       style="fill:url(#linearGradient2389);stroke:none;stroke-width:0.264583px;stroke-linecap:butt;stroke-linejoin:miter;stroke-opacity:1;fill-opacity:1"
       d="m 25.255936,52.429224 9.379041,-2.72602 3.176214,4.369792 -7.91291,1.908828 z"
       id="path98462" /><path
       id="rect98114"
       style="fill:url(#linearGradient931);stroke-width:0.465;stroke-linecap:round;paint-order:stroke fill markers;fill-opacity:1.0"
       d="m 39.694211,35.5027 0.31851,-0.959501 3.442808,-1.304515 0.136168,16.26093 -0.677108,0.146392 -3.053294,-2.641837 -0.196279,-0.800174 z"
       sodipodi:nodetypes="cccccccc"
       transform="rotate(6.0384191)" /><rect
       style="fill:#ccd0cd;fill-opacity:1;stroke:none;stroke-width:0.465;stroke-linecap:round;paint-order:stroke fill markers"
       id="rect98585"
       width="14.114686"
       height="6.5064993"
       x="5.7079329"
       y="37.201298"
       ry="0.40851438"
       transform="rotate(-17.128269)" /><path
       id="rect122702"
       style="opacity:1;fill:url(#linearGradient8937);stroke-width:0.7;stroke-linecap:round;paint-order:stroke fill markers;fill-opacity:1.0"
       transform="rotate(-23.058362)"
       d="m 14.797769,40.391802 7.833869,0.01177 0,2.912841 h -7.513259 z"
       sodipodi:nodetypes="ccccc" /><rect
       style="opacity:1;fill:url(#linearGradient2472);fill-opacity:1.0;stroke:none;stroke-width:0.7;stroke-linecap:round;stroke-dasharray:none;stroke-opacity:1;paint-order:stroke fill markers"
       id="rect123463"
       width="8.7072649"
       height="1.8044788"
       x="17.110165"
       y="37.568462"
       transform="rotate(-19.042847)" /><rect
       style="opacity:1;fill:url(#linearGradient10280);fill-opacity:1.0;stroke:none;stroke-width:0.7;stroke-linecap:round;stroke-dasharray:none;stroke-opacity:1;paint-order:stroke fill markers"
       id="rect125095"
       width="9.002284"
       height="1.488887"
       x="11.476936"
       y="35.726936"
       ry="0.40851438"
       transform="rotate(-14.343484)" /><circle
       style="opacity:1;fill:#858e8f;fill-opacity:1;stroke:none;stroke-width:0.890837;stroke-linecap:round;stroke-dasharray:none;stroke-opacity:1;paint-order:stroke fill markers"
       id="path127150"
       cx="40.327282"
       cy="30.755859"
       r="2.012414" /><rect
       style="opacity:1;fill:#4b5555;fill-opacity:1;stroke:none;stroke-width:0.665001;stroke-linecap:round;stroke-dasharray:none;stroke-opacity:1;paint-order:stroke fill markers"
       id="rect134470"
       width="4.8399315"
       height="1.1032025"
       x="5.4686308"
       y="45.135036"
       ry="0"
       transform="rotate(-16.145445)" /><path
       id="path99001"
       style="fill:url(#linearGradient925);stroke:none;stroke-width:0.264583px;stroke-linecap:butt;stroke-linejoin:miter;stroke-opacity:1;fill-opacity:1.0"
       d="M 37.898979 26.585457 L 19.673735 31.46888 L 22.538159 42.159184 L 25.066687 42.064616 L 25.34729 52.244873 L 29.382186 51.473344 L 28.850435 41.652755 L 28.302665 37.879858 L 31.295764 37.07784 L 31.720028 38.660173 L 39.152132 36.668563 L 40.294698 35.526514 L 37.898979 26.585457 z M 34.634062 28.487667 C 34.817746 28.484556 35.002883 28.55137 35.146692 28.689722 L 36.834961 30.313912 C 37.122579 30.590616 37.132557 31.04415 36.857182 31.330387 C 36.581807 31.616625 36.128325 31.624144 35.840706 31.347441 L 34.152437 29.72325 C 33.864819 29.446547 33.854842 28.993529 34.130216 28.707292 C 34.267904 28.564173 34.450378 28.490777 34.634062 28.487667 z M 32.1908 29.165662 C 32.374484 29.162551 32.559621 29.229881 32.70343 29.368233 L 34.391699 30.992424 C 34.679318 31.269127 34.688778 31.722145 34.413403 32.008382 C 34.138028 32.294619 33.685063 32.302139 33.397445 32.025435 L 31.709176 30.401245 C 31.421557 30.124541 31.41158 29.671524 31.686955 29.385286 C 31.824642 29.242168 32.007116 29.168772 32.1908 29.165662 z M 29.718083 29.748055 C 29.901767 29.744945 30.086904 29.812275 30.230713 29.950627 L 31.918982 31.574817 C 32.2066 31.851521 32.216578 32.304538 31.941203 32.590776 C 31.665828 32.877013 31.212346 32.884532 30.924727 32.607829 L 29.236975 30.983639 C 28.949357 30.706935 28.939379 30.253917 29.214754 29.96768 C 29.352442 29.824561 29.534399 29.751165 29.718083 29.748055 z M 27.019023 30.551624 C 27.20314 30.548062 27.388877 30.61481 27.532686 30.753162 L 31.021362 34.109546 C 31.308981 34.38625 31.317703 34.840987 31.040999 35.128605 C 30.764296 35.416224 30.310075 35.424946 30.022457 35.148242 L 26.533781 31.791858 C 26.246163 31.515154 26.23744 31.060417 26.514144 30.772799 C 26.652496 30.628989 26.834905 30.555185 27.019023 30.551624 z M 24.433134 31.285429 C 24.617252 31.281868 24.802988 31.349132 24.946798 31.487484 L 28.435474 34.843868 C 28.723092 35.120572 28.731814 35.574792 28.455111 35.86241 C 28.178407 36.150029 27.724187 36.158751 27.436568 35.882048 L 23.947375 32.525663 C 23.659757 32.24896 23.651035 31.794739 23.927738 31.507121 C 24.06609 31.363312 24.249016 31.28899 24.433134 31.285429 z M 22.15317 31.903479 C 22.337287 31.899918 22.522508 31.966665 22.666317 32.105017 L 26.154993 35.461401 C 26.442611 35.738105 26.45185 36.192325 26.175146 36.479944 C 25.898443 36.767562 25.443706 36.776801 25.156087 36.500098 L 21.667411 33.143197 C 21.379793 32.866493 21.371071 32.412273 21.647774 32.124654 C 21.786126 31.980845 21.969052 31.90704 22.15317 31.903479 z " /><rect
       style="opacity:1;fill:#1d1b1b;fill-opacity:1;stroke:none;stroke-width:0.665001;stroke-linecap:round;stroke-dasharray:none;stroke-opacity:1;paint-order:stroke fill markers"
       id="rect134731"
       width="5.2015848"
       height="1.3687882"
       x="0.25685507"
       y="45.060108"
       ry="0"
       transform="rotate(-16.145445)" /><circle
       style="fill:#4d5858;fill-opacity:1;stroke:none;stroke-width:0.465;stroke-linecap:round;paint-order:stroke fill markers"
       id="path100582"
       cx="13.481834"
       cy="37.747051"
       r="2.867969" /><rect
       style="opacity:1;fill:#1d1b1b;fill-opacity:1;stroke:none;stroke-width:0.665001;stroke-linecap:round;stroke-dasharray:none;stroke-opacity:1;paint-order:stroke fill markers"
       id="rect134948"
       width="1.1775362"
       height="3.2946887"
       x="-0.84731013"
       y="44.020947"
       ry="0"
       transform="rotate(-16.145445)" /><rect
       style="fill:#1d1d1d;fill-opacity:1;stroke:none;stroke-width:0.465;stroke-linecap:round;paint-order:stroke fill markers"
       id="rect99075"
       width="4.5656676"
       height="6.9689517"
       x="2.6275573"
       y="36.544548"
       ry="0"
       transform="rotate(-15.450467)" /><rect
       style="opacity:1;fill:#6a7272;fill-opacity:1;stroke:none;stroke-width:0.665001;stroke-linecap:round;stroke-dasharray:none;stroke-opacity:1;paint-order:stroke fill markers"
       id="rect134950"
       width="1.1775362"
       height="3.2946887"
       x="1.2831575"
       y="43.588734"
       ry="0"
       transform="rotate(-16.145445)" /><rect
       style="fill:#858d8e;fill-opacity:1;stroke:none;stroke-width:0.465;stroke-linecap:round;paint-order:stroke fill markers"
       id="rect100233"
       width="0.80499804"
       height="7.6515627"
       x="3.1535635"
       y="36.205517"
       transform="rotate(-13.905555)" /><rect
       style="opacity:1;fill:#6a7272;fill-opacity:1;stroke:none;stroke-width:0.665001;stroke-linecap:round;stroke-dasharray:none;stroke-opacity:1;paint-order:stroke fill markers"
       id="rect136125"
       width="1.1775362"
       height="3.2946887"
       x="3.6355045"
       y="43.472534"
       ry="0"
       transform="rotate(-16.145445)" /><rect
       style="fill:#858d8e;fill-opacity:1;stroke:none;stroke-width:0.465;stroke-linecap:round;paint-order:stroke fill markers"
       id="rect100580"
       width="0.80499804"
       height="7.6515627"
       x="5.4322705"
       y="36.007263"
       transform="rotate(-13.905555)" /><path
       style="fill:url(#linearGradient9548);stroke:none;stroke-width:0.264583px;stroke-linecap:butt;stroke-linejoin:miter;stroke-opacity:1;fill-opacity:1.0;opacity:1"
       d="m 39.818288,36.103806 -0.604062,2.552192 -10.373844,2.712995 -0.701156,0.03268 c 0,0 -0.727115,-3.894198 -0.510427,-3.894198 0.216689,0 4.127294,-0.973728 4.127294,-0.973728 z"
       id="path101986" /><circle
       style="fill:url(#linearGradient2478);fill-opacity:1.0;stroke:none;stroke-width:0.465;stroke-linecap:round;paint-order:stroke fill markers"
       id="path101863"
       cx="29.938663"
       cy="38.666767"
       r="0.54247111" /><path
       sodipodi:type="star"
       style="opacity:1;fill:url(#linearGradient2502);fill-opacity:1.0;stroke:none;stroke-width:0.465;stroke-linecap:round;paint-order:stroke fill markers"
       id="path102661"
       inkscape:flatsided="true"
       sodipodi:sides="3"
       sodipodi:cx="33.468479"
       sodipodi:cy="33.866665"
       sodipodi:r1="3.2116346"
       sodipodi:r2="1.6058174"
       sodipodi:arg1="0.36594603"
       sodipodi:arg2="1.4131436"
       inkscape:rounded="0"
       inkscape:randomized="0"
       d="m 36.467458,35.015893 -5.493729,0.873349 1.990522,-5.194383 z"
       inkscape:transform-center-x="-0.093819804"
       inkscape:transform-center-y="-0.21383223"
       transform="matrix(0.37213175,0,0,0.37213175,24.308933,22.872717)" /><g
       id="g114385"><path
         style="fill:none;stroke:url(#linearGradient11030);stroke-width:0.264583px;stroke-linecap:butt;stroke-linejoin:miter;stroke-opacity:1;fill-opacity:1"
         d="m 31.529602,33.436459 2.331135,-0.624626"
         id="path102853" /><path
         style="fill:none;fill-opacity:1;stroke:url(#linearGradient10292);stroke-width:0.264583px;stroke-linecap:butt;stroke-linejoin:miter;stroke-opacity:1"
         d="M 31.679215,34.095731 34.01035,33.471105"
         id="path114378" /><path
         style="fill:none;fill-opacity:1;stroke:url(#linearGradient11024);stroke-width:0.264583px;stroke-linecap:butt;stroke-linejoin:miter;stroke-opacity:1"
         d="m 31.894336,34.757514 2.331135,-0.624626"
         id="path114380" /></g><g
       id="g114393"
       transform="translate(3.2192011,-0.89755455)"><path
         style="fill:none;fill-opacity:1;stroke:url(#linearGradient11036);stroke-width:0.264583px;stroke-linecap:butt;stroke-linejoin:miter;stroke-opacity:1"
         d="m 31.529602,33.436459 2.331135,-0.624626"
         id="path114387" /><path
         style="fill:none;fill-opacity:1;stroke:url(#linearGradient11042);stroke-width:0.264583px;stroke-linecap:butt;stroke-linejoin:miter;stroke-opacity:1"
         d="M 31.679215,34.095731 34.01035,33.471105"
         id="path114389" /><path
         style="fill:none;fill-opacity:1;stroke:url(#linearGradient11048);stroke-width:0.264583px;stroke-linecap:butt;stroke-linejoin:miter;stroke-opacity:1"
         d="m 31.894336,34.757514 2.331135,-0.624626"
         id="path114391" /></g><path
       style="fill:none;stroke:#a8aea8;stroke-width:0.7;stroke-linecap:round;stroke-linejoin:miter;stroke-dasharray:none;stroke-opacity:1"
       d="M 25.980726,39.722475 23.020571,38.77479 21.276278,37.358539 19.88709,35.204913 18.98022,32.284707 c 0,0 -0.633634,-1.341169 -1.212176,-1.753905 -0.614696,-0.438528 -1.428983,-0.5456 -2.1812,-0.611388 -0.879952,-0.07696 -1.847483,-0.134674 -2.637007,0.261419 -0.864453,0.433684 -1.955573,2.143357 -1.955573,2.143357 l -0.291728,1.673956 0.299904,0.955372"
       id="path114437"
       sodipodi:nodetypes="cccccsssccc" /><path
       style="fill:none;stroke:#535a60;stroke-width:0.665;stroke-linecap:butt;stroke-linejoin:miter;stroke-opacity:1;stroke-dasharray:none"
       d="m 42.597845,24.589063 -0.209116,-2.945571 -3.996275,5.295883 2.271795,4.55795 1.407464,7.052765 -0.529998,1.513099 -1.395521,1.515634"
       id="path128190" /></g></svg>
