<?xml version="1.0" encoding="UTF-8" standalone="no"?>
<!-- Created with Inkscape (http://www.inkscape.org/) -->

<svg
   width="256"
   height="256"
   viewBox="0 0 67.733332 67.733333"
   version="1.1"
   id="svg5"
   xml:space="preserve"
   inkscape:version="1.2.1 (9c6d41e410, 2022-07-14, custom)"
   sodipodi:docname="dynamo.svg"
   inkscape:export-filename="dynamo.png"
   inkscape:export-xdpi="96"
   inkscape:export-ydpi="96"
   xmlns:inkscape="http://www.inkscape.org/namespaces/inkscape"
   xmlns:sodipodi="http://sodipodi.sourceforge.net/DTD/sodipodi-0.dtd"
   xmlns:xlink="http://www.w3.org/1999/xlink"
   xmlns="http://www.w3.org/2000/svg"
   xmlns:svg="http://www.w3.org/2000/svg"><sodipodi:namedview
     id="namedview7"
     pagecolor="#505050"
     bordercolor="#eeeeee"
     borderopacity="1"
     inkscape:showpageshadow="0"
     inkscape:pageopacity="0"
     inkscape:pagecheckerboard="0"
     inkscape:deskcolor="#505050"
     inkscape:document-units="mm"
     showgrid="false"
     inkscape:zoom="1.1148661"
     inkscape:cx="-30.945421"
     inkscape:cy="-26.460578"
     inkscape:window-width="1916"
     inkscape:window-height="1036"
     inkscape:window-x="0"
     inkscape:window-y="20"
     inkscape:window-maximized="1"
     inkscape:current-layer="layer1" /><defs
     id="defs2"><linearGradient
       id="linearGradient52202"><stop
         style="stop-color:#b7c1ba;stop-opacity:1;"
         offset="0"
         id="stop52250" /><stop
         style="stop-color:#dbdfdb;stop-opacity:1;"
         offset="1"
         id="stop52252" /></linearGradient><linearGradient
       id="linearGradient52202-1"><stop
         style="stop-color:#d0d6d2;stop-opacity:1;"
         offset="0"
         id="stop52198" /><stop
         style="stop-color:#b4b5b4;stop-opacity:1;"
         offset="1"
         id="stop52200" /></linearGradient><linearGradient
       id="linearGradient8602"
       inkscape:swatch="solid"><stop
         style="stop-color:#daaa00;stop-opacity:1;"
         offset="0"
         id="stop8600" /></linearGradient><linearGradient
       id="linearGradient8596"
       inkscape:swatch="solid"><stop
         style="stop-color:#d9a900;stop-opacity:1;"
         offset="0"
         id="stop8594" /></linearGradient><linearGradient
       id="linearGradient8590"
       inkscape:swatch="solid"><stop
         style="stop-color:#cca000;stop-opacity:1;"
         offset="0"
         id="stop8588" /></linearGradient><linearGradient
       id="linearGradient8584"
       inkscape:swatch="solid"><stop
         style="stop-color:#d0a200;stop-opacity:1;"
         offset="0"
         id="stop8582" /></linearGradient><linearGradient
       id="linearGradient8577"
       inkscape:swatch="solid"><stop
         style="stop-color:#18187d;stop-opacity:1;"
         offset="0"
         id="stop8575" /></linearGradient><linearGradient
       id="linearGradient8571"
       inkscape:swatch="solid"><stop
         style="stop-color:#1c1c90;stop-opacity:1;"
         offset="0"
         id="stop8569" /></linearGradient><linearGradient
       inkscape:collect="always"
       xlink:href="#linearGradient52202"
       id="linearGradient52204"
       x1="39.340225"
       y1="14.100267"
       x2="39.366276"
       y2="8.964756"
       gradientUnits="userSpaceOnUse"
       spreadMethod="reflect"
       gradientTransform="rotate(14.11136,1.5001076,13.972735)" /></defs><g
     inkscape:label="Layer 1"
     inkscape:groupmode="layer"
     id="layer1"
     transform="translate(2.5738912,-5.0281226)"><rect
       style="fill:#070707;fill-opacity:0.996078;stroke:none;stroke-width:0.964999;stroke-linecap:round;stroke-dasharray:none;stroke-opacity:1;paint-order:stroke fill markers"
       id="rect86886"
       width="7.8738685"
       height="1.3820213"
       x="37.035934"
       y="22.501596"
       transform="rotate(14.976259)" /><rect
       style="display:inline;fill:#788282;fill-opacity:1;stroke:none;stroke-width:0.964999;stroke-linecap:round;stroke-dasharray:none;stroke-opacity:1;paint-order:stroke fill markers"
       id="rect86504"
       width="5.7080855"
       height="4.5590825"
       x="38.205673"
       y="23.78727"
       transform="rotate(15)" /><rect
       style="fill:#b9beb9;fill-opacity:1;stroke-width:0.264999;paint-order:stroke fill markers"
       id="rect62483"
       width="47.65691"
       height="1.2964526"
       x="17.432987"
       y="4.8328314"
       transform="rotate(15)" /><rect
       style="fill:#5d6769;fill-opacity:1;stroke-width:0.264999;paint-order:stroke fill markers"
       id="rect61653"
       width="47.279202"
       height="1.4050655"
       x="17.449432"
       y="5.9062252"
       transform="rotate(15)" /><g
       id="g61651"><path
         id="rect50323"
         style="display:inline;fill:url(#linearGradient52204);fill-opacity:1;stroke-width:2.165;stroke-linecap:round;stroke-linejoin:round;paint-order:stroke fill markers"
         d="M 14.844008,11.344214 60.573511,23.168929 59.493445,29.061406 12.826003,16.56477 Z"
         sodipodi:nodetypes="ccccc" /><path
         style="fill:#bcc2bd;fill-opacity:1;stroke-width:1.78716;stroke-linecap:round;stroke-linejoin:round;paint-order:stroke fill markers"
         d="m 50.318622,25.103569 c 0,0.634186 -0.514108,1.148295 -1.148294,1.148295 -0.634186,0 -1.148295,-0.514109 -1.148295,-1.148295 0,-0.634186 0.514109,-1.148295 1.148295,-1.148295 0.634186,0 1.148294,0.514109 1.148294,1.148295 z"
         id="path59745" /><path
         style="fill:#bcc2bd;fill-opacity:1;stroke-width:1.78716;stroke-linecap:round;stroke-linejoin:round;paint-order:stroke fill markers"
         d="m 56.737387,26.869941 c 0,0.634186 -0.514108,1.148295 -1.148294,1.148295 -0.634186,0 -1.148295,-0.514109 -1.148295,-1.148295 0,-0.634186 0.514109,-1.148295 1.148295,-1.148295 0.634186,0 1.148294,0.514109 1.148294,1.148295 z"
         id="path61074" /><path
         style="fill:#bcc2bd;fill-opacity:1;stroke-width:1.78716;stroke-linecap:round;stroke-linejoin:round;paint-order:stroke fill markers"
         d="m 54.466994,23.924239 c 0,0.634186 -0.514108,1.148295 -1.148294,1.148295 -0.634186,0 -1.148295,-0.514109 -1.148295,-1.148295 0,-0.634186 0.514109,-1.148295 1.148295,-1.148295 0.634186,0 1.148294,0.514109 1.148294,1.148295 z"
         id="path61076" /><path
         style="fill:#bcc2bd;fill-opacity:1;stroke-width:1.78716;stroke-linecap:round;stroke-linejoin:round;paint-order:stroke fill markers"
         d="m 48.066652,21.818185 c 0,0.634186 -0.514108,1.148295 -1.148294,1.148295 -0.634186,0 -1.148295,-0.514109 -1.148295,-1.148295 0,-0.634186 0.514109,-1.148295 1.148295,-1.148295 0.634186,0 1.148294,0.514109 1.148294,1.148295 z"
         id="path61078" /><path
         style="fill:#bcc2bd;fill-opacity:1;stroke-width:1.78716;stroke-linecap:round;stroke-linejoin:round;paint-order:stroke fill markers"
         d="m 44.218259,23.408866 c 0,0.634186 -0.514108,1.148295 -1.148294,1.148295 -0.634186,0 -1.148295,-0.514109 -1.148295,-1.148295 0,-0.634186 0.514109,-1.148295 1.148295,-1.148295 0.634186,0 1.148294,0.514109 1.148294,1.148295 z"
         id="path61080" /><path
         style="fill:#bcc2bd;fill-opacity:1;stroke-width:1.78716;stroke-linecap:round;stroke-linejoin:round;paint-order:stroke fill markers"
         d="m 41.366133,19.91258 c 0,0.634186 -0.514108,1.148295 -1.148294,1.148295 -0.634186,0 -1.148295,-0.514109 -1.148295,-1.148295 0,-0.634186 0.514109,-1.148295 1.148295,-1.148295 0.634186,0 1.148294,0.514109 1.148294,1.148295 z"
         id="path61082" /><path
         style="fill:#bcc2bd;fill-opacity:1;stroke-width:1.78716;stroke-linecap:round;stroke-linejoin:round;paint-order:stroke fill markers"
         d="m 37.518725,21.728834 c 0,0.634186 -0.514108,1.148295 -1.148294,1.148295 -0.634186,0 -1.148295,-0.514109 -1.148295,-1.148295 0,-0.634186 0.514109,-1.148295 1.148295,-1.148295 0.634186,0 1.148294,0.514109 1.148294,1.148295 z"
         id="path61084" /><path
         style="fill:#bcc2bd;fill-opacity:1;stroke-width:1.78716;stroke-linecap:round;stroke-linejoin:round;paint-order:stroke fill markers"
         d="m 34.941374,18.518507 c 0,0.634186 -0.514108,1.148295 -1.148294,1.148295 -0.634186,0 -1.148295,-0.514109 -1.148295,-1.148295 0,-0.634186 0.514109,-1.148295 1.148295,-1.148295 0.634186,0 1.148294,0.514109 1.148294,1.148295 z"
         id="path61086" /><path
         style="fill:#bcc2bd;fill-opacity:1;stroke-width:1.78716;stroke-linecap:round;stroke-linejoin:round;paint-order:stroke fill markers"
         d="m 31.029428,20.000938 c 0,0.634186 -0.514108,1.148295 -1.148294,1.148295 -0.634186,0 -1.148295,-0.514109 -1.148295,-1.148295 0,-0.634186 0.514109,-1.148295 1.148295,-1.148295 0.634186,0 1.148294,0.514109 1.148294,1.148295 z"
         id="path61088" /><path
         style="fill:#bcc2bd;fill-opacity:1;stroke-width:1.78716;stroke-linecap:round;stroke-linejoin:round;paint-order:stroke fill markers"
         d="m 28.586973,16.789497 c 0,0.634186 -0.514108,1.148295 -1.148294,1.148295 -0.634186,0 -1.148295,-0.514109 -1.148295,-1.148295 0,-0.634186 0.514109,-1.148295 1.148295,-1.148295 0.634186,0 1.148294,0.514109 1.148294,1.148295 z"
         id="path61090" /><path
         style="fill:#bcc2bd;fill-opacity:1;stroke-width:1.78716;stroke-linecap:round;stroke-linejoin:round;paint-order:stroke fill markers"
         d="m 24.812835,18.314991 c 0,0.634186 -0.514108,1.148295 -1.148294,1.148295 -0.634186,0 -1.148295,-0.514109 -1.148295,-1.148295 0,-0.634186 0.514109,-1.148295 1.148295,-1.148295 0.634186,0 1.148294,0.514109 1.148294,1.148295 z"
         id="path61092" /><path
         style="fill:#bcc2bd;fill-opacity:1;stroke-width:1.78716;stroke-linecap:round;stroke-linejoin:round;paint-order:stroke fill markers"
         d="m 22.222585,15.193123 c 0,0.634186 -0.514108,1.148295 -1.148294,1.148295 -0.634186,0 -1.148295,-0.514109 -1.148295,-1.148295 0,-0.634186 0.514109,-1.148295 1.148295,-1.148295 0.634186,0 1.148294,0.514109 1.148294,1.148295 z"
         id="path61094" /><path
         style="fill:#bcc2bd;fill-opacity:1;stroke-width:1.78716;stroke-linecap:round;stroke-linejoin:round;paint-order:stroke fill markers"
         d="m 18.51051,16.59346 c 0,0.634186 -0.514108,1.148295 -1.148294,1.148295 -0.634186,0 -1.148295,-0.514109 -1.148295,-1.148295 0,-0.634186 0.514109,-1.148295 1.148295,-1.148295 0.634186,0 1.148294,0.514109 1.148294,1.148295 z"
         id="path61096" /></g><g
       id="g67054"
       transform="rotate(15,66.586279,3.7137865)"><rect
         style="fill:#6d7474;fill-opacity:1;stroke-width:0.264999;paint-order:stroke fill markers"
         id="rect65807"
         width="1.1120183"
         height="5.7455201"
         x="68.585182"
         y="23.098299"
         ry="0.55600917" /><rect
         style="fill:#899191;fill-opacity:1;stroke-width:0.264999;paint-order:stroke fill markers"
         id="rect63215"
         width="3.2325721"
         height="9.5207014"
         x="65.817986"
         y="21.371731"
         ry="1.616286" /><rect
         style="fill:#757e7f;fill-opacity:1;stroke-width:0.261724;paint-order:stroke fill markers"
         id="rect64787"
         width="0.65871906"
         height="9.1644859"
         x="67.778229"
         y="21.561935"
         ry="0.32126945" /></g><path
       id="rect68214"
       style="fill:#070707;fill-opacity:0.984314;stroke-width:0.264999;paint-order:stroke fill markers"
       transform="rotate(15.129651)"
       d="m 13.519012,5.515873 1.274599,-0.2590124 0.289692,8.2349574 -1.564287,-0.237165 z"
       sodipodi:nodetypes="ccccc" /><path
       style="fill:#6e7676;fill-opacity:1;stroke:none;stroke-width:0.264583px;stroke-linecap:butt;stroke-linejoin:miter;stroke-opacity:1"
       d="m 10.614106,27.203498 0.77571,0.223576 -0.358587,1.555183 -1.1587349,0.34575 -1.4602258,-0.658064 -0.6539908,0.223648 -1.2207451,-0.129573 0.4785134,-2.527857 0.9090696,0.231369 -0.7039477,1.497482 2.0075386,0.123385 z"
       id="path70047"
       sodipodi:nodetypes="cccccccccccc" /><rect
       style="display:inline;fill:#393939;fill-opacity:0.984314;stroke:none;stroke-width:0.264999;paint-order:stroke fill markers"
       id="rect73208"
       width="2.9241114"
       height="6.8963575"
       x="12.898797"
       y="17.197123"
       transform="rotate(13.106537)" /><path
       style="fill:#0a0a0a;fill-opacity:1;stroke:none;stroke-width:0.281436px;stroke-linecap:butt;stroke-linejoin:miter;stroke-opacity:1"
       d="m 13.739127,18.880948 4.810466,2.515277 -1.163743,4.406065 -5.752301,-0.200273 z"
       id="path78712" /><path
       style="fill:#7a8383;stroke:none;stroke-width:0.264583px;stroke-linecap:butt;stroke-linejoin:miter;stroke-opacity:1;fill-opacity:1"
       d="m 10.726259,25.577472 1.44641,0.0482 1.935536,-6.561971 -2.483863,-1.608041 z"
       id="path78296" /><rect
       style="fill:#8b9495;fill-opacity:1;stroke:none;stroke-width:0.264999;paint-order:stroke fill markers"
       id="rect69786"
       width="1.9676993"
       height="0.95533037"
       x="10.892237"
       y="10.113853" /><path
       style="fill:#8b9495;stroke:none;stroke-width:0.264583px;stroke-linecap:butt;stroke-linejoin:miter;stroke-opacity:1;fill-opacity:1"
       d="M 11.630869,8.8229225 9.4990282,10.178334 7.5458917,17.467537 9.1347236,17.893264 9.6392367,16.010395 Z"
       id="path69788" /><rect
       style="fill:#43757c;fill-opacity:1;stroke:none;stroke-width:0.264999;paint-order:stroke fill markers"
       id="rect72279"
       width="2.4018784"
       height="1.3063779"
       x="13.512242"
       y="17.583643"
       transform="rotate(15)" /><rect
       style="fill:#43757c;fill-opacity:1;stroke:none;stroke-width:0.264999;paint-order:stroke fill markers"
       id="rect75487"
       width="2.4018784"
       height="1.3063779"
       x="13.486487"
       y="19.771578"
       transform="rotate(15)" /><rect
       style="fill:#43757c;fill-opacity:1;stroke:none;stroke-width:0.264999;paint-order:stroke fill markers"
       id="rect75489"
       width="2.5938954"
       height="0.77483761"
       x="13.590161"
       y="22.248474"
       transform="rotate(15)" /><rect
       style="fill:#8b9495;fill-opacity:1;stroke:none;stroke-width:0.264999;paint-order:stroke fill markers"
       id="rect70860"
       width="0.87181377"
       height="5.922792"
       x="14.277274"
       y="18.89002"
       transform="rotate(15)" /><circle
       style="fill:#060606;fill-opacity:1;stroke:none;stroke-width:0.264999;paint-order:stroke fill markers"
       id="path71052"
       cx="7.7731895"
       cy="27.888208"
       r="0.53387707" /><circle
       style="fill:#a85b44;fill-opacity:1;stroke:none;stroke-width:0.159757;paint-order:stroke fill markers"
       id="path72740"
       cx="8.5562792"
       cy="21.182867"
       r="0.34436741" /><path
       id="rect75894"
       style="fill:#393939;stroke-width:0.264999;paint-order:stroke fill markers"
       transform="rotate(14.896354)"
       d="m 10.713085,16.009587 1.501786,-0.673275 v 7.36349 l -1.297255,-1.072476 z"
       sodipodi:nodetypes="ccccc" /><path
       style="fill:#3b5461;stroke:none;stroke-width:0.264583px;stroke-linecap:butt;stroke-linejoin:miter;stroke-opacity:1;fill-opacity:0.99215686"
       d="m 9.1784,17.670505 2.417611,-0.287639 0.05148,1.178122 -3.0956749,0.351425 z"
       id="path76086" /><rect
       style="fill:#8b9495;fill-opacity:1;stroke:none;stroke-width:0.264999;paint-order:stroke fill markers"
       id="rect75873"
       width="1.2888602"
       height="0.53463131"
       x="11.276962"
       y="17.843657"
       transform="rotate(16.409082)" /><rect
       style="fill:#8b9495;fill-opacity:1;stroke:none;stroke-width:0.264999;paint-order:stroke fill markers"
       id="rect75875"
       width="1.91192"
       height="0.54926842"
       x="4.624836"
       y="19.482077"
       transform="rotate(-3.5610475)" /><rect
       style="fill:#8b9495;fill-opacity:1;stroke:none;stroke-width:0.264999;paint-order:stroke fill markers"
       id="rect75877"
       width="2.0866477"
       height="0.55756825"
       x="0.033001751"
       y="18.905088"
       transform="rotate(-17.768)" /><rect
       style="fill:#8b9495;fill-opacity:1;stroke:none;stroke-width:0.264999;paint-order:stroke fill markers"
       id="rect75879"
       width="1.605466"
       height="0.53871453"
       x="16.767675"
       y="-15.020785"
       transform="matrix(0.82193331,0.56958373,0.56958373,-0.82193331,0,0)" /><rect
       style="fill:#8b9495;fill-opacity:1;stroke:none;stroke-width:0.264999;paint-order:stroke fill markers"
       id="rect75881"
       width="1.2888602"
       height="0.53463131"
       x="17.954281"
       y="-15.875051"
       transform="matrix(0.80552024,0.59256827,0.59256827,-0.80552024,0,0)" /><rect
       style="fill:#8b9495;fill-opacity:1;stroke:none;stroke-width:0.264999;paint-order:stroke fill markers"
       id="rect75883"
       width="2.2842603"
       height="0.58684719"
       x="23.032639"
       y="-7.2164087"
       transform="matrix(0.47237268,0.88139892,0.88139892,-0.47237268,0,0)" /><path
       id="rect75885"
       style="fill:#8b9495;stroke-width:0.264999;paint-order:stroke fill markers"
       transform="rotate(11.207202)"
       d="m 9.3865775,16.471632 c 0.226545,0 0.408926,0.191046 0.408926,0.428355 v 5.190977 c 0,0.237308 -0.182381,0.428354 -0.408926,0.428354 -0.2265449,0 -0.4089259,-0.191046 -0.4089259,-0.428354 v -1.81984 L 8.452334,19.626521 8.3763548,18.369152 8.9776516,17.78532 v -0.885333 c 0,-0.237309 0.182381,-0.428355 0.4089259,-0.428355 z"
       sodipodi:nodetypes="sssssccccss" /><rect
       style="fill:#8b9495;fill-opacity:1;stroke:none;stroke-width:0.264999;paint-order:stroke fill markers"
       id="rect75889"
       width="1.0856583"
       height="2.0229621"
       x="7.0698991"
       y="18.045137"
       ry="0.54282916"
       transform="rotate(10.045762)" /><rect
       style="fill:#8b9495;fill-opacity:1;stroke:none;stroke-width:0.264999;paint-order:stroke fill markers"
       id="rect75892"
       width="1.6427217"
       height="9.7131596"
       x="12.057718"
       y="14.27986"
       transform="rotate(15)" /><rect
       style="fill:#8b9495;fill-opacity:1;stroke:none;stroke-width:0.264999;paint-order:stroke fill markers"
       id="rect75543"
       width="4.445899"
       height="2.1489339"
       x="12.116823"
       y="14.795148"
       transform="rotate(15)" /><path
       style="fill:#8b9495;stroke:none;stroke-width:0.264583px;stroke-linecap:butt;stroke-linejoin:miter;stroke-opacity:1;fill-opacity:1"
       d="m 15.776291,9.0946107 -2.721348,8.9995593 -2.754866,10.2813 -1.0713705,-0.287073 0.8900435,-3.321688 2.013085,-7.512937 -1.092778,-0.292809 1.329201,-5.819285 0.54051,-2.205839 z"
       id="path67056" /><rect
       style="fill:#545f5f;fill-opacity:1;stroke:none;stroke-width:0.264999;paint-order:stroke fill markers"
       id="rect79668"
       width="8.6785469"
       height="1.9047496"
       x="24.57412"
       y="17.171776"
       transform="rotate(15)" /><path
       style="fill:#7a8383;stroke:none;stroke-width:0.264583px;stroke-linecap:butt;stroke-linejoin:miter;stroke-opacity:1;fill-opacity:1"
       d="m 18.466732,21.53044 1.363726,0.787347 -0.895211,3.340974 h -1.628664 z"
       id="path79335" /><path
       style="fill:#6c7576;stroke:none;stroke-width:0.264583px;stroke-linecap:butt;stroke-linejoin:miter;stroke-opacity:1;fill-opacity:1"
       d="m 27.230296,24.901267 -1.428744,3.463427 3.918746,1.083009 3.950549,1.065595 1.953882,-0.09358 0.423254,-1.431948 0.565232,-1.769403 -1.084151,-1.0278 -1.019657,-0.752203 -1.691034,0.3526 -2.610662,-0.187257 z"
       id="path80360" /><circle
       style="fill:#090a0a;fill-opacity:1;stroke:none;stroke-width:0.264999;paint-order:stroke fill markers"
       id="path80414"
       cx="28.553064"
       cy="27.086697"
       r="0.4855018" /><circle
       style="fill:#090a0a;fill-opacity:1;stroke:none;stroke-width:0.264999;paint-order:stroke fill markers"
       id="circle81934"
       cx="32.860058"
       cy="27.601732"
       r="0.4855018" /><circle
       style="fill:#7d8b8b;fill-opacity:1;stroke:none;stroke-width:0.441573;paint-order:stroke fill markers"
       id="circle81936"
       cx="34.466717"
       cy="29.411978"
       r="0.80900049" /><path
       id="circle82352"
       style="fill:#4f5d5d;fill-opacity:0.980392;stroke:none;stroke-width:0.441573;paint-order:stroke fill markers"
       d="m 37.87133,30.662689 a 0.80900049,0.80900049 0 0 0 -0.982569,0.569557 l 1.565224,0.405731 A 0.80900049,0.80900049 0 0 0 37.87133,30.662689 Z" /><path
       id="path83651"
       style="fill:#4f5d5d;fill-opacity:0.980392;stroke:none;stroke-width:0.441573;paint-order:stroke fill markers"
       d="m 30.646004,28.720289 a 0.80900049,0.80900049 0 0 0 -0.982569,0.569557 l 1.565224,0.405731 a 0.80900049,0.80900049 0 0 0 -0.582655,-0.975288 z" /><rect
       style="fill:#5b6465;fill-opacity:1;stroke:none;stroke-width:0.964999;stroke-linecap:round;stroke-dasharray:none;stroke-opacity:1;paint-order:stroke fill markers"
       id="rect88322"
       width="0.97236305"
       height="4.1706038"
       x="41.241005"
       y="23.833254"
       transform="rotate(15)" /><rect
       style="fill:#5b6465;fill-opacity:1;stroke:none;stroke-width:0.964999;stroke-linecap:round;stroke-dasharray:none;stroke-opacity:1;paint-order:stroke fill markers"
       id="rect88324"
       width="0.97236305"
       height="4.1706038"
       x="39.496429"
       y="23.942469"
       transform="rotate(15)" /><rect
       style="display:inline;fill:#788282;fill-opacity:1;stroke:none;stroke-width:0.964999;stroke-linecap:round;stroke-dasharray:none;stroke-opacity:1;paint-order:stroke fill markers"
       id="rect88328"
       width="4.8901277"
       height="1.3315473"
       x="38.707577"
       y="28.26506"
       transform="rotate(15)" /><path
       style="fill:none;stroke:#080808;stroke-width:0.465;stroke-linecap:butt;stroke-linejoin:miter;stroke-opacity:1;stroke-dasharray:none"
       d="m 34.006326,40.460757 0.839909,0.657913 0.0048,1.049851 -1.250995,0.651687"
       id="path89772" /><rect
       style="display:inline;fill:#788282;fill-opacity:1;stroke:none;stroke-width:0.964999;stroke-linecap:round;stroke-dasharray:none;stroke-opacity:1;paint-order:stroke fill markers"
       id="rect88330"
       width="4.8901277"
       height="1.3315473"
       x="38.537823"
       y="29.287998"
       transform="rotate(15)" /><rect
       style="display:inline;fill:#788282;fill-opacity:1;stroke:none;stroke-width:0.964999;stroke-linecap:round;stroke-dasharray:none;stroke-opacity:1;paint-order:stroke fill markers"
       id="rect88332"
       width="5.4716721"
       height="1.3288361"
       x="38.304268"
       y="30.292645"
       transform="rotate(15)" /><rect
       style="display:inline;fill:#788282;fill-opacity:1;stroke:none;stroke-width:0.964999;stroke-linecap:round;stroke-dasharray:none;stroke-opacity:1;paint-order:stroke fill markers"
       id="rect88334"
       width="6.103353"
       height="1.5323077"
       x="37.862011"
       y="31.490976"
       transform="rotate(15)" /><path
       id="rect92389"
       style="fill:#798686;stroke-width:0.465;stroke-linecap:round;paint-order:stroke fill markers"
       transform="rotate(15)"
       d="m 36.951908,32.971282 0.679226,-0.758935 6.692129,0.140136 0.618939,2.283552 -0.815038,0.794579 -5.955186,0 -1.190773,-0.662361 z"
       sodipodi:nodetypes="cccccccc" /><path
       style="display:inline;fill:none;stroke:#c6ccc8;stroke-width:0.965;stroke-linecap:round;stroke-linejoin:miter;stroke-dasharray:none;stroke-opacity:1"
       d="M 33.794339,31.986161 30.81248,43.114607"
       id="path85363" /><rect
       style="fill:#838989;fill-opacity:1;stroke:none;stroke-width:0.264999;paint-order:stroke fill markers"
       id="rect84119"
       width="12.326225"
       height="2.172863"
       x="34.955902"
       y="20.471294"
       transform="rotate(15)" /><rect
       style="fill:#5b6465;fill-opacity:1;stroke:none;stroke-width:0.964999;stroke-linecap:round;stroke-dasharray:none;stroke-opacity:1;paint-order:stroke fill markers"
       id="rect87354"
       width="0.97236305"
       height="4.1706038"
       x="42.529015"
       y="23.864418"
       transform="rotate(15)" /><rect
       style="fill:#5b6465;fill-opacity:1;stroke:none;stroke-width:0.964999;stroke-linecap:round;stroke-dasharray:none;stroke-opacity:1;paint-order:stroke fill markers"
       id="rect88326"
       width="0.97236305"
       height="4.1706038"
       x="38.392822"
       y="23.913214"
       transform="rotate(15)" /><circle
       style="fill:#080808;fill-opacity:0.976471;stroke:none;stroke-width:0.964999;stroke-linecap:round;stroke-dasharray:none;stroke-opacity:1;paint-order:stroke fill markers"
       id="path88388"
       cx="27.459541"
       cy="42.749313"
       r="0.26895946" /><circle
       style="fill:#080808;fill-opacity:0.976471;stroke:none;stroke-width:0.964999;stroke-linecap:round;stroke-dasharray:none;stroke-opacity:1;paint-order:stroke fill markers"
       id="circle89770"
       cx="33.915054"
       cy="44.578854"
       r="0.26895946" /><path
       style="fill:#080808;stroke:none;stroke-width:0.264583px;stroke-linecap:butt;stroke-linejoin:miter;stroke-opacity:1;fill-opacity:1"
       d="m 28.440315,45.564024 c -0.03948,0.07006 0.742143,1.722433 0.742143,1.722433 l 1.033257,0.344405 1.963126,-1.088168 z"
       id="path94290" /><rect
       style="fill:#798686;fill-opacity:1;stroke:none;stroke-width:0.465;stroke-linecap:round;stroke-linejoin:miter;stroke-dasharray:none;stroke-opacity:1;paint-order:stroke fill markers"
       id="rect92318"
       width="4.5492764"
       height="1.5065322"
       x="38.805401"
       y="35.340076"
       transform="rotate(15)" /><rect
       style="fill:#080808;fill-opacity:1;stroke:none;stroke-width:0.465;stroke-linecap:round;stroke-linejoin:miter;stroke-dasharray:none;stroke-opacity:1;paint-order:stroke fill markers"
       id="rect94233"
       width="1.2545018"
       height="8.3856382"
       x="39.686111"
       y="38.655186"
       transform="rotate(14.063884)" /><rect
       style="fill:#555e5f;fill-opacity:1;stroke:none;stroke-width:0.465;stroke-linecap:round;stroke-linejoin:miter;stroke-dasharray:none;stroke-opacity:1;paint-order:stroke fill markers"
       id="rect92444"
       width="2.7489152"
       height="2.9108412"
       x="42.394287"
       y="37.02953"
       transform="rotate(18.461951)" /><rect
       style="fill:#7a8383;fill-opacity:1;stroke:none;stroke-width:0.465;stroke-linecap:round;stroke-linejoin:miter;stroke-dasharray:none;stroke-opacity:1;paint-order:stroke fill markers"
       id="rect93602"
       width="0.93185109"
       height="3.4490132"
       x="44.768486"
       y="37.114532"
       transform="rotate(18.174196)"
       ry="0.46592554" /><rect
       style="fill:#7a8383;fill-opacity:1;stroke:none;stroke-width:0.465;stroke-linecap:round;stroke-linejoin:miter;stroke-dasharray:none;stroke-opacity:1;paint-order:stroke fill markers"
       id="rect94225"
       width="0.93185109"
       height="3.4490132"
       x="41.441917"
       y="37.082661"
       transform="rotate(18.174196)"
       ry="0.46592554" /><path
       id="rect94287"
       style="fill:#080808;stroke-width:0.465;stroke-linecap:round;paint-order:stroke fill markers"
       transform="rotate(13.18685)"
       d="m 38.334458,48.916989 2.314971,-0.174282 0.299323,4.743004 -3.086743,0.01541 z"
       sodipodi:nodetypes="ccccc" /><rect
       style="fill:#7a8383;fill-opacity:1;stroke:none;stroke-width:0.465;stroke-linecap:round;stroke-linejoin:miter;stroke-dasharray:none;stroke-opacity:1;paint-order:stroke fill markers"
       id="rect94227"
       width="3.6777039"
       height="1.5120132"
       x="36.155579"
       y="54.216618"
       ry="0"
       transform="rotate(11.788858)" /><rect
       style="fill:#7a8383;fill-opacity:1;stroke:none;stroke-width:0.465;stroke-linecap:round;stroke-linejoin:miter;stroke-dasharray:none;stroke-opacity:1;paint-order:stroke fill markers"
       id="rect94229"
       width="2.3568618"
       height="1.3512772"
       x="37.174427"
       y="48.56789"
       ry="0"
       transform="rotate(11.788858)" /><rect
       style="fill:#7a8383;fill-opacity:1;stroke:none;stroke-width:0.465;stroke-linecap:round;stroke-linejoin:miter;stroke-dasharray:none;stroke-opacity:1;paint-order:stroke fill markers"
       id="rect94231"
       width="1.6110467"
       height="1.118032"
       x="37.744835"
       y="45.508526"
       ry="0"
       transform="rotate(11.788858)" /><path
       style="fill:#7b8283;stroke:none;stroke-width:0.264583px;stroke-linecap:butt;stroke-linejoin:miter;stroke-opacity:1;fill-opacity:1"
       d="M 8.1455982,11.273925 9.5829371,10.985847 8.5641108,13.870691 8.101381,12.950086 Z"
       id="path96248" /><g
       id="g96459"
       transform="rotate(7.7518522,6.2672869,22.110175)"><rect
         style="fill:#838383;fill-opacity:1;stroke:none;stroke-width:0.465;stroke-linecap:round;stroke-linejoin:miter;stroke-dasharray:none;stroke-opacity:1;paint-order:stroke fill markers"
         id="rect95051"
         width="0.81702876"
         height="1.8331385"
         x="6.0715075"
         y="10.884053"
         ry="0.40851438" /><circle
         style="fill:#060606;fill-opacity:1;stroke:none;stroke-width:0.465;stroke-linecap:round;stroke-linejoin:miter;stroke-dasharray:none;stroke-opacity:1;paint-order:stroke fill markers"
         id="path96246"
         cx="6.2832847"
         cy="-11.735904"
         r="0.26130876"
         transform="scale(1,-1)" /></g></g></svg>
