<?xml version="1.0" encoding="UTF-8" standalone="no"?>
<!-- Created with Inkscape (http://www.inkscape.org/) -->

<svg
   width="128"
   height="128"
   viewBox="0 0 33.866666 33.866666"
   version="1.1"
   id="svg5"
   xml:space="preserve"
   inkscape:version="1.2.2 (b0a8486541, 2022-12-01)"
   sodipodi:docname="firefin.svg"
   xmlns:inkscape="http://www.inkscape.org/namespaces/inkscape"
   xmlns:sodipodi="http://sodipodi.sourceforge.net/DTD/sodipodi-0.dtd"
   xmlns="http://www.w3.org/2000/svg"
   xmlns:svg="http://www.w3.org/2000/svg"><sodipodi:namedview
     id="namedview7"
     pagecolor="#505050"
     bordercolor="#eeeeee"
     borderopacity="1"
     inkscape:showpageshadow="0"
     inkscape:pageopacity="0"
     inkscape:pagecheckerboard="0"
     inkscape:deskcolor="#505050"
     inkscape:document-units="mm"
     showgrid="false"
     inkscape:zoom="3.1714366"
     inkscape:cx="-5.8333186"
     inkscape:cy="5.9909758"
     inkscape:window-width="1906"
     inkscape:window-height="1026"
     inkscape:window-x="5"
     inkscape:window-y="25"
     inkscape:window-maximized="1"
     inkscape:current-layer="layer1" /><defs
     id="defs2" /><g
     inkscape:label="Layer 1"
     inkscape:groupmode="layer"
     id="layer1"><path
       style="fill:#efefef;fill-opacity:1;stroke:none;stroke-width:0.264583px;stroke-linecap:butt;stroke-linejoin:miter;stroke-opacity:1"
       d="m 20.388059,16.795819 c -0.256935,0.553518 0.706452,1.186419 0.486938,1.680872 -0.185209,0.417182 -0.903024,0.512407 -1.335421,0.798952 -0.835021,0.553359 -1.78347,1.005145 -2.425912,1.773737 -0.61063,0.730533 -1.105034,1.583061 -1.250152,2.568277 -0.09746,0.661621 0.219713,1.983437 0.219713,1.983437 0,0 0.560274,1.8379 1.608122,2.305762 0.845922,0.377702 3.445271,0.791423 3.445271,0.791423 l 3.626055,-0.07429 c 0,0 2.446381,0.113671 3.553674,-0.298366 0.317948,-0.118312 1.03004,-0.529275 1.03004,-0.529275 l 1.812753,-2.043042 c 0,0 0.192538,-1.014177 0.205409,-1.527896 0.01089,-0.434476 -0.143744,-0.83606 -0.108796,-1.299291 0.03819,-0.50623 0.302245,-0.94835 0.358658,-1.439684 0.07731,-0.673311 -0.03156,-2.032958 -0.03156,-2.032958 0,0 -0.298427,-1.725426 -0.689009,-2.494613 -0.480811,-0.946878 -1.978965,-2.496701 -1.978965,-2.496701 0,0 -0.928312,-0.827666 -1.66769,-1.177056 -0.257426,-0.121646 -0.826742,-0.506803 -1.111453,-0.509126 -0.407119,-0.0033 -1.052093,0.194478 -1.410354,0.387885 -0.700676,0.378258 -1.486202,1.54539 -1.486202,1.54539 0,0 -0.836782,0.873829 -0.884128,1.034839 -0.04734,0.161009 -0.129694,0.496758 -0.129694,0.496758 l -1.010489,0.115251 c 0,0 -0.733793,0.239325 -0.826808,0.43971 z"
       id="path356"
       sodipodi:nodetypes="ssssscsccsccssscscsssccccss" /><path
       id="path454"
       style="fill:#010000;fill-opacity:1;stroke:none;stroke-width:0.264583px;stroke-linecap:butt;stroke-linejoin:miter;stroke-opacity:1"
       d="M 26.068176 13.843599 C 25.488023 13.852599 25.051196 14.408543 24.593331 14.802197 C 24.188807 15.149981 23.517944 15.989722 23.517944 15.989722 L 23.147941 16.586068 L 24.211959 16.854785 C 24.211959 16.854785 24.959538 17.070134 25.27701 17.221171 C 25.515902 17.33482 25.872045 17.404374 25.880074 17.651119 C 25.886574 17.849379 25.584739 18.062783 25.41912 18.027323 C 24.952044 17.927321 24.522017 17.356563 24.522017 17.356563 L 23.519495 17.065625 C 23.519495 17.065625 22.845019 17.0551 22.529891 17.12867 C 22.165046 17.21385 21.589668 17.296136 21.487061 17.395321 C 21.325806 17.55119 21.996073 17.835604 21.996073 17.835604 L 21.87205 18.938896 C 21.87205 18.938896 19.581099 20.367075 18.573543 21.303609 C 18.13491 21.71132 17.606226 22.101526 17.330725 22.633244 C 17.056618 23.162263 16.808778 23.744351 16.801042 24.340116 C 16.795142 24.791423 16.939364 25.25451 17.168461 25.643396 C 17.452685 26.125862 17.886355 26.515757 18.36167 26.825753 C 18.801952 27.112909 19.334301 27.380015 19.875273 27.430884 C 21.196851 27.555155 22.364031 27.650558 23.824386 27.671696 C 24.982483 27.688466 27.729574 27.560075 27.729574 27.560075 L 29.087113 27.05778 C 29.087113 27.05778 29.975782 26.227732 30.182654 25.678019 C 30.446752 24.976256 30.292725 23.431128 30.292725 23.431128 C 30.292725 23.431128 30.046204 23.120098 29.942875 22.91488 C 29.872655 22.775417 30.124259 22.535059 30.124259 22.535059 C 30.124259 22.535059 30.433311 21.242703 30.441036 20.583757 C 30.449236 19.882306 30.363586 19.168175 30.152681 18.499129 C 29.926093 17.780311 29.122253 16.486332 29.122253 16.486332 L 27.386442 14.720549 C 27.386442 14.720549 26.616111 13.851196 26.096082 13.843599 C 26.086782 13.843463 26.077386 13.843456 26.068176 13.843599 z M 26.026835 14.841471 C 26.026835 14.841471 26.502704 15.09945 26.742554 15.253333 C 27.070716 15.46387 27.700635 15.957682 27.700635 15.957682 C 27.700635 15.957682 27.821822 16.08595 27.780733 16.183508 C 27.758013 16.237458 27.614335 16.365926 27.614335 16.365926 L 27.139945 15.979903 L 27.007137 16.116329 L 27.501164 16.56178 C 27.501164 16.56178 27.570726 16.734115 27.512016 16.773653 C 27.446416 16.817833 27.297042 16.673401 27.297042 16.673401 L 26.779244 16.234668 L 26.610262 16.460494 L 27.014889 16.797424 L 27.267069 17.094564 C 27.267069 17.094564 27.310331 17.317717 27.222111 17.356563 C 27.059416 17.428203 26.697595 17.122986 26.697595 17.122986 C 26.697595 17.122986 25.914347 16.502416 25.455294 16.332336 C 25.170832 16.226943 24.738542 16.194877 24.738542 16.194877 C 24.738542 16.194877 25.12152 15.621323 25.326619 15.426965 C 25.601191 15.16678 26.026835 14.841471 26.026835 14.841471 z M 20.459733 21.075716 L 26.880013 21.075716 L 26.880013 23.15931 L 27.398844 23.15931 L 27.398844 26.514661 L 26.244393 26.514661 C 26.143673 26.539444 25.849307 26.609266 25.566915 26.656771 L 25.566915 26.86296 L 20.08973 26.86296 L 20.08973 26.514661 L 18.945097 26.514661 L 18.945097 23.15931 L 20.459733 23.15931 L 20.459733 21.075716 z " /><path
       id="path332"
       style="display:inline;fill:#e83828;fill-opacity:1;stroke:none;stroke-width:0.264583px;stroke-linecap:butt;stroke-linejoin:miter;stroke-opacity:1"
       d="m 26.751457,18.37854 c 0,0 -1.875509,0.907649 -2.013506,0.809446 -0.200899,-0.142965 -0.965689,-0.984806 -0.965689,-0.984806 l -1.072912,-0.05985 -0.0095,1.152044 -1.96245,1.499276 c 0,0 -0.985528,0.464156 -1.993087,1.400693 -0.438636,0.407711 -0.488076,0.8892 -0.763577,1.420918 -0.274107,0.529022 -0.159626,1.31478 -0.159626,1.31478 l 0.557614,1.152781 c 0,0 0.433111,0.530464 0.974083,0.581333 1.321584,0.124271 2.488755,0.219674 3.949113,0.240812 1.158103,0.01677 3.905188,-0.111621 3.905188,-0.111621 l 1.192121,-0.531394 c 0,0 0.693921,-0.678783 0.900793,-1.228498 0.264098,-0.701766 -0.08995,-1.200623 -0.08995,-1.200623 0,0 -0.329512,0.109913 -0.432841,-0.0953 -0.07022,-0.139466 0.320913,-0.91123 0.320913,-0.91123 0,0 0.266696,-1.570706 0.274421,-2.229655 0.0082,-0.701451 -0.180351,-1.524421 -0.391256,-2.193467 -0.226591,-0.718821 -0.795124,-1.438123 -0.795124,-1.438123 z m -5.175491,5.628783 c 0,0 -0.645901,-0.502635 -0.732607,-0.728674 -0.07417,-0.193347 0.107151,-0.681116 0.195841,-0.868241 0.111321,-0.23488 0.427959,-0.683493 0.460019,-0.683842 l 0.347439,-0.284934 1.568891,0.35192 c 0,0 0.266242,-0.10027 0.425433,-0.111887 0.240649,-0.01756 0.312776,-0.03077 0.601041,-0.107232 0.288712,-0.07658 0.566435,0.16782 0.566435,0.16782 l 5e-6,-6e-6 c 0,0 0.434833,0.01092 0.516373,0.152708 0.10398,0.180765 0.363381,0.607694 0.363381,0.607694 l -0.09323,0.916485 c -0.165327,0.112939 -0.262676,0.426938 -0.475277,0.439428 -0.233449,0.01372 -1.128762,0.201774 -1.362051,0.185594 -0.189403,-0.01314 -0.226859,0.105546 -0.350459,-0.04406 -0.108198,-0.130998 -0.423375,0.189783 -0.642413,0.07672 z m 1.385077,2.694316 c -0.284831,0.192562 -0.997355,-0.0036 -0.997355,-0.0036 l -0.422668,0.09967 c -0.212968,0.336988 -0.33002,-0.17439 -0.553688,-0.02537 -0.284911,0.18983 -0.981147,-0.276906 -0.981147,-0.276906 l 0.962732,-1.87017 c 0,0 0.277972,-0.310086 0.485241,-0.312126 v 1.7e-5 c 0.165688,-0.0016 0.391191,0.225826 0.391191,0.225826 0,0 0.119474,-0.582457 0.724027,-0.264529 l 1.117278,0.002 c 0.165641,-0.0016 0.264492,0.160502 0.264492,0.160502 0,0 0.466823,-0.665756 0.489653,-0.108626 0.314432,-0.188643 0.147317,0.03357 0.511847,0.0158 h 7e-6 c 0.410048,-0.01999 0.592989,0.584543 0.790132,0.944645 0.167486,0.305927 0.314193,0.997872 0.314193,0.997872 l -0.04031,0.257865 c 0,0 -0.733613,0.316688 -1.103577,0.323948 -0.294241,0.0058 -0.979605,-0.05737 -0.979605,-0.05737 L 23.60171,26.691181 c -0.341475,0.487829 -0.417068,-0.140745 -0.640667,0.01042 z"
       sodipodi:nodetypes="csccccssccssccscsccscccsscccsscccccsscccsccscccccccccssscccccss" /><path
       id="path775"
       style="display:inline;fill:#010000;fill-opacity:1;stroke:none;stroke-width:0.264583px;stroke-linecap:butt;stroke-linejoin:miter;stroke-opacity:1"
       d="m 20.239762,25.099972 -0.970407,1.905704 c 0,0 2.525939,0.273515 3.958614,0.263112 1.158194,-0.0084 3.66806,-0.419741 3.66806,-0.419741 0,0 -0.214024,-0.783929 -0.66152,-2.029379 -0.128968,-0.548766 -0.962193,-0.743308 -0.962193,-0.743308 l -0.361887,-0.228601 c 0,0 -1.391015,-0.08524 -1.674919,-0.08692 -0.67277,-0.004 -1.744681,0.153706 -1.744681,0.153706 l -0.408055,0.1702 z m 1.208603,-0.755944 c 0.165688,-0.0016 0.396984,0.194948 0.396984,0.194948 0,0 -0.129476,0.581667 -0.334863,1.132747 -0.125995,0.338058 -0.253312,0.677287 -0.476974,0.826306 -0.284911,0.18983 -1.027327,-0.0026 -1.027327,-0.0026 l 0.986408,-1.844585 c 0.176481,-0.150735 0.287515,-0.241675 0.455772,-0.306816 z m 3.504288,1.32e-4 c 0.410048,-0.01999 0.592989,0.584543 0.790132,0.944645 0.167486,0.305927 0.314193,0.997872 0.314193,0.997872 l -0.04031,0.257865 c 0,0 -0.775703,0.196862 -1.145667,0.204122 -0.294241,0.0058 -0.91674,-0.0894 -0.91674,-0.0894 l 0.03772,-0.375688 c 0,0 0.229627,-0.789379 0.343131,-1.035079 0.08627,-0.186756 0.253004,-0.886568 0.617534,-0.904337 z m -1.660364,0.101802 c 0.165641,-0.0016 0.391191,0.228927 0.391191,0.228927 0,0 -0.109378,0.786636 -0.31471,1.345654 -0.12596,0.342927 -0.184128,0.529928 -0.407727,0.681096 -0.284831,0.192562 -0.936587,-0.0082 -0.936587,-0.0082 l 0.783108,-1.93115 c 0,0 0.277511,-0.314191 0.484725,-0.31626 z"
       sodipodi:nodetypes="ccsccccscccccsscccsscccccsssccsscccc" /><path
       style="fill:#010101;stroke:none;stroke-width:0.264583px;stroke-linecap:butt;stroke-linejoin:miter;stroke-opacity:1;fill-opacity:1"
       d="m 22.038161,20.672669 0.208647,0.724003 c 0,0 0.718668,0.177221 1.084707,0.171849 0.516179,-0.0076 1.521856,-0.28712 1.521856,-0.28712 l 1.194957,-1.063431 0.07819,0.915339 -0.576941,0.409353 c 0,0 -1.692601,0.486259 -2.56352,0.420716 -0.397148,-0.02989 -1.13378,-0.321342 -1.13378,-0.321342 l -0.153899,-0.429092 0.130028,-0.559489 z"
       id="path1021"
       sodipodi:nodetypes="ccsccccscccc" /><path
       style="fill:#010000;fill-opacity:1;stroke:none;stroke-width:0.065;stroke-linecap:butt;stroke-linejoin:miter;stroke-dasharray:none;stroke-opacity:1"
       d="m 21.889384,21.357309 c 0,0 -0.626548,0.386268 -0.862876,0.660867 -0.216674,0.251764 -0.423882,0.545392 -0.481288,0.872557 -0.04858,0.27688 -0.05665,0.783879 0.129254,0.99474 0.227413,0.257943 1.37708,0.191148 1.37708,0.191148 l -0.567998,-0.460349 c 0,0 -0.181848,-0.538048 -0.188244,-0.774469 -0.0063,-0.232572 0.847084,-1.170839 0.847084,-1.170839 z"
       id="path8270"
       sodipodi:nodetypes="csssccscc" /><path
       style="fill:#010000;fill-opacity:1;stroke:none;stroke-width:0.065;stroke-linecap:butt;stroke-linejoin:miter;stroke-dasharray:none;stroke-opacity:1"
       d="m 23.32683,21.614312 c 0,0 -0.08264,0.199291 -0.318971,0.47389 -0.216674,0.251764 -0.423882,0.545392 -0.481288,0.872557 -0.04858,0.27688 -0.05665,0.783879 0.129254,0.99474 0.227413,0.257943 1.37708,0.191148 1.37708,0.191148 l -0.567998,-0.460349 c 0,0 -0.181848,-0.538048 -0.188244,-0.774469 -0.0063,-0.232572 0.847084,-1.170839 0.847084,-1.170839 z"
       id="path8270-3"
       sodipodi:nodetypes="csssccscc" /><path
       style="fill:#010000;fill-opacity:1;stroke:none;stroke-width:0.065;stroke-linecap:butt;stroke-linejoin:miter;stroke-dasharray:none;stroke-opacity:1"
       d="m 24.8581,21.501268 c 0,0 0.630031,0.127272 0.866359,0.401871 0.216674,0.251764 0.423882,0.545392 0.481288,0.872557 0.04858,0.27688 -0.126232,0.740729 -0.312132,0.95159 -0.227413,0.257943 -1.069734,0.263104 -1.069734,0.263104 0,0 0.352519,-0.195532 0.552058,-0.440064 0.144191,-0.176703 0.395637,-0.480354 0.402033,-0.716775 0.0063,-0.232572 -0.110291,-0.498235 -0.217506,-0.692815 -0.201504,-0.3657 -0.702366,-0.639468 -0.702366,-0.639468 z"
       id="path10415"
       sodipodi:nodetypes="cssscsssc" /><path
       id="path10469"
       style="fill:#010000;stroke-width:0.0649999;paint-order:markers stroke fill;stop-color:#000000"
       d="m 25.72465,22.06569 c 0.360962,0.347456 -0.478483,0.808669 -0.897032,0.808669 -0.418549,0 -0.757851,-0.294365 -0.757851,-0.657484 0,-0.363119 0.339302,-0.657484 0.757851,-0.657484 0.418549,0 0.635421,0.254476 0.897032,0.506299 z"
       sodipodi:nodetypes="sssss" /><path
       id="ellipse10471"
       style="fill:#010000;stroke-width:0.0649999;paint-order:markers stroke fill;stop-color:#000000"
       d="m 22.905911,22.371918 c 0,0.330636 0.09657,0.569073 -0.321975,0.569073 -0.418549,1e-6 -0.523803,-0.239135 -0.523803,-0.569771 0,-0.330636 0.609159,-0.634416 1.027708,-0.634415 0.418549,0 -0.181931,0.304477 -0.18193,0.635113 z"
       sodipodi:nodetypes="sssss" /></g></svg>
