<?xml version="1.0" encoding="UTF-8" standalone="no"?>
<!-- Created with Inkscape (http://www.inkscape.org/) -->

<svg
   width="256"
   height="256"
   viewBox="0 0 67.733332 67.733333"
   version="1.1"
   id="svg5"
   xml:space="preserve"
   inkscape:version="1.2.1 (9c6d41e410, 2022-07-14, custom)"
   sodipodi:docname="hydra.svg"
   inkscape:export-filename="hydra.png"
   inkscape:export-xdpi="96"
   inkscape:export-ydpi="96"
   xmlns:inkscape="http://www.inkscape.org/namespaces/inkscape"
   xmlns:sodipodi="http://sodipodi.sourceforge.net/DTD/sodipodi-0.dtd"
   xmlns:xlink="http://www.w3.org/1999/xlink"
   xmlns="http://www.w3.org/2000/svg"
   xmlns:svg="http://www.w3.org/2000/svg"><sodipodi:namedview
     id="namedview7"
     pagecolor="#505050"
     bordercolor="#eeeeee"
     borderopacity="1"
     inkscape:showpageshadow="0"
     inkscape:pageopacity="0"
     inkscape:pagecheckerboard="0"
     inkscape:deskcolor="#505050"
     inkscape:document-units="mm"
     showgrid="false"
     inkscape:zoom="1.5493151"
     inkscape:cx="-28.722368"
     inkscape:cy="219.12908"
     inkscape:window-width="1916"
     inkscape:window-height="1036"
     inkscape:window-x="0"
     inkscape:window-y="20"
     inkscape:window-maximized="1"
     inkscape:current-layer="layer1" /><defs
     id="defs2"><linearGradient
       id="linearGradient29808"
       inkscape:swatch="solid"><stop
         style="stop-color:#000000;stop-opacity:1;"
         offset="0"
         id="stop29806" /></linearGradient><linearGradient
       id="linearGradient29800"
       inkscape:swatch="solid"><stop
         style="stop-color:#000000;stop-opacity:1;"
         offset="0"
         id="stop29798" /></linearGradient><linearGradient
       id="linearGradient29794"
       inkscape:swatch="solid"><stop
         style="stop-color:#1f1e1e;stop-opacity:1;"
         offset="0"
         id="stop29792" /></linearGradient><linearGradient
       id="linearGradient29788"
       inkscape:swatch="solid"><stop
         style="stop-color:#000000;stop-opacity:1;"
         offset="0"
         id="stop29786" /></linearGradient><linearGradient
       inkscape:collect="always"
       xlink:href="#linearGradient29794"
       id="linearGradient29796"
       x1="11.669222"
       y1="39.07482"
       x2="33.995829"
       y2="39.07482"
       gradientUnits="userSpaceOnUse" /><linearGradient
       inkscape:collect="always"
       xlink:href="#linearGradient29794"
       id="linearGradient29802"
       x1="16.342981"
       y1="33.955151"
       x2="19.624756"
       y2="33.955151"
       gradientUnits="userSpaceOnUse" /><linearGradient
       inkscape:collect="always"
       xlink:href="#linearGradient29794"
       id="linearGradient29810"
       x1="13.464142"
       y1="34.742878"
       x2="26.00691"
       y2="34.742878"
       gradientUnits="userSpaceOnUse" /></defs><g
     inkscape:label="Layer 1"
     inkscape:groupmode="layer"
     id="layer1"><rect
       style="fill:#797e7e;fill-opacity:0.843137;stroke:none;stroke-width:0.264999;stroke-dasharray:none;stroke-opacity:1;paint-order:stroke fill markers"
       id="rect57581"
       width="1.9839935"
       height="0.64196241"
       x="21.711143"
       y="44.314617"
       transform="rotate(-15)" /><path
       style="fill:#0a0a0a;stroke:none;stroke-width:0.264583px;stroke-linecap:butt;stroke-linejoin:miter;stroke-opacity:1;fill-opacity:1"
       d="m 39.18159,48.182794 0.207084,0.625012 0.895231,-0.149532 1.602668,1.755259 1.5401,0.0249 2.155666,-0.4422 4.157446,-1.12254 3.776297,-2.564278 -0.560612,-0.71985 -3.829833,2.432416 -0.978332,0.137974 -1.257675,-0.945123 -0.472125,-0.366599 -2.5781,0.43239 -0.271241,1.380448 c 0,0 -0.511572,0.567545 -0.592814,0.567545 -0.08125,0 -0.657641,-0.101749 -0.657641,-0.101749 l -0.548934,-0.561289 0.0068,-0.885413 v -0.277619 z"
       id="path56561" /><rect
       style="fill:#8e9898;fill-opacity:1;stroke:none;stroke-width:0.264999;stroke-dasharray:none;stroke-opacity:1;paint-order:stroke fill markers"
       id="rect52295"
       width="0.79353786"
       height="8.8764286"
       x="29.800779"
       y="46.354279"
       ry="0"
       transform="rotate(-15)" /><rect
       style="fill:#881006;fill-opacity:1;stroke:none;stroke-width:0.264999;stroke-dasharray:none;stroke-opacity:1;paint-order:stroke fill markers"
       id="rect52297"
       width="1.4081831"
       height="10.845238"
       x="30.498993"
       y="44.597736"
       ry="0"
       transform="rotate(-15)" /><path
       style="fill:#767676;stroke:none;stroke-width:0.264583px;stroke-linecap:butt;stroke-linejoin:miter;stroke-opacity:1;fill-opacity:1"
       d="m 34.717034,36.982029 -2.033143,0.495316 -1.003183,0.34167 -1.633979,-0.749734 0.80641,1.818746 0.868103,-0.653191 3.004047,-0.421528 0.101534,-0.334296 z"
       id="path41164" /><path
       id="rect29914"
       style="display:inline;fill:#7c8384;stroke-width:1.665;paint-order:stroke fill markers"
       d="M -4.2595424 19.49934 L -11.643227 19.499565 L -11.642909 21.654646 L -4.2595573 21.654817 L -4.2595424 19.49934 z M -4.5236728 20.646625 L -4.5238337 21.614164 L -6.0220864 21.613937 L -6.0219255 20.646399 L -4.5236728 20.646625 z M -9.8729728 20.663178 L -9.8731337 21.630717 L -11.370991 21.630823 L -11.371225 20.662952 L -9.8729728 20.663178 z "
       transform="rotate(-40.069782)" /><path
       id="path30676"
       style="display:inline;fill:#dd5522;fill-opacity:1;stroke:none;stroke-width:0.264583px;stroke-linecap:butt;stroke-linejoin:miter;stroke-opacity:1"
       d="m 20.548158,49.546531 0.205614,2.074608 1.07642,0.621667 3.230294,-0.86558 z m 1.38177,1.149599 c 0.244596,-1.7e-5 0.442884,0.198271 0.442867,0.442867 1.7e-5,0.244596 -0.198271,0.442884 -0.442867,0.442867 -0.244596,1.7e-5 -0.442884,-0.198271 -0.442867,-0.442867 -1.7e-5,-0.244596 0.198271,-0.442884 0.442867,-0.442867 z"
       sodipodi:nodetypes="cccccccccc" /><g
       id="g18385"
       style="display:inline"><rect
         style="fill:#cba200;fill-opacity:1;stroke-width:0.633;paint-order:stroke fill markers"
         id="rect13670"
         width="4.2828674"
         height="3.7287858"
         x="50.55307"
         y="50.285168"
         transform="rotate(-14.490719)" /><rect
         style="fill:#a27e00;fill-opacity:1;stroke-width:0.633;paint-order:stroke fill markers"
         id="rect15112"
         width="0.46449247"
         height="3.7287865"
         x="52.805641"
         y="50.285168"
         transform="rotate(-14.490719)" /><rect
         style="fill:#a27e00;fill-opacity:1;stroke-width:0.633;paint-order:stroke fill markers"
         id="rect16770"
         width="0.46449247"
         height="3.7287865"
         x="53.710068"
         y="50.285168"
         transform="rotate(-14.490719)" /><path
         style="fill:#858d8e;fill-opacity:1;stroke:none;stroke-width:0.264583px;stroke-linecap:butt;stroke-linejoin:miter;stroke-opacity:1"
         d="m 49.259542,39.210644 11.101896,-2.39771 0.928814,2.726338 -11.371103,3.674041 z"
         id="path17601" /><rect
         style="fill:#8c949c;fill-opacity:1;stroke-width:0.633;paint-order:stroke fill markers"
         id="rect16837"
         width="1.8268518"
         height="4.9014006"
         x="50.315945"
         y="48.125454"
         transform="rotate(-12.836007)" /></g><g
       id="g18397"
       transform="translate(-1.6032078,-6.4249166)"
       style="display:inline"><rect
         style="fill:#cba200;fill-opacity:1;stroke-width:0.633;paint-order:stroke fill markers"
         id="rect18387"
         width="4.2828674"
         height="3.7287858"
         x="50.55307"
         y="50.285168"
         transform="rotate(-14.490719)" /><rect
         style="fill:#a27e00;fill-opacity:1;stroke-width:0.633;paint-order:stroke fill markers"
         id="rect18389"
         width="0.46449247"
         height="3.7287865"
         x="52.805641"
         y="50.285168"
         transform="rotate(-14.490719)" /><rect
         style="fill:#a27e00;fill-opacity:1;stroke-width:0.633;paint-order:stroke fill markers"
         id="rect18391"
         width="0.46449247"
         height="3.7287865"
         x="53.710068"
         y="50.285168"
         transform="rotate(-14.490719)" /><path
         style="fill:#858d8e;fill-opacity:1;stroke:none;stroke-width:0.264583px;stroke-linecap:butt;stroke-linejoin:miter;stroke-opacity:1"
         d="m 49.259542,39.210644 11.101896,-2.39771 0.928814,2.726338 -11.371103,3.674041 z"
         id="path18393" /><rect
         style="fill:#8c949c;fill-opacity:1;stroke-width:0.633;paint-order:stroke fill markers"
         id="rect18395"
         width="1.8268518"
         height="4.9014006"
         x="50.315945"
         y="48.125454"
         transform="rotate(-12.836007)" /></g><rect
       style="fill:#830e06;fill-opacity:0.996078;stroke:none;stroke-width:0.264999;stroke-dasharray:none;stroke-opacity:1;paint-order:stroke fill markers"
       id="rect56479"
       width="1.0331831"
       height="6.7516599"
       x="37.267086"
       y="48.731262"
       ry="0.51659155"
       transform="rotate(-14.428101)" /><rect
       style="fill:#830e06;fill-opacity:0.996078;stroke:none;stroke-width:0.264999;stroke-dasharray:none;stroke-opacity:1;paint-order:stroke fill markers"
       id="rect54614"
       width="1.0331831"
       height="6.7516599"
       x="37.118416"
       y="42.207703"
       ry="0.51659155"
       transform="rotate(-14.428101)" /><rect
       style="display:inline;fill:#a10e05;fill-opacity:1;stroke:none;stroke-width:0.264999;stroke-dasharray:none;stroke-opacity:1;paint-order:stroke fill markers"
       id="rect53170"
       width="5.5896153"
       height="15.303049"
       x="31.292719"
       y="41.961105"
       transform="rotate(-15)" /><g
       id="g21818"
       style="display:inline"><rect
         style="fill:#a40f05;fill-opacity:1;stroke:none;stroke-width:0.633;paint-order:stroke fill markers"
         id="rect18451"
         width="2.2717812"
         height="5.5172353"
         x="41.183521"
         y="43.174835"
         transform="rotate(-15)" /><rect
         style="fill:#c10e05;fill-opacity:1;stroke:none;stroke-width:0.633;paint-order:stroke fill markers"
         id="rect21041"
         width="1.5275725"
         height="0.72775859"
         x="41.539196"
         y="45.063736"
         transform="rotate(-15)" /><rect
         style="fill:#c10e05;fill-opacity:1;stroke:none;stroke-width:0.633;paint-order:stroke fill markers"
         id="rect21802"
         width="1.5275725"
         height="0.72775859"
         x="41.544979"
         y="46.706028"
         transform="rotate(-15)" /></g><g
       id="g21813"
       style="display:inline"><rect
         style="fill:#a40f05;fill-opacity:1;stroke:none;stroke-width:0.633;paint-order:stroke fill markers"
         id="rect21804"
         width="2.2717812"
         height="5.5172353"
         x="41.096222"
         y="49.673244"
         transform="rotate(-15)" /><rect
         style="fill:#c10e05;fill-opacity:1;stroke:none;stroke-width:0.633;paint-order:stroke fill markers"
         id="rect21806"
         width="1.5275725"
         height="0.72775859"
         x="41.451897"
         y="51.562145"
         transform="rotate(-15)" /><rect
         style="fill:#c10e05;fill-opacity:1;stroke:none;stroke-width:0.633;paint-order:stroke fill markers"
         id="rect21808"
         width="1.5275725"
         height="0.72775859"
         x="41.45768"
         y="53.204437"
         transform="rotate(-15)" /></g><rect
       style="fill:#7d0f05;fill-opacity:1;stroke:none;stroke-width:0.633;paint-order:stroke fill markers"
       id="rect21872"
       width="1.2759593"
       height="2.5519185"
       x="41.585159"
       y="47.834122"
       ry="0.63797963"
       transform="rotate(-15)" /><rect
       style="fill:#a0a0a9;fill-opacity:1;stroke:none;stroke-width:0.633;paint-order:stroke fill markers"
       id="rect22037"
       width="13.948475"
       height="34.699036"
       x="-15.060628"
       y="21.267908"
       ry="4.030262"
       transform="rotate(-40.466625)" /><path
       id="path25181"
       style="fill:#cd0f06;fill-opacity:1;stroke:none;stroke-width:0.642771;paint-order:stroke fill markers"
       d="M 23.693391 4.6242326 A 4.69909 3.1214497 90 0 0 22.372078 8.4632044 A 4.69909 3.1214497 90 0 0 25.493389 13.162346 A 4.69909 3.1214497 90 0 0 28.6147 8.4632044 A 4.69909 3.1214497 90 0 0 25.493389 3.7640632 A 4.69909 3.1214497 90 0 0 23.693391 4.6242326 z M 25.068785 5.8381165 A 1.2316623 2.8515259 1.4902185 0 1 25.544181 5.6126601 A 1.2316623 2.8515259 1.4902185 0 1 26.726274 8.44128 A 1.2316623 2.8515259 1.4902185 0 1 25.442597 11.313749 A 1.2316623 2.8515259 1.4902185 0 1 24.261235 8.4851289 A 1.2316623 2.8515259 1.4902185 0 1 25.068785 5.8381165 z "
       transform="rotate(45)" /><path
       id="path26113"
       style="fill:#db1006;fill-opacity:1;stroke:none;stroke-width:0.642771;paint-order:stroke fill markers"
       d="M 28.46803 36.572961 A 3.1214497 4.69909 45 0 0 28.444775 36.595182 A 3.1214497 4.69909 45 0 0 27.329081 42.125077 A 3.1214497 4.69909 45 0 0 32.858976 41.009383 A 3.1214497 4.69909 45 0 0 32.881197 40.986646 L 31.546395 39.651326 A 1.2316623 2.8515259 46.490218 0 1 31.53916 39.658561 A 1.2316623 2.8515259 46.490218 0 1 28.600321 40.782007 A 1.2316623 2.8515259 46.490218 0 1 29.765108 37.946521 A 1.2316623 2.8515259 46.490218 0 1 29.804382 37.909831 L 28.46803 36.572961 z " /><path
       id="rect28103"
       style="fill:#cd0f06;stroke-width:0.633;paint-order:stroke fill markers"
       transform="rotate(51.041633)"
       d="m 31.381293,3.4036156 c 0,0 -0.106024,-0.3479548 -0.209471,-0.4290094 C 31.035826,2.868048 30.58189,2.9253729 30.58189,2.9253729 l -1.331422,0.024168 -0.08636,-1.6977774 2.270508,-0.1124932 c 0,0 0.863915,0.3493442 1.187277,0.6682076 0.351607,0.3467161 0.744586,1.2806819 0.744586,1.2806819 V 8.1665804 H 31.545865 Z M 30.158081,9.987195 V 8.1665804 h 3.208397 V 9.987195 Z" /><path
       id="path28108"
       style="fill:#db1006;stroke:none;stroke-width:0.264583px;stroke-linecap:butt;stroke-linejoin:miter;stroke-opacity:1;fill-opacity:1"
       d="M 21.667928 34.866089 L 20.845239 34.940503 L 18.039209 37.595121 L 21.37854 41.688411 L 24.369572 39.260136 L 24.776265 38.102067 L 24.353552 37.065955 L 22.703524 35.141007 L 21.667928 34.866089 z M 22.052401 37.07784 L 22.64823 37.667468 L 22.547978 38.374402 L 21.687048 38.964547 L 20.740853 37.769271 L 21.441069 37.107296 L 22.052401 37.07784 z " /><rect
       style="fill:#db1006;fill-opacity:1;stroke:none;stroke-width:0.633;paint-order:stroke fill markers"
       id="rect28664"
       width="1.7560716"
       height="5.3700414"
       x="-4.3200521"
       y="40.2547"
       transform="rotate(-41.343108)" /><rect
       style="fill:#db1006;fill-opacity:1;stroke:none;stroke-width:0.633;paint-order:stroke fill markers"
       id="rect28670"
       width="8.8694477"
       height="2.0986221"
       x="-10.847778"
       y="46.184292"
       transform="rotate(-40.825884)" /><rect
       style="fill:#db1006;fill-opacity:1;stroke:none;stroke-width:0.633;paint-order:stroke fill markers"
       id="rect28672"
       width="8.8694477"
       height="2.0986221"
       x="-11.016517"
       y="50.453838"
       transform="rotate(-41.020577)" /><rect
       style="fill:#db1006;fill-opacity:1;stroke:none;stroke-width:0.633;paint-order:stroke fill markers"
       id="rect28674"
       width="1.7039059"
       height="2.585638"
       x="-9.5171862"
       y="47.066994"
       transform="rotate(-39.11445)" /><path
       id="path28676"
       style="fill:#cd0f06;fill-opacity:1;stroke:none;stroke-width:0.642771;paint-order:stroke fill markers"
       d="m 20.319256,27.786 a 3.1214497,4.69909 45 0 0 -3.648873,1.780253 3.1214497,4.69909 45 0 0 -1.115694,5.529895 3.1214497,4.69909 45 0 0 5.529895,-1.115694 3.1214497,4.69909 45 0 0 1.115694,-5.529895 A 3.1214497,4.69909 45 0 0 20.319256,27.786 Z m 0.114205,1.830896 a 1.2316623,2.8515259 46.490218 0 1 0.495577,0.176734 1.2316623,2.8515259 46.490218 0 1 -1.16427,2.836002 1.2316623,2.8515259 46.490218 0 1 -2.938839,1.123445 1.2316623,2.8515259 46.490218 0 1 1.164787,-2.835485 1.2316623,2.8515259 46.490218 0 1 2.442745,-1.300696 z" /><path
       style="fill:none;stroke:url(#linearGradient29802);stroke-width:1.665;stroke-linecap:butt;stroke-linejoin:miter;stroke-dasharray:none;stroke-opacity:1"
       d="m 16.931647,32.902931 1.89017,2.5792 1.41596,2.776158 -1.160752,2.158641 -2.844638,2.380386"
       id="path29784"
       sodipodi:nodetypes="ccccc" /><path
       style="fill:none;stroke:url(#linearGradient29810);stroke-width:1.665;stroke-linecap:butt;stroke-linejoin:miter;stroke-opacity:1;stroke-dasharray:none"
       d="M 25.458967,29.739092 14.012085,39.746666"
       id="path29804" /><path
       style="display:inline;fill:#af1006;fill-opacity:1;stroke:none;stroke-width:0.264583px;stroke-linecap:butt;stroke-linejoin:miter;stroke-opacity:1"
       d="m 32.963384,38.094517 0.548838,6.523847 5.032965,3.883412 4.948143,-1.523323 -2.608506,-9.619046 -0.873398,-1.072859 z"
       id="path39254" /><path
       style="display:inline;fill:#e5b800;fill-opacity:1;stroke:none;stroke-width:0.264583px;stroke-linecap:butt;stroke-linejoin:miter;stroke-opacity:1"
       d="m 35.953353,43.395034 -1.47171,0.444775 0.159125,1.426933 0.722765,3.22663 c 0,0 0.173985,1.498456 -0.323397,1.91052 -0.441622,0.365869 -1.720144,-0.03337 -1.720144,-0.03337 l -1.993008,-1.567789 -2.794996,1.385696 c 0,0 0.7191,1.945943 1.448928,2.631564 0.510783,0.479845 1.242006,0.659881 1.901439,0.897154 0.724891,0.260826 1.468975,0.574079 2.239359,0.571622 0.95541,-0.003 1.970868,-0.206977 2.772616,-0.72661 0.778672,-0.504677 1.326631,-1.341014 1.743872,-2.169832 0.294751,-0.5855 0.458735,-1.248188 0.497506,-1.902547 0.03086,-0.52083 -0.214394,-1.550479 -0.214394,-1.550479 l -0.789112,-3.27945 -0.432147,-1.35844 z"
       id="path31372"
       sodipodi:nodetypes="ccccscccsssssscccc" /><rect
       style="display:inline;fill:#881006;fill-opacity:1;stroke:none;stroke-width:0.264999;stroke-dasharray:none;stroke-opacity:1;paint-order:stroke fill markers"
       id="rect40748"
       width="2.8246133"
       height="1.2720406"
       x="21.75905"
       y="49.952045"
       ry="0.6360203"
       transform="rotate(-16.213678)" /><path
       style="display:inline;fill:#f25c29;fill-opacity:1;stroke:none;stroke-width:0.265;stroke-linecap:butt;stroke-linejoin:miter;stroke-dasharray:none;stroke-opacity:1"
       d="m 32.038798,39.543569 3.404446,-1.859127 1.100953,-0.953418 -0.209458,-4.783579 1.864516,-0.451715 0.539793,4.94561 -0.193593,1.415534 -0.967563,1.398201 -2.22228,1.577427 -1.893261,1.188175 -1.496938,-2.526178 z"
       id="path36492" /><rect
       style="fill:#717b7d;fill-opacity:1;stroke:none;stroke-width:0.264999;stroke-dasharray:none;stroke-opacity:1;paint-order:stroke fill markers"
       id="rect48650"
       width="2.1117201"
       height="0.91442263"
       x="-2.9936752"
       y="64.091362"
       transform="rotate(-45)" /><path
       id="path42404"
       style="display:inline;fill:#545d5d;fill-opacity:1;stroke:none;stroke-width:0.28191;stroke-dasharray:none;stroke-opacity:1;paint-order:stroke fill markers"
       d="m 45.814061,49.586125 c 0.246797,-0.02066 0.497039,-0.135304 0.693681,-0.339698 l 0.06334,-0.06589 c 0.393289,-0.408788 0.417653,-1.016331 0.05451,-1.361927 l -1.308504,-1.245345 -1.512968,1.513485 1.338577,1.273666 c 0.181569,0.1728 0.424574,0.246354 0.671368,0.225734 z" /><circle
       style="fill:#6c7677;fill-opacity:1;stroke:none;stroke-width:0.264999;stroke-dasharray:none;stroke-opacity:1;paint-order:stroke fill markers"
       id="path42458"
       cx="45.741695"
       cy="48.406548"
       r="0.74210268" /><g
       id="g45433"
       transform="translate(2.3172704,-1.1194996)"><path
         id="rect42399"
         style="fill:#767676;fill-opacity:1;stroke:none;stroke-width:0.264999;stroke-dasharray:none;stroke-opacity:1;paint-order:stroke fill markers"
         d="m 33.938643,39.22191 c -0.231235,0.0051 -0.460245,0.09851 -0.633553,0.279569 l -0.05581,0.05839 c -0.346616,0.362121 -0.334215,0.932893 0.02791,1.279509 l 1.304829,1.249019 1.33687,-1.337386 -1.334803,-1.277441 c -0.18106,-0.173308 -0.414203,-0.256723 -0.645438,-0.251664 z" /><circle
         style="fill:#899293;fill-opacity:1;stroke:none;stroke-width:0.177763;stroke-dasharray:none;stroke-opacity:1;paint-order:stroke fill markers"
         id="circle44808"
         cx="34.034058"
         cy="40.265251"
         r="0.49780717" /></g><path
       style="fill:#747d7f;stroke:none;stroke-width:0.264583px;stroke-linecap:butt;stroke-linejoin:miter;stroke-opacity:1;fill-opacity:1"
       d="m 37.335372,40.46901 0.49208,0.492083 -0.261416,1.370594 2.001734,-1.859894 -1.242703,0.149532 -0.594889,-0.506082 z"
       id="path45435" /><rect
       style="fill:#717b7d;fill-opacity:1;stroke:none;stroke-width:0.264999;stroke-dasharray:none;stroke-opacity:1;paint-order:stroke fill markers"
       id="rect49256"
       width="0.51876688"
       height="7.1119304"
       x="-2.1787114"
       y="56.8232"
       transform="rotate(-45)" /><rect
       style="fill:#636e6e;fill-opacity:1;stroke:none;stroke-width:0.264999;stroke-dasharray:none;stroke-opacity:1;paint-order:stroke fill markers"
       id="rect47214"
       width="3.0774808"
       height="0.36654177"
       x="-1.5158205"
       y="56.552853"
       ry="0"
       transform="rotate(-42.987746)" /><rect
       style="fill:#636e6e;fill-opacity:1;stroke:none;stroke-width:0.264999;stroke-dasharray:none;stroke-opacity:1;paint-order:stroke fill markers"
       id="rect48596"
       width="3.0774808"
       height="0.36654177"
       x="-1.2500052"
       y="63.846767"
       ry="0"
       transform="rotate(-42.987746)" /><rect
       style="fill:#8e9898;fill-opacity:1;stroke:none;stroke-width:0.264999;stroke-dasharray:none;stroke-opacity:1;paint-order:stroke fill markers"
       id="rect51888"
       width="3.0139546"
       height="0.72201836"
       x="10.445356"
       y="56.050877"
       ry="0.36100918"
       transform="rotate(-31.049676)" /><rect
       style="fill:#8e9898;fill-opacity:1;stroke:none;stroke-width:0.264999;stroke-dasharray:none;stroke-opacity:1;paint-order:stroke fill markers"
       id="rect52235"
       width="3.0139546"
       height="0.72201836"
       x="10.88499"
       y="57.333462"
       ry="0.36100918"
       transform="rotate(-31.049676)" /><rect
       style="fill:#8e9898;fill-opacity:1;stroke:none;stroke-width:0.264999;stroke-dasharray:none;stroke-opacity:1;paint-order:stroke fill markers"
       id="rect52237"
       width="3.0139546"
       height="0.72201836"
       x="11.105369"
       y="58.735779"
       ry="0.36100918"
       transform="rotate(-31.049676)" /><rect
       style="fill:#8e9898;fill-opacity:1;stroke:none;stroke-width:0.264999;stroke-dasharray:none;stroke-opacity:1;paint-order:stroke fill markers"
       id="rect52239"
       width="3.0139546"
       height="0.72201836"
       x="11.333745"
       y="60.105492"
       ry="0.36100918"
       transform="rotate(-31.049676)" /><rect
       style="fill:#8e9898;fill-opacity:1;stroke:none;stroke-width:0.264999;stroke-dasharray:none;stroke-opacity:1;paint-order:stroke fill markers"
       id="rect52241"
       width="3.0139546"
       height="0.72201836"
       x="11.871689"
       y="61.421394"
       ry="0.36100918"
       transform="rotate(-31.049676)" /><path
       style="display:inline;fill:#1f1e1d;fill-opacity:1;stroke:none;stroke-width:0.264583px;stroke-linecap:butt;stroke-linejoin:miter;stroke-opacity:1"
       d="m 30.572884,49.935415 -2.542847,2.582198 -1.039667,1.758972 -5.411575,1.524828 0.153153,1.03804 5.584061,-1.548607 0.737579,-0.269695 1.534335,-2.153279 2.696612,-2.587864 z"
       id="path35731" /><path
       style="fill:#cccccc;stroke:none;stroke-width:0.264583px;stroke-linecap:butt;stroke-linejoin:miter;stroke-opacity:1;fill-opacity:1"
       d="m 33.973352,46.036269 1.22197,1.849665 -2.972684,2.547834 -1.190964,-0.03618 -1.031007,-0.746768 z"
       id="path32202" /><rect
       style="display:inline;fill:#d81006;fill-opacity:1;stroke:none;stroke-width:0.264999;stroke-dasharray:none;stroke-opacity:1;paint-order:stroke fill markers"
       id="rect54353"
       width="1.7096024"
       height="16.368185"
       x="33.350006"
       y="41.674225"
       transform="rotate(-15)"
       ry="0.85480136" /><path
       style="fill:none;fill-opacity:0;stroke:url(#linearGradient29796);stroke-width:1.665;stroke-linecap:butt;stroke-linejoin:miter;stroke-dasharray:none;stroke-opacity:0.984314"
       d="m 34.193648,45.014279 -4.588127,4.039308 -4.851119,1.668405 -3.582334,-1.641618 -8.233069,-9.738949 -0.397282,-2.321743 1.336315,-2.234885 8.936169,-7.590242"
       id="path28678"
       sodipodi:nodetypes="cccccccc" /></g></svg>
