<?xml version="1.0" encoding="UTF-8" standalone="no"?>
<!-- Created with Inkscape (http://www.inkscape.org/) -->

<svg
   width="256"
   height="256"
   viewBox="0 0 67.733332 67.733333"
   version="1.1"
   id="svg76171"
   xml:space="preserve"
   inkscape:version="1.2.1 (9c6d41e410, 2022-07-14, custom)"
   sodipodi:docname="inkarmor.svg"
   inkscape:export-filename="inkarmor.png"
   inkscape:export-xdpi="96"
   inkscape:export-ydpi="96"
   xmlns:inkscape="http://www.inkscape.org/namespaces/inkscape"
   xmlns:sodipodi="http://sodipodi.sourceforge.net/DTD/sodipodi-0.dtd"
   xmlns:xlink="http://www.w3.org/1999/xlink"
   xmlns="http://www.w3.org/2000/svg"
   xmlns:svg="http://www.w3.org/2000/svg"><sodipodi:namedview
     id="namedview76173"
     pagecolor="#3c3c3c"
     bordercolor="#666666"
     borderopacity="1.0"
     inkscape:showpageshadow="2"
     inkscape:pageopacity="0"
     inkscape:pagecheckerboard="0"
     inkscape:deskcolor="#d1d1d1"
     inkscape:document-units="mm"
     showgrid="false"
     inkscape:zoom="4.3709452"
     inkscape:cx="118.62423"
     inkscape:cy="119.53936"
     inkscape:window-width="1916"
     inkscape:window-height="1036"
     inkscape:window-x="0"
     inkscape:window-y="20"
     inkscape:window-maximized="1"
     inkscape:current-layer="layer1" /><defs
     id="defs76168"><linearGradient
       id="linearGradient3086"
       inkscape:swatch="solid"><stop
         style="stop-color:#3a0dcd;stop-opacity:1;"
         offset="0"
         id="stop3084" /></linearGradient><linearGradient
       id="linearGradient3052"
       inkscape:swatch="gradient"><stop
         style="stop-color:#3a0dcd;stop-opacity:1;"
         offset="0"
         id="stop3048" /><stop
         style="stop-color:#3a0dcd;stop-opacity:0;"
         offset="1"
         id="stop3050" /></linearGradient><linearGradient
       id="linearGradient3038"
       inkscape:swatch="solid"><stop
         style="stop-color:#000000;stop-opacity:1;"
         offset="0"
         id="stop3036" /></linearGradient><linearGradient
       id="linearGradient1182"
       inkscape:swatch="gradient"><stop
         style="stop-color:#5220f2;stop-opacity:1;"
         offset="0"
         id="stop1178" /><stop
         style="stop-color:#330bb2;stop-opacity:1;"
         offset="1"
         id="stop1180" /></linearGradient><linearGradient
       id="linearGradient1004"
       inkscape:swatch="gradient"><stop
         style="stop-color:#3a0dcd;stop-opacity:1;"
         offset="0"
         id="stop1000" /><stop
         style="stop-color:#320bb1;stop-opacity:1;"
         offset="1"
         id="stop1002" /></linearGradient><linearGradient
       id="linearGradient78115"
       inkscape:swatch="solid"><stop
         style="stop-color:#3a0dcd;stop-opacity:1;"
         offset="0"
         id="stop78113" /></linearGradient><linearGradient
       id="linearGradient78103"
       inkscape:swatch="solid"><stop
         style="stop-color:#3a0dcd;stop-opacity:1;"
         offset="0"
         id="stop78101" /></linearGradient><linearGradient
       id="linearGradient78097"
       inkscape:swatch="solid"><stop
         style="stop-color:#ffffff;stop-opacity:1;"
         offset="0"
         id="stop78095" /></linearGradient><linearGradient
       inkscape:collect="always"
       xlink:href="#linearGradient3086"
       id="linearGradient977"
       gradientUnits="userSpaceOnUse"
       x1="33.009274"
       y1="17.511963"
       x2="32.446808"
       y2="30.885199" /><linearGradient
       inkscape:collect="always"
       xlink:href="#linearGradient3086"
       id="linearGradient3088"
       x1="22.295537"
       y1="36.849521"
       x2="46.186628"
       y2="36.849521"
       gradientUnits="userSpaceOnUse" /></defs><g
     inkscape:label="Layer 1"
     inkscape:groupmode="layer"
     id="layer1"><path
       id="path78093"
       style="fill-opacity:1;stroke:none;stroke-width:0.388785px;stroke-linecap:butt;stroke-linejoin:miter;stroke-opacity:1;fill:url(#linearGradient3088)"
       d="m 28.109545,22.419187 -2.303461,-0.976975 -2.124114,1.856157 c 0,0 -0.735774,1.333042 -0.52596,1.984384 0.228613,0.709707 1.727373,1.421163 1.727373,1.421163 l 3.924367,0.709216 2.961381,1.987791 5.455976,-0.04203 1.711971,-1.729331 5.452503,-1.224555 c 0,0 1.097021,-1.026304 1.078671,-1.737539 -0.01354,-0.524735 -0.807325,-1.182773 -0.807325,-1.182773 l -2.086369,-1.349068 -0.436425,0.910665 -2.621937,-3.366664 c 0,0 -10.166068,0.11962 -10.295304,0.06034 z m -0.133662,5.02878 0.147876,4.964096 1.083657,5.267263 -0.198049,3.288879 H 39.758294 V 37.92397 l 1.4281,-5.844228 v -4.772333 z m 12.561518,5.649229 c 0,0 1.334784,-0.286982 1.971381,-0.11923 0.557199,0.146831 1.133779,0.459453 1.449998,0.941153 0.280874,0.427856 0.300404,1.004359 0.254834,1.514138 -0.07263,0.812614 -0.827791,2.303325 -0.827791,2.303325 0,0 -1.008174,0.519427 -1.245296,0.618177 -0.237125,0.09875 -0.1149,0.513368 -0.07562,0.767381 0.04971,0.321479 -0.08405,0.721853 0.168409,0.926991 0.363189,0.295102 1.108184,0.262122 1.565447,0.361642 0.43551,0.09479 1.104678,0.01526 1.514089,-0.160913 0.497553,-0.214094 0.425326,-0.552488 0.634209,-1.052248 0.07803,-0.186682 0.228327,-0.396359 0.157997,-0.586075 -0.139231,-0.375587 -0.99351,-0.676017 -0.99351,-0.676017 0,0 0.153734,-0.616903 0.250654,-0.919408 0.241839,-0.754779 0.815232,-1.437774 0.824232,-2.230301 0.01089,-0.957907 -0.437673,-1.898718 -0.934714,-2.717653 -0.313204,-0.516039 -0.782516,-0.927731 -1.247262,-1.312964 -1.001562,-0.830207 -3.278976,-2.116518 -3.278976,-2.116518 z M 28.012062,28.614835 c 0,0 -2.277414,1.286311 -3.278976,2.116517 -0.464746,0.385234 -1.928876,2.355187 -2.242078,2.871228 -0.497042,0.818934 0.08252,1.571896 0.320078,2.313161 0.123652,0.385819 0.416063,0.699457 0.564256,1.07653 0.116188,0.295641 0.250653,0.919408 0.250653,0.919408 0,0 -0.553985,0.270282 -0.693216,0.645868 -0.07033,0.189716 -0.209152,0.730223 -0.140712,1.090182 0.06377,0.335464 -0.0026,0.682878 0.494842,0.896973 0.409412,0.176168 1.222934,0.12753 1.658444,0.03275 0.457264,-0.09952 0.979499,-0.287131 1.342688,-0.582234 0.252464,-0.205138 0.334879,-0.575439 0.384599,-0.896917 0.03928,-0.254014 0.07039,-0.555843 -0.07562,-0.767381 -0.263247,-0.381403 -1.245295,-0.618178 -1.245295,-0.618178 0,0 -0.755161,-1.49071 -0.827791,-2.303325 -0.04557,-0.509779 -0.02604,-1.086282 0.254833,-1.514138 0.316219,-0.481699 0.8928,-0.794321 1.449999,-0.941152 0.636597,-0.167753 2.467343,0.08483 2.467343,0.08483 z m -1.116277,21.651529 -0.78317,0.902752 c 0,0 -1.318626,0.133673 -1.834952,0.501775 -0.237021,0.168979 -0.492381,0.721217 -0.492381,0.721217 0,0 2.071218,0.855139 2.278649,0.915909 0.58498,0.171376 2.982449,0.711396 2.982449,0.711396 l 0.223004,-1.010113 0.202374,-1.07461 c 0,0 0.415078,-2.401421 0.657262,-3.348888 0.439015,-1.7175 1.441873,-4.629304 1.441873,-4.629304 0,0 1.4351,-1.56442 2.408691,-1.704942 0.683008,-0.09858 2.506051,1.99251 2.506051,1.99251 0,0 1.215442,2.718257 1.701422,4.123507 0.394807,1.141617 0.982582,3.488119 0.982582,3.488119 l -0.02896,1.672727 4.24833,-0.32845 1.470628,-0.218317 c 0,0 -0.633406,-0.784919 -1.016158,-1.108642 -0.627202,-0.530478 -1.865819,-0.417062 -2.06783,-1.340589 -0.573572,-2.622183 -2.284377,-9.834962 -2.284377,-9.834962 H 29.042313 Z" /><path
       style="fill:url(#linearGradient977);fill-opacity:1.0;stroke:none;stroke-width:0.388785px;stroke-linecap:butt;stroke-linejoin:miter;stroke-opacity:1"
       d="M 25.863249,21.306395 25.400677,25.5554 c 0,0 -0.261102,1.732912 0.145841,2.438044 0.327064,0.566724 0.98496,1.040354 1.637973,1.081831 0.536486,0.03408 1.447325,-0.71138 1.447325,-0.71138 0,0 0.864801,-1.130406 0.87285,-1.795972 0.01029,-0.849772 -0.943143,-1.477371 -1.058643,-2.31932 -0.142094,-1.035792 0.07046,-2.139202 0.485882,-3.098617 0.16793,-0.38783 0.779072,-1.000278 0.779072,-1.000278 h 8.145373 l 0.91419,0.914194 c 0,0 0.691362,1.689792 0.691362,2.580198 0,0.779024 -0.604877,1.478413 -0.604877,2.257437 0,0.782754 0.607778,2.268249 0.607778,2.268249 0,0 1.231555,0.503878 1.880501,0.503878 0.68589,0 1.502557,-0.04757 1.987554,-0.532563 0.539698,-0.539698 0.59263,-1.448475 0.59263,-2.211723 0,-1.030598 -0.800218,-2.986441 -0.800218,-2.986441 0,0 -0.390731,-2.082541 -0.815358,-3.042959 -0.475048,-1.074457 -0.970599,-2.032119 -1.904169,-2.96569 -0.729598,-0.729597 -1.33801,-1.33492 -2.334658,-1.601971 -1.349947,-0.361717 -3.225123,-0.556721 -4.614988,-0.410205 -1.310978,0.1382 -2.681046,0.333084 -3.867792,0.824651 -1.005292,0.416406 -2.176266,1.337115 -2.176266,1.337115 0,0 -0.991613,0.659654 -1.161544,1.772786 -0.05931,0.388532 -0.387246,2.449731 -0.387246,2.449731 z"
       id="path78111"
       sodipodi:nodetypes="ccsscssscccsscssscssssscsc" /><path
       style="fill:#f4f4f4;fill-opacity:1;stroke:none;stroke-width:0.264583px;stroke-linecap:butt;stroke-linejoin:miter;stroke-opacity:1"
       d="m 28.09222,24.154051 c 0,0 2.239112,-0.09057 2.897722,-0.877785 0.860817,-1.028914 0.766561,-3.919769 0.766561,-3.919769 0,0 0.155937,2.832824 0.904127,3.982771 0.473548,0.727828 1.927087,0.972403 2.300706,-0.003 0.375622,-0.980639 0.452852,-4.133256 0.452852,-4.133256 0,0 0.41087,2.553503 0.822311,3.930469 0.181721,0.608163 3.159875,0.779588 3.159875,0.779588 0,0 -2.256064,-0.234426 -2.872389,0.712708 -0.548968,0.843622 -0.728995,2.807371 -0.728995,2.807371 0,0 -0.123221,-2.107726 -0.716586,-2.879073 -0.601027,-0.781306 -1.834154,-0.575749 -2.464902,0.151502 -0.677376,0.781012 -0.690774,2.762234 -0.690774,2.762234 0,0 0.05741,-2.108063 -0.709207,-2.824855 -0.840795,-0.786149 -3.121301,-0.488899 -3.121301,-0.488899 z"
       id="path303"
       sodipodi:nodetypes="cscsscscscsscsc" /></g></svg>
