<?xml version="1.0" encoding="UTF-8" standalone="no"?>
<!-- Created with Inkscape (http://www.inkscape.org/) -->

<svg
   width="256"
   height="256"
   viewBox="0 0 67.733332 67.733333"
   version="1.1"
   id="svg1861"
   inkscape:export-filename="inkjet.png"
   inkscape:export-xdpi="96"
   inkscape:export-ydpi="96"
   inkscape:version="1.2.1 (9c6d41e410, 2022-07-14, custom)"
   sodipodi:docname="inkjet.svg"
   xmlns:inkscape="http://www.inkscape.org/namespaces/inkscape"
   xmlns:sodipodi="http://sodipodi.sourceforge.net/DTD/sodipodi-0.dtd"
   xmlns:xlink="http://www.w3.org/1999/xlink"
   xmlns="http://www.w3.org/2000/svg"
   xmlns:svg="http://www.w3.org/2000/svg">
  <sodipodi:namedview
     id="namedview1863"
     pagecolor="#505050"
     bordercolor="#eeeeee"
     borderopacity="1"
     inkscape:showpageshadow="0"
     inkscape:pageopacity="0"
     inkscape:pagecheckerboard="0"
     inkscape:deskcolor="#505050"
     inkscape:document-units="mm"
     showgrid="false"
     inkscape:zoom="0.83794773"
     inkscape:cx="61.459681"
     inkscape:cy="270.30326"
     inkscape:window-width="1916"
     inkscape:window-height="1036"
     inkscape:window-x="0"
     inkscape:window-y="20"
     inkscape:window-maximized="1"
     inkscape:current-layer="layer1" />
  <defs
     id="defs1858">
    <linearGradient
       inkscape:collect="always"
       xlink:href="#linearGradient53638"
       id="linearGradient18612"
       x1="202.40262"
       y1="47.739201"
       x2="213.87154"
       y2="47.739201"
       gradientUnits="userSpaceOnUse"
       gradientTransform="matrix(1.5320452,0.26601674,-0.26601674,1.5320452,-279.75162,-107.50902)" />
    <linearGradient
       id="linearGradient53638"
       inkscape:swatch="solid">
      <stop
         style="stop-color:#3a0dcd;stop-opacity:1;"
         offset="0"
         id="stop53636" />
    </linearGradient>
    <linearGradient
       inkscape:collect="always"
       xlink:href="#linearGradient53638"
       id="linearGradient18614"
       x1="192.86237"
       y1="85.601555"
       x2="196.78412"
       y2="85.601555"
       gradientUnits="userSpaceOnUse"
       gradientTransform="matrix(1.5549686,0,0,1.5549686,-279.75164,-107.50902)" />
    <linearGradient
       inkscape:collect="always"
       xlink:href="#linearGradient53638"
       id="linearGradient18610"
       x1="199.57263"
       y1="91.907295"
       x2="215.69489"
       y2="91.907295"
       gradientUnits="userSpaceOnUse"
       gradientTransform="matrix(1.5549686,0,0,1.5549686,-279.75164,-107.50902)" />
    <linearGradient
       inkscape:collect="always"
       xlink:href="#linearGradient53638"
       id="linearGradient18606"
       x1="199.17892"
       y1="111.03156"
       x2="204.93761"
       y2="111.03156"
       gradientUnits="userSpaceOnUse"
       gradientTransform="matrix(1.5449636,-0.17611029,0.17611029,1.5449636,-279.75162,-107.50902)" />
    <linearGradient
       inkscape:collect="always"
       xlink:href="#linearGradient53638"
       id="linearGradient18608"
       x1="201.96257"
       y1="113.38988"
       x2="204.85855"
       y2="113.38988"
       gradientUnits="userSpaceOnUse"
       gradientTransform="matrix(1.5549686,0,0,1.5549686,-267.20319,-135.72627)" />
    <linearGradient
       inkscape:collect="always"
       xlink:href="#linearGradient53638"
       id="linearGradient18616"
       x1="200.5347"
       y1="76.421738"
       x2="209.36676"
       y2="76.421738"
       gradientUnits="userSpaceOnUse"
       gradientTransform="matrix(1.5549686,0,0,1.5549686,-279.75164,-107.50902)" />
  </defs>
  <g
     inkscape:label="Layer 1"
     inkscape:groupmode="layer"
     id="layer1">
    <path
       id="rect17826"
       style="fill:url(#linearGradient18612);fill-opacity:1;stroke:none;stroke-width:0.194371;paint-order:stroke fill markers"
       d="m 18.270996,15.83182 2.478262,1.188322 14.964878,2.59843 -1.025005,5.903143 -15.411744,-2.676023 -2.201618,0.278604 z"
       sodipodi:nodetypes="ccccccc" />
    <path
       style="fill:url(#linearGradient18614);fill-opacity:1;stroke:none;stroke-width:0.411418px;stroke-linecap:butt;stroke-linejoin:miter;stroke-opacity:1"
       d="m 20.395052,23.166746 -0.251765,2.455374 0.867517,2.523216 1.840911,0.379599 L 25.698287,28.19029 26.2415,27.279638 25.564094,26.7456 22.15921,26.6565 21.958899,25.191487 22.565974,23.54703 22.468944,22.971536 20.647127,22.672453 Z"
       id="path17829" />
    <path
       style="fill:url(#linearGradient18610);fill-opacity:1;stroke:none;stroke-width:0.411418px;stroke-linecap:butt;stroke-linejoin:miter;stroke-opacity:1"
       d="m 37.470861,15.457305 -0.875074,3.214385 -1.014461,1.296735 -1.438424,6.878294 -1.002177,1.636014 -0.207682,1.920791 c 0,0 -0.854486,1.552045 -1.158934,1.581029 -0.441953,0.04214 -1.196563,-0.584854 -1.196563,-0.584854 l 1.142699,2.86265 -0.182071,3.57338 1.838222,0.428301 3.956244,-0.636433 2.727695,-2.363148 1.535018,-2.534117 -0.121598,6.24592 -0.743711,5.831474 -2.060535,4.561158 -3.045437,2.097435 c 0,0 -3.032516,1.104992 -3.716033,1.747148 -0.54794,0.514787 -1.147582,1.285461 -0.746852,1.921599 0.500063,0.793827 2.144022,1.137117 2.144022,1.137117 0,0 2.938798,-0.715425 4.230945,-1.46153 0.911896,-0.526544 2.816624,-2.070332 2.816624,-2.070332 l -0.703515,3.009299 -0.208085,1.738891 c 0,0 1.81796,1.561857 3.665745,1.544457 1.454533,-0.014 3.580268,-1.405552 3.580268,-1.405552 l 0.01695,-1.913451 -0.566288,-1.486208 -0.150988,-1.128207 1.537927,1.299378 2.081014,2.050568 2.993688,0.446991 1.751003,-0.487482 1.263832,-1.112798 0.03281,-1.334754 -1.150817,-0.891495 -2.308211,-0.560503 -2.879537,-1.997871 -1.700529,-2.435018 c 0,0 -0.966134,-2.536154 -1.241861,-3.525969 -0.260457,-0.935003 -0.380951,-7.934305 -0.380951,-7.934305 l -0.732359,-8.59963 0.05955,-9.042562 0.279101,-2.138237 1.088152,-2.864828 c 0,0 -0.138548,-1.837303 -0.844068,-2.129513 -2.806361,-1.162463 -8.364752,3.615783 -8.364752,3.615783 z"
       id="path18176"
       sodipodi:nodetypes="ccccccscccccccccccsscscccsccccccccccccccscccccsc" />
    <path
       id="rect18592"
       style="fill:url(#linearGradient18606);fill-opacity:1;fill-rule:nonzero;stroke:none;stroke-width:0.194371;stroke-linecap:butt;stroke-linejoin:miter;stroke-dasharray:none;stroke-opacity:1;paint-order:stroke fill markers"
       d="m 55.721901,21.785763 -8.896955,1.014089 1.289722,11.309986 c 0.06298,0.552185 0.558311,0.946043 1.110496,0.883098 l 6.902521,-0.787468 c 0.552185,-0.06298 0.946043,-0.557518 0.883114,-1.109703 z" />
    <rect
       style="fill:url(#linearGradient18608);fill-opacity:1;fill-rule:nonzero;stroke:none;stroke-width:0.194371;stroke-linecap:butt;stroke-linejoin:miter;stroke-dasharray:none;stroke-opacity:1;paint-order:stroke fill markers"
       id="rect18600"
       width="4.503159"
       height="1.9708959"
       x="46.842281"
       y="39.606003"
       transform="rotate(-5.9065132)" />
    <path
       style="fill:#fbfbf7;stroke-width:0.194371;paint-order:stroke fill markers"
       d="m 37.656167,12.254615 c 0,0 0.482429,3.132779 0.233245,4.672011 -0.215005,1.328192 -1.462899,3.762029 -1.462899,3.762029 0,0 -1.685415,0.104028 -2.468777,-0.15332 -0.61911,-0.203296 -1.188447,-0.592334 -1.643135,-1.05912 -0.504043,-0.517462 -0.988836,-1.142482 -1.125859,-1.851734 -0.125486,-0.649651 0.325268,-1.958157 0.325268,-1.958157 0,0 0.897699,-0.720059 1.118271,-1.227803 0.346836,-0.798414 0.210978,-2.602954 0.210978,-2.602954 l 2.792475,0.510527 z"
       id="path20812"
       sodipodi:nodetypes="cscssscsccc" />
    <path
       id="path17821"
       style="fill:url(#linearGradient18616);fill-opacity:1;fill-rule:nonzero;stroke:none;stroke-width:0.194371;stroke-linecap:butt;stroke-linejoin:miter;stroke-dasharray:none;stroke-opacity:1;paint-order:stroke fill markers"
       d="m 37.012083,7.1029732 c -2.824787,0.3823979 -4.842312,1.9763495 -4.936123,3.8998298 -0.0062,0.147722 0.06655,0.681574 0.0835,0.829576 l 5.442125,0.73382 0.06095,2.982321 c 0.228005,0.0283 0.457627,0.04867 0.687887,0.06095 3.581264,0.174638 7.338799,-0.70028 7.453929,-3.069679 0.115378,-2.369041 -3.454534,-5.3354855 -7.035238,-5.5102795 -0.591323,-0.028922 -1.182476,-0.00466 -1.757052,0.07355 z"
       sodipodi:nodetypes="cccccccccc" />
    <path
       style="fill:#fbfbf7;stroke-width:0.194371;paint-order:stroke fill markers"
       d="m 6.7882366,12.112895 5.3409754,1.231177 c 0.761033,0.175432 1.232484,0.929343 1.057068,1.690391 l -1.707465,7.407139 c -0.175416,0.761049 -0.929358,1.2325 -1.6903753,1.057068 L 4.4474491,22.267493 C 3.6864319,22.092077 3.214981,21.33815 3.390397,20.577117 l 1.7074644,-7.407155 c 0.175416,-0.761032 0.9293425,-1.232483 1.6903752,-1.057067 z"
       id="path20820" />
    <path
       style="fill:#fbfbf7;stroke-width:0.194371;paint-order:stroke fill markers"
       d="m 15.021515,15.598419 -1.221878,6.334911 c 0,0 0.04727,0.556352 0.185492,0.532561 0.138237,-0.02395 3.304868,0.09423 3.304868,0.09423 l 0.89193,-6.013421 z"
       id="path20818" />
    <path
       style="fill:#fbfbf7;stroke-width:0.194371;paint-order:stroke fill markers"
       d="m 26.829978,25.435959 -0.749744,-1.86873 -1.827383,-1.79742 -1.844084,0.09765 -1.336402,0.916452 -0.427508,2.208071 1.045514,1.472198 1.444162,1.295864 3.08285,0.014 3.415706,1.66083 2.347785,0.0339 4.756897,-3.668373 0.392132,-1.361204 -0.906935,-1.562588 -1.951843,-0.332919 -2.25682,1.614384 -1.333136,1.868823 -1.381792,0.449091 z"
       id="path20816" />
    <path
       style="fill:#fbfbf7;stroke-width:0.194371;paint-order:stroke fill markers"
       d="m 31.538174,37.835729 -2.134645,-1.536838 0.161872,2.253103 0.265013,4.829842 0.210403,1.537257 c 0,0 0.283689,1.50196 -0.09128,2.089847 -0.864764,1.355824 -2.740616,1.763412 -4.281621,2.223185 -0.828892,0.247302 -1.723247,0.367206 -2.581777,0.261592 -0.526916,-0.06484 -1.217291,-0.08941 -1.498398,-0.539807 -0.244084,-0.391012 -0.02597,-0.948733 0.150365,-1.374623 0.223558,-0.540072 0.66901,-0.969959 1.097155,-1.367891 0.965309,-0.897185 3.256555,-2.241782 3.256555,-2.241782 0,0 -0.374359,-1.295009 -0.776536,-2.366258 -0.315565,-0.840554 -1.237444,-2.484265 -1.358156,-3.37394 -0.169709,-1.250894 0.07915,-2.23774 0.358389,-3.468824 0.196408,-0.8659 0.303996,-2.138346 0.942311,-2.8123 0.570409,-0.602286 1.393407,-0.788789 2.167922,-0.898881 1.046556,-0.148811 3.151797,0.350288 3.151797,0.350288 l 1.142699,2.86265 z"
       id="path20814"
       sodipodi:nodetypes="cccccsssssscsssssccc" />
    <path
       style="fill:#fbfbf7;stroke-width:0.194371;paint-order:stroke fill markers"
       d="m 46.193846,15.98884 -2.02942,-0.57949 -2.092366,0.627943 -0.594651,2.815628 -0.04167,2.953788 0.334505,2.438299 1.571902,0.898383 2.641798,-0.54245 0.821754,-3.849123 2.819392,-0.251267 5.363739,-0.981932 -0.3942,-4.244675 h 0.968761 l -0.278495,-1.71143 c 0,0 -0.678868,-1.616125 -1.349355,-2.116716 -0.667299,-0.498212 -1.569569,-0.650412 -2.401447,-0.688944 -1.042311,-0.0482 -2.087731,0.246089 -3.075836,0.58134 -0.706251,0.239637 -1.501462,0.451112 -1.997404,1.008118 -0.47963,0.538687 -0.722423,1.310542 -0.745157,2.031457 -0.01773,0.559897 0.478153,1.611071 0.478153,1.611071 z"
       id="path20810"
       sodipodi:nodetypes="ccccccccccccccsssssc" />
    <path
       style="fill:#fbfbf7;stroke-width:0.194371;paint-order:stroke fill markers"
       d="m 50.26903,34.628264 5.60137,-0.625983 0.285275,2.553242 -5.60137,0.625984 z"
       id="rect20790" />
  </g>
</svg>
