<?xml version="1.0" encoding="UTF-8" standalone="no"?>
<!-- Created with Inkscape (http://www.inkscape.org/) -->

<svg
   width="256"
   height="256"
   viewBox="0 0 67.733332 67.733333"
   version="1.1"
   id="svg12494"
   inkscape:version="1.2.1 (9c6d41e410, 2022-07-14, custom)"
   sodipodi:docname="inkvac.svg"
   xmlns:inkscape="http://www.inkscape.org/namespaces/inkscape"
   xmlns:sodipodi="http://sodipodi.sourceforge.net/DTD/sodipodi-0.dtd"
   xmlns:xlink="http://www.w3.org/1999/xlink"
   xmlns="http://www.w3.org/2000/svg"
   xmlns:svg="http://www.w3.org/2000/svg">
  <sodipodi:namedview
     id="namedview12496"
     pagecolor="#505050"
     bordercolor="#eeeeee"
     borderopacity="1"
     inkscape:showpageshadow="0"
     inkscape:pageopacity="0"
     inkscape:pagecheckerboard="0"
     inkscape:deskcolor="#505050"
     inkscape:document-units="mm"
     showgrid="false"
     inkscape:zoom="1.8692715"
     inkscape:cx="265.6115"
     inkscape:cy="27.015873"
     inkscape:window-width="1916"
     inkscape:window-height="1036"
     inkscape:window-x="0"
     inkscape:window-y="20"
     inkscape:window-maximized="1"
     inkscape:current-layer="layer1" />
  <defs
     id="defs12491">
    <linearGradient
       inkscape:collect="always"
       xlink:href="#linearGradient53638"
       id="linearGradient66882"
       x1="21.41058"
       y1="27.369131"
       x2="34.13435"
       y2="27.369131"
       gradientUnits="userSpaceOnUse"
       gradientTransform="matrix(1.7255953,0,0,1.7255953,-17.290004,-2.130621)" />
    <linearGradient
       id="linearGradient53638"
       inkscape:swatch="solid">
      <stop
         style="stop-color:#3a0dcd;stop-opacity:1;"
         offset="0"
         id="stop53636" />
    </linearGradient>
    <linearGradient
       inkscape:collect="always"
       xlink:href="#linearGradient53638"
       id="linearGradient67302"
       x1="11.761999"
       y1="22.372509"
       x2="16.142466"
       y2="22.372509"
       gradientUnits="userSpaceOnUse"
       gradientTransform="matrix(1.7255953,0,0,1.7255953,-17.290004,-2.130621)" />
    <linearGradient
       inkscape:collect="always"
       xlink:href="#linearGradient53638"
       id="linearGradient67310"
       x1="29.838636"
       y1="24.711864"
       x2="39.395096"
       y2="24.711864"
       gradientUnits="userSpaceOnUse"
       gradientTransform="matrix(1.6286731,0,0,1.7255953,-14.914282,-4.37418)" />
    <linearGradient
       inkscape:collect="always"
       xlink:href="#linearGradient53638"
       id="linearGradient67319"
       x1="37.719273"
       y1="28.512089"
       x2="42.716888"
       y2="28.512089"
       gradientUnits="userSpaceOnUse"
       gradientTransform="matrix(1.7255953,0,0,1.7255953,-17.290004,-2.130621)" />
    <linearGradient
       inkscape:collect="always"
       xlink:href="#linearGradient53638"
       id="linearGradient67327"
       x1="31.918182"
       y1="15.622746"
       x2="37.199005"
       y2="15.622746"
       gradientUnits="userSpaceOnUse"
       gradientTransform="matrix(1.3113643,0,0,1.7255953,-3.9112691,-2.59441)" />
    <linearGradient
       inkscape:collect="always"
       xlink:href="#linearGradient53638"
       id="linearGradient67336"
       x1="26.851791"
       y1="13.091235"
       x2="41.698021"
       y2="13.091235"
       gradientUnits="userSpaceOnUse"
       gradientTransform="matrix(1.7255953,0,0,1.7255953,-17.290004,-2.130621)" />
    <linearGradient
       inkscape:collect="always"
       xlink:href="#linearGradient53638"
       id="linearGradient67344"
       x1="30.561188"
       y1="6.2060938"
       x2="37.511417"
       y2="6.2060938"
       gradientUnits="userSpaceOnUse"
       gradientTransform="matrix(1.7255953,0,0,1.7255953,-17.290004,-2.130621)" />
  </defs>
  <g
     inkscape:label="Layer 1"
     inkscape:groupmode="layer"
     id="layer1">
    <path
       id="path66501"
       style="fill:url(#linearGradient66882);fill-opacity:1;stroke:none;stroke-width:0.456563px;stroke-linecap:butt;stroke-linejoin:miter;stroke-opacity:1"
       d="m 29.845745,31.324268 -3.930729,7.679545 -0.936311,0.304079 -5.229082,7.889993 -0.09363,2.049186 5.10335,2.469191 -0.833764,2.216831 11.191162,4.937487 1.476699,-3.051487 2.988174,0.108798 2.030461,-4.703855 -2.331864,-1.709439 1.179753,-2.626133 -1.02816,-2.342565 -3.949454,-1.941288 -2.614541,-1.058478 -0.811472,-1.053129 -1.159244,-0.250576 -0.669687,-0.793636 1.76116,-3.655185 -0.489558,-0.263951 0.754401,-2.816071 z m -1.987656,19.064214 c 0.36781,0 0.663443,0.468785 0.663443,1.051345 v 1.476697 c 0,0.582557 -0.295633,1.051346 -0.663443,1.051346 -0.367813,0 -0.664337,-0.468789 -0.664337,-1.051346 v -1.476697 c 0,-0.58256 0.296524,-1.051345 0.664337,-1.051345 z m 2.906135,1.008541 c 0.367811,0 0.663443,0.468788 0.663443,1.051345 v 1.476699 c 0,0.582558 -0.295632,1.051345 -0.663443,1.051345 -0.367812,0 -0.664337,-0.468787 -0.664337,-1.051345 v -1.476699 c 0,-0.582557 0.296525,-1.051345 0.664337,-1.051345 z m 2.734032,1.302813 c 0.367812,0 0.664335,0.469677 0.664335,1.052237 v 1.475806 c 0,0.582556 -0.296523,1.051345 -0.664335,1.051345 -0.367813,0 -0.663445,-0.468789 -0.663445,-1.051345 v -1.475806 c 0,-0.58256 0.295632,-1.052237 0.663445,-1.052237 z" />
    <path
       style="fill:url(#linearGradient67302);fill-opacity:1;stroke:none;stroke-width:0.457283;stroke-linecap:butt;stroke-linejoin:round;stroke-dasharray:none;stroke-opacity:1"
       d="M 5.4454337,29.998148 10.336719,31.443277 8.3805277,42.952408 3.2350842,40.757404 Z"
       id="path67296" />
    <path
       id="rect67304"
       style="fill:url(#linearGradient67310);stroke-width:0.444253;stroke-linecap:round;stroke-linejoin:round;paint-order:stroke fill markers"
       d="m 35.189957,31.921024 12.774474,-0.134579 0.579755,1.872578 1.489899,-0.0184 0.341389,3.988807 -1.163921,0.03631 0.03591,4.986437 H 34.223818 Z"
       sodipodi:nodetypes="ccccccccc" />
    <path
       style="fill:none;stroke:url(#linearGradient67319);stroke-width:1.6652;stroke-linecap:butt;stroke-linejoin:miter;stroke-dasharray:none;stroke-opacity:1"
       d="m 49.784193,35.600637 3.427219,0.252581 0.658981,2.52066 0.735164,6.653717 1.137921,4.246792 0.444917,4.789628 -1.68626,3.141994 c 0,0 -2.80988,1.396153 -3.121571,1.324191 -0.311693,-0.07196 -3.523823,-0.924236 -3.523823,-0.924236"
       id="path67313" />
    <path
       id="path67321"
       style="fill:url(#linearGradient67327);stroke-width:1.45164;stroke-linecap:round;stroke-linejoin:round;paint-order:stroke fill markers"
       d="m 44.908917,24.23526 c 0,1.4984 -1.700754,2.841961 -3.501271,2.841961 -1.800515,0 -3.260122,-1.214693 -3.260122,-2.713091 0,-1.498399 -1.218914,-3.382385 0.581601,-3.382387 1.103241,0 4.795478,-0.43753 6.164274,0.455026 0.865112,0.564116 0.01553,2.218216 0.01553,2.798491 z"
       sodipodi:nodetypes="ssssss" />
    <rect
       style="fill:url(#linearGradient67336);fill-opacity:1;stroke:none;stroke-width:1.6652;stroke-linecap:round;stroke-linejoin:round;stroke-dasharray:none;stroke-opacity:1;paint-order:stroke fill markers"
       id="rect67330"
       width="26.724545"
       height="5.8090186"
       x="28.007851"
       y="17.458374"
       ry="0.98713499" />
    <path
       id="rect67338"
       style="fill:url(#linearGradient67344);stroke-width:1.6652;stroke-linecap:round;stroke-linejoin:round;paint-order:stroke fill markers"
       d="m 36.433373,7.248046 h 10.019011 c 0.546874,0 0.987136,0.4402632 0.987136,0.9871354 v 0.686806 c 0,0.5468739 0.343002,1.0458695 -0.203872,1.0449256 L 35.652853,9.946948 C 35.105981,9.9460041 35.446239,9.4688683 35.446239,8.9219944 v -0.686806 c 0,-0.5468722 0.440261,-0.9871354 0.987134,-0.9871354 z"
       sodipodi:nodetypes="sssssssss" />
    <path
       style="fill:none;stroke:#ffffff;stroke-width:2.45897;stroke-linecap:butt;stroke-linejoin:miter;stroke-dasharray:none;stroke-opacity:1"
       d="m 34.10142,37.539188 10.794831,6.049021 c 0,0 6.560757,4.034404 6.429399,7.265719 -0.06071,1.49335 -4.223249,3.428525 -4.223249,3.428525"
       id="path431"
       sodipodi:nodetypes="ccsc" />
    <path
       id="rect1398"
       style="fill:#ffffff;fill-opacity:1;stroke-width:2.45897;stroke-linecap:round;stroke-linejoin:round;paint-order:stroke fill markers"
       d="m 43.127112,51.275329 6.144588,2.710807 -1.806348,4.094449 -6.144586,-2.710805 z m -10.04606,-15.850223 2.035212,1.091141 -2.205858,4.114395 -2.035212,-1.091139 z m -21.156547,-3.03027 14.864132,6.803826 -5.218839,8.290233 -12.2741647,-5.132809 z m 25.95185,-21.895941 -0.518992,0.898856 -1.723704,0.461916 -2.37021,4.104617 -1.183319,7.265784 1.197588,4.468438 2.566388,3.2441 h 13.435635 l 2.078615,-2.078612 1.58549,-5.91482 -0.800771,-6.635334 -2.699255,-4.675322 -1.895808,-0.508283 -0.364719,-0.631343 z m 4.608441,9.925805 a 2.5443755,2.4730993 0 0 1 2.544097,2.473648 2.5443755,2.4730993 0 0 1 -2.544097,2.472756 2.5443755,2.4730993 0 0 1 -2.544986,-2.472756 2.5443755,2.4730993 0 0 1 2.544986,-2.473648 z m 3.381402,15.388102 a 2.7545746,2.7545746 0 0 1 -2.754575,2.754575 2.7545746,2.7545746 0 0 1 -2.754574,-2.754575 2.7545746,2.7545746 0 0 1 2.754574,-2.754574 2.7545746,2.7545746 0 0 1 2.754575,2.754574 z" />
  </g>
</svg>
