<?xml version="1.0" encoding="UTF-8" standalone="no"?>
<!-- Created with Inkscape (http://www.inkscape.org/) -->

<svg
   width="256"
   height="256"
   viewBox="0 0 67.733332 67.733333"
   version="1.1"
   id="svg5"
   xml:space="preserve"
   inkscape:version="1.2.1 (9c6d41e410, 2022-07-14, custom)"
   sodipodi:docname="kensaglooga.svg"
   inkscape:export-filename="kensaglooga.png"
   inkscape:export-xdpi="96"
   inkscape:export-ydpi="96"
   xmlns:inkscape="http://www.inkscape.org/namespaces/inkscape"
   xmlns:sodipodi="http://sodipodi.sourceforge.net/DTD/sodipodi-0.dtd"
   xmlns:xlink="http://www.w3.org/1999/xlink"
   xmlns="http://www.w3.org/2000/svg"
   xmlns:svg="http://www.w3.org/2000/svg"><sodipodi:namedview
     id="namedview7"
     pagecolor="#505050"
     bordercolor="#eeeeee"
     borderopacity="1"
     inkscape:showpageshadow="0"
     inkscape:pageopacity="0"
     inkscape:pagecheckerboard="0"
     inkscape:deskcolor="#505050"
     inkscape:document-units="mm"
     showgrid="false"
     inkscape:zoom="2.9772454"
     inkscape:cx="141.23794"
     inkscape:cy="83.802296"
     inkscape:window-width="1916"
     inkscape:window-height="1036"
     inkscape:window-x="0"
     inkscape:window-y="20"
     inkscape:window-maximized="1"
     inkscape:current-layer="layer1" /><defs
     id="defs2"><linearGradient
       id="linearGradient3492"
       inkscape:swatch="solid"><stop
         style="stop-color:#2942ce;stop-opacity:1;"
         offset="0"
         id="stop3490" /></linearGradient><linearGradient
       id="linearGradient3480"
       inkscape:swatch="solid"><stop
         style="stop-color:#000000;stop-opacity:1;"
         offset="0"
         id="stop3478" /></linearGradient><linearGradient
       id="linearGradient3474"
       inkscape:swatch="solid"><stop
         style="stop-color:#2b42db;stop-opacity:1;"
         offset="0"
         id="stop3472" /></linearGradient><linearGradient
       id="linearGradient3468"
       inkscape:swatch="solid"><stop
         style="stop-color:#2b42db;stop-opacity:1;"
         offset="0"
         id="stop3466" /></linearGradient><linearGradient
       id="linearGradient3462"
       inkscape:swatch="solid"><stop
         style="stop-color:#57000e;stop-opacity:1;"
         offset="0"
         id="stop3460" /></linearGradient><linearGradient
       id="linearGradient3456"
       inkscape:swatch="solid"><stop
         style="stop-color:#75000d;stop-opacity:1;"
         offset="0"
         id="stop3454" /></linearGradient><linearGradient
       id="linearGradient3450"
       inkscape:swatch="solid"><stop
         style="stop-color:#ea3935;stop-opacity:1;"
         offset="0"
         id="stop3448" /></linearGradient><linearGradient
       id="linearGradient3444"
       inkscape:swatch="solid"><stop
         style="stop-color:#828392;stop-opacity:1;"
         offset="0"
         id="stop3442" /></linearGradient><linearGradient
       id="linearGradient3438"
       inkscape:swatch="solid"><stop
         style="stop-color:#b6aeae;stop-opacity:1;"
         offset="0"
         id="stop3436" /></linearGradient><linearGradient
       id="linearGradient3432"
       inkscape:swatch="solid"><stop
         style="stop-color:#e5e5eb;stop-opacity:1;"
         offset="0"
         id="stop3430" /></linearGradient><linearGradient
       id="linearGradient3269"
       inkscape:swatch="solid"><stop
         style="stop-color:#2942ce;stop-opacity:1;"
         offset="0"
         id="stop3267" /></linearGradient><linearGradient
       id="linearGradient3263"
       inkscape:swatch="solid"><stop
         style="stop-color:#2b42db;stop-opacity:1;"
         offset="0"
         id="stop3261" /></linearGradient><linearGradient
       id="linearGradient3251"
       inkscape:swatch="solid"><stop
         style="stop-color:#000000;stop-opacity:1;"
         offset="0"
         id="stop3249" /></linearGradient><linearGradient
       id="linearGradient3243"
       inkscape:swatch="solid"><stop
         style="stop-color:#000000;stop-opacity:1;"
         offset="0"
         id="stop3241" /></linearGradient><linearGradient
       id="linearGradient3237"
       inkscape:swatch="solid"><stop
         style="stop-color:#30345b;stop-opacity:1;"
         offset="0"
         id="stop3235" /></linearGradient><linearGradient
       id="linearGradient3231"
       inkscape:swatch="solid"><stop
         style="stop-color:#30345b;stop-opacity:1;"
         offset="0"
         id="stop3229" /></linearGradient><linearGradient
       id="linearGradient3225"
       inkscape:swatch="solid"><stop
         style="stop-color:#30345b;stop-opacity:1;"
         offset="0"
         id="stop3223" /></linearGradient><linearGradient
       id="linearGradient3219"
       inkscape:swatch="solid"><stop
         style="stop-color:#221d1e;stop-opacity:1;"
         offset="0"
         id="stop3217" /></linearGradient><linearGradient
       id="linearGradient3210"
       inkscape:swatch="solid"><stop
         style="stop-color:#5568f9;stop-opacity:1;"
         offset="0"
         id="stop3208" /></linearGradient><linearGradient
       id="linearGradient3204"
       inkscape:swatch="solid"><stop
         style="stop-color:#6f000d;stop-opacity:1;"
         offset="0"
         id="stop3202" /></linearGradient><linearGradient
       id="linearGradient3086"
       inkscape:swatch="solid"><stop
         style="stop-color:#5162ec;stop-opacity:1;"
         offset="0"
         id="stop3084" /></linearGradient><linearGradient
       id="linearGradient3080"
       inkscape:swatch="solid"><stop
         style="stop-color:#57000e;stop-opacity:1;"
         offset="0"
         id="stop3078" /></linearGradient><linearGradient
       id="linearGradient3074"
       inkscape:swatch="solid"><stop
         style="stop-color:#221d1e;stop-opacity:1;"
         offset="0"
         id="stop3072" /></linearGradient><linearGradient
       id="linearGradient3068"
       inkscape:swatch="solid"><stop
         style="stop-color:#ffffff;stop-opacity:1;"
         offset="0"
         id="stop3066" /></linearGradient><linearGradient
       id="linearGradient3062"
       inkscape:swatch="solid"><stop
         style="stop-color:#56000f;stop-opacity:1;"
         offset="0"
         id="stop3060" /></linearGradient><linearGradient
       id="linearGradient3056"
       inkscape:swatch="solid"><stop
         style="stop-color:#7a000e;stop-opacity:1;"
         offset="0"
         id="stop3054" /></linearGradient><linearGradient
       id="linearGradient3050"
       inkscape:swatch="solid"><stop
         style="stop-color:#131111;stop-opacity:1;"
         offset="0"
         id="stop3048" /></linearGradient><linearGradient
       id="linearGradient3044"
       inkscape:swatch="solid"><stop
         style="stop-color:#262222;stop-opacity:1;"
         offset="0"
         id="stop3042" /></linearGradient><linearGradient
       inkscape:collect="always"
       xlink:href="#linearGradient3044"
       id="linearGradient3046"
       x1="14.797769"
       y1="41.854107"
       x2="22.631638"
       y2="41.854107"
       gradientUnits="userSpaceOnUse" /><linearGradient
       inkscape:collect="always"
       xlink:href="#linearGradient3050"
       id="linearGradient3052"
       x1="17.110165"
       y1="38.470702"
       x2="25.81743"
       y2="38.470702"
       gradientUnits="userSpaceOnUse" /><linearGradient
       inkscape:collect="always"
       xlink:href="#linearGradient3044"
       id="linearGradient3058"
       x1="14.797769"
       y1="41.854107"
       x2="22.631638"
       y2="41.854107"
       gradientUnits="userSpaceOnUse" /><linearGradient
       inkscape:collect="always"
       xlink:href="#linearGradient3050"
       id="linearGradient3064"
       x1="17.110165"
       y1="38.470703"
       x2="25.81743"
       y2="38.470703"
       gradientUnits="userSpaceOnUse" /><linearGradient
       inkscape:collect="always"
       xlink:href="#linearGradient3068"
       id="linearGradient3070"
       x1="28.294843"
       y1="44.355933"
       x2="32.928626"
       y2="44.355933"
       gradientUnits="userSpaceOnUse" /><linearGradient
       inkscape:collect="always"
       xlink:href="#linearGradient3074"
       id="linearGradient3076"
       x1="27.58847"
       y1="38.752739"
       x2="39.818288"
       y2="38.752739"
       gradientUnits="userSpaceOnUse" /><linearGradient
       inkscape:collect="always"
       xlink:href="#linearGradient3050"
       id="linearGradient3082"
       x1="29.396193"
       y1="38.666767"
       x2="30.481134"
       y2="38.666767"
       gradientUnits="userSpaceOnUse" /><linearGradient
       inkscape:collect="always"
       xlink:href="#linearGradient3074"
       id="linearGradient3088"
       x1="39.665016"
       y1="41.442345"
       x2="43.591698"
       y2="41.442345"
       gradientUnits="userSpaceOnUse" /><linearGradient
       inkscape:collect="always"
       xlink:href="#linearGradient3074"
       id="linearGradient3206"
       x1="25.255936"
       y1="52.842514"
       x2="37.811192"
       y2="52.842514"
       gradientUnits="userSpaceOnUse" /><linearGradient
       inkscape:collect="always"
       xlink:href="#linearGradient3074"
       id="linearGradient3212"
       x1="19.673735"
       y1="39.415165"
       x2="40.294697"
       y2="39.415165"
       gradientUnits="userSpaceOnUse" /><linearGradient
       inkscape:collect="always"
       xlink:href="#linearGradient3050"
       id="linearGradient3253"
       x1="35.113537"
       y1="33.547646"
       x2="37.444672"
       y2="33.547646"
       gradientUnits="userSpaceOnUse" /><linearGradient
       inkscape:collect="always"
       xlink:href="#linearGradient3050"
       id="linearGradient3255"
       x1="34.898415"
       y1="32.885864"
       x2="37.229549"
       y2="32.885864"
       gradientUnits="userSpaceOnUse" /><linearGradient
       inkscape:collect="always"
       xlink:href="#linearGradient3050"
       id="linearGradient3257"
       x1="34.748802"
       y1="32.226589"
       x2="37.079937"
       y2="32.226589"
       gradientUnits="userSpaceOnUse" /><linearGradient
       inkscape:collect="always"
       xlink:href="#linearGradient3050"
       id="linearGradient3259"
       x1="31.529602"
       y1="33.784672"
       x2="34.225471"
       y2="33.784672"
       gradientUnits="userSpaceOnUse" /><linearGradient
       inkscape:collect="always"
       xlink:href="#linearGradient3044"
       id="linearGradient3265"
       x1="30.973728"
       y1="33.292049"
       x2="36.467457"
       y2="33.292049"
       gradientUnits="userSpaceOnUse" /><linearGradient
       inkscape:collect="always"
       xlink:href="#linearGradient3044"
       id="linearGradient3271"
       x1="11.476936"
       y1="36.471378"
       x2="20.479219"
       y2="36.471378"
       gradientUnits="userSpaceOnUse" /><linearGradient
       inkscape:collect="always"
       xlink:href="#linearGradient3432"
       id="linearGradient3434"
       x1="39.665016"
       y1="41.442345"
       x2="43.591697"
       y2="41.442345"
       gradientUnits="userSpaceOnUse" /><linearGradient
       inkscape:collect="always"
       xlink:href="#linearGradient3432"
       id="linearGradient3440"
       x1="25.255936"
       y1="52.842514"
       x2="37.811192"
       y2="52.842514"
       gradientUnits="userSpaceOnUse" /><linearGradient
       inkscape:collect="always"
       xlink:href="#linearGradient3432"
       id="linearGradient3446"
       x1="19.673735"
       y1="39.415165"
       x2="40.294697"
       y2="39.415165"
       gradientUnits="userSpaceOnUse" /><linearGradient
       inkscape:collect="always"
       xlink:href="#linearGradient3050"
       id="linearGradient3452"
       x1="28.294844"
       y1="44.355934"
       x2="32.928627"
       y2="44.355934"
       gradientUnits="userSpaceOnUse" /><linearGradient
       inkscape:collect="always"
       xlink:href="#linearGradient3432"
       id="linearGradient3458"
       x1="27.58847"
       y1="38.752739"
       x2="39.818287"
       y2="38.752739"
       gradientUnits="userSpaceOnUse" /><linearGradient
       inkscape:collect="always"
       xlink:href="#linearGradient3438"
       id="linearGradient3464"
       x1="29.396193"
       y1="38.666767"
       x2="30.481134"
       y2="38.666767"
       gradientUnits="userSpaceOnUse" /><linearGradient
       inkscape:collect="always"
       xlink:href="#linearGradient3438"
       id="linearGradient3470"
       x1="25.162855"
       y1="39.195934"
       x2="26.247797"
       y2="39.195934"
       gradientUnits="userSpaceOnUse" /><linearGradient
       inkscape:collect="always"
       xlink:href="#linearGradient3438"
       id="linearGradient3476"
       x1="30.973728"
       y1="33.292049"
       x2="36.467457"
       y2="33.292049"
       gradientUnits="userSpaceOnUse" /><linearGradient
       inkscape:collect="always"
       xlink:href="#linearGradient3444"
       id="linearGradient3482"
       x1="31.529602"
       y1="33.124146"
       x2="33.860737"
       y2="33.124146"
       gradientUnits="userSpaceOnUse" /><linearGradient
       inkscape:collect="always"
       xlink:href="#linearGradient3444"
       id="linearGradient3484"
       x1="31.679214"
       y1="33.783417"
       x2="34.010349"
       y2="33.783417"
       gradientUnits="userSpaceOnUse" /><linearGradient
       inkscape:collect="always"
       xlink:href="#linearGradient3444"
       id="linearGradient3486"
       x1="31.894337"
       y1="34.445202"
       x2="34.225471"
       y2="34.445202"
       gradientUnits="userSpaceOnUse" /><linearGradient
       inkscape:collect="always"
       xlink:href="#linearGradient3444"
       id="linearGradient3488"
       x1="31.529602"
       y1="33.784672"
       x2="34.225471"
       y2="33.784672"
       gradientUnits="userSpaceOnUse" /><linearGradient
       inkscape:collect="always"
       xlink:href="#linearGradient3438"
       id="linearGradient3494"
       x1="11.476936"
       y1="36.471378"
       x2="20.479219"
       y2="36.471378"
       gradientUnits="userSpaceOnUse" /></defs><g
     inkscape:label="Layer 1"
     inkscape:groupmode="layer"
     id="layer1"><g
       id="g4646"
       transform="matrix(0.77773651,0.39163982,-0.39163982,0.77773651,50.628755,-22.382198)"><path
         id="path4638"
         style="fill:#808080;fill-opacity:1;stroke:none;stroke-width:0.767447;paint-order:stroke fill markers"
         d="m 14.585708,25.797203 a 1.9832062,1.9832062 0 0 0 -1.982947,1.983573 1.9832062,1.9832062 0 0 0 1.982947,1.982948 1.9832062,1.9832062 0 0 0 1.983574,-1.982948 1.9832062,1.9832062 0 0 0 -1.983574,-1.983573 z m 0,0.270658 a 1.7128013,1.7128013 0 0 1 1.712916,1.712915 1.7128013,1.7128013 0 0 1 -1.712916,1.712288 1.7128013,1.7128013 0 0 1 -1.712915,-1.712288 1.7128013,1.7128013 0 0 1 1.712915,-1.712915 z" /><path
         id="path4640"
         style="fill:#ff0000;stroke-width:0.633;paint-order:stroke fill markers"
         d="m 9.940247,24.564387 c 0,0 2.745697,1.682544 4.297245,1.751244 1.43446,0.06352 4.437566,0.624606 4.437566,0.624606 l -0.01858,0.727112 c 0,0 -3.12628,-0.170489 -4.663835,-0.443636 -1.432842,-0.254549 -4.2226648,-1.108864 -4.2226648,-1.108864 z"
         sodipodi:nodetypes="csccscc" /><path
         id="path4642"
         style="fill:#ff0000;stroke-width:0.633;paint-order:stroke fill markers"
         d="m 9.9878812,31.075277 c 0,0 2.7456958,-1.682544 4.2972438,-1.751245 1.434461,-0.06352 4.437566,-0.624606 4.437566,-0.624606 l -0.01858,-0.727112 c 0,0 -3.126281,0.170489 -4.663836,0.443637 -1.432841,0.254548 -4.2226638,1.108864 -4.2226638,1.108864 z"
         sodipodi:nodetypes="csccscc" /><path
         id="path4644"
         style="fill:#ff0000;stroke-width:0.633;paint-order:stroke fill markers"
         d="m 15.119602,27.156201 h 0.916599 c 0,0 -0.260879,0.457196 -0.260879,0.679393 0,0.272166 0.260879,0.803697 0.260879,0.803697 h -0.916599 c 0,0 0.207932,-0.55606 0.210045,-0.798346 0.0023,-0.263049 -0.210045,-0.684744 -0.210045,-0.684744 z"
         sodipodi:nodetypes="ccsccsc" /></g><g
       id="g136265"
       transform="translate(11.438697,-15.590011)"
       style="display:inline"><rect
         style="display:inline;opacity:1;fill:#7a000e;fill-opacity:1;stroke:none;stroke-width:0.7;stroke-linecap:round;stroke-dasharray:none;stroke-opacity:1;paint-order:stroke fill markers"
         id="rect136166"
         width="7.5132589"
         height="2.9128413"
         x="15.118379"
         y="40.403572"
         transform="rotate(-23.058362)" /><path
         style="fill:none;stroke:#a8aea8;stroke-width:0.7;stroke-linecap:round;stroke-linejoin:miter;stroke-dasharray:none;stroke-opacity:1"
         d="m 25.747407,39.64106 -2.726836,-0.86627 -1.744293,-1.416251 -1.389188,-2.153626 -0.90687,-2.920206 -1.212176,-1.753905 -2.1812,-0.611388 -2.637007,0.261419 -1.955573,2.143357 -0.291728,1.673956 0.299904,0.955372"
         id="path136228"
         sodipodi:nodetypes="ccccccccccc" /><rect
         style="fill:#647070;fill-opacity:1;stroke:none;stroke-width:0.465;stroke-linecap:round;paint-order:stroke fill markers"
         id="rect136168"
         width="5.1196666"
         height="4.6059151"
         x="0.57354492"
         y="35.554962"
         transform="rotate(-14.889335)" /><path
         style="display:inline;fill:url(#linearGradient3452);fill-opacity:1.0;stroke:none;stroke-width:0.264583px;stroke-linecap:butt;stroke-linejoin:miter;stroke-opacity:1"
         d="m 30.967066,40.892142 -0.66407,1.731849 1.141897,2.152065 1.483733,2.013418 -1.58055,0.9681 -2.547389,0.06215 -0.505844,-6.549387 z"
         id="path136170" /><path
         style="fill:url(#linearGradient3440);fill-opacity:1.0;stroke:none;stroke-width:0.264583px;stroke-linecap:butt;stroke-linejoin:miter;stroke-opacity:1"
         d="m 25.255936,52.429224 9.379041,-2.72602 3.176214,4.369792 -7.91291,1.908828 z"
         id="path136172" /><path
         id="path136174"
         style="fill:url(#linearGradient3434);stroke-width:0.465;stroke-linecap:round;paint-order:stroke fill markers;fill-opacity:1"
         d="m 39.694211,35.5027 0.31851,-0.959501 3.442808,-1.304515 0.136168,16.26093 -0.677108,0.146392 -3.053294,-2.641837 -0.196279,-0.800174 z"
         sodipodi:nodetypes="cccccccc"
         transform="rotate(6.0384191)" /><rect
         style="fill:#ccd0cd;fill-opacity:1;stroke:none;stroke-width:0.465;stroke-linecap:round;paint-order:stroke fill markers"
         id="rect136176"
         width="14.114686"
         height="6.5064993"
         x="5.7079329"
         y="37.201298"
         ry="0.40851438"
         transform="rotate(-17.128269)" /><path
         id="path136178"
         style="opacity:1;fill:url(#linearGradient3058);fill-opacity:1;stroke-width:0.7;stroke-linecap:round;paint-order:stroke fill markers"
         transform="rotate(-23.058362)"
         d="m 14.797769,40.391802 7.833869,0.01177 v 2.912841 h -7.513259 z"
         sodipodi:nodetypes="ccccc" /><rect
         style="opacity:1;fill:url(#linearGradient3064);fill-opacity:1;stroke:none;stroke-width:0.7;stroke-linecap:round;stroke-dasharray:none;stroke-opacity:1;paint-order:stroke fill markers"
         id="rect136180"
         width="8.7072649"
         height="1.8044788"
         x="17.110165"
         y="37.568462"
         transform="rotate(-19.042847)" /><rect
         style="opacity:1;fill:url(#linearGradient3494);fill-opacity:1.0;stroke:none;stroke-width:0.7;stroke-linecap:round;stroke-dasharray:none;stroke-opacity:1;paint-order:stroke fill markers"
         id="rect136182"
         width="9.002284"
         height="1.488887"
         x="11.476936"
         y="35.726936"
         ry="0.40851438"
         transform="rotate(-14.343484)" /><circle
         style="opacity:1;fill:#858e8f;fill-opacity:1;stroke:none;stroke-width:0.890837;stroke-linecap:round;stroke-dasharray:none;stroke-opacity:1;paint-order:stroke fill markers"
         id="circle136184"
         cx="40.327282"
         cy="30.755859"
         r="2.012414" /><rect
         style="opacity:1;fill:#4b5555;fill-opacity:1;stroke:none;stroke-width:0.665001;stroke-linecap:round;stroke-dasharray:none;stroke-opacity:1;paint-order:stroke fill markers"
         id="rect136186"
         width="4.8399315"
         height="1.1032025"
         x="5.4686308"
         y="45.135036"
         ry="0"
         transform="rotate(-16.145445)" /><path
         id="path136188"
         style="fill:url(#linearGradient3446);fill-opacity:1.0;stroke:none;stroke-width:0.264583px;stroke-linecap:butt;stroke-linejoin:miter;stroke-opacity:1"
         d="m 37.898979,26.585457 -18.225244,4.883423 2.864424,10.690304 2.528528,-0.09457 0.280603,10.180257 4.034896,-0.771529 -0.531751,-9.820589 -0.54777,-3.772897 2.993099,-0.802018 0.424264,1.582333 7.432104,-1.99161 1.142566,-1.142049 z m -3.264917,1.90221 c 0.183684,-0.0031 0.368821,0.0637 0.51263,0.202055 l 1.688269,1.62419 c 0.287618,0.276704 0.297596,0.730238 0.02222,1.016475 -0.275375,0.286238 -0.728857,0.293757 -1.016476,0.01705 L 34.152437,29.72325 c -0.287618,-0.276703 -0.297595,-0.729721 -0.02222,-1.015958 0.137688,-0.143119 0.320162,-0.216515 0.503846,-0.219625 z M 32.1908,29.165662 c 0.183684,-0.0031 0.368821,0.06422 0.51263,0.202571 l 1.688269,1.624191 c 0.287619,0.276703 0.297079,0.729721 0.0217,1.015958 -0.275375,0.286237 -0.72834,0.293757 -1.015958,0.01705 l -1.688269,-1.62419 c -0.287619,-0.276704 -0.297596,-0.729721 -0.02222,-1.015959 0.137687,-0.143118 0.320161,-0.216514 0.503845,-0.219624 z m -2.472717,0.582393 c 0.183684,-0.0031 0.368821,0.06422 0.51263,0.202572 l 1.688269,1.62419 c 0.287618,0.276704 0.297596,0.729721 0.02222,1.015959 -0.275375,0.286237 -0.728857,0.293756 -1.016476,0.01705 l -1.687752,-1.62419 c -0.287618,-0.276704 -0.297596,-0.729722 -0.02222,-1.015959 0.137688,-0.143119 0.319645,-0.216515 0.503329,-0.219625 z m -2.69906,0.803569 c 0.184117,-0.0036 0.369854,0.06319 0.513663,0.201538 l 3.488676,3.356384 c 0.287619,0.276704 0.296341,0.731441 0.01964,1.019059 -0.276703,0.287619 -0.730924,0.296341 -1.018542,0.01964 l -3.488676,-3.356384 c -0.287618,-0.276704 -0.296341,-0.731441 -0.01964,-1.019059 0.138352,-0.14381 0.320761,-0.217614 0.504879,-0.221175 z m -2.585889,0.733805 c 0.184118,-0.0036 0.369854,0.0637 0.513664,0.202055 l 3.488676,3.356384 c 0.287618,0.276704 0.29634,0.730924 0.01964,1.018542 -0.276704,0.287619 -0.730924,0.296341 -1.018543,0.01964 l -3.489193,-3.356385 c -0.287618,-0.276703 -0.29634,-0.730924 -0.01964,-1.018542 0.138352,-0.143809 0.321278,-0.218131 0.505396,-0.221692 z m -2.279964,0.61805 c 0.184117,-0.0036 0.369338,0.06319 0.513147,0.201538 l 3.488676,3.356384 c 0.287618,0.276704 0.296857,0.730924 0.02015,1.018543 -0.276703,0.287618 -0.73144,0.296857 -1.019059,0.02015 l -3.488676,-3.356901 c -0.287618,-0.276704 -0.29634,-0.730924 -0.01964,-1.018543 0.138352,-0.143809 0.321278,-0.217614 0.505396,-0.221175 z" /><rect
         style="opacity:1;fill:#1d1b1b;fill-opacity:1;stroke:none;stroke-width:0.665001;stroke-linecap:round;stroke-dasharray:none;stroke-opacity:1;paint-order:stroke fill markers"
         id="rect136190"
         width="5.2015848"
         height="1.3687882"
         x="0.25685507"
         y="45.060108"
         ry="0"
         transform="rotate(-16.145445)" /><circle
         style="fill:#4d5858;fill-opacity:1;stroke:none;stroke-width:0.465;stroke-linecap:round;paint-order:stroke fill markers"
         id="circle136192"
         cx="13.481834"
         cy="37.747051"
         r="2.867969" /><rect
         style="opacity:1;fill:#1d1b1b;fill-opacity:1;stroke:none;stroke-width:0.665001;stroke-linecap:round;stroke-dasharray:none;stroke-opacity:1;paint-order:stroke fill markers"
         id="rect136194"
         width="1.1775362"
         height="3.2946887"
         x="-0.84731013"
         y="44.020947"
         ry="0"
         transform="rotate(-16.145445)" /><rect
         style="fill:#1d1d1d;fill-opacity:1;stroke:none;stroke-width:0.465;stroke-linecap:round;paint-order:stroke fill markers"
         id="rect136196"
         width="4.5656676"
         height="6.9689517"
         x="2.6275573"
         y="36.544548"
         ry="0"
         transform="rotate(-15.450467)" /><rect
         style="opacity:1;fill:#6a7272;fill-opacity:1;stroke:none;stroke-width:0.665001;stroke-linecap:round;stroke-dasharray:none;stroke-opacity:1;paint-order:stroke fill markers"
         id="rect136198"
         width="1.1775362"
         height="3.2946887"
         x="1.2831575"
         y="43.588734"
         ry="0"
         transform="rotate(-16.145445)" /><rect
         style="fill:#858d8e;fill-opacity:1;stroke:none;stroke-width:0.465;stroke-linecap:round;paint-order:stroke fill markers"
         id="rect136200"
         width="0.80499804"
         height="7.6515627"
         x="3.1535635"
         y="36.205517"
         transform="rotate(-13.905555)" /><rect
         style="opacity:1;fill:#6a7272;fill-opacity:1;stroke:none;stroke-width:0.665001;stroke-linecap:round;stroke-dasharray:none;stroke-opacity:1;paint-order:stroke fill markers"
         id="rect136202"
         width="1.1775362"
         height="3.2946887"
         x="3.6355045"
         y="43.472534"
         ry="0"
         transform="rotate(-16.145445)" /><rect
         style="fill:#858d8e;fill-opacity:1;stroke:none;stroke-width:0.465;stroke-linecap:round;paint-order:stroke fill markers"
         id="rect136204"
         width="0.80499804"
         height="7.6515627"
         x="5.4322705"
         y="36.007263"
         transform="rotate(-13.905555)" /><path
         style="opacity:1;fill:url(#linearGradient3458);fill-opacity:1.0;stroke:none;stroke-width:0.264583px;stroke-linecap:butt;stroke-linejoin:miter;stroke-opacity:1"
         d="m 39.818288,36.103806 -0.604062,2.552192 -10.373844,2.712995 -0.701156,0.03268 c 0,0 -0.727115,-3.894198 -0.510427,-3.894198 0.216689,0 4.127294,-0.973728 4.127294,-0.973728 z"
         id="path136206" /><circle
         style="fill:url(#linearGradient3464);fill-opacity:1.0;stroke:none;stroke-width:0.465;stroke-linecap:round;paint-order:stroke fill markers"
         id="circle136208"
         cx="29.938663"
         cy="38.666767"
         r="0.54247111" /><path
         sodipodi:type="star"
         style="opacity:1;fill:url(#linearGradient3476);fill-opacity:1.0;stroke:none;stroke-width:0.465;stroke-linecap:round;paint-order:stroke fill markers"
         id="path136210"
         inkscape:flatsided="true"
         sodipodi:sides="3"
         sodipodi:cx="33.468479"
         sodipodi:cy="33.866665"
         sodipodi:r1="3.2116346"
         sodipodi:r2="1.6058174"
         sodipodi:arg1="0.36594603"
         sodipodi:arg2="1.4131436"
         inkscape:rounded="0"
         inkscape:randomized="0"
         d="m 36.467458,35.015893 -5.493729,0.873349 1.990522,-5.194383 z"
         inkscape:transform-center-x="-0.093819804"
         inkscape:transform-center-y="-0.21383223"
         transform="matrix(0.37213175,0,0,0.37213175,24.308933,22.872717)" /><g
         id="g136218"
         style="stroke:url(#linearGradient3488)"><path
           style="fill:none;fill-opacity:1;stroke:url(#linearGradient3488);stroke-width:0.264583px;stroke-linecap:butt;stroke-linejoin:miter;stroke-opacity:1"
           d="m 31.529602,33.436459 2.331135,-0.624626"
           id="path136212" /><path
           style="fill:none;fill-opacity:1;stroke:url(#linearGradient3488);stroke-width:0.264583px;stroke-linecap:butt;stroke-linejoin:miter;stroke-opacity:1"
           d="M 31.679215,34.095731 34.01035,33.471105"
           id="path136214" /><path
           style="fill:none;fill-opacity:1;stroke:url(#linearGradient3488);stroke-width:0.264583px;stroke-linecap:butt;stroke-linejoin:miter;stroke-opacity:1"
           d="m 31.894336,34.757514 2.331135,-0.624626"
           id="path136216" /></g><g
         id="g136226"
         transform="translate(3.2192011,-0.89755455)"><path
           style="fill:none;fill-opacity:1;stroke:url(#linearGradient3482);stroke-width:0.264583px;stroke-linecap:butt;stroke-linejoin:miter;stroke-opacity:1"
           d="m 31.529602,33.436459 2.331135,-0.624626"
           id="path136220" /><path
           style="fill:none;fill-opacity:1;stroke:url(#linearGradient3484);stroke-width:0.264583px;stroke-linecap:butt;stroke-linejoin:miter;stroke-opacity:1"
           d="M 31.679215,34.095731 34.01035,33.471105"
           id="path136222" /><path
           style="fill:none;fill-opacity:1;stroke:url(#linearGradient3486);stroke-width:0.264583px;stroke-linecap:butt;stroke-linejoin:miter;stroke-opacity:1"
           d="m 31.894336,34.757514 2.331135,-0.624626"
           id="path136224" /></g><path
         style="fill:none;stroke:#535a60;stroke-width:0.665;stroke-linecap:butt;stroke-linejoin:miter;stroke-dasharray:none;stroke-opacity:1"
         d="m 42.597845,24.589063 -0.209116,-2.945571 -3.996275,5.295883 2.271795,4.55795 1.407464,7.052765 -0.529998,1.513099 -1.395521,1.515634"
         id="path136230" /><circle
         style="fill:url(#linearGradient3470);fill-opacity:1.0;stroke:none;stroke-width:0.465;stroke-linecap:round;paint-order:stroke fill markers"
         id="circle136267"
         cx="25.705326"
         cy="39.195934"
         r="0.54247111" /></g><g
       id="g5697"
       transform="rotate(34.77547,40.023239,63.81195)"><path
         id="path5426"
         style="fill:#808080;fill-opacity:1;stroke:none;stroke-width:0.767447;paint-order:stroke fill markers"
         d="m 14.585708,25.797203 a 1.9832062,1.9832062 0 0 0 -1.982947,1.983573 1.9832062,1.9832062 0 0 0 1.982947,1.982948 1.9832062,1.9832062 0 0 0 1.983574,-1.982948 1.9832062,1.9832062 0 0 0 -1.983574,-1.983573 z m 0,0.270658 a 1.7128013,1.7128013 0 0 1 1.712916,1.712915 1.7128013,1.7128013 0 0 1 -1.712916,1.712288 1.7128013,1.7128013 0 0 1 -1.712915,-1.712288 1.7128013,1.7128013 0 0 1 1.712915,-1.712915 z" /><path
         id="rect5020"
         style="fill:#ff0000;stroke-width:0.633;paint-order:stroke fill markers"
         d="m 9.940247,24.564387 c 0,0 2.745697,1.682544 4.297245,1.751244 1.43446,0.06352 4.437566,0.624606 4.437566,0.624606 l -0.01858,0.727112 c 0,0 -3.12628,-0.170489 -4.663835,-0.443636 -1.432842,-0.254549 -4.2226648,-1.108864 -4.2226648,-1.108864 z"
         sodipodi:nodetypes="csccscc" /><path
         id="path5127"
         style="fill:#ff0000;stroke-width:0.633;paint-order:stroke fill markers"
         d="m 9.9878812,31.075277 c 0,0 2.7456958,-1.682544 4.2972438,-1.751245 1.434461,-0.06352 4.437566,-0.624606 4.437566,-0.624606 l -0.01858,-0.727112 c 0,0 -3.126281,0.170489 -4.663836,0.443637 -1.432841,0.254548 -4.2226638,1.108864 -4.2226638,1.108864 z"
         sodipodi:nodetypes="csccscc" /><path
         id="rect5189"
         style="fill:#ff0000;stroke-width:0.633;paint-order:stroke fill markers"
         d="m 15.119602,27.156201 h 0.916599 c 0,0 -0.260879,0.457196 -0.260879,0.679393 0,0.272166 0.260879,0.803697 0.260879,0.803697 h -0.916599 c 0,0 0.207932,-0.55606 0.210045,-0.798346 0.0023,-0.263049 -0.210045,-0.684744 -0.210045,-0.684744 z"
         sodipodi:nodetypes="ccsccsc" /></g><g
       id="g3428"
       style="display:inline"><rect
         style="display:inline;opacity:1;fill:#7a000e;fill-opacity:1;stroke:none;stroke-width:0.7;stroke-linecap:round;stroke-dasharray:none;stroke-opacity:1;paint-order:stroke fill markers"
         id="rect127152"
         width="7.5132589"
         height="2.9128413"
         x="15.118379"
         y="40.403572"
         transform="rotate(-23.058362)" /><rect
         style="fill:#647070;fill-opacity:1;stroke:none;stroke-width:0.465;stroke-linecap:round;paint-order:stroke fill markers"
         id="rect101188"
         width="5.1196666"
         height="4.6059151"
         x="0.57354492"
         y="35.554962"
         transform="rotate(-14.889335)" /><path
         style="display:inline;fill:url(#linearGradient3070);fill-opacity:1;stroke:none;stroke-width:0.264583px;stroke-linecap:butt;stroke-linejoin:miter;stroke-opacity:1"
         d="m 30.967066,40.892142 -0.66407,1.731849 1.141897,2.152065 1.483733,2.013418 -1.58055,0.9681 -2.547389,0.06215 -0.505844,-6.549387 z"
         id="path97145" /><path
         style="fill:url(#linearGradient3206);fill-opacity:1;stroke:none;stroke-width:0.264583px;stroke-linecap:butt;stroke-linejoin:miter;stroke-opacity:1"
         d="m 25.34729,52.244871 9.287687,-2.541667 3.176214,4.369792 -7.91291,1.908828 z"
         id="path98462"
         sodipodi:nodetypes="ccccc" /><path
         id="rect98114"
         style="fill:url(#linearGradient3088);fill-opacity:1;stroke-width:0.465;stroke-linecap:round;paint-order:stroke fill markers"
         d="m 39.694211,35.5027 0.31851,-0.959501 3.216473,-1.527621 0.06043,16.779839 -0.329086,0.117187 -3.099243,-2.908435 -0.196279,-0.800174 z"
         sodipodi:nodetypes="cccccccc"
         transform="rotate(6.0384191)" /><rect
         style="fill:#ccd0cd;fill-opacity:1;stroke:none;stroke-width:0.465;stroke-linecap:round;paint-order:stroke fill markers"
         id="rect98585"
         width="14.114686"
         height="6.5064993"
         x="5.7079329"
         y="37.201298"
         ry="0.40851438"
         transform="rotate(-17.128269)" /><path
         id="rect122702"
         style="opacity:1;fill:url(#linearGradient3046);fill-opacity:1;stroke-width:0.7;stroke-linecap:round;paint-order:stroke fill markers"
         transform="rotate(-23.058362)"
         d="m 14.797769,40.391802 7.833869,0.01177 v 2.912841 h -7.513259 z"
         sodipodi:nodetypes="ccccc" /><rect
         style="opacity:1;fill:url(#linearGradient3052);fill-opacity:1;stroke:none;stroke-width:0.7;stroke-linecap:round;stroke-dasharray:none;stroke-opacity:1;paint-order:stroke fill markers"
         id="rect123463"
         width="8.7072649"
         height="1.8044788"
         x="17.110165"
         y="37.568462"
         transform="rotate(-19.042847)" /><rect
         style="opacity:1;fill:url(#linearGradient3271);fill-opacity:1;stroke:none;stroke-width:0.7;stroke-linecap:round;stroke-dasharray:none;stroke-opacity:1;paint-order:stroke fill markers"
         id="rect125095"
         width="9.002284"
         height="1.488887"
         x="11.476936"
         y="35.726936"
         ry="0.40851438"
         transform="rotate(-14.343484)" /><circle
         style="opacity:1;fill:#858e8f;fill-opacity:1;stroke:none;stroke-width:0.890837;stroke-linecap:round;stroke-dasharray:none;stroke-opacity:1;paint-order:stroke fill markers"
         id="path127150"
         cx="40.327282"
         cy="30.755859"
         r="2.012414" /><rect
         style="opacity:1;fill:#4b5555;fill-opacity:1;stroke:none;stroke-width:0.665001;stroke-linecap:round;stroke-dasharray:none;stroke-opacity:1;paint-order:stroke fill markers"
         id="rect134470"
         width="4.8399315"
         height="1.1032025"
         x="5.4686308"
         y="45.135036"
         ry="0"
         transform="rotate(-16.145445)" /><path
         id="path99001"
         style="fill:url(#linearGradient3212);fill-opacity:1;stroke:none;stroke-width:0.264583px;stroke-linecap:butt;stroke-linejoin:miter;stroke-opacity:1"
         d="m 37.898979,26.585457 -18.225244,4.883423 2.864424,10.690304 2.528528,-0.09457 0.280603,10.180257 4.034896,-0.771529 -0.531751,-9.820589 -0.54777,-3.772897 2.993099,-0.802018 0.424264,1.582333 7.432104,-1.99161 1.142566,-1.142049 z m -3.264917,1.90221 c 0.183684,-0.0031 0.368821,0.0637 0.51263,0.202055 l 1.688269,1.62419 c 0.287618,0.276704 0.297596,0.730238 0.02222,1.016475 -0.275375,0.286238 -0.728857,0.293757 -1.016476,0.01705 L 34.152437,29.72325 c -0.287618,-0.276703 -0.297595,-0.729721 -0.02222,-1.015958 0.137688,-0.143119 0.320162,-0.216515 0.503846,-0.219625 z M 32.1908,29.165662 c 0.183684,-0.0031 0.368821,0.06422 0.51263,0.202571 l 1.688269,1.624191 c 0.287619,0.276703 0.297079,0.729721 0.0217,1.015958 -0.275375,0.286237 -0.72834,0.293757 -1.015958,0.01705 l -1.688269,-1.62419 c -0.287619,-0.276704 -0.297596,-0.729721 -0.02222,-1.015959 0.137687,-0.143118 0.320161,-0.216514 0.503845,-0.219624 z m -2.472717,0.582393 c 0.183684,-0.0031 0.368821,0.06422 0.51263,0.202572 l 1.688269,1.62419 c 0.287618,0.276704 0.297596,0.729721 0.02222,1.015959 -0.275375,0.286237 -0.728857,0.293756 -1.016476,0.01705 l -1.687752,-1.62419 c -0.287618,-0.276704 -0.297596,-0.729722 -0.02222,-1.015959 0.137688,-0.143119 0.319645,-0.216515 0.503329,-0.219625 z m -2.69906,0.803569 c 0.184117,-0.0036 0.369854,0.06319 0.513663,0.201538 l 3.488676,3.356384 c 0.287619,0.276704 0.296341,0.731441 0.01964,1.019059 -0.276703,0.287619 -0.730924,0.296341 -1.018542,0.01964 l -3.488676,-3.356384 c -0.287618,-0.276704 -0.296341,-0.731441 -0.01964,-1.019059 0.138352,-0.14381 0.320761,-0.217614 0.504879,-0.221175 z m -2.585889,0.733805 c 0.184118,-0.0036 0.369854,0.0637 0.513664,0.202055 l 3.488676,3.356384 c 0.287618,0.276704 0.29634,0.730924 0.01964,1.018542 -0.276704,0.287619 -0.730924,0.296341 -1.018543,0.01964 l -3.489193,-3.356385 c -0.287618,-0.276703 -0.29634,-0.730924 -0.01964,-1.018542 0.138352,-0.143809 0.321278,-0.218131 0.505396,-0.221692 z m -2.279964,0.61805 c 0.184117,-0.0036 0.369338,0.06319 0.513147,0.201538 l 3.488676,3.356384 c 0.287618,0.276704 0.296857,0.730924 0.02015,1.018543 -0.276703,0.287618 -0.73144,0.296857 -1.019059,0.02015 l -3.488676,-3.356901 c -0.287618,-0.276704 -0.29634,-0.730924 -0.01964,-1.018543 0.138352,-0.143809 0.321278,-0.217614 0.505396,-0.221175 z" /><rect
         style="opacity:1;fill:#1d1b1b;fill-opacity:1;stroke:none;stroke-width:0.665001;stroke-linecap:round;stroke-dasharray:none;stroke-opacity:1;paint-order:stroke fill markers"
         id="rect134731"
         width="5.2015848"
         height="1.3687882"
         x="0.25685507"
         y="45.060108"
         ry="0"
         transform="rotate(-16.145445)" /><circle
         style="fill:#4d5858;fill-opacity:1;stroke:none;stroke-width:0.465;stroke-linecap:round;paint-order:stroke fill markers"
         id="path100582"
         cx="13.481834"
         cy="37.747051"
         r="2.867969" /><rect
         style="opacity:1;fill:#1d1b1b;fill-opacity:1;stroke:none;stroke-width:0.665001;stroke-linecap:round;stroke-dasharray:none;stroke-opacity:1;paint-order:stroke fill markers"
         id="rect134948"
         width="1.1775362"
         height="3.2946887"
         x="-0.84731013"
         y="44.020947"
         ry="0"
         transform="rotate(-16.145445)" /><rect
         style="fill:#1d1d1d;fill-opacity:1;stroke:none;stroke-width:0.465;stroke-linecap:round;paint-order:stroke fill markers"
         id="rect99075"
         width="4.5656676"
         height="6.9689517"
         x="2.6275573"
         y="36.544548"
         ry="0"
         transform="rotate(-15.450467)" /><rect
         style="opacity:1;fill:#6a7272;fill-opacity:1;stroke:none;stroke-width:0.665001;stroke-linecap:round;stroke-dasharray:none;stroke-opacity:1;paint-order:stroke fill markers"
         id="rect134950"
         width="1.1775362"
         height="3.2946887"
         x="1.2831575"
         y="43.588734"
         ry="0"
         transform="rotate(-16.145445)" /><rect
         style="fill:#858d8e;fill-opacity:1;stroke:none;stroke-width:0.465;stroke-linecap:round;paint-order:stroke fill markers"
         id="rect100233"
         width="0.80499804"
         height="7.6515627"
         x="3.1535635"
         y="36.205517"
         transform="rotate(-13.905555)" /><rect
         style="opacity:1;fill:#6a7272;fill-opacity:1;stroke:none;stroke-width:0.665001;stroke-linecap:round;stroke-dasharray:none;stroke-opacity:1;paint-order:stroke fill markers"
         id="rect136125"
         width="1.1775362"
         height="3.2946887"
         x="3.6355045"
         y="43.472534"
         ry="0"
         transform="rotate(-16.145445)" /><rect
         style="fill:#858d8e;fill-opacity:1;stroke:none;stroke-width:0.465;stroke-linecap:round;paint-order:stroke fill markers"
         id="rect100580"
         width="0.80499804"
         height="7.6515627"
         x="5.4322705"
         y="36.007263"
         transform="rotate(-13.905555)" /><path
         style="opacity:1;fill:url(#linearGradient3076);fill-opacity:1;stroke:none;stroke-width:0.264583px;stroke-linecap:butt;stroke-linejoin:miter;stroke-opacity:1"
         d="m 39.818288,36.103806 -0.604062,2.552192 -10.373844,2.712995 -0.701156,0.03268 c 0,0 -0.727115,-3.894198 -0.510427,-3.894198 0.216689,0 4.127294,-0.973728 4.127294,-0.973728 z"
         id="path101986" /><circle
         style="fill:url(#linearGradient3082);fill-opacity:1;stroke:none;stroke-width:0.465;stroke-linecap:round;paint-order:stroke fill markers"
         id="path101863"
         cx="29.938663"
         cy="38.666767"
         r="0.54247111" /><path
         sodipodi:type="star"
         style="opacity:1;fill:url(#linearGradient3265);fill-opacity:1;stroke:none;stroke-width:0.465;stroke-linecap:round;paint-order:stroke fill markers"
         id="path102661"
         inkscape:flatsided="true"
         sodipodi:sides="3"
         sodipodi:cx="33.468479"
         sodipodi:cy="33.866665"
         sodipodi:r1="3.2116346"
         sodipodi:r2="1.6058174"
         sodipodi:arg1="0.36594603"
         sodipodi:arg2="1.4131436"
         inkscape:rounded="0"
         inkscape:randomized="0"
         d="m 36.467458,35.015893 -5.493729,0.873349 1.990522,-5.194383 z"
         inkscape:transform-center-x="-0.093819804"
         inkscape:transform-center-y="-0.21383223"
         transform="matrix(0.37213175,0,0,0.37213175,24.308933,22.872717)" /><g
         id="g114385"
         style="display:inline;stroke:url(#linearGradient3259)"><path
           style="fill:none;fill-opacity:1;stroke:url(#linearGradient3259);stroke-width:0.264583px;stroke-linecap:butt;stroke-linejoin:miter;stroke-opacity:1"
           d="m 31.529602,33.436459 2.331135,-0.624626"
           id="path102853" /><path
           style="fill:none;fill-opacity:1;stroke:url(#linearGradient3259);stroke-width:0.264583px;stroke-linecap:butt;stroke-linejoin:miter;stroke-opacity:1"
           d="M 31.679215,34.095731 34.01035,33.471105"
           id="path114378" /><path
           style="fill:none;fill-opacity:1;stroke:url(#linearGradient3259);stroke-width:0.264583px;stroke-linecap:butt;stroke-linejoin:miter;stroke-opacity:1"
           d="m 31.894336,34.757514 2.331135,-0.624626"
           id="path114380" /></g><path
         style="fill:none;fill-opacity:1;stroke:url(#linearGradient3257);stroke-width:0.264583px;stroke-linecap:butt;stroke-linejoin:miter;stroke-opacity:1"
         d="m 34.748803,32.538904 2.331135,-0.624626"
         id="path114387" /><path
         style="fill:none;fill-opacity:1;stroke:url(#linearGradient3255);stroke-width:0.264583px;stroke-linecap:butt;stroke-linejoin:miter;stroke-opacity:1"
         d="M 34.898416,33.198176 37.229551,32.57355"
         id="path114389" /><path
         style="fill:none;fill-opacity:1;stroke:url(#linearGradient3253);stroke-width:0.264583px;stroke-linecap:butt;stroke-linejoin:miter;stroke-opacity:1"
         d="m 35.113537,33.859959 2.331135,-0.624626"
         id="path114391" /><path
         style="fill:none;stroke:#a8aea8;stroke-width:0.7;stroke-linecap:round;stroke-linejoin:miter;stroke-dasharray:none;stroke-opacity:1"
         d="M 25.980726,39.722475 23.020571,38.77479 21.276278,37.358539 19.88709,35.204913 18.98022,32.284707 c 0,0 -0.633634,-1.341169 -1.212176,-1.753905 -0.614696,-0.438528 -1.428983,-0.5456 -2.1812,-0.611388 -0.879952,-0.07696 -1.847483,-0.134674 -2.637007,0.261419 -0.864453,0.433684 -1.955573,2.143357 -1.955573,2.143357 l -0.291728,1.673956 0.299904,0.955372"
         id="path114437"
         sodipodi:nodetypes="cccccsssccc" /><path
         style="fill:none;stroke:#535a60;stroke-width:0.665;stroke-linecap:butt;stroke-linejoin:miter;stroke-dasharray:none;stroke-opacity:1"
         d="m 42.597845,24.589063 -0.209116,-2.945571 -3.996275,5.295883 2.271795,4.55795 1.407464,7.052765 -0.529998,1.513099 -1.395521,1.515634"
         id="path128190" /></g></g></svg>
