<?xml version="1.0" encoding="UTF-8" standalone="no"?>
<!-- Created with Inkscape (http://www.inkscape.org/) -->

<svg
   width="256"
   height="256"
   viewBox="0 0 67.733332 67.733333"
   version="1.1"
   id="svg5373"
   inkscape:version="1.2.1 (9c6d41e410, 2022-07-14, custom)"
   sodipodi:docname="kraken.svg"
   inkscape:export-filename="kraken.png"
   inkscape:export-xdpi="96"
   inkscape:export-ydpi="96"
   xmlns:inkscape="http://www.inkscape.org/namespaces/inkscape"
   xmlns:sodipodi="http://sodipodi.sourceforge.net/DTD/sodipodi-0.dtd"
   xmlns:xlink="http://www.w3.org/1999/xlink"
   xmlns="http://www.w3.org/2000/svg"
   xmlns:svg="http://www.w3.org/2000/svg">
  <sodipodi:namedview
     id="namedview5375"
     pagecolor="#949494"
     bordercolor="#666666"
     borderopacity="1.0"
     inkscape:showpageshadow="2"
     inkscape:pageopacity="0"
     inkscape:pagecheckerboard="0"
     inkscape:deskcolor="#d1d1d1"
     inkscape:document-units="mm"
     showgrid="false"
     inkscape:zoom="1.9612656"
     inkscape:cx="-70.617667"
     inkscape:cy="44.614049"
     inkscape:window-width="1916"
     inkscape:window-height="1036"
     inkscape:window-x="0"
     inkscape:window-y="20"
     inkscape:window-maximized="1"
     inkscape:current-layer="layer1" />
  <defs
     id="defs5370">
    <linearGradient
       id="linearGradient10866"
       inkscape:swatch="solid">
      <stop
         style="stop-color:#ffffff;stop-opacity:1;"
         offset="0"
         id="stop10864" />
    </linearGradient>
    <linearGradient
       id="linearGradient6277"
       inkscape:swatch="gradient">
      <stop
         style="stop-color:#3a0dcd;stop-opacity:1;"
         offset="0"
         id="stop6273" />
      <stop
         style="stop-color:#9c9f0e;stop-opacity:1;"
         offset="1"
         id="stop6275" />
    </linearGradient>
    <linearGradient
       id="linearGradient5972"
       inkscape:swatch="solid">
      <stop
         style="stop-color:#3a0dcd;stop-opacity:1;"
         offset="0"
         id="stop5970" />
    </linearGradient>
    <linearGradient
       inkscape:collect="always"
       xlink:href="#linearGradient5972"
       id="linearGradient5974"
       x1="19.694138"
       y1="30.121898"
       x2="39.736334"
       y2="30.121898"
       gradientUnits="userSpaceOnUse"
       gradientTransform="translate(-0.20021945,0.00802882)" />
    <linearGradient
       inkscape:collect="always"
       xlink:href="#linearGradient5972"
       id="linearGradient6263"
       x1="20.332548"
       y1="35.191589"
       x2="17.01091"
       y2="38.528709"
       gradientUnits="userSpaceOnUse"
       gradientTransform="matrix(1.572915,0,0,1.572915,-11.085496,-19.664333)" />
    <linearGradient
       inkscape:collect="always"
       xlink:href="#linearGradient5972"
       id="linearGradient6281"
       gradientUnits="userSpaceOnUse"
       gradientTransform="matrix(-1.572915,0,0,1.572915,70.119427,-19.569579)"
       x1="20.332548"
       y1="35.191589"
       x2="17.01091"
       y2="38.528709" />
    <linearGradient
       inkscape:collect="always"
       xlink:href="#linearGradient5972"
       id="linearGradient6291"
       x1="22.86865"
       y1="35.880352"
       x2="22.517197"
       y2="39.976788"
       gradientUnits="userSpaceOnUse"
       gradientTransform="matrix(1.4757931,0,0,1,-10.195268,0)" />
    <linearGradient
       inkscape:collect="always"
       xlink:href="#linearGradient5972"
       id="linearGradient10719"
       gradientUnits="userSpaceOnUse"
       x1="22.86865"
       y1="35.880352"
       x2="22.517197"
       y2="39.976788"
       gradientTransform="matrix(1.4239596,-0.15914041,0.22953472,0.98725596,-5.5422006,3.9188924)" />
    <linearGradient
       inkscape:collect="always"
       xlink:href="#linearGradient5972"
       id="linearGradient10723"
       gradientUnits="userSpaceOnUse"
       gradientTransform="matrix(1.8426683,0.01148212,0.12470902,1.3769267,-15.051476,-14.1605)"
       x1="22.86865"
       y1="35.880352"
       x2="22.517197"
       y2="39.976788" />
    <linearGradient
       inkscape:collect="always"
       xlink:href="#linearGradient5972"
       id="linearGradient10868"
       x1="15.547804"
       y1="16.765404"
       x2="43.148727"
       y2="16.765404"
       gradientUnits="userSpaceOnUse" />
    <linearGradient
       inkscape:collect="always"
       xlink:href="#linearGradient5972"
       id="linearGradient10946"
       gradientUnits="userSpaceOnUse"
       gradientTransform="matrix(1.6192561,0,0,1.6192561,-12.782282,-28.191662)"
       x1="21.517349"
       y1="43.873306"
       x2="20.736841"
       y2="54.126965" />
    <linearGradient
       inkscape:collect="always"
       xlink:href="#linearGradient5972"
       id="linearGradient11022"
       gradientUnits="userSpaceOnUse"
       gradientTransform="matrix(-1.6192561,0,0,1.6192561,72.631779,-28.191662)"
       x1="21.517349"
       y1="43.873306"
       x2="20.736841"
       y2="54.126965" />
    <linearGradient
       inkscape:collect="always"
       xlink:href="#linearGradient5972"
       id="linearGradient418"
       gradientUnits="userSpaceOnUse"
       gradientTransform="matrix(-1.8426683,0.01148212,-0.12470902,1.3769267,73.681879,-14.191615)"
       x1="22.86865"
       y1="35.880352"
       x2="22.517197"
       y2="39.976788" />
  </defs>
  <g
     inkscape:label="Layer 1"
     inkscape:groupmode="layer"
     id="layer1">
    <g
       id="g473"
       transform="rotate(-21.751174,19.702027,34.755904)">
      <path
         style="fill:url(#linearGradient11022);fill-opacity:1;stroke:none;stroke-width:0.428428px;stroke-linecap:butt;stroke-linejoin:miter;stroke-opacity:1"
         d="m 39.055431,33.07395 2.306556,13.42555 c 0,0 0.936492,7.359944 0,10.854979 -0.682442,2.546909 -3.955132,6.850488 -3.955132,6.850488 0,0 -2.332968,-3.067846 -2.819453,-4.883434 -0.485233,-1.810915 0,-5.624392 0,-5.624392 0,0 1.398805,-4.128284 1.681468,-6.27532 0.482031,-3.661386 0,-11.07894 0,-11.07894 l -2.45766,-4.256789 1.746767,-4.913707 3.892475,-0.327267 z"
         id="path11020"
         sodipodi:nodetypes="ccscscsccccc" />
      <path
         style="fill:url(#linearGradient10946);fill-opacity:1;stroke:none;stroke-width:0.428428px;stroke-linecap:butt;stroke-linejoin:miter;stroke-opacity:1"
         d="M 20.794066,33.07395 18.48751,46.4995 c 0,0 -0.936492,7.359944 0,10.854979 0.682442,2.546909 3.955132,6.850488 3.955132,6.850488 0,0 2.332968,-3.067846 2.819453,-4.883434 0.485233,-1.810915 0,-5.624392 0,-5.624392 0,0 -1.398805,-4.128284 -1.681468,-6.27532 -0.482031,-3.661386 0,-11.07894 0,-11.07894 l 2.45766,-4.256789 -1.746767,-4.913707 -3.892475,-0.327267 z"
         id="path10729"
         sodipodi:nodetypes="ccscscsccccc" />
      <path
         id="path5548"
         style="fill:url(#linearGradient10868);fill-opacity:1;stroke-width:0.404593;paint-order:stroke fill markers"
         inkscape:transform-center-x="0.007618418"
         inkscape:transform-center-y="-4.3235171"
         d="m 42.920403,27.792963 c -0.651014,1.125302 -2.277909,1.043415 -2.277909,1.043415 l -23.247579,-0.02045 c 0,0 -1.204435,-0.15817 -1.679076,-0.981936 -0.638345,-1.107895 0.747764,-2.340875 0.747764,-2.340875 0,0 4.83359,-5.593 6.733951,-8.742523 1.854511,-3.073535 3.520907,-6.475688 4.778792,-9.5434813 0.52848,-1.288884 0.800039,-2.497159 1.563052,-2.513842 0.764409,-0.01671 0.972797,1.241478 1.551461,2.596766 1.251497,2.9311293 2.929607,5.8450033 4.720391,8.8744153 1.644295,2.781601 6.287317,8.433493 6.287317,8.433493 0,0 1.639012,1.782499 0.821836,3.195018 z"
         sodipodi:nodetypes="sccscssssscs" />
      <rect
         style="fill:url(#linearGradient5974);fill-opacity:1;stroke-width:0.665001;paint-order:stroke fill markers"
         id="rect5968"
         width="20.042196"
         height="8.1739769"
         x="19.493917"
         y="27.326916"
         ry="1.4732717" />
      <path
         id="path6093"
         style="fill:#000000;fill-opacity:1;stroke-width:0.969823;paint-order:stroke fill markers"
         d="m 30.223066,32.156986 c 0,1.648169 -1.945756,1.981851 -4.39064,1.981851 -2.444885,0 -4.426853,-1.336105 -4.426853,-2.984275 0,-1.648168 0.430113,-2.668236 2.874996,-2.668236 1.360966,0 2.904252,1.213514 3.71631,1.86491 0.646748,0.518795 2.226187,1.075049 2.226187,1.80575 z"
         sodipodi:nodetypes="ssssss" />
      <path
         id="path6095"
         style="fill:#000000;fill-opacity:1;stroke-width:0.945434;paint-order:stroke fill markers"
         d="m 28.750021,31.903918 c 0,1.60672 1.896823,1.932011 4.280223,1.932011 2.383401,0 4.315526,-1.302505 4.315526,-2.909226 0,-1.60672 -0.419297,-2.601135 -2.802695,-2.601135 -1.32674,0 -2.831216,1.182997 -3.622851,1.818012 -0.630484,0.505747 -2.170203,1.048012 -2.170203,1.760338 z"
         sodipodi:nodetypes="ssssss" />
      <path
         id="path6028"
         style="fill:#ffffff;stroke-width:0.809936;paint-order:stroke fill markers"
         d="m 29.49623,32.017775 c 0,1.376449 -1.624974,1.655119 -3.666789,1.655119 -2.041815,0 -3.697032,-1.115832 -3.697032,-2.49228 0,-1.376448 0.359204,-2.228345 2.401018,-2.228345 1.136594,0 2.42545,1.013451 3.10363,1.557457 0.540124,0.433265 1.859173,0.897813 1.859173,1.508049 z"
         sodipodi:nodetypes="ssssss" />
      <path
         id="path6031"
         style="fill:#ffffff;stroke-width:0.809936;paint-order:stroke fill markers"
         d="m 29.415798,31.899852 c 0,1.376449 1.624974,1.655119 3.666789,1.655119 2.041815,0 3.697032,-1.115832 3.697032,-2.49228 0,-1.376448 -0.359204,-2.228345 -2.401018,-2.228345 -1.136594,0 -2.42545,1.013451 -3.10363,1.557457 -0.540124,0.433265 -1.859173,0.897813 -1.859173,1.508049 z"
         sodipodi:nodetypes="ssssss" />
      <path
         style="fill:url(#linearGradient6263);fill-opacity:1;stroke:none;stroke-width:0.416167px;stroke-linecap:butt;stroke-linejoin:miter;stroke-opacity:1"
         d="m 19.721722,32.354964 -0.528758,3.823794 -3.755139,3.771943 6.409515,-2.430317 0.256923,-3.594701 z"
         id="path6097" />
      <path
         style="fill:url(#linearGradient6281);fill-opacity:1;stroke:none;stroke-width:0.416167px;stroke-linecap:butt;stroke-linejoin:miter;stroke-opacity:1"
         d="m 39.312209,32.449718 0.528758,3.823794 3.755139,3.771943 -6.409515,-2.430317 -0.256923,-3.594701 z"
         id="path6279" />
      <path
         style="fill:url(#linearGradient6291);fill-opacity:1;stroke:none;stroke-width:0.321421px;stroke-linecap:butt;stroke-linejoin:miter;stroke-opacity:1"
         d="m 22.093127,35.277554 c 0,0.278712 -0.665184,2.799744 -0.665184,2.799744 l 1.700641,1.995943 2.039968,-2.394191 v -2.367047 z"
         id="path6283" />
      <path
         style="fill:url(#linearGradient10719);fill-opacity:1;stroke:none;stroke-width:0.317758px;stroke-linecap:butt;stroke-linejoin:miter;stroke-opacity:1"
         d="m 33.709572,35.265086 c 0.06397,0.27516 8.16e-4,2.835793 8.16e-4,2.835793 l 2.099049,1.78712 1.418769,-2.583657 -0.543318,-2.336881 z"
         id="path10717" />
      <path
         style="fill:url(#linearGradient10723);fill-opacity:1;stroke:none;stroke-width:0.421326px;stroke-linecap:butt;stroke-linejoin:miter;stroke-opacity:1"
         d="m 29.663086,34.665317 c 0.03475,0.383767 -0.481343,3.849873 -0.481343,3.849873 0,0 1.160598,2.827543 2.372325,2.761499 1.323812,-0.07215 2.248517,-3.280753 2.248517,-3.280753 l -0.295192,-3.259251 z"
         id="path10721"
         sodipodi:nodetypes="ccsccc" />
      <ellipse
         style="fill:#3a0dcd;fill-opacity:1;stroke:none;stroke-width:0.762214;stroke-opacity:1;paint-order:stroke fill markers"
         id="path10905"
         cx="32.017288"
         cy="31.241142"
         rx="1.3216113"
         ry="1.0644614" />
      <ellipse
         style="fill:#3a0dcd;fill-opacity:1;stroke:none;stroke-width:0.762214;stroke-opacity:1;paint-order:stroke fill markers"
         id="ellipse10907"
         cx="26.822147"
         cy="31.342487"
         rx="1.3216113"
         ry="1.0644614" />
      <path
         style="fill:url(#linearGradient418);fill-opacity:1;stroke:none;stroke-width:0.421326px;stroke-linecap:butt;stroke-linejoin:miter;stroke-opacity:1"
         d="m 28.967317,34.634202 c -0.03475,0.383767 0.481343,3.849873 0.481343,3.849873 0,0 -1.160598,2.827543 -2.372325,2.761499 -1.323812,-0.07215 -2.248517,-3.280753 -2.248517,-3.280753 L 25.12301,34.70557 Z"
         id="path416"
         sodipodi:nodetypes="ccsccc" />
    </g>
  </g>
</svg>
