<?xml version="1.0" encoding="UTF-8" standalone="no"?>
<!-- Created with Inkscape (http://www.inkscape.org/) -->

<svg
   width="256"
   height="256"
   viewBox="0 0 67.733334 67.733334"
   version="1.1"
   id="svg37116"
   xml:space="preserve"
   inkscape:version="1.2.2 (b0a8486541, 2022-12-01)"
   sodipodi:docname="krakonrollerearly.svg"
   inkscape:export-filename="krakonrollerearly.png"
   inkscape:export-xdpi="96"
   inkscape:export-ydpi="96"
   xmlns:inkscape="http://www.inkscape.org/namespaces/inkscape"
   xmlns:sodipodi="http://sodipodi.sourceforge.net/DTD/sodipodi-0.dtd"
   xmlns:xlink="http://www.w3.org/1999/xlink"
   xmlns="http://www.w3.org/2000/svg"
   xmlns:svg="http://www.w3.org/2000/svg"><sodipodi:namedview
     id="namedview37118"
     pagecolor="#ffffff"
     bordercolor="#666666"
     borderopacity="1.0"
     inkscape:showpageshadow="2"
     inkscape:pageopacity="0.0"
     inkscape:pagecheckerboard="0"
     inkscape:deskcolor="#d1d1d1"
     inkscape:document-units="mm"
     showgrid="false"
     inkscape:zoom="1.7422589"
     inkscape:cx="8.0355451"
     inkscape:cy="116.5154"
     inkscape:window-width="1906"
     inkscape:window-height="1026"
     inkscape:window-x="5"
     inkscape:window-y="25"
     inkscape:window-maximized="1"
     inkscape:current-layer="layer1" /><defs
     id="defs37113"><linearGradient
       id="linearGradient7841"
       inkscape:swatch="solid"><stop
         style="stop-color:#371db2;stop-opacity:1;"
         offset="0"
         id="stop7839" /></linearGradient><linearGradient
       id="linearGradient7835"
       inkscape:swatch="solid"><stop
         style="stop-color:#c9a100;stop-opacity:1;"
         offset="0"
         id="stop7833" /></linearGradient><linearGradient
       id="linearGradient6377"
       inkscape:swatch="solid"><stop
         style="stop-color:#c9a100;stop-opacity:1;"
         offset="0"
         id="stop6375" /></linearGradient><linearGradient
       id="linearGradient4896"
       inkscape:swatch="solid"><stop
         style="stop-color:#0a4dca;stop-opacity:1;"
         offset="0"
         id="stop4894" /></linearGradient><linearGradient
       id="linearGradient2712"
       inkscape:swatch="solid"><stop
         style="stop-color:#791b1b;stop-opacity:1;"
         offset="0"
         id="stop2710" /></linearGradient><linearGradient
       id="linearGradient2706"
       inkscape:swatch="solid"><stop
         style="stop-color:#371db2;stop-opacity:1;"
         offset="0"
         id="stop2704" /></linearGradient><linearGradient
       id="linearGradient2700"
       inkscape:swatch="solid"><stop
         style="stop-color:#371db2;stop-opacity:1;"
         offset="0"
         id="stop2698" /></linearGradient><linearGradient
       id="linearGradient1968"
       inkscape:swatch="solid"><stop
         style="stop-color:#371db2;stop-opacity:1;"
         offset="0"
         id="stop1966" /></linearGradient><linearGradient
       id="linearGradient1962"
       inkscape:swatch="solid"><stop
         style="stop-color:#000000;stop-opacity:1;"
         offset="0"
         id="stop1960" /></linearGradient><linearGradient
       id="linearGradient1230"
       inkscape:swatch="solid"><stop
         style="stop-color:#b2491d;stop-opacity:1;"
         offset="0"
         id="stop1228" /></linearGradient><linearGradient
       id="linearGradient52202"><stop
         style="stop-color:#e0e4e1;stop-opacity:1;"
         offset="0"
         id="stop52250" /><stop
         style="stop-color:#cdd1cd;stop-opacity:1;"
         offset="1"
         id="stop52252" /></linearGradient><linearGradient
       id="linearGradient52202-1"><stop
         style="stop-color:#d0d6d2;stop-opacity:1;"
         offset="0"
         id="stop52198" /><stop
         style="stop-color:#b4b5b4;stop-opacity:1;"
         offset="1"
         id="stop52200" /></linearGradient><linearGradient
       id="linearGradient8602"
       inkscape:swatch="solid"><stop
         style="stop-color:#daaa00;stop-opacity:1;"
         offset="0"
         id="stop8600" /></linearGradient><linearGradient
       id="linearGradient8596"
       inkscape:swatch="solid"><stop
         style="stop-color:#d9a900;stop-opacity:1;"
         offset="0"
         id="stop8594" /></linearGradient><linearGradient
       id="linearGradient8590"
       inkscape:swatch="solid"><stop
         style="stop-color:#cca000;stop-opacity:1;"
         offset="0"
         id="stop8588" /></linearGradient><linearGradient
       id="linearGradient8584"
       inkscape:swatch="solid"><stop
         style="stop-color:#0e00d0;stop-opacity:1;"
         offset="0"
         id="stop8582" /></linearGradient><linearGradient
       id="linearGradient8577"
       inkscape:swatch="solid"><stop
         style="stop-color:#18187d;stop-opacity:1;"
         offset="0"
         id="stop8575" /></linearGradient><linearGradient
       id="linearGradient8571"
       inkscape:swatch="solid"><stop
         style="stop-color:#1c1c90;stop-opacity:1;"
         offset="0"
         id="stop8569" /></linearGradient><linearGradient
       inkscape:collect="always"
       xlink:href="#linearGradient8584"
       id="linearGradient8598"
       x1="7.7550611"
       y1="32.064522"
       x2="43.449963"
       y2="32.064522"
       gradientUnits="userSpaceOnUse" /><linearGradient
       inkscape:collect="always"
       xlink:href="#linearGradient52202"
       id="linearGradient52204"
       x1="39.340225"
       y1="14.100267"
       x2="39.366276"
       y2="8.964756"
       gradientUnits="userSpaceOnUse"
       spreadMethod="reflect" /><linearGradient
       inkscape:collect="always"
       xlink:href="#linearGradient52202-1"
       id="linearGradient52248"
       x1="35.253716"
       y1="22.891703"
       x2="33.797077"
       y2="28.116467"
       gradientUnits="userSpaceOnUse"
       spreadMethod="reflect" /><linearGradient
       inkscape:collect="always"
       xlink:href="#linearGradient1230"
       id="linearGradient1232"
       x1="6.2625958"
       y1="22.488722"
       x2="27.495934"
       y2="22.488722"
       gradientUnits="userSpaceOnUse" /><linearGradient
       inkscape:collect="always"
       xlink:href="#linearGradient1230"
       id="linearGradient1970"
       x1="27.474022"
       y1="38.69883"
       x2="33.53344"
       y2="38.69883"
       gradientUnits="userSpaceOnUse" /><linearGradient
       inkscape:collect="always"
       xlink:href="#linearGradient1230"
       id="linearGradient2702"
       x1="27.680136"
       y1="46.592537"
       x2="29.298615"
       y2="46.592537"
       gradientUnits="userSpaceOnUse" /><linearGradient
       inkscape:collect="always"
       xlink:href="#linearGradient1230"
       id="linearGradient2708"
       x1="27.153023"
       y1="48.557499"
       x2="28.569254"
       y2="48.557499"
       gradientUnits="userSpaceOnUse" /><linearGradient
       inkscape:collect="always"
       xlink:href="#linearGradient2712"
       id="linearGradient2714"
       x1="37.649887"
       y1="40.20591"
       x2="38.543633"
       y2="40.20591"
       gradientUnits="userSpaceOnUse" /><linearGradient
       inkscape:collect="always"
       xlink:href="#linearGradient1230"
       id="linearGradient4898"
       x1="4.1566281"
       y1="35.013939"
       x2="14.406241"
       y2="35.013939"
       gradientUnits="userSpaceOnUse" /><linearGradient
       inkscape:collect="always"
       xlink:href="#linearGradient8584"
       id="linearGradient6379"
       x1="15.899576"
       y1="12.663021"
       x2="17.171906"
       y2="12.663021"
       gradientUnits="userSpaceOnUse" /><linearGradient
       inkscape:collect="always"
       xlink:href="#linearGradient8584"
       id="linearGradient7837"
       x1="61.032993"
       y1="12.971263"
       x2="62.305321"
       y2="12.971263"
       gradientUnits="userSpaceOnUse" /><linearGradient
       inkscape:collect="always"
       xlink:href="#linearGradient2712"
       id="linearGradient7843"
       x1="62.171867"
       y1="13.315805"
       x2="63.221149"
       y2="13.315805"
       gradientUnits="userSpaceOnUse" /></defs><g
     inkscape:label="Layer 1"
     inkscape:groupmode="layer"
     id="layer1"><path
       style="fill:none;stroke:#292929;stroke-width:0.965;stroke-linecap:butt;stroke-linejoin:round;stroke-dasharray:none;stroke-opacity:1"
       d="m 32.203974,31.678144 c 0,0 -0.894047,-1.114914 -1.502574,-1.455338 -1.3796,-0.771779 -4.594197,-1.176356 -4.594197,-1.176356"
       id="path45922"
       sodipodi:nodetypes="csc" /><path
       style="fill:#272727;fill-opacity:1;stroke:none;stroke-width:0.264583px;stroke-linecap:butt;stroke-linejoin:miter;stroke-opacity:1"
       d="m 27.539884,49.102589 -0.273998,0.549198 -0.568954,-0.15245 -2.134852,7.967376 1.722652,0.340086 2.10689,-7.86302 -0.572156,-0.154867 0.160875,-0.600395 z"
       id="path43158"
       sodipodi:nodetypes="ccccccccc" /><path
       style="fill:url(#linearGradient1970);fill-opacity:1.0;stroke:none;stroke-width:0.264583px;stroke-linecap:butt;stroke-linejoin:miter;stroke-opacity:1"
       d="m 32.489414,31.269899 c -0.555855,-0.05235 -1.548725,0.832223 -1.548725,0.832223 l -3.466668,13.397913 2.55974,0.62996 3.499678,-13.459862 c 0,0 -0.431629,-1.342556 -1.044025,-1.400234 z"
       id="path39577"
       sodipodi:nodetypes="sccccs" /><path
       style="fill:url(#linearGradient2702);fill-opacity:1.0;stroke:none;stroke-width:0.264583px;stroke-linecap:butt;stroke-linejoin:miter;stroke-opacity:1"
       d="m 28.06897,45.569103 c 0,0 0.0053,0.325322 -0.04111,0.478539 -0.05868,0.193608 -0.241524,0.336 -0.292521,0.531773 -0.07179,0.275608 -0.05298,0.815962 -0.05298,0.815962 l 0.997737,0.220592 c 0,0 0.426781,-0.404372 0.521568,-0.700576 0.06431,-0.200958 -4.99e-4,-0.476153 0.02146,-0.686003 0.01202,-0.114881 0.07549,-0.338204 0.07549,-0.338204 z"
       id="path39924"
       sodipodi:nodetypes="cssccsscc" /><rect
       style="fill:url(#linearGradient2714);fill-opacity:1;stroke:none;stroke-width:1.865;stroke-linecap:round;stroke-linejoin:round;stroke-dasharray:none;stroke-opacity:1;paint-order:stroke fill markers"
       id="rect40668"
       width="0.8937456"
       height="0.43580642"
       x="37.649887"
       y="39.988007"
       transform="rotate(12.922963)" /><g
       id="g37373"
       transform="matrix(-0.06932145,-0.36694068,-0.36694068,0.06932145,46.699916,52.624405)"><rect
         style="display:inline;fill:#d2d7d3;fill-opacity:1;stroke:none;stroke-width:0.264999"
         id="rect408"
         width="34.453979"
         height="15.448857"
         x="3.6763122"
         y="28.501139"
         transform="rotate(-14.306086)"
         ry="7.5781903"
         rx="8.0300369"
         inkscape:label="container" /><path
         style="fill:url(#linearGradient4898);fill-opacity:1.0;stroke:none;stroke-width:0.264583px;stroke-linecap:butt;stroke-linejoin:miter;stroke-opacity:1"
         d="m 11.087651,30.581152 -6.9310231,3.45766 1.4842548,5.407911 8.7653583,-0.335845 -0.782718,-0.514586 z"
         id="path2258"
         inkscape:label="stock"
         sodipodi:nodetypes="cccccc" /><path
         style="fill:url(#linearGradient8598);fill-opacity:1;stroke:none;stroke-width:0.264583px;stroke-linecap:butt;stroke-linejoin:miter;stroke-opacity:1"
         d="m 7.755061,26.174065 c 0,0 1.8016083,2.351752 2.493485,3.653895 0.352154,0.662769 0.568172,1.389597 0.830911,2.092622 0.842583,2.25454 1.006267,4.844133 2.389795,6.813587 0.673555,0.958806 1.629521,1.806178 2.725963,2.219457 1.078741,0.406607 3.456042,0.129953 3.456042,0.129953 l 2.004078,-1.200148 c 0,0 0.987545,-0.812356 1.267042,-1.367324 0.435458,-0.864643 0.570002,-1.886845 0.536353,-2.854367 -0.0455,-1.308283 -0.775895,-2.50879 -0.991648,-3.799962 -0.09299,-0.556507 -0.185732,-1.126509 -0.128296,-1.687801 0.04611,-0.450615 0.142961,-0.917208 0.375298,-1.306052 0.278117,-0.465461 0.695383,-0.863441 1.163896,-1.136385 0.618788,-0.36049 1.348472,-0.630987 2.063801,-0.596982 0.648495,0.03083 1.270311,0.357177 1.811203,0.716248 1.624126,1.078177 2.694587,2.819094 4.093287,4.176993 0.986744,0.957961 1.800707,2.184478 3.030926,2.799225 1.127145,0.563241 2.458231,0.67737 3.718264,0.681019 0.673566,0.002 1.989719,-0.352528 1.989719,-0.352528 l 2.630125,-0.975913 0.234659,-0.150275 -0.694944,-0.415282 -1.788027,0.632103 -2.291086,-0.448691 -1.828971,-0.72126 c 0,0 -0.953508,-0.903112 -2.000597,-2.104184 -1.191817,-1.367084 -1.763225,-3.105653 -2.914184,-4.45698 -0.720044,-0.845395 -1.501647,-1.687171 -2.462665,-2.24359 -0.854463,-0.494725 -1.512027,-0.918859 -2.82016,-0.905779 -1.174228,0.01174 -3.192742,0.300127 -4.231923,0.846981 -0.803653,0.422911 -1.423865,0.836041 -2.199578,1.607563 -0.796098,0.791796 -1.034146,1.62161 -1.333053,2.364885 -0.342063,0.85059 -0.35254,1.434093 -0.35953,2.165909 -0.01055,1.104195 0.258699,2.195931 0.479953,3.277783 0.168969,0.826199 0.541896,1.60923 0.645673,2.44612 0.071,0.572556 0.25375,1.222638 -0.0196,1.730714 -0.213747,0.397291 -0.69356,0.613881 -1.120881,0.758534 -0.434193,0.14698 -0.915926,0.11581 -1.372884,0.07954 -0.531628,-0.0422 -1.141432,-0.01623 -1.562625,-0.343343 C 14.915337,37.788117 14.768923,36.833753 14.448308,36.062658 13.654934,34.154557 13.273069,32.092902 12.488269,30.181259 12.001947,28.99666 11.500711,27.800896 10.791644,26.73459 10.290472,25.98092 9.0089341,24.686499 9.0089341,24.686499 Z"
         id="path1701"
         inkscape:label="yellow wrapping"
         sodipodi:nodetypes="cssssccssssssssssscccccccssssssssssssssssscc" /></g><g
       id="g50809"><rect
         style="fill:#292929;fill-opacity:1;stroke:none;stroke-width:2.165;stroke-linecap:round;stroke-linejoin:round;stroke-dasharray:none;stroke-opacity:1;paint-order:stroke fill markers"
         id="rect50609"
         width="3.1811087"
         height="1.4787655"
         x="22.855011"
         y="25.108627"
         transform="rotate(9.6328678)" /><rect
         style="fill:#292929;fill-opacity:1;stroke:none;stroke-width:2.165;stroke-linecap:round;stroke-linejoin:round;stroke-dasharray:none;stroke-opacity:1;paint-order:stroke fill markers"
         id="rect50801"
         width="1.2844486"
         height="1.0548966"
         x="-26.698767"
         y="-23.74103"
         transform="rotate(-166.71786)" /></g><path
       style="fill:url(#linearGradient2708);fill-opacity:1.0;stroke:none;stroke-width:0.264583px;stroke-linecap:butt;stroke-linejoin:miter;stroke-opacity:1"
       d="m 27.584641,47.7927 c 0,0 -0.167561,0.348283 -0.256353,0.538615 -0.107296,0.229994 -0.175265,0.740926 -0.175265,0.740926 l 1.104485,0.250058 c 0,0 0.247349,-0.451527 0.295682,-0.700245 0.04135,-0.21279 -0.01019,-0.650231 -0.01019,-0.650231 z"
       id="path41774"
       sodipodi:nodetypes="csccscc" /><path
       style="fill:#959595;stroke:none;stroke-width:0.264583px;stroke-linecap:butt;stroke-linejoin:miter;stroke-opacity:1;fill-opacity:0.98431373"
       d="m 28.247739,42.735473 -1.107715,-0.302572 -0.270656,1.067702 0.260126,0.04142 -0.76268,2.252221 0.565176,0.110574 0.784458,-2.539581 0.373435,0.116226 z"
       id="path43988" /><path
       style="fill:none;stroke:url(#linearGradient1232);stroke-width:2.165;stroke-linecap:butt;stroke-linejoin:round;stroke-dasharray:none;stroke-opacity:1"
       d="m 27.217472,29.22857 c 0,0 -9.860792,-2.624922 -15.682915,-4.202224 C 9.1779592,24.387908 7.0903397,21.23253 7.3736302,18.99832 7.6641137,16.707383 13.091237,15.769492 13.091237,15.769492"
       id="path47174"
       sodipodi:nodetypes="cssc" /><rect
       style="fill:#959595;fill-opacity:1;stroke:none;stroke-width:2.165;stroke-linecap:round;stroke-linejoin:round;stroke-dasharray:none;stroke-opacity:1;paint-order:stroke fill markers"
       id="rect47849"
       width="0.56888044"
       height="3.4237931"
       x="15.164882"
       y="11.211576"
       transform="rotate(13.314138)" /><rect
       style="fill:url(#linearGradient6379);fill-opacity:1.0;stroke:none;stroke-width:2.165;stroke-linecap:round;stroke-linejoin:round;stroke-dasharray:none;stroke-opacity:1;paint-order:stroke fill markers"
       id="rect49412"
       width="1.2723293"
       height="8.3482533"
       x="15.899576"
       y="8.4888945"
       transform="rotate(14.11136)" /><rect
       style="fill:url(#linearGradient7843);fill-opacity:1.0;stroke:none;stroke-width:2.165;stroke-linecap:round;stroke-linejoin:round;stroke-dasharray:none;stroke-opacity:1;paint-order:stroke fill markers"
       id="rect49554"
       width="1.0492821"
       height="6.7671723"
       x="62.171867"
       y="9.9322186"
       transform="rotate(14.11136)" /><rect
       style="fill:url(#linearGradient7837);fill-opacity:1.0;stroke:none;stroke-width:2.165;stroke-linecap:round;stroke-linejoin:round;stroke-dasharray:none;stroke-opacity:1;paint-order:stroke fill markers"
       id="rect49552"
       width="1.2723274"
       height="8.9647379"
       x="61.032993"
       y="8.4888945"
       transform="rotate(14.11136)" /><path
       id="rect50323"
       style="display:inline;fill:url(#linearGradient52204);stroke-width:2.165;stroke-linecap:round;stroke-linejoin:round;paint-order:stroke fill markers;fill-opacity:1"
       transform="rotate(14.11136)"
       d="m 17.171906,8.4888945 43.861087,0 V 17.453632 L 17.171906,16.837147 Z"
       sodipodi:nodetypes="ccccc" /><path
       id="path50554"
       style="fill:url(#linearGradient52248);fill-opacity:1;stroke-width:2.165;stroke-linecap:round;stroke-linejoin:round;paint-order:stroke fill markers"
       d="m 18.225608,21.310387 c -0.06218,0.235933 -0.115832,0.437115 -0.394307,0.55382 -0.278474,0.116704 -1.11763,-0.178504 -1.11763,-0.178504 0,0 -0.485027,-0.0865 -0.800056,-0.142678 -0.215697,-0.104341 -0.383215,-0.102626 -0.383215,-0.433296 0,-0.768265 0.535877,-1.190409 1.304142,-1.190409 0.768265,0 1.586848,0.648167 1.391066,1.391067 z m 4.769496,1.203871 c -0.06218,0.235933 -0.115832,0.437115 -0.394307,0.55382 -0.278474,0.116704 -1.11763,-0.178504 -1.11763,-0.178504 0,0 -0.485027,-0.0865 -0.800056,-0.142678 -0.215697,-0.104341 -0.383215,-0.102626 -0.383215,-0.433296 0,-0.768265 0.535877,-1.190409 1.304142,-1.190409 0.768265,0 1.586848,0.648167 1.391066,1.391067 z m 4.975196,1.372318 c -0.06218,0.235933 -0.115832,0.437115 -0.394307,0.55382 -0.278474,0.116704 -1.11763,-0.178504 -1.11763,-0.178504 0,0 -0.485027,-0.0865 -0.800056,-0.142678 -0.215697,-0.104341 -0.383215,-0.102626 -0.383215,-0.433296 0,-0.768265 0.535877,-1.190409 1.304142,-1.190409 0.768265,0 1.586848,0.648167 1.391066,1.391067 z m 4.642187,1.358638 c -0.06218,0.235933 -0.115832,0.437115 -0.394307,0.55382 -0.278474,0.116704 -1.11763,-0.178504 -1.11763,-0.178504 0,0 -0.485027,-0.0865 -0.800056,-0.142678 -0.215697,-0.104341 -0.383215,-0.102626 -0.383215,-0.433296 0,-0.768265 0.535877,-1.190409 1.304142,-1.190409 0.768265,0 1.586848,0.648167 1.391066,1.391067 z m 5.144222,1.30688 c -0.06218,0.235933 -0.115832,0.437115 -0.394307,0.55382 -0.278474,0.116704 -1.11763,-0.178504 -1.11763,-0.178504 0,0 -0.485027,-0.0865 -0.800056,-0.142678 -0.215697,-0.104341 -0.383215,-0.102626 -0.383215,-0.433296 0,-0.768265 0.535877,-1.190409 1.304142,-1.190409 0.768265,0 1.586848,0.648167 1.391066,1.391067 z m 4.678005,1.23352 c -0.06218,0.235933 -0.115832,0.437115 -0.394307,0.55382 -0.278474,0.116704 -1.11763,-0.178504 -1.11763,-0.178504 0,0 -0.485027,-0.0865 -0.800056,-0.142678 -0.215697,-0.104341 -0.383215,-0.102626 -0.383215,-0.433296 0,-0.768265 0.535877,-1.190409 1.304142,-1.190409 0.768265,0 1.586848,0.648167 1.391066,1.391067 z m 4.817894,1.377942 c -0.06218,0.235933 0.05373,0.311294 -0.224749,0.427999 -0.278474,0.116704 -0.985077,-0.146554 -0.985077,-0.146554 0,0 -0.697702,-0.22454 -1.012731,-0.280718 -0.215697,-0.104341 -0.457086,-0.04211 -0.457086,-0.372784 0,-0.768265 0.520312,-1.01901 1.288577,-1.01901 0.768265,0 1.586848,0.648167 1.391066,1.391067 z m 5.077881,1.269122 c -0.06218,0.235933 -0.115832,0.437115 -0.394307,0.55382 -0.278474,0.116704 -1.11763,-0.178504 -1.11763,-0.178504 0,0 -0.485027,-0.0865 -0.800056,-0.142678 -0.215697,-0.104341 -0.383215,-0.102626 -0.383215,-0.433296 0,-0.768265 0.535877,-1.190409 1.304142,-1.190409 0.768265,0 1.586848,0.648167 1.391066,1.391067 z m 1.187294,-5.155035 c 0,0.768265 -0.622801,1.391067 -1.391066,1.391067 -0.768265,0 -1.391067,-0.622802 -1.391067,-1.391067 0,-0.768265 0.622802,-1.391067 1.391067,-1.391067 0.768265,0 1.391066,0.622802 1.391066,1.391067 z m -4.815956,-1.391067 c 0,0.768265 -0.622802,1.391066 -1.391067,1.391066 -0.768264,0 -1.391066,-0.622802 -1.391066,-1.391066 0,-0.768265 0.622801,-1.391067 1.391066,-1.391067 0.768265,0 1.391067,0.622802 1.391067,1.391067 z m -4.993965,-1.052029 c 0,0.768265 -0.622802,1.391067 -1.391067,1.391067 -0.768265,0 -1.391066,-0.622802 -1.391066,-1.391067 0,-0.768265 0.622801,-1.391067 1.391066,-1.391067 0.768265,0 1.391067,0.622802 1.391067,1.391067 z M 38.884784,21.44348 c 0,0.768265 -0.622802,1.391066 -1.391067,1.391066 -0.768265,0 -1.391067,-0.622801 -1.391067,-1.391066 0,-0.768265 0.622802,-1.391067 1.391067,-1.391067 0.768265,0 1.391067,0.622802 1.391067,1.391067 z m -4.823078,-1.25002 c 0,0.768265 -0.622802,1.391067 -1.391067,1.391067 -0.768265,0 -1.391067,-0.622802 -1.391067,-1.391067 0,-0.768265 0.622802,-1.391066 1.391067,-1.391066 0.768265,0 1.391067,0.622801 1.391067,1.391066 z m -4.823078,-1.277385 c 0,0.768265 -0.622802,1.391067 -1.391067,1.391067 -0.768265,0 -1.391067,-0.622802 -1.391067,-1.391067 0,-0.768265 0.622802,-1.391067 1.391067,-1.391067 0.768265,0 1.391067,0.622802 1.391067,1.391067 z M 24.41555,17.525007 c 0,0.768265 -0.622802,1.391067 -1.391067,1.391067 -0.768265,0 -1.391067,-0.622802 -1.391067,-1.391067 0,-0.768265 0.622802,-1.391067 1.391067,-1.391067 0.768265,0 1.391067,0.622802 1.391067,1.391067 z M 19.592471,16.13394 c 0,0.768265 -0.622801,1.391067 -1.391066,1.391067 -0.768265,0 -1.391067,-0.622802 -1.391067,-1.391067 0,-0.768265 0.622802,-1.391067 1.391067,-1.391067 0.768265,0 1.391066,0.622802 1.391066,1.391067 z"
       sodipodi:nodetypes="ssccsssssccsssssccsssssccsssssccsssssccsssssccsssssccsssssssssssssssssssssssssssssssssssssssssss" /><rect
       style="fill:#292929;fill-opacity:1;stroke:none;stroke-width:2.165;stroke-linecap:round;stroke-linejoin:round;stroke-dasharray:none;stroke-opacity:1;paint-order:stroke fill markers"
       id="rect50803"
       width="4.7916451"
       height="1.4824301"
       x="21.28054"
       y="19.740997"
       transform="rotate(13.074094)"
       ry="0.31843975" /><rect
       style="fill:#292929;fill-opacity:1;stroke:none;stroke-width:2.165;stroke-linecap:round;stroke-linejoin:round;stroke-dasharray:none;stroke-opacity:1;paint-order:stroke fill markers"
       id="rect50805"
       width="4.7916451"
       height="1.4824301"
       x="26.151073"
       y="19.774591"
       transform="rotate(13.074094)"
       ry="0.31843975" /><rect
       style="fill:#959595;fill-opacity:1;stroke:none;stroke-width:2.165;stroke-linecap:round;stroke-linejoin:round;stroke-dasharray:none;stroke-opacity:1;paint-order:stroke fill markers"
       id="rect52516"
       width="0.99861449"
       height="2.9791932"
       x="62.887257"
       y="13.17849"
       transform="rotate(12.866035)" /><path
       style="fill:none;stroke:#000000;stroke-width:0;stroke-linecap:butt;stroke-linejoin:miter;stroke-opacity:1;stroke-dasharray:none"
       d="m 58.979654,27.142551 0.525468,-2.500689 0.825299,-0.821546 1.360863,0.01725 0.385582,0.819663 -0.656344,1.036594 -1.152056,0.226993"
       id="path52520" /><path
       style="fill:none;stroke:#959595;stroke-width:0.465;stroke-linecap:butt;stroke-linejoin:miter;stroke-dasharray:none;stroke-opacity:1"
       d="m 58.915188,27.140006 0.353203,-1.974644 c 0,0 0.214066,-0.817629 0.479592,-1.128264 0.153282,-0.179323 0.393157,-0.363544 0.621002,-0.424687 0.363742,-0.09761 0.799015,-0.12656 1.108484,0.08807 0.25987,0.180229 0.332801,0.561961 0.362362,0.876828 0.02506,0.266907 0.0044,0.578439 -0.163457,0.787457 -0.197945,0.246472 -0.556358,0.320625 -0.865081,0.388599 -0.208373,0.04588 -0.640051,0.0072 -0.640051,0.0072"
       id="path52585"
       sodipodi:nodetypes="ccssssssc" /></g></svg>
