<?xml version="1.0" encoding="UTF-8" standalone="no"?>
<!-- Created with Inkscape (http://www.inkscape.org/) -->

<svg
   width="256"
   height="256"
   viewBox="0 0 67.733332 67.733333"
   version="1.1"
   id="svg5"
   xml:space="preserve"
   inkscape:version="1.2.2 (b0a8486541, 2022-12-01)"
   sodipodi:docname="minisplatling.svg"
   xmlns:inkscape="http://www.inkscape.org/namespaces/inkscape"
   xmlns:sodipodi="http://sodipodi.sourceforge.net/DTD/sodipodi-0.dtd"
   xmlns:xlink="http://www.w3.org/1999/xlink"
   xmlns="http://www.w3.org/2000/svg"
   xmlns:svg="http://www.w3.org/2000/svg"><sodipodi:namedview
     id="namedview7"
     pagecolor="#505050"
     bordercolor="#eeeeee"
     borderopacity="1"
     inkscape:showpageshadow="0"
     inkscape:pageopacity="0"
     inkscape:pagecheckerboard="0"
     inkscape:deskcolor="#505050"
     inkscape:document-units="mm"
     showgrid="false"
     inkscape:zoom="1.789313"
     inkscape:cx="293.68814"
     inkscape:cy="67.62372"
     inkscape:window-width="1906"
     inkscape:window-height="1026"
     inkscape:window-x="5"
     inkscape:window-y="25"
     inkscape:window-maximized="1"
     inkscape:current-layer="layer1" /><defs
     id="defs2"><linearGradient
       id="linearGradient76102"
       inkscape:swatch="solid"><stop
         style="stop-color:#979797;stop-opacity:1;"
         offset="0"
         id="stop76100" /></linearGradient><linearGradient
       id="linearGradient68364"
       inkscape:swatch="solid"><stop
         style="stop-color:#000000;stop-opacity:1;"
         offset="0"
         id="stop68362" /></linearGradient><linearGradient
       id="linearGradient68220"
       inkscape:swatch="solid"><stop
         style="stop-color:#371db5;stop-opacity:1;"
         offset="0"
         id="stop68218" /></linearGradient><linearGradient
       id="linearGradient67938"
       inkscape:swatch="solid"><stop
         style="stop-color:#333333;stop-opacity:1;"
         offset="0"
         id="stop67936" /></linearGradient><linearGradient
       id="linearGradient63522"
       inkscape:swatch="solid"><stop
         style="stop-color:#000000;stop-opacity:1;"
         offset="0"
         id="stop63520" /></linearGradient><linearGradient
       id="linearGradient61129"
       inkscape:swatch="solid"><stop
         style="stop-color:#333333;stop-opacity:1;"
         offset="0"
         id="stop61127" /></linearGradient><linearGradient
       id="linearGradient55835"
       inkscape:swatch="solid"><stop
         style="stop-color:#2a2a2a;stop-opacity:1;"
         offset="0"
         id="stop55833" /></linearGradient><linearGradient
       id="linearGradient45643"
       inkscape:swatch="solid"><stop
         style="stop-color:#2a2a2a;stop-opacity:1;"
         offset="0"
         id="stop45641" /></linearGradient><linearGradient
       id="linearGradient44183"
       inkscape:swatch="solid"><stop
         style="stop-color:#2a2a2a;stop-opacity:1;"
         offset="0"
         id="stop44181" /></linearGradient><linearGradient
       id="linearGradient34575"
       inkscape:swatch="solid"><stop
         style="stop-color:#2a2a2a;stop-opacity:1;"
         offset="0"
         id="stop34573" /></linearGradient><linearGradient
       id="linearGradient33465"
       inkscape:swatch="solid"><stop
         style="stop-color:#0a4dca;stop-opacity:1;"
         offset="0"
         id="stop33463" /></linearGradient><linearGradient
       id="linearGradient27597"
       inkscape:swatch="solid"><stop
         style="stop-color:#0a4dca;stop-opacity:1;"
         offset="0"
         id="stop27595" /></linearGradient><linearGradient
       id="linearGradient23233"
       inkscape:swatch="solid"><stop
         style="stop-color:#0a4dca;stop-opacity:1;"
         offset="0"
         id="stop23231" /></linearGradient><linearGradient
       id="linearGradient18869"
       inkscape:swatch="solid"><stop
         style="stop-color:#000000;stop-opacity:1;"
         offset="0"
         id="stop18867" /></linearGradient><linearGradient
       id="linearGradient16683"
       inkscape:swatch="solid"><stop
         style="stop-color:#0a4dca;stop-opacity:1;"
         offset="0"
         id="stop16681" /></linearGradient><linearGradient
       id="linearGradient10660"
       inkscape:swatch="solid"><stop
         style="stop-color:#f9fcfd;stop-opacity:1;"
         offset="0"
         id="stop10658" /></linearGradient><linearGradient
       id="linearGradient8584"
       inkscape:swatch="solid"><stop
         style="stop-color:#d0a200;stop-opacity:1;"
         offset="0"
         id="stop8582" /></linearGradient><linearGradient
       id="linearGradient8559"
       inkscape:swatch="solid"><stop
         style="stop-color:#1c1c90;stop-opacity:1;"
         offset="0"
         id="stop8557" /></linearGradient><linearGradient
       inkscape:collect="always"
       xlink:href="#linearGradient8584"
       id="linearGradient8598"
       x1="7.7550611"
       y1="32.064522"
       x2="43.449963"
       y2="32.064522"
       gradientUnits="userSpaceOnUse"
       gradientTransform="matrix(0.78711036,0,0,0.8157796,6.3114687,17.971585)" /><linearGradient
       inkscape:collect="always"
       xlink:href="#linearGradient8584"
       id="linearGradient10662"
       x1="33.714737"
       y1="37.596275"
       x2="51.209755"
       y2="37.596275"
       gradientUnits="userSpaceOnUse"
       gradientTransform="matrix(0.78711036,0,0,0.78711036,4.2244662,6.2349356)" /><linearGradient
       inkscape:collect="always"
       xlink:href="#linearGradient16683"
       id="linearGradient16685"
       x1="7.4428128"
       y1="51.363945"
       x2="16.713073"
       y2="51.363945"
       gradientUnits="userSpaceOnUse"
       gradientTransform="matrix(0.78711036,0,0,0.78711036,4.2244662,6.2349356)" /><linearGradient
       inkscape:collect="always"
       xlink:href="#linearGradient8584"
       id="linearGradient18871"
       x1="4.4187045"
       y1="43.274677"
       x2="18.297297"
       y2="43.274677"
       gradientUnits="userSpaceOnUse" /><linearGradient
       inkscape:collect="always"
       xlink:href="#linearGradient8559"
       id="linearGradient23235"
       x1="16.382483"
       y1="37.636383"
       x2="22.847452"
       y2="37.636383"
       gradientUnits="userSpaceOnUse" /><linearGradient
       inkscape:collect="always"
       xlink:href="#linearGradient68220"
       id="linearGradient27599"
       x1="16.866131"
       y1="32.204708"
       x2="34.643219"
       y2="32.204708"
       gradientUnits="userSpaceOnUse" /><linearGradient
       inkscape:collect="always"
       xlink:href="#linearGradient34575"
       id="linearGradient34577"
       x1="19.975018"
       y1="34.960172"
       x2="36.928596"
       y2="34.960172"
       gradientUnits="userSpaceOnUse"
       gradientTransform="translate(-9.6413153,4.41441)" /><linearGradient
       inkscape:collect="always"
       xlink:href="#linearGradient68220"
       id="linearGradient44185"
       x1="42.524845"
       y1="28.912012"
       x2="48.200069"
       y2="28.912012"
       gradientUnits="userSpaceOnUse"
       gradientTransform="translate(-7.6864014,10.42076)" /><linearGradient
       inkscape:collect="always"
       xlink:href="#linearGradient8584"
       id="linearGradient45645"
       x1="52.329933"
       y1="25.185875"
       x2="64.307373"
       y2="25.185875"
       gradientUnits="userSpaceOnUse" /><linearGradient
       inkscape:collect="always"
       xlink:href="#linearGradient16683"
       id="linearGradient55837"
       x1="53.64814"
       y1="36.316319"
       x2="55.386074"
       y2="36.316319"
       gradientUnits="userSpaceOnUse" /><linearGradient
       inkscape:collect="always"
       xlink:href="#linearGradient16683"
       id="linearGradient55869"
       gradientUnits="userSpaceOnUse"
       x1="53.64814"
       y1="36.316319"
       x2="55.386074"
       y2="36.316319"
       gradientTransform="translate(-0.08571643,3.5111581)" /><linearGradient
       inkscape:collect="always"
       xlink:href="#linearGradient16683"
       id="linearGradient55902"
       gradientUnits="userSpaceOnUse"
       gradientTransform="translate(-0.161564,6.9866385)"
       x1="53.64814"
       y1="36.316319"
       x2="55.386074"
       y2="36.316319" /><linearGradient
       inkscape:collect="always"
       xlink:href="#linearGradient61129"
       id="linearGradient61131"
       x1="25.405638"
       y1="25.866354"
       x2="28.794277"
       y2="25.866354"
       gradientUnits="userSpaceOnUse" /><linearGradient
       inkscape:collect="always"
       xlink:href="#linearGradient8559"
       id="linearGradient63524"
       x1="15.935947"
       y1="28.607973"
       x2="19.69467"
       y2="28.607973"
       gradientUnits="userSpaceOnUse" /><linearGradient
       inkscape:collect="always"
       xlink:href="#linearGradient68220"
       id="linearGradient68366"
       x1="-0.94832158"
       y1="25.340681"
       x2="10.745319"
       y2="25.340681"
       gradientUnits="userSpaceOnUse"
       gradientTransform="translate(-1.4924211,5.6757611)" /><linearGradient
       inkscape:collect="always"
       xlink:href="#linearGradient8584"
       id="linearGradient76104"
       x1="12.908672"
       y1="30.481134"
       x2="16.391001"
       y2="30.481134"
       gradientUnits="userSpaceOnUse"
       gradientTransform="translate(-0.07678627,-0.14929954)" /></defs><g
     inkscape:label="Layer 1"
     inkscape:groupmode="layer"
     id="layer1"><rect
       style="fill:#2a2a2a;fill-opacity:1;stroke:none;stroke-width:2.965;stroke-dasharray:none;stroke-opacity:1;paint-order:stroke fill markers;stop-color:#000000"
       id="rect41238-6"
       width="20.176304"
       height="2.5392556"
       x="26.72859"
       y="41.773376"
       transform="rotate(-14.777916)" /><rect
       style="fill:url(#linearGradient34577);fill-opacity:1;stroke:none;stroke-width:2.965;stroke-dasharray:none;stroke-opacity:1;paint-order:stroke fill markers;stop-color:#000000"
       id="rect32735"
       width="16.953579"
       height="9.5845776"
       x="10.333703"
       y="34.582294"
       rx="0"
       ry="0"
       transform="rotate(-15.515596)" /><path
       style="fill:none;stroke:url(#linearGradient18871);stroke-width:2.965;stroke-linecap:butt;stroke-linejoin:miter;stroke-dasharray:none;stroke-opacity:1"
       d="m 13.486511,47.571973 c 0,0 -3.444763,1.115856 -5.1341459,0.271447 -1.073749,-0.536695 -2.7068365,-2.027323 -2.6227022,-3.224778 0.082749,-1.17774 1.52569,-2.247178 2.3138603,-3.11312 1.8731841,-2.058019 6.8962508,-3.109627 6.8962508,-3.109627 l 5.648372,-1.07301"
       id="path18139"
       sodipodi:nodetypes="cssscc" /><path
       style="fill:url(#linearGradient23235);stroke:none;stroke-width:0.264583px;stroke-linecap:butt;stroke-linejoin:miter;stroke-opacity:1;fill-opacity:1"
       d="m 19.401391,35.230337 -2.863,1.200324 1.045247,4.177176 5.115258,-1.24015 -0.69634,-4.702937 z"
       id="path22503" /><path
       style="fill:url(#linearGradient10662);fill-opacity:1;stroke:none;stroke-width:0.264583px;stroke-linecap:butt;stroke-linejoin:miter;stroke-opacity:1"
       d="m 33.233476,33.622302 c 0,0 -0.420829,0.820182 -0.701895,1.182143 -0.381178,0.490889 -1.317482,1.319345 -1.317482,1.319345 l 2.043259,-0.401244 3.876068,-0.403889 3.965337,3.332012 0.932431,0.07011 2.305088,-0.679709 -0.470325,-0.846076 c 0,0 -1.163539,-1.460908 -1.812073,-2.130769 -0.365087,-0.377093 -0.967603,-1.06354 -1.550255,-1.374251 -0.532547,-0.28399 -1.402975,-0.646063 -2.122629,-0.726552 -0.67854,-0.07589 -1.72592,0.0028 -2.402006,0.09815 -0.924919,0.130389 -2.745518,0.56073 -2.745518,0.56073 z"
       id="path8478"
       sodipodi:nodetypes="cscccccccssssc" /><path
       style="fill:none;stroke:url(#linearGradient63524);stroke-width:2.3;stroke-dasharray:none"
       d="m 19.694669,29.810022 c 0,0 -0.23794,-1.633318 -0.839899,-2.073447 -0.787716,-0.575948 -2.918823,-0.224452 -2.918823,-0.224452"
       id="path62066"
       sodipodi:nodetypes="csc" /><path
       style="fill:url(#linearGradient27599);fill-opacity:1.0;stroke:none;stroke-width:0.264583px;stroke-linecap:butt;stroke-linejoin:miter;stroke-opacity:1"
       d="m 16.86613,30.392124 2.31355,4.522639 2.193805,3.693848 7.76563,-0.896377 2.273551,-1.389083 c 0,0 1.275294,-1.201828 1.735093,-1.908903 0.423472,-0.651212 0.635376,-2.39599 0.635376,-2.39599 l 0.548989,-1.879722 0.311094,-2.888895 -0.269092,-1.448835 -3.115463,0.767922 -0.11517,1.734627 c 0,0 0.03015,1.80245 -0.151633,2.677805 -0.124839,0.60114 -0.288677,1.222549 -0.636691,1.728356 -0.350822,0.509887 -0.865307,0.90673 -1.397825,1.222145 -0.65723,0.389283 -1.389892,0.733979 -2.151843,0.788035 -0.681146,0.04832 -1.422126,-0.06817 -2.003827,-0.425834 -0.438268,-0.269469 -0.687371,-0.771008 -0.967696,-1.202414 -0.587687,-0.90442 -1.479273,-2.877831 -1.479273,-2.877831 L 21.78044,29.150421 Z"
       id="path27593"
       sodipodi:nodetypes="cccccsccccccssssssccc" /><rect
       style="display:inline;fill:#d2d7d3;fill-opacity:1;stroke:none;stroke-width:0.208583"
       id="rect408"
       width="27.119083"
       height="12.159956"
       x="4.2768974"
       y="42.551258"
       transform="rotate(-14.306086)"
       ry="5.9648724"
       rx="6.3205252"
       inkscape:label="container" /><path
       style="fill:url(#linearGradient8598);fill-opacity:1;stroke:none;stroke-width:0.212014px;stroke-linecap:butt;stroke-linejoin:miter;stroke-opacity:1"
       d="m 15.788695,47.09261 c 0,0 0.644541,1.800968 1.124562,2.477519 0.530162,0.782175 1.282613,1.473443 2.145633,1.810588 0.849089,0.331702 2.720287,0.106013 2.720287,0.106013 l 1.57743,-0.979056 c 0,0 0.777307,-0.662704 0.997302,-1.115436 0.342754,-0.705358 0.448655,-1.539249 0.422169,-2.328534 -0.03581,-1.067271 -0.610715,-2.046619 -0.780536,-3.099931 -0.07319,-0.453987 -0.146192,-0.918983 -0.100983,-1.376874 0.03629,-0.367602 0.112526,-0.748239 0.295401,-1.06545 0.218908,-0.379714 0.547343,-0.704378 0.916114,-0.92704 0.487055,-0.29408 1.061397,-0.514746 1.624439,-0.487006 0.510438,0.02515 0.999875,0.291378 1.425617,0.584301 1.278366,0.879555 2.120937,2.299759 3.221871,3.407505 0.776673,0.781485 1.41735,1.782053 2.385669,2.283551 0.887191,0.45948 1.934898,0.552584 2.926688,0.555561 0.530166,0.0017 1.56613,-0.287585 1.56613,-0.287585 l 2.070194,-0.79613 0.184704,-0.122591 -0.546995,-0.338779 -1.407377,0.515657 -1.80334,-0.366033 -1.439602,-0.588389 c 0,0 -0.750517,-0.73674 -1.574685,-1.71655 -0.938094,-1.11524 -1.387856,-2.533529 -2.293789,-3.635914 -0.566751,-0.689656 -1.181961,-1.376359 -1.938388,-1.830275 -0.672557,-0.403586 -1.190132,-0.749586 -2.219777,-0.738915 -0.924247,0.0096 -2.513041,0.244837 -3.330991,0.690949 -0.632563,0.345003 -1.120739,0.682025 -1.73131,1.311418 -0.626617,0.64593 -0.813988,1.322876 -1.04926,1.929224 -0.269242,0.693894 -0.277488,1.169904 -0.28299,1.766904 -0.0083,0.90078 0.203625,1.791396 0.377776,2.673949 0.132997,0.673996 0.426532,1.312777 0.508216,1.995494 0.05588,0.46708 0.199729,0.997404 -0.01543,1.411882 -0.168242,0.324101 -0.545908,0.500791 -0.882257,0.618796 -0.341757,0.119904 -0.720934,0.09448 -1.080611,0.06489 -0.41845,-0.03443 -0.898433,-0.01324 -1.229958,-0.280093 -0.519135,-0.417869 -0.665868,-1.080136 -1.138176,-1.553933 -0.539091,-0.54079 -0.863631,-1.203337 -0.863631,-1.203337 z"
       id="path1701"
       inkscape:label="yellow wrapping"
       sodipodi:nodetypes="ccsccssssssssssscccccccssssssssssssssscc" /><path
       style="fill:url(#linearGradient16685);fill-opacity:1;stroke:none;stroke-width:0.264583px;stroke-linecap:butt;stroke-linejoin:miter;stroke-opacity:1"
       d="m 15.470965,43.428266 1.736568,6.41581 -5.946857,0.114998 -1.022546,-3.794839 z"
       id="path15746" /><rect
       style="fill:#2a2a2a;fill-opacity:1;stroke:none;stroke-width:2.965;stroke-dasharray:none;stroke-opacity:1;paint-order:stroke fill markers;stop-color:#000000"
       id="rect41238"
       width="20.176304"
       height="2.5392556"
       x="26.921476"
       y="34.905609"
       transform="rotate(-14.777916)" /><rect
       style="fill:url(#linearGradient55837);fill-opacity:1;stroke:none;stroke-width:2.965;stroke-dasharray:none;stroke-opacity:1;paint-order:stroke fill markers;stop-color:#000000"
       id="rect41238-7"
       width="1.614729"
       height="3.1991093"
       x="53.64814"
       y="34.550713"
       transform="rotate(-14.777916)" /><rect
       style="fill:url(#linearGradient55869);fill-opacity:1;stroke:none;stroke-width:2.965;stroke-dasharray:none;stroke-opacity:1;paint-order:stroke fill markers;stop-color:#000000"
       id="rect41238-7-3"
       width="1.7293999"
       height="2.9386914"
       x="53.562424"
       y="38.061871"
       transform="rotate(-14.777916)" /><rect
       style="fill:url(#linearGradient55902);fill-opacity:1;stroke:none;stroke-width:2.965;stroke-dasharray:none;stroke-opacity:1;paint-order:stroke fill markers;stop-color:#000000"
       id="rect41238-7-3-6"
       width="1.7293999"
       height="2.9386914"
       x="53.486576"
       y="41.537354"
       transform="rotate(-14.777916)" /><rect
       style="fill:#2a2a2a;fill-opacity:1;stroke:none;stroke-width:2.965;stroke-dasharray:none;stroke-opacity:1;paint-order:stroke fill markers;stop-color:#000000"
       id="rect41238-3"
       width="20.176304"
       height="2.5392556"
       x="26.708185"
       y="38.235409"
       transform="rotate(-14.777916)" /><rect
       style="fill:url(#linearGradient44185);fill-opacity:1.0;stroke:none;stroke-width:2.965;stroke-dasharray:none;stroke-opacity:1;paint-order:stroke fill markers;stop-color:#000000"
       id="rect44179"
       width="5.6752253"
       height="12.271858"
       x="34.838444"
       y="33.196842"
       transform="rotate(-14.057153)" /><path
       style="fill:url(#linearGradient45645);stroke:none;stroke-width:0.264583px;stroke-linecap:butt;stroke-linejoin:miter;stroke-opacity:1;fill-opacity:1"
       d="m 57.092503,19.127203 -2.836133,0.830545 -1.77238,1.023283 3.080607,11.496983 2.533087,0.335023 2.646172,-0.709038 0.07612,0.724149 3.324794,-0.913874 -3.949642,-14.377553 -3.308662,0.891955 z"
       id="path45639" /><path
       style="fill:url(#linearGradient61131);fill-opacity:1;stroke:none;stroke-width:0.264583px;stroke-linecap:butt;stroke-linejoin:miter;stroke-opacity:1"
       d="m 26.703231,28.606377 -1.155628,-4.31286 c 0,0 0.234392,-1.02664 0.658312,-1.140229 0.468315,-0.125485 1.259639,0.727252 1.259639,0.727252 l 1.164333,4.345353 z"
       id="path60987"
       sodipodi:nodetypes="ccsccc" /><path
       style="fill:url(#linearGradient76104);fill-opacity:1;stroke:none;stroke-width:0.264583px;stroke-linecap:butt;stroke-linejoin:miter;stroke-opacity:1"
       d="m 16.049155,29.186194 c -0.07523,0.04519 -3.057105,0.809535 -3.057105,0.809535 l 0.37411,1.500103 2.803438,-1.504818 z"
       id="path76098" /><path
       id="rect66482"
       style="fill:url(#linearGradient68366);stroke-width:2.3;paint-order:stroke fill markers;stop-color:#000000"
       transform="rotate(-13.614597)"
       d="M -2.4407427,29.382805 9.3331322,29.083112 9.5190113,32.24948 -2.1457663,32.646465 Z"
       sodipodi:nodetypes="ccccc" /><g
       id="g76096"
       transform="translate(0.04151618,-0.06143931)"><path
         id="path70164"
         style="fill:#868686;fill-opacity:1;stroke-width:2.3;stroke-dasharray:none;paint-order:stroke fill markers;stop-color:#000000"
         d="m 8.1882129,29.818294 a 2.0405047,2.0405047 0 0 0 -2.040702,2.040185 2.0405047,2.0405047 0 0 0 2.040702,2.040703 2.0405047,2.0405047 0 0 0 2.0401861,-2.040703 2.0405047,2.0405047 0 0 0 -2.0401861,-2.040185 z m 0,0.604614 a 1.4357353,1.4357353 0 0 1 1.435571,1.435571 1.4357353,1.4357353 0 0 1 -1.435571,1.435572 1.4357353,1.4357353 0 0 1 -1.436088,-1.435572 1.4357353,1.4357353 0 0 1 1.436088,-1.435571 z" /><circle
         style="fill:#979797;fill-opacity:1;stroke-width:2.3;stroke-dasharray:none;paint-order:stroke fill markers;stop-color:#000000"
         id="path71739"
         cx="7.9440079"
         cy="30.168076"
         r="0.62185693" /></g></g></svg>
