<?xml version="1.0" encoding="UTF-8" standalone="no"?>
<!-- Created with Inkscape (http://www.inkscape.org/) -->

<svg
   width="256"
   height="256"
   viewBox="0 0 67.733335 67.733333"
   version="1.1"
   id="svg5"
   xml:space="preserve"
   inkscape:version="1.2.1 (9c6d41e410, 2022-07-14, custom)"
   sodipodi:docname="nzap.svg"
   inkscape:export-filename="nzap.png"
   inkscape:export-xdpi="96"
   inkscape:export-ydpi="96"
   xmlns:inkscape="http://www.inkscape.org/namespaces/inkscape"
   xmlns:sodipodi="http://sodipodi.sourceforge.net/DTD/sodipodi-0.dtd"
   xmlns:xlink="http://www.w3.org/1999/xlink"
   xmlns="http://www.w3.org/2000/svg"
   xmlns:svg="http://www.w3.org/2000/svg"><sodipodi:namedview
     id="namedview7"
     pagecolor="#ffffff"
     bordercolor="#666666"
     borderopacity="1.0"
     inkscape:showpageshadow="2"
     inkscape:pageopacity="0.0"
     inkscape:pagecheckerboard="0"
     inkscape:deskcolor="#d1d1d1"
     inkscape:document-units="mm"
     showgrid="false"
     inkscape:zoom="4.3022904"
     inkscape:cx="113.0793"
     inkscape:cy="134.46326"
     inkscape:window-width="1916"
     inkscape:window-height="1036"
     inkscape:window-x="0"
     inkscape:window-y="20"
     inkscape:window-maximized="1"
     inkscape:current-layer="layer1" /><defs
     id="defs2"><linearGradient
       id="linearGradient7464"
       inkscape:swatch="solid"><stop
         style="stop-color:#c43f29;stop-opacity:1;"
         offset="0"
         id="stop7462" /></linearGradient><linearGradient
       id="linearGradient7458"
       inkscape:swatch="solid"><stop
         style="stop-color:#b1b0a9;stop-opacity:1;"
         offset="0"
         id="stop7456" /></linearGradient><linearGradient
       id="linearGradient7452"
       inkscape:swatch="solid"><stop
         style="stop-color:#8b8b86;stop-opacity:1;"
         offset="0"
         id="stop7450" /></linearGradient><linearGradient
       id="linearGradient7446"
       inkscape:swatch="solid"><stop
         style="stop-color:#2d2d2d;stop-opacity:1;"
         offset="0"
         id="stop7444" /></linearGradient><linearGradient
       id="linearGradient7436"
       inkscape:swatch="solid"><stop
         style="stop-color:#484648;stop-opacity:1;"
         offset="0"
         id="stop7434" /></linearGradient><linearGradient
       id="linearGradient7424"
       inkscape:swatch="solid"><stop
         style="stop-color:#464546;stop-opacity:1;"
         offset="0"
         id="stop7422" /></linearGradient><linearGradient
       id="linearGradient7418"
       inkscape:swatch="solid"><stop
         style="stop-color:#4a494a;stop-opacity:1;"
         offset="0"
         id="stop7416" /></linearGradient><linearGradient
       id="linearGradient7412"
       inkscape:swatch="solid"><stop
         style="stop-color:#444344;stop-opacity:1;"
         offset="0"
         id="stop7410" /></linearGradient><linearGradient
       id="linearGradient7210"
       inkscape:swatch="solid"><stop
         style="stop-color:#393939;stop-opacity:1;"
         offset="0"
         id="stop7208" /></linearGradient><linearGradient
       id="linearGradient7204"
       inkscape:swatch="solid"><stop
         style="stop-color:#000000;stop-opacity:1;"
         offset="0"
         id="stop7202" /></linearGradient><linearGradient
       id="linearGradient7198"
       inkscape:swatch="solid"><stop
         style="stop-color:#000000;stop-opacity:1;"
         offset="0"
         id="stop7196" /></linearGradient><linearGradient
       id="linearGradient7192"
       inkscape:swatch="solid"><stop
         style="stop-color:#000000;stop-opacity:1;"
         offset="0"
         id="stop7190" /></linearGradient><linearGradient
       id="linearGradient7186"
       inkscape:swatch="solid"><stop
         style="stop-color:#000000;stop-opacity:1;"
         offset="0"
         id="stop7184" /></linearGradient><linearGradient
       id="linearGradient7180"
       inkscape:swatch="solid"><stop
         style="stop-color:#323232;stop-opacity:1;"
         offset="0"
         id="stop7178" /></linearGradient><linearGradient
       id="linearGradient1093"
       inkscape:swatch="solid"><stop
         style="stop-color:#92958a;stop-opacity:1;"
         offset="0"
         id="stop1091" /></linearGradient><linearGradient
       inkscape:collect="always"
       xlink:href="#linearGradient1093"
       id="linearGradient7182"
       x1="20.47249"
       y1="31.703514"
       x2="22.632128"
       y2="31.703514"
       gradientUnits="userSpaceOnUse" /><linearGradient
       inkscape:collect="always"
       xlink:href="#linearGradient1093"
       id="linearGradient7188"
       x1="21.731583"
       y1="31.392181"
       x2="23.884628"
       y2="31.392181"
       gradientUnits="userSpaceOnUse" /><linearGradient
       inkscape:collect="always"
       xlink:href="#linearGradient1093"
       id="linearGradient7194"
       x1="22.944023"
       y1="31.070763"
       x2="25.299402"
       y2="31.070763"
       gradientUnits="userSpaceOnUse" /><linearGradient
       inkscape:collect="always"
       xlink:href="#linearGradient1093"
       id="linearGradient7200"
       x1="24.360306"
       y1="30.717188"
       x2="26.505449"
       y2="30.717188"
       gradientUnits="userSpaceOnUse" /><linearGradient
       inkscape:collect="always"
       xlink:href="#linearGradient1093"
       id="linearGradient7206"
       x1="25.500923"
       y1="30.411978"
       x2="27.670145"
       y2="30.411978"
       gradientUnits="userSpaceOnUse" /><linearGradient
       inkscape:collect="always"
       xlink:href="#linearGradient7210"
       id="linearGradient7214"
       x1="12.043492"
       y1="53.304702"
       x2="18.327369"
       y2="53.304702"
       gradientUnits="userSpaceOnUse" /><linearGradient
       inkscape:collect="always"
       xlink:href="#linearGradient7210"
       id="linearGradient7216"
       x1="11.991926"
       y1="52.587955"
       x2="18.495829"
       y2="52.587955"
       gradientUnits="userSpaceOnUse" /><linearGradient
       inkscape:collect="always"
       xlink:href="#linearGradient7436"
       id="linearGradient7442"
       x1="26.088864"
       y1="26.834658"
       x2="58.862753"
       y2="26.834658"
       gradientUnits="userSpaceOnUse" /><linearGradient
       inkscape:collect="always"
       xlink:href="#linearGradient7446"
       id="linearGradient7448"
       x1="39.861254"
       y1="28.402006"
       x2="56.956948"
       y2="28.402006"
       gradientUnits="userSpaceOnUse" /><linearGradient
       inkscape:collect="always"
       xlink:href="#linearGradient7452"
       id="linearGradient7454"
       x1="5.7452193"
       y1="34.052784"
       x2="41.042947"
       y2="34.052784"
       gradientUnits="userSpaceOnUse" /><linearGradient
       inkscape:collect="always"
       xlink:href="#linearGradient7458"
       id="linearGradient7460"
       x1="5.6498293"
       y1="33.315157"
       x2="28.658929"
       y2="33.315157"
       gradientUnits="userSpaceOnUse" /><linearGradient
       inkscape:collect="always"
       xlink:href="#linearGradient7464"
       id="linearGradient7468"
       x1="22.318268"
       y1="38.683561"
       x2="23.70915"
       y2="38.683561"
       gradientUnits="userSpaceOnUse" /></defs><g
     inkscape:label="Layer 1"
     inkscape:groupmode="layer"
     id="layer1"><path
       style="fill:url(#linearGradient7468);fill-opacity:1;stroke:none;stroke-width:0.264583px;stroke-linecap:butt;stroke-linejoin:miter;stroke-opacity:1"
       d="m 23.70915,37.483584 -0.351692,2.432717 -1.03919,-0.06896 0.498189,-2.396519 z"
       id="path507" /><path
       style="fill:url(#linearGradient7448);fill-opacity:1;stroke:none;stroke-width:0.264583px;stroke-linecap:butt;stroke-linejoin:miter;stroke-opacity:1"
       d="m 40.293961,30.073466 -0.432707,1.270025 16.675272,-4.611928 0.420422,-1.271041 z"
       id="path358"
       sodipodi:nodetypes="ccccc" /><path
       style="fill:url(#linearGradient7442);fill-opacity:1;stroke:none;stroke-width:0.264583px;stroke-linecap:butt;stroke-linejoin:miter;stroke-opacity:1"
       d="M 21.437451,36.388477 9.1498291,39.680782 c 0,0 4.8643619,-0.008 5.8146319,1.662431 0.376168,0.661233 -0.453021,2.887837 -2.163692,5.278231 -1.502901,2.100071 -1.302763,5.049821 -1.302763,5.049821 l 0.152962,4.407999 c 0,0 2.600792,-0.548897 3.822506,-1.052649 1.831909,-0.755354 5.177979,-2.919718 5.177979,-2.919718 l -0.767395,-1.121379 3.113505,-13.309265 z"
       id="path2598" /><path
       style="fill:url(#linearGradient7442);fill-opacity:1;stroke:none;stroke-width:0.264583px;stroke-linecap:butt;stroke-linejoin:miter;stroke-opacity:1"
       d="M 19.425171,30.124259 11.810649,32.349447 9.7430745,31.611507 6.9458293,35.103284 21.068481,31.489551 Z"
       id="path2596" /><path
       style="fill:url(#linearGradient7442);fill-opacity:1;stroke:none;stroke-width:0.264583px;stroke-linecap:butt;stroke-linejoin:miter;stroke-opacity:1"
       d="m 53.67321,20.520194 -2.935222,2.44688 -24.649141,6.19497 2.485636,2.295467 1.765784,1.69137 10.3172,-3.073714 18.20509,-5.07721 -4.209045,-4.126363 z"
       id="path356" /><path
       style="fill:url(#linearGradient7454);stroke:none;stroke-width:0.264583px;stroke-linecap:butt;stroke-linejoin:miter;stroke-opacity:1;fill-opacity:1"
       d="m 40.10979,32.488899 0.933157,-4.413253 -35.2977277,9.457997 2.1024842,2.496278 13.5894915,-3.641294 1.560212,1.287666 z"
       id="path360" /><path
       style="fill:url(#linearGradient7460);fill-opacity:1;stroke:none;stroke-width:0.264583px;stroke-linecap:butt;stroke-linejoin:miter;stroke-opacity:1"
       d="m 5.6498293,37.589764 0.2357306,-2.254195 14.9442171,-3.893306 -0.775921,-0.768535 6.095101,-1.633178 2.509972,2.394766 z"
       id="path362"
       sodipodi:nodetypes="ccccccc" /><path
       id="path3091"
       style="fill:none;stroke:url(#linearGradient7216);stroke-width:0.264583px;stroke-linecap:butt;stroke-linejoin:miter;stroke-opacity:1"
       d="m 18.462684,51.754931 -6.437613,1.666049 m 6.528237,-2.484368 -6.730595,1.818341 m 6.826326,-2.495553 -6.60276,1.762342 m 6.834877,-2.527493 -6.822886,1.81374 m 6.913741,-2.535116 -6.833276,1.918711 m 7.116413,-2.753051 -6.96838,1.813608 m 7.097407,-2.451965 -6.734425,1.578009 m 6.855255,-2.419355 -6.645772,1.739439 m 6.780591,-2.422823 -6.41467,1.661382 m 0.884441,-0.874416 5.671361,-1.449359 m 0.237063,-0.746257 -5.388995,1.323261 m 1.01487,-1.122228 4.45639,-0.933709 m 0.277253,-0.824484 -4.03927,0.97459 m 4.183976,-1.901714 -3.05172,0.869273 m 1.301368,-1.095756 1.754148,-0.251196 m -0.564204,-0.562874 c -1.03896,0.617297 -1.99949,1.383346 -2.846689,2.245174 -1.897014,1.929769 -3.283519,3.243074 -4.333829,5.256483 -0.627664,1.705271 -1.011173,3.43405 -0.764028,5.219446 l 0.256528,1.18011 5.993987,-2.139881 0.704528,-3.707226 1.486492,-6.719991 c 0,0 0.299768,-1.807508 -0.496989,-1.334115 z" /><path
       style="fill:none;stroke:url(#linearGradient7214);stroke-width:0.264583px;stroke-linecap:butt;stroke-linejoin:miter;stroke-opacity:1"
       d="m 12.079615,54.186274 6.211631,-1.763143"
       id="path3093" /><path
       style="fill:none;stroke:url(#linearGradient7182);stroke-width:0.264583px;stroke-linecap:butt;stroke-linejoin:miter;stroke-opacity:1"
       d="m 20.575996,30.476963 1.952627,2.453102"
       id="path5717"
       sodipodi:nodetypes="cc" /><path
       style="fill:none;stroke:url(#linearGradient7188);stroke-width:0.264583px;stroke-linecap:butt;stroke-linejoin:miter;stroke-opacity:1"
       d="m 21.835444,30.159251 1.945323,2.465862"
       id="path5719"
       sodipodi:nodetypes="cc" /><path
       style="fill:none;stroke:url(#linearGradient7194);stroke-width:0.264583px;stroke-linecap:butt;stroke-linejoin:miter;stroke-opacity:1"
       d="m 23.043515,29.840488 2.156396,2.460551"
       id="path5721"
       sodipodi:nodetypes="cc" /><path
       style="fill:none;stroke:url(#linearGradient7200);stroke-width:0.264583px;stroke-linecap:butt;stroke-linejoin:miter;stroke-opacity:1"
       d="m 24.465878,29.436599 1.933999,2.561175"
       id="path5723" /><path
       style="fill:none;stroke:url(#linearGradient7206);stroke-width:0.264583px;stroke-linecap:butt;stroke-linejoin:miter;stroke-opacity:1"
       d="m 25.604583,29.174818 1.961902,2.47432"
       id="path5725" /><g
       transform="matrix(0.17265962,-0.05081717,0.05081717,0.17265962,-164.16022,-29.496607)"
       id="layer1-6"><path
         d="m 846.31776,631.42023 c 0.26104,0 0.39064,0.0884 0.39064,0.26349 0,0.12038 -0.0749,0.21129 -0.19962,0.24261 l 0.20453,0.40844 h -0.24752 l -0.17504,-0.37466 h -0.10872 v 0.37466 h -0.22295 v -0.91454 z m -0.0203,-0.35747 c -0.45574,0 -0.82549,0.36975 -0.82549,0.82549 0,0.45574 0.36975,0.82549 0.82549,0.82549 0.45573,0 0.82548,-0.36975 0.82548,-0.82549 0,-0.45574 -0.36975,-0.82549 -0.82548,-0.82549 z m 0.66764,0.8261 c 0,0.36852 -0.29912,0.66764 -0.66764,0.66764 -0.36852,0 -0.66764,-0.29912 -0.66764,-0.66764 0,-0.36852 0.29912,-0.66763 0.66764,-0.66763 0.36852,0 0.66764,0.2985 0.66764,0.66763 z m -0.78311,-0.0626 h 0.10872 c 0.12713,0 0.18855,-0.0387 0.18855,-0.12959 0,-0.0952 -0.0657,-0.13635 -0.19961,-0.13635 h -0.0977 z m -18.65698,2.23508 c -0.002,-0.31262 0.004,-0.52145 0.10687,-0.69957 0.12591,-0.21988 0.35747,-0.3243 0.56752,-0.32553 h -6.3e-4 c 0.21006,10e-4 0.44161,0.10565 0.56752,0.32553 0.10258,0.17873 0.10687,0.38756 0.10442,0.70019 z m 1.34019,1.07547 c 0,0 0.001,0.016 0.001,0.2162 0,0.65228 -0.42933,0.79723 -0.66764,0.79723 -0.23831,0 -0.67501,-0.14495 -0.67501,-0.79723 0,-0.19532 10e-4,-0.73643 10e-4,-0.73643 0,0 3.03845,10e-4 3.03845,-6.3e-4 0,-1.10618 -1.06809,-2.02256 -2.38003,-2.02256 -1.31193,0 -2.37511,0.89673 -2.37511,2.00291 0,1.10617 1.06318,2.00229 2.37511,2.00229 1.08837,0 2.00783,-0.62096 2.28852,-1.46303 z m 5.07514,-2.48383 c 0.60315,-0.0172 1.82664,0.37774 1.81804,1.78978 -10e-4,0.2506 -6.3e-4,1.94088 -6.3e-4,1.94088 h -1.60245 v -2.34256 c 0,-0.31079 -0.29728,-0.65658 -0.73705,-0.65658 -0.43915,0 -0.7659,0.34579 -0.7659,0.65658 0,0.15232 0.002,2.34256 0.002,2.34256 h -1.60122 l 10e-4,-3.56667 1.60061,-10e-4 c 0,0 -0.002,0.28684 0,0.37528 0.30833,-0.2942 0.75301,-0.52268 1.28553,-0.53804 z m -13.10828,0 c 0.60315,-0.0172 1.82663,0.37774 1.81804,1.78978 -10e-4,0.2506 -6.4e-4,1.94088 -6.4e-4,1.94088 h -1.60245 v -2.34256 c 0,-0.31079 -0.29727,-0.65658 -0.73704,-0.65658 -0.43915,0 -0.76591,0.34579 -0.76591,0.65658 0,0.15232 0.002,2.34256 0.002,2.34256 h -1.60122 l -6.3e-4,-3.56667 1.60245,-10e-4 c 0,0 -0.002,0.28684 0,0.37528 0.30833,-0.2942 0.7524,-0.52268 1.28552,-0.53804 z m 18.40269,-1.63193 h 1.59202 v 5.36382 h -1.59447 c 0,0 -9.1e-4,-0.17321 -9.1e-4,-0.20637 -0.61726,0.38756 -1.31377,0.38694 -1.85611,0.13389 -0.14556,-0.0676 -1.1031,-0.52698 -1.1031,-1.76828 0,-0.94157 0.88813,-1.96975 2.05082,-1.86779 0.38264,0.0338 0.65473,0.17321 0.91269,0.31816 -10e-4,-0.82549 -10e-4,-1.97343 -10e-4,-1.97343 z m 0.0117,3.56237 v -0.63755 c 0,-0.55155 -0.38081,-0.6922 -0.6314,-0.6922 -0.25674,0 -0.63263,0.14065 -0.63263,0.6922 0,0.18304 6.3e-4,0.6357 6.3e-4,0.6357 0,0 -6.3e-4,0.44468 -6.3e-4,0.63447 0,0.55094 0.37589,0.69528 0.63202,0.69528 0.2512,0 0.63262,-0.14434 0.63262,-0.69528 0,-0.22909 -9e-4,-0.63262 -9e-4,-0.63262 z m 5.11077,-0.0104 c 0,0 -9.1e-4,0.53927 -9.1e-4,0.75547 0,0.56875 -0.33596,0.80338 -0.65903,0.80338 -0.32369,0 -0.66089,-0.23463 -0.66089,-0.80338 0,-0.2162 9e-4,-0.76898 9e-4,-0.76898 0,0 10e-4,-0.5276 10e-4,-0.7438 0,-0.56629 0.33781,-0.79907 0.65904,-0.79907 0.32184,0 0.65904,0.23278 0.65904,0.79907 0,0.2162 -9.1e-4,0.61605 10e-4,0.75916 z m -0.64798,-1.99861 c -1.30211,0 -2.35731,0.89674 -2.35731,2.00291 0,1.10618 1.05581,2.00291 2.35731,2.00291 1.3021,0 2.3573,-0.89673 2.3573,-2.00291 0,-1.10617 -1.0552,-2.00291 -2.3573,-2.00291 z m -28.26985,-0.45819 v -1.09635 h 1.61658 v 1.09635 z m 0.004,4.2687 v -3.56728 l 1.61289,6.3e-4 v 3.56667 z m 8.0921,0 6.3e-4,-3.55991 h -0.87708 v -0.52944 l 0.8777,-6.4e-4 -10e-4,-0.7223 h 1.61412 v 0.72169 h 0.87339 v 0.53067 h -0.87339 l 10e-4,3.55991 z m -14.65607,0 6.3e-4,-5.36382 h 1.67124 l 2.31186,3.74048 -10e-4,-3.74048 h 1.65834 v 5.36382 h -1.65589 l -2.32413,-3.74049 v 3.74049 z"
         style="fill:#ff1a1a;fill-opacity:1;stroke-width:0.0903332"
         id="path29"
         sodipodi:nodetypes="ssccccccccssssssssssscsssccccccccccssscssssccscccssscccccssscccssscccccssccccccscccccssscssscccssscsssccssssscccccccccccccccccccccccccccccccccc" /></g></g><style
     type="text/css"
     id="style7">.logo{fill:#939598}</style></svg>
