<?xml version="1.0" encoding="UTF-8" standalone="no"?>
<!-- Created with Inkscape (http://www.inkscape.org/) -->

<svg
   width="256"
   height="256"
   viewBox="0 0 67.733332 67.733333"
   version="1.1"
   id="svg5"
   xml:space="preserve"
   inkscape:version="1.2.1 (9c6d41e410, 2022-07-14, custom)"
   sodipodi:docname="rapidpro.svg"
   xmlns:inkscape="http://www.inkscape.org/namespaces/inkscape"
   xmlns:sodipodi="http://sodipodi.sourceforge.net/DTD/sodipodi-0.dtd"
   xmlns="http://www.w3.org/2000/svg"
   xmlns:svg="http://www.w3.org/2000/svg"><sodipodi:namedview
     id="namedview7"
     pagecolor="#505050"
     bordercolor="#eeeeee"
     borderopacity="1"
     inkscape:showpageshadow="0"
     inkscape:pageopacity="0"
     inkscape:pagecheckerboard="0"
     inkscape:deskcolor="#505050"
     inkscape:document-units="mm"
     showgrid="false"
     inkscape:zoom="4.1857153"
     inkscape:cx="72.0307"
     inkscape:cy="213.46411"
     inkscape:window-width="1916"
     inkscape:window-height="1036"
     inkscape:window-x="0"
     inkscape:window-y="20"
     inkscape:window-maximized="1"
     inkscape:current-layer="layer1" /><defs
     id="defs2" /><g
     inkscape:label="Layer 1"
     inkscape:groupmode="layer"
     id="layer1"><rect
       style="fill:#c5004a;fill-opacity:1;stroke:none;stroke-width:0.665001;stroke-linecap:round;paint-order:stroke fill markers"
       id="rect146781"
       width="3.3804533"
       height="3.3804533"
       x="0.65531147"
       y="45.637192"
       transform="rotate(-15)" /><path
       style="fill:#960034;stroke:none;stroke-width:0.264583px;stroke-linecap:butt;stroke-linejoin:miter;stroke-opacity:1;fill-opacity:1"
       d="m 44.145623,32.625151 -2.342184,2.240968 1.942867,2.354493 z"
       id="path140275" /><rect
       style="fill:#d46634;fill-opacity:1;stroke:none;stroke-width:0.665001;stroke-linecap:round;paint-order:stroke fill markers"
       id="rect147432"
       width="1.9398041"
       height="2.2182746"
       x="50.278194"
       y="41.27433"
       transform="rotate(-15)" /><rect
       style="fill:#1b1b1b;fill-opacity:1;stroke:none;stroke-width:0.665001;stroke-linecap:round;paint-order:stroke fill markers"
       id="rect150187"
       width="3.7053254"
       height="1.5962868"
       x="17.358328"
       y="41.850647"
       ry="0.79814339"
       transform="rotate(-27.428704)" /><rect
       style="fill:#1b1b1b;fill-opacity:1;stroke:none;stroke-width:0.665001;stroke-linecap:round;paint-order:stroke fill markers"
       id="rect150327"
       width="3.8107178"
       height="2.8955724"
       x="31.06451"
       y="37.196659"
       ry="0"
       transform="rotate(-10.648366)" /><rect
       style="fill:#a80040;fill-opacity:1;stroke:none;stroke-width:0.665001;stroke-linecap:round;paint-order:stroke fill markers"
       id="rect151898"
       width="3.7885993"
       height="1.6079754"
       x="5.2477102"
       y="35.389156"
       ry="0.45622694"
       transform="rotate(-15.052061)" /><rect
       style="fill:#bea600;fill-opacity:1;stroke:none;stroke-width:0.665001;stroke-linecap:round;paint-order:stroke fill markers"
       id="rect146783"
       width="3.5953894"
       height="6.405931"
       x="0.27899817"
       y="39.265518"
       transform="rotate(-15)" /><path
       style="fill:#afafaf;stroke:none;stroke-width:0.264583px;stroke-linecap:butt;stroke-linejoin:miter;stroke-opacity:1;fill-opacity:1"
       d="m 16.649148,47.637943 -2.990494,-11.160675 0.61618,-2.299618 21.734118,-6.520691 4.335312,7.27215 -9.311412,2.494983 -3.543274,5.87356 -8.094123,3.826557 -2.705634,0.724972 z"
       id="path136908" /><path
       style="fill:#b00042;fill-opacity:1;stroke:none;stroke-width:0.264583px;stroke-linecap:butt;stroke-linejoin:miter;stroke-opacity:1"
       d="m 30.995099,37.206057 -1.801521,7.492306 14.523047,-2.630331 1.363191,-6.005644 -3.190383,-1.371767 -1.678289,0.05056 z"
       id="path138975"
       sodipodi:nodetypes="ccccccc" /><rect
       style="fill:#a00037;stroke-width:0.365001;stroke-linecap:round;stroke-opacity:0.998965;paint-order:stroke fill markers"
       id="rect172423"
       width="8.7058353"
       height="5.2179842"
       x="21.567751"
       y="45.058949"
       ry="2.2818983"
       transform="rotate(-15.509459)" /><rect
       style="fill:#a1a1a1;fill-opacity:1;stroke:none;stroke-width:0.665001;stroke-linecap:round;paint-order:stroke fill markers"
       id="rect150064"
       width="4.4017148"
       height="1.7068708"
       x="25.444393"
       y="46.613026"
       ry="0.8534354"
       transform="rotate(-14.885162)" /><path
       id="rect136962"
       style="fill:#a1a1a1;fill-opacity:1;stroke-width:0.665001;stroke-linecap:round;paint-order:stroke fill markers"
       d="M 11.958665 45.032888 C 11.842725 44.962587 11.706327 44.922444 11.560285 44.922444 C 11.135437 44.922444 10.793455 45.264523 10.793455 45.689372 L 10.794027 49.21791 L 12.327011 49.823935 L 12.327213 45.689275 C 12.327213 45.410468 12.180004 45.167101 11.958665 45.032888 z "
       transform="rotate(-32.503099)" /><path
       id="path137709"
       style="fill:#a1a1a1;fill-opacity:1;stroke-width:0.665001;stroke-linecap:round;paint-order:stroke fill markers"
       d="m 36.600499,30.975859 c -0.135555,0.003 -0.272159,0.04245 -0.395325,0.120923 -0.358301,0.22829 -0.462901,0.700549 -0.234611,1.058851 l 1.896526,2.975529 1.618506,-0.312643 -2.22157,-3.487126 c -0.149816,-0.235135 -0.404738,-0.361279 -0.663526,-0.355534 z" /><rect
       style="fill:#c5004a;fill-opacity:1;stroke-width:0.822689;stroke-linecap:round;paint-order:stroke fill markers"
       id="rect138668"
       width="9.2975845"
       height="9.0362406"
       x="7.4327106"
       y="37.922184"
       ry="1.7363217"
       transform="rotate(-12.850113)" /><rect
       style="fill:#e41a5b;fill-opacity:1;stroke-width:0.665001;stroke-linecap:round;paint-order:stroke fill markers"
       id="rect137711"
       width="7.5154829"
       height="7.3042316"
       x="8.788888"
       y="38.718861"
       ry="1.4035146"
       transform="rotate(-12.236703)" /><rect
       style="fill:#bea600;fill-opacity:1;stroke-width:0.665001;stroke-linecap:round;paint-order:stroke fill markers"
       id="rect138524"
       width="1.4075402"
       height="5.7153935"
       x="8.3139668"
       y="39.963745"
       ry="0"
       transform="rotate(-14.043922)" /><rect
       style="fill:#bea600;fill-opacity:1;stroke-width:0.665001;stroke-linecap:round;paint-order:stroke fill markers"
       id="rect138664"
       width="1.4075402"
       height="5.7153935"
       x="10.667657"
       y="39.930233"
       ry="0"
       transform="rotate(-14.043922)" /><rect
       style="fill:#bea600;fill-opacity:1;stroke-width:0.665001;stroke-linecap:round;paint-order:stroke fill markers"
       id="rect138666"
       width="1.4075402"
       height="5.7153935"
       x="12.670038"
       y="39.900562"
       ry="0"
       transform="rotate(-14.043922)" /><circle
       style="fill:#dd195a;fill-opacity:1;stroke-width:0.665001;stroke-linecap:round;paint-order:stroke fill markers"
       id="path139029"
       cx="32.439846"
       cy="39.324585"
       r="0.70991254" /><circle
       style="fill:#dd195a;fill-opacity:1;stroke-width:0.665001;stroke-linecap:round;paint-order:stroke fill markers"
       id="circle140273"
       cx="32.146313"
       cy="41.324646"
       r="0.70991254" /><path
       style="fill:#bf0047;stroke:none;stroke-width:0.264583px;stroke-linecap:butt;stroke-linejoin:miter;stroke-opacity:1;fill-opacity:1"
       d="m 41.020698,34.528053 1.145225,0.183301 2.265288,-1.972763 10.420326,-2.792118 -1.109159,-4.139439 -10.445451,2.79885 -2.188268,-0.586345 -1.702589,0.456207 z"
       id="path140829" /><rect
       style="fill:#1b1b1b;fill-opacity:1;stroke-width:0.665001;stroke-linecap:round;paint-order:stroke fill markers"
       id="rect140937"
       width="1.8467021"
       height="1.8467021"
       x="37.898384"
       y="38.839771"
       transform="rotate(-13.14556)" /><rect
       style="fill:#1b1b1b;fill-opacity:1;stroke-width:0.665001;stroke-linecap:round;paint-order:stroke fill markers"
       id="rect141422"
       width="1.8467021"
       height="1.8467021"
       x="40.72179"
       y="38.760559"
       transform="rotate(-13.14556)" /><rect
       style="fill:#1b1b1b;fill-opacity:1;stroke-width:0.665001;stroke-linecap:round;paint-order:stroke fill markers"
       id="rect141424"
       width="1.8467021"
       height="1.8467021"
       x="43.588272"
       y="38.686913"
       transform="rotate(-13.14556)" /><path
       style="fill:#aa0041;stroke:none;stroke-width:0.264583px;stroke-linecap:butt;stroke-linejoin:miter;stroke-opacity:1;fill-opacity:1"
       d="m 33.352734,28.580908 -0.569425,-0.952659 -2.939987,0.669081 -0.525203,0.909677 -2.568887,0.688332 -0.162544,0.606621 z"
       id="path152907" /><path
       id="rect150381"
       style="fill:#a1a1a1;fill-opacity:1;stroke:none;stroke-width:0.665001;stroke-linecap:round;paint-order:stroke fill markers"
       d="M 9.5839083 42.741172 L 1.8153708 39.89622 L 0.64727589 39.895882 L 0.64763178 45.16533 L 9.584041 45.165108 L 9.5839083 42.741172 z "
       transform="rotate(-36.815458)" /><path
       style="fill:#d2d6d3;stroke:none;stroke-width:0.264583px;stroke-linecap:butt;stroke-linejoin:miter;stroke-opacity:1;fill-opacity:1"
       d="m 28.109362,32.385172 1.40471,-0.811012 -0.942197,-1.21534 -3.540762,0.948743 2.285327,3.295896 2.952263,-1.812242 -0.579569,-0.821351 -1.929763,1.346721 -1.160354,-1.537012 1.201934,-0.851826 0.194106,0.348308 -0.548045,0.485695 z"
       id="path141426" /><path
       id="path141428"
       style="fill:#d2d6d3;stroke:none;stroke-width:0.264583px;stroke-linecap:butt;stroke-linejoin:miter;stroke-opacity:1;fill-opacity:1"
       d="M 32.711698 28.871106 L 29.247827 30.189889 L 30.69115 32.186149 L 31.214115 32.149976 L 33.570561 30.531986 L 33.511133 29.870011 L 32.711698 28.871106 z M 30.587797 30.441553 L 31.612024 30.469975 L 31.017745 30.959867 L 30.587797 30.441553 z " /><path
       style="fill:#c5004a;stroke:none;stroke-width:0.264583px;stroke-linecap:butt;stroke-linejoin:miter;stroke-opacity:1;fill-opacity:1"
       d="m 16.160669,37.052093 -1.008223,0.71305 0.767902,2.516222 1.113222,-0.0743 z"
       id="path145323" /><circle
       style="fill:#272926;fill-opacity:1;stroke:none;stroke-width:0.665001;stroke-linecap:round;paint-order:stroke fill markers"
       id="path145377"
       cx="16.171318"
       cy="38.803745"
       r="0.39769739" /><path
       style="fill:#c5004a;fill-opacity:1;stroke:none;stroke-width:0.264583px;stroke-linecap:butt;stroke-linejoin:miter;stroke-opacity:1"
       d="m 25.010434,34.650598 1.22099,0.18476 0.442951,2.593229 -1.028172,0.433174 z"
       id="path146698" /><circle
       style="fill:#272926;fill-opacity:1;stroke:none;stroke-width:0.665001;stroke-linecap:round;paint-order:stroke fill markers"
       id="circle146700"
       cx="-6.7900343"
       cy="43.940945"
       r="0.39769739"
       transform="matrix(-0.89365079,0.44876305,0.44876305,0.89365079,0,0)" /><rect
       style="fill:#da9c35;fill-opacity:1;stroke:none;stroke-width:0.665001;stroke-linecap:round;paint-order:stroke fill markers"
       id="rect147004"
       width="2.408556"
       height="7.8563609"
       x="45.177593"
       y="37.102608"
       transform="rotate(-15)" /><rect
       style="fill:#da9c35;fill-opacity:1;stroke:none;stroke-width:0.665001;stroke-linecap:round;paint-order:stroke fill markers"
       id="rect147213"
       width="1.2624969"
       height="6.3286686"
       x="47.52375"
       y="37.777374"
       transform="rotate(-15)" /><rect
       style="fill:#d46634;fill-opacity:1;stroke:none;stroke-width:0.665001;stroke-linecap:round;paint-order:stroke fill markers"
       id="rect147223"
       width="1.9398041"
       height="2.2182746"
       x="50.362171"
       y="37.967625"
       transform="rotate(-15)" /><path
       style="fill:#d46634;stroke:none;stroke-width:0.264583px;stroke-linecap:butt;stroke-linejoin:miter;stroke-opacity:1;fill-opacity:1"
       d="m 59.289248,23.23467 -0.434536,-2.249008 -0.801139,0.08588 -0.180917,1.905258 z"
       id="path147434" /><rect
       style="fill:#da9c35;fill-opacity:1;stroke:none;stroke-width:0.665001;stroke-linecap:round;paint-order:stroke fill markers"
       id="rect147217"
       width="1.9398046"
       height="7.8867564"
       x="48.599148"
       y="36.963619"
       transform="rotate(-15)" /><rect
       style="fill:#da9c35;fill-opacity:1;stroke:none;stroke-width:0.665001;stroke-linecap:round;paint-order:stroke fill markers"
       id="rect147219"
       width="1.9398041"
       height="1.2958277"
       x="50.196285"
       y="43.56126"
       transform="rotate(-15)" /><rect
       style="fill:#da9c35;fill-opacity:1;stroke:none;stroke-width:0.665001;stroke-linecap:round;paint-order:stroke fill markers"
       id="rect147221"
       width="1.9398041"
       height="1.3310715"
       x="50.196285"
       y="36.970325"
       transform="rotate(-15)" /><g
       id="g150010"
       transform="translate(-5.1178455,0.62420972)"><circle
         style="fill:#bbbbbb;fill-opacity:1;stroke:none;stroke-width:0.665001;stroke-linecap:round;paint-order:stroke fill markers"
         id="path149030"
         cx="41.213646"
         cy="38.805691"
         r="2.0783811" /><circle
         style="fill:#a3a3a3;fill-opacity:1;stroke:none;stroke-width:0.382061;stroke-linecap:round;paint-order:stroke fill markers"
         id="circle149929"
         cx="41.213646"
         cy="38.805691"
         r="1.1940881" /></g><rect
       style="fill:#1e1e1e;fill-opacity:1;stroke:none;stroke-width:0.665001;stroke-linecap:round;paint-order:stroke fill markers"
       id="rect150433"
       width="4.6610289"
       height="0.94922394"
       x="16.190475"
       y="43.019577"
       ry="0.47461197"
       transform="rotate(-17.464852)" /><rect
       style="fill:#d5d8d6;fill-opacity:1;stroke:none;stroke-width:0.665001;stroke-linecap:round;paint-order:stroke fill markers"
       id="rect151108"
       width="0.91245389"
       height="1.7177256"
       x="18.652697"
       y="41.701405"
       ry="0.45622694"
       transform="rotate(-15)" /><circle
       style="fill:#910032;fill-opacity:1;stroke:none;stroke-width:0.665001;stroke-linecap:round;paint-order:stroke fill markers"
       id="path152435"
       cx="16.312563"
       cy="33.092606"
       r="0.46285746" /><path
       style="fill:#a80040;stroke:none;stroke-width:0.264583px;stroke-linecap:butt;stroke-linejoin:miter;stroke-opacity:1;fill-opacity:1"
       d="m 21.160453,32.467507 -0.0015,-0.810154 0.398198,-0.298225 0.264878,0.06555 0.500158,0.661088 z"
       id="path152696" /><path
       style="fill:#a80040;fill-opacity:1;stroke:none;stroke-width:0.264583px;stroke-linecap:butt;stroke-linejoin:miter;stroke-opacity:1"
       d="m 23.174722,31.858798 0.149655,-0.796213 0.44684,-0.218709 0.248001,0.113811 0.368057,0.742785 z"
       id="path152905" /><circle
       style="fill:#910032;fill-opacity:1;stroke:none;stroke-width:0.587192;stroke-linecap:round;paint-order:stroke fill markers"
       id="circle153047"
       cx="30.325171"
       cy="28.789791"
       r="0.40870067" /><path
       style="fill:#a2a2a2;stroke:none;stroke-width:0.264583px;stroke-linecap:butt;stroke-linejoin:miter;stroke-opacity:1;fill-opacity:1"
       d="m 37.528206,43.29386 1.192556,7.543316 -13.851967,2.921468 -0.420443,1.70138 16.870164,-3.721738 1.038288,-1.67172 -1.149882,-7.608038 z"
       id="path153049" /><rect
       style="fill:#919191;fill-opacity:1;stroke:none;stroke-width:0.665001;stroke-linecap:round;paint-order:stroke fill markers"
       id="rect153103"
       width="1.7153276"
       height="4.8298435"
       x="28.538605"
       y="50.119274"
       ry="0.45622694"
       transform="rotate(-12.140105)" /><circle
       style="fill:#919191;fill-opacity:1;stroke:none;stroke-width:0.665001;stroke-linecap:round;paint-order:stroke fill markers"
       id="path153709"
       cx="39.516136"
       cy="49.868843"
       r="0.35201982" /><circle
       style="fill:#919191;fill-opacity:1;stroke:none;stroke-width:0.665001;stroke-linecap:round;paint-order:stroke fill markers"
       id="path153711"
       cx="41.103607"
       cy="49.383858"
       r="0.32167771" /><path
       style="fill:#1b1b1b;fill-opacity:1;stroke:none;stroke-width:0.264583px;stroke-linecap:butt;stroke-linejoin:miter;stroke-opacity:1"
       d="m 20.735294,53.244221 0.668857,-3.13843 -0.80456,-3.433383 2.446121,-1.163052 0.08286,3.247369 1.820377,0.01754 1.373528,-1.028395 -0.189026,-3.05849 1.343094,-0.184639 -0.221756,3.898381 -0.678479,0.777322 -0.996808,0.549312 -2.096068,0.06733 -0.05211,4.414996 z"
       id="path153713"
       sodipodi:nodetypes="ccccccccccccccc" /><path
       style="fill:#ba0045;stroke:none;stroke-width:0.264583px;stroke-linecap:butt;stroke-linejoin:miter;stroke-opacity:1;fill-opacity:1"
       d="m 23.195274,45.883837 0.970998,-0.343418 0.235465,1.42018 0.337482,0.775372 -1.65107,0.0058 -0.106118,-1.827199 z"
       id="path153792" /><path
       style="fill:#2d2d2d;fill-opacity:1;stroke:none;stroke-width:0.264583px;stroke-linecap:butt;stroke-linejoin:miter;stroke-opacity:1"
       d="m 28.064462,38.068808 -1.301276,4.334515 -5.609711,1.35509 -1.901097,3.349905 -1.385854,0.448236 0.07334,0.535004 0.960529,0.0489 0.351799,0.100594 0.696984,0.949974 0.248791,1.201446 -0.11277,2.429973 -1.234649,2.057895 5.477359,0.575318 0.581957,-1.743747 -1.769453,-0.01175 -1.752078,-0.532207 -0.304737,-0.818224 0.432743,-1.620139 -0.279582,-1.637728 c 0,0 -0.303232,-1.781337 -0.496897,-2.188975 -0.193665,-0.407638 -0.02568,-0.25702 -0.02568,-0.25702 l 2.327784,-0.75227 6.271655,-1.590185 1.68148,-7.097356 z"
       id="path159460"
       sodipodi:nodetypes="ccccccccccccccccccccccccc" /><rect
       style="fill:#afafaf;fill-opacity:1;stroke:none;stroke-width:0.665001;stroke-linecap:round;paint-order:stroke fill markers"
       id="rect161515"
       width="0.83006155"
       height="1.6190394"
       x="-1.0230988"
       y="40.526661"
       ry="0"
       transform="rotate(-14.431103)" /><rect
       style="fill:#afafaf;fill-opacity:1;stroke:none;stroke-width:0.665001;stroke-linecap:round;paint-order:stroke fill markers"
       id="rect161517"
       width="0.83006155"
       height="1.6190394"
       x="-0.51709932"
       y="46.595669"
       ry="0"
       transform="rotate(-14.431103)" /><path
       style="fill:none;stroke:#1d1d1d;stroke-width:0.365;stroke-linecap:butt;stroke-linejoin:miter;stroke-dasharray:none;stroke-opacity:0.998965"
       d="M 12.706807,46.508672 12.256982,44.096153 11.261364,44.162572 10.212275,39.721191 9.4965082,37.227123 8.9592983,35.70997 7.2771453,34.926909 4.5450132,33.678813 4.9392473,32.543389"
       id="path161519"
       sodipodi:nodetypes="ccccccccc" /><path
       style="fill:#a1a1a1;fill-opacity:0.996078;stroke:none;stroke-width:0.264583px;stroke-linecap:butt;stroke-linejoin:miter;stroke-opacity:1"
       d="m 4.987324,33.419875 0.5021953,-0.642787 0.7829108,0.264964 0.065901,0.736849 0.5950156,0.152837 0.5026893,-0.393071 0.7938444,0.413169 -0.044729,0.489537 0.4052361,0.296672 0.7493151,-0.255831 0.3959725,0.502256 -0.5095124,0.306713 0.5499775,0.704548 0.6363368,-0.149111 -0.02312,0.99251 -0.229831,-0.01132 0.227677,0.883354 1.723617,6.203198 -0.630832,0.05894 L 9.5436426,36.834923 9.0184669,35.634316 7.3191725,34.828818 5.3268021,33.954645 4.6740489,33.667599 Z"
       id="path167731" /></g></svg>
