<?xml version="1.0" encoding="UTF-8" standalone="no"?>
<!-- Created with Inkscape (http://www.inkscape.org/) -->

<svg
   width="256"
   height="256"
   viewBox="0 0 67.733332 67.733333"
   version="1.1"
   id="svg5"
   xml:space="preserve"
   inkscape:version="1.2.2 (b0a8486541, 2022-12-01)"
   sodipodi:docname="rapid.svg"
   xmlns:inkscape="http://www.inkscape.org/namespaces/inkscape"
   xmlns:sodipodi="http://sodipodi.sourceforge.net/DTD/sodipodi-0.dtd"
   xmlns="http://www.w3.org/2000/svg"
   xmlns:svg="http://www.w3.org/2000/svg"><sodipodi:namedview
     id="namedview7"
     pagecolor="#505050"
     bordercolor="#eeeeee"
     borderopacity="1"
     inkscape:showpageshadow="0"
     inkscape:pageopacity="0"
     inkscape:pagecheckerboard="0"
     inkscape:deskcolor="#505050"
     inkscape:document-units="mm"
     showgrid="false"
     inkscape:zoom="4.405336"
     inkscape:cx="124.5081"
     inkscape:cy="149.81831"
     inkscape:window-width="1906"
     inkscape:window-height="1026"
     inkscape:window-x="5"
     inkscape:window-y="25"
     inkscape:window-maximized="1"
     inkscape:current-layer="layer1" /><defs
     id="defs2" /><g
     inkscape:label="Layer 1"
     inkscape:groupmode="layer"
     id="layer1"><g
       id="g475"
       transform="matrix(1.2206531,0,0,1.1657373,-26.11504,-19.953431)"><rect
         style="fill:#c5004a;fill-opacity:1;stroke:none;stroke-width:0.719492;stroke-linecap:round;paint-order:stroke fill markers"
         id="rect146781"
         width="4.0646009"
         height="3.6203911"
         x="17.261044"
         y="57.531853"
         transform="rotate(-15)" /><rect
         style="fill:#bea600;fill-opacity:1;stroke:none;stroke-width:0.719492;stroke-linecap:round;paint-order:stroke fill markers"
         id="rect146783"
         width="3.8900003"
         height="6.9308414"
         x="17.261044"
         y="50.601013"
         transform="rotate(-15)" /><rect
         style="fill:#afafaf;fill-opacity:1;stroke:none;stroke-width:0.719492;stroke-linecap:round;paint-order:stroke fill markers"
         id="rect161515"
         width="0.89807791"
         height="1.7517056"
         x="16.931927"
         y="51.914619"
         ry="0"
         transform="rotate(-14.431103)" /><rect
         style="fill:#afafaf;fill-opacity:1;stroke:none;stroke-width:0.719492;stroke-linecap:round;paint-order:stroke fill markers"
         id="rect161517"
         width="0.89807791"
         height="1.7517056"
         x="16.951319"
         y="58.291889"
         ry="0"
         transform="rotate(-14.431103)" /></g><rect
       style="fill:#1b1b1b;fill-opacity:1;stroke:none;stroke-width:0.719492;stroke-linecap:round;paint-order:stroke fill markers"
       id="rect150187"
       width="4.0089445"
       height="1.7270887"
       x="27.047461"
       y="37.846786"
       ry="0.86354434"
       transform="rotate(-27.428704)" /><rect
       style="fill:#1b1b1b;fill-opacity:1;stroke:none;stroke-width:0.719492;stroke-linecap:round;paint-order:stroke fill markers"
       id="rect150327"
       width="4.122973"
       height="3.1328394"
       x="33.696804"
       y="36.931534"
       ry="0"
       transform="rotate(-18.766324)" /><rect
       style="fill:#a80040;fill-opacity:1;stroke:none;stroke-width:0.719492;stroke-linecap:round;paint-order:stroke fill markers"
       id="rect151898"
       width="4.0990424"
       height="1.739735"
       x="8.1217384"
       y="29.038588"
       ry="0.4936108"
       transform="rotate(-15.052061)" /><circle
       style="fill:#910032;fill-opacity:1;stroke:none;stroke-width:0.719492;stroke-linecap:round;paint-order:stroke fill markers"
       id="path152435"
       cx="17.607107"
       cy="26.236528"
       r="0.50078464" /><path
       style="fill:#ba0045;fill-opacity:1;stroke:none;stroke-width:0.340356px;stroke-linecap:butt;stroke-linejoin:miter;stroke-opacity:1"
       d="m 26.267355,42.527375 1.308816,-0.421607 0.317384,1.743525 0.454895,0.951909 -2.225489,0.0071 -0.143038,-2.243214 z"
       id="path153792" /><path
       style="fill:#1b1b1b;fill-opacity:1;stroke:none;stroke-width:0.321253px;stroke-linecap:butt;stroke-linejoin:miter;stroke-opacity:1"
       d="m 22.846403,51.697554 0.812117,-3.81064 -1.460863,-5.051819 4.455411,-0.543579 -0.508206,3.281265 1.817704,0.165144 1.66772,-0.716393 -0.269806,-3.844535 2.19528,-0.514446 -0.07624,4.807301 c 0,0 -0.424266,1.069376 -0.896019,1.353352 -0.557283,0.335463 -1.855322,0.604707 -1.855322,0.604707 l -2.545018,0.08175 -0.06327,5.36063 z"
       id="path153713"
       sodipodi:nodetypes="ccccccccccscccc" /><path
       style="display:inline;fill:#2d2d2d;fill-opacity:1;stroke:none;stroke-width:0.326483px;stroke-linecap:butt;stroke-linejoin:miter;stroke-opacity:1"
       d="m 32.139808,33.010607 -1.628515,5.273717 -7.020413,1.648711 -2.379176,4.075761 -1.734361,0.545361 0.09178,0.650928 1.202078,0.05949 0.440268,0.122389 0.872258,1.155816 0.311356,1.461775 -0.141129,2.956499 -1.545132,2.5038 6.854778,0.699977 0.728306,-2.121581 -2.214427,-0.01429 -2.192681,-0.647525 -0.381372,-0.995516 0.541566,-1.971191 -0.349889,-1.992591 c 0,0 -0.379487,-2.167316 -0.621854,-2.663281 -0.242367,-0.495966 -0.03214,-0.312711 -0.03214,-0.312711 l 2.913164,-0.915272 7.84882,-1.934746 2.10433,-8.63521 z"
       id="path159460"
       sodipodi:nodetypes="ccccccccccccccccccccccccc" /><path
       style="display:inline;fill:#afafaf;fill-opacity:1;stroke:none;stroke-width:0.286263px;stroke-linecap:butt;stroke-linejoin:miter;stroke-opacity:1"
       d="m 17.730534,42.311238 -3.235539,-12.075196 0.666671,-2.488052 27.427358,-8.035108 5.373515,8.861662 -0.66624,1.596306 -2.027659,-0.885069 -13.099439,3.610474 -1.42625,5.473963 -6.759229,1.803223 -2.724606,3.989469 -2.64795,0.588044 z"
       id="path136908"
       sodipodi:nodetypes="ccccccccccccc"
       sodipodi:insensitive="true" /><path
       id="rect136962"
       style="fill:#a1a1a1;fill-opacity:1;stroke-width:0.719492;stroke-linecap:round;paint-order:stroke fill markers"
       d="m 40.013744,24.375537 c -0.146663,0.0032 -0.29446,0.04593 -0.427718,0.130831 -0.387661,0.246997 -0.500832,0.757953 -0.253835,1.145615 l 2.623233,4.578265 1.751128,-0.33826 -2.974911,-5.131784 C 40.569548,24.505802 40.293738,24.36932 40.013744,24.375537 Z"
       sodipodi:nodetypes="ccccccc" /><path
       id="path137709"
       style="fill:#a1a1a1;fill-opacity:1;stroke-width:0.719492;stroke-linecap:round;paint-order:stroke fill markers"
       d="m 42.520389,23.750982 c -0.146662,0.0032 -0.29446,0.04593 -0.427718,0.130831 -0.387661,0.246997 -0.500832,0.757953 -0.253835,1.145615 l 3.308345,5.012714 1.751129,-0.338261 -3.660024,-5.566232 c -0.162093,-0.254402 -0.437903,-0.390883 -0.717897,-0.384667 z"
       sodipodi:nodetypes="csccccc" /><g
       id="g366"
       transform="matrix(1.2150885,0,0,1.2150885,-26.608118,-21.437219)"><rect
         style="fill:#c5004a;fill-opacity:1;stroke-width:0.890101;stroke-linecap:round;paint-order:stroke fill markers"
         id="rect138668"
         width="10.059442"
         height="9.7766819"
         x="25.293541"
         y="48.505688"
         ry="1.8785982"
         transform="rotate(-12.850113)" /><rect
         style="fill:#e41a5b;fill-opacity:1;stroke-width:0.719492;stroke-linecap:round;paint-order:stroke fill markers"
         id="rect137711"
         width="8.1313114"
         height="7.9027505"
         x="26.839893"
         y="49.182522"
         ry="1.5185205"
         transform="rotate(-12.236703)" /><rect
         style="fill:#bea600;fill-opacity:1;stroke-width:0.719492;stroke-linecap:round;paint-order:stroke fill markers"
         id="rect138524"
         width="1.5228759"
         height="6.1837206"
         x="26.087503"
         y="51.072342"
         ry="0"
         transform="rotate(-14.043922)" /><rect
         style="fill:#bea600;fill-opacity:1;stroke-width:0.719492;stroke-linecap:round;paint-order:stroke fill markers"
         id="rect138664"
         width="1.5228759"
         height="6.1837206"
         x="28.63406"
         y="51.036083"
         ry="0"
         transform="rotate(-14.043922)" /><rect
         style="fill:#bea600;fill-opacity:1;stroke-width:0.719492;stroke-linecap:round;paint-order:stroke fill markers"
         id="rect138666"
         width="1.5228759"
         height="6.1837206"
         x="30.800518"
         y="51.003983"
         ry="0"
         transform="rotate(-14.043922)" /><path
         style="fill:#c5004a;fill-opacity:1;stroke:none;stroke-width:0.286263px;stroke-linecap:butt;stroke-linejoin:miter;stroke-opacity:1"
         d="m 35.967309,43.540242 -1.090839,0.771478 0.830825,2.722405 1.204441,-0.08039 z"
         id="path145323" /><circle
         style="fill:#272926;fill-opacity:1;stroke:none;stroke-width:0.719492;stroke-linecap:round;paint-order:stroke fill markers"
         id="path145377"
         cx="35.978828"
         cy="45.435429"
         r="0.43028525" /><path
         style="fill:#c5004a;fill-opacity:1;stroke:none;stroke-width:0.286263px;stroke-linecap:butt;stroke-linejoin:miter;stroke-opacity:1"
         d="m 45.542235,40.941965 1.32104,0.1999 0.479247,2.805721 -1.112422,0.468669 z"
         id="path146698" /><circle
         style="fill:#272926;fill-opacity:1;stroke:none;stroke-width:0.719492;stroke-linecap:round;paint-order:stroke fill markers"
         id="circle146700"
         cx="-22.314089"
         cy="58.920677"
         r="0.43028525"
         transform="matrix(-0.89365079,0.44876305,0.44876305,0.89365079,0,0)" /></g><g
       id="g172136"
       transform="matrix(1.2095076,0,0,1.2095076,-18.009543,-9.3157973)"><rect
         style="fill:#d46634;fill-opacity:1;stroke:none;stroke-width:0.665001;stroke-linecap:round;paint-order:stroke fill markers"
         id="rect147432"
         width="1.9398041"
         height="2.2182746"
         x="50.278194"
         y="41.27433"
         transform="rotate(-15)" /><rect
         style="fill:#da9c35;fill-opacity:1;stroke:none;stroke-width:0.665001;stroke-linecap:round;paint-order:stroke fill markers"
         id="rect147004"
         width="2.408556"
         height="7.8563609"
         x="45.177593"
         y="37.102608"
         transform="rotate(-15)" /><rect
         style="fill:#ec713a;fill-opacity:1;stroke:none;stroke-width:0.665001;stroke-linecap:round;paint-order:stroke fill markers"
         id="rect147213"
         width="1.2624969"
         height="6.3286686"
         x="47.52375"
         y="37.777374"
         transform="rotate(-15)" /><rect
         style="fill:#d46634;fill-opacity:1;stroke:none;stroke-width:0.665001;stroke-linecap:round;paint-order:stroke fill markers"
         id="rect147223"
         width="1.9398041"
         height="2.2182746"
         x="50.362171"
         y="37.967625"
         transform="rotate(-15)" /><rect
         style="fill:#da9c35;fill-opacity:1;stroke:none;stroke-width:0.665001;stroke-linecap:round;paint-order:stroke fill markers"
         id="rect147217"
         width="1.9398046"
         height="7.8867564"
         x="48.599148"
         y="36.963619"
         transform="rotate(-15)" /><rect
         style="fill:#da9c35;fill-opacity:1;stroke:none;stroke-width:0.665001;stroke-linecap:round;paint-order:stroke fill markers"
         id="rect147219"
         width="1.9398041"
         height="1.2958277"
         x="50.196285"
         y="43.56126"
         transform="rotate(-15)" /><rect
         style="fill:#da9c35;fill-opacity:1;stroke:none;stroke-width:0.665001;stroke-linecap:round;paint-order:stroke fill markers"
         id="rect147221"
         width="1.9398041"
         height="1.3310715"
         x="50.196285"
         y="36.970325"
         transform="rotate(-15)" /></g><rect
       style="fill:#1e1e1e;fill-opacity:1;stroke:none;stroke-width:0.719492;stroke-linecap:round;paint-order:stroke fill markers"
       id="rect150433"
       width="5.8838558"
       height="1.0015436"
       x="22.146441"
       y="38.740116"
       ry="0.4920989"
       transform="rotate(-17.464852)" /><rect
       style="fill:#d5d8d6;fill-opacity:1;stroke:none;stroke-width:0.719492;stroke-linecap:round;paint-order:stroke fill markers"
       id="rect151108"
       width="0.9872216"
       height="1.8584784"
       x="24.47049"
       y="37.122063"
       ry="0.4936108"
       transform="rotate(-15)" /><path
       style="fill:#a80040;fill-opacity:1;stroke:none;stroke-width:0.286263px;stroke-linecap:butt;stroke-linejoin:miter;stroke-opacity:1"
       d="m 23.888094,25.198612 -0.0016,-0.876539 0.430827,-0.322662 0.286582,0.07092 0.541142,0.715258 z"
       id="path152696" /><path
       style="fill:#a80040;fill-opacity:1;stroke:none;stroke-width:0.286263px;stroke-linecap:butt;stroke-linejoin:miter;stroke-opacity:1"
       d="m 26.067415,24.540024 0.161918,-0.861455 0.483454,-0.236631 0.268323,0.123137 0.398216,0.80365 z"
       id="path152905" /><g
       id="g469"
       transform="matrix(1.1051249,0,0,1.1051249,-21.406181,-17.165219)"><path
         style="fill:#aa0041;fill-opacity:1;stroke:none;stroke-width:0.286263px;stroke-linecap:butt;stroke-linejoin:miter;stroke-opacity:1"
         d="m 54.568115,34.374917 -0.616085,-1.030722 -3.180893,0.723907 -0.568239,0.984217 -2.779385,0.744735 -0.175863,0.656328 z"
         id="path152907" /><path
         id="rect150381"
         style="fill:#a1a1a1;fill-opacity:1;stroke:none;stroke-width:0.719492;stroke-linecap:round;paint-order:stroke fill markers"
         d="m 54.494603,34.259498 -8.573372,2.57246 -1.011987,0.757032 3.416713,4.564005 7.740301,-5.794043 z" /><path
         style="fill:#d2d6d3;fill-opacity:1;stroke:none;stroke-width:0.286263px;stroke-linecap:butt;stroke-linejoin:miter;stroke-opacity:1"
         d="m 48.895094,38.490907 1.519814,-0.877467 -1.019402,-1.314927 -3.830897,1.026484 2.47259,3.565967 3.194175,-1.96074 -0.62706,-0.888654 -2.08789,1.457074 -1.255435,-1.662957 1.300422,-0.921626 0.210011,0.376849 -0.592952,0.525493 z"
         id="path141426" /><path
         id="path141428"
         style="fill:#d2d6d3;fill-opacity:1;stroke:none;stroke-width:0.286263px;stroke-linecap:butt;stroke-linejoin:miter;stroke-opacity:1"
         d="m 53.874551,34.688894 -3.747705,1.426846 1.561591,2.159836 0.565817,-0.03914 2.549537,-1.75057 -0.0643,-0.716219 z m -2.297936,1.699131 1.108154,0.03075 -0.642975,0.530035 z" /><circle
         style="fill:#910032;fill-opacity:1;stroke:none;stroke-width:0.635307;stroke-linecap:round;paint-order:stroke fill markers"
         id="circle153047"
         cx="51.292469"
         cy="34.600914"
         r="0.44219017" /></g><path
       style="display:inline;fill:#b00042;fill-opacity:1;stroke:none;stroke-width:0.316747px;stroke-linecap:butt;stroke-linejoin:miter;stroke-opacity:1"
       d="m 31.945052,32.628406 -2.504194,9.546392 18.611026,-3.203527 1.538903,-8.054781 -4.542088,-2.129871 z"
       id="path138975"
       sodipodi:nodetypes="cccccc" /><rect
       style="fill:#a00037;fill-opacity:1;stroke:none;stroke-width:0.39491;stroke-linecap:round;stroke-dasharray:none;stroke-opacity:0.998965;paint-order:stroke fill markers"
       id="rect171319"
       width="10.422626"
       height="5.5964303"
       x="27.425915"
       y="39.719509"
       ry="2.4688802"
       transform="rotate(-11.886404)" /><rect
       style="fill:#a1a1a1;fill-opacity:1;stroke:none;stroke-width:0.796129;stroke-linecap:round;paint-order:stroke fill markers"
       id="rect150064"
       width="5.2221222"
       height="2.0620477"
       x="29.509792"
       y="43.408344"
       ry="1.0310239"
       transform="matrix(0.96508537,-0.26193556,0.25191341,0.96774978,0,0)" /><ellipse
       style="fill:#dd195a;fill-opacity:1;stroke-width:0.796109;stroke-linecap:round;paint-order:stroke fill markers"
       id="path139029"
       cx="33.649559"
       cy="35.143757"
       rx="0.84104574"
       ry="0.8587957" /><ellipse
       style="fill:#dd195a;fill-opacity:1;stroke-width:0.796109;stroke-linecap:round;paint-order:stroke fill markers"
       id="circle140273"
       cx="33.301807"
       cy="37.563271"
       rx="0.84104574"
       ry="0.8587957" /><ellipse
       style="fill:#bbbbbb;fill-opacity:1;stroke:none;stroke-width:0.796109;stroke-linecap:round;paint-order:stroke fill markers"
       id="path149030"
       cx="38.8592"
       cy="35.388432"
       rx="2.4622943"
       ry="2.5142601" /><ellipse
       style="fill:#a3a3a3;fill-opacity:1;stroke:none;stroke-width:0.457385;stroke-linecap:round;paint-order:stroke fill markers"
       id="circle149929"
       cx="38.8592"
       cy="35.388432"
       rx="1.414657"
       ry="1.4445128" /></g></svg>
