<?xml version="1.0" encoding="UTF-8" standalone="no"?>
<!-- Created with Inkscape (http://www.inkscape.org/) -->

<svg
   width="256"
   height="256"
   viewBox="0 0 67.733333 67.733333"
   version="1.1"
   id="svg14755"
   inkscape:version="1.2.1 (9c6d41e410, 2022-07-14, custom)"
   sodipodi:docname="reefslider.svg"
   xmlns:inkscape="http://www.inkscape.org/namespaces/inkscape"
   xmlns:sodipodi="http://sodipodi.sourceforge.net/DTD/sodipodi-0.dtd"
   xmlns:xlink="http://www.w3.org/1999/xlink"
   xmlns="http://www.w3.org/2000/svg"
   xmlns:svg="http://www.w3.org/2000/svg">
  <sodipodi:namedview
     id="namedview14757"
     pagecolor="#505050"
     bordercolor="#eeeeee"
     borderopacity="1"
     inkscape:showpageshadow="0"
     inkscape:pageopacity="0"
     inkscape:pagecheckerboard="0"
     inkscape:deskcolor="#505050"
     inkscape:document-units="mm"
     showgrid="false"
     inkscape:zoom="1.0156864"
     inkscape:cx="139.31465"
     inkscape:cy="254.50768"
     inkscape:window-width="1916"
     inkscape:window-height="1036"
     inkscape:window-x="0"
     inkscape:window-y="20"
     inkscape:window-maximized="1"
     inkscape:current-layer="layer1" />
  <defs
     id="defs14752">
    <linearGradient
       id="linearGradient53638"
       inkscape:swatch="solid">
      <stop
         style="stop-color:#3a0dcd;stop-opacity:1;"
         offset="0"
         id="stop53636" />
    </linearGradient>
    <linearGradient
       inkscape:collect="always"
       xlink:href="#linearGradient53638"
       id="linearGradient12703-6"
       gradientUnits="userSpaceOnUse"
       x1="46.638348"
       y1="55.652573"
       x2="77.430244"
       y2="55.652573"
       gradientTransform="matrix(1.9997184,0,0,1.9997184,-90.103282,-73.757888)" />
    <linearGradient
       inkscape:collect="always"
       xlink:href="#linearGradient53638"
       id="linearGradient15051"
       gradientUnits="userSpaceOnUse"
       gradientTransform="matrix(1.9997184,0,0,1.9997184,-90.103282,-73.757888)"
       x1="46.638348"
       y1="55.652573"
       x2="77.430244"
       y2="55.652573" />
    <linearGradient
       inkscape:collect="always"
       xlink:href="#linearGradient53638"
       id="linearGradient15053"
       gradientUnits="userSpaceOnUse"
       gradientTransform="matrix(1.9997184,0,0,1.9997184,-90.103282,-73.757888)"
       x1="46.638348"
       y1="55.652573"
       x2="77.430244"
       y2="55.652573" />
  </defs>
  <g
     inkscape:label="Layer 1"
     inkscape:groupmode="layer"
     id="layer1">
    <path
       style="fill:url(#linearGradient15051);fill-opacity:1;stroke:none;stroke-width:0.529091px;stroke-linecap:butt;stroke-linejoin:miter;stroke-opacity:1"
       d="m 27.556089,19.962997 c -1.932646,0.655489 -2.953186,1.576524 -4.329805,3.051398 -1.300866,1.393716 -2.386435,4.469141 -2.386435,4.469141 l -0.676533,1.918612 c 0,0 -2.510079,0.372489 -3.49689,0.954705 -1.028305,0.606699 -2.20185,1.813833 -2.969957,2.990035 -0.640152,0.980264 -1.286437,3.268256 -1.286437,3.268256 l -4.9130919,0.831901 -3.91206,3.033512 -0.156717,5.155422 2.715953,2.731624 7.5882669,3.332005 8.131279,1.604706 4.53134,0.0022 c 0,0 -0.68224,-2.248009 -0.501813,-3.384487 0.160797,-1.012834 0.643151,-1.99014 1.344509,-2.718009 0.635776,-0.659809 1.683736,-1.030385 2.57002,-1.262897 0.894006,-0.234539 1.752381,-0.200647 2.619335,-0.09263 1.370551,0.170776 2.789377,0.455238 3.978318,1.158087 1.149174,0.679343 2.285976,1.612249 2.834378,2.829362 0.438253,0.972647 0.193133,3.194632 0.193133,3.194632 l 3.742897,-0.495938 2.228568,-0.635377 c 0,0 1.100659,1.684213 1.882839,2.286848 1.165748,0.898156 2.554126,2.050486 4.011211,1.844193 0.422241,-0.05977 0.654324,-0.982452 0.691017,-1.545605 0.08315,-1.276284 -1.098295,-3.676424 -1.098295,-3.676424 l 2.003755,-0.839812 c 0,0 0.566423,1.484429 1.139364,1.990678 0.912541,0.806318 2.198594,1.077544 3.369925,1.410507 2.190872,0.622777 6.748416,1.071803 6.748416,1.071803 0,0 -2.969918,-3.211131 -3.722638,-5.20779 -0.615123,-1.631668 -0.617437,-3.463654 -0.524468,-5.204939 0.107125,-2.006414 0.466155,-4.044515 1.239494,-5.899002 0.586287,-1.405934 2.516065,-3.814818 2.516065,-3.814818 l -3.438512,-0.02804 c 0,0 -2.719345,1.171899 -3.870884,2.076209 -1.28272,1.007324 -3.26906,3.64059 -3.26906,3.64059 l -1.434984,2.249779 -3.655369,-2.443422 -6.365948,-5.480204 -7.238646,-4.025951 -2.460306,-0.651187 c 0,0 -0.890756,-3.137496 -0.76719,-4.729972 0.07713,-0.993966 0.928537,-2.843071 0.928537,-2.843071 l 0.55985,-2.279979 -2.416164,-0.291837 c 0,0 -2.076158,0.251648 -2.676267,0.455186 z"
       id="path12010-9"
       sodipodi:nodetypes="ssccssccccccccsssssscccsssccsscsssccsccccccscccs" />
    <path
       style="fill:url(#linearGradient15053);fill-opacity:1;stroke:none;stroke-width:0.529091px;stroke-linecap:butt;stroke-linejoin:miter;stroke-opacity:1"
       d="m 34.525653,20.233233 c -0.415055,-0.687016 -0.582572,-1.599767 -0.219149,-2.507305 0.418407,-1.044855 1.460918,-2.239061 2.40404,-2.853314 1.027431,-0.669164 2.121785,-1.240292 3.397807,-1.409066 1.461354,-0.193293 3.253114,0.08149 4.681139,0.447071 0.750206,0.192053 1.514986,0.487467 2.0987,0.996366 0.946695,0.825354 2.064842,3.151728 2.064842,3.151728 l 0.323588,1.156701 c 0,0 2.38216,0.400226 3.186563,1.201155 0.52802,0.52574 0.796224,1.346126 0.797498,2.08827 0.0011,0.617479 -0.688707,1.835625 -0.688707,1.835625 l -1.322154,0.879061 -2.664323,0.578478 -2.22981,-0.124762 2.702624,1.056005 2.234487,1.402814 2.722715,2.236943 c 0,0 0.800007,1.046429 0.936624,1.669825 0.203093,0.926726 -0.226604,2.837121 -0.226604,2.837121 l -1.85049,2.330116 -1.676196,1.981117 c 0,0 -0.878784,-0.06863 -1.228621,-0.177155 C 49.620386,38.901502 47.309285,37.5964 47.309285,37.5964 l -1.30464,-0.453671 0.917039,-2.29736 c 0,0 0.237748,-0.797846 0.03835,-1.109644 -0.414056,-0.647473 -2.125125,-0.89432 -2.125125,-0.89432 l -1.756548,-1.713448 -1.016265,-1.395392 -0.402095,-1.345571 -0.339323,-1.224959 -2.32412,-1.595753 0.288079,-0.469448 -2.55796,-3.28453 -1.232122,-1.049638 c 0,0 -0.752032,-0.170456 -0.968906,-0.529433 z"
       id="path12008-1"
       sodipodi:nodetypes="ssssssccsscccccccscccscccscccccccccs" />
    <path
       style="fill:url(#linearGradient12703-6);fill-opacity:1;stroke:none;stroke-width:0.529091px;stroke-linecap:butt;stroke-linejoin:miter;stroke-opacity:1"
       d="m 27.326879,48.556604 c -0.612624,0.919891 -0.833091,2.150561 -0.680142,3.245145 0.189553,1.356583 1.085059,2.545656 1.91311,3.636794 1.257551,1.657097 2.794399,3.149268 4.537537,4.284551 0.966882,0.629717 2.072153,1.059994 3.191257,1.341081 1.144245,0.287399 2.461167,0.846297 3.52362,0.333375 0.343785,-0.165977 0.595424,-0.579261 0.624678,-0.959891 0.05083,-0.661317 -0.499078,-1.2323 -0.817733,-1.814007 -0.31104,-0.567804 -0.846229,-1.015657 -1.062432,-1.625907 -0.254137,-0.717319 -0.256722,-1.510477 -0.232892,-2.271112 0.02318,-0.739438 0.319743,-1.450853 0.364169,-2.189319 0.03645,-0.606055 0.122763,-1.247807 -0.08131,-1.819638 -0.188394,-0.527942 -0.626732,-0.934707 -1.005471,-1.347956 -0.406819,-0.44389 -0.842007,-0.876235 -1.348466,-1.201871 -0.823322,-0.529368 -1.728219,-0.988367 -2.687382,-1.183541 -1.316534,-0.267895 -2.74983,-0.353253 -4.03018,0.05385 -0.851342,0.270696 -1.713185,0.774901 -2.208365,1.518444 z"
       id="path2546"
       sodipodi:nodetypes="sssssssssssssssss" />
    <path
       id="path2561-2"
       style="fill:#ffffff;fill-opacity:1;fill-rule:nonzero;stroke:none;stroke-width:0.529091px;stroke-linecap:butt;stroke-linejoin:miter;stroke-opacity:1"
       d="m 30.602176,35.124526 -1.025118,0.149839 c 0,0 -2.396952,1.672848 -3.603406,2.497686 -1.49532,1.022332 -3.053648,1.955035 -4.50555,3.038146 -1.046263,0.780506 -3.02368,2.488388 -3.02368,2.488388 0,0 -0.269246,0.82221 -0.627264,0.93211 -0.404683,0.124223 -1.178056,-0.474323 -1.178056,-0.474323 l -3.32336,-1.947926 -0.296262,-6.874811 c 0,0 -1.155241,0.6046 -1.898641,0.855353 -1.5488679,0.522441 -3.0818659,1.119025 -4.5313839,1.874558 -1.077058,0.561397 -2.278953,1.040884 -3.070181,1.962394 -0.410087,0.477611 -0.627544,1.112395 -0.764703,1.726783 -0.113964,0.510458 -0.159737,1.045654 -0.159257,1.568677 7.76e-4,0.826777 0.0082,2.094717 0.184314,2.479603 0.549111,1.200596 1.226069,1.335359 2.132768,2.268682 1.035212,1.06561 2.552056,1.881007 3.925083,2.592257 0.982805,0.50911 2.1136119,0.656204 3.1359019,1.080496 1.056075,0.438314 2.114016,1.097957 3.257223,1.075752 0.428722,-0.0084 0.953694,-0.103065 1.204925,-0.450554 0.253674,-0.350877 0.05063,-1.297929 0.05063,-1.297929 0,0 -1.255883,-1.501393 -1.680282,-2.372648 -0.595898,-1.223332 -1.168755,-3.911356 -1.168755,-3.911356 l 4.182101,1.757785 c 0,0 1.041805,0.858527 1.651345,0.802939 0.258112,-0.02354 0.51585,-0.429412 0.62623,-0.663915 0.218341,-0.463868 -0.08681,-1.332582 -0.08681,-1.332582 l 0.603497,-0.777105 6.538214,-4.788697 4.556186,-2.813902 z m -19.136189,1.574876 -0.205643,4.877567 -2.5359229,-0.331715 0.07233,-3.161119 z m -5.6236719,2.462551 c 0.287139,-0.155518 0.979648,0 0.979648,0 l -0.276947,2.314778 -1.813257,0.192053 c 0,0 -0.315382,-0.14284 -0.336181,-0.289193 -0.124182,-0.873825 0.670648,-1.797299 1.446737,-2.217632 z m 3.268591,4.234804 2.8211349,0.517725 0.739904,3.507302 0.78227,2.721933 -2.602058,-0.82464 -0.723368,-0.715102 z m -4.439415,0.103345 2.008898,0.06821 0.553894,2.366446 c 0,0 0.254498,1.053504 -0.119864,1.170823 -1.062226,0.332884 -2.175271,-2.533855 -2.175271,-2.533855 z m 42.3902569,-6.682147 3.445555,2.014409 -1.032235,1.252593 -0.02,0.800643 c 0,0 2.58298,4.174609 3.899711,5.646751 0.653522,0.730657 -0.42518,1.603192 -0.42518,1.603192 0,0 -3.54183,2.464105 -5.546439,2.349678 -0.432631,-0.0247 -0.86811,-0.295955 -1.131541,-0.640022 -0.314732,-0.41107 -0.449859,-0.990853 -0.385506,-1.504558 0.06481,-0.517432 0.364991,-1.021287 0.750135,-1.372857 0.689295,-0.629212 2.568938,-1.113495 2.568938,-1.113495 0,0 -3.474021,-2.9832 -4.074426,-5.065211 -0.128262,-0.444765 -0.0026,-0.946171 0.160577,-1.379354 0.370102,-0.982629 1.790408,-2.591769 1.790408,-2.591769 z m -2.620951,-9.040147 c -0.787765,0.191833 -1.509148,0.604233 -2.12974,1.174957 -0.467806,0.430213 -0.648419,1.281233 -1.161727,1.76252 -0.57779,0.541745 -1.342726,0.849956 -2.063941,1.177342 -0.654966,0.297312 -1.349904,0.499967 -2.038725,0.707094 -0.725862,0.218264 -1.447858,0.498152 -2.203018,0.563325 -0.490328,0.04231 -0.985995,-0.193173 -1.471944,-0.115284 -0.516582,0.08279 -1.205027,0.1421 -1.448068,0.605393 -0.27076,0.516129 0.05799,1.213365 0.362017,1.710629 0.344743,0.563871 0.904486,1.066064 1.539409,1.249566 0.640238,0.185034 1.437905,0.1427 1.985148,-0.237657 0.451783,-0.314003 0.75512,-1.467701 0.75512,-1.467701 0,0 1.676272,0.031 2.253593,-0.0296 1.29005,-0.135381 2.010784,-0.482688 3.242733,-0.888718 0.697128,-0.229762 1.408146,-0.447823 2.050189,-0.803575 0.684354,-0.379195 1.307274,-0.870982 1.884875,-1.398719 0.612424,-0.559556 1.378266,-1.075527 1.656966,-1.856865 0.167057,-0.46834 0.192833,-1.06491 -0.06459,-1.490326 -0.208663,-0.344819 -0.658054,-0.49694 -1.045833,-0.606807 -0.674517,-0.191113 -1.421302,-0.221444 -2.102464,-0.05557 z m -7.929569,-6.823993 0.145219,2.044088 -0.730571,0.786074 c 0,0 0.04605,1.440077 0.369016,2.05747 0.262239,0.501295 0.690151,0.956609 1.201421,1.198827 0.785153,0.371972 1.724917,0.289977 2.593265,0.261635 0.584909,-0.019 1.731586,-0.289767 1.731586,-0.289767 l 3.786629,-1.204372 0.596556,-0.804967 -2.176714,-1.673502 -1.49303,-1.725379 -0.442989,-1.143559 z"
       sodipodi:nodetypes="ccsscscccssssssssssscsccssccccccccccccccssccccccccccsccccccsccsssscssccssssssssscsssssssscccsssccccccccc" />
  </g>
</svg>
