<?xml version="1.0" encoding="UTF-8" standalone="no"?>
<!-- Created with Inkscape (http://www.inkscape.org/) -->

<svg
   width="256"
   height="256"
   viewBox="0 0 67.733332 67.733333"
   version="1.1"
   id="svg76171"
   xml:space="preserve"
   inkscape:version="1.2.1 (9c6d41e410, 2022-07-14, custom)"
   sodipodi:docname="s3_ink_armor.svg"
   inkscape:export-filename="inkarmor.png"
   inkscape:export-xdpi="96"
   inkscape:export-ydpi="96"
   xmlns:inkscape="http://www.inkscape.org/namespaces/inkscape"
   xmlns:sodipodi="http://sodipodi.sourceforge.net/DTD/sodipodi-0.dtd"
   xmlns:xlink="http://www.w3.org/1999/xlink"
   xmlns="http://www.w3.org/2000/svg"
   xmlns:svg="http://www.w3.org/2000/svg"><sodipodi:namedview
     id="namedview76173"
     pagecolor="#3c3c3c"
     bordercolor="#666666"
     borderopacity="1.0"
     inkscape:showpageshadow="2"
     inkscape:pageopacity="0"
     inkscape:pagecheckerboard="0"
     inkscape:deskcolor="#d1d1d1"
     inkscape:document-units="mm"
     showgrid="false"
     inkscape:zoom="2.8779947"
     inkscape:cx="55.073069"
     inkscape:cy="128.73547"
     inkscape:window-width="1916"
     inkscape:window-height="1036"
     inkscape:window-x="0"
     inkscape:window-y="20"
     inkscape:window-maximized="1"
     inkscape:current-layer="layer1" /><defs
     id="defs76168"><linearGradient
       id="linearGradient876"
       inkscape:swatch="solid"><stop
         style="stop-color:#000000;stop-opacity:1;"
         offset="0"
         id="stop874" /></linearGradient><linearGradient
       id="linearGradient870"
       inkscape:swatch="solid"><stop
         style="stop-color:#000000;stop-opacity:1;"
         offset="0"
         id="stop867" /></linearGradient><linearGradient
       id="linearGradient865"
       inkscape:swatch="solid"><stop
         style="stop-color:#000000;stop-opacity:1;"
         offset="0"
         id="stop863" /></linearGradient><linearGradient
       id="linearGradient3086"
       inkscape:swatch="solid"><stop
         style="stop-color:#3a0dcd;stop-opacity:1;"
         offset="0"
         id="stop3084" /></linearGradient><linearGradient
       id="linearGradient3052"
       inkscape:swatch="gradient"><stop
         style="stop-color:#3a0dcd;stop-opacity:1;"
         offset="0"
         id="stop3048" /><stop
         style="stop-color:#3a0dcd;stop-opacity:0;"
         offset="1"
         id="stop3050" /></linearGradient><linearGradient
       id="linearGradient3038"
       inkscape:swatch="solid"><stop
         style="stop-color:#000000;stop-opacity:1;"
         offset="0"
         id="stop3036" /></linearGradient><linearGradient
       id="linearGradient1182"
       inkscape:swatch="gradient"><stop
         style="stop-color:#5220f2;stop-opacity:1;"
         offset="0"
         id="stop1178" /><stop
         style="stop-color:#330bb2;stop-opacity:1;"
         offset="1"
         id="stop1180" /></linearGradient><linearGradient
       id="linearGradient1004"
       inkscape:swatch="gradient"><stop
         style="stop-color:#3a0dcd;stop-opacity:1;"
         offset="0"
         id="stop1000" /><stop
         style="stop-color:#320bb1;stop-opacity:1;"
         offset="1"
         id="stop1002" /></linearGradient><linearGradient
       id="linearGradient78115"
       inkscape:swatch="solid"><stop
         style="stop-color:#3a0dcd;stop-opacity:1;"
         offset="0"
         id="stop78113" /></linearGradient><linearGradient
       id="linearGradient78103"
       inkscape:swatch="solid"><stop
         style="stop-color:#3a0dcd;stop-opacity:1;"
         offset="0"
         id="stop78101" /></linearGradient><linearGradient
       id="linearGradient78097"
       inkscape:swatch="solid"><stop
         style="stop-color:#ffffff;stop-opacity:1;"
         offset="0"
         id="stop78095" /></linearGradient><linearGradient
       inkscape:collect="always"
       xlink:href="#linearGradient865"
       id="linearGradient867"
       x1="12.903942"
       y1="38.067516"
       x2="53.534305"
       y2="38.067516"
       gradientUnits="userSpaceOnUse" /><linearGradient
       inkscape:collect="always"
       xlink:href="#linearGradient865"
       id="linearGradient869"
       x1="18.044435"
       y1="12.770744"
       x2="49.688899"
       y2="12.770744"
       gradientUnits="userSpaceOnUse" /><linearGradient
       inkscape:collect="always"
       xlink:href="#linearGradient3086"
       id="linearGradient872"
       x1="12.903942"
       y1="38.067516"
       x2="53.534306"
       y2="38.067516"
       gradientUnits="userSpaceOnUse" /><linearGradient
       inkscape:collect="always"
       xlink:href="#linearGradient3086"
       id="linearGradient878"
       x1="18.044436"
       y1="12.770744"
       x2="49.6889"
       y2="12.770744"
       gradientUnits="userSpaceOnUse" /></defs><g
     inkscape:label="Layer 1"
     inkscape:groupmode="layer"
     id="layer1"><path
       id="path78093"
       class="ink"
       style="fill-opacity:1.0;stroke:none;stroke-width:0.661187px;stroke-linecap:butt;stroke-linejoin:miter;stroke-opacity:1;fill:url(#linearGradient872)"
       d="m 22.79153,13.526582 -3.917379,-1.661492 -3.612373,3.156672 c 0,0 -1.251293,2.267037 -0.894473,3.374741 0.38879,1.206963 2.937655,2.4169 2.937655,2.4169 l 6.673971,1.206127 5.03627,3.380535 9.278701,-0.07148 2.911462,-2.940985 9.272794,-2.082539 c 0,0 1.865648,-1.745383 1.834441,-2.954944 -0.02303,-0.89239 -1.372976,-2.011482 -1.372976,-2.011482 l -3.548182,-2.294289 -0.742206,1.548722 -4.458994,-5.7255147 c 0,0 -17.288915,0.2034317 -17.5087,0.1026172 z m -0.227313,8.55219 0.251486,8.442186 1.84292,8.957766 -0.336812,5.593229 h 18.280153 v -5.177175 l 2.428697,-9.938982 v -8.116063 z m 21.362735,9.607357 c 0,0 2.269999,-0.488056 3.352627,-0.202769 0.9476,0.249708 1.92816,0.781369 2.465938,1.600571 0.477668,0.727633 0.510882,1.708062 0.433383,2.575018 -0.123518,1.381971 -1.407782,3.917147 -1.407782,3.917147 0,0 -1.71455,0.883363 -2.117811,1.051302 -0.403267,0.16794 -0.195405,0.873059 -0.128603,1.305046 0.08454,0.546723 -0.14294,1.227619 0.286404,1.576487 0.617657,0.501865 1.884632,0.445777 2.662276,0.615026 0.74065,0.161204 1.87867,0.02595 2.574934,-0.273657 0.846163,-0.364098 0.723331,-0.939588 1.078567,-1.789504 0.132702,-0.317481 0.388304,-0.674068 0.268698,-0.996708 -0.236783,-0.638742 -1.689612,-1.149668 -1.689612,-1.149668 0,0 0.261448,-1.049136 0.426274,-1.56359 0.411284,-1.283615 1.386424,-2.445149 1.40173,-3.79296 0.01852,-1.629063 -0.744328,-3.229053 -1.589621,-4.621774 -0.53265,-0.877601 -1.330785,-1.577745 -2.121155,-2.232891 -1.703305,-1.411891 -5.576387,-3.599454 -5.576387,-3.599454 z M 22.625745,24.063205 c 0,0 -3.873082,2.187564 -5.576387,3.599453 -0.79037,0.655148 -3.280342,4.005347 -3.812988,4.882951 -0.845294,1.39272 0.140337,2.673244 0.54434,3.933876 0.210289,0.656142 0.707577,1.189531 0.959602,1.830799 0.197595,0.502782 0.426272,1.563591 0.426272,1.563591 0,0 -0.942134,0.459655 -1.178917,1.098395 -0.119606,0.32264 -0.355694,1.241853 -0.239302,1.854017 0.108451,0.570506 -0.0044,1.161336 0.841553,1.525436 0.696266,0.2996 2.079782,0.216884 2.820431,0.0557 0.777646,-0.169248 1.665784,-0.488309 2.283442,-0.990175 0.429352,-0.348868 0.569511,-0.97862 0.654067,-1.525342 0.0668,-0.431988 0.119709,-0.945293 -0.128603,-1.305045 -0.44769,-0.648633 -2.117809,-1.051304 -2.117809,-1.051304 0,0 -1.284264,-2.535175 -1.407782,-3.917148 -0.0775,-0.866955 -0.04429,-1.847384 0.433381,-2.575017 0.537778,-0.819201 1.51834,-1.350862 2.46594,-1.60057 1.082628,-0.285289 4.196084,0.144267 4.196084,0.144267 z m -1.898395,36.821654 -1.331898,1.535264 c 0,0 -2.24252,0.227331 -3.120609,0.853343 -0.40309,0.287374 -0.837367,1.226538 -0.837367,1.226538 0,0 3.522415,1.454291 3.875182,1.557639 0.994846,0.291451 5.072099,1.209835 5.072099,1.209835 l 0.379252,-1.717847 0.344167,-1.827535 c 0,0 0.705902,-4.083974 1.117772,-5.695283 0.74661,-2.920865 2.45212,-7.872822 2.45212,-7.872822 0,0 2.440602,-2.66053 4.096338,-2.899508 1.161557,-0.16765 4.261914,3.38856 4.261914,3.38856 0,0 2.06704,4.622802 2.893521,7.012639 0.671429,1.94149 1.671028,5.932066 1.671028,5.932066 l -0.04925,2.844722 7.224919,-0.558578 2.501022,-0.371281 c 0,0 -1.077202,-1.334872 -1.728128,-1.885411 C 48.48278,62.715043 46.376327,62.907924 46.032777,61.337328 45.057333,56.877915 42.147854,44.611509 42.147854,44.611509 H 24.377841 Z" /><path
       class="ink"
       style="fill-opacity:1.0;stroke:none;stroke-width:0.661187px;stroke-linecap:butt;stroke-linejoin:miter;stroke-opacity:1;fill:url(#linearGradient878)"
       d="m 18.971368,11.634113 -0.786672,7.226067 c 0,0 -0.444043,2.947075 0.248024,4.146257 0.556221,0.963799 1.675071,1.769277 2.785617,1.839815 0.912375,0.05796 2.461392,-1.209808 2.461392,-1.209808 0,0 1.470723,-1.922423 1.484412,-3.054318 0.0175,-1.445164 -1.603955,-2.512489 -1.80038,-3.944349 -0.241652,-1.761519 0.119827,-3.638032 0.826314,-5.26966 0.28559,-0.659563 1.324929,-1.7011222 1.324929,-1.7011222 h 13.852421 l 1.554716,1.5547232 c 0,0 1.175764,2.873743 1.175764,4.388011 0,1.324847 -1.028683,2.514262 -1.028683,3.839109 0,1.331189 1.033617,3.857495 1.033617,3.857495 0,0 2.094443,0.85692 3.198072,0.85692 1.166459,0 2.555323,-0.0809 3.380132,-0.905703 0.917837,-0.917837 1.007856,-2.463348 1.007856,-3.761365 0,-1.752685 -1.36089,-5.078888 -1.36089,-5.078888 0,0 -0.664496,-3.541671 -1.386638,-5.1750056 C 46.133481,7.415017 45.290723,5.78637 43.703048,4.1986933 42.462258,2.9579048 41.427562,1.9284628 39.732614,1.4743028 37.436828,0.85914906 34.247811,0.52751564 31.884139,0.77668796 29.654625,1.0117177 27.32462,1.343147 25.306382,2.17913 c -1.709649,0.7081605 -3.701065,2.2739634 -3.701065,2.2739634 0,0 -1.686386,1.12184 -1.975379,3.0148869 -0.100866,0.6607566 -0.65857,4.1661327 -0.65857,4.1661327 z"
       id="path78111"
       sodipodi:nodetypes="ccsscssscccsscssscssssscsc" /><path
       style="fill:#f4f4f4;fill-opacity:1;stroke:none;stroke-width:0.449963px;stroke-linecap:butt;stroke-linejoin:miter;stroke-opacity:1"
       d="m 22.762066,16.476977 c 0,0 3.807944,-0.154028 4.928008,-1.492804 1.463948,-1.749822 1.303652,-6.6661521 1.303652,-6.6661521 0,0 0.265194,4.8176401 1.537602,6.7732961 0.805339,1.23778 3.277299,1.653716 3.912694,-0.0051 0.638801,-1.667723 0.770142,-7.0292182 0.770142,-7.0292182 0,0 0.698746,4.3426132 1.398463,6.6843492 0.309043,1.034271 5.373838,1.325805 5.373838,1.325805 0,0 -3.836773,-0.398676 -4.884925,1.212066 -0.933602,1.434705 -1.239765,4.774353 -1.239765,4.774353 0,0 -0.209556,-3.584502 -1.218661,-4.896293 -1.022137,-1.328727 -3.119253,-0.979147 -4.191934,0.257652 -1.151979,1.328228 -1.174764,4.697591 -1.174764,4.697591 0,0 0.09763,-3.585075 -1.206112,-4.804087 -1.429898,-1.336964 -5.308238,-0.831446 -5.308238,-0.831446 z"
       id="path303"
       sodipodi:nodetypes="cscsscscscsscsc" /></g></svg>
