<?xml version="1.0" encoding="UTF-8" standalone="no"?>
<!-- Created with Inkscape (http://www.inkscape.org/) -->

<svg
   width="256"
   height="256"
   viewBox="0 0 67.733333 67.733333"
   version="1.1"
   id="svg5"
   xml:space="preserve"
   sodipodi:docname="s_slosher.svg"
   inkscape:version="1.2.1 (9c6d41e410, 2022-07-14, custom)"
   inkscape:export-filename="s_slosher.png"
   inkscape:export-xdpi="118.22546"
   inkscape:export-ydpi="118.22546"
   xmlns:inkscape="http://www.inkscape.org/namespaces/inkscape"
   xmlns:sodipodi="http://sodipodi.sourceforge.net/DTD/sodipodi-0.dtd"
   xmlns:xlink="http://www.w3.org/1999/xlink"
   xmlns="http://www.w3.org/2000/svg"
   xmlns:svg="http://www.w3.org/2000/svg"><sodipodi:namedview
     id="namedview7"
     pagecolor="#ffffff"
     bordercolor="#666666"
     borderopacity="1.0"
     inkscape:showpageshadow="2"
     inkscape:pageopacity="0.0"
     inkscape:pagecheckerboard="0"
     inkscape:deskcolor="#d1d1d1"
     inkscape:document-units="mm"
     showgrid="false"
     inkscape:zoom="4.2158846"
     inkscape:cx="74.12442"
     inkscape:cy="101.40221"
     inkscape:window-width="1916"
     inkscape:window-height="1036"
     inkscape:window-x="0"
     inkscape:window-y="20"
     inkscape:window-maximized="1"
     inkscape:current-layer="layer1" /><defs
     id="defs2"><linearGradient
       id="linearGradient911"
       inkscape:swatch="solid"><stop
         style="stop-color:#de7c49;stop-opacity:1;"
         offset="0"
         id="stop909" /></linearGradient><linearGradient
       id="linearGradient903"
       inkscape:swatch="solid"><stop
         style="stop-color:#92958a;stop-opacity:1;"
         offset="0"
         id="stop901" /></linearGradient><linearGradient
       id="linearGradient897"
       inkscape:swatch="solid"><stop
         style="stop-color:#92958a;stop-opacity:1;"
         offset="0"
         id="stop895" /></linearGradient><linearGradient
       id="linearGradient891"
       inkscape:swatch="solid"><stop
         style="stop-color:#92958a;stop-opacity:1;"
         offset="0"
         id="stop889" /></linearGradient><linearGradient
       id="linearGradient885"
       inkscape:swatch="solid"><stop
         style="stop-color:#919489;stop-opacity:1;"
         offset="0"
         id="stop883" /></linearGradient><linearGradient
       id="linearGradient879"
       inkscape:swatch="solid"><stop
         style="stop-color:#91948a;stop-opacity:1;"
         offset="0"
         id="stop877" /></linearGradient><clipPath
       clipPathUnits="userSpaceOnUse"
       id="clipPath45897"><use
         x="0"
         y="0"
         xlink:href="#g45893"
         id="use45899" /></clipPath><linearGradient
       inkscape:collect="always"
       xlink:href="#linearGradient911"
       id="linearGradient913"
       x1="30.376418"
       y1="27.764736"
       x2="35.531987"
       y2="27.764736"
       gradientUnits="userSpaceOnUse" /><linearGradient
       inkscape:collect="always"
       xlink:href="#linearGradient911"
       id="linearGradient915"
       x1="28.634643"
       y1="29.851896"
       x2="33.790212"
       y2="29.851896"
       gradientUnits="userSpaceOnUse" /><linearGradient
       inkscape:collect="always"
       xlink:href="#linearGradient911"
       id="linearGradient917"
       x1="27.018967"
       y1="31.825456"
       x2="32.174536"
       y2="31.825456"
       gradientUnits="userSpaceOnUse" /><linearGradient
       inkscape:collect="always"
       xlink:href="#linearGradient911"
       id="linearGradient919"
       x1="25.299165"
       y1="33.831597"
       x2="30.542516"
       y2="33.831597"
       gradientUnits="userSpaceOnUse" /><linearGradient
       inkscape:collect="always"
       xlink:href="#linearGradient911"
       id="linearGradient921"
       x1="23.80855"
       y1="35.695882"
       x2="29.259135"
       y2="35.695882"
       gradientUnits="userSpaceOnUse" /></defs><g
     inkscape:label="Layer 1"
     inkscape:groupmode="layer"
     id="layer1"><path
       style="fill:#2a2827;fill-opacity:1;stroke:none;stroke-width:0.264583px;stroke-linecap:butt;stroke-linejoin:miter;stroke-opacity:1"
       d="m 18.483718,56.149084 0.8681,-0.74224 36.678263,-4.15265 -5.28842,-7.44419 -5.19105,-8.68249 -3.56748,-7.57031 -1.58262,-7.84163 -4.99392,3.33083 -9.200973,3.93719 -4.73833,2.57046 -3.78697,1.62718 -2.32881,0.91761 0.52458,5.35309 -0.27916,13.33447 1.03074,2.77623 1.06411,2.50205 z"
       id="path1994" /><circle
       style="fill:#742600;fill-opacity:1;fill-rule:evenodd;stroke:none;stroke-width:0.264583;stroke-opacity:1"
       id="path58870"
       cx="19.072792"
       cy="46.421406"
       r="1.5973793" /><path
       style="fill:#6d6f69;fill-opacity:1;stroke:none;stroke-width:0.264583px;stroke-linecap:butt;stroke-linejoin:miter;stroke-opacity:1"
       d="m 19.344828,44.0191 -0.52837,1.39344 -0.363202,0.75865 c 0,0 0.0903,0.30774 0.359559,0.48271 0.269253,0.17495 1.128995,-1.56853 1.128995,-1.56853 l 0.575162,-0.96462 z"
       id="path59907" /><path
       style="fill:#0b0b0b;fill-opacity:1;stroke:none;stroke-width:0.264583px;stroke-linecap:butt;stroke-linejoin:miter;stroke-opacity:1"
       d="m 46.548131,9.43369 -2.82076,2.47101 -3.36197,4.14452 -2.04138,2.72084 c 0,0 0.28289,-0.68914 -1.375903,0 -1.658789,0.68914 -3.315406,2.48814 -3.315406,2.48814 l -0.763239,1.14487 -1.230159,-1.01838 c 0,0 -1.698148,-0.0311 -2.234006,1.19733 -0.535861,1.22846 -4.512056,9.297 -4.512056,9.297 l -1.313672,2.86197 -1.480516,3.02466 -1.28411,2.02783 -1.455717,2.40392 -0.361111,2.01494 1.822889,1.85561 0.680556,1.37655 3.875932,-1.84884 -0.992878,-1.64896 -0.655839,-0.5404 1.651162,-3.91129 4.300349,-5.42661 5.13112,-6.46318 0.996172,-3.50581 1.871652,-0.67475 c 0,0 5.72583,-7.35123 6.05826,-7.35123 0.33243,0 4.64608,-4.64291 4.64608,-4.64291 z"
       id="path16171" /><path
       style="fill:#6b6d67;fill-opacity:1;stroke:#6c6e68;stroke-width:0.264583px;stroke-linecap:butt;stroke-linejoin:miter;stroke-opacity:1"
       d="m 31.199423,24.27116 c 0.115729,0.0223 5.068787,4.00939 5.068787,4.00939 l 1.617301,-1.95334 -4.937763,-3.99131 c 0,0 -1.841524,1.94352 -1.748325,1.93526 z"
       id="path22637" /><path
       style="fill:#6d6f69;fill-opacity:1;stroke:#6d6f69;stroke-width:0.264583px;stroke-linecap:butt;stroke-linejoin:miter;stroke-opacity:1"
       d="m 21.779087,36.0495 5.343398,4.2927 1.126496,-1.40444 -5.310442,-4.2604 z"
       id="path27817" /><path
       style="fill:url(#linearGradient921);fill-opacity:1;stroke:none;stroke-width:0.268438px;stroke-linecap:butt;stroke-linejoin:miter;stroke-opacity:1"
       d="m 23.955835,34.0582 4.318564,4.25206 0.610809,-0.16242 0.227503,-1.159 -4.379779,-3.91559 -0.788616,0.10441 z"
       id="path30132" /><path
       style="fill:url(#linearGradient919);fill-opacity:1;stroke:none;stroke-width:0.268438px;stroke-linecap:butt;stroke-linejoin:miter;stroke-opacity:1"
       d="m 25.436043,32.03291 4.035416,4.52167 0.62001,-0.1227 0.301759,-1.14192 -4.118198,-4.18984 -0.793707,0.0533 z"
       id="path30132-3" /><path
       style="fill:url(#linearGradient917);fill-opacity:1;stroke:none;stroke-width:0.268438px;stroke-linecap:butt;stroke-linejoin:miter;stroke-opacity:1"
       d="m 27.157101,29.96136 3.91144,4.62933 0.623107,-0.10586 0.332583,-1.13333 -4.003181,-4.29986 -0.794861,0.0318 z"
       id="path30132-6" /><path
       style="fill:url(#linearGradient915);fill-opacity:1;stroke:none;stroke-width:0.268438px;stroke-linecap:butt;stroke-linejoin:miter;stroke-opacity:1"
       d="m 28.772777,27.9878 3.91144,4.62933 0.623107,-0.10586 0.332583,-1.13333 -4.003181,-4.29986 -0.794861,0.0318 z"
       id="path30132-6-7" /><path
       style="fill:url(#linearGradient913);fill-opacity:1;stroke:none;stroke-width:0.268438px;stroke-linecap:butt;stroke-linejoin:miter;stroke-opacity:1"
       d="m 30.514552,25.90064 3.91144,4.62933 0.623107,-0.10586 0.332583,-1.13333 -4.003181,-4.29986 -0.794861,0.0318 z"
       id="path30132-6-5" /><g
       id="g45905"
       transform="translate(-62.591729,-141.33876)"><circle
         style="fill:#92958a;fill-opacity:1;fill-rule:evenodd;stroke:#6d6f69;stroke-width:0.264583;stroke-opacity:1"
         id="path41524"
         cx="84.930428"
         cy="182.25687"
         r="2.5974607" /><g
         id="g45895"
         clip-path="url(#clipPath45897)"
         style="fill:#000000;fill-opacity:1;fill-rule:evenodd;stroke:none;stroke-opacity:1"
         transform="translate(5.6721012,1.3794511)"><g
           inkscape:label="Clip"
           id="g45893"
           style="fill:#000000;fill-opacity:1;fill-rule:evenodd;stroke:none;stroke-opacity:1"><path
             id="path42252"
             style="fill:#000000;fill-opacity:1;stroke:none;stroke-width:0.264583"
             d="m 79.754288,180.88309 a 0.51046807,0.51046807 0 0 1 -0.510468,0.51047 0.51046807,0.51046807 0 0 1 -0.510468,-0.51047 0.51046807,0.51046807 0 0 1 0.510468,-0.51047 0.51046807,0.51046807 0 0 1 0.510468,0.51047 z" /></g></g></g><path
       style="fill:#bf05d1;fill-opacity:1;stroke:none;stroke-width:0.264583px;stroke-linecap:butt;stroke-linejoin:miter;stroke-opacity:1"
       d="m 12.23922,47.616154 0.409614,1.80181 1.065975,1.93364 2.430015,1.5432 2.534854,-0.20817 24.387303,-7.04065 6.41091,6.70125 1.24331,0.47659 1.31185,-0.24391 0.4392,-1.21359 -0.60085,-1.1621 -5.16798,-7.17816 -2.40774,-3.49958 -3.37381,-1.30989 -8.699911,3.03439 2.666991,-3.05338 6.16232,-3.52491 2.30189,-2.08806 0.0701,-2.36077 -1.07583,-3.13817 -0.72097,-4.70952 0.45877,-3.71376 3.13712,-2.85856 1.56388,-1.4798 -0.13576,-2.52506 c 0,0 -0.67802,-1.22693 -0.95668,-1.22693 -0.27867,0 -2.35036,-0.11103 -2.35036,-0.11103 l -2.51804,1.28015 -1.36565,2.55597 -1.1865,2.76465 -0.72184,2.43441 -0.21149,3.9913 0.5762,4.73463 c 0,0 0.63143,1.98345 0.67316,2.24156 0.0417,0.25812 -2.96876,2.51803 -2.96876,2.51803 l -4.178677,2.76148 -3.896487,4.51666 -2.284833,4.15204 -8.914257,3.67615 0.218707,-16.02712 3.083211,-1.82792 1.177102,-2.32123 -0.249679,-9.5134 -1.787591,-0.7074 -0.857721,1.24405 0.266374,8.42538 -1.817666,1.52525 c 0,0 -2.182029,0.85783 -2.598888,0.97119 -0.416857,0.11335 -0.958392,2.50993 -0.958392,2.50993 l -0.714418,10.73476 z"
       id="path3639" /><circle
       style="fill:#76177c;fill-opacity:1;stroke:none;stroke-width:0.264583"
       id="path9342"
       cx="43.221039"
       cy="13.451632"
       r="0.78842258" /></g></svg>
