<?xml version="1.0" encoding="UTF-8" standalone="no"?>
<!-- Created with Inkscape (http://www.inkscape.org/) -->

<svg
   width="256"
   height="256"
   viewBox="0 0 67.733332 67.733333"
   version="1.1"
   id="svg5"
   xml:space="preserve"
   inkscape:version="1.2.2 (b0a8486541, 2022-12-01)"
   sodipodi:docname="sloshingmachine_zf.svg"
   inkscape:export-filename="sloshingmachine.png"
   inkscape:export-xdpi="96"
   inkscape:export-ydpi="96"
   xmlns:inkscape="http://www.inkscape.org/namespaces/inkscape"
   xmlns:sodipodi="http://sodipodi.sourceforge.net/DTD/sodipodi-0.dtd"
   xmlns="http://www.w3.org/2000/svg"
   xmlns:svg="http://www.w3.org/2000/svg"><sodipodi:namedview
     id="namedview7"
     pagecolor="#505050"
     bordercolor="#eeeeee"
     borderopacity="1"
     inkscape:showpageshadow="0"
     inkscape:pageopacity="0"
     inkscape:pagecheckerboard="0"
     inkscape:deskcolor="#505050"
     inkscape:document-units="mm"
     showgrid="false"
     inkscape:zoom="4.2479884"
     inkscape:cx="75.565178"
     inkscape:cy="85.452211"
     inkscape:window-width="1906"
     inkscape:window-height="1026"
     inkscape:window-x="5"
     inkscape:window-y="25"
     inkscape:window-maximized="1"
     inkscape:current-layer="layer1" /><defs
     id="defs2" /><g
     inkscape:label="Layer 1"
     inkscape:groupmode="layer"
     id="layer1"><g
       id="g4432"
       transform="translate(19.345153,-2.1467926)"><rect
         style="fill:#885e00;fill-opacity:1;stroke-width:0.633;paint-order:stroke fill markers"
         id="rect4422"
         width="6.1237955"
         height="1.4540431"
         x="16.118464"
         y="56.297226"
         transform="rotate(-5.2763091)" /><rect
         style="fill:#1d1b1a;fill-opacity:1;stroke-width:0.633;paint-order:stroke fill markers"
         id="rect4424"
         width="6.1237946"
         height="1.972976"
         x="16.1353"
         y="57.715294"
         transform="rotate(-5.2763091)" /><rect
         style="fill:#090909;fill-opacity:1;stroke-width:0.633;paint-order:stroke fill markers"
         id="rect4426"
         width="0.86794126"
         height="1.9729767"
         x="16.876865"
         y="57.715294"
         transform="rotate(-5.2763091)" /><rect
         style="fill:#090909;fill-opacity:1;stroke-width:0.633;paint-order:stroke fill markers"
         id="rect4428"
         width="0.86794126"
         height="1.9729767"
         x="18.616125"
         y="57.715294"
         transform="rotate(-5.2763091)" /><rect
         style="fill:#090909;fill-opacity:1;stroke-width:0.633;paint-order:stroke fill markers"
         id="rect4430"
         width="0.86794126"
         height="1.9729767"
         x="20.392262"
         y="57.715294"
         transform="rotate(-5.2763091)" /></g><rect
       style="fill:#556161;fill-opacity:1;stroke:none;stroke-width:0.633;paint-order:stroke fill markers"
       id="rect12820"
       width="5.6626129"
       height="2.8179514"
       x="4.6322174"
       y="31.301016"
       transform="rotate(-27.259306)"
       ry="0.97232121" /><rect
       style="fill:#81898b;fill-opacity:1;stroke:none;stroke-width:0.633;paint-order:stroke fill markers"
       id="rect12231"
       width="8.9526796"
       height="1.1911966"
       x="1.7304859"
       y="33.16993"
       transform="rotate(-29.313763)" /><rect
       style="fill:#576263;fill-opacity:1;stroke:none;stroke-width:0.633;paint-order:stroke fill markers"
       id="rect12177"
       width="4.1500573"
       height="2.4994562"
       x="42.889381"
       y="52.55785"
       ry="0"
       transform="rotate(-7.8353499)" /><path
       style="fill:#545f60;stroke:none;stroke-width:0.264583px;stroke-linecap:butt;stroke-linejoin:miter;stroke-opacity:1;fill-opacity:1"
       d="m 41.56597,17.571675 2.863477,-1.653231 1.257667,0.916944 0.226328,1.869389 -2.940886,1.690219 z"
       id="path9471" /><rect
       style="fill:#576263;fill-opacity:1;stroke:none;stroke-width:0.633;paint-order:stroke fill markers"
       id="rect12098"
       width="4.1500573"
       height="2.4994562"
       x="27.003382"
       y="46.48209"
       ry="0"
       transform="rotate(-30.138942)" /><rect
       style="fill:#868f90;fill-opacity:1;stroke:none;stroke-width:0.633;paint-order:stroke fill markers"
       id="rect12096"
       width="4.2196503"
       height="3.6756098"
       x="24.730536"
       y="45.889927"
       ry="0"
       transform="rotate(-30.138942)" /><rect
       style="fill:#868f90;fill-opacity:1;stroke:none;stroke-width:0.633;paint-order:stroke fill markers"
       id="rect10008"
       width="4.2196503"
       height="3.6756098"
       x="46.251724"
       y="45.47789"
       ry="0" /><path
       style="fill:#946024;fill-opacity:1;stroke:none;stroke-width:0.264583px;stroke-linecap:butt;stroke-linejoin:miter;stroke-opacity:1"
       d="m 22.967011,26.482437 10.517663,-5.855511 -0.637257,-7.136809 3.154127,-2.288105 c 0,0 3.982829,2.929418 5.597737,4.775354 1.685788,1.926956 2.992521,4.17763 4.164025,6.454167 1.443422,2.804945 2.68824,5.745838 3.488682,8.797145 0.764907,2.915848 1.244938,5.946148 1.222082,8.960569 -0.01659,2.187479 -0.435405,4.370943 -0.985327,6.488235 -0.494842,1.905223 -2.066555,5.53191 -2.066555,5.53191 l -6.383337,0.336159 -10.784769,1.111057 -2.807676,-0.499952 -6.131872,-25.307562 z"
       id="path13376"
       sodipodi:nodetypes="ccccssssscccccc" /><g
       id="g4420"
       transform="translate(-0.06072803,-0.52557835)"><rect
         style="fill:#885e00;fill-opacity:1;stroke-width:0.633;paint-order:stroke fill markers"
         id="rect499"
         width="6.1237955"
         height="1.4540431"
         x="16.118464"
         y="56.297226"
         transform="rotate(-5.2763091)" /><rect
         style="fill:#1d1b1a;fill-opacity:1;stroke-width:0.633;paint-order:stroke fill markers"
         id="rect2618"
         width="6.1237946"
         height="1.972976"
         x="16.1353"
         y="57.715294"
         transform="rotate(-5.2763091)" /><rect
         style="fill:#090909;fill-opacity:1;stroke-width:0.633;paint-order:stroke fill markers"
         id="rect3020"
         width="0.86794126"
         height="1.9729767"
         x="16.876865"
         y="57.715294"
         transform="rotate(-5.2763091)" /><rect
         style="fill:#090909;fill-opacity:1;stroke-width:0.633;paint-order:stroke fill markers"
         id="rect4333"
         width="0.86794126"
         height="1.9729767"
         x="18.616125"
         y="57.715294"
         transform="rotate(-5.2763091)" /><rect
         style="fill:#090909;fill-opacity:1;stroke-width:0.633;paint-order:stroke fill markers"
         id="rect4335"
         width="0.86794126"
         height="1.9729767"
         x="20.392262"
         y="57.715294"
         transform="rotate(-5.2763091)" /></g><path
       style="fill:#ded6bb;fill-opacity:1;stroke:none;stroke-width:0.264583px;stroke-linecap:butt;stroke-linejoin:miter;stroke-opacity:1"
       d="m 30.177454,53.610425 -2.7187,-10.364571 -2.713928,-10.128522 -1.777815,-6.634895 -4.992179,2.526254 -1.271465,-0.591402 -3.682461,-2.564189 -2.592558,1.437453 c 0,0 0.87062,5.77663 1.474865,8.632656 0.541903,2.561359 1.044088,5.149337 1.926213,7.614306 0.683946,1.911185 1.589095,3.745582 2.591356,5.510768 1.110002,1.954941 3.770436,5.59186 3.770436,5.59186 z"
       id="path4505"
       sodipodi:nodetypes="ccccccccssscc" /><rect
       style="fill:#d7cdac;fill-opacity:1;stroke-width:0.633;paint-order:stroke fill markers"
       id="rect4507"
       width="2.1259418"
       height="15.093727"
       x="7.1050663"
       y="35.484219"
       ry="1.0629709"
       transform="rotate(-15.072957)" /><rect
       style="fill:#d7cdac;fill-opacity:1;stroke-width:0.633;paint-order:stroke fill markers"
       id="rect4716"
       width="2.1765981"
       height="15.453379"
       x="10.697499"
       y="34.847454"
       ry="1.0629709"
       transform="rotate(-15.072957)" /><rect
       style="fill:#794e1f;fill-opacity:1;stroke-width:0.633;paint-order:stroke fill markers"
       id="rect4770"
       width="2.1294067"
       height="15.620553"
       x="17.532133"
       y="38.751434"
       ry="1.0629709"
       transform="rotate(-14.048298)" /><rect
       style="fill:#794e1f;fill-opacity:1;stroke-width:0.633;paint-order:stroke fill markers"
       id="rect5255"
       width="2.1294067"
       height="15.620553"
       x="21.207369"
       y="38.698647"
       ry="1.0629709"
       transform="rotate(-14.048298)" /><path
       style="fill:#90999a;fill-opacity:1;stroke:none;stroke-width:0.264583px;stroke-linecap:butt;stroke-linejoin:miter;stroke-opacity:1"
       d="M 37.91113,52.867772 41.038851,52.545551 33.375547,20.05597 30.761469,21.586796 Z"
       id="path5812"
       sodipodi:nodetypes="ccccc" /><path
       style="display:inline;fill:#c7cbcc;fill-opacity:1;stroke:none;stroke-width:0.264583px;stroke-linecap:butt;stroke-linejoin:miter;stroke-opacity:1"
       d="m 24.829251,28.097067 5.13499,-2.950792 0.815571,2.701766 -5.052021,2.916788 z"
       id="path6090"
       sodipodi:nodetypes="ccccc" /><path
       style="display:inline;fill:#8e9798;fill-opacity:1;stroke:none;stroke-width:0.212347px;stroke-linecap:butt;stroke-linejoin:miter;stroke-opacity:1"
       d="m 25.515067,28.009701 4.101112,-2.36778 0.654555,2.16836 -4.297827,2.551153 z"
       id="path8578"
       sodipodi:nodetypes="ccccc" /><path
       style="fill:#868f90;fill-opacity:1;stroke:none;stroke-width:0.264583px;stroke-linecap:butt;stroke-linejoin:miter;stroke-opacity:1"
       d="M 54.288694,51.877998 49.088927,19.41945 52.209264,23.8326 56.005175,47.846132 Z"
       id="path13098" /><g
       inkscape:label="Layer 1"
       id="layer1-5"
       transform="matrix(0.34262757,-0.07547374,0.07547374,0.34262757,4.3388617,24.281134)"><rect
         style="fill:#efefef;fill-opacity:1;stroke-width:0.00934126;paint-order:stroke fill markers;stop-color:#000000"
         id="rect371"
         width="8.9242477"
         height="5.8536811"
         x="18.146202"
         y="20.622038"
         ry="0" /><path
         id="rect679"
         style="fill:#efefef;stroke-width:0.01;paint-order:stroke fill markers;stop-color:#000000"
         transform="rotate(38.356308)"
         d="m 28.0563,-4.5046142 3.590972,0.1308053 v 2.6675039 l -4.311819,1.561e-4 z"
         sodipodi:nodetypes="ccccc" /><path
         id="path454"
         style="fill:#2e3365;fill-opacity:1;stroke:none;stroke-width:0.264583px;stroke-linecap:butt;stroke-linejoin:miter;stroke-opacity:1"
         d="m 24.494629,13.465328 c -0.580156,0.009 -1.016977,0.564941 -1.474845,0.958598 -0.404524,0.347784 -1.075387,1.187524 -1.075387,1.187524 l -0.370003,0.596346 1.064017,0.268718 c 0,0 0.74758,0.215349 1.065052,0.366386 0.238892,0.113649 0.595035,0.183202 0.603064,0.429947 0.0065,0.19826 -0.295335,0.411665 -0.460954,0.376205 -0.467079,-0.100005 -0.897103,-0.67076 -0.897103,-0.67076 l -1.002523,-0.290938 c 0,0 -0.674475,-0.01052 -0.989603,0.06305 -0.364845,0.08518 -0.940221,0.167465 -1.042831,0.26665 -0.161255,0.155872 0.509013,0.440283 0.509013,0.440283 l -0.124023,1.103292 c 0,0 -2.290948,1.428177 -3.298507,2.364714 -0.438636,0.407711 -0.967317,0.797916 -1.242818,1.329634 -0.274107,0.529022 -0.521948,1.111105 -0.529684,1.706873 -0.0059,0.451307 0.138323,0.914394 0.36742,1.30328 0.284224,0.482466 0.717894,0.87236 1.193209,1.182356 0.440285,0.287159 0.97263,0.554262 1.513602,0.605131 1.321584,0.124271 2.488755,0.219674 3.949113,0.240812 1.158103,0.01677 3.905188,-0.111621 3.905188,-0.111621 l 1.35754,-0.502295 c 0,0 0.888668,-0.830047 1.09554,-1.37976 0.264098,-0.701766 0.110071,-2.246892 0.110071,-2.246892 0,0 -0.24652,-0.311029 -0.349849,-0.516247 -0.07022,-0.139466 0.181384,-0.379822 0.181384,-0.379822 0,0 0.309052,-1.292353 0.316777,-1.951302 0.0082,-0.701451 -0.07745,-1.415581 -0.288355,-2.084627 -0.226591,-0.718821 -1.030428,-2.012797 -1.030428,-2.012797 l -1.735811,-1.765784 c 0,0 -0.77033,-0.869352 -1.290361,-0.876949 -0.0093,-1.36e-4 -0.0187,-1.43e-4 -0.02791,0 z m -0.04134,0.997872 c 0,0 0.475868,0.257978 0.715718,0.411861 0.328165,0.21054 0.958081,0.70435 0.958081,0.70435 0,0 0.121189,0.128268 0.0801,0.225826 -0.02272,0.05395 -0.166398,0.182418 -0.166398,0.182418 l -0.47439,-0.386023 -0.132808,0.136425 0.494026,0.445451 c 0,0 0.06956,0.172336 0.01085,0.211874 -0.0656,0.04418 -0.214974,-0.100253 -0.214974,-0.100253 l -0.517797,-0.438733 -0.168982,0.225826 0.404626,0.336931 0.252181,0.297139 c 0,0 0.04326,0.223154 -0.04496,0.262 -0.162695,0.07164 -0.524516,-0.233578 -0.524516,-0.233578 0,0 -0.783246,-0.620569 -1.242302,-0.790649 -0.284462,-0.105396 -0.716752,-0.137459 -0.716752,-0.137459 0,0 0.382976,-0.573554 0.588078,-0.767912 0.274572,-0.260188 0.700216,-0.585494 0.700216,-0.585494 z M 23.7262,21.318595 c 0,0 0.270894,0.220461 0.352434,0.362252 0.10398,0.180765 0.106453,0.575159 0.106453,0.575159 l -0.04702,0.479557 c 0,0 -0.209199,0.267031 -0.339515,0.356051 -0.165327,0.112939 -0.393046,0.119801 -0.605647,0.132291 -0.233449,0.01372 -0.574931,-0.03756 -0.80822,-0.05374 -0.189403,-0.01314 -0.316678,0.0075 -0.440283,-0.14211 -0.108198,-0.130998 -0.191399,-0.444672 -0.207739,-0.584461 -0.02743,-0.234736 0.10852,-0.720369 0.10852,-0.720369 0,0 0.319333,-7.83e-4 0.478524,-0.0124 0.240649,-0.01756 0.462594,-0.0672 0.750859,-0.14366 0.288712,-0.07658 0.651639,-0.248564 0.651639,-0.248564 z m -3.449918,0.05271 c 0.03206,-3.49e-4 0.832507,0.42013 0.832507,0.42013 0,0 -0.158096,0.280059 -0.153996,0.618567 0.0027,0.220389 0.124024,0.709 0.124024,0.709 l -0.841809,-0.0026 c 0,0 -0.430575,-0.28349 -0.517281,-0.509529 -0.07417,-0.193347 -0.05148,-0.432992 0.03721,-0.620117 0.111321,-0.23488 0.487288,-0.615118 0.519348,-0.615467 z m -0.104387,2.518193 c 0.165688,-0.0016 0.391191,0.225826 0.391191,0.225826 0,0 -0.129476,0.581667 -0.334863,1.132747 -0.125995,0.338058 -0.253312,0.677287 -0.476974,0.826306 -0.284911,0.18983 -1.027327,-0.0026 -1.027327,-0.0026 l 0.962732,-1.87017 c 0,0 0.277972,-0.310086 0.485241,-0.312126 z m 3.498495,0.03101 c 0.410048,-0.01999 0.592989,0.584543 0.790132,0.944645 0.167486,0.305927 0.314193,0.997872 0.314193,0.997872 l -0.04031,0.257865 c 0,0 -0.775703,0.196862 -1.145667,0.204122 -0.294241,0.0058 -0.91674,-0.0894 -0.91674,-0.0894 l 0.03772,-0.375688 c 0,0 0.229627,-0.789379 0.343131,-1.035079 0.08627,-0.186756 0.253004,-0.886568 0.617534,-0.904337 z m -1.660364,0.101802 c 0.165641,-0.0016 0.391191,0.228927 0.391191,0.228927 0,0 -0.109378,0.786636 -0.31471,1.345654 -0.12596,0.342927 -0.184128,0.529928 -0.407727,0.681096 -0.284831,0.192562 -0.997355,-0.0036 -0.997355,-0.0036 l 0.843876,-1.935799 c 0,0 0.277511,-0.314191 0.484725,-0.31626 z" /></g></g></svg>
