<?xml version="1.0" encoding="UTF-8" standalone="no"?>
<!-- Created with Inkscape (http://www.inkscape.org/) -->

<svg
   width="256"
   height="256"
   viewBox="0 0 67.733332 67.733333"
   version="1.1"
   id="svg5"
   xml:space="preserve"
   inkscape:version="1.2.1 (9c6d41e410, 2022-07-14, custom)"
   sodipodi:docname="sloshingmachine.svg"
   inkscape:export-filename="sloshingmachine.png"
   inkscape:export-xdpi="96"
   inkscape:export-ydpi="96"
   xmlns:inkscape="http://www.inkscape.org/namespaces/inkscape"
   xmlns:sodipodi="http://sodipodi.sourceforge.net/DTD/sodipodi-0.dtd"
   xmlns="http://www.w3.org/2000/svg"
   xmlns:svg="http://www.w3.org/2000/svg"><sodipodi:namedview
     id="namedview7"
     pagecolor="#505050"
     bordercolor="#eeeeee"
     borderopacity="1"
     inkscape:showpageshadow="0"
     inkscape:pageopacity="0"
     inkscape:pagecheckerboard="0"
     inkscape:deskcolor="#505050"
     inkscape:document-units="mm"
     showgrid="false"
     inkscape:zoom="3.0037814"
     inkscape:cx="172.94867"
     inkscape:cy="88.388589"
     inkscape:window-width="1916"
     inkscape:window-height="1036"
     inkscape:window-x="0"
     inkscape:window-y="20"
     inkscape:window-maximized="1"
     inkscape:current-layer="layer1" /><defs
     id="defs2" /><g
     inkscape:label="Layer 1"
     inkscape:groupmode="layer"
     id="layer1"><g
       id="g4432"
       transform="translate(19.345153,-2.1467926)"><rect
         style="fill:#885e00;fill-opacity:1;stroke-width:0.633;paint-order:stroke fill markers"
         id="rect4422"
         width="6.1237955"
         height="1.4540431"
         x="16.118464"
         y="56.297226"
         transform="rotate(-5.2763091)" /><rect
         style="fill:#1d1b1a;fill-opacity:1;stroke-width:0.633;paint-order:stroke fill markers"
         id="rect4424"
         width="6.1237946"
         height="1.972976"
         x="16.1353"
         y="57.715294"
         transform="rotate(-5.2763091)" /><rect
         style="fill:#090909;fill-opacity:1;stroke-width:0.633;paint-order:stroke fill markers"
         id="rect4426"
         width="0.86794126"
         height="1.9729767"
         x="16.876865"
         y="57.715294"
         transform="rotate(-5.2763091)" /><rect
         style="fill:#090909;fill-opacity:1;stroke-width:0.633;paint-order:stroke fill markers"
         id="rect4428"
         width="0.86794126"
         height="1.9729767"
         x="18.616125"
         y="57.715294"
         transform="rotate(-5.2763091)" /><rect
         style="fill:#090909;fill-opacity:1;stroke-width:0.633;paint-order:stroke fill markers"
         id="rect4430"
         width="0.86794126"
         height="1.9729767"
         x="20.392262"
         y="57.715294"
         transform="rotate(-5.2763091)" /></g><rect
       style="fill:#556161;fill-opacity:1;stroke:none;stroke-width:0.633;paint-order:stroke fill markers"
       id="rect12820"
       width="5.6626129"
       height="2.8179514"
       x="4.6322174"
       y="31.301016"
       transform="rotate(-27.259306)"
       ry="0.97232121" /><rect
       style="fill:#81898b;fill-opacity:1;stroke:none;stroke-width:0.633;paint-order:stroke fill markers"
       id="rect12231"
       width="8.9526796"
       height="1.1911966"
       x="1.7304859"
       y="33.16993"
       transform="rotate(-29.313763)" /><rect
       style="fill:#576263;fill-opacity:1;stroke:none;stroke-width:0.633;paint-order:stroke fill markers"
       id="rect12177"
       width="4.1500573"
       height="2.4994562"
       x="42.889381"
       y="52.55785"
       ry="0"
       transform="rotate(-7.8353499)" /><path
       style="fill:#545f60;stroke:none;stroke-width:0.264583px;stroke-linecap:butt;stroke-linejoin:miter;stroke-opacity:1;fill-opacity:1"
       d="m 41.56597,17.571675 2.863477,-1.653231 1.257667,0.916944 0.226328,1.869389 -2.940886,1.690219 z"
       id="path9471" /><rect
       style="fill:#576263;fill-opacity:1;stroke:none;stroke-width:0.633;paint-order:stroke fill markers"
       id="rect12098"
       width="4.1500573"
       height="2.4994562"
       x="27.003382"
       y="46.48209"
       ry="0"
       transform="rotate(-30.138942)" /><rect
       style="fill:#868f90;fill-opacity:1;stroke:none;stroke-width:0.633;paint-order:stroke fill markers"
       id="rect12096"
       width="4.2196503"
       height="3.6756098"
       x="24.730536"
       y="45.889927"
       ry="0"
       transform="rotate(-30.138942)" /><rect
       style="fill:#868f90;fill-opacity:1;stroke:none;stroke-width:0.633;paint-order:stroke fill markers"
       id="rect10008"
       width="4.2196503"
       height="3.6756098"
       x="46.251724"
       y="45.47789"
       ry="0" /><path
       style="fill:#6f6f74;fill-opacity:1;stroke:none;stroke-width:0.264583px;stroke-linecap:butt;stroke-linejoin:miter;stroke-opacity:1"
       d="m 22.967011,26.482437 10.517663,-5.855511 -0.637257,-7.136809 3.154127,-2.288105 c 0,0 3.982829,2.929418 5.597737,4.775354 1.685788,1.926956 2.992521,4.17763 4.164025,6.454167 1.443422,2.804945 2.68824,5.745838 3.488682,8.797145 0.764907,2.915848 1.244938,5.946148 1.222082,8.960569 -0.01659,2.187479 -0.435405,4.370943 -0.985327,6.488235 -0.494842,1.905223 -2.066555,5.53191 -2.066555,5.53191 l -6.383337,0.336159 -10.784769,1.111057 -2.807676,-0.499952 -6.131872,-25.307562 z"
       id="path13376"
       sodipodi:nodetypes="ccccssssscccccc" /><g
       id="g4420"
       transform="translate(-0.06072803,-0.52557835)"><rect
         style="fill:#885e00;fill-opacity:1;stroke-width:0.633;paint-order:stroke fill markers"
         id="rect499"
         width="6.1237955"
         height="1.4540431"
         x="16.118464"
         y="56.297226"
         transform="rotate(-5.2763091)" /><rect
         style="fill:#1d1b1a;fill-opacity:1;stroke-width:0.633;paint-order:stroke fill markers"
         id="rect2618"
         width="6.1237946"
         height="1.972976"
         x="16.1353"
         y="57.715294"
         transform="rotate(-5.2763091)" /><rect
         style="fill:#090909;fill-opacity:1;stroke-width:0.633;paint-order:stroke fill markers"
         id="rect3020"
         width="0.86794126"
         height="1.9729767"
         x="16.876865"
         y="57.715294"
         transform="rotate(-5.2763091)" /><rect
         style="fill:#090909;fill-opacity:1;stroke-width:0.633;paint-order:stroke fill markers"
         id="rect4333"
         width="0.86794126"
         height="1.9729767"
         x="18.616125"
         y="57.715294"
         transform="rotate(-5.2763091)" /><rect
         style="fill:#090909;fill-opacity:1;stroke-width:0.633;paint-order:stroke fill markers"
         id="rect4335"
         width="0.86794126"
         height="1.9729767"
         x="20.392262"
         y="57.715294"
         transform="rotate(-5.2763091)" /></g><path
       style="fill:#ded6bb;fill-opacity:1;stroke:none;stroke-width:0.264583px;stroke-linecap:butt;stroke-linejoin:miter;stroke-opacity:1"
       d="m 30.177454,53.610425 -2.7187,-10.364571 -2.713928,-10.128522 -1.777815,-6.634895 -4.992179,2.526254 -1.271465,-0.591402 -3.682461,-2.564189 -2.592558,1.437453 c 0,0 0.87062,5.77663 1.474865,8.632656 0.541903,2.561359 1.044088,5.149337 1.926213,7.614306 0.683946,1.911185 1.589095,3.745582 2.591356,5.510768 1.110002,1.954941 3.770436,5.59186 3.770436,5.59186 z"
       id="path4505"
       sodipodi:nodetypes="ccccccccssscc" /><rect
       style="fill:#d7cdac;fill-opacity:1;stroke-width:0.633;paint-order:stroke fill markers"
       id="rect4507"
       width="2.1259418"
       height="15.093727"
       x="7.1050663"
       y="35.484219"
       ry="1.0629709"
       transform="rotate(-15.072957)" /><rect
       style="fill:#d7cdac;fill-opacity:1;stroke-width:0.633;paint-order:stroke fill markers"
       id="rect4716"
       width="2.1765981"
       height="15.453379"
       x="10.697499"
       y="34.847454"
       ry="1.0629709"
       transform="rotate(-15.072957)" /><rect
       style="fill:#68686d;fill-opacity:1;stroke-width:0.633;paint-order:stroke fill markers"
       id="rect4770"
       width="2.1294067"
       height="15.620553"
       x="17.532133"
       y="38.751434"
       ry="1.0629709"
       transform="rotate(-14.048298)" /><rect
       style="fill:#68686d;fill-opacity:1;stroke-width:0.633;paint-order:stroke fill markers"
       id="rect5255"
       width="2.1294067"
       height="15.620553"
       x="21.207369"
       y="38.698647"
       ry="1.0629709"
       transform="rotate(-14.048298)" /><path
       style="fill:#90999a;fill-opacity:1;stroke:none;stroke-width:0.264583px;stroke-linecap:butt;stroke-linejoin:miter;stroke-opacity:1"
       d="M 37.91113,52.867772 41.038851,52.545551 33.375547,20.05597 30.761469,21.586796 Z"
       id="path5812"
       sodipodi:nodetypes="ccccc" /><path
       style="display:inline;fill:#c7cbcc;fill-opacity:1;stroke:none;stroke-width:0.264583px;stroke-linecap:butt;stroke-linejoin:miter;stroke-opacity:1"
       d="m 24.829251,28.097067 5.13499,-2.950792 0.815571,2.701766 -5.052021,2.916788 z"
       id="path6090"
       sodipodi:nodetypes="ccccc" /><path
       style="display:inline;fill:#8e9798;fill-opacity:1;stroke:none;stroke-width:0.212347px;stroke-linecap:butt;stroke-linejoin:miter;stroke-opacity:1"
       d="m 25.515067,28.009701 4.101112,-2.36778 0.654555,2.16836 -4.297827,2.551153 z"
       id="path8578"
       sodipodi:nodetypes="ccccc" /><path
       style="fill:#868f90;fill-opacity:1;stroke:none;stroke-width:0.264583px;stroke-linecap:butt;stroke-linejoin:miter;stroke-opacity:1"
       d="M 54.288694,51.877998 49.088927,19.41945 52.209264,23.8326 56.005175,47.846132 Z"
       id="path13098" /></g></svg>
