<?xml version="1.0" encoding="UTF-8" standalone="no"?>
<!-- Created with Inkscape (http://www.inkscape.org/) -->

<svg
   width="256"
   height="256"
   viewBox="0 0 67.733333 67.733333"
   version="1.1"
   id="svg5"
   xml:space="preserve"
   sodipodi:docname="slosher_zf.svg"
   inkscape:version="1.2.2 (b0a8486541, 2022-12-01)"
   inkscape:export-filename="slosher_zf.png"
   inkscape:export-xdpi="96"
   inkscape:export-ydpi="96"
   xmlns:inkscape="http://www.inkscape.org/namespaces/inkscape"
   xmlns:sodipodi="http://sodipodi.sourceforge.net/DTD/sodipodi-0.dtd"
   xmlns:xlink="http://www.w3.org/1999/xlink"
   xmlns="http://www.w3.org/2000/svg"
   xmlns:svg="http://www.w3.org/2000/svg"><sodipodi:namedview
     id="namedview7"
     pagecolor="#ffffff"
     bordercolor="#666666"
     borderopacity="1.0"
     inkscape:showpageshadow="2"
     inkscape:pageopacity="0.0"
     inkscape:pagecheckerboard="0"
     inkscape:deskcolor="#d1d1d1"
     inkscape:document-units="mm"
     showgrid="false"
     inkscape:zoom="3.177573"
     inkscape:cx="49.094073"
     inkscape:cy="117.07048"
     inkscape:window-width="1906"
     inkscape:window-height="1026"
     inkscape:window-x="5"
     inkscape:window-y="25"
     inkscape:window-maximized="1"
     inkscape:current-layer="layer1" /><defs
     id="defs2"><linearGradient
       inkscape:collect="always"
       id="linearGradient5782"><stop
         style="stop-color:#e37a17;stop-opacity:1;"
         offset="0"
         id="stop5778" /><stop
         style="stop-color:#75d2e9;stop-opacity:1;"
         offset="0.63651192"
         id="stop8322" /><stop
         style="stop-color:#3850e5;stop-opacity:1;"
         offset="1"
         id="stop5780" /></linearGradient><linearGradient
       inkscape:collect="always"
       xlink:href="#linearGradient5782"
       id="linearGradient5784"
       x1="47.905598"
       y1="154.32117"
       x2="38.29314"
       y2="198.9752"
       gradientUnits="userSpaceOnUse"
       gradientTransform="translate(-11.154517,-143.58153)" /><clipPath
       clipPathUnits="userSpaceOnUse"
       id="clipPath45897"><use
         x="0"
         y="0"
         xlink:href="#g45893"
         id="use45899" /></clipPath></defs><g
     inkscape:label="Layer 1"
     inkscape:groupmode="layer"
     id="layer1"><path
       style="fill:#2a2827;fill-opacity:1;stroke:none;stroke-width:0.264583px;stroke-linecap:butt;stroke-linejoin:miter;stroke-opacity:1"
       d="m 19.420888,54.73979 0.8681,-0.74224 36.678263,-4.15265 -5.28842,-7.44419 -5.19105,-8.68249 -3.56748,-7.57031 -1.58262,-7.84163 -4.99392,3.33083 -9.200973,3.93719 -4.73833,2.57046 -3.78697,1.62718 -2.32881,0.91761 0.52458,5.35309 -0.27916,13.33447 1.03074,2.77623 1.06411,2.50205 z"
       id="path1994" /><g
       id="g61958"
       transform="translate(-12.008837,-142.21342)"><circle
         style="fill:#742600;fill-opacity:1;fill-rule:evenodd;stroke:none;stroke-width:0.264583;stroke-opacity:1"
         id="path58870"
         cx="32.018799"
         cy="187.22552"
         r="1.5973793" /><path
         style="fill:#6d6f69;fill-opacity:1;stroke:none;stroke-width:0.264583px;stroke-linecap:butt;stroke-linejoin:miter;stroke-opacity:1"
         d="m 32.290835,184.82322 -0.52837,1.39344 -0.363202,0.75865 c 0,0 0.0903,0.30774 0.359559,0.48271 0.269253,0.17495 1.128995,-1.56853 1.128995,-1.56853 l 0.575162,-0.96462 z"
         id="path59907" /><path
         style="fill:#0b0b0b;fill-opacity:1;stroke:none;stroke-width:0.264583px;stroke-linecap:butt;stroke-linejoin:miter;stroke-opacity:1"
         d="m 59.494138,150.23781 -2.82076,2.47101 -3.36197,4.14452 -2.04138,2.72084 c 0,0 0.28289,-0.68914 -1.375903,0 -1.658789,0.68914 -3.315406,2.48814 -3.315406,2.48814 l -0.763239,1.14487 -1.230159,-1.01838 c 0,0 -1.698148,-0.0311 -2.234006,1.19733 -0.535861,1.22846 -4.512056,9.297 -4.512056,9.297 l -1.313672,2.86197 -1.480516,3.02466 -1.28411,2.02783 -1.455717,2.40392 -0.361111,2.01494 1.822889,1.85561 0.680556,1.37655 3.875932,-1.84884 -0.992878,-1.64896 -0.655839,-0.5404 1.651162,-3.91129 4.300349,-5.42661 5.13112,-6.46318 0.996172,-3.50581 1.871652,-0.67475 c 0,0 5.72583,-7.35123 6.05826,-7.35123 0.33243,0 4.64608,-4.64291 4.64608,-4.64291 z"
         id="path16171" /><path
         style="fill:#6b6d67;fill-opacity:1;stroke:#6c6e68;stroke-width:0.264583px;stroke-linecap:butt;stroke-linejoin:miter;stroke-opacity:1"
         d="m 44.14543,165.07528 c 0.115729,0.0223 5.068787,4.00939 5.068787,4.00939 l 1.617301,-1.95334 -4.937763,-3.99131 c 0,0 -1.841524,1.94352 -1.748325,1.93526 z"
         id="path22637" /><path
         style="fill:#6d6f69;fill-opacity:1;stroke:#6d6f69;stroke-width:0.264583px;stroke-linecap:butt;stroke-linejoin:miter;stroke-opacity:1"
         d="m 34.725094,176.85362 5.343398,4.2927 1.126496,-1.40444 -5.310442,-4.2604 z"
         id="path27817" /><path
         style="fill:#92958a;fill-opacity:1;stroke:#92958a;stroke-width:0.268438px;stroke-linecap:butt;stroke-linejoin:miter;stroke-opacity:1"
         d="m 36.901842,174.86232 4.318564,4.25206 0.610809,-0.16242 0.227503,-1.159 -4.379779,-3.91559 -0.788616,0.10441 z"
         id="path30132" /><path
         style="fill:#92958a;fill-opacity:1;stroke:#92958a;stroke-width:0.268438px;stroke-linecap:butt;stroke-linejoin:miter;stroke-opacity:1"
         d="m 38.38205,172.83703 4.035416,4.52167 0.62001,-0.1227 0.301759,-1.14192 -4.118198,-4.18984 -0.793707,0.0533 z"
         id="path30132-3" /><path
         style="fill:#92958a;fill-opacity:1;stroke:#92958a;stroke-width:0.268438px;stroke-linecap:butt;stroke-linejoin:miter;stroke-opacity:1"
         d="m 40.103108,170.76548 3.91144,4.62933 0.623107,-0.10586 0.332583,-1.13333 -4.003181,-4.29986 -0.794861,0.0318 z"
         id="path30132-6" /><path
         style="fill:#919489;fill-opacity:1;stroke:#92958a;stroke-width:0.268438px;stroke-linecap:butt;stroke-linejoin:miter;stroke-opacity:1"
         d="m 41.718784,168.79192 3.91144,4.62933 0.623107,-0.10586 0.332583,-1.13333 -4.003181,-4.29986 -0.794861,0.0318 z"
         id="path30132-6-7" /><path
         style="fill:#91948a;fill-opacity:1;stroke:#92958a;stroke-width:0.268438px;stroke-linecap:butt;stroke-linejoin:miter;stroke-opacity:1"
         d="m 43.460559,166.70476 3.91144,4.62933 0.623107,-0.10586 0.332583,-1.13333 -4.003181,-4.29986 -0.794861,0.0318 z"
         id="path30132-6-5" /><g
         id="g45905"
         transform="translate(-49.645722,-0.53464105)"><circle
           style="fill:#92958a;fill-opacity:1;fill-rule:evenodd;stroke:#6d6f69;stroke-width:0.264583;stroke-opacity:1"
           id="path41524"
           cx="84.930428"
           cy="182.25687"
           r="2.5974607" /><g
           id="g45895"
           clip-path="url(#clipPath45897)"
           style="fill:#000000;fill-opacity:1;fill-rule:evenodd;stroke:none;stroke-opacity:1"
           transform="translate(5.6721012,1.3794511)"><g
             inkscape:label="Clip"
             id="g45893"
             style="fill:#000000;fill-opacity:1;fill-rule:evenodd;stroke:none;stroke-opacity:1"><path
               id="path42252"
               style="fill:#000000;fill-opacity:1;stroke:none;stroke-width:0.264583"
               d="m 79.754288,180.88309 a 0.51046807,0.51046807 0 0 1 -0.510468,0.51047 0.51046807,0.51046807 0 0 1 -0.510468,-0.51047 0.51046807,0.51046807 0 0 1 0.510468,-0.51047 0.51046807,0.51046807 0 0 1 0.510468,0.51047 z" /></g></g></g></g><path
       style="fill:url(#linearGradient5784);fill-opacity:1;stroke:none;stroke-width:0.264583px;stroke-linecap:butt;stroke-linejoin:miter;stroke-opacity:1"
       d="m 13.17639,46.20686 0.409614,1.80181 1.065975,1.93364 2.430015,1.5432 2.534854,-0.20817 24.387303,-7.04065 6.41091,6.70125 1.24331,0.47659 1.31185,-0.24391 0.4392,-1.21359 -0.60085,-1.1621 -5.16798,-7.17816 -2.40774,-3.49958 -3.37381,-1.30989 -8.699911,3.03439 2.666991,-3.05338 6.16232,-3.52491 2.30189,-2.08806 0.0701,-2.36077 -1.07583,-3.13817 -0.72097,-4.70952 0.45877,-3.71376 3.13712,-2.85856 1.56388,-1.4798 -0.13576,-2.52506 c 0,0 -0.67802,-1.2269299 -0.95668,-1.2269299 -0.27867,0 -2.35036,-0.11103 -2.35036,-0.11103 l -2.51804,1.2801499 -1.36565,2.55597 -1.1865,2.76465 -0.72184,2.43441 -0.21149,3.9913 0.5762,4.73463 c 0,0 0.63143,1.98345 0.67316,2.24156 0.0417,0.25812 -2.96876,2.51803 -2.96876,2.51803 l -4.178677,2.76148 -3.896487,4.51666 -2.284833,4.15204 -8.914257,3.67615 0.218707,-16.02712 3.083211,-1.82792 1.177102,-2.32123 -0.249679,-9.5134 -1.787591,-0.7074 -0.857721,1.24405 0.266374,8.42538 -1.817666,1.52525 c 0,0 -2.182029,0.85783 -2.598888,0.97119 -0.416857,0.11335 -0.958392,2.50993 -0.958392,2.50993 l -0.714418,10.73476 z"
       id="path3639" /><circle
       style="fill:#8a501a;fill-opacity:1;stroke:none;stroke-width:0.264583"
       id="path9342"
       cx="44.158211"
       cy="12.042338"
       r="0.78842258" /><g
       inkscape:label="Layer 1"
       id="layer1-2"
       transform="matrix(0.51217556,-0.15073101,0.15073101,0.51217556,14.305277,37.103018)"><rect
         style="fill:#efefef;fill-opacity:1;stroke-width:0.00934126;paint-order:stroke fill markers;stop-color:#000000"
         id="rect371"
         width="8.9242477"
         height="5.8536811"
         x="18.146202"
         y="20.622038"
         ry="0" /><path
         id="rect679"
         style="fill:#efefef;stroke-width:0.01;paint-order:stroke fill markers;stop-color:#000000"
         transform="rotate(38.356308)"
         d="m 28.0563,-4.5046142 3.590972,0.1308053 v 2.6675039 l -4.311819,1.561e-4 z"
         sodipodi:nodetypes="ccccc" /><path
         id="path454"
         style="fill:#2e3365;fill-opacity:1;stroke:none;stroke-width:0.264583px;stroke-linecap:butt;stroke-linejoin:miter;stroke-opacity:1"
         d="m 24.494629,13.465328 c -0.580156,0.009 -1.016977,0.564941 -1.474845,0.958598 -0.404524,0.347784 -1.075387,1.187524 -1.075387,1.187524 l -0.370003,0.596346 1.064017,0.268718 c 0,0 0.74758,0.215349 1.065052,0.366386 0.238892,0.113649 0.595035,0.183202 0.603064,0.429947 0.0065,0.19826 -0.295335,0.411665 -0.460954,0.376205 -0.467079,-0.100005 -0.897103,-0.67076 -0.897103,-0.67076 l -1.002523,-0.290938 c 0,0 -0.674475,-0.01052 -0.989603,0.06305 -0.364845,0.08518 -0.940221,0.167465 -1.042831,0.26665 -0.161255,0.155872 0.509013,0.440283 0.509013,0.440283 l -0.124023,1.103292 c 0,0 -2.290948,1.428177 -3.298507,2.364714 -0.438636,0.407711 -0.967317,0.797916 -1.242818,1.329634 -0.274107,0.529022 -0.521948,1.111105 -0.529684,1.706873 -0.0059,0.451307 0.138323,0.914394 0.36742,1.30328 0.284224,0.482466 0.717894,0.87236 1.193209,1.182356 0.440285,0.287159 0.97263,0.554262 1.513602,0.605131 1.321584,0.124271 2.488755,0.219674 3.949113,0.240812 1.158103,0.01677 3.905188,-0.111621 3.905188,-0.111621 l 1.35754,-0.502295 c 0,0 0.888668,-0.830047 1.09554,-1.37976 0.264098,-0.701766 0.110071,-2.246892 0.110071,-2.246892 0,0 -0.24652,-0.311029 -0.349849,-0.516247 -0.07022,-0.139466 0.181384,-0.379822 0.181384,-0.379822 0,0 0.309052,-1.292353 0.316777,-1.951302 0.0082,-0.701451 -0.07745,-1.415581 -0.288355,-2.084627 -0.226591,-0.718821 -1.030428,-2.012797 -1.030428,-2.012797 l -1.735811,-1.765784 c 0,0 -0.77033,-0.869352 -1.290361,-0.876949 -0.0093,-1.36e-4 -0.0187,-1.43e-4 -0.02791,0 z m -0.04134,0.997872 c 0,0 0.475868,0.257978 0.715718,0.411861 0.328165,0.21054 0.958081,0.70435 0.958081,0.70435 0,0 0.121189,0.128268 0.0801,0.225826 -0.02272,0.05395 -0.166398,0.182418 -0.166398,0.182418 l -0.47439,-0.386023 -0.132808,0.136425 0.494026,0.445451 c 0,0 0.06956,0.172336 0.01085,0.211874 -0.0656,0.04418 -0.214974,-0.100253 -0.214974,-0.100253 l -0.517797,-0.438733 -0.168982,0.225826 0.404626,0.336931 0.252181,0.297139 c 0,0 0.04326,0.223154 -0.04496,0.262 -0.162695,0.07164 -0.524516,-0.233578 -0.524516,-0.233578 0,0 -0.783246,-0.620569 -1.242302,-0.790649 -0.284462,-0.105396 -0.716752,-0.137459 -0.716752,-0.137459 0,0 0.382976,-0.573554 0.588078,-0.767912 0.274572,-0.260188 0.700216,-0.585494 0.700216,-0.585494 z M 23.7262,21.318595 c 0,0 0.270894,0.220461 0.352434,0.362252 0.10398,0.180765 0.106453,0.575159 0.106453,0.575159 l -0.04702,0.479557 c 0,0 -0.209199,0.267031 -0.339515,0.356051 -0.165327,0.112939 -0.393046,0.119801 -0.605647,0.132291 -0.233449,0.01372 -0.574931,-0.03756 -0.80822,-0.05374 -0.189403,-0.01314 -0.316678,0.0075 -0.440283,-0.14211 -0.108198,-0.130998 -0.191399,-0.444672 -0.207739,-0.584461 -0.02743,-0.234736 0.10852,-0.720369 0.10852,-0.720369 0,0 0.319333,-7.83e-4 0.478524,-0.0124 0.240649,-0.01756 0.462594,-0.0672 0.750859,-0.14366 0.288712,-0.07658 0.651639,-0.248564 0.651639,-0.248564 z m -3.449918,0.05271 c 0.03206,-3.49e-4 0.832507,0.42013 0.832507,0.42013 0,0 -0.158096,0.280059 -0.153996,0.618567 0.0027,0.220389 0.124024,0.709 0.124024,0.709 l -0.841809,-0.0026 c 0,0 -0.430575,-0.28349 -0.517281,-0.509529 -0.07417,-0.193347 -0.05148,-0.432992 0.03721,-0.620117 0.111321,-0.23488 0.487288,-0.615118 0.519348,-0.615467 z m -0.104387,2.518193 c 0.165688,-0.0016 0.391191,0.225826 0.391191,0.225826 0,0 -0.129476,0.581667 -0.334863,1.132747 -0.125995,0.338058 -0.253312,0.677287 -0.476974,0.826306 -0.284911,0.18983 -1.027327,-0.0026 -1.027327,-0.0026 l 0.962732,-1.87017 c 0,0 0.277972,-0.310086 0.485241,-0.312126 z m 3.498495,0.03101 c 0.410048,-0.01999 0.592989,0.584543 0.790132,0.944645 0.167486,0.305927 0.314193,0.997872 0.314193,0.997872 l -0.04031,0.257865 c 0,0 -0.775703,0.196862 -1.145667,0.204122 -0.294241,0.0058 -0.91674,-0.0894 -0.91674,-0.0894 l 0.03772,-0.375688 c 0,0 0.229627,-0.789379 0.343131,-1.035079 0.08627,-0.186756 0.253004,-0.886568 0.617534,-0.904337 z m -1.660364,0.101802 c 0.165641,-0.0016 0.391191,0.228927 0.391191,0.228927 0,0 -0.109378,0.786636 -0.31471,1.345654 -0.12596,0.342927 -0.184128,0.529928 -0.407727,0.681096 -0.284831,0.192562 -0.997355,-0.0036 -0.997355,-0.0036 l 0.843876,-1.935799 c 0,0 0.277511,-0.314191 0.484725,-0.31626 z" /></g><g
       inkscape:label="Layer 1"
       id="layer1-7"
       transform="matrix(0.03839665,-0.05622,0.05622,0.03839665,11.612366,41.920501)"><path
         style="fill:#231815;fill-opacity:1;stroke:none;stroke-width:4.48178;stroke-dasharray:none;stroke-opacity:1;paint-order:markers stroke fill"
         d="m 23.794235,57.136243 c 0,0 -1.049723,-1.035223 -1.21569,-1.906281 -0.761454,-3.996426 2.964053,-12.272 2.964053,-12.272 l 18.061398,-0.640134 c 0,0 2.887893,9.464414 1.651674,13.438507 -0.250393,0.80494 -3.001795,1.300875 -3.001795,1.300875 z"
         id="path11730"
         sodipodi:nodetypes="csccscc" /><path
         style="fill:#e83828;fill-opacity:1;stroke:none;stroke-width:3.7;stroke-dasharray:none;stroke-opacity:1;paint-order:markers stroke fill"
         d="m 25.591977,55.962707 c 0,0 -0.866615,-0.854644 -1.003631,-1.573759 -0.62863,-3.29931 2.447018,-10.131335 2.447018,-10.131335 l 14.91086,-0.528472 c 0,0 2.384144,7.81349 1.363564,11.094362 -0.206715,0.66453 -2.478177,1.073957 -2.478177,1.073957 z"
         id="path3615"
         sodipodi:nodetypes="csccscc" /><path
         style="fill:#231815;fill-opacity:1;stroke:none;stroke-width:3.25799;stroke-linecap:butt;stroke-linejoin:miter;stroke-dasharray:none;stroke-opacity:1;paint-order:markers stroke fill"
         d="m 22.93426,42.480679 c 0,0 -2.622626,6.715061 -2.422301,9.800883 0.04807,0.740519 0.891421,1.227536 0.891421,1.227536 l 4.622057,0.440061 1.474936,-11.595852 z"
         id="path6430"
         sodipodi:nodetypes="cscccc" /><ellipse
         style="fill:#ffffff;fill-opacity:1;stroke:none;stroke-width:2.79073;stroke-linejoin:round;stroke-dasharray:none;stroke-opacity:1;paint-order:markers stroke fill;stop-color:#000000"
         id="path3617"
         cx="33.919746"
         cy="46.713211"
         rx="7.0274954"
         ry="6.0992723" /><path
         style="fill:#231815;fill-opacity:1;stroke:none;stroke-width:3.25799;stroke-linecap:butt;stroke-linejoin:miter;stroke-dasharray:none;stroke-opacity:1;paint-order:markers stroke fill"
         d="m 44.516676,43.158307 c 0,0 2.622626,6.715061 2.422301,9.800883 -0.04807,0.740519 -0.891421,1.227536 -0.891421,1.227536 l -4.622057,0.440061 -1.474936,-11.595852 z"
         id="path6359"
         sodipodi:nodetypes="cscccc" /><path
         style="fill:#ffffff;fill-opacity:1;stroke:none;stroke-width:2.601;stroke-linecap:butt;stroke-linejoin:miter;stroke-dasharray:none;stroke-opacity:1;paint-order:markers stroke fill"
         d="m 44.415564,44.456974 c 0,0 2.093763,5.360943 1.933835,7.824497 -0.03838,0.591191 -0.711663,0.979999 -0.711663,0.979999 l -3.690001,0.351321 -1.17751,-9.257504 z"
         id="path3613"
         sodipodi:nodetypes="cscccc" /><path
         style="fill:#ffffff;fill-opacity:1;stroke:#231815;stroke-width:3.9;stroke-linecap:butt;stroke-linejoin:round;stroke-dasharray:none;stroke-opacity:1;paint-order:markers stroke fill"
         d="m 32.276676,18.802897 -2.102635,-7.221733 c 2.810206,-0.559982 5.518447,-0.435615 8.180313,0 l -1.273653,7.19164 z"
         id="path1599"
         sodipodi:nodetypes="ccccc" /><path
         style="fill:#ffffff;fill-opacity:1;stroke:none;stroke-width:2.601;stroke-linecap:butt;stroke-linejoin:miter;stroke-dasharray:none;stroke-opacity:1;paint-order:markers stroke fill"
         d="m 23.035372,43.779346 c 0,0 -2.093763,5.360943 -1.933835,7.824497 0.03838,0.591191 0.711663,0.979999 0.711663,0.979999 l 3.690001,0.351321 1.17751,-9.257504 z"
         id="path6432"
         sodipodi:nodetypes="cscccc" /><g
         id="g6436"><path
           id="path6288"
           style="fill:#231815;fill-opacity:1;stroke:none;stroke-width:3.29419;stroke-dasharray:none;stroke-opacity:1;paint-order:stroke fill markers;stop-color:#000000"
           d="m 53.503892,34.337805 c 10e-7,9.756746 -8.674839,11.335241 -19.375793,11.335241 -10.70095,0 -19.375789,-1.578495 -19.375788,-11.335241 0,-9.756747 8.674838,-17.666153 19.375788,-17.666153 10.700954,0 19.375793,7.909406 19.375793,17.666153 z"
           sodipodi:nodetypes="sssss" /><path
           id="path373"
           style="fill:#e83828;fill-opacity:1;stroke:none;stroke-width:3;stroke-dasharray:none;stroke-opacity:1;paint-order:stroke fill markers;stop-color:#000000"
           d="m 51.773483,34.055105 c 1e-6,8.885393 -7.900108,10.322915 -17.645384,10.322915 -9.745272,0 -17.64538,-1.437522 -17.645379,-10.322915 0,-8.885393 7.900107,-16.088427 17.645379,-16.088427 9.745276,0 17.645384,7.203034 17.645384,16.088427 z"
           sodipodi:nodetypes="sssss" /></g><path
         style="fill:#231815;fill-opacity:1;stroke:none;stroke-width:4.58442;stroke-linejoin:round;stroke-dasharray:none;paint-order:markers stroke fill;stop-color:#000000"
         d="m 27.720444,35.991243 c -1.691866,0 -3.063708,1.213475 -3.063708,2.709707 0,0.908578 0.03033,5.070946 0.03033,5.070946 l 5.944762,0.713667 c 0,0 0.151597,-4.28838 0.151597,-5.784613 0,-1.496232 -1.371105,-2.709707 -3.062971,-2.709707 z"
         id="path14362" /><rect
         style="fill:#231815;fill-opacity:1;stroke:none;stroke-width:3.429;stroke-dasharray:none;stroke-opacity:1;paint-order:stroke fill markers;stop-color:#000000"
         id="rect2256"
         width="23.495626"
         height="1.7743086"
         x="22.15925"
         y="29.017897"
         ry="0.88715428" /><ellipse
         style="fill:#231815;fill-opacity:1;stroke:none;stroke-width:0.155499;paint-order:stroke fill markers;stop-color:#000000"
         id="path946"
         cx="26.217831"
         cy="32.396088"
         rx="2.3172526"
         ry="3.197191" /><ellipse
         style="fill:#231815;fill-opacity:1;stroke:none;stroke-width:0.155499;paint-order:stroke fill markers;stop-color:#000000"
         id="ellipse1534"
         cx="41.493908"
         cy="32.322121"
         rx="2.3172526"
         ry="3.197191" /><path
         style="fill:#231815;fill-opacity:1;stroke:none;stroke-width:4.97761;stroke-linejoin:round;stroke-dasharray:none;paint-order:markers stroke fill;stop-color:#000000"
         d="m 33.466877,35.99546 c -1.646639,1.32e-4 -2.981487,1.287926 -2.98168,2.876576 3.89e-4,0.07856 0.0041,0.157048 0.01117,0.235303 v 5.785685 h 5.981831 V 38.79562 h -0.02971 c -0.04312,-1.558711 -1.365444,-2.80056 -2.981627,-2.800163 z"
         id="path14364" /><path
         style="fill:#231815;fill-opacity:1;stroke:none;stroke-width:4.69385;stroke-linejoin:round;stroke-dasharray:none;paint-order:markers stroke fill;stop-color:#000000"
         d="m 39.255152,36.303127 c 1.773603,0 3.211721,1.213475 3.211721,2.709707 0,0.908578 -0.0318,5.070946 -0.0318,5.070946 l -6.231964,0.713667 c 0,0 -0.158921,-4.28838 -0.158921,-5.784613 0,-1.496232 1.437345,-2.709707 3.210948,-2.709707 z"
         id="path14366" /><path
         style="fill:#ffffff;stroke:none;stroke-width:3.3;stroke-linejoin:round;stroke-dasharray:none;paint-order:markers stroke fill;stop-color:#000000"
         d="m 33.597862,37.746175 a 1.9189054,1.9649693 0 0 0 -1.918746,1.964738 1.9189054,1.9649693 0 0 0 0.0072,0.160714 v 3.951697 h 3.849377 V 39.65872 h -0.01912 a 1.9189054,1.9649693 0 0 0 -1.918711,-1.912548 z"
         id="path14372" /><path
         style="fill:#ffffff;stroke:none;stroke-width:3.3;stroke-linejoin:round;stroke-dasharray:none;paint-order:markers stroke fill;stop-color:#000000"
         d="m 27.729563,37.302749 c -1.182295,0 -2.140954,0.89976 -2.140954,2.009179 0,0.673687 0.02119,3.759978 0.02119,3.759978 l 4.154268,0.529166 c 0,0 0.105937,-3.179725 0.105937,-4.289144 0,-1.109419 -0.958143,-2.009179 -2.140438,-2.009179 z"
         id="path14370" /><path
         style="fill:#ffffff;stroke:none;stroke-width:3.3;stroke-linejoin:round;stroke-dasharray:none;paint-order:markers stroke fill;stop-color:#000000"
         d="m 39.287253,37.523037 c -1.182295,0 -2.140955,0.899244 -2.140955,2.008663 0,1.109419 0.105937,4.289661 0.105937,4.289661 l 4.154268,-0.529167 c 0,0 0.02119,-3.086808 0.02119,-3.760494 0,-1.109419 -0.958143,-2.008663 -2.140437,-2.008663 z"
         id="path2459" /></g><g
       inkscape:label="Layer 1"
       id="g7707"
       transform="matrix(0.00589396,-0.06782516,0.06782516,0.00589396,16.976079,50.846947)"><path
         style="fill:#231815;fill-opacity:1;stroke:none;stroke-width:4.48178;stroke-dasharray:none;stroke-opacity:1;paint-order:markers stroke fill"
         d="m 23.794235,57.136243 c 0,0 -1.049723,-1.035223 -1.21569,-1.906281 -0.761454,-3.996426 2.964053,-12.272 2.964053,-12.272 l 18.061398,-0.640134 c 0,0 2.887893,9.464414 1.651674,13.438507 -0.250393,0.80494 -3.001795,1.300875 -3.001795,1.300875 z"
         id="path7667"
         sodipodi:nodetypes="csccscc" /><path
         style="fill:#e83828;fill-opacity:1;stroke:none;stroke-width:3.7;stroke-dasharray:none;stroke-opacity:1;paint-order:markers stroke fill"
         d="m 25.591977,55.962707 c 0,0 -0.866615,-0.854644 -1.003631,-1.573759 -0.62863,-3.29931 2.447018,-10.131335 2.447018,-10.131335 l 14.91086,-0.528472 c 0,0 2.384144,7.81349 1.363564,11.094362 -0.206715,0.66453 -2.478177,1.073957 -2.478177,1.073957 z"
         id="path7669"
         sodipodi:nodetypes="csccscc" /><path
         style="fill:#231815;fill-opacity:1;stroke:none;stroke-width:3.25799;stroke-linecap:butt;stroke-linejoin:miter;stroke-dasharray:none;stroke-opacity:1;paint-order:markers stroke fill"
         d="m 22.93426,42.480679 c 0,0 -2.622626,6.715061 -2.422301,9.800883 0.04807,0.740519 0.891421,1.227536 0.891421,1.227536 l 4.622057,0.440061 1.474936,-11.595852 z"
         id="path7671"
         sodipodi:nodetypes="cscccc" /><ellipse
         style="fill:#ffffff;fill-opacity:1;stroke:none;stroke-width:2.79073;stroke-linejoin:round;stroke-dasharray:none;stroke-opacity:1;paint-order:markers stroke fill;stop-color:#000000"
         id="ellipse7673"
         cx="33.919746"
         cy="46.713211"
         rx="7.0274954"
         ry="6.0992723" /><path
         style="fill:#231815;fill-opacity:1;stroke:none;stroke-width:3.25799;stroke-linecap:butt;stroke-linejoin:miter;stroke-dasharray:none;stroke-opacity:1;paint-order:markers stroke fill"
         d="m 44.516676,43.158307 c 0,0 2.622626,6.715061 2.422301,9.800883 -0.04807,0.740519 -0.891421,1.227536 -0.891421,1.227536 l -4.622057,0.440061 -1.474936,-11.595852 z"
         id="path7675"
         sodipodi:nodetypes="cscccc" /><path
         style="fill:#ffffff;fill-opacity:1;stroke:none;stroke-width:2.601;stroke-linecap:butt;stroke-linejoin:miter;stroke-dasharray:none;stroke-opacity:1;paint-order:markers stroke fill"
         d="m 44.415564,44.456974 c 0,0 2.093763,5.360943 1.933835,7.824497 -0.03838,0.591191 -0.711663,0.979999 -0.711663,0.979999 l -3.690001,0.351321 -1.17751,-9.257504 z"
         id="path7677"
         sodipodi:nodetypes="cscccc" /><path
         style="fill:#ffffff;fill-opacity:1;stroke:#231815;stroke-width:3.9;stroke-linecap:butt;stroke-linejoin:round;stroke-dasharray:none;stroke-opacity:1;paint-order:markers stroke fill"
         d="m 32.276676,18.802897 -2.102635,-7.221733 c 2.810206,-0.559982 5.518447,-0.435615 8.180313,0 l -1.273653,7.19164 z"
         id="path7679"
         sodipodi:nodetypes="ccccc" /><path
         style="fill:#ffffff;fill-opacity:1;stroke:none;stroke-width:2.601;stroke-linecap:butt;stroke-linejoin:miter;stroke-dasharray:none;stroke-opacity:1;paint-order:markers stroke fill"
         d="m 23.035372,43.779346 c 0,0 -2.093763,5.360943 -1.933835,7.824497 0.03838,0.591191 0.711663,0.979999 0.711663,0.979999 l 3.690001,0.351321 1.17751,-9.257504 z"
         id="path7681"
         sodipodi:nodetypes="cscccc" /><g
         id="g7687"><path
           id="path7683"
           style="fill:#231815;fill-opacity:1;stroke:none;stroke-width:3.29419;stroke-dasharray:none;stroke-opacity:1;paint-order:stroke fill markers;stop-color:#000000"
           d="m 53.503892,34.337805 c 10e-7,9.756746 -8.674839,11.335241 -19.375793,11.335241 -10.70095,0 -19.375789,-1.578495 -19.375788,-11.335241 0,-9.756747 8.674838,-17.666153 19.375788,-17.666153 10.700954,0 19.375793,7.909406 19.375793,17.666153 z"
           sodipodi:nodetypes="sssss" /><path
           id="path7685"
           style="fill:#e83828;fill-opacity:1;stroke:none;stroke-width:3;stroke-dasharray:none;stroke-opacity:1;paint-order:stroke fill markers;stop-color:#000000"
           d="m 51.773483,34.055105 c 1e-6,8.885393 -7.900108,10.322915 -17.645384,10.322915 -9.745272,0 -17.64538,-1.437522 -17.645379,-10.322915 0,-8.885393 7.900107,-16.088427 17.645379,-16.088427 9.745276,0 17.645384,7.203034 17.645384,16.088427 z"
           sodipodi:nodetypes="sssss" /></g><path
         style="fill:#231815;fill-opacity:1;stroke:none;stroke-width:4.58442;stroke-linejoin:round;stroke-dasharray:none;paint-order:markers stroke fill;stop-color:#000000"
         d="m 27.720444,35.991243 c -1.691866,0 -3.063708,1.213475 -3.063708,2.709707 0,0.908578 0.03033,5.070946 0.03033,5.070946 l 5.944762,0.713667 c 0,0 0.151597,-4.28838 0.151597,-5.784613 0,-1.496232 -1.371105,-2.709707 -3.062971,-2.709707 z"
         id="path7689" /><rect
         style="fill:#231815;fill-opacity:1;stroke:none;stroke-width:3.429;stroke-dasharray:none;stroke-opacity:1;paint-order:stroke fill markers;stop-color:#000000"
         id="rect7691"
         width="23.495626"
         height="1.7743086"
         x="22.15925"
         y="29.017897"
         ry="0.88715428" /><ellipse
         style="fill:#231815;fill-opacity:1;stroke:none;stroke-width:0.155499;paint-order:stroke fill markers;stop-color:#000000"
         id="ellipse7693"
         cx="26.217831"
         cy="32.396088"
         rx="2.3172526"
         ry="3.197191" /><ellipse
         style="fill:#231815;fill-opacity:1;stroke:none;stroke-width:0.155499;paint-order:stroke fill markers;stop-color:#000000"
         id="ellipse7695"
         cx="41.493908"
         cy="32.322121"
         rx="2.3172526"
         ry="3.197191" /><path
         style="fill:#231815;fill-opacity:1;stroke:none;stroke-width:4.97761;stroke-linejoin:round;stroke-dasharray:none;paint-order:markers stroke fill;stop-color:#000000"
         d="m 33.466877,35.99546 c -1.646639,1.32e-4 -2.981487,1.287926 -2.98168,2.876576 3.89e-4,0.07856 0.0041,0.157048 0.01117,0.235303 v 5.785685 h 5.981831 V 38.79562 h -0.02971 c -0.04312,-1.558711 -1.365444,-2.80056 -2.981627,-2.800163 z"
         id="path7697" /><path
         style="fill:#231815;fill-opacity:1;stroke:none;stroke-width:4.69385;stroke-linejoin:round;stroke-dasharray:none;paint-order:markers stroke fill;stop-color:#000000"
         d="m 39.255152,36.303127 c 1.773603,0 3.211721,1.213475 3.211721,2.709707 0,0.908578 -0.0318,5.070946 -0.0318,5.070946 l -6.231964,0.713667 c 0,0 -0.158921,-4.28838 -0.158921,-5.784613 0,-1.496232 1.437345,-2.709707 3.210948,-2.709707 z"
         id="path7699" /><path
         style="fill:#ffffff;stroke:none;stroke-width:3.3;stroke-linejoin:round;stroke-dasharray:none;paint-order:markers stroke fill;stop-color:#000000"
         d="m 33.597862,37.746175 a 1.9189054,1.9649693 0 0 0 -1.918746,1.964738 1.9189054,1.9649693 0 0 0 0.0072,0.160714 v 3.951697 h 3.849377 V 39.65872 h -0.01912 a 1.9189054,1.9649693 0 0 0 -1.918711,-1.912548 z"
         id="path7701" /><path
         style="fill:#ffffff;stroke:none;stroke-width:3.3;stroke-linejoin:round;stroke-dasharray:none;paint-order:markers stroke fill;stop-color:#000000"
         d="m 27.729563,37.302749 c -1.182295,0 -2.140954,0.89976 -2.140954,2.009179 0,0.673687 0.02119,3.759978 0.02119,3.759978 l 4.154268,0.529166 c 0,0 0.105937,-3.179725 0.105937,-4.289144 0,-1.109419 -0.958143,-2.009179 -2.140438,-2.009179 z"
         id="path7703" /><path
         style="fill:#ffffff;stroke:none;stroke-width:3.3;stroke-linejoin:round;stroke-dasharray:none;paint-order:markers stroke fill;stop-color:#000000"
         d="m 39.287253,37.523037 c -1.182295,0 -2.140955,0.899244 -2.140955,2.008663 0,1.109419 0.105937,4.289661 0.105937,4.289661 l 4.154268,-0.529167 c 0,0 0.02119,-3.086808 0.02119,-3.760494 0,-1.109419 -0.958143,-2.008663 -2.140437,-2.008663 z"
         id="path7705" /></g><g
       inkscape:label="Layer 1"
       id="g7749"
       transform="matrix(0.04602841,0.0501635,-0.0501635,0.04602841,15.850177,31.989779)"><path
         style="fill:#231815;fill-opacity:1;stroke:none;stroke-width:4.48178;stroke-dasharray:none;stroke-opacity:1;paint-order:markers stroke fill"
         d="m 23.794235,57.136243 c 0,0 -1.049723,-1.035223 -1.21569,-1.906281 -0.761454,-3.996426 2.964053,-12.272 2.964053,-12.272 l 18.061398,-0.640134 c 0,0 2.887893,9.464414 1.651674,13.438507 -0.250393,0.80494 -3.001795,1.300875 -3.001795,1.300875 z"
         id="path7709"
         sodipodi:nodetypes="csccscc" /><path
         style="fill:#e83828;fill-opacity:1;stroke:none;stroke-width:3.7;stroke-dasharray:none;stroke-opacity:1;paint-order:markers stroke fill"
         d="m 25.591977,55.962707 c 0,0 -0.866615,-0.854644 -1.003631,-1.573759 -0.62863,-3.29931 2.447018,-10.131335 2.447018,-10.131335 l 14.91086,-0.528472 c 0,0 2.384144,7.81349 1.363564,11.094362 -0.206715,0.66453 -2.478177,1.073957 -2.478177,1.073957 z"
         id="path7711"
         sodipodi:nodetypes="csccscc" /><path
         style="fill:#231815;fill-opacity:1;stroke:none;stroke-width:3.25799;stroke-linecap:butt;stroke-linejoin:miter;stroke-dasharray:none;stroke-opacity:1;paint-order:markers stroke fill"
         d="m 22.93426,42.480679 c 0,0 -2.622626,6.715061 -2.422301,9.800883 0.04807,0.740519 0.891421,1.227536 0.891421,1.227536 l 4.622057,0.440061 1.474936,-11.595852 z"
         id="path7713"
         sodipodi:nodetypes="cscccc" /><ellipse
         style="fill:#ffffff;fill-opacity:1;stroke:none;stroke-width:2.79073;stroke-linejoin:round;stroke-dasharray:none;stroke-opacity:1;paint-order:markers stroke fill;stop-color:#000000"
         id="ellipse7715"
         cx="33.919746"
         cy="46.713211"
         rx="7.0274954"
         ry="6.0992723" /><path
         style="fill:#231815;fill-opacity:1;stroke:none;stroke-width:3.25799;stroke-linecap:butt;stroke-linejoin:miter;stroke-dasharray:none;stroke-opacity:1;paint-order:markers stroke fill"
         d="m 44.516676,43.158307 c 0,0 2.622626,6.715061 2.422301,9.800883 -0.04807,0.740519 -0.891421,1.227536 -0.891421,1.227536 l -4.622057,0.440061 -1.474936,-11.595852 z"
         id="path7717"
         sodipodi:nodetypes="cscccc" /><path
         style="fill:#ffffff;fill-opacity:1;stroke:none;stroke-width:2.601;stroke-linecap:butt;stroke-linejoin:miter;stroke-dasharray:none;stroke-opacity:1;paint-order:markers stroke fill"
         d="m 44.415564,44.456974 c 0,0 2.093763,5.360943 1.933835,7.824497 -0.03838,0.591191 -0.711663,0.979999 -0.711663,0.979999 l -3.690001,0.351321 -1.17751,-9.257504 z"
         id="path7719"
         sodipodi:nodetypes="cscccc" /><path
         style="fill:#ffffff;fill-opacity:1;stroke:#231815;stroke-width:3.9;stroke-linecap:butt;stroke-linejoin:round;stroke-dasharray:none;stroke-opacity:1;paint-order:markers stroke fill"
         d="m 32.276676,18.802897 -2.102635,-7.221733 c 2.810206,-0.559982 5.518447,-0.435615 8.180313,0 l -1.273653,7.19164 z"
         id="path7721"
         sodipodi:nodetypes="ccccc" /><path
         style="fill:#ffffff;fill-opacity:1;stroke:none;stroke-width:2.601;stroke-linecap:butt;stroke-linejoin:miter;stroke-dasharray:none;stroke-opacity:1;paint-order:markers stroke fill"
         d="m 23.035372,43.779346 c 0,0 -2.093763,5.360943 -1.933835,7.824497 0.03838,0.591191 0.711663,0.979999 0.711663,0.979999 l 3.690001,0.351321 1.17751,-9.257504 z"
         id="path7723"
         sodipodi:nodetypes="cscccc" /><g
         id="g7729"><path
           id="path7725"
           style="fill:#231815;fill-opacity:1;stroke:none;stroke-width:3.29419;stroke-dasharray:none;stroke-opacity:1;paint-order:stroke fill markers;stop-color:#000000"
           d="m 53.503892,34.337805 c 10e-7,9.756746 -8.674839,11.335241 -19.375793,11.335241 -10.70095,0 -19.375789,-1.578495 -19.375788,-11.335241 0,-9.756747 8.674838,-17.666153 19.375788,-17.666153 10.700954,0 19.375793,7.909406 19.375793,17.666153 z"
           sodipodi:nodetypes="sssss" /><path
           id="path7727"
           style="fill:#e83828;fill-opacity:1;stroke:none;stroke-width:3;stroke-dasharray:none;stroke-opacity:1;paint-order:stroke fill markers;stop-color:#000000"
           d="m 51.773483,34.055105 c 1e-6,8.885393 -7.900108,10.322915 -17.645384,10.322915 -9.745272,0 -17.64538,-1.437522 -17.645379,-10.322915 0,-8.885393 7.900107,-16.088427 17.645379,-16.088427 9.745276,0 17.645384,7.203034 17.645384,16.088427 z"
           sodipodi:nodetypes="sssss" /></g><path
         style="fill:#231815;fill-opacity:1;stroke:none;stroke-width:4.58442;stroke-linejoin:round;stroke-dasharray:none;paint-order:markers stroke fill;stop-color:#000000"
         d="m 27.720444,35.991243 c -1.691866,0 -3.063708,1.213475 -3.063708,2.709707 0,0.908578 0.03033,5.070946 0.03033,5.070946 l 5.944762,0.713667 c 0,0 0.151597,-4.28838 0.151597,-5.784613 0,-1.496232 -1.371105,-2.709707 -3.062971,-2.709707 z"
         id="path7731" /><rect
         style="fill:#231815;fill-opacity:1;stroke:none;stroke-width:3.429;stroke-dasharray:none;stroke-opacity:1;paint-order:stroke fill markers;stop-color:#000000"
         id="rect7733"
         width="23.495626"
         height="1.7743086"
         x="22.15925"
         y="29.017897"
         ry="0.88715428" /><ellipse
         style="fill:#231815;fill-opacity:1;stroke:none;stroke-width:0.155499;paint-order:stroke fill markers;stop-color:#000000"
         id="ellipse7735"
         cx="26.217831"
         cy="32.396088"
         rx="2.3172526"
         ry="3.197191" /><ellipse
         style="fill:#231815;fill-opacity:1;stroke:none;stroke-width:0.155499;paint-order:stroke fill markers;stop-color:#000000"
         id="ellipse7737"
         cx="41.493908"
         cy="32.322121"
         rx="2.3172526"
         ry="3.197191" /><path
         style="fill:#231815;fill-opacity:1;stroke:none;stroke-width:4.97761;stroke-linejoin:round;stroke-dasharray:none;paint-order:markers stroke fill;stop-color:#000000"
         d="m 33.466877,35.99546 c -1.646639,1.32e-4 -2.981487,1.287926 -2.98168,2.876576 3.89e-4,0.07856 0.0041,0.157048 0.01117,0.235303 v 5.785685 h 5.981831 V 38.79562 h -0.02971 c -0.04312,-1.558711 -1.365444,-2.80056 -2.981627,-2.800163 z"
         id="path7739" /><path
         style="fill:#231815;fill-opacity:1;stroke:none;stroke-width:4.69385;stroke-linejoin:round;stroke-dasharray:none;paint-order:markers stroke fill;stop-color:#000000"
         d="m 39.255152,36.303127 c 1.773603,0 3.211721,1.213475 3.211721,2.709707 0,0.908578 -0.0318,5.070946 -0.0318,5.070946 l -6.231964,0.713667 c 0,0 -0.158921,-4.28838 -0.158921,-5.784613 0,-1.496232 1.437345,-2.709707 3.210948,-2.709707 z"
         id="path7741" /><path
         style="fill:#ffffff;stroke:none;stroke-width:3.3;stroke-linejoin:round;stroke-dasharray:none;paint-order:markers stroke fill;stop-color:#000000"
         d="m 33.597862,37.746175 a 1.9189054,1.9649693 0 0 0 -1.918746,1.964738 1.9189054,1.9649693 0 0 0 0.0072,0.160714 v 3.951697 h 3.849377 V 39.65872 h -0.01912 a 1.9189054,1.9649693 0 0 0 -1.918711,-1.912548 z"
         id="path7743" /><path
         style="fill:#ffffff;stroke:none;stroke-width:3.3;stroke-linejoin:round;stroke-dasharray:none;paint-order:markers stroke fill;stop-color:#000000"
         d="m 27.729563,37.302749 c -1.182295,0 -2.140954,0.89976 -2.140954,2.009179 0,0.673687 0.02119,3.759978 0.02119,3.759978 l 4.154268,0.529166 c 0,0 0.105937,-3.179725 0.105937,-4.289144 0,-1.109419 -0.958143,-2.009179 -2.140438,-2.009179 z"
         id="path7745" /><path
         style="fill:#ffffff;stroke:none;stroke-width:3.3;stroke-linejoin:round;stroke-dasharray:none;paint-order:markers stroke fill;stop-color:#000000"
         d="m 39.287253,37.523037 c -1.182295,0 -2.140955,0.899244 -2.140955,2.008663 0,1.109419 0.105937,4.289661 0.105937,4.289661 l 4.154268,-0.529167 c 0,0 0.02119,-3.086808 0.02119,-3.760494 0,-1.109419 -0.958143,-2.008663 -2.140437,-2.008663 z"
         id="path7747" /></g><g
       inkscape:label="Layer 1"
       id="g7791"
       transform="matrix(0.0440933,-0.05187265,0.05187265,0.0440933,33.799291,40.694057)"><path
         style="fill:#231815;fill-opacity:1;stroke:none;stroke-width:4.48178;stroke-dasharray:none;stroke-opacity:1;paint-order:markers stroke fill"
         d="m 23.794235,57.136243 c 0,0 -1.049723,-1.035223 -1.21569,-1.906281 -0.761454,-3.996426 2.964053,-12.272 2.964053,-12.272 l 18.061398,-0.640134 c 0,0 2.887893,9.464414 1.651674,13.438507 -0.250393,0.80494 -3.001795,1.300875 -3.001795,1.300875 z"
         id="path7751"
         sodipodi:nodetypes="csccscc" /><path
         style="fill:#e83828;fill-opacity:1;stroke:none;stroke-width:3.7;stroke-dasharray:none;stroke-opacity:1;paint-order:markers stroke fill"
         d="m 25.591977,55.962707 c 0,0 -0.866615,-0.854644 -1.003631,-1.573759 -0.62863,-3.29931 2.447018,-10.131335 2.447018,-10.131335 l 14.91086,-0.528472 c 0,0 2.384144,7.81349 1.363564,11.094362 -0.206715,0.66453 -2.478177,1.073957 -2.478177,1.073957 z"
         id="path7753"
         sodipodi:nodetypes="csccscc" /><path
         style="fill:#231815;fill-opacity:1;stroke:none;stroke-width:3.25799;stroke-linecap:butt;stroke-linejoin:miter;stroke-dasharray:none;stroke-opacity:1;paint-order:markers stroke fill"
         d="m 22.93426,42.480679 c 0,0 -2.622626,6.715061 -2.422301,9.800883 0.04807,0.740519 0.891421,1.227536 0.891421,1.227536 l 4.622057,0.440061 1.474936,-11.595852 z"
         id="path7755"
         sodipodi:nodetypes="cscccc" /><ellipse
         style="fill:#ffffff;fill-opacity:1;stroke:none;stroke-width:2.79073;stroke-linejoin:round;stroke-dasharray:none;stroke-opacity:1;paint-order:markers stroke fill;stop-color:#000000"
         id="ellipse7757"
         cx="33.919746"
         cy="46.713211"
         rx="7.0274954"
         ry="6.0992723" /><path
         style="fill:#231815;fill-opacity:1;stroke:none;stroke-width:3.25799;stroke-linecap:butt;stroke-linejoin:miter;stroke-dasharray:none;stroke-opacity:1;paint-order:markers stroke fill"
         d="m 44.516676,43.158307 c 0,0 2.622626,6.715061 2.422301,9.800883 -0.04807,0.740519 -0.891421,1.227536 -0.891421,1.227536 l -4.622057,0.440061 -1.474936,-11.595852 z"
         id="path7759"
         sodipodi:nodetypes="cscccc" /><path
         style="fill:#ffffff;fill-opacity:1;stroke:none;stroke-width:2.601;stroke-linecap:butt;stroke-linejoin:miter;stroke-dasharray:none;stroke-opacity:1;paint-order:markers stroke fill"
         d="m 44.415564,44.456974 c 0,0 2.093763,5.360943 1.933835,7.824497 -0.03838,0.591191 -0.711663,0.979999 -0.711663,0.979999 l -3.690001,0.351321 -1.17751,-9.257504 z"
         id="path7761"
         sodipodi:nodetypes="cscccc" /><path
         style="fill:#ffffff;fill-opacity:1;stroke:#231815;stroke-width:3.9;stroke-linecap:butt;stroke-linejoin:round;stroke-dasharray:none;stroke-opacity:1;paint-order:markers stroke fill"
         d="m 32.276676,18.802897 -2.102635,-7.221733 c 2.810206,-0.559982 5.518447,-0.435615 8.180313,0 l -1.273653,7.19164 z"
         id="path7763"
         sodipodi:nodetypes="ccccc" /><path
         style="fill:#ffffff;fill-opacity:1;stroke:none;stroke-width:2.601;stroke-linecap:butt;stroke-linejoin:miter;stroke-dasharray:none;stroke-opacity:1;paint-order:markers stroke fill"
         d="m 23.035372,43.779346 c 0,0 -2.093763,5.360943 -1.933835,7.824497 0.03838,0.591191 0.711663,0.979999 0.711663,0.979999 l 3.690001,0.351321 1.17751,-9.257504 z"
         id="path7765"
         sodipodi:nodetypes="cscccc" /><g
         id="g7771"><path
           id="path7767"
           style="fill:#231815;fill-opacity:1;stroke:none;stroke-width:3.29419;stroke-dasharray:none;stroke-opacity:1;paint-order:stroke fill markers;stop-color:#000000"
           d="m 53.503892,34.337805 c 10e-7,9.756746 -8.674839,11.335241 -19.375793,11.335241 -10.70095,0 -19.375789,-1.578495 -19.375788,-11.335241 0,-9.756747 8.674838,-17.666153 19.375788,-17.666153 10.700954,0 19.375793,7.909406 19.375793,17.666153 z"
           sodipodi:nodetypes="sssss" /><path
           id="path7769"
           style="fill:#e83828;fill-opacity:1;stroke:none;stroke-width:3;stroke-dasharray:none;stroke-opacity:1;paint-order:stroke fill markers;stop-color:#000000"
           d="m 51.773483,34.055105 c 1e-6,8.885393 -7.900108,10.322915 -17.645384,10.322915 -9.745272,0 -17.64538,-1.437522 -17.645379,-10.322915 0,-8.885393 7.900107,-16.088427 17.645379,-16.088427 9.745276,0 17.645384,7.203034 17.645384,16.088427 z"
           sodipodi:nodetypes="sssss" /></g><path
         style="fill:#231815;fill-opacity:1;stroke:none;stroke-width:4.58442;stroke-linejoin:round;stroke-dasharray:none;paint-order:markers stroke fill;stop-color:#000000"
         d="m 27.720444,35.991243 c -1.691866,0 -3.063708,1.213475 -3.063708,2.709707 0,0.908578 0.03033,5.070946 0.03033,5.070946 l 5.944762,0.713667 c 0,0 0.151597,-4.28838 0.151597,-5.784613 0,-1.496232 -1.371105,-2.709707 -3.062971,-2.709707 z"
         id="path7773" /><rect
         style="fill:#231815;fill-opacity:1;stroke:none;stroke-width:3.429;stroke-dasharray:none;stroke-opacity:1;paint-order:stroke fill markers;stop-color:#000000"
         id="rect7775"
         width="23.495626"
         height="1.7743086"
         x="22.15925"
         y="29.017897"
         ry="0.88715428" /><ellipse
         style="fill:#231815;fill-opacity:1;stroke:none;stroke-width:0.155499;paint-order:stroke fill markers;stop-color:#000000"
         id="ellipse7777"
         cx="26.217831"
         cy="32.396088"
         rx="2.3172526"
         ry="3.197191" /><ellipse
         style="fill:#231815;fill-opacity:1;stroke:none;stroke-width:0.155499;paint-order:stroke fill markers;stop-color:#000000"
         id="ellipse7779"
         cx="41.493908"
         cy="32.322121"
         rx="2.3172526"
         ry="3.197191" /><path
         style="fill:#231815;fill-opacity:1;stroke:none;stroke-width:4.97761;stroke-linejoin:round;stroke-dasharray:none;paint-order:markers stroke fill;stop-color:#000000"
         d="m 33.466877,35.99546 c -1.646639,1.32e-4 -2.981487,1.287926 -2.98168,2.876576 3.89e-4,0.07856 0.0041,0.157048 0.01117,0.235303 v 5.785685 h 5.981831 V 38.79562 h -0.02971 c -0.04312,-1.558711 -1.365444,-2.80056 -2.981627,-2.800163 z"
         id="path7781" /><path
         style="fill:#231815;fill-opacity:1;stroke:none;stroke-width:4.69385;stroke-linejoin:round;stroke-dasharray:none;paint-order:markers stroke fill;stop-color:#000000"
         d="m 39.255152,36.303127 c 1.773603,0 3.211721,1.213475 3.211721,2.709707 0,0.908578 -0.0318,5.070946 -0.0318,5.070946 l -6.231964,0.713667 c 0,0 -0.158921,-4.28838 -0.158921,-5.784613 0,-1.496232 1.437345,-2.709707 3.210948,-2.709707 z"
         id="path7783" /><path
         style="fill:#ffffff;stroke:none;stroke-width:3.3;stroke-linejoin:round;stroke-dasharray:none;paint-order:markers stroke fill;stop-color:#000000"
         d="m 33.597862,37.746175 a 1.9189054,1.9649693 0 0 0 -1.918746,1.964738 1.9189054,1.9649693 0 0 0 0.0072,0.160714 v 3.951697 h 3.849377 V 39.65872 h -0.01912 a 1.9189054,1.9649693 0 0 0 -1.918711,-1.912548 z"
         id="path7785" /><path
         style="fill:#ffffff;stroke:none;stroke-width:3.3;stroke-linejoin:round;stroke-dasharray:none;paint-order:markers stroke fill;stop-color:#000000"
         d="m 27.729563,37.302749 c -1.182295,0 -2.140954,0.89976 -2.140954,2.009179 0,0.673687 0.02119,3.759978 0.02119,3.759978 l 4.154268,0.529166 c 0,0 0.105937,-3.179725 0.105937,-4.289144 0,-1.109419 -0.958143,-2.009179 -2.140438,-2.009179 z"
         id="path7787" /><path
         style="fill:#ffffff;stroke:none;stroke-width:3.3;stroke-linejoin:round;stroke-dasharray:none;paint-order:markers stroke fill;stop-color:#000000"
         d="m 39.287253,37.523037 c -1.182295,0 -2.140955,0.899244 -2.140955,2.008663 0,1.109419 0.105937,4.289661 0.105937,4.289661 l 4.154268,-0.529167 c 0,0 0.02119,-3.086808 0.02119,-3.760494 0,-1.109419 -0.958143,-2.008663 -2.140437,-2.008663 z"
         id="path7789" /></g><g
       inkscape:label="Layer 1"
       id="g7833"
       transform="matrix(0.02516012,0.06326104,-0.06326104,0.02516012,45.731737,39.806235)"><path
         style="fill:#231815;fill-opacity:1;stroke:none;stroke-width:4.48178;stroke-dasharray:none;stroke-opacity:1;paint-order:markers stroke fill"
         d="m 23.794235,57.136243 c 0,0 -1.049723,-1.035223 -1.21569,-1.906281 -0.761454,-3.996426 2.964053,-12.272 2.964053,-12.272 l 18.061398,-0.640134 c 0,0 2.887893,9.464414 1.651674,13.438507 -0.250393,0.80494 -3.001795,1.300875 -3.001795,1.300875 z"
         id="path7793"
         sodipodi:nodetypes="csccscc" /><path
         style="fill:#e83828;fill-opacity:1;stroke:none;stroke-width:3.7;stroke-dasharray:none;stroke-opacity:1;paint-order:markers stroke fill"
         d="m 25.591977,55.962707 c 0,0 -0.866615,-0.854644 -1.003631,-1.573759 -0.62863,-3.29931 2.447018,-10.131335 2.447018,-10.131335 l 14.91086,-0.528472 c 0,0 2.384144,7.81349 1.363564,11.094362 -0.206715,0.66453 -2.478177,1.073957 -2.478177,1.073957 z"
         id="path7795"
         sodipodi:nodetypes="csccscc" /><path
         style="fill:#231815;fill-opacity:1;stroke:none;stroke-width:3.25799;stroke-linecap:butt;stroke-linejoin:miter;stroke-dasharray:none;stroke-opacity:1;paint-order:markers stroke fill"
         d="m 22.93426,42.480679 c 0,0 -2.622626,6.715061 -2.422301,9.800883 0.04807,0.740519 0.891421,1.227536 0.891421,1.227536 l 4.622057,0.440061 1.474936,-11.595852 z"
         id="path7797"
         sodipodi:nodetypes="cscccc" /><ellipse
         style="fill:#ffffff;fill-opacity:1;stroke:none;stroke-width:2.79073;stroke-linejoin:round;stroke-dasharray:none;stroke-opacity:1;paint-order:markers stroke fill;stop-color:#000000"
         id="ellipse7799"
         cx="33.919746"
         cy="46.713211"
         rx="7.0274954"
         ry="6.0992723" /><path
         style="fill:#231815;fill-opacity:1;stroke:none;stroke-width:3.25799;stroke-linecap:butt;stroke-linejoin:miter;stroke-dasharray:none;stroke-opacity:1;paint-order:markers stroke fill"
         d="m 44.516676,43.158307 c 0,0 2.622626,6.715061 2.422301,9.800883 -0.04807,0.740519 -0.891421,1.227536 -0.891421,1.227536 l -4.622057,0.440061 -1.474936,-11.595852 z"
         id="path7801"
         sodipodi:nodetypes="cscccc" /><path
         style="fill:#ffffff;fill-opacity:1;stroke:none;stroke-width:2.601;stroke-linecap:butt;stroke-linejoin:miter;stroke-dasharray:none;stroke-opacity:1;paint-order:markers stroke fill"
         d="m 44.415564,44.456974 c 0,0 2.093763,5.360943 1.933835,7.824497 -0.03838,0.591191 -0.711663,0.979999 -0.711663,0.979999 l -3.690001,0.351321 -1.17751,-9.257504 z"
         id="path7803"
         sodipodi:nodetypes="cscccc" /><path
         style="fill:#ffffff;fill-opacity:1;stroke:#231815;stroke-width:3.9;stroke-linecap:butt;stroke-linejoin:round;stroke-dasharray:none;stroke-opacity:1;paint-order:markers stroke fill"
         d="m 32.276676,18.802897 -2.102635,-7.221733 c 2.810206,-0.559982 5.518447,-0.435615 8.180313,0 l -1.273653,7.19164 z"
         id="path7805"
         sodipodi:nodetypes="ccccc" /><path
         style="fill:#ffffff;fill-opacity:1;stroke:none;stroke-width:2.601;stroke-linecap:butt;stroke-linejoin:miter;stroke-dasharray:none;stroke-opacity:1;paint-order:markers stroke fill"
         d="m 23.035372,43.779346 c 0,0 -2.093763,5.360943 -1.933835,7.824497 0.03838,0.591191 0.711663,0.979999 0.711663,0.979999 l 3.690001,0.351321 1.17751,-9.257504 z"
         id="path7807"
         sodipodi:nodetypes="cscccc" /><g
         id="g7813"><path
           id="path7809"
           style="fill:#231815;fill-opacity:1;stroke:none;stroke-width:3.29419;stroke-dasharray:none;stroke-opacity:1;paint-order:stroke fill markers;stop-color:#000000"
           d="m 53.503892,34.337805 c 10e-7,9.756746 -8.674839,11.335241 -19.375793,11.335241 -10.70095,0 -19.375789,-1.578495 -19.375788,-11.335241 0,-9.756747 8.674838,-17.666153 19.375788,-17.666153 10.700954,0 19.375793,7.909406 19.375793,17.666153 z"
           sodipodi:nodetypes="sssss" /><path
           id="path7811"
           style="fill:#e83828;fill-opacity:1;stroke:none;stroke-width:3;stroke-dasharray:none;stroke-opacity:1;paint-order:stroke fill markers;stop-color:#000000"
           d="m 51.773483,34.055105 c 1e-6,8.885393 -7.900108,10.322915 -17.645384,10.322915 -9.745272,0 -17.64538,-1.437522 -17.645379,-10.322915 0,-8.885393 7.900107,-16.088427 17.645379,-16.088427 9.745276,0 17.645384,7.203034 17.645384,16.088427 z"
           sodipodi:nodetypes="sssss" /></g><path
         style="fill:#231815;fill-opacity:1;stroke:none;stroke-width:4.58442;stroke-linejoin:round;stroke-dasharray:none;paint-order:markers stroke fill;stop-color:#000000"
         d="m 27.720444,35.991243 c -1.691866,0 -3.063708,1.213475 -3.063708,2.709707 0,0.908578 0.03033,5.070946 0.03033,5.070946 l 5.944762,0.713667 c 0,0 0.151597,-4.28838 0.151597,-5.784613 0,-1.496232 -1.371105,-2.709707 -3.062971,-2.709707 z"
         id="path7815" /><rect
         style="fill:#231815;fill-opacity:1;stroke:none;stroke-width:3.429;stroke-dasharray:none;stroke-opacity:1;paint-order:stroke fill markers;stop-color:#000000"
         id="rect7817"
         width="23.495626"
         height="1.7743086"
         x="22.15925"
         y="29.017897"
         ry="0.88715428" /><ellipse
         style="fill:#231815;fill-opacity:1;stroke:none;stroke-width:0.155499;paint-order:stroke fill markers;stop-color:#000000"
         id="ellipse7819"
         cx="26.217831"
         cy="32.396088"
         rx="2.3172526"
         ry="3.197191" /><ellipse
         style="fill:#231815;fill-opacity:1;stroke:none;stroke-width:0.155499;paint-order:stroke fill markers;stop-color:#000000"
         id="ellipse7821"
         cx="41.493908"
         cy="32.322121"
         rx="2.3172526"
         ry="3.197191" /><path
         style="fill:#231815;fill-opacity:1;stroke:none;stroke-width:4.97761;stroke-linejoin:round;stroke-dasharray:none;paint-order:markers stroke fill;stop-color:#000000"
         d="m 33.466877,35.99546 c -1.646639,1.32e-4 -2.981487,1.287926 -2.98168,2.876576 3.89e-4,0.07856 0.0041,0.157048 0.01117,0.235303 v 5.785685 h 5.981831 V 38.79562 h -0.02971 c -0.04312,-1.558711 -1.365444,-2.80056 -2.981627,-2.800163 z"
         id="path7823" /><path
         style="fill:#231815;fill-opacity:1;stroke:none;stroke-width:4.69385;stroke-linejoin:round;stroke-dasharray:none;paint-order:markers stroke fill;stop-color:#000000"
         d="m 39.255152,36.303127 c 1.773603,0 3.211721,1.213475 3.211721,2.709707 0,0.908578 -0.0318,5.070946 -0.0318,5.070946 l -6.231964,0.713667 c 0,0 -0.158921,-4.28838 -0.158921,-5.784613 0,-1.496232 1.437345,-2.709707 3.210948,-2.709707 z"
         id="path7825" /><path
         style="fill:#ffffff;stroke:none;stroke-width:3.3;stroke-linejoin:round;stroke-dasharray:none;paint-order:markers stroke fill;stop-color:#000000"
         d="m 33.597862,37.746175 a 1.9189054,1.9649693 0 0 0 -1.918746,1.964738 1.9189054,1.9649693 0 0 0 0.0072,0.160714 v 3.951697 h 3.849377 V 39.65872 h -0.01912 a 1.9189054,1.9649693 0 0 0 -1.918711,-1.912548 z"
         id="path7827" /><path
         style="fill:#ffffff;stroke:none;stroke-width:3.3;stroke-linejoin:round;stroke-dasharray:none;paint-order:markers stroke fill;stop-color:#000000"
         d="m 27.729563,37.302749 c -1.182295,0 -2.140954,0.89976 -2.140954,2.009179 0,0.673687 0.02119,3.759978 0.02119,3.759978 l 4.154268,0.529166 c 0,0 0.105937,-3.179725 0.105937,-4.289144 0,-1.109419 -0.958143,-2.009179 -2.140438,-2.009179 z"
         id="path7829" /><path
         style="fill:#ffffff;stroke:none;stroke-width:3.3;stroke-linejoin:round;stroke-dasharray:none;paint-order:markers stroke fill;stop-color:#000000"
         d="m 39.287253,37.523037 c -1.182295,0 -2.140955,0.899244 -2.140955,2.008663 0,1.109419 0.105937,4.289661 0.105937,4.289661 l 4.154268,-0.529167 c 0,0 0.02119,-3.086808 0.02119,-3.760494 0,-1.109419 -0.958143,-2.008663 -2.140437,-2.008663 z"
         id="path7831" /></g></g></svg>
