<?xml version="1.0" encoding="UTF-8" standalone="no"?>
<!-- Created with Inkscape (http://www.inkscape.org/) -->

<svg
   width="55mm"
   height="55mm"
   viewBox="0 0 55 55"
   version="1.1"
   id="svg5"
   xml:space="preserve"
   sodipodi:docname="sodaslosher.svg"
   inkscape:version="1.2.2 (b0a8486541, 2022-12-01)"
   inkscape:export-filename="sodaslosher.png"
   inkscape:export-xdpi="118.22546"
   inkscape:export-ydpi="118.22546"
   xmlns:inkscape="http://www.inkscape.org/namespaces/inkscape"
   xmlns:sodipodi="http://sodipodi.sourceforge.net/DTD/sodipodi-0.dtd"
   xmlns:xlink="http://www.w3.org/1999/xlink"
   xmlns="http://www.w3.org/2000/svg"
   xmlns:svg="http://www.w3.org/2000/svg"><sodipodi:namedview
     id="namedview7"
     pagecolor="#ffffff"
     bordercolor="#666666"
     borderopacity="1.0"
     inkscape:showpageshadow="2"
     inkscape:pageopacity="0.0"
     inkscape:pagecheckerboard="0"
     inkscape:deskcolor="#d1d1d1"
     inkscape:document-units="mm"
     showgrid="false"
     inkscape:zoom="3.1083974"
     inkscape:cx="14.155204"
     inkscape:cy="128.04026"
     inkscape:window-width="1906"
     inkscape:window-height="1026"
     inkscape:window-x="5"
     inkscape:window-y="25"
     inkscape:window-maximized="1"
     inkscape:current-layer="layer1" /><defs
     id="defs2"><linearGradient
       id="linearGradient40870"
       inkscape:swatch="solid"><stop
         style="stop-color:#92958a;stop-opacity:1;"
         offset="0"
         id="stop40868" /></linearGradient><linearGradient
       id="linearGradient40864"
       inkscape:swatch="solid"><stop
         style="stop-color:#92958a;stop-opacity:1;"
         offset="0"
         id="stop40862" /></linearGradient><linearGradient
       id="linearGradient40858"
       inkscape:swatch="solid"><stop
         style="stop-color:#92958a;stop-opacity:1;"
         offset="0"
         id="stop40856" /></linearGradient><linearGradient
       id="linearGradient40852"
       inkscape:swatch="solid"><stop
         style="stop-color:#92958a;stop-opacity:1;"
         offset="0"
         id="stop40850" /></linearGradient><linearGradient
       id="linearGradient40842"
       inkscape:swatch="solid"><stop
         style="stop-color:#ab24d8;stop-opacity:1;"
         offset="0"
         id="stop40840" /></linearGradient><linearGradient
       id="linearGradient40832"
       inkscape:swatch="solid"><stop
         style="stop-color:#d3f04b;stop-opacity:1;"
         offset="0"
         id="stop40830" /></linearGradient><linearGradient
       id="linearGradient40780"
       inkscape:swatch="solid"><stop
         style="stop-color:#92958a;stop-opacity:1;"
         offset="0"
         id="stop40778" /></linearGradient><linearGradient
       id="linearGradient40774"
       inkscape:swatch="solid"><stop
         style="stop-color:#919489;stop-opacity:1;"
         offset="0"
         id="stop40772" /></linearGradient><linearGradient
       id="linearGradient40768"
       inkscape:swatch="solid"><stop
         style="stop-color:#91948a;stop-opacity:1;"
         offset="0"
         id="stop40766" /></linearGradient><linearGradient
       id="linearGradient40756"
       inkscape:swatch="solid"><stop
         style="stop-color:#64ffe0;stop-opacity:1;"
         offset="0"
         id="stop40754" /></linearGradient><clipPath
       clipPathUnits="userSpaceOnUse"
       id="clipPath45897"><use
         x="0"
         y="0"
         xlink:href="#g45893"
         id="use45899" /></clipPath><linearGradient
       inkscape:collect="always"
       xlink:href="#linearGradient40842"
       id="linearGradient40834"
       x1="43.322426"
       y1="168.56886"
       x2="48.477993"
       y2="168.56886"
       gradientUnits="userSpaceOnUse" /><linearGradient
       inkscape:collect="always"
       xlink:href="#linearGradient40842"
       id="linearGradient40836"
       x1="41.58065"
       y1="170.65602"
       x2="46.736217"
       y2="170.65602"
       gradientUnits="userSpaceOnUse" /><linearGradient
       inkscape:collect="always"
       xlink:href="#linearGradient40842"
       id="linearGradient40838"
       x1="39.964973"
       y1="172.62958"
       x2="45.120544"
       y2="172.62958"
       gradientUnits="userSpaceOnUse" /><linearGradient
       inkscape:collect="always"
       xlink:href="#linearGradient40842"
       id="linearGradient40844"
       x1="43.460559"
       y1="168.56457"
       x2="48.327689"
       y2="168.56457"
       gradientUnits="userSpaceOnUse" /><linearGradient
       inkscape:collect="always"
       xlink:href="#linearGradient40842"
       id="linearGradient40846"
       x1="41.718784"
       y1="170.65172"
       x2="46.585914"
       y2="170.65172"
       gradientUnits="userSpaceOnUse" /><linearGradient
       inkscape:collect="always"
       xlink:href="#linearGradient40842"
       id="linearGradient40848"
       x1="40.103108"
       y1="172.62529"
       x2="44.970238"
       y2="172.62529"
       gradientUnits="userSpaceOnUse" /><linearGradient
       inkscape:collect="always"
       xlink:href="#linearGradient40842"
       id="linearGradient40854"
       x1="38.245171"
       y1="174.63573"
       x2="43.488522"
       y2="174.63573"
       gradientUnits="userSpaceOnUse" /><linearGradient
       inkscape:collect="always"
       xlink:href="#linearGradient40842"
       id="linearGradient40860"
       x1="38.245171"
       y1="174.63573"
       x2="43.488522"
       y2="174.63573"
       gradientUnits="userSpaceOnUse" /><linearGradient
       inkscape:collect="always"
       xlink:href="#linearGradient40842"
       id="linearGradient40866"
       x1="36.754559"
       y1="176.5"
       x2="42.205143"
       y2="176.5"
       gradientUnits="userSpaceOnUse" /><linearGradient
       inkscape:collect="always"
       xlink:href="#linearGradient40842"
       id="linearGradient40872"
       x1="36.754559"
       y1="176.5"
       x2="42.205143"
       y2="176.5"
       gradientUnits="userSpaceOnUse" /></defs><g
     inkscape:label="Layer 1"
     inkscape:groupmode="layer"
     id="layer1"><path
       style="fill:#e5f25c;fill-opacity:1;stroke:none;stroke-width:0.264583px;stroke-linecap:butt;stroke-linejoin:miter;stroke-opacity:1"
       d="m 12.280012,51.888748 0.8681,-0.74224 36.678263,-4.15265 -5.28842,-7.44419 -5.19105,-8.68249 -3.56748,-7.57031 -1.58262,-7.84163 -4.99392,3.33083 -9.200973,3.93719 -4.73833,2.57046 -3.78697,1.62718 -2.3288099,0.91761 0.52458,5.35309 -0.27916,13.33447 1.0307399,2.77623 1.06411,2.50205 z"
       id="path1994" /><g
       id="g61958"
       transform="translate(-19.149713,-145.06446)"><circle
         style="fill:#742600;fill-opacity:1;fill-rule:evenodd;stroke:none;stroke-width:0.264583;stroke-opacity:1"
         id="path58870"
         cx="32.018799"
         cy="187.22552"
         r="1.5973793" /><path
         style="fill:#6d6f69;fill-opacity:1;stroke:none;stroke-width:0.264583px;stroke-linecap:butt;stroke-linejoin:miter;stroke-opacity:1"
         d="m 32.290835,184.82322 -0.52837,1.39344 -0.363202,0.75865 c 0,0 0.0903,0.30774 0.359559,0.48271 0.269253,0.17495 1.128995,-1.56853 1.128995,-1.56853 l 0.575162,-0.96462 z"
         id="path59907" /><path
         style="fill:#0b0b0b;fill-opacity:1;stroke:none;stroke-width:0.264583px;stroke-linecap:butt;stroke-linejoin:miter;stroke-opacity:1"
         d="m 59.494138,150.23781 -2.82076,2.47101 -3.36197,4.14452 -2.04138,2.72084 c 0,0 0.28289,-0.68914 -1.375903,0 -1.658789,0.68914 -3.315406,2.48814 -3.315406,2.48814 l -0.763239,1.14487 -1.230159,-1.01838 c 0,0 -1.698148,-0.0311 -2.234006,1.19733 -0.535861,1.22846 -4.512056,9.297 -4.512056,9.297 l -1.313672,2.86197 -1.480516,3.02466 -1.28411,2.02783 -1.455717,2.40392 -0.361111,2.01494 1.822889,1.85561 0.680556,1.37655 3.875932,-1.84884 -0.992878,-1.64896 -0.655839,-0.5404 1.651162,-3.91129 4.300349,-5.42661 5.13112,-6.46318 0.996172,-3.50581 1.871652,-0.67475 c 0,0 5.72583,-7.35123 6.05826,-7.35123 0.33243,0 4.64608,-4.64291 4.64608,-4.64291 z"
         id="path16171" /><path
         style="fill:#6b6d67;fill-opacity:1;stroke:#6c6e68;stroke-width:0.264583px;stroke-linecap:butt;stroke-linejoin:miter;stroke-opacity:1"
         d="m 44.14543,165.07528 c 0.115729,0.0223 5.068787,4.00939 5.068787,4.00939 l 1.617301,-1.95334 -4.937763,-3.99131 c 0,0 -1.841524,1.94352 -1.748325,1.93526 z"
         id="path22637" /><path
         style="fill:#6d6f69;fill-opacity:1;stroke:#6d6f69;stroke-width:0.264583px;stroke-linecap:butt;stroke-linejoin:miter;stroke-opacity:1"
         d="m 34.725094,176.85362 5.343398,4.2927 1.126496,-1.40444 -5.310442,-4.2604 z"
         id="path27817" /><path
         style="fill:url(#linearGradient40872);fill-opacity:1.0;stroke:url(#linearGradient40866);stroke-width:0.268438px;stroke-linecap:butt;stroke-linejoin:miter;stroke-opacity:1"
         d="m 36.901842,174.86232 4.318564,4.25206 0.610809,-0.16242 0.227503,-1.159 -4.379779,-3.91559 -0.788616,0.10441 z"
         id="path30132" /><path
         style="fill:url(#linearGradient40854);fill-opacity:1;stroke:url(#linearGradient40860);stroke-width:0.268438px;stroke-linecap:butt;stroke-linejoin:miter;stroke-opacity:1"
         d="m 38.38205,172.83703 4.035416,4.52167 0.62001,-0.1227 0.301759,-1.14192 -4.118198,-4.18984 -0.793707,0.0533 z"
         id="path30132-3" /><path
         style="fill:url(#linearGradient40838);fill-opacity:1.0;stroke:url(#linearGradient40848);stroke-width:0.268438px;stroke-linecap:butt;stroke-linejoin:miter;stroke-opacity:1"
         d="m 40.103108,170.76548 3.91144,4.62933 0.623107,-0.10586 0.332583,-1.13333 -4.003181,-4.29986 -0.794861,0.0318 z"
         id="path30132-6" /><path
         style="fill:url(#linearGradient40836);fill-opacity:1.0;stroke:url(#linearGradient40846);stroke-width:0.268438px;stroke-linecap:butt;stroke-linejoin:miter;stroke-opacity:1"
         d="m 41.718784,168.79192 3.91144,4.62933 0.623107,-0.10586 0.332583,-1.13333 -4.003181,-4.29986 -0.794861,0.0318 z"
         id="path30132-6-7" /><path
         style="fill:url(#linearGradient40834);fill-opacity:1.0;stroke:url(#linearGradient40844);stroke-width:0.268438px;stroke-linecap:butt;stroke-linejoin:miter;stroke-opacity:1"
         d="m 43.460559,166.70476 3.91144,4.62933 0.623107,-0.10586 0.332583,-1.13333 -4.003181,-4.29986 -0.794861,0.0318 z"
         id="path30132-6-5" /><g
         id="g45905"
         transform="translate(-49.645722,-0.53464105)"><circle
           style="fill:#92958a;fill-opacity:1;fill-rule:evenodd;stroke:#6d6f69;stroke-width:0.264583;stroke-opacity:1"
           id="path41524"
           cx="84.930428"
           cy="182.25687"
           r="2.5974607" /><g
           id="g45895"
           clip-path="url(#clipPath45897)"
           style="fill:#000000;fill-opacity:1;fill-rule:evenodd;stroke:none;stroke-opacity:1"
           transform="translate(5.6721012,1.3794511)"><g
             inkscape:label="Clip"
             id="g45893"
             style="fill:#000000;fill-opacity:1;fill-rule:evenodd;stroke:none;stroke-opacity:1"><path
               id="path42252"
               style="fill:#000000;fill-opacity:1;stroke:none;stroke-width:0.264583"
               d="m 79.754288,180.88309 a 0.51046807,0.51046807 0 0 1 -0.510468,0.51047 0.51046807,0.51046807 0 0 1 -0.510468,-0.51047 0.51046807,0.51046807 0 0 1 0.510468,-0.51047 0.51046807,0.51046807 0 0 1 0.510468,0.51047 z" /></g></g></g></g><ellipse
       style="fill:#f9f9f9;fill-opacity:1;stroke-width:3.26713;paint-order:stroke fill markers"
       id="path974-6"
       cx="31.979721"
       cy="50.779686"
       rx="3.1030471"
       ry="1.6440926"
       transform="rotate(-9.1938915)" /><path
       style="display:inline;fill:#57b0ff;fill-opacity:1;stroke:none;stroke-width:0.264583px;stroke-linecap:butt;stroke-linejoin:miter;stroke-opacity:1"
       d="m 6.0355141,43.355818 0.409614,1.80181 1.065975,1.93364 2.430015,1.5432 2.5348539,-0.20817 24.387303,-7.04065 6.41091,6.70125 1.24331,0.47659 1.31185,-0.24391 0.4392,-1.21359 -0.60085,-1.1621 -5.16798,-7.17816 -2.40774,-3.49958 -3.37381,-1.30989 -8.699911,3.03439 2.666991,-3.05338 6.16232,-3.52491 2.30189,-2.08806 0.0701,-2.36077 -1.07583,-3.13817 -0.72097,-4.70952 0.45877,-3.71376 3.13712,-2.85856 1.56388,-1.4798 -0.13576,-2.5250603 c 0,0 -0.67802,-1.22693 -0.95668,-1.22693 -0.27867,0 -2.35036,-0.11103 -2.35036,-0.11103 l -2.51804,1.28015 -1.36565,2.5559703 -1.1865,2.76465 -0.72184,2.43441 -0.21149,3.9913 0.5762,4.73463 c 0,0 0.63143,1.98345 0.67316,2.24156 0.0417,0.25812 -2.96876,2.51803 -2.96876,2.51803 l -4.178677,2.76148 -3.896487,4.51666 -2.284833,4.15204 -8.914257,3.67615 0.218707,-16.02712 3.083211,-1.82792 1.177102,-2.32123 -0.249679,-9.5134 -1.787591,-0.7074 -0.857721,1.24405 0.266374,8.42538 -1.817666,1.52525 c 0,0 -2.1820289,0.85783 -2.5988879,0.97119 -0.416857,0.11335 -0.958392,2.50993 -0.958392,2.50993 l -0.714418,10.73476 z"
       id="path3639" /><circle
       style="fill:#000000;fill-opacity:1;stroke:none;stroke-width:0.264583"
       id="path9342"
       cx="37.017334"
       cy="9.1912956"
       r="0.78842258" /><ellipse
       style="fill:#f9f9f9;fill-opacity:1;stroke-width:3.26713;paint-order:stroke fill markers"
       id="path974-3"
       cx="10.533627"
       cy="51.28212"
       rx="3.1030471"
       ry="1.6440926"
       transform="rotate(-9.1938915)" /><ellipse
       style="fill:#0b0b0b;fill-opacity:1;stroke-width:2.1;paint-order:stroke fill markers"
       id="path390"
       ry="4.4082727"
       rx="5.8832741"
       cy="47.423801"
       cx="1.3945453"
       transform="rotate(-22.460244)" /><ellipse
       style="fill:#f9f9f9;fill-opacity:1;stroke-width:3.26713;paint-order:stroke fill markers"
       id="path974"
       cx="23.708336"
       cy="51.0466"
       rx="3.1030471"
       ry="1.6440926"
       transform="rotate(-9.1938915)" /></g></svg>
