<?xml version="1.0" encoding="UTF-8" standalone="no"?>
<!-- Created with Inkscape (http://www.inkscape.org/) -->

<svg
   width="256"
   height="256"
   viewBox="0 0 67.733334 67.733334"
   version="1.1"
   id="svg5"
   inkscape:version="1.2.2 (b0a8486541, 2022-12-01)"
   xml:space="preserve"
   sodipodi:docname="splooshomatic.svg"
   xmlns:inkscape="http://www.inkscape.org/namespaces/inkscape"
   xmlns:sodipodi="http://sodipodi.sourceforge.net/DTD/sodipodi-0.dtd"
   xmlns:xlink="http://www.w3.org/1999/xlink"
   xmlns="http://www.w3.org/2000/svg"
   xmlns:svg="http://www.w3.org/2000/svg"><sodipodi:namedview
     id="namedview7"
     pagecolor="#505050"
     bordercolor="#eeeeee"
     borderopacity="1"
     inkscape:showpageshadow="0"
     inkscape:pageopacity="0"
     inkscape:pagecheckerboard="0"
     inkscape:deskcolor="#505050"
     inkscape:document-units="mm"
     showgrid="false"
     inkscape:zoom="1.5857183"
     inkscape:cx="16.711669"
     inkscape:cy="29.008936"
     inkscape:window-width="1906"
     inkscape:window-height="1026"
     inkscape:window-x="5"
     inkscape:window-y="25"
     inkscape:window-maximized="1"
     inkscape:current-layer="layer1" /><defs
     id="defs2"><linearGradient
       id="linearGradient23661"
       inkscape:swatch="solid"><stop
         style="stop-color:#000000;stop-opacity:1;"
         offset="0"
         id="stop23659" /></linearGradient><linearGradient
       id="linearGradient22800"
       inkscape:swatch="solid"><stop
         style="stop-color:#262626;stop-opacity:1;"
         offset="0"
         id="stop22798" /></linearGradient><linearGradient
       id="linearGradient18926"
       inkscape:swatch="solid"><stop
         style="stop-color:#252525;stop-opacity:1;"
         offset="0"
         id="stop18924" /></linearGradient><linearGradient
       id="linearGradient17958"
       inkscape:swatch="solid"><stop
         style="stop-color:#a08e00;stop-opacity:1;"
         offset="0"
         id="stop17956" /></linearGradient><linearGradient
       id="linearGradient17859"
       inkscape:swatch="solid"><stop
         style="stop-color:#a08e00;stop-opacity:1;"
         offset="0"
         id="stop17857" /></linearGradient><linearGradient
       id="linearGradient17851"
       inkscape:swatch="solid"><stop
         style="stop-color:#a08e00;stop-opacity:1;"
         offset="0"
         id="stop17849" /></linearGradient><linearGradient
       id="linearGradient17843"
       inkscape:swatch="solid"><stop
         style="stop-color:#a08e00;stop-opacity:1;"
         offset="0"
         id="stop17841" /></linearGradient><linearGradient
       id="linearGradient17053"
       inkscape:swatch="solid"><stop
         style="stop-color:#a08e00;stop-opacity:1;"
         offset="0"
         id="stop17051" /></linearGradient><linearGradient
       id="needle"
       inkscape:swatch="solid"><stop
         style="stop-color:#be0e22;stop-opacity:1;"
         offset="0"
         id="stop14142" /></linearGradient><linearGradient
       id="linearGradient11101"
       inkscape:swatch="solid"><stop
         style="stop-color:#3f3f3f;stop-opacity:1;"
         offset="0"
         id="stop11099" /></linearGradient><linearGradient
       id="linearGradient11095"
       inkscape:swatch="solid"><stop
         style="stop-color:#3f3f3f;stop-opacity:1;"
         offset="0"
         id="stop11093" /></linearGradient><linearGradient
       id="frame"
       inkscape:swatch="solid"><stop
         style="stop-color:#3f3f3f;stop-opacity:1;"
         offset="0"
         id="stop11087" /></linearGradient><linearGradient
       id="grip"
       inkscape:swatch="solid"><stop
         style="stop-color:#242424;stop-opacity:1;"
         offset="0"
         id="stop10034" /></linearGradient><linearGradient
       id="screw"
       inkscape:swatch="solid"><stop
         style="stop-color:#667273;stop-opacity:1;"
         offset="0"
         id="stop9890" /></linearGradient><linearGradient
       id="linearGradient9127"
       inkscape:swatch="solid"><stop
         style="stop-color:#000000;stop-opacity:1;"
         offset="0"
         id="stop9125" /></linearGradient><linearGradient
       id="linearGradient8059"
       inkscape:swatch="solid"><stop
         style="stop-color:#3e3e3e;stop-opacity:1;"
         offset="0"
         id="stop8057" /></linearGradient><linearGradient
       id="ink"
       inkscape:swatch="solid"><stop
         style="stop-color:#b6b6b6;stop-opacity:1;"
         offset="0"
         id="stop5934" /></linearGradient><linearGradient
       id="linearGradient5236"
       inkscape:swatch="solid"><stop
         style="stop-color:#000000;stop-opacity:1;"
         offset="0"
         id="stop5234" /></linearGradient><linearGradient
       id="linearGradient5230"
       inkscape:swatch="solid"><stop
         style="stop-color:#000000;stop-opacity:1;"
         offset="0"
         id="stop5228" /></linearGradient><linearGradient
       id="linearGradient5222"
       inkscape:swatch="solid"><stop
         style="stop-color:#3a3a3a;stop-opacity:1;"
         offset="0"
         id="stop5220" /></linearGradient><linearGradient
       id="metal"
       inkscape:swatch="solid"><stop
         style="stop-color:#998800;stop-opacity:1;"
         offset="0"
         id="stop1960" /></linearGradient><linearGradient
       inkscape:collect="always"
       xlink:href="#metal"
       id="linearGradient1964"
       x1="45.130364"
       y1="31.508266"
       x2="54.223838"
       y2="31.508266"
       gradientUnits="userSpaceOnUse"
       gradientTransform="matrix(0.93917198,0,0,0.93917198,0.03358592,2.6275813)" /><linearGradient
       inkscape:collect="always"
       xlink:href="#metal"
       id="linearGradient5224"
       x1="32.321384"
       y1="35.645943"
       x2="45.441875"
       y2="35.645943"
       gradientUnits="userSpaceOnUse"
       gradientTransform="matrix(0.93917198,0,0,0.93917198,0.03358592,2.6275813)" /><linearGradient
       inkscape:collect="always"
       xlink:href="#metal"
       id="linearGradient8061"
       x1="27.326248"
       y1="43.427132"
       x2="31.556458"
       y2="43.427132"
       gradientUnits="userSpaceOnUse"
       gradientTransform="matrix(0.93917198,0,0,0.93917198,0.03358592,2.6275813)" /><linearGradient
       inkscape:collect="always"
       xlink:href="#screw"
       id="linearGradient9894"
       x1="24.097569"
       y1="46.291897"
       x2="25.926804"
       y2="46.291897"
       gradientUnits="userSpaceOnUse"
       gradientTransform="matrix(0.93917198,0,0,0.93917198,1.5716677,2.4914069)" /><linearGradient
       inkscape:collect="always"
       xlink:href="#grip"
       id="linearGradient10038"
       x1="24.30659"
       y1="48.805414"
       x2="31.954061"
       y2="48.805414"
       gradientUnits="userSpaceOnUse"
       gradientTransform="matrix(0.93917198,0,0,0.93917198,0.03358592,2.6275813)" /><linearGradient
       inkscape:collect="always"
       xlink:href="#frame"
       id="linearGradient11091"
       x1="6.0413485"
       y1="45.776011"
       x2="8.5941496"
       y2="45.776011"
       gradientUnits="userSpaceOnUse"
       gradientTransform="matrix(0.93917198,0,0,0.93917198,-0.66066642,2.5433897)" /><linearGradient
       inkscape:collect="always"
       xlink:href="#frame"
       id="linearGradient11097"
       x1="6.0209475"
       y1="40.53561"
       x2="8.5737486"
       y2="40.53561"
       gradientUnits="userSpaceOnUse"
       gradientTransform="matrix(0.93917198,0,0,0.93917198,-0.66066642,2.5433897)" /><linearGradient
       inkscape:collect="always"
       xlink:href="#frame"
       id="linearGradient11103"
       x1="20.115664"
       y1="44.077061"
       x2="28.10993"
       y2="44.077061"
       gradientUnits="userSpaceOnUse"
       gradientTransform="matrix(0.93917198,0,0,0.93917198,0.03358592,2.6275813)" /><linearGradient
       inkscape:collect="always"
       xlink:href="#needle"
       id="linearGradient14146"
       x1="37.806252"
       y1="28.44109"
       x2="39.672466"
       y2="28.44109"
       gradientUnits="userSpaceOnUse"
       gradientTransform="matrix(0.93917198,0,0,0.93917198,0.03358592,2.6275813)" /><linearGradient
       inkscape:collect="always"
       xlink:href="#ink"
       id="linearGradient17055"
       x1="29.499617"
       y1="25.790367"
       x2="32.431683"
       y2="25.790367"
       gradientUnits="userSpaceOnUse"
       gradientTransform="matrix(0.93917198,0,0,0.93917198,0.12578632,2.7609903)" /><linearGradient
       inkscape:collect="always"
       xlink:href="#ink"
       id="linearGradient17845"
       x1="31.249496"
       y1="24.507706"
       x2="33.9506"
       y2="24.507706"
       gradientUnits="userSpaceOnUse"
       gradientTransform="matrix(0.93917197,0,0,0.93917197,-23.005326,15.962319)" /><linearGradient
       inkscape:collect="always"
       xlink:href="#ink"
       id="linearGradient17853"
       x1="8.3798227"
       y1="31.436886"
       x2="31.945518"
       y2="31.436886"
       gradientUnits="userSpaceOnUse"
       gradientTransform="matrix(0.93917198,0,0,0.93917198,0.03358592,2.6275813)" /><linearGradient
       inkscape:collect="always"
       xlink:href="#screw"
       id="linearGradient17861"
       x1="11.407174"
       y1="36.776653"
       x2="12.349211"
       y2="36.776653"
       gradientUnits="userSpaceOnUse"
       gradientTransform="matrix(0.93917198,0,0,0.93917198,0.73432852,2.6792468)" /><linearGradient
       inkscape:collect="always"
       xlink:href="#ink"
       id="linearGradient17960"
       x1="6.5223017"
       y1="42.493378"
       x2="7.412333"
       y2="42.493378"
       gradientUnits="userSpaceOnUse"
       gradientTransform="matrix(0.90245724,-0.26002872,0.26002872,0.90245724,-9.8292442,6.0385489)" /><linearGradient
       inkscape:collect="always"
       xlink:href="#ink"
       id="linearGradient18928"
       x1="10.06672"
       y1="43.327717"
       x2="25.752234"
       y2="43.327717"
       gradientUnits="userSpaceOnUse"
       gradientTransform="matrix(0.93917198,0,0,0.93917198,-1.0823461,2.1883081)" /><linearGradient
       inkscape:collect="always"
       xlink:href="#metal"
       id="linearGradient22802"
       x1="47.533913"
       y1="31.838411"
       x2="50.493439"
       y2="31.838411"
       gradientUnits="userSpaceOnUse" /><linearGradient
       inkscape:collect="always"
       xlink:href="#metal"
       id="linearGradient23663"
       x1="54.07502"
       y1="25.438593"
       x2="58.952801"
       y2="25.438593"
       gradientUnits="userSpaceOnUse"
       gradientTransform="translate(-6.1746141,13.045297)" /></defs><g
     inkscape:label="Layer 1"
     inkscape:groupmode="layer"
     id="layer1"><path
       style="fill:#444444;stroke:none;stroke-width:0.264583px;stroke-linecap:butt;stroke-linejoin:miter;stroke-opacity:1;fill-opacity:1"
       d="M 48.819352,28.799163 54.140539,18.067473 60.29254,40.994909 50.096308,34.080934 Z"
       id="path23534" /><rect
       style="display:inline;fill:url(#linearGradient18928);fill-opacity:1;stroke:none;stroke-width:0;paint-order:markers stroke fill;stop-color:#000000"
       id="rect18922"
       width="17.244602"
       height="5.0846705"
       x="8.4177742"
       y="40.687126"
       transform="rotate(-15)" /><path
       style="fill:#262626;fill-opacity:1;stroke:none;stroke-width:0.248489px;stroke-linecap:butt;stroke-linejoin:miter;stroke-opacity:1"
       d="m 33.332261,38.380103 c 0,0 2.316273,-0.04837 3.41952,-0.358831 0.849867,-0.23916 2.391734,-1.137914 2.391734,-1.137914 l 1.407796,-5.867396 -4.85301,0.490526 -0.714247,0.556139 -1.539963,0.645386 -1.367754,0.571585 2.509791,0.483451 c 0,0 1.006532,0.574279 1.224646,0.999426 0.306117,0.596684 -0.186193,1.715035 -0.186193,1.715035 z"
       id="path18930"
       sodipodi:nodetypes="cscccccccscc" /><path
       style="fill:#252525;fill-opacity:1;stroke:none;stroke-width:0.248489px;stroke-linecap:butt;stroke-linejoin:miter;stroke-opacity:1"
       d="m 20.580712,36.559567 -2.397525,0.39438 -3.497121,0.631915 -4.611776,1.449544 -4.1826101,2.145847 0.9657279,3.496582 6.0020332,-0.419381 3.089532,-0.817621 4.811883,-1.407811 1.337172,-0.403195 z"
       id="path17952"
       sodipodi:nodetypes="ccccccccccc" /><path
       style="fill:#a08e00;fill-opacity:1;stroke:none;stroke-width:0.248489px;stroke-linecap:butt;stroke-linejoin:miter;stroke-opacity:1"
       d="m 26.328308,29.567867 -0.656986,-0.698439 -0.976387,0.366591 0.926866,2.516838 c 0,0 2.564053,-0.526175 3.944292,-0.578609 1.505154,-0.05718 4.625628,0.306507 4.625628,0.306507 L 33.869902,26.9131 30.410669,27.940744 c 0,0 -2.39504,0.554759 -3.463719,1.132152 -0.23235,0.125537 -0.618642,0.494971 -0.618642,0.494971 z"
       id="path16857"
       sodipodi:nodetypes="ccccscccsc" /><path
       style="fill:url(#linearGradient11103);fill-opacity:1;stroke:none;stroke-width:0.248489px;stroke-linecap:butt;stroke-linejoin:miter;stroke-opacity:1"
       d="m 19.604334,44.179917 3.617598,2.043374 2.413993,-1.959999 0.627331,-2.426654 -3.152421,0.661369 -4.020673,-0.242562 z"
       id="path11085" /><path
       style="fill:url(#linearGradient8061);fill-opacity:1;stroke:none;stroke-width:0.248489px;stroke-linecap:butt;stroke-linejoin:miter;stroke-opacity:1"
       d="m 27.988455,41.150759 c 0,0 0.03117,1.491904 0.288672,2.17721 0.252742,0.672631 1.194006,1.794756 1.194006,1.794756 l -2.296936,0.612648 -1.341252,-1.750197 0.473842,-1.854145 z"
       id="path8055"
       sodipodi:nodetypes="csccccc" /><path
       style="display:none;fill:#3a3a3a;fill-opacity:0.980392;stroke:none;stroke-width:0.248489px;stroke-linecap:butt;stroke-linejoin:miter;stroke-opacity:1"
       d="m 49.208165,28.929811 -1.238123,-0.753322 -6.395179,1.649911 -0.323046,7.442707 8.585997,-2.312741 0.570854,-0.80183 z"
       id="path443" /><rect
       style="fill:#2d2d2d;fill-opacity:1;stroke:#d6dbd7;stroke-width:0;paint-order:markers stroke fill;stop-color:#000000"
       id="rect1256"
       width="0.53457737"
       height="6.9848375"
       x="32.425888"
       y="39.733021"
       transform="rotate(-15.038059)" /><path
       style="fill:url(#linearGradient5224);fill-opacity:1;stroke:none;stroke-width:0.248489px;stroke-linecap:butt;stroke-linejoin:miter;stroke-opacity:1"
       d="m 31.635169,44.932931 0.30796,-1.445109 -0.111035,-0.714539 -1.233431,-1.617241 2.987268,-0.839298 4.115981,-1.886769 1.382256,-1.753502 0.303418,-5.259817 0.150261,-4.145589 2.852421,0.227495 0.196535,10.265743 -0.640846,2.736406 c 0,0 -0.84885,2.286707 -0.957121,2.325722 -0.10827,0.03901 -5.687094,1.737496 -5.687094,1.737496 z"
       id="path441" /><rect
       style="fill:#2d2d2d;fill-opacity:1;stroke:#d6dbd7;stroke-width:0;paint-order:markers stroke fill;stop-color:#000000"
       id="rect549"
       width="0.56729281"
       height="7.0032325"
       x="33.652191"
       y="39.712048"
       transform="rotate(-15.038059)" /><rect
       style="fill:#2d2d2d;fill-opacity:1;stroke:#d6dbd7;stroke-width:0;paint-order:markers stroke fill;stop-color:#000000"
       id="rect1258"
       width="0.55954748"
       height="6.9616628"
       x="35.089306"
       y="39.742592"
       transform="rotate(-15.038059)" /><rect
       style="fill:#2d2d2d;fill-opacity:1;stroke:#d6dbd7;stroke-width:0;paint-order:markers stroke fill;stop-color:#000000"
       id="rect1260"
       width="0.57450974"
       height="6.9667025"
       x="37.742794"
       y="39.722759"
       transform="rotate(-15.038059)" /><path
       style="fill:url(#linearGradient1964);fill-opacity:1;stroke:none;stroke-width:0.248489px;stroke-linecap:butt;stroke-linejoin:miter;stroke-opacity:1"
       d="m 48.347512,43.280979 -1.110397,-4.174927 0.811174,-0.74752 -0.737601,-2.230283 -0.518662,-0.257552 -1.976957,-6.83004 0.307763,-0.70518 -0.52751,-2.318825 -0.727942,-0.13796 -1.291361,-4.008065 2.392454,-0.709607 0.996057,3.922938 -0.695596,0.781918 0.545777,1.990129 0.924954,0.979362 1.73488,6.373527 -0.362122,0.946112 0.607082,2.135666 0.913027,0.05958 1.173654,4.268116 z"
       id="path1264" /><path
       id="path7498"
       style="fill:#3e3e3e;fill-opacity:1;stroke:none;stroke-width:0;paint-order:markers stroke fill;stop-color:#000000"
       d="m 28.601114,40.287778 a 3.352189,3.352189 0 0 0 -3.352179,3.352178 3.352189,3.352189 0 0 0 3.352179,3.352179 3.352189,3.352189 0 0 0 3.352178,-3.352179 3.352189,3.352189 0 0 0 -3.352178,-3.352178 z m 0,0.82846 a 2.5237945,2.5237945 0 0 1 2.523719,2.523718 2.5237945,2.5237945 0 0 1 -2.523719,2.524205 2.5237945,2.5237945 0 0 1 -2.523719,-2.524205 2.5237945,2.5237945 0 0 1 2.523719,-2.523718 z" /><path
       style="fill:url(#linearGradient10038);fill-opacity:1;stroke:none;stroke-width:0.248489px;stroke-linecap:butt;stroke-linejoin:miter;stroke-opacity:1"
       d="m 29.883471,52.219973 -2.451257,-7.021245 c 0,0 -0.608768,-0.865331 -1.071518,-1.062458 -0.495092,-0.210904 -1.094405,-0.179418 -1.613951,-0.03917 -0.547607,0.147819 -1.125032,0.426302 -1.449274,0.891696 -0.302106,0.433623 -0.311555,1.554544 -0.311555,1.554544 l 0.190227,5.823311 c 0,0 1.925493,0.574275 2.916553,0.577608 1.286442,0.0043 3.790775,-0.724283 3.790775,-0.724283 z"
       id="path8793"
       sodipodi:nodetypes="ccsssccsc" /><circle
       style="fill:url(#linearGradient9894);fill-opacity:1;stroke:none;stroke-width:0;paint-order:markers stroke fill;stop-color:#000000"
       id="path8847"
       cx="25.062412"
       cy="45.967457"
       r="0.85898232" /><rect
       style="fill:url(#linearGradient11091);fill-opacity:1;stroke:none;stroke-width:0;paint-order:markers stroke fill;stop-color:#000000"
       id="rect10874"
       width="2.3975194"
       height="4.8649588"
       x="5.0131989"
       y="43.102459"
       transform="rotate(-15.293559)" /><rect
       style="fill:url(#linearGradient11097);fill-opacity:1;stroke:none;stroke-width:0;paint-order:markers stroke fill;stop-color:#000000"
       id="rect11083"
       width="2.3975194"
       height="4.8649588"
       x="4.9940391"
       y="38.18082"
       transform="rotate(-15.293559)" /><circle
       style="display:inline;fill:#baa900;fill-opacity:1;stroke:none;stroke-width:0;paint-order:markers stroke fill;stop-color:#000000"
       id="circle12619"
       cx="36.557831"
       cy="28.623596"
       r="4.4242692" /><circle
       style="display:inline;fill:#c6cbc7;fill-opacity:1;stroke:none;stroke-width:0;paint-order:markers stroke fill;stop-color:#000000"
       id="path12617"
       cx="36.487396"
       cy="28.744307"
       r="3.4921796" /><path
       id="path14930"
       style="fill:#9fa59d;fill-opacity:1;stroke:none;stroke-width:0;paint-order:markers stroke fill;stop-color:#000000"
       d="m 36.468892,26.974689 a 1.7460024,1.7460024 0 0 0 -1.745734,1.74622 1.7460024,1.7460024 0 0 0 1.745734,1.745734 1.7460024,1.7460024 0 0 0 1.74622,-1.745734 1.7460024,1.7460024 0 0 0 -1.74622,-1.74622 z m 0,0.177631 a 1.5683826,1.5683826 0 0 1 1.568588,1.568589 1.5683826,1.5683826 0 0 1 -1.568588,1.568102 1.5683826,1.5683826 0 0 1 -1.568103,-1.568102 1.5683826,1.5683826 0 0 1 1.568103,-1.568589 z" /><path
       style="fill:url(#linearGradient14146);fill-opacity:1;stroke:none;stroke-width:0.248489px;stroke-linecap:butt;stroke-linejoin:miter;stroke-opacity:1"
       d="m 35.97943,27.997646 1.123389,0.514198 -1.388374,1.902765 z"
       id="path12760" /><rect
       style="fill:#9fa59d;fill-opacity:1;stroke:none;stroke-width:0;paint-order:markers stroke fill;stop-color:#000000"
       id="rect15944"
       width="0.75081694"
       height="0.25968951"
       x="33.103645"
       y="29.220825" /><rect
       style="fill:#9fa59d;fill-opacity:1;stroke:none;stroke-width:0;paint-order:markers stroke fill;stop-color:#000000"
       id="rect15946"
       width="0.6262269"
       height="0.25000161"
       x="42.068165"
       y="8.9759426"
       transform="rotate(26.733193)" /><rect
       style="fill:#9fa59d;fill-opacity:1;stroke:none;stroke-width:0;paint-order:markers stroke fill;stop-color:#000000"
       id="rect15948"
       width="0.6262269"
       height="0.25000161"
       x="36.282951"
       y="-24.622578"
       transform="rotate(69.348683)" /><rect
       style="fill:#9fa59d;fill-opacity:1;stroke:none;stroke-width:0;paint-order:markers stroke fill;stop-color:#000000"
       id="rect15950"
       width="0.6262269"
       height="0.25000161"
       x="-6.1047626"
       y="-45.904705"
       transform="rotate(131.316)" /><rect
       style="fill:#9fa59d;fill-opacity:1;stroke:none;stroke-width:0;paint-order:markers stroke fill;stop-color:#000000"
       id="rect15952"
       width="0.6262269"
       height="0.25000161"
       x="-33.349369"
       y="-35.583649"
       transform="rotate(168.11106)" /><rect
       style="fill:#9fa59d;fill-opacity:1;stroke:none;stroke-width:0;paint-order:markers stroke fill;stop-color:#000000"
       id="rect15954"
       width="0.6262269"
       height="0.25000161"
       x="-47.067253"
       y="-17.019043"
       transform="rotate(-162.33679)" /><rect
       style="fill:#9fa59d;fill-opacity:1;stroke:none;stroke-width:0;paint-order:markers stroke fill;stop-color:#000000"
       id="rect15956"
       width="0.6262269"
       height="0.25000161"
       x="-34.119568"
       y="35.202354"
       transform="rotate(-93.256189)" /><rect
       style="fill:#9fa59d;fill-opacity:1;stroke:none;stroke-width:0;paint-order:markers stroke fill;stop-color:#000000"
       id="rect15958"
       width="0.6262269"
       height="0.25000161"
       x="-1.322234"
       y="46.802197"
       transform="rotate(-49.175449)" /><circle
       style="fill:url(#linearGradient17055);fill-opacity:1;stroke:none;stroke-width:0;paint-order:markers stroke fill;stop-color:#000000"
       id="path17049"
       cx="29.207855"
       cy="26.982582"
       r="1.3768562" /><rect
       style="fill:url(#linearGradient17845);fill-opacity:1;stroke:none;stroke-width:0;paint-order:markers stroke fill;stop-color:#000000"
       id="rect17839"
       width="2.839915"
       height="1.0676408"
       x="6.3433237"
       y="38.477291"
       transform="rotate(-39.13165)" /><path
       style="display:inline;fill:url(#linearGradient17853);fill-opacity:1;stroke:none;stroke-width:0.248489px;stroke-linecap:butt;stroke-linejoin:miter;stroke-opacity:1"
       d="m 28.138833,27.068648 -1.339402,0.887724 c 0,0 -2.068568,-0.154087 -3.08842,-0.04068 -1.332837,0.14821 -2.67582,0.340007 -3.861973,0.965677 -1.737444,0.916467 -3.350808,2.061766 -4.509844,3.793273 -0.532283,0.795187 -1.187577,2.820455 -1.187577,2.820455 l -0.834469,0.573019 c 0,0 0.113211,0.92578 -0.01074,1.36388 -0.1211,0.428012 -0.55138,0.763604 -0.968556,0.917952 -0.349393,0.12927 -0.777016,0.09832 -1.11623,-0.05569 -0.31104,-0.14122 -0.71211,-0.736954 -0.71211,-0.736954 L 8.8490216,38.75696 8.0904706,37.814244 10.717873,36.26181 c 0,0 0.543413,-0.966663 0.813312,-1.463814 0.982039,-1.808903 2.091481,-3.548753 3.683668,-4.853158 1.594953,-1.306671 3.473983,-2.278556 5.397209,-3.021836 1.914027,-0.739725 5.984104,-1.186181 5.984104,-1.186181 l 3.11323,-0.212304 z"
       id="path17847"
       sodipodi:nodetypes="ccsssccsssccccsssccc" /><circle
       style="fill:url(#linearGradient17861);fill-opacity:1;stroke:none;stroke-width:0;paint-order:markers stroke fill;stop-color:#000000"
       id="path17855"
       cx="11.889995"
       cy="37.218845"
       r="0.44236735" /><path
       id="rect17954"
       style="display:inline;fill:url(#linearGradient17960);fill-opacity:1;stroke:none;stroke-width:0;paint-order:markers stroke fill;stop-color:#000000"
       d="m 10.149817,39.011843 -0.07572,0.02377 -0.6857714,0.351865 1.4443434,5.012494 0.852726,-0.05969 z m -1.4094004,0.708098 -0.758087,0.38875 1.268654,4.401462 0.8527264,-0.05921 z m -1.4118271,0.724113 -0.757601,0.38875 1.0915081,3.78849 0.852726,-0.05969 z" /><path
       style="fill:url(#linearGradient22802);fill-opacity:1;stroke:none;stroke-width:0.264583px;stroke-linecap:butt;stroke-linejoin:miter;stroke-opacity:1"
       d="m 47.674673,28.381658 1.288822,0.263374 1.384215,5.454774 -0.732062,0.804326 z"
       id="path21416"
       sodipodi:nodetypes="ccccc" /><rect
       style="fill:url(#linearGradient23663);fill-opacity:1;stroke:none;stroke-width:0;paint-order:markers stroke fill;stop-color:#000000"
       id="rect23657"
       width="3.0938387"
       height="24.135677"
       x="47.900402"
       y="30.873394"
       transform="rotate(-14.635799)" /></g></svg>
