<?xml version="1.0" encoding="UTF-8" standalone="no"?>
<!-- Created with Inkscape (http://www.inkscape.org/) -->

<svg
   width="256"
   height="256"
   viewBox="0 0 67.733332 67.733333"
   version="1.1"
   id="svg14099"
   inkscape:version="1.2.1 (9c6d41e410, 2022-07-14, custom)"
   sodipodi:docname="stamp.svg"
   xmlns:inkscape="http://www.inkscape.org/namespaces/inkscape"
   xmlns:sodipodi="http://sodipodi.sourceforge.net/DTD/sodipodi-0.dtd"
   xmlns:xlink="http://www.w3.org/1999/xlink"
   xmlns="http://www.w3.org/2000/svg"
   xmlns:svg="http://www.w3.org/2000/svg">
  <sodipodi:namedview
     id="namedview14101"
     pagecolor="#505050"
     bordercolor="#eeeeee"
     borderopacity="1"
     inkscape:showpageshadow="0"
     inkscape:pageopacity="0"
     inkscape:pagecheckerboard="0"
     inkscape:deskcolor="#505050"
     inkscape:document-units="mm"
     showgrid="false"
     inkscape:zoom="1.712194"
     inkscape:cx="115.34908"
     inkscape:cy="237.99874"
     inkscape:window-width="1916"
     inkscape:window-height="1036"
     inkscape:window-x="0"
     inkscape:window-y="20"
     inkscape:window-maximized="1"
     inkscape:current-layer="layer1" />
  <defs
     id="defs14096">
    <linearGradient
       inkscape:collect="always"
       xlink:href="#linearGradient53638"
       id="linearGradient11954"
       x1="82.275566"
       y1="116.69629"
       x2="94.353935"
       y2="116.69629"
       gradientUnits="userSpaceOnUse"
       gradientTransform="translate(59.183719,-84.059071)" />
    <linearGradient
       id="linearGradient53638"
       inkscape:swatch="solid">
      <stop
         style="stop-color:#3a0dcd;stop-opacity:1;"
         offset="0"
         id="stop53636" />
    </linearGradient>
    <linearGradient
       inkscape:collect="always"
       xlink:href="#linearGradient53638"
       id="linearGradient11962"
       x1="92.943275"
       y1="120.9776"
       x2="109.36721"
       y2="120.9776"
       gradientUnits="userSpaceOnUse"
       gradientTransform="rotate(38.864883,96.926086,120.34551)" />
    <linearGradient
       inkscape:collect="always"
       xlink:href="#linearGradient53638"
       id="linearGradient12580"
       x1="88.500755"
       y1="122.88486"
       x2="106.34301"
       y2="122.88486"
       gradientUnits="userSpaceOnUse" />
    <linearGradient
       inkscape:collect="always"
       xlink:href="#linearGradient2869"
       id="linearGradient13875"
       x1="119.14357"
       y1="122.90429"
       x2="144.15195"
       y2="122.90429"
       gradientUnits="userSpaceOnUse"
       gradientTransform="matrix(1.8762889,0,0,1.8762889,-213.30237,-202.4273)" />
    <linearGradient
       id="linearGradient2869"
       inkscape:swatch="solid">
      <stop
         style="stop-color:#ffffff;stop-opacity:1;"
         offset="0"
         id="stop2867" />
    </linearGradient>
  </defs>
  <g
     inkscape:label="Layer 1"
     inkscape:groupmode="layer"
     id="layer1">
    <g
       id="g12587"
       transform="matrix(1.8762889,0,0,1.8762889,-148.91457,-202.4273)">
      <ellipse
         style="fill:url(#linearGradient11954);fill-opacity:1;stroke:none;stroke-width:0.125;stroke-linecap:butt;stroke-linejoin:miter;stroke-dasharray:none;stroke-opacity:1;paint-order:stroke fill markers"
         id="path11948"
         cx="147.49844"
         cy="32.637222"
         rx="7.6682687"
         ry="11.690689"
         transform="rotate(39.473323)" />
      <path
         id="path11956"
         style="fill:url(#linearGradient11962);fill-opacity:1;stroke:none;stroke-width:0.125;stroke-linecap:butt;stroke-linejoin:miter;stroke-dasharray:none;stroke-opacity:1;paint-order:stroke fill markers"
         d="m 105.42539,115.47312 c 0.85771,2.96408 0.86393,5.70897 -2.38606,9.74211 -3.975278,4.92992 -9.242726,7.48967 -12.180129,5.91902 0.237144,0.82094 0.65476,1.48025 1.234031,1.9482 2.750507,2.21654 8.440658,-0.28057 12.709298,-5.57744 4.26869,-5.29678 3.90083,-9.47464 1.15048,-11.69134 0,0 -0.33998,-0.24272 -0.52762,-0.34055 z"
         sodipodi:nodetypes="ccccccc" />
      <path
         style="fill:url(#linearGradient12580);fill-opacity:1;stroke:none;stroke-width:0.264583px;stroke-linecap:butt;stroke-linejoin:miter;stroke-opacity:1"
         d="m 88.884031,130.61378 c 0,0 2.189302,-0.24448 3.210436,-0.62677 2.097807,-0.78537 4.12433,-1.89607 5.819539,-3.36026 1.945259,-1.68017 3.628094,-3.75134 4.786284,-6.04603 0.64029,-1.26859 1.11745,-4.11401 1.11745,-4.11401 l 0.009,-3.03479 1.27284,0.95175 0.49669,1.44696 1.34961,6.60601 -6.998984,7.08493 -7.142676,2.93794 -1.65925,-0.6012 z"
         id="path12160"
         sodipodi:nodetypes="csssccccccccc" />
    </g>
    <path
       style="fill:#35bfc1;fill-opacity:1;stroke:none;stroke-width:0.496434px;stroke-linecap:butt;stroke-linejoin:miter;stroke-opacity:1"
       d="m 33.85548,46.071681 4.709171,1.425998 -4.485104,4.663986 -3.381692,-0.477178 -6.169144,10.690193 -1.587618,1.242967 -2.606787,-1.069034 0.05572,-2.070542 5.080725,-10.725486 -0.244274,-1.12947 -1.155529,-0.924616 0.03378,-1.396579 1.784819,0.707943 4.323233,0.235494 z"
       id="path13866"
       sodipodi:nodetypes="ccccccccccccccc" />
    <path
       id="path13868"
       style="fill:url(#linearGradient13875);fill-opacity:1;stroke:none;stroke-width:0.496434px;stroke-linecap:butt;stroke-linejoin:miter;stroke-opacity:1"
       d="m 34.651796,46.300232 11.036342,3.377414 4.995394,-4.371059 4.691173,-8.177467 1.793602,-3.793481 -0.253037,-2.243291 -4.230075,-5.268376 -1.043667,3.129931 -2.370766,5.778183 -4.4123,4.58306 -4.893268,4.102075 -4.175335,2.339731 -1.934379,0.314729 z M 10.245404,27.64977 l 0.249003,1.599198 2.854474,-2.205727 -0.137533,-1.448382 z m 3.559245,0.613115 -2.961196,2.209387 0.125899,1.136749 4.042427,-2.681817 z m 16.085539,-1.34483 0.631183,3.26251 1.558952,-1.566495 -0.588292,-2.703281 z m -3.844441,2.404858 1.167145,3.534853 1.737669,-1.252779 -1.171161,-3.273618 z m -3.896471,-3.503969 -1.912651,2.067483 -2.224323,1.414797 -1.322371,-0.03115 -5.327722,3.773443 0.727794,1.158346 8.407857,-6.150964 0.686816,-0.02045 2.038794,6.943545 1.865857,-0.935442 -1.497259,-4.671509 -0.981282,-0.227745 -0.442316,-0.565063 z m 4.162978,-2.86074 0.453331,0.892963 1.786639,-0.649909 0.310996,-1.160916 z m -1.677402,1.338676 0.658972,1.195927 2.178972,-0.134342 1.725904,-1.390405 0.822453,-0.908293 0.116895,-1.761517 1.458533,-0.03508 -0.0094,2.073882 -1.945374,1.931358 -2.407353,1.553341 -3.01514,0.03434 -0.289024,-1.632277 z M 19.1814,22.7623 l -0.312516,0.958709 0.555439,0.607729 1.417949,-0.876245 -0.139409,-1.197729 -1.34588,0.133217 z m 0.04241,-1.261429 -1.499886,0.985559 -0.484252,1.249983 0.436068,1.23852 0.962029,0.383401 1.244337,-0.148603 1.394907,-1.121776 0.505942,-0.227932 -0.756013,1.582725 -2.411388,1.749358 -2.165856,0.127775 -1.429845,-0.868478 0.09307,-1.564843 0.799373,-1.698324 0.673157,-1.463486 1.692468,-0.678503 z m 1.70671,-1.169865 2.448763,3.180196 15.084587,-7.427683 0.969028,1.604734 1.344941,-4.009142 L 40.10369,8.9950492 39.211063,7.4029049 35.99939,7.5331197 36.772608,9.5836413 Z m -6.579207,-2.756251 2.616109,-1.599836 1.121158,3.117435 2.033316,0.648145 7.709896,-5.32973 -1.513697,-4.6110927 2.910537,-2.2821862 -2.972829,-0.8418346 -2.668364,1.6007938 -4.873793,3.7382427 -2.828674,3.193782 z"
       sodipodi:nodetypes="cccccccccccccccccccccccccccccccccccccccccccccccccccccccccccccccccccccccccccccccccccccccccccccccccccccccccccccccc" />
  </g>
</svg>
