<?xml version="1.0" encoding="UTF-8" standalone="no"?>
<!-- Created with Inkscape (http://www.inkscape.org/) -->

<svg
   width="256"
   height="256"
   viewBox="0 0 67.733332 67.733333"
   version="1.1"
   id="svg4889"
   xml:space="preserve"
   inkscape:version="1.2.1 (9c6d41e410, 2022-07-14, custom)"
   sodipodi:docname="suction_bomb_rush.svg"
   inkscape:export-filename="suction_bomb_rush.png"
   inkscape:export-xdpi="96"
   inkscape:export-ydpi="96"
   xmlns:inkscape="http://www.inkscape.org/namespaces/inkscape"
   xmlns:sodipodi="http://sodipodi.sourceforge.net/DTD/sodipodi-0.dtd"
   xmlns:xlink="http://www.w3.org/1999/xlink"
   xmlns="http://www.w3.org/2000/svg"
   xmlns:svg="http://www.w3.org/2000/svg"><sodipodi:namedview
     id="namedview4891"
     pagecolor="#505050"
     bordercolor="#eeeeee"
     borderopacity="1"
     inkscape:showpageshadow="0"
     inkscape:pageopacity="0"
     inkscape:pagecheckerboard="0"
     inkscape:deskcolor="#505050"
     inkscape:document-units="mm"
     showgrid="false"
     inkscape:zoom="1.9937078"
     inkscape:cx="-2.758679"
     inkscape:cy="3.7618351"
     inkscape:window-width="1916"
     inkscape:window-height="1036"
     inkscape:window-x="0"
     inkscape:window-y="20"
     inkscape:window-maximized="1"
     inkscape:current-layer="layer1" /><defs
     id="defs4886"><linearGradient
       id="linearGradient1333"
       inkscape:swatch="solid"><stop
         style="stop-color:#3a0dcd;stop-opacity:1;"
         offset="0"
         id="stop1331" /></linearGradient><linearGradient
       id="linearGradient887"
       inkscape:swatch="solid"><stop
         style="stop-color:#800080;stop-opacity:1;"
         offset="0"
         id="stop885" /></linearGradient><linearGradient
       inkscape:collect="always"
       xlink:href="#linearGradient53638"
       id="linearGradient6529"
       x1="86.924667"
       y1="254.74242"
       x2="92.731407"
       y2="254.74242"
       gradientUnits="userSpaceOnUse"
       gradientTransform="translate(-81.246673,-249.52034)" /><linearGradient
       id="linearGradient53638"
       inkscape:swatch="solid"><stop
         style="stop-color:#3a0dcd;stop-opacity:1;"
         offset="0"
         id="stop53636" /></linearGradient><linearGradient
       inkscape:collect="always"
       xlink:href="#linearGradient53638"
       id="linearGradient6537"
       x1="89.13063"
       y1="262.97415"
       x2="90.64566"
       y2="262.97415"
       gradientUnits="userSpaceOnUse"
       gradientTransform="translate(-81.246673,-249.52034)" /><linearGradient
       inkscape:collect="always"
       xlink:href="#linearGradient53638"
       id="linearGradient6735"
       x1="86.832939"
       y1="264.99878"
       x2="92.842705"
       y2="264.99878"
       gradientUnits="userSpaceOnUse"
       gradientTransform="translate(-81.246673,-249.52034)" /><linearGradient
       inkscape:collect="always"
       xlink:href="#linearGradient53638"
       id="linearGradient5067"
       gradientUnits="userSpaceOnUse"
       gradientTransform="translate(-81.246673,-249.52034)"
       x1="86.924667"
       y1="254.74242"
       x2="92.731407"
       y2="254.74242" /><linearGradient
       inkscape:collect="always"
       xlink:href="#linearGradient53638"
       id="linearGradient5069"
       gradientUnits="userSpaceOnUse"
       gradientTransform="translate(-81.246673,-249.52034)"
       x1="89.13063"
       y1="262.97415"
       x2="90.64566"
       y2="262.97415" /><linearGradient
       inkscape:collect="always"
       xlink:href="#linearGradient53638"
       id="linearGradient5071"
       gradientUnits="userSpaceOnUse"
       gradientTransform="translate(-81.246673,-249.52034)"
       x1="86.832939"
       y1="264.99878"
       x2="92.842705"
       y2="264.99878" /><linearGradient
       inkscape:collect="always"
       xlink:href="#linearGradient53638"
       id="linearGradient5095"
       gradientUnits="userSpaceOnUse"
       gradientTransform="translate(-81.246673,-249.52034)"
       x1="86.924667"
       y1="254.74242"
       x2="92.731407"
       y2="254.74242" /><linearGradient
       inkscape:collect="always"
       xlink:href="#linearGradient53638"
       id="linearGradient5097"
       gradientUnits="userSpaceOnUse"
       gradientTransform="translate(-81.246673,-249.52034)"
       x1="89.13063"
       y1="262.97415"
       x2="90.64566"
       y2="262.97415" /><linearGradient
       inkscape:collect="always"
       xlink:href="#linearGradient53638"
       id="linearGradient5099"
       gradientUnits="userSpaceOnUse"
       gradientTransform="translate(-81.246673,-249.52034)"
       x1="86.832939"
       y1="264.99878"
       x2="92.842705"
       y2="264.99878" /></defs><g
     inkscape:label="Layer 1"
     inkscape:groupmode="layer"
     id="layer1"><g
       inkscape:label="Layer 1"
       id="layer1-6"
       transform="matrix(1.6646694,0,0,1.6646694,19.554582,28.69985)"><rect
         style="fill:url(#linearGradient6529);fill-opacity:1;stroke:none;stroke-width:0.264999;stroke-dasharray:none;paint-order:stroke fill markers"
         id="rect6523"
         width="5.8067427"
         height="6.1844358"
         x="5.6779947"
         y="2.129848" /><rect
         style="fill:url(#linearGradient6537);fill-opacity:1;stroke:none;stroke-width:0.264999;stroke-dasharray:none;paint-order:stroke fill markers"
         id="rect6531"
         width="1.5150331"
         height="1.2213106"
         x="7.8839579"
         y="12.843151" /><path
         id="path6591"
         style="fill:url(#linearGradient6735);fill-opacity:1;stroke:none;stroke-width:0.264999;stroke-dasharray:none;paint-order:stroke fill markers"
         d="m 8.591254,13.258966 c -1.549441,5.9e-4 -2.617349,0.87132 -2.763115,2.01073 h 5.594088 c -0.145803,-1.1397 -1.281135,-2.01053 -2.830973,-2.01073 z"
         sodipodi:nodetypes="cccc" /><rect
         style="fill:#3a0dcd;fill-opacity:1;stroke:none;stroke-width:0.264999;stroke-dasharray:none;paint-order:stroke fill markers"
         id="rect7067"
         width="5.486711"
         height="0.94268799"
         x="5.7981501"
         y="15.247173" /><path
         id="path7556"
         style="fill:#ffffff;fill-opacity:1;stroke:none;stroke-width:0.1;stroke-dasharray:none;stroke-opacity:1;paint-order:stroke fill markers"
         d="m 8.573684,13.215556 c -1.583817,-10e-6 -2.823632,0.64854 -2.823832,1.52134 -3.1e-4,0.87299 -0.04156,1.14349 0.108641,1.59181 0.405443,0.0216 5.139587,-0.0346 5.577878,-0.0397 0.03083,-0.51865 0.0056,-0.91142 0.0054,-1.49316 -2e-4,-0.87279 -1.284237,-1.58027 -2.868042,-1.58027 z m 0.589112,0.5302 c 0.198166,1.3e-4 0.358724,0.1586 0.358634,0.35398 -2e-4,0.19517 -0.160678,0.35334 -0.358634,0.35347 -0.198157,1.5e-4 -0.358952,-0.1581 -0.359152,-0.35347 -9e-5,-0.19558 0.160785,-0.35413 0.359152,-0.35398 z m -0.846977,0.0274 c 0.198167,1.3e-4 0.358724,0.1586 0.358634,0.35398 9e-5,0.19538 -0.160467,0.35386 -0.358634,0.35399 -0.198367,1.5e-4 -0.359241,-0.15841 -0.359151,-0.35399 -9e-5,-0.19558 0.160784,-0.35413 0.359151,-0.35398 z m 0.859896,0.87798 c 0.198166,1.3e-4 0.358724,0.15861 0.358634,0.35399 -2e-4,0.19517 -0.160678,0.35333 -0.358634,0.35346 -0.198167,1.5e-4 -0.358952,-0.15808 -0.359152,-0.35346 -9e-5,-0.19559 0.160775,-0.35414 0.359152,-0.35399 z m -1.705839,0.0114 c 0.198166,1.3e-4 0.358724,0.1586 0.358634,0.35398 9e-5,0.19538 -0.160468,0.35386 -0.358634,0.35399 -0.198367,1.5e-4 -0.359242,-0.15841 -0.359152,-0.35399 -9e-5,-0.19558 0.160785,-0.35413 0.359152,-0.35398 z m 2.59209,0.004 c 0.198166,1.3e-4 0.358724,0.1586 0.358634,0.35398 9e-5,0.19538 -0.160468,0.35385 -0.358634,0.35398 -0.198367,1.5e-4 -0.359242,-0.1584 -0.359152,-0.35398 -9e-5,-0.19558 0.160785,-0.35413 0.359152,-0.35398 z m -1.744597,10e-4 c 0.198167,1.3e-4 0.358725,0.1586 0.358635,0.35398 9e-5,0.19538 -0.160468,0.35386 -0.358635,0.35399 -0.198367,1.5e-4 -0.359241,-0.15841 -0.359151,-0.35399 -9e-5,-0.19558 0.160784,-0.35413 0.359151,-0.35398 z"
         sodipodi:nodetypes="sccccsscscsscscsscscsscscsscscsscscs" /><rect
         style="fill:#ffffff;fill-opacity:1;stroke:#ffffff;stroke-width:0.264999;stroke-dasharray:none;stroke-opacity:1;paint-order:stroke fill markers"
         id="rect7484"
         width="6.3170323"
         height="0.47312921"
         x="5.500802"
         y="0.7675283" /><path
         style="fill:#ffffff;fill-opacity:1;stroke:none;stroke-width:0.1;stroke-dasharray:none;stroke-opacity:1;paint-order:stroke fill markers"
         d="m 8.265436,10.673696 h 0.688211 v 2.09585 H 8.265436 Z"
         id="path7599" /><path
         style="fill:#ffffff;fill-opacity:1;stroke:none;stroke-width:0.1;stroke-dasharray:none;stroke-opacity:1;paint-order:stroke fill markers"
         d="m 7.837562,12.665156 h 1.565729 v 0.71851 H 7.837562 Z"
         id="path7597" /><path
         style="fill:#ffffff;fill-opacity:1;stroke:none;stroke-width:0.1;stroke-dasharray:none;stroke-opacity:1;paint-order:stroke fill markers"
         d="m 6.75276,9.8906159 h 3.764363 V 10.684966 H 6.75276 Z"
         id="path7595" /><path
         style="fill:#ffffff;fill-opacity:1;stroke:none;stroke-width:0.1;stroke-dasharray:none;stroke-opacity:1;paint-order:stroke fill markers"
         d="M 11.767675,9.9298159 H 5.488488 l -0.002,-0.38707 0.139137,-0.32014 h 5.970153 l 0.167287,0.30674 z"
         id="path7593" /></g><g
       inkscape:label="Layer 1"
       id="g5065"
       transform="matrix(1.598471,-0.46477396,0.46477396,1.598471,1.2382683,22.624911)"><rect
         style="fill:url(#linearGradient5067);fill-opacity:1;stroke:none;stroke-width:0.264999;stroke-dasharray:none;paint-order:stroke fill markers"
         id="rect5045"
         width="5.8067427"
         height="6.1844358"
         x="5.6779947"
         y="2.129848" /><rect
         style="fill:url(#linearGradient5069);fill-opacity:1;stroke:none;stroke-width:0.264999;stroke-dasharray:none;paint-order:stroke fill markers"
         id="rect5047"
         width="1.5150331"
         height="1.2213106"
         x="7.8839579"
         y="12.843151" /><path
         id="path5049"
         style="fill:url(#linearGradient5071);fill-opacity:1;stroke:none;stroke-width:0.264999;stroke-dasharray:none;paint-order:stroke fill markers"
         d="m 8.591254,13.258966 c -1.549441,5.9e-4 -2.617349,0.87132 -2.763115,2.01073 h 5.594088 c -0.145803,-1.1397 -1.281135,-2.01053 -2.830973,-2.01073 z"
         sodipodi:nodetypes="cccc" /><rect
         style="fill:#3a0dcd;fill-opacity:1;stroke:none;stroke-width:0.264999;stroke-dasharray:none;paint-order:stroke fill markers"
         id="rect5051"
         width="5.486711"
         height="0.94268799"
         x="5.7981501"
         y="15.247173" /><path
         id="path5053"
         style="fill:#ffffff;fill-opacity:1;stroke:none;stroke-width:0.1;stroke-dasharray:none;stroke-opacity:1;paint-order:stroke fill markers"
         d="m 8.573684,13.215556 c -1.583817,-10e-6 -2.823632,0.64854 -2.823832,1.52134 -3.1e-4,0.87299 -0.04156,1.14349 0.108641,1.59181 0.405443,0.0216 5.139587,-0.0346 5.577878,-0.0397 0.03083,-0.51865 0.0056,-0.91142 0.0054,-1.49316 -2e-4,-0.87279 -1.284237,-1.58027 -2.868042,-1.58027 z m 0.589112,0.5302 c 0.198166,1.3e-4 0.358724,0.1586 0.358634,0.35398 -2e-4,0.19517 -0.160678,0.35334 -0.358634,0.35347 -0.198157,1.5e-4 -0.358952,-0.1581 -0.359152,-0.35347 -9e-5,-0.19558 0.160785,-0.35413 0.359152,-0.35398 z m -0.846977,0.0274 c 0.198167,1.3e-4 0.358724,0.1586 0.358634,0.35398 9e-5,0.19538 -0.160467,0.35386 -0.358634,0.35399 -0.198367,1.5e-4 -0.359241,-0.15841 -0.359151,-0.35399 -9e-5,-0.19558 0.160784,-0.35413 0.359151,-0.35398 z m 0.859896,0.87798 c 0.198166,1.3e-4 0.358724,0.15861 0.358634,0.35399 -2e-4,0.19517 -0.160678,0.35333 -0.358634,0.35346 -0.198167,1.5e-4 -0.358952,-0.15808 -0.359152,-0.35346 -9e-5,-0.19559 0.160775,-0.35414 0.359152,-0.35399 z m -1.705839,0.0114 c 0.198166,1.3e-4 0.358724,0.1586 0.358634,0.35398 9e-5,0.19538 -0.160468,0.35386 -0.358634,0.35399 -0.198367,1.5e-4 -0.359242,-0.15841 -0.359152,-0.35399 -9e-5,-0.19558 0.160785,-0.35413 0.359152,-0.35398 z m 2.59209,0.004 c 0.198166,1.3e-4 0.358724,0.1586 0.358634,0.35398 9e-5,0.19538 -0.160468,0.35385 -0.358634,0.35398 -0.198367,1.5e-4 -0.359242,-0.1584 -0.359152,-0.35398 -9e-5,-0.19558 0.160785,-0.35413 0.359152,-0.35398 z m -1.744597,10e-4 c 0.198167,1.3e-4 0.358725,0.1586 0.358635,0.35398 9e-5,0.19538 -0.160468,0.35386 -0.358635,0.35399 -0.198367,1.5e-4 -0.359241,-0.15841 -0.359151,-0.35399 -9e-5,-0.19558 0.160784,-0.35413 0.359151,-0.35398 z"
         sodipodi:nodetypes="sccccsscscsscscsscscsscscsscscsscscs" /><rect
         style="fill:#ffffff;fill-opacity:1;stroke:#ffffff;stroke-width:0.264999;stroke-dasharray:none;stroke-opacity:1;paint-order:stroke fill markers"
         id="rect5055"
         width="6.3170323"
         height="0.47312921"
         x="5.500802"
         y="0.7675283" /><path
         style="fill:#ffffff;fill-opacity:1;stroke:none;stroke-width:0.1;stroke-dasharray:none;stroke-opacity:1;paint-order:stroke fill markers"
         d="m 8.265436,10.673696 h 0.688211 v 2.09585 H 8.265436 Z"
         id="path5057" /><path
         style="fill:#ffffff;fill-opacity:1;stroke:none;stroke-width:0.1;stroke-dasharray:none;stroke-opacity:1;paint-order:stroke fill markers"
         d="m 7.837562,12.665156 h 1.565729 v 0.71851 H 7.837562 Z"
         id="path5059" /><path
         style="fill:#ffffff;fill-opacity:1;stroke:none;stroke-width:0.1;stroke-dasharray:none;stroke-opacity:1;paint-order:stroke fill markers"
         d="m 6.75276,9.8906159 h 3.764363 V 10.684966 H 6.75276 Z"
         id="path5061" /><path
         style="fill:#ffffff;fill-opacity:1;stroke:none;stroke-width:0.1;stroke-dasharray:none;stroke-opacity:1;paint-order:stroke fill markers"
         d="M 11.767675,9.9298159 H 5.488488 l -0.002,-0.38707 0.139137,-0.32014 h 5.970153 l 0.167287,0.30674 z"
         id="path5063" /></g><g
       inkscape:label="Layer 1"
       id="g5093"
       transform="matrix(1.5870336,0.50244262,-0.50244262,1.5870336,39.788066,11.092985)"><rect
         style="fill:url(#linearGradient5095);fill-opacity:1;stroke:none;stroke-width:0.264999;stroke-dasharray:none;paint-order:stroke fill markers"
         id="rect5073"
         width="5.8067427"
         height="6.1844358"
         x="5.6779947"
         y="2.129848" /><rect
         style="fill:url(#linearGradient5097);fill-opacity:1;stroke:none;stroke-width:0.264999;stroke-dasharray:none;paint-order:stroke fill markers"
         id="rect5075"
         width="1.5150331"
         height="1.2213106"
         x="7.8839579"
         y="12.843151" /><path
         id="path5077"
         style="fill:url(#linearGradient5099);fill-opacity:1;stroke:none;stroke-width:0.264999;stroke-dasharray:none;paint-order:stroke fill markers"
         d="m 8.591254,13.258966 c -1.549441,5.9e-4 -2.617349,0.87132 -2.763115,2.01073 h 5.594088 c -0.145803,-1.1397 -1.281135,-2.01053 -2.830973,-2.01073 z"
         sodipodi:nodetypes="cccc" /><rect
         style="fill:#3a0dcd;fill-opacity:1;stroke:none;stroke-width:0.264999;stroke-dasharray:none;paint-order:stroke fill markers"
         id="rect5079"
         width="5.486711"
         height="0.94268799"
         x="5.7981501"
         y="15.247173" /><path
         id="path5081"
         style="fill:#ffffff;fill-opacity:1;stroke:none;stroke-width:0.1;stroke-dasharray:none;stroke-opacity:1;paint-order:stroke fill markers"
         d="m 8.573684,13.215556 c -1.583817,-10e-6 -2.823632,0.64854 -2.823832,1.52134 -3.1e-4,0.87299 -0.04156,1.14349 0.108641,1.59181 0.405443,0.0216 5.139587,-0.0346 5.577878,-0.0397 0.03083,-0.51865 0.0056,-0.91142 0.0054,-1.49316 -2e-4,-0.87279 -1.284237,-1.58027 -2.868042,-1.58027 z m 0.589112,0.5302 c 0.198166,1.3e-4 0.358724,0.1586 0.358634,0.35398 -2e-4,0.19517 -0.160678,0.35334 -0.358634,0.35347 -0.198157,1.5e-4 -0.358952,-0.1581 -0.359152,-0.35347 -9e-5,-0.19558 0.160785,-0.35413 0.359152,-0.35398 z m -0.846977,0.0274 c 0.198167,1.3e-4 0.358724,0.1586 0.358634,0.35398 9e-5,0.19538 -0.160467,0.35386 -0.358634,0.35399 -0.198367,1.5e-4 -0.359241,-0.15841 -0.359151,-0.35399 -9e-5,-0.19558 0.160784,-0.35413 0.359151,-0.35398 z m 0.859896,0.87798 c 0.198166,1.3e-4 0.358724,0.15861 0.358634,0.35399 -2e-4,0.19517 -0.160678,0.35333 -0.358634,0.35346 -0.198167,1.5e-4 -0.358952,-0.15808 -0.359152,-0.35346 -9e-5,-0.19559 0.160775,-0.35414 0.359152,-0.35399 z m -1.705839,0.0114 c 0.198166,1.3e-4 0.358724,0.1586 0.358634,0.35398 9e-5,0.19538 -0.160468,0.35386 -0.358634,0.35399 -0.198367,1.5e-4 -0.359242,-0.15841 -0.359152,-0.35399 -9e-5,-0.19558 0.160785,-0.35413 0.359152,-0.35398 z m 2.59209,0.004 c 0.198166,1.3e-4 0.358724,0.1586 0.358634,0.35398 9e-5,0.19538 -0.160468,0.35385 -0.358634,0.35398 -0.198367,1.5e-4 -0.359242,-0.1584 -0.359152,-0.35398 -9e-5,-0.19558 0.160785,-0.35413 0.359152,-0.35398 z m -1.744597,10e-4 c 0.198167,1.3e-4 0.358725,0.1586 0.358635,0.35398 9e-5,0.19538 -0.160468,0.35386 -0.358635,0.35399 -0.198367,1.5e-4 -0.359241,-0.15841 -0.359151,-0.35399 -9e-5,-0.19558 0.160784,-0.35413 0.359151,-0.35398 z"
         sodipodi:nodetypes="sccccsscscsscscsscscsscscsscscsscscs" /><rect
         style="fill:#ffffff;fill-opacity:1;stroke:#ffffff;stroke-width:0.264999;stroke-dasharray:none;stroke-opacity:1;paint-order:stroke fill markers"
         id="rect5083"
         width="6.3170323"
         height="0.47312921"
         x="5.500802"
         y="0.7675283" /><path
         style="fill:#ffffff;fill-opacity:1;stroke:none;stroke-width:0.1;stroke-dasharray:none;stroke-opacity:1;paint-order:stroke fill markers"
         d="m 8.265436,10.673696 h 0.688211 v 2.09585 H 8.265436 Z"
         id="path5085" /><path
         style="fill:#ffffff;fill-opacity:1;stroke:none;stroke-width:0.1;stroke-dasharray:none;stroke-opacity:1;paint-order:stroke fill markers"
         d="m 7.837562,12.665156 h 1.565729 v 0.71851 H 7.837562 Z"
         id="path5087" /><path
         style="fill:#ffffff;fill-opacity:1;stroke:none;stroke-width:0.1;stroke-dasharray:none;stroke-opacity:1;paint-order:stroke fill markers"
         d="m 6.75276,9.8906159 h 3.764363 V 10.684966 H 6.75276 Z"
         id="path5089" /><path
         style="fill:#ffffff;fill-opacity:1;stroke:none;stroke-width:0.1;stroke-dasharray:none;stroke-opacity:1;paint-order:stroke fill markers"
         d="M 11.767675,9.9298159 H 5.488488 l -0.002,-0.38707 0.139137,-0.32014 h 5.970153 l 0.167287,0.30674 z"
         id="path5091" /></g></g></svg>
