<?xml version="1.0" encoding="UTF-8" standalone="no"?>
<!-- Created with Inkscape (http://www.inkscape.org/) -->

<svg
   width="256"
   height="256"
   viewBox="0 0 67.733332 67.733333"
   version="1.1"
   id="svg1233"
   inkscape:version="1.2.1 (9c6d41e410, 2022-07-14, custom)"
   sodipodi:docname="tentamissles.svg"
   inkscape:export-filename="tentamissles.png"
   inkscape:export-xdpi="96"
   inkscape:export-ydpi="96"
   xmlns:inkscape="http://www.inkscape.org/namespaces/inkscape"
   xmlns:sodipodi="http://sodipodi.sourceforge.net/DTD/sodipodi-0.dtd"
   xmlns:xlink="http://www.w3.org/1999/xlink"
   xmlns="http://www.w3.org/2000/svg"
   xmlns:svg="http://www.w3.org/2000/svg">
  <sodipodi:namedview
     id="namedview1235"
     pagecolor="#505050"
     bordercolor="#eeeeee"
     borderopacity="1"
     inkscape:showpageshadow="0"
     inkscape:pageopacity="0"
     inkscape:pagecheckerboard="0"
     inkscape:deskcolor="#505050"
     inkscape:document-units="mm"
     showgrid="false"
     inkscape:zoom="2.0509583"
     inkscape:cx="126.03864"
     inkscape:cy="187.47334"
     inkscape:window-width="1916"
     inkscape:window-height="1036"
     inkscape:window-x="0"
     inkscape:window-y="20"
     inkscape:window-maximized="1"
     inkscape:current-layer="layer1" />
  <defs
     id="defs1230">
    <linearGradient
       inkscape:collect="always"
       xlink:href="#linearGradient53638"
       id="linearGradient62844"
       gradientUnits="userSpaceOnUse"
       gradientTransform="matrix(1.5265622,0,0,1.5265622,-217.74625,-197.51273)"
       x1="154.16701"
       y1="150.01558"
       x2="156.37332"
       y2="150.01558" />
    <linearGradient
       id="linearGradient53638"
       inkscape:swatch="solid">
      <stop
         style="stop-color:#3a0dcd;stop-opacity:1;"
         offset="0"
         id="stop53636" />
    </linearGradient>
    <linearGradient
       inkscape:collect="always"
       xlink:href="#linearGradient53638"
       id="linearGradient3161"
       gradientUnits="userSpaceOnUse"
       x1="167.40482"
       y1="168.64346"
       x2="172.1059"
       y2="168.64346"
       gradientTransform="matrix(1.5265622,0,0,1.5265622,-220.17024,-211.22425)" />
    <linearGradient
       inkscape:collect="always"
       xlink:href="#linearGradient53638"
       id="linearGradient62898"
       gradientUnits="userSpaceOnUse"
       x1="167.40482"
       y1="168.64346"
       x2="172.1059"
       y2="168.64346"
       gradientTransform="matrix(1.5265622,0,0,1.5265622,-220.75446,-211.48989)" />
    <linearGradient
       inkscape:collect="always"
       xlink:href="#linearGradient53638"
       id="linearGradient62896"
       gradientUnits="userSpaceOnUse"
       x1="167.40482"
       y1="168.64346"
       x2="172.1059"
       y2="168.64346"
       gradientTransform="matrix(1.5265622,0,0,1.5265622,-219.88951,-211.42744)" />
    <linearGradient
       inkscape:collect="always"
       xlink:href="#linearGradient53638"
       id="linearGradient1447"
       gradientUnits="userSpaceOnUse"
       x1="167.40482"
       y1="168.64346"
       x2="172.1059"
       y2="168.64346"
       gradientTransform="matrix(1.5265622,0,0,1.5265622,-220.17024,-211.22425)" />
    <linearGradient
       inkscape:collect="always"
       xlink:href="#linearGradient53638"
       id="linearGradient1449"
       gradientUnits="userSpaceOnUse"
       x1="167.40482"
       y1="168.64346"
       x2="172.1059"
       y2="168.64346"
       gradientTransform="matrix(1.5265622,0,0,1.5265622,-220.17024,-211.22425)" />
    <linearGradient
       inkscape:collect="always"
       xlink:href="#linearGradient53638"
       id="linearGradient1451"
       gradientUnits="userSpaceOnUse"
       x1="167.40482"
       y1="168.64346"
       x2="172.1059"
       y2="168.64346"
       gradientTransform="matrix(1.5265622,0,0,1.5265622,-220.17024,-211.22425)" />
    <linearGradient
       inkscape:collect="always"
       xlink:href="#linearGradient53638"
       id="linearGradient1453"
       gradientUnits="userSpaceOnUse"
       x1="167.40482"
       y1="168.64346"
       x2="172.1059"
       y2="168.64346"
       gradientTransform="matrix(1.5265622,0,0,1.5265622,-220.17024,-211.22425)" />
  </defs>
  <g
     inkscape:label="Layer 1"
     inkscape:groupmode="layer"
     id="layer1">
    <path
       id="ellipse61192"
       style="fill:#ffffff;stroke-width:0.915936;stroke-linecap:round;stroke-linejoin:round;paint-order:stroke fill markers"
       d="m 59.782059,30.448711 a 1.2252034,2.7756031 11.347382 0 1 -1.747363,2.480282 1.2252034,2.7756031 11.347382 0 1 -0.65514,-2.962416 1.2252034,2.7756031 11.347382 0 1 1.747379,-2.480282 1.2252034,2.7756031 11.347382 0 1 0.655124,2.962416 z m -1.821631,7.979341 a 1.2252034,2.7756031 11.347382 0 1 -1.747379,2.480266 1.2252034,2.7756031 11.347382 0 1 -0.655124,-2.962416 1.2252034,2.7756031 11.347382 0 1 1.747364,-2.480281 1.2252034,2.7756031 11.347382 0 1 0.655139,2.962431 z m -10.245995,8.564746 a 1.2252034,2.7756031 0 0 1 -1.225189,2.775611 1.2252034,2.7756031 0 0 1 -1.225203,-2.775611 1.2252034,2.7756031 0 0 1 1.225203,-2.775595 1.2252034,2.7756031 0 0 1 1.225189,2.775595 z" />
    <path
       id="path61194"
       style="fill:#35bfc1;fill-opacity:1;stroke:none;stroke-width:0.403902px;stroke-linecap:butt;stroke-linejoin:miter;stroke-opacity:1"
       d="m 44.29791,19.103759 c 0,0 1.659831,0.08137 2.351883,0.48337 0.591879,0.343813 0.969336,0.977336 1.355572,1.542454 0.289665,0.423835 0.639767,0.858691 0.708539,1.367434 0.06686,0.494376 -0.311022,1.463927 -0.311022,1.463927 l 0.916975,0.464732 c 0,0 2.508203,0.429772 2.688261,0.526938 0,0 1.284709,0.414813 1.688012,0.910946 0.420674,0.517519 0.52761,1.252177 0.570491,1.917728 0.05282,0.819702 -0.01069,1.705628 -0.393716,2.432531 -0.321082,0.610183 -0.850005,1.187222 -1.495832,1.428709 -1.069662,0.39996 -3.422202,-0.160349 -3.422202,-0.160349 l -3.329966,-0.969734 -0.510009,1.715703 3.930378,0.771173 c 0,0 1.454601,0.163572 2.043106,0.552678 0.481279,0.318211 0.834326,0.833853 1.070242,1.360396 0.317693,0.709088 0.50085,1.523661 0.407806,2.295079 -0.08854,0.733482 -0.405776,1.474247 -0.895497,2.027412 -0.470929,0.53193 -1.130098,0.97416 -1.830852,1.09111 -1.163607,0.194194 -3.463769,-0.726399 -3.463769,-0.726399 l -1.431229,-0.306381 -0.412706,0.206726 c 0,0 2.747247,4.231249 5.168832,5.234307 0.940744,0.389671 2.56429,0.83503 3.446108,0.325906 0.773509,-0.446595 1.339757,-2.320542 1.339757,-2.320542 l 4.131106,-15.417499 c 0,0 0.444596,-1.352398 0,-1.708071 -2.515927,-2.012727 -9.548204,-8.026191 -9.548204,-8.026191 l -3.895786,-1.530073 -0.637844,0.531366 -0.431483,2.127417 z m -2.485472,23.812584 c 0,0 1.265673,0.785157 1.441548,1.441548 0.2635,0.983396 -0.281452,2.068492 -0.7905,2.950173 -0.43684,0.756641 -1.024399,1.577488 -1.853384,1.853384 -1.094041,0.364116 -3.423911,-0.492393 -3.423911,-0.492393 l -0.146549,1.023591 3.993455,3.268705 c 0,0 2.177489,0.480639 3.087549,0 0.909067,-0.480118 1.738846,-2.547297 1.738846,-2.547297 l 1.11665,-3.883498 c 0,0 0.156488,-1.494963 -0.134033,-2.15256 -0.691029,-1.564162 -3.570537,-3.683534 -3.570537,-3.683534 z M 21.507189,11.711306 c 0.786545,0 3.858553,4.075355 6.405717,5.912512 1.017576,0.733925 1.156142,3.045751 0.946484,4.282739 -1.014416,5.985071 -3.126479,11.507211 -4.460191,17.149355 -0.239914,1.01495 -1.204991,1.942458 -2.212385,2.212385 -0.927143,0.248433 -2.781412,-0.745267 -2.781412,-0.745267 l -2.48509,9.274521 9.079167,0.792194 -0.176272,2.150896 -1.239187,1.582099 0.138765,1.34745 4.901108,0.275804 0.510008,-0.945003 -0.195583,-3.01464 0.30455,-0.942209 1.650564,0.09526 1.209801,-0.796453 2.332831,-8.706213 3.813185,1.021743 1.201816,-1.201832 4.505939,-16.816395 v -1.180384 l -9.244953,-9.244952 z m -9.961735,22.893227 c -0.212559,0.06336 -0.293986,0.372694 -0.293986,0.372694 l -2.465978,7.68763 c 0,0 -0.2763683,0.800438 -0.2414253,0.975642 0.032213,0.161616 0.4668528,0.70231 0.4668528,0.70231 l 3.6884345,4.412039 c 0,0 0.645797,0.549685 0.967154,0.477295 0.334286,-0.07526 0.558172,-1.034444 0.558172,-1.034444 l 2.160024,-8.292454 c 0,0 0.268156,-0.943859 0.107623,-1.415413 -0.144566,-0.424553 -0.793919,-0.855424 -0.793919,-0.855424 l -3.618564,-2.793365 c 0,0 -0.280673,-0.312075 -0.534434,-0.23651 z m 1.119306,1.425687 c 1.193787,5.34e-4 2.161444,2.429569 2.161505,5.425875 1.07e-4,2.996596 -0.967596,5.426119 -2.161505,5.426653 -1.194215,5.65e-4 -2.162407,-2.429279 -2.162299,-5.426653 6e-5,-2.997085 0.968207,-5.42644 2.162299,-5.425875 z m -1.769943,-7.768797 c 0.06793,0.279497 0.485204,0.534998 0.485204,0.534998 l 9.201139,9.265805 c 0,0 0.551136,0.481768 0.806652,0.411257 0.250936,-0.0693 0.472852,-0.777097 0.472852,-0.777097 l 4.339635,-16.966579 c 0,0 0.226072,-0.694952 0.105485,-1.074028 -0.09495,-0.298642 -0.523549,-0.686006 -0.523549,-0.686006 l -9.092831,-7.641054 c 0,0 -0.39048,-0.371947 -0.534465,-0.329585 -0.150366,0.04427 -0.342163,0.612182 -0.342163,0.612182 l -4.854209,15.998051 c 0,0 -0.112661,0.450549 -0.06381,0.652056 z m 5.939931,-15.315205 c 1.071387,2.28e-4 1.939864,2.055042 1.939833,4.58967 -1.53e-4,2.534307 -0.868568,4.588648 -1.939833,4.588877 -1.07157,7.7e-4 -1.940474,-2.053838 -1.940627,-4.588877 -3.1e-5,-2.53536 0.868919,-4.59048 1.940627,-4.58967 z m 4.605439,4.66067 c 1.071266,2.29e-4 1.939681,2.054555 1.939834,4.588861 3.1e-5,2.534628 -0.868446,4.589442 -1.939834,4.589671 -1.071401,-1.98e-4 -1.939878,-2.055043 -1.939847,-4.589671 1.52e-4,-2.534322 0.868583,-4.588662 1.939847,-4.588861 z m -6.687273,4.562833 c 1.071708,-8.47e-4 1.940658,2.054311 1.940627,4.589671 3.1e-5,2.535345 -0.868919,4.590464 -1.940627,4.589655 -1.071402,-1.99e-4 -1.939879,-2.055027 -1.939848,-4.589655 -3.1e-5,-2.534628 0.868446,-4.589472 1.939848,-4.589671 z m 4.56204,4.641727 c 1.07157,-7.71e-4 1.940474,2.053836 1.940627,4.588876 3e-5,2.53536 -0.868919,4.590479 -1.940627,4.589671 -1.071387,-2.3e-4 -1.939864,-2.055043 -1.939833,-4.589671 1.52e-4,-2.534307 0.868567,-4.588648 1.939833,-4.588876 z"
       sodipodi:nodetypes="csssccsssssccccssssscccssccsccccccssscccsccscccsssscccccccccccccccccccsccsccsccsccsscssscccsccsccsccscccccccccccccscccccccc" />
    <ellipse
       style="fill:url(#linearGradient62844);fill-opacity:1;stroke:none;stroke-width:0.915936;stroke-linecap:round;stroke-linejoin:round;stroke-dasharray:none;stroke-opacity:1;paint-order:stroke fill markers"
       id="ellipse62842"
       cx="19.283298"
       cy="31.495363"
       rx="1.6840414"
       ry="4.1002226" />
    <path
       style="fill:url(#linearGradient1447);fill-opacity:1;stroke:none;stroke-width:0.403902px;stroke-linecap:butt;stroke-linejoin:miter;stroke-opacity:1"
       d="m 18.543368,17.783863 a 1.6840413,4.1002224 0 0 1 -1.684042,4.100224 1.6840413,4.1002224 0 0 1 -1.684043,-4.100224 1.6840413,4.1002224 0 0 1 1.684043,-4.100224 1.6840413,4.1002224 0 0 1 1.684042,4.100224 z"
       id="path62892" />
    <path
       style="fill:url(#linearGradient62898);fill-opacity:1;stroke:none;stroke-width:0.403902px;stroke-linecap:butt;stroke-linejoin:miter;stroke-opacity:1"
       d="m 23.093851,22.277039 a 1.6840413,4.1002224 0 0 1 -1.684042,4.100224 1.6840413,4.1002224 0 0 1 -1.684042,-4.100224 1.6840413,4.1002224 0 0 1 1.684042,-4.100224 1.6840413,4.1002224 0 0 1 1.684042,4.100224 z"
       id="path62890" />
    <path
       style="fill:url(#linearGradient1449);fill-opacity:1;stroke:none;stroke-width:0.403902px;stroke-linecap:butt;stroke-linejoin:miter;stroke-opacity:1"
       d="m 16.384641,26.979767 a 1.6840413,4.1002224 0 0 1 -1.684042,4.100208 1.6840413,4.1002224 0 0 1 -1.684042,-4.100208 1.6840413,4.1002224 0 0 1 1.684042,-4.100225 1.6840413,4.1002224 0 0 1 1.684042,4.100225 z"
       id="path62886" />
    <path
       style="fill:url(#linearGradient1451);fill-opacity:1;stroke:none;stroke-width:0.403902px;stroke-linecap:butt;stroke-linejoin:miter;stroke-opacity:1"
       d="m 14.287481,41.458125 a 1.6840413,4.1002224 0 0 1 -1.684043,4.100224 1.6840413,4.1002224 0 0 1 -1.684043,-4.100224 1.6840413,4.1002224 0 0 1 1.684043,-4.100224 1.6840413,4.1002224 0 0 1 1.684043,4.100224 z"
       id="path62884" />
    <path
       style="fill:url(#linearGradient1453);fill-opacity:1;stroke:none;stroke-width:0.403902px;stroke-linecap:butt;stroke-linejoin:miter;stroke-opacity:1"
       d="m 43.094903,19.25985 1.899394,1.568115 1.214182,2.491793 -0.179661,3.039079 -1.088515,4.142632 4.821402,1.075814 2.335488,-0.346911 1.212793,-1.587899 0.421773,-2.250276 -0.204773,-1.347724 c 0,0 -1.159927,-1.181316 -1.410589,-1.215465 -0.250662,-0.03419 -3.847425,-0.750457 -3.847425,-0.750457 L 48.202411,22.32424 47.498482,20.50873 46.03486,19.741908 Z"
       id="path62882" />
    <path
       style="fill:url(#linearGradient3161);fill-opacity:1;stroke:none;stroke-width:0.403902px;stroke-linecap:butt;stroke-linejoin:miter;stroke-opacity:1"
       d="m 44.853685,32.396131 -1.805571,6.738521 5.596423,1.132311 2.093543,-0.723498 1.191145,-1.923713 -0.169922,-2.814843 -1.517372,-1.248132 z"
       id="path62880" />
    <path
       style="fill:url(#linearGradient62896);fill-opacity:1;stroke:none;stroke-width:0.403902px;stroke-linecap:butt;stroke-linejoin:miter;stroke-opacity:1"
       d="m 41.36314,43.130917 -1.428175,1.123534 -3.259073,0.274231 -0.772669,3.794592 3.408065,0.635325 2.473565,-1.056321 0.847685,-2.021366 -0.287177,-1.852575 z"
       id="path62860" />
  </g>
</svg>
