<?xml version="1.0" encoding="UTF-8" standalone="no"?>
<!-- Created with Inkscape (http://www.inkscape.org/) -->

<svg
   width="256"
   height="256"
   viewBox="0 0 67.733332 67.733333"
   version="1.1"
   id="svg18688"
   inkscape:version="1.2.1 (9c6d41e410, 2022-07-14, custom)"
   sodipodi:docname="toxicmist.svg"
   xmlns:inkscape="http://www.inkscape.org/namespaces/inkscape"
   xmlns:sodipodi="http://sodipodi.sourceforge.net/DTD/sodipodi-0.dtd"
   xmlns:xlink="http://www.w3.org/1999/xlink"
   xmlns="http://www.w3.org/2000/svg"
   xmlns:svg="http://www.w3.org/2000/svg">
  <sodipodi:namedview
     id="namedview18690"
     pagecolor="#505050"
     bordercolor="#eeeeee"
     borderopacity="1"
     inkscape:showpageshadow="0"
     inkscape:pageopacity="0"
     inkscape:pagecheckerboard="0"
     inkscape:deskcolor="#505050"
     inkscape:document-units="mm"
     showgrid="false"
     inkscape:zoom="2.5069448"
     inkscape:cx="241.52905"
     inkscape:cy="78.781151"
     inkscape:window-width="1916"
     inkscape:window-height="1036"
     inkscape:window-x="0"
     inkscape:window-y="20"
     inkscape:window-maximized="1"
     inkscape:current-layer="layer1" />
  <defs
     id="defs18685">
    <linearGradient
       inkscape:collect="always"
       xlink:href="#linearGradient53638"
       id="linearGradient35645"
       x1="31.138714"
       y1="243.77917"
       x2="38.444729"
       y2="243.77917"
       gradientUnits="userSpaceOnUse"
       gradientTransform="matrix(2.8518682,0,0,2.8518682,-72.408529,-649.58082)" />
    <linearGradient
       id="linearGradient53638"
       inkscape:swatch="solid">
      <stop
         style="stop-color:#3a0dcd;stop-opacity:1;"
         offset="0"
         id="stop53636" />
    </linearGradient>
    <linearGradient
       inkscape:collect="always"
       xlink:href="#linearGradient53638"
       id="linearGradient35661"
       x1="129.72406"
       y1="198.22202"
       x2="132.12688"
       y2="198.22202"
       gradientUnits="userSpaceOnUse"
       gradientTransform="matrix(2.8518682,0,0,2.8518682,-330.93222,-563.63298)" />
    <linearGradient
       inkscape:collect="always"
       xlink:href="#linearGradient53638"
       id="linearGradient35655"
       x1="37.871902"
       y1="232.93449"
       x2="40.675667"
       y2="232.93449"
       gradientUnits="userSpaceOnUse"
       gradientTransform="matrix(2.8518682,0,0,2.8518682,-72.408529,-649.58082)" />
  </defs>
  <g
     inkscape:label="Layer 1"
     inkscape:groupmode="layer"
     id="layer1">
    <path
       id="path35532"
       style="fill:url(#linearGradient35645);fill-opacity:1;fill-rule:nonzero;stroke:none;stroke-width:1.28334;stroke-dasharray:3.6373, 3.6373;stroke-dashoffset:0;stroke-opacity:0;paint-order:stroke fill markers"
       d="m 26.768662,35.177994 a 10.467307,10.467307 0 0 0 -7.343664,3.018217 l 17.805771,7.152087 A 10.467307,10.467307 0 0 0 26.768662,35.177994 Z M 16.39498,46.997419 a 10.467307,10.467307 0 0 0 10.373682,9.115113 10.467307,10.467307 0 0 0 6.562582,-2.313778 z" />
    <rect
       style="fill:url(#linearGradient35661);fill-opacity:1;fill-rule:nonzero;stroke:none;stroke-width:1.32612;stroke-dasharray:3.75853, 3.75853;stroke-dashoffset:0;stroke-opacity:0;paint-order:stroke fill markers"
       id="rect35647"
       width="6.8524976"
       height="2.7429993"
       x="39.023724"
       y="0.2985732"
       transform="rotate(24.058474)" />
    <path
       style="fill:url(#linearGradient35655);fill-opacity:1;stroke:none;stroke-width:0.754556px;stroke-linecap:butt;stroke-linejoin:miter;stroke-opacity:1"
       d="m 36.020045,14.978439 0.27974,-1.58966 0.709901,-1.478694 6.15164,2.602302 -0.322084,1.567843 -0.985087,1.460584 z"
       id="path35649" />
    <g
       id="g38171"
       transform="matrix(2.8518682,0,0,2.8518682,-122.43434,-649.58083)">
      <rect
         style="fill:#ffffff;fill-opacity:1;fill-rule:nonzero;stroke:none;stroke-width:0.465;stroke-dasharray:1.31792, 1.31792;stroke-dashoffset:0;stroke-opacity:0;paint-order:stroke fill markers"
         id="rect37458"
         width="2.6850481"
         height="1.6225816"
         x="142.81975"
         y="197.45532"
         transform="rotate(23.267383)"
         ry="0.2971614" />
      <g
         id="g38161">
        <rect
           style="fill:#ffffff;fill-opacity:1;fill-rule:nonzero;stroke:none;stroke-width:0.465;stroke-dasharray:1.31792, 1.31792;stroke-dashoffset:0;stroke-opacity:0;paint-order:stroke fill markers"
           id="rect35663"
           width="11.03544"
           height="1.5838013"
           x="138.23308"
           y="202.4913"
           transform="rotate(23.267383)"
           ry="0.47386983" />
        <path
           id="path35667"
           style="fill:#ffffff;fill-opacity:1;fill-rule:nonzero;stroke:none;stroke-width:0.465;stroke-dasharray:1.31792, 1.31792;stroke-dashoffset:0;stroke-opacity:0;paint-order:stroke fill markers"
           d="m 52.239752,238.95544 a 4.6560874,4.6560874 0 0 0 -3.457153,1.54099 l 1.128613,0.44494 a 3.546175,3.546175 0 0 1 2.32854,-0.87592 3.546175,3.546175 0 0 1 3.525366,3.18327 l 1.12758,0.44442 a 4.6560874,4.6560874 0 0 0 0.0031,-0.0816 4.6560874,4.6560874 0 0 0 -4.656046,-4.65605 z m -4.653463,4.58577 a 4.6560874,4.6560874 0 0 0 -0.0026,0.0703 4.6560874,4.6560874 0 0 0 4.656047,4.65604 4.6560874,4.6560874 0 0 0 3.448885,-1.5322 l -1.129647,-0.44545 a 3.546175,3.546175 0 0 1 -2.319238,0.86764 3.546175,3.546175 0 0 1 -3.523816,-3.17086 z" />
        <rect
           style="fill:#ffffff;fill-opacity:1;fill-rule:nonzero;stroke:none;stroke-width:0.465;stroke-dasharray:1.31792, 1.31792;stroke-dashoffset:0;stroke-opacity:0;paint-order:stroke fill markers"
           id="rect35727"
           width="4.925262"
           height="1.7584686"
           x="141.33881"
           y="195.07899"
           transform="rotate(23.267383)"
           ry="0.2971614" />
        <path
           style="fill:#ffffff;fill-opacity:1;stroke:none;stroke-width:0.264583px;stroke-linecap:butt;stroke-linejoin:miter;stroke-opacity:1"
           d="m 56.90934,245.47407 0.955381,0.33826 0.31633,-0.0459 0.46336,-0.66133 1.952749,-4.40264 0.168606,-0.62925 -0.218234,-0.37799 -3.708844,-1.67758 -0.23567,-0.43543 0.642819,-0.0484 3.67544,1.51956 0.553591,0.32134 0.220136,0.45343 -0.538332,2.11026 -1.81642,3.61907 -0.17829,0.66766 -0.363693,0.38518 -0.884807,-0.0229 -1.551352,-0.67969 z"
           id="path35729" />
        <path
           style="fill:#37bdbe;fill-opacity:1;stroke:none;stroke-width:0.264583px;stroke-linecap:butt;stroke-linejoin:miter;stroke-opacity:1"
           d="m 60.673588,240.7218 -0.31967,-0.0593 -0.180469,0.29975 -0.680712,0.88359 -0.588116,0.98932 -0.02143,1.24654 -0.18361,1.05981 0.950196,0.33041 0.321262,-0.6029 0.653304,-0.57987 0.597225,-0.94197 0.197459,-1.21402 -0.0021,-0.65816 0.25949,-0.29558 z"
           id="path36559" />
        <path
           id="path37460"
           style="fill:#ffffff;fill-opacity:1;stroke:none;stroke-width:0.264583px;stroke-linecap:butt;stroke-linejoin:miter;stroke-opacity:1"
           d="m 55.587868,233.0297 -0.874365,0.0687 -0.268718,1.83917 2.38125,0.91674 1.106393,-0.94155 0.02584,-0.76274 z m 0.03359,0.50075 1.529622,0.67076 0.160197,0.52348 -0.523482,0.38861 -1.558045,-0.73949 -0.0041,-0.64441 z" />
      </g>
    </g>
  </g>
</svg>
