<?xml version="1.0" encoding="UTF-8" standalone="no"?>
<!-- Created with Inkscape (http://www.inkscape.org/) -->

<svg
   width="256"
   height="256"
   viewBox="0 0 67.733332 67.733333"
   version="1.1"
   id="svg5"
   xml:space="preserve"
   sodipodi:docname="zedfry.svg"
   inkscape:version="1.2.2 (b0a8486541, 2022-12-01)"
   xmlns:inkscape="http://www.inkscape.org/namespaces/inkscape"
   xmlns:sodipodi="http://sodipodi.sourceforge.net/DTD/sodipodi-0.dtd"
   xmlns="http://www.w3.org/2000/svg"
   xmlns:svg="http://www.w3.org/2000/svg"><sodipodi:namedview
     id="namedview7"
     pagecolor="#505050"
     bordercolor="#eeeeee"
     borderopacity="1"
     inkscape:showpageshadow="0"
     inkscape:pageopacity="0"
     inkscape:pagecheckerboard="0"
     inkscape:deskcolor="#505050"
     inkscape:document-units="mm"
     showgrid="false"
     inkscape:zoom="2.458301"
     inkscape:cx="182.23969"
     inkscape:cy="162.71401"
     inkscape:window-width="1906"
     inkscape:window-height="1026"
     inkscape:window-x="5"
     inkscape:window-y="25"
     inkscape:window-maximized="1"
     inkscape:current-layer="layer1" /><defs
     id="defs2" /><g
     inkscape:label="Layer 1"
     inkscape:groupmode="layer"
     id="layer1"><path
       style="fill:#231815;fill-opacity:1;stroke:none;stroke-width:4.48178;stroke-dasharray:none;stroke-opacity:1;paint-order:markers stroke fill"
       d="m 23.794235,57.136243 c 0,0 -1.049723,-1.035223 -1.21569,-1.906281 -0.761454,-3.996426 2.964053,-12.272 2.964053,-12.272 l 18.061398,-0.640134 c 0,0 2.887893,9.464414 1.651674,13.438507 -0.250393,0.80494 -3.001795,1.300875 -3.001795,1.300875 z"
       id="path11730"
       sodipodi:nodetypes="csccscc" /><path
       style="fill:#e83828;fill-opacity:1;stroke-width:3.7;stroke-dasharray:none;stroke:none;stroke-opacity:1;paint-order:markers stroke fill"
       d="m 25.591977,55.962707 c 0,0 -0.866615,-0.854644 -1.003631,-1.573759 -0.62863,-3.29931 2.447018,-10.131335 2.447018,-10.131335 l 14.91086,-0.528472 c 0,0 2.384144,7.81349 1.363564,11.094362 -0.206715,0.66453 -2.478177,1.073957 -2.478177,1.073957 z"
       id="path3615"
       sodipodi:nodetypes="csccscc" /><path
       style="fill:#231815;fill-opacity:1;stroke:none;stroke-width:3.25799;stroke-linecap:butt;stroke-linejoin:miter;stroke-dasharray:none;stroke-opacity:1;paint-order:markers stroke fill"
       d="m 22.93426,42.480679 c 0,0 -2.622626,6.715061 -2.422301,9.800883 0.04807,0.740519 0.891421,1.227536 0.891421,1.227536 l 4.622057,0.440061 1.474936,-11.595852 z"
       id="path6430"
       sodipodi:nodetypes="cscccc" /><ellipse
       style="fill:#ffffff;fill-opacity:1;stroke:none;stroke-width:2.79073;stroke-linejoin:round;stroke-dasharray:none;stroke-opacity:1;paint-order:markers stroke fill;stop-color:#000000"
       id="path3617"
       cx="33.919746"
       cy="46.713211"
       rx="7.0274954"
       ry="6.0992723" /><path
       style="fill:#231815;fill-opacity:1;stroke:none;stroke-width:3.25799;stroke-linecap:butt;stroke-linejoin:miter;stroke-dasharray:none;stroke-opacity:1;paint-order:markers stroke fill"
       d="m 44.516676,43.158307 c 0,0 2.622626,6.715061 2.422301,9.800883 -0.04807,0.740519 -0.891421,1.227536 -0.891421,1.227536 l -4.622057,0.440061 -1.474936,-11.595852 z"
       id="path6359"
       sodipodi:nodetypes="cscccc" /><path
       style="fill:#ffffff;fill-opacity:1;stroke:none;stroke-width:2.601;stroke-linecap:butt;stroke-linejoin:miter;stroke-dasharray:none;stroke-opacity:1;paint-order:markers stroke fill"
       d="m 44.415564,44.456974 c 0,0 2.093763,5.360943 1.933835,7.824497 -0.03838,0.591191 -0.711663,0.979999 -0.711663,0.979999 l -3.690001,0.351321 -1.17751,-9.257504 z"
       id="path3613"
       sodipodi:nodetypes="cscccc" /><path
       style="fill:#ffffff;fill-opacity:1;stroke:#231815;stroke-width:3.9;stroke-linecap:butt;stroke-linejoin:round;stroke-dasharray:none;stroke-opacity:1;paint-order:markers stroke fill"
       d="m 32.276676,18.802897 -2.102635,-7.221733 c 2.810206,-0.559982 5.518447,-0.435615 8.180313,0 l -1.273653,7.19164 z"
       id="path1599"
       sodipodi:nodetypes="ccccc" /><path
       style="fill:#ffffff;fill-opacity:1;stroke:none;stroke-width:2.601;stroke-linecap:butt;stroke-linejoin:miter;stroke-dasharray:none;stroke-opacity:1;paint-order:markers stroke fill"
       d="m 23.035372,43.779346 c 0,0 -2.093763,5.360943 -1.933835,7.824497 0.03838,0.591191 0.711663,0.979999 0.711663,0.979999 l 3.690001,0.351321 1.17751,-9.257504 z"
       id="path6432"
       sodipodi:nodetypes="cscccc" /><g
       id="g6436"><path
         id="path6288"
         style="fill:#231815;fill-opacity:1;stroke:none;stroke-width:3.29419;stroke-dasharray:none;stroke-opacity:1;paint-order:stroke fill markers;stop-color:#000000"
         d="m 53.503892,34.337805 c 10e-7,9.756746 -8.674839,11.335241 -19.375793,11.335241 -10.70095,0 -19.375789,-1.578495 -19.375788,-11.335241 0,-9.756747 8.674838,-17.666153 19.375788,-17.666153 10.700954,0 19.375793,7.909406 19.375793,17.666153 z"
         sodipodi:nodetypes="sssss" /><path
         id="path373"
         style="fill:#e83828;fill-opacity:1;stroke:none;stroke-width:3;stroke-dasharray:none;stroke-opacity:1;paint-order:stroke fill markers;stop-color:#000000"
         d="m 51.773483,34.055105 c 1e-6,8.885393 -7.900108,10.322915 -17.645384,10.322915 -9.745272,0 -17.64538,-1.437522 -17.645379,-10.322915 0,-8.885393 7.900107,-16.088427 17.645379,-16.088427 9.745276,0 17.645384,7.203034 17.645384,16.088427 z"
         sodipodi:nodetypes="sssss" /></g><path
       style="fill:#231815;fill-opacity:1;stroke:none;stroke-width:4.58442;stroke-linejoin:round;stroke-dasharray:none;paint-order:markers stroke fill;stop-color:#000000"
       d="m 27.720444,35.991243 c -1.691866,0 -3.063708,1.213475 -3.063708,2.709707 0,0.908578 0.03033,5.070946 0.03033,5.070946 l 5.944762,0.713667 c 0,0 0.151597,-4.28838 0.151597,-5.784613 0,-1.496232 -1.371105,-2.709707 -3.062971,-2.709707 z"
       id="path14362" /><rect
       style="fill:#231815;fill-opacity:1;stroke:none;stroke-width:3.429;stroke-dasharray:none;stroke-opacity:1;paint-order:stroke fill markers;stop-color:#000000"
       id="rect2256"
       width="23.495626"
       height="1.7743086"
       x="22.15925"
       y="29.017897"
       ry="0.88715428" /><ellipse
       style="fill:#231815;fill-opacity:1;stroke:none;stroke-width:0.155499;paint-order:stroke fill markers;stop-color:#000000"
       id="path946"
       cx="26.217831"
       cy="32.396088"
       rx="2.3172526"
       ry="3.197191" /><ellipse
       style="fill:#231815;fill-opacity:1;stroke:none;stroke-width:0.155499;paint-order:stroke fill markers;stop-color:#000000"
       id="ellipse1534"
       cx="41.493908"
       cy="32.322121"
       rx="2.3172526"
       ry="3.197191" /><path
       style="fill:#231815;fill-opacity:1;stroke:none;stroke-width:4.97761;stroke-linejoin:round;stroke-dasharray:none;paint-order:markers stroke fill;stop-color:#000000"
       d="m 33.466877,35.99546 c -1.646639,1.32e-4 -2.981487,1.287926 -2.98168,2.876576 3.89e-4,0.07856 0.0041,0.157048 0.01117,0.235303 v 5.785685 h 5.981831 V 38.79562 h -0.02971 c -0.04312,-1.558711 -1.365444,-2.80056 -2.981627,-2.800163 z"
       id="path14364" /><path
       style="fill:#231815;fill-opacity:1;stroke:none;stroke-width:4.69385;stroke-linejoin:round;stroke-dasharray:none;paint-order:markers stroke fill;stop-color:#000000"
       d="m 39.255152,36.303127 c 1.773603,0 3.211721,1.213475 3.211721,2.709707 0,0.908578 -0.0318,5.070946 -0.0318,5.070946 l -6.231964,0.713667 c 0,0 -0.158921,-4.28838 -0.158921,-5.784613 0,-1.496232 1.437345,-2.709707 3.210948,-2.709707 z"
       id="path14366" /><path
       style="fill:#ffffff;stroke:none;stroke-width:3.3;stroke-linejoin:round;stroke-dasharray:none;paint-order:markers stroke fill;stop-color:#000000"
       d="m 33.597862,37.746175 a 1.9189054,1.9649693 0 0 0 -1.918746,1.964738 1.9189054,1.9649693 0 0 0 0.0072,0.160714 v 3.951697 h 3.849377 V 39.65872 h -0.01912 a 1.9189054,1.9649693 0 0 0 -1.918711,-1.912548 z"
       id="path14372" /><path
       style="fill:#ffffff;stroke:none;stroke-width:3.3;stroke-linejoin:round;stroke-dasharray:none;paint-order:markers stroke fill;stop-color:#000000"
       d="m 27.729563,37.302749 c -1.182295,0 -2.140954,0.89976 -2.140954,2.009179 0,0.673687 0.02119,3.759978 0.02119,3.759978 l 4.154268,0.529166 c 0,0 0.105937,-3.179725 0.105937,-4.289144 0,-1.109419 -0.958143,-2.009179 -2.140438,-2.009179 z"
       id="path14370" /><path
       style="fill:#ffffff;stroke:none;stroke-width:3.3;stroke-linejoin:round;stroke-dasharray:none;paint-order:markers stroke fill;stop-color:#000000"
       d="m 39.287253,37.523037 c -1.182295,0 -2.140955,0.899244 -2.140955,2.008663 0,1.109419 0.105937,4.289661 0.105937,4.289661 l 4.154268,-0.529167 c 0,0 0.02119,-3.086808 0.02119,-3.760494 0,-1.109419 -0.958143,-2.008663 -2.140437,-2.008663 z"
       id="path2459" /></g></svg>
