<?xml version="1.0" encoding="UTF-8" standalone="no"?>
<!-- Created with Inkscape (http://www.inkscape.org/) -->

<svg
   width="128"
   height="128"
   viewBox="0 0 33.866666 33.866666"
   version="1.1"
   id="svg5"
   xml:space="preserve"
   inkscape:version="1.2.2 (b0a8486541, 2022-12-01)"
   sodipodi:docname="zekkofin.svg"
   xmlns:inkscape="http://www.inkscape.org/namespaces/inkscape"
   xmlns:sodipodi="http://sodipodi.sourceforge.net/DTD/sodipodi-0.dtd"
   xmlns="http://www.w3.org/2000/svg"
   xmlns:svg="http://www.w3.org/2000/svg"><sodipodi:namedview
     id="namedview7"
     pagecolor="#505050"
     bordercolor="#eeeeee"
     borderopacity="1"
     inkscape:showpageshadow="0"
     inkscape:pageopacity="0"
     inkscape:pagecheckerboard="0"
     inkscape:deskcolor="#505050"
     inkscape:document-units="mm"
     showgrid="false"
     inkscape:zoom="8.9701773"
     inkscape:cx="83.666128"
     inkscape:cy="72.462336"
     inkscape:window-width="1906"
     inkscape:window-height="1026"
     inkscape:window-x="5"
     inkscape:window-y="25"
     inkscape:window-maximized="1"
     inkscape:current-layer="layer1" /><defs
     id="defs2" /><g
     inkscape:label="Layer 1"
     inkscape:groupmode="layer"
     id="layer1"><circle
       style="fill:#efefef;fill-opacity:1;stroke:none;stroke-width:0.165;stroke-dasharray:none;paint-order:stroke fill markers;stop-color:#000000"
       id="path6441"
       cx="29.293306"
       cy="27.003691"
       r="2.0301259" /><path
       style="fill:#efefef;fill-opacity:1;stroke:none;stroke-width:0.264583px;stroke-linecap:butt;stroke-linejoin:miter;stroke-opacity:1"
       d="m 18.765383,16.43179 c -0.256935,0.553518 0.706452,1.186419 0.486938,1.680872 -0.185209,0.417182 -0.903024,0.512407 -1.335421,0.798952 -0.835021,0.553359 -1.78347,1.005145 -2.425912,1.773737 -0.61063,0.730533 -1.105034,1.583061 -1.250152,2.568277 -0.09746,0.661621 0.219713,1.983437 0.219713,1.983437 0,0 0.560274,1.8379 1.608122,2.305762 0.845922,0.377702 3.445271,0.791423 3.445271,0.791423 l 3.626055,-0.07429 c 0,0 2.446381,0.113671 3.553674,-0.298366 0.317948,-0.118312 1.03004,-0.529275 1.03004,-0.529275 l 1.812753,-2.043042 c 0,0 0.192538,-1.014177 0.205409,-1.527896 0.01089,-0.434476 -0.143744,-0.83606 -0.108796,-1.299291 0.03819,-0.50623 0.302245,-0.94835 0.358658,-1.439684 0.07731,-0.673311 -0.03156,-2.032958 -0.03156,-2.032958 0,0 -0.298427,-1.725426 -0.689009,-2.494613 -0.480811,-0.946878 -1.978965,-2.496701 -1.978965,-2.496701 0,0 -0.928312,-0.827666 -1.66769,-1.177056 -0.257426,-0.121646 -0.826742,-0.506803 -1.111453,-0.509126 -0.407119,-0.0033 -1.052093,0.194478 -1.410354,0.387885 -0.700676,0.378258 -1.486202,1.54539 -1.486202,1.54539 0,0 -0.836782,0.873829 -0.884128,1.034839 -0.04734,0.161009 -0.129694,0.496758 -0.129694,0.496758 l -1.010489,0.115251 c 0,0 -0.733793,0.239325 -0.826808,0.43971 z"
       id="path356"
       sodipodi:nodetypes="ssssscsccsccssscscsssccccss" /><path
       id="path454"
       style="fill:#2e3365;stroke:none;stroke-width:0.264583px;stroke-linecap:butt;stroke-linejoin:miter;stroke-opacity:1;fill-opacity:1"
       d="M 24.494629 13.465328 C 23.914473 13.474303 23.477652 14.030269 23.019784 14.423926 C 22.61526 14.77171 21.944397 15.61145 21.944397 15.61145 L 21.574394 16.207796 L 22.638411 16.476514 C 22.638411 16.476514 23.385991 16.691863 23.703463 16.8429 C 23.942355 16.956549 24.298498 17.026102 24.306527 17.272847 C 24.313027 17.471107 24.011192 17.684512 23.845573 17.649052 C 23.378494 17.549047 22.94847 16.978292 22.94847 16.978292 L 21.945947 16.687354 C 21.945947 16.687354 21.271472 16.676829 20.956344 16.750399 C 20.591499 16.835579 20.016123 16.917864 19.913513 17.017049 C 19.752258 17.172921 20.422526 17.457332 20.422526 17.457332 L 20.298503 18.560624 C 20.298503 18.560624 18.007555 19.988801 16.999996 20.925338 C 16.56136 21.333049 16.032679 21.723254 15.757178 22.254972 C 15.483071 22.783994 15.23523 23.366077 15.227494 23.961845 C 15.221594 24.413152 15.365817 24.876239 15.594914 25.265125 C 15.879138 25.747591 16.312808 26.137485 16.788123 26.447481 C 17.228408 26.73464 17.760753 27.001743 18.301725 27.052612 C 19.623309 27.176883 20.79048 27.272286 22.250838 27.293424 C 23.408941 27.310194 26.156026 27.181803 26.156026 27.181803 L 27.513566 26.679508 C 27.513566 26.679508 28.402234 25.849461 28.609106 25.299748 C 28.873204 24.597982 28.719177 23.052856 28.719177 23.052856 C 28.719177 23.052856 28.472657 22.741827 28.369328 22.536609 C 28.299108 22.397143 28.550712 22.156787 28.550712 22.156787 C 28.550712 22.156787 28.859764 20.864434 28.867489 20.205485 C 28.875689 19.504034 28.790041 18.789904 28.579134 18.120858 C 28.352543 17.402037 27.548706 16.108061 27.548706 16.108061 L 25.812895 14.342277 C 25.812895 14.342277 25.042565 13.472925 24.522534 13.465328 C 24.513252 13.465192 24.503838 13.465185 24.494629 13.465328 z M 24.453288 14.4632 C 24.453288 14.4632 24.929156 14.721178 25.169006 14.875061 C 25.497171 15.085601 26.127087 15.579411 26.127087 15.579411 C 26.127087 15.579411 26.248276 15.707679 26.207186 15.805237 C 26.184466 15.859187 26.040788 15.987655 26.040788 15.987655 L 25.566398 15.601632 L 25.43359 15.738057 L 25.927616 16.183508 C 25.927616 16.183508 25.997178 16.355844 25.938468 16.395382 C 25.872868 16.439562 25.723494 16.295129 25.723494 16.295129 L 25.205697 15.856396 L 25.036715 16.082222 L 25.441341 16.419153 L 25.693522 16.716292 C 25.693522 16.716292 25.736784 16.939446 25.648564 16.978292 C 25.485869 17.049932 25.124048 16.744714 25.124048 16.744714 C 25.124048 16.744714 24.340802 16.124145 23.881746 15.954065 C 23.597284 15.848669 23.164994 15.816606 23.164994 15.816606 C 23.164994 15.816606 23.54797 15.243052 23.753072 15.048694 C 24.027644 14.788506 24.453288 14.4632 24.453288 14.4632 z M 23.7262 21.318595 C 23.7262 21.318595 23.997094 21.539056 24.078634 21.680847 C 24.182614 21.861612 24.185087 22.256006 24.185087 22.256006 L 24.138062 22.735563 C 24.138062 22.735563 23.928863 23.002594 23.798547 23.091614 C 23.63322 23.204553 23.405501 23.211415 23.1929 23.223905 C 22.959451 23.237625 22.617969 23.186342 22.38468 23.170162 C 22.195277 23.157025 22.068002 23.177696 21.944397 23.028052 C 21.836199 22.897054 21.752998 22.58338 21.736658 22.443591 C 21.709228 22.208855 21.845178 21.723222 21.845178 21.723222 C 21.845178 21.723222 22.164511 21.722439 22.323702 21.710819 C 22.564351 21.693255 22.786296 21.643619 23.074561 21.567159 C 23.363273 21.490582 23.7262 21.318595 23.7262 21.318595 z M 20.276282 21.371305 C 20.308346 21.370956 21.108789 21.791435 21.108789 21.791435 C 21.108789 21.791435 20.950693 22.071494 20.954793 22.410002 C 20.957453 22.630391 21.078817 23.119002 21.078817 23.119002 L 20.237008 23.116418 C 20.237008 23.116418 19.806433 22.832928 19.719727 22.606889 C 19.64556 22.413542 19.668244 22.173897 19.756934 21.986772 C 19.868255 21.751892 20.244222 21.371654 20.276282 21.371305 z M 20.171895 23.889498 C 20.337583 23.887898 20.563086 24.115324 20.563086 24.115324 C 20.563086 24.115324 20.43361 24.696991 20.228223 25.248071 C 20.102228 25.586129 19.974911 25.925358 19.751249 26.074377 C 19.466338 26.264207 18.723922 26.071794 18.723922 26.071794 L 19.686654 24.201624 C 19.686654 24.201624 19.964626 23.891538 20.171895 23.889498 z M 23.67039 23.920504 C 24.080438 23.900514 24.263379 24.505047 24.460522 24.865149 C 24.628008 25.171076 24.774715 25.863021 24.774715 25.863021 L 24.734408 26.120886 C 24.734408 26.120886 23.958705 26.317748 23.588741 26.325008 C 23.2945 26.330808 22.672001 26.235608 22.672001 26.235608 L 22.709725 25.85992 C 22.709725 25.85992 22.939352 25.070541 23.052856 24.824841 C 23.139126 24.638085 23.30586 23.938273 23.67039 23.920504 z M 22.010026 24.022306 C 22.175667 24.020706 22.401217 24.251233 22.401217 24.251233 C 22.401217 24.251233 22.291839 25.037869 22.086507 25.596887 C 21.960547 25.939814 21.902379 26.126815 21.67878 26.277983 C 21.393949 26.470545 20.681425 26.274365 20.681425 26.274365 L 21.525301 24.338566 C 21.525301 24.338566 21.802812 24.024375 22.010026 24.022306 z " /><g
       id="g7177"><path
         id="path6961"
         style="fill:#2e3365;fill-opacity:1;stroke:none;stroke-width:0.165;stroke-dasharray:none;paint-order:stroke fill markers;stop-color:#000000"
         d="m 29.23637,25.944999 a 0.93167615,0.93167615 0 0 0 -0.931726,0.931726 0.93167615,0.93167615 0 0 0 0.931726,0.931726 0.93167615,0.93167615 0 0 0 0.931726,-0.931726 0.93167615,0.93167615 0 0 0 -0.931726,-0.931726 z m 0,0.179317 a 0.75242484,0.75242484 0 0 1 0.752409,0.752409 0.75242484,0.75242484 0 0 1 -0.752409,0.752408 0.75242484,0.75242484 0 0 1 -0.752409,-0.752408 0.75242484,0.75242484 0 0 1 0.752409,-0.752409 z" /><path
         style="fill:#2e3365;stroke:none;stroke-width:0.01;stroke-linecap:butt;stroke-linejoin:miter;stroke-dasharray:none;stroke-opacity:1;fill-opacity:1"
         d="m 28.784788,26.39009 0.02628,0.995425 0.21214,-0.0052 c 0,0 0.01883,-0.260012 0.114686,-0.358211 0.104283,-0.106836 0.245931,0.0077 0.357834,-0.09212 0.140788,-0.125526 0.0572,-0.431415 0.0572,-0.431415 l -0.149196,-0.01368 0.02315,0.285152 -0.3884,0.01037 -7.94e-4,-0.412078 z"
         id="path7035"
         sodipodi:nodetypes="cccsscccccc" /></g></g></svg>
