<?xml version="1.0" encoding="UTF-8" standalone="no"?>
<!-- Created with Inkscape (http://www.inkscape.org/) -->

<svg
   width="256"
   height="256"
   viewBox="0 0 67.733332 67.733333"
   version="1.1"
   id="svg2899"
   inkscape:version="1.2.1 (9c6d41e410, 2022-07-14, custom)"
   sodipodi:docname="zipcaster.svg"
   inkscape:export-filename="zipcaster.png"
   inkscape:export-xdpi="96"
   inkscape:export-ydpi="96"
   xmlns:inkscape="http://www.inkscape.org/namespaces/inkscape"
   xmlns:sodipodi="http://sodipodi.sourceforge.net/DTD/sodipodi-0.dtd"
   xmlns:xlink="http://www.w3.org/1999/xlink"
   xmlns="http://www.w3.org/2000/svg"
   xmlns:svg="http://www.w3.org/2000/svg">
  <sodipodi:namedview
     id="namedview2901"
     pagecolor="#ffffff"
     bordercolor="#666666"
     borderopacity="1.0"
     inkscape:showpageshadow="2"
     inkscape:pageopacity="0.0"
     inkscape:pagecheckerboard="0"
     inkscape:deskcolor="#d1d1d1"
     inkscape:document-units="mm"
     showgrid="false"
     inkscape:zoom="0.94603943"
     inkscape:cx="156.9702"
     inkscape:cy="-17.441134"
     inkscape:window-width="1916"
     inkscape:window-height="1036"
     inkscape:window-x="0"
     inkscape:window-y="20"
     inkscape:window-maximized="1"
     inkscape:current-layer="layer1" />
  <defs
     id="defs2896">
    <linearGradient
       inkscape:collect="always"
       xlink:href="#linearGradient53638"
       id="linearGradient53640"
       x1="82.451683"
       y1="55.402802"
       x2="111.80056"
       y2="55.402802"
       gradientUnits="userSpaceOnUse"
       gradientTransform="matrix(1.6695158,0,0,1.6695158,-129.75544,-57.121416)" />
    <linearGradient
       id="linearGradient53638"
       inkscape:swatch="solid">
      <stop
         style="stop-color:#adf5f0;stop-opacity:1;"
         offset="0"
         id="stop53636" />
    </linearGradient>
  </defs>
  <g
     inkscape:label="Layer 1"
     inkscape:groupmode="layer"
     id="layer1">
    <path
       id="path52984"
       style="fill:url(#linearGradient53640);fill-opacity:1;stroke:none;stroke-width:0.441725px;stroke-linecap:butt;stroke-linejoin:miter;stroke-opacity:1"
       d="m 49.01924,25.257303 0.06445,1.617579 2.238704,-0.979202 -0.187086,-1.730877 -0.887798,-0.238385 z m -3.874328,10.250682 1.785931,-2.276974 1.324611,-3.908123 0.981107,2.376738 0.328477,1.64485 0.31255,1.508478 c 0,0 -0.230926,1.156986 -0.531473,1.615265 -0.216069,0.329471 -0.914828,0.739995 -1.299451,0.85376 -0.607687,0.179742 -1.525788,-0.297177 -1.525788,-0.297177 z M 21.777899,17.238958 c -2.078482,1.431554 -2.885118,4.128116 -3.492767,6.577644 -0.834436,3.36374 -0.121775,10.396367 -0.121775,10.396367 0,0 0.672185,4.024428 2.189381,5.074944 1.39514,0.966005 5.070329,0.52093 5.070329,0.52093 1.259047,0.207121 3.327454,-2.009888 4.155926,-2.324676 l -2.830779,2.450801 -3.15521,3.957663 c -2.462648,1.979545 -4.628487,4.115293 -7.790798,5.726624 0,0 -3.977907,0.102958 -5.9281821,1.78039 -1.0919101,0.939151 -1.9750656,3.80287 -1.9750656,3.80287 0,0 -1.105021,3.800687 0.1570346,4.768275 1.4811878,1.135591 5.4521681,-1.274844 5.4521681,-1.274844 l 2.246464,-0.921777 c 0,0 2.213159,1.550767 3.478032,1.520157 0.377835,-0.0092 1.015754,-0.503816 1.015754,-0.503816 l -0.352653,-3.114146 1.142472,-2.746021 7.603481,-10.885677 5.278965,-0.763245 -1.083297,2.056083 -2.512906,1.690836 c 0,0 -1.33239,0.413512 -1.769987,0.912668 -0.505463,0.576566 -0.777597,2.164864 -0.777597,2.164864 0,0 0.852032,1.209593 1.409774,1.683625 0.793509,0.674414 2.432153,1.878435 2.432153,1.878435 l 1.214856,-0.271394 0.0039,-1.049331 1.605024,-1.164015 c 0,0 0.794155,-0.698609 1.051189,-1.149847 0.324535,-0.569741 0.571827,-1.882115 0.571827,-1.882115 l -0.03762,-2.175311 -0.284051,-0.435424 1.161213,-3.228249 c 0,0 2.640023,-1.501727 3.783641,-2.486502 1.122499,-0.966591 2.964793,-3.310388 2.964793,-3.310388 l 2.035208,-3.282215 1.17442,-3.790552 0.312366,-2.29797 1.980062,-1.890684 c 0,0 2.667887,-2.219598 3.027852,-3.117236 0.276439,-0.689362 -0.05041,-2.227607 -0.05041,-2.227607 0,0 -0.373872,-0.463441 -0.452373,-0.759679 -0.219307,-0.827641 0.218122,-2.52617 0.218122,-2.52617 0,0 1.56195,0.179135 2.300494,-0.02744 0.650677,-0.181992 1.745245,-1.030856 1.745245,-1.030856 0,0 1.045767,-0.910203 0.952776,-1.493285 -0.071,-0.444811 -0.637215,-0.665631 -1.045178,-0.856576 -0.702415,-0.328761 -1.512498,-0.370958 -2.285234,-0.436994 -1.147474,-0.09807 -2.364201,-0.30756 -3.454378,0.06371 -0.436962,0.148821 -0.844942,0.448609 -1.112398,0.824845 -0.299562,0.421387 -0.573279,0.975124 -0.463157,1.480273 0.07145,0.328035 0.445911,0.5021 0.673565,0.748866 0.221395,0.239986 0.252949,0.349402 0.270662,0.67544 0.03406,0.627975 -0.856294,1.517049 -0.973528,1.885489 -0.30063,0.944886 0.12221,2.157524 0.12221,2.157524 0,0 -1.514753,0.460347 -2.297623,0.531276 -0.77776,0.07048 -2.34031,-0.108966 -2.34031,-0.108966 0,0 -1.576373,0.914677 -2.224563,1.542388 -0.674334,0.653016 -1.678031,2.261532 -1.678031,2.261532 l -0.795908,2.674606 -0.937367,0.153078 c 0,0 -0.118369,-0.38081 -3.84e-4,-0.56766 0.06712,-0.106398 0.293735,-0.222773 0.293735,-0.222773 l 0.221261,-4.721227 c 0,0 -0.07863,-1.951456 -0.405659,-2.191954 -0.548203,-0.403117 -2.422167,-0.255288 -2.422167,-0.255288 0,0 -0.443354,0.151342 -0.585908,0.223973 -1.21425,0.61862 -6.69334,0.401227 -6.69334,0.401227 l -4.006991,-1.42473 c 0,0 -2.156072,-0.237411 -2.978792,0.329236 z"
       sodipodi:nodetypes="ccccccccccccssccsscscccccscsccscccccccscsccccsccccscccccscscscssssssssscscscccsccscsccss" />
    <path
       id="path52986"
       style="fill:#ffffff;fill-opacity:1;stroke:none;stroke-width:0.441725px;stroke-linecap:butt;stroke-linejoin:miter;stroke-opacity:1"
       d="m 30.894909,27.625286 c -0.622738,0.196747 -1.063062,0.766516 -1.5331,1.219922 -0.371685,0.358533 -0.797967,0.704861 -1.007687,1.176786 -0.348903,0.785125 -0.329578,2.556318 -0.329578,2.556318 l 0.124245,2.088708 -1.683223,1.452001 -3.370752,-0.54698 -1.758268,-0.03451 -0.480553,0.638432 -0.107854,0.945571 0.810117,0.915374 1.137975,0.801491 1.173335,0.365804 1.318267,-0.148387 0.795457,-0.236391 1.001644,-0.581491 -0.07332,-1.030121 2.051601,-1.717727 c 0,0 0.892035,-0.394308 1.352793,-0.552157 0.470907,-0.161326 1.02572,-0.123377 1.438188,-0.402041 0.490116,-0.331116 0.799185,-0.92978 1.133493,-1.417725 0.352297,-0.514208 0.73233,-1.005056 0.918993,-1.587219 0.272834,-0.850912 0.54582,-1.823114 0.256237,-2.668474 -0.1647,-0.480765 -0.585333,-0.894153 -1.045653,-1.109487 -0.641963,-0.300306 -1.44655,-0.34121 -2.122355,-0.127702 z m -0.05091,1.379531 c 0.568456,0.0037 1.173083,0.257535 1.571064,0.663452 0.28399,0.289651 0.411406,0.72651 0.451204,1.130197 0.04674,0.474155 -0.08751,0.961489 -0.260545,1.405414 -0.148053,0.379824 -0.372731,0.736984 -0.649643,1.036159 -0.294825,0.318527 -0.654554,0.588346 -1.046518,0.774744 -0.30695,0.145966 -0.649863,0.288822 -0.987836,0.252784 -0.378414,-0.04035 -0.817893,-0.188367 -1.021494,-0.509882 -0.40643,-0.641811 -0.153311,-1.526129 -0.04831,-2.278512 0.07839,-0.561731 0.182517,-1.156551 0.500387,-1.626277 0.144413,-0.2134 0.362681,-0.388597 0.601344,-0.485726 0,0 0.569936,-0.364448 0.890352,-0.362353 z m -7.43342,7.297106 1.374346,0.21914 1.380406,0.298509 0.03105,0.792002 -0.368396,0.571138 -1.240634,0.41843 -1.928224,-0.527999 -0.817027,-1.396788 0.572861,-0.342509 z"
       sodipodi:nodetypes="ssscccccccccccccccssssssssssssssssssscccccccccc" />
    <path
       style="fill:#ffffff;fill-opacity:1;stroke:none;stroke-width:0.441725px;stroke-linecap:butt;stroke-linejoin:miter;stroke-opacity:1"
       d="m 27.378449,39.732848 2.926578,-1.686081 4.504554,-4.016961 2.109901,-2.45157 2.356264,-4.59676 c 0,0 1.336698,1.49374 1.336698,1.57951 0,0.08576 0.734319,1.665882 0.730028,2.550027 0,0 0.108519,1.842645 -0.01336,2.751773 -0.09933,0.741182 -0.58064,2.167015 -0.58064,2.167015 l -1.55377,2.953885 -0.921288,0.617569 c 0,0 0.617253,-1.000082 0.874792,-1.527196 0.244836,-0.501114 0.509921,-1.004628 0.634233,-1.548329 0.174982,-0.765287 0.200075,-1.567797 0.143078,-2.350763 -0.03941,-0.541791 3.33e-4,-1.166668 -0.333553,-1.595176 -0.336491,-0.431865 -0.929335,-0.730468 -1.476704,-0.719005 -0.54508,0.01135 -1.058659,0.386584 -1.439264,0.776938 -0.507846,0.520853 -0.735426,1.263748 -0.987786,1.94603 -0.408277,1.103814 -0.635133,2.27072 -0.835292,3.430479 -0.16236,0.940755 -0.294369,2.84882 -0.294369,2.84882 l -0.555782,1.077016 -2.067411,0.470381 -2.625482,-0.335982 -1.424364,-1.202939 z"
       id="path53357"
       sodipodi:nodetypes="cccccssscccsssssssscccccc" />
  </g>
</svg>
