<?xml version="1.0" encoding="UTF-8" standalone="no"?>
<!-- Created with Inkscape (http://www.inkscape.org/) -->

<svg
   width="256"
   height="256"
   viewBox="0 0 67.733332 67.733333"
   version="1.1"
   id="svg4252"
   inkscape:version="1.2.1 (9c6d41e410, 2022-07-14, custom)"
   sodipodi:docname="s3_killer_wail_5.1.svg"
   inkscape:export-filename="killerwail51.png"
   inkscape:export-xdpi="96"
   inkscape:export-ydpi="96"
   xml:space="preserve"
   xmlns:inkscape="http://www.inkscape.org/namespaces/inkscape"
   xmlns:sodipodi="http://sodipodi.sourceforge.net/DTD/sodipodi-0.dtd"
   xmlns:xlink="http://www.w3.org/1999/xlink"
   xmlns="http://www.w3.org/2000/svg"
   xmlns:svg="http://www.w3.org/2000/svg"><sodipodi:namedview
     id="namedview4254"
     pagecolor="#505050"
     bordercolor="#eeeeee"
     borderopacity="1"
     inkscape:showpageshadow="0"
     inkscape:pageopacity="0"
     inkscape:pagecheckerboard="0"
     inkscape:deskcolor="#505050"
     inkscape:document-units="mm"
     showgrid="false"
     inkscape:zoom="3.7598973"
     inkscape:cx="25.665594"
     inkscape:cy="150.66901"
     inkscape:window-width="1916"
     inkscape:window-height="1036"
     inkscape:window-x="0"
     inkscape:window-y="20"
     inkscape:window-maximized="1"
     inkscape:current-layer="layer1" /><defs
     id="defs4249"><linearGradient
       id="linearGradient11917"
       inkscape:swatch="solid"><stop
         style="stop-color:#000000;stop-opacity:1;"
         offset="0"
         id="stop11915" /></linearGradient><linearGradient
       id="linearGradient11911"
       inkscape:swatch="solid"><stop
         style="stop-color:#000000;stop-opacity:1;"
         offset="0"
         id="stop11909" /></linearGradient><linearGradient
       id="linearGradient11905"
       inkscape:swatch="solid"><stop
         style="stop-color:#000000;stop-opacity:1;"
         offset="0"
         id="stop11903" /></linearGradient><linearGradient
       id="linearGradient11899"
       inkscape:swatch="solid"><stop
         style="stop-color:#000000;stop-opacity:1;"
         offset="0"
         id="stop11897" /></linearGradient><linearGradient
       id="linearGradient11873"
       inkscape:swatch="solid"><stop
         style="stop-color:#000000;stop-opacity:1;"
         offset="0"
         id="stop11871" /></linearGradient><linearGradient
       id="linearGradient11867"
       inkscape:swatch="solid"><stop
         style="stop-color:#000000;stop-opacity:1;"
         offset="0"
         id="stop11865" /></linearGradient><linearGradient
       id="linearGradient11861"
       inkscape:swatch="solid"><stop
         style="stop-color:#000000;stop-opacity:1;"
         offset="0"
         id="stop11859" /></linearGradient><linearGradient
       id="ink"
       inkscape:swatch="solid"><stop
         style="stop-opacity:1;"
         offset="0"
         id="stop53636" /></linearGradient><linearGradient
       inkscape:collect="always"
       xlink:href="#ink"
       id="linearGradient11863"
       x1="34.509708"
       y1="54.153694"
       x2="52.860432"
       y2="54.153694"
       gradientUnits="userSpaceOnUse" /><linearGradient
       inkscape:collect="always"
       xlink:href="#ink"
       id="linearGradient11869"
       x1="63.162247"
       y1="33.30637"
       x2="66.942093"
       y2="33.30637"
       gradientUnits="userSpaceOnUse" /><linearGradient
       inkscape:collect="always"
       xlink:href="#ink"
       id="linearGradient11875"
       x1="44.856339"
       y1="-51.991451"
       x2="47.25695"
       y2="-51.991451"
       gradientUnits="userSpaceOnUse" /><linearGradient
       inkscape:collect="always"
       xlink:href="#ink"
       id="linearGradient11877"
       x1="49.045731"
       y1="32.882149"
       x2="61.841148"
       y2="32.882149"
       gradientUnits="userSpaceOnUse" /><linearGradient
       inkscape:collect="always"
       xlink:href="#ink"
       id="linearGradient11879"
       x1="60.11731"
       y1="33.137699"
       x2="62.724159"
       y2="33.137699"
       gradientUnits="userSpaceOnUse" /><linearGradient
       inkscape:collect="always"
       xlink:href="#ink"
       id="linearGradient11881"
       x1="36.849529"
       y1="-45.870655"
       x2="39.250141"
       y2="-45.870655"
       gradientUnits="userSpaceOnUse" /><linearGradient
       inkscape:collect="always"
       xlink:href="#ink"
       id="linearGradient11883"
       x1="48.59137"
       y1="33.235947"
       x2="51.198219"
       y2="33.235947"
       gradientUnits="userSpaceOnUse" /><linearGradient
       inkscape:collect="always"
       xlink:href="#ink"
       id="linearGradient11901"
       x1="166.68938"
       y1="114.58705"
       x2="175.94511"
       y2="114.58705"
       gradientUnits="userSpaceOnUse" /><linearGradient
       inkscape:collect="always"
       xlink:href="#ink"
       id="linearGradient11907"
       x1="14.942207"
       y1="12.268265"
       x2="33.292934"
       y2="12.268265"
       gradientUnits="userSpaceOnUse" /><linearGradient
       inkscape:collect="always"
       xlink:href="#ink"
       id="linearGradient11913"
       x1="34.430847"
       y1="12.393915"
       x2="52.781574"
       y2="12.393915"
       gradientUnits="userSpaceOnUse" /><linearGradient
       inkscape:collect="always"
       xlink:href="#ink"
       id="linearGradient11919"
       x1="14.971048"
       y1="53.978443"
       x2="33.321774"
       y2="53.978443"
       gradientUnits="userSpaceOnUse" /></defs><g
     inkscape:label="Layer 1"
     inkscape:groupmode="layer"
     id="layer1"><path
       id="path22597"
       class="ink"
       style="fill-opacity:1.0;stroke:none;stroke-width:0.524572px;stroke-linecap:butt;stroke-linejoin:miter;stroke-opacity:1;fill:url(#linearGradient11913)"
       d="m 49.221224,16.906553 c 0,0 0.521394,-3.215199 0.499089,-4.644679 -0.02498,-1.605122 -0.718586,-4.3545806 -0.718586,-4.3545806 l 3.631275,2.7613946 c 0,0 0.180023,1.274676 0.143741,1.884594 -0.04005,0.672609 -0.372815,1.962967 -0.372815,1.962967 z m -7.975116,5.835242 a 1.2002672,3.9099319 86.20443 0 1 -3.990846,-0.934978 1.2002672,3.9099319 86.20443 0 1 3.811422,-1.458923 1.2002672,3.9099319 86.20443 0 1 3.990846,0.934977 1.2002672,3.9099319 86.20443 0 1 -3.811422,1.458924 z M 40.758349,4.7236652 A 1.2002671,3.909932 74.693672 0 1 36.661193,4.6038743 1.2002671,3.909932 74.693672 0 1 40.104826,2.413718 1.2002671,3.909932 74.693672 0 1 44.201981,2.5335091 1.2002671,3.909932 74.693672 0 1 40.758349,4.7236652 Z M 37.037697,12.3365 A 1.3034248,4.1916652 0 0 1 35.734272,16.528165 1.3034248,4.1916652 0 0 1 34.430847,12.3365 1.3034248,4.1916652 0 0 1 35.734272,8.144835 1.3034248,4.1916652 0 0 1 37.037697,12.3365 Z m 11.525944,-0.09824 a 1.3034248,4.1916652 0 0 1 -1.303425,4.191666 1.3034248,4.1916652 0 0 1 -1.303425,-4.191666 1.3034248,4.1916652 0 0 1 1.303425,-4.1916647 1.3034248,4.1916652 0 0 1 1.303425,4.1916647 z M 47.467266,4.0876081 47.68032,19.103591 c 0.01586,1.263632 -0.580575,2.299916 -1.328048,2.31425 l -10.484869,0.215037 c -0.579544,0.0099 -1.013939,-0.866293 -0.980373,-1.957892 L 35.291626,6.5697879 c 0.02994,-0.9871341 0.490504,-1.8759693 1.040824,-1.998853 l 9.842178,-2.2179937 c 0.695568,-0.1576195 1.276876,0.6103145 1.292638,1.7346669 z" /><path
       id="path22844"
       class="ink"
       style="display:inline;fill:#fbfbf7;fill-opacity:1;fill-rule:nonzero;stroke:none;stroke-width:0.247829;stroke-linecap:butt;stroke-linejoin:miter;stroke-dasharray:none;stroke-opacity:1;paint-order:stroke fill markers"
       d="m 40.95889,4.3192592 a 5.5236555,7.9300743 0 0 0 -5.523384,7.9300648 5.5236555,7.9300743 0 0 0 5.523384,7.930044 5.5236555,7.9300743 0 0 0 5.524394,-7.930044 5.5236555,7.9300743 0 0 0 -5.524394,-7.9300648 z m 1.617771,4.726265 a 2.3500654,3.4268125 0 0 1 2.349303,3.4271438 2.3500654,3.4268125 0 0 1 -2.349303,3.427143 2.3500654,3.4268125 0 0 1 -2.350335,-3.427143 2.3500654,3.4268125 0 0 1 2.350335,-3.4271438 z" /><path
       class="ink"
       id="path23793"
       style="fill-opacity:1.0;stroke:none;stroke-width:0.524572px;stroke-linecap:butt;stroke-linejoin:miter;stroke-opacity:1;fill:url(#linearGradient11907)"
       d="m 29.732584,16.780903 c 0,0 0.521394,-3.215199 0.499089,-4.644679 -0.02498,-1.605122 -0.718586,-4.3545806 -0.718586,-4.3545806 l 3.631275,2.7613946 c 0,0 0.180023,1.274676 0.143741,1.884594 -0.04005,0.672609 -0.372815,1.962967 -0.372815,1.962967 z m -7.975116,5.835242 a 1.2002672,3.9099319 86.20443 0 1 -3.990845,-0.934976 1.2002672,3.9099319 86.20443 0 1 3.811421,-1.458923 1.2002672,3.9099319 86.20443 0 1 3.990846,0.934976 1.2002672,3.9099319 86.20443 0 1 -3.811422,1.458923 z m 7.317533,-10.50354 a 1.3034248,4.1916652 0 0 1 -1.303425,4.191665 1.3034248,4.1916652 0 0 1 -1.303425,-4.191665 1.3034248,4.1916652 0 0 1 1.303425,-4.1916651 1.3034248,4.1916652 0 0 1 1.303425,4.1916651 z M 27.978626,3.9619581 28.19168,18.977941 c 0.01586,1.263632 -0.580575,2.299916 -1.328048,2.31425 l -10.484869,0.215037 c -0.579544,0.0099 -1.013939,-0.866293 -0.980373,-1.957892 L 15.802986,6.4441379 c 0.02994,-0.9871341 0.490504,-1.8759693 1.040824,-1.998853 l 9.842178,-2.2179937 c 0.695568,-0.1576195 1.276876,0.6103145 1.292638,1.7346669 z m -6.708917,0.6360562 a 1.2002671,3.909932 74.693672 0 1 -4.097155,-0.1197905 1.2002671,3.909932 74.693672 0 1 3.443633,-2.1901564 1.2002671,3.909932 74.693672 0 1 4.097155,0.1197909 1.2002671,3.909932 74.693672 0 1 -3.443633,2.190156 z m -3.720652,7.6128367 a 1.3034248,4.1916652 0 0 1 -1.303425,4.191665 1.3034248,4.1916652 0 0 1 -1.303425,-4.191665 1.3034248,4.1916652 0 0 1 1.303425,-4.1916655 1.3034248,4.1916652 0 0 1 1.303425,4.1916655 z" /><path
       id="path23795"
       style="display:inline;fill:#fbfbf7;fill-opacity:1;fill-rule:nonzero;stroke:none;stroke-width:0.247829;stroke-linecap:butt;stroke-linejoin:miter;stroke-dasharray:none;stroke-opacity:1;paint-order:stroke fill markers"
       d="m 21.47025,4.1936092 a 5.5236555,7.9300743 0 0 0 -5.523384,7.9300648 5.5236555,7.9300743 0 0 0 5.523384,7.930044 5.5236555,7.9300743 0 0 0 5.524394,-7.930044 5.5236555,7.9300743 0 0 0 -5.524394,-7.9300648 z m 1.617771,4.726265 a 2.3500654,3.4268125 0 0 1 2.349303,3.4271438 2.3500654,3.4268125 0 0 1 -2.349303,3.427143 2.3500654,3.4268125 0 0 1 -2.350335,-3.427143 2.3500654,3.4268125 0 0 1 2.350335,-3.4271438 z" /><g
       id="g23825"
       transform="matrix(1.9826351,0,0,1.9826351,-329.18539,-194.14447)"><path
         id="path23821"
         class="ink"
         style="fill-opacity:1.0;stroke:none;stroke-width:0.264583px;stroke-linecap:butt;stroke-linejoin:miter;stroke-opacity:1;fill:url(#linearGradient11901)"
         d="m 174.14934,116.86313 c 0,0 0.26298,-1.62168 0.25173,-2.34268 -0.0126,-0.80959 -0.36244,-2.19636 -0.36244,-2.19636 l 1.83154,1.39279 c 0,0 0.0908,0.64292 0.0725,0.95055 -0.0202,0.33925 -0.18804,0.99008 -0.18804,0.99008 z m -4.02249,2.94317 a 0.60538987,1.9720886 86.20443 0 1 -2.01289,-0.47158 0.60538987,1.9720886 86.20443 0 1 1.9224,-0.73585 0.60538987,1.9720886 86.20443 0 1 2.01289,0.47158 0.60538987,1.9720886 86.20443 0 1 -1.9224,0.73585 z m -0.24601,-9.08797 a 0.60538987,1.9720886 74.693672 0 1 -2.06652,-0.0604 0.60538987,1.9720886 74.693672 0 1 1.7369,-1.10467 0.60538987,1.9720886 74.693672 0 1 2.06652,0.0604 0.60538987,1.9720886 74.693672 0 1 -1.7369,1.10467 z m -1.87662,3.83976 a 0.65742046,2.1141889 0 0 1 -0.65742,2.11419 0.65742046,2.1141889 0 0 1 -0.65742,-2.11419 0.65742046,2.1141889 0 0 1 0.65742,-2.11419 0.65742046,2.1141889 0 0 1 0.65742,2.11419 z m 5.81345,-0.0496 a 0.65742046,2.1141889 0 0 1 -0.65742,2.11419 0.65742046,2.1141889 0 0 1 -0.65742,-2.11419 0.65742046,2.1141889 0 0 1 0.65742,-2.11419 0.65742046,2.1141889 0 0 1 0.65742,2.11419 z m -0.55299,-4.11102 0.10746,7.57375 c 0.008,0.63735 -0.29283,1.16003 -0.66984,1.16726 l -5.28835,0.10846 c -0.29231,0.005 -0.51141,-0.43694 -0.49448,-0.98752 l 0.20407,-6.60999 c 0.0151,-0.49789 0.2474,-0.9462 0.52497,-1.00818 l 4.96419,-1.11871 c 0.35083,-0.0795 0.64403,0.30783 0.65198,0.87493 z" /><path
         id="path23823"
         style="display:inline;fill:#fbfbf7;fill-opacity:1;fill-rule:nonzero;stroke:none;stroke-width:0.125;stroke-linecap:butt;stroke-linejoin:miter;stroke-dasharray:none;stroke-opacity:1;paint-order:stroke fill markers"
         d="m 169.98199,110.51436 a 2.7860172,3.9997649 0 0 0 -2.78588,3.99976 2.7860172,3.9997649 0 0 0 2.78588,3.99975 2.7860172,3.9997649 0 0 0 2.78639,-3.99975 2.7860172,3.9997649 0 0 0 -2.78639,-3.99976 z m 0.81597,2.38383 a 1.1853242,1.7284131 0 0 1 1.18494,1.72858 1.1853242,1.7284131 0 0 1 -1.18494,1.72858 1.1853242,1.7284131 0 0 1 -1.18546,-1.72858 1.1853242,1.7284131 0 0 1 1.18546,-1.72858 z" /></g><path
       class="ink"
       id="path23849"
       style="fill-opacity:1.0;stroke:none;stroke-width:0.524572px;stroke-linecap:butt;stroke-linejoin:miter;stroke-opacity:1;fill:url(#linearGradient11919)"
       d="m 29.761424,58.491083 c 0,0 0.521394,-3.215199 0.499089,-4.644679 -0.02498,-1.605122 -0.718586,-4.354581 -0.718586,-4.354581 l 3.631275,2.761395 c 0,0 0.180023,1.274676 0.143741,1.884594 -0.04005,0.672609 -0.372815,1.962967 -0.372815,1.962967 z M 17.577898,53.921032 a 1.3034248,4.1916652 0 0 1 -1.303425,4.191665 1.3034248,4.1916652 0 0 1 -1.303425,-4.191665 1.3034248,4.1916652 0 0 1 1.303425,-4.191665 1.3034248,4.1916652 0 0 1 1.303425,4.191665 z m 11.525942,-0.09825 a 1.3034248,4.1916652 0 0 1 -1.303425,4.191666 1.3034248,4.1916652 0 0 1 -1.303425,-4.191666 1.3034248,4.1916652 0 0 1 1.303425,-4.191665 1.3034248,4.1916652 0 0 1 1.303425,4.191665 z m -1.096374,-8.150646 0.213054,15.015983 c 0.01586,1.263632 -0.580575,2.299916 -1.328048,2.31425 l -10.484869,0.215037 c -0.579544,0.0099 -1.013939,-0.866293 -0.980373,-1.957892 l 0.404596,-13.105198 c 0.02994,-0.987134 0.490504,-1.875969 1.040824,-1.998853 l 9.842178,-2.217994 c 0.695568,-0.157619 1.276876,0.610315 1.292638,1.734667 z m -6.708918,0.636057 a 1.2002671,3.909932 74.693672 0 1 -4.097154,-0.119791 1.2002671,3.909932 74.693672 0 1 3.443632,-2.190156 1.2002671,3.909932 74.693672 0 1 4.097156,0.11979 1.2002671,3.909932 74.693672 0 1 -3.443634,2.190157 z m 0.487759,18.01813 a 1.2002672,3.9099319 86.20443 0 1 -3.990844,-0.934976 1.2002672,3.9099319 86.20443 0 1 3.81142,-1.458923 1.2002672,3.9099319 86.20443 0 1 3.990846,0.934977 1.2002672,3.9099319 86.20443 0 1 -3.811422,1.458922 z" /><path
       id="path23851"
       style="display:inline;fill:#fbfbf7;fill-opacity:1;fill-rule:nonzero;stroke:none;stroke-width:0.247829;stroke-linecap:butt;stroke-linejoin:miter;stroke-dasharray:none;stroke-opacity:1;paint-order:stroke fill markers"
       d="m 21.49909,45.903789 a 5.5236555,7.9300743 0 0 0 -5.523384,7.930065 5.5236555,7.9300743 0 0 0 5.523384,7.930044 5.5236555,7.9300743 0 0 0 5.524394,-7.930044 5.5236555,7.9300743 0 0 0 -5.524394,-7.930065 z m 1.617771,4.726265 a 2.3500654,3.4268125 0 0 1 2.349303,3.427144 2.3500654,3.4268125 0 0 1 -2.349303,3.427143 2.3500654,3.4268125 0 0 1 -2.350335,-3.427143 2.3500654,3.4268125 0 0 1 2.350335,-3.427144 z" /><path
       class="ink"
       id="path23877"
       style="fill-opacity:1.0;stroke:none;stroke-width:0.524572px;stroke-linecap:butt;stroke-linejoin:miter;stroke-opacity:1;fill:url(#linearGradient11863)"
       d="m 49.300084,58.666333 c 0,0 0.521394,-3.215199 0.499089,-4.644679 -0.02498,-1.605122 -0.718586,-4.354581 -0.718586,-4.354581 l 3.631275,2.761395 c 0,0 0.180023,1.274676 0.143741,1.884594 -0.04005,0.672609 -0.372815,1.962967 -0.372815,1.962967 z m -7.975116,5.835238 a 1.2002672,3.9099319 86.20443 0 1 -3.990846,-0.934976 1.2002672,3.9099319 86.20443 0 1 3.811422,-1.458923 1.2002672,3.9099319 86.20443 0 1 3.990846,0.934976 1.2002672,3.9099319 86.20443 0 1 -3.811422,1.458923 z M 40.837209,46.483443 a 1.2002671,3.909932 74.693672 0 1 -4.097155,-0.119791 1.2002671,3.909932 74.693672 0 1 3.443633,-2.190156 1.2002671,3.909932 74.693672 0 1 4.097154,0.119791 1.2002671,3.909932 74.693672 0 1 -3.443632,2.190156 z m -3.720651,7.612836 a 1.3034248,4.1916652 0 0 1 -1.303425,4.191665 1.3034248,4.1916652 0 0 1 -1.303425,-4.191665 1.3034248,4.1916652 0 0 1 1.303425,-4.191665 1.3034248,4.1916652 0 0 1 1.303425,4.191665 z m 11.525944,-0.09824 a 1.3034248,4.1916652 0 0 1 -1.303425,4.191666 1.3034248,4.1916652 0 0 1 -1.303425,-4.191666 1.3034248,4.1916652 0 0 1 1.303425,-4.191665 1.3034248,4.1916652 0 0 1 1.303425,4.191665 z m -1.096376,-8.150647 0.213054,15.015983 c 0.01586,1.263632 -0.580575,2.299916 -1.328048,2.31425 l -10.484869,0.215037 c -0.579544,0.0099 -1.013939,-0.866293 -0.980373,-1.957892 l 0.404596,-13.105198 c 0.02994,-0.987134 0.490504,-1.875969 1.040824,-1.998853 l 9.842178,-2.217994 c 0.695568,-0.157619 1.276876,0.610315 1.292638,1.734667 z" /><path
       id="path23879"
       style="display:inline;fill:#fbfbf7;fill-opacity:1;fill-rule:nonzero;stroke:none;stroke-width:0.247829;stroke-linecap:butt;stroke-linejoin:miter;stroke-dasharray:none;stroke-opacity:1;paint-order:stroke fill markers"
       d="m 41.03775,46.079039 a 5.5236555,7.9300743 0 0 0 -5.523384,7.930065 5.5236555,7.9300743 0 0 0 5.523384,7.930044 5.5236555,7.9300743 0 0 0 5.524394,-7.930044 5.5236555,7.9300743 0 0 0 -5.524394,-7.930065 z m 1.617771,4.726265 a 2.3500654,3.4268125 0 0 1 2.349303,3.427144 2.3500654,3.4268125 0 0 1 -2.349303,3.427143 2.3500654,3.4268125 0 0 1 -2.350335,-3.427143 2.3500654,3.4268125 0 0 1 2.350335,-3.427144 z" /><path
       id="path23895"
       class="ink"
       style="fill-opacity:1.0;stroke-width:0.26938;paint-order:stroke fill markers;fill:url(#linearGradient11877)"
       d="m 61.627787,24.987056 0.213054,15.015982 c 0.01586,1.263632 -0.580576,2.299916 -1.328049,2.314251 l -10.484868,0.215037 c -0.579544,0.0099 -1.013939,-0.866294 -0.980373,-1.957893 l 0.404596,-13.105198 c 0.02993,-0.987133 0.490504,-1.875969 1.040823,-1.998854 l 9.842178,-2.217992 c 0.695569,-0.15762 1.276878,0.610315 1.292639,1.734667 z" /><ellipse
       style="fill-opacity:1.0;fill-rule:nonzero;stroke:none;stroke-width:0.247829;stroke-linecap:butt;stroke-linejoin:miter;stroke-dasharray:none;stroke-opacity:1;paint-order:stroke fill markers;fill:url(#linearGradient11879)"
       class="ink"
       id="ellipse23897"
       cx="61.420734"
       cy="33.137699"
       rx="1.303425"
       ry="4.1916652" /><ellipse
       class="ink"
       style="fill-opacity:1.0;fill-rule:nonzero;stroke:none;stroke-width:0.247829;stroke-linecap:butt;stroke-linejoin:miter;stroke-dasharray:none;stroke-opacity:1;paint-order:stroke fill markers;fill:url(#linearGradient11883)"
       id="ellipse23899"
       cx="49.894794"
       cy="33.235947"
       rx="1.303425"
       ry="4.1916652" /><ellipse
       class="ink"
       style="fill-opacity:1.0;fill-rule:nonzero;stroke:none;stroke-width:0.229693;stroke-linecap:butt;stroke-linejoin:miter;stroke-dasharray:none;stroke-opacity:1;paint-order:stroke fill markers;fill:url(#linearGradient11881)"
       id="ellipse23901"
       cx="38.049835"
       cy="-45.870655"
       rx="1.2003071"
       ry="3.90992"
       transform="matrix(0.27223129,0.96223185,-0.96431488,0.26475804,0,0)" /><ellipse
       class="ink"
       style="fill-opacity:1.0;fill-rule:nonzero;stroke:none;stroke-width:0.229693;stroke-linecap:butt;stroke-linejoin:miter;stroke-dasharray:none;stroke-opacity:1;paint-order:stroke fill markers;fill:url(#linearGradient11875)"
       id="ellipse23903"
       cx="46.056644"
       cy="-51.991451"
       rx="1.2003071"
       ry="3.90992"
       transform="matrix(0.07474077,0.997203,-0.99775283,0.06700215,0,0)" /><path
       class="ink"
       style="fill-opacity:1.0;stroke:none;stroke-width:0.524572px;stroke-linecap:butt;stroke-linejoin:miter;stroke-opacity:1;fill:url(#linearGradient11869)"
       d="m 63.381746,37.806001 c 0,0 0.521392,-3.215199 0.499088,-4.64468 -0.02499,-1.605122 -0.718586,-4.354579 -0.718586,-4.354579 l 3.631275,2.761393 c 0,0 0.180024,1.274676 0.143741,1.884594 -0.04004,0.672608 -0.372814,1.962967 -0.372814,1.962967 z"
       id="path23905"
       sodipodi:nodetypes="csccscc" /><path
       id="path23907"
       style="display:inline;fill:#fbfbf7;fill-opacity:1;fill-rule:nonzero;stroke:none;stroke-width:0.247829;stroke-linecap:butt;stroke-linejoin:miter;stroke-dasharray:none;stroke-opacity:1;paint-order:stroke fill markers"
       d="m 55.119411,25.218707 a 5.5236555,7.9300743 0 0 0 -5.523383,7.930064 5.5236555,7.9300743 0 0 0 5.523383,7.930045 5.5236555,7.9300743 0 0 0 5.524394,-7.930045 5.5236555,7.9300743 0 0 0 -5.524394,-7.930064 z m 1.61777,4.726265 a 2.3500654,3.4268125 0 0 1 2.349304,3.427143 2.3500654,3.4268125 0 0 1 -2.349304,3.427144 2.3500654,3.4268125 0 0 1 -2.350334,-3.427144 2.3500654,3.4268125 0 0 1 2.350334,-3.427143 z" /></g></svg>
