<?xml version="1.0" encoding="UTF-8" standalone="no"?>
<!-- Created with Inkscape (http://www.inkscape.org/) -->

<svg
   width="67"
   height="67"
   viewBox="0 0 17.727082 17.727082"
   version="1.1"
   id="svg22598"
   inkscape:version="1.2.1 (9c6d41e410, 2022-07-14, custom)"
   sodipodi:docname="s3_autobomb.svg"
   xml:space="preserve"
   xmlns:inkscape="http://www.inkscape.org/namespaces/inkscape"
   xmlns:sodipodi="http://sodipodi.sourceforge.net/DTD/sodipodi-0.dtd"
   xmlns="http://www.w3.org/2000/svg"
   xmlns:svg="http://www.w3.org/2000/svg"><sodipodi:namedview
     id="namedview22600"
     pagecolor="#505050"
     bordercolor="#eeeeee"
     borderopacity="1"
     inkscape:showpageshadow="0"
     inkscape:pageopacity="0"
     inkscape:pagecheckerboard="0"
     inkscape:deskcolor="#505050"
     inkscape:document-units="mm"
     showgrid="false"
     inkscape:zoom="9.2887459"
     inkscape:cx="54.743666"
     inkscape:cy="28.582976"
     inkscape:window-width="1916"
     inkscape:window-height="1036"
     inkscape:window-x="0"
     inkscape:window-y="20"
     inkscape:window-maximized="1"
     inkscape:current-layer="layer1" /><defs
     id="defs22595"><linearGradient
       id="linearGradient53638"
       inkscape:swatch="solid"><stop
         style="stop-color:#3a0dcd;stop-opacity:1;"
         offset="0"
         id="stop53636" /></linearGradient></defs><g
     inkscape:label="Layer 1"
     inkscape:groupmode="layer"
     id="layer1"><circle
       style="fill-opacity:1;fill-rule:nonzero;stroke:none;stroke-width:0.465;stroke-dasharray:1.31792, 1.31792;stroke-dashoffset:0;stroke-opacity:0;paint-order:stroke fill markers"
       id="path23915"
       cx="8.7049742"
       cy="10.226866"
       class="ink"
       r="1.7498524" /><rect
       style="fill-opacity:1;fill-rule:nonzero;stroke:none;stroke-width:0.465;stroke-dasharray:1.31792, 1.31792;stroke-dashoffset:0;stroke-opacity:0;paint-order:stroke fill markers"
       id="rect23917"
       width="1.8485632"
       height="4.4198785"
       x="4.7786422"
       y="12.342617"
       ry="0.9242816"
       class="ink"
       transform="rotate(-16.76846)" /><path
       style="fill-opacity:1;stroke:none;stroke-width:0.264583px;stroke-linecap:butt;stroke-linejoin:miter;stroke-opacity:1"
       d="m 9.0311259,13.356372 h -1.806427 l -0.260514,-0.26051 h -0.603443 l -0.37659,0.37659 v 0.71068 l 0.241557,0.13947 v 0.28706 h -2.40602 v 0.45538 l 0.630039,0.36375 h 7.1422711 l 0.581231,-0.33557 v -0.4301 H 7.1859529 v -0.53053 h 2.011476 0.257681 l -0.215786,-0.80532 z"
       id="path23919"
       class="ink" /><path
       id="path24684"
       class="ink"
       style="fill-opacity:1;stroke:none;stroke-width:0.264583px;stroke-linecap:butt;stroke-linejoin:miter;stroke-opacity:1"
       d="m 15.107181,5.4515122 -1.916679,1.1746 0.02429,3.4971998 1.661953,1.09375 1.682546,-0.008 V 5.4517922 Z m -0.636654,0.67334 h 0.515731 l 0.46147,0.12351 v 1.75545 l -0.321944,0.18603 H 14.29431 l -0.402559,-0.40256 v -1.16427 z m -0.24443,2.38745 h 0.831474 l 0.322461,0.18604 v 1.7554498 l -0.461987,0.12402 h -0.515731 l -0.578776,-0.49868 V 8.9148622 Z"
       sodipodi:nodetypes="ccccccccccccccccccccccccc" /><path
       style="fill-opacity:1;stroke:none;stroke-width:0.264583px;stroke-linecap:butt;stroke-linejoin:miter;stroke-opacity:1"
       d="m 2.4327029,1.5712522 v 1.67096 l 6.032892,0.26648 v -0.31559 l -4.077055,-1.71797 z"
       id="path25297"
       class="ink" /><path
       id="path27766"
       style="fill:#ffffff;fill-opacity:1;stroke:none;stroke-width:0.264583px;stroke-linecap:butt;stroke-linejoin:miter;stroke-opacity:1"
       d="m 1.7580769,7.5159822 1.42575,3.3382998 c 0,0 0.29141,0.4677 0.5035,0.62737 0.21717,0.16348 0.78428,0.34208 0.78428,0.34208 l 2.31717,-0.0222 0.0667,-0.0103 c -0.40498,-0.46647 -0.62826,-1.06329 -0.6289,-1.68103 5.9e-4,-0.8688098 0.4404,-1.6784298 1.16892,-2.1518098 z m 8.7570901,0.6873 c 0.53981,0.48695 0.84796,1.17987 0.84801,1.9068598 -6.4e-4,0.34895 -0.0724,0.69411 -0.21084,1.01441 l 0.27285,-0.0424 c 0,0 0.67902,-0.50944 0.83613,-0.88315 0.23957,-0.5698398 0.0703,-1.8531098 0.0703,-1.8531098 z"
       sodipodi:nodetypes="ccsccccccccccscc" /><path
       id="path27771"
       style="fill:#ffffff;fill-opacity:1;stroke:none;stroke-width:0.264583px;stroke-linecap:butt;stroke-linejoin:miter;stroke-opacity:1"
       d="m 1.8852469,4.2066222 c 0,0 -0.18089,0.0481 -0.2274,0.10593 -0.0625,0.0777 -0.0997,0.30077 -0.0997,0.30077 l -0.195337,2.12286 10.8722071,0.78859 0.0868,-1.70016 c 0,0 -0.0671,-0.66949 -0.26228,-0.90939 -0.17203,-0.21141 -0.83946,-0.44453 -0.83946,-0.44453 z m 0.8878,1.08004 c 0.28165,10e-5 0.50995,0.2284 0.51005,0.51005 1.8e-4,0.28185 -0.2282,0.51046 -0.51005,0.51056 -0.28205,1.8e-4 -0.51074,-0.22851 -0.51056,-0.51056 1e-4,-0.28185 0.22871,-0.51023 0.51056,-0.51005 z"
       sodipodi:nodetypes="csccccsccccccc" /></g></svg>
