<?xml version="1.0" encoding="UTF-8" standalone="no"?>
<!-- Created with Inkscape (http://www.inkscape.org/) -->

<svg
   width="64"
   height="64"
   viewBox="0 0 16.933333 16.933333"
   version="1.1"
   id="svg20438"
   inkscape:version="1.2.1 (9c6d41e410, 2022-07-14, custom)"
   sodipodi:docname="fizzybomb.svg"
   xmlns:inkscape="http://www.inkscape.org/namespaces/inkscape"
   xmlns:sodipodi="http://sodipodi.sourceforge.net/DTD/sodipodi-0.dtd"
   xmlns="http://www.w3.org/2000/svg"
   xmlns:svg="http://www.w3.org/2000/svg">
  <sodipodi:namedview
     id="namedview20440"
     pagecolor="#505050"
     bordercolor="#eeeeee"
     borderopacity="1"
     inkscape:showpageshadow="0"
     inkscape:pageopacity="0"
     inkscape:pagecheckerboard="0"
     inkscape:deskcolor="#505050"
     inkscape:document-units="mm"
     showgrid="false"
     inkscape:zoom="7.5628173"
     inkscape:cx="75.038174"
     inkscape:cy="29.552479"
     inkscape:window-width="1916"
     inkscape:window-height="1036"
     inkscape:window-x="0"
     inkscape:window-y="20"
     inkscape:window-maximized="1"
     inkscape:current-layer="layer1" />
  <defs
     id="defs20435">
    <linearGradient
       id="linearGradient53638"
       inkscape:swatch="solid">
      <stop
         style="stop-color:#3a0dcd;stop-opacity:1;"
         offset="0"
         id="stop53636" />
    </linearGradient>
  </defs>
  <g
     inkscape:label="Layer 1"
     inkscape:groupmode="layer"
     id="layer1">
    <path
       class="ink"
       style="fill-opacity:1;stroke:none;stroke-width:0.264583px;stroke-linecap:butt;stroke-linejoin:miter;stroke-opacity:1"
       d="m 7.5456845,3.9704181 c 0,0 -0.942269,0.80356 -1.299549,1.30188 -0.5800744,0.80906 -1.3246794,2.67671 -1.3246794,2.67671 l 6.4738489,2.5072499 c 0,0 0.715137,-1.5883199 0.86801,-2.4369799 0.142789,-0.79268 0.03449,-2.41606 0.03449,-2.41606 z"
       id="path1233"
       sodipodi:nodetypes="csccscc" />
    <path
       class="ink"
       style="fill-opacity:1;stroke:none;stroke-width:0.264583px;stroke-linecap:butt;stroke-linejoin:miter;stroke-opacity:1"
       d="m 4.6108861,9.1781081 6.2779919,2.2828199 c 0,0 -0.249746,0.71025 -0.471322,1.06288 -0.127413,0.20276 -0.5531445,0.61482 -0.5531445,0.61482 l -5.4139414,-1.79594 c 0,0 -0.0631,-0.58074 -0.04787,-0.87117 0.02287,-0.43609 0.208286,-1.2934099 0.208286,-1.2934099 z"
       id="path1235"
       sodipodi:nodetypes="ccsccsc" />
    <path
       id="path1969"
       style="fill:#ffffff;fill-opacity:1;stroke-width:0.264999;paint-order:stroke fill markers"
       d="m 14.5444,8.3027481 c 3e-6,-0.75564 -0.612559,-1.3682 -1.368194,-1.3682 -0.755635,0 -1.368197,0.61256 -1.368194,1.3682 2e-6,0.75563 0.612563,1.36819 1.368194,1.36819 0.755631,0 1.368192,-0.61256 1.368194,-1.36819 z M 8.4132845,0.41286811 c 0,0 -0.970963,0.58988999 -1.069993,0.86875999 -0.210167,0.59183 0.194522,1.60131 0.194522,1.60131 l 4.9924615,1.87689 0.109037,-0.64492 -4.2715745,-1.45004 0.373663,-1.37233 3.5935375,1.41522 0.957048,0.97783 c 0,0 0.397331,0.41387 0.472262,0.70887 0.07993,0.3147 -0.100107,0.88058 -0.100107,0.88058 l -0.46724,1.64228 -1.006141,1.59422 -0.692464,0.40721 -7.4403739,-2.79001 -2.303066,6.2480599 c 0,0 0.932133,1.32728 1.694835,2.03412 0.579808,0.53734 1.215621,1.03761 1.927014,1.38234 0.7722324,0.37421 1.7333004,0.7671 2.4739704,0.71192 0.444214,-0.0331 1.354094,-0.37251 1.512867,-0.83904 0.184421,-0.54189 0.0739,-1.71566 0.0739,-1.71566 l -5.1505904,-1.96732 0.138493,0.77773 4.1351484,1.57355 c 0,0 0.245996,0.62612 0.149862,0.92242 -0.06011,0.18526 -0.22392,0.37145 -0.414445,0.41186 -1.237688,0.26249 -2.4877384,-0.65978 -3.5465544,-1.35237 -0.773391,-0.50589 -1.943034,-1.97766 -1.943034,-1.97766 l 1.588534,-4.2974099 7.4496749,2.6349799 0.457854,-1.3818199 0.874882,-0.71107 0.885217,-1.32757 0.389583,-1.44731 c 0,0 0.432832,-1.38979 0.406234,-1.52253 -0.0236,-0.11776 -0.519384,-0.71778 -0.519384,-0.71778 l -1.293425,-1.63092 z M 6.7585005,7.3612181 c 0.04385,-0.002 0.08882,0.004 0.132808,0.0202 0.175946,0.064 0.266532,0.2571 0.202572,0.43305 l -0.199988,0.54932 c -0.06396,0.17596 -0.257102,0.26601 -0.433048,0.20206 -0.175956,-0.064 -0.266016,-0.2571 -0.202055,-0.43305 l 0.199471,-0.54932 c 0.04797,-0.13197 0.168693,-0.21559 0.30024,-0.22221 z m 1.195792,0.4284 c 0.04385,-0.002 0.08882,0.004 0.132809,0.0202 0.175946,0.064 0.266528,0.2571 0.202572,0.43305 l -0.199988,0.54932 c -0.06396,0.17596 -0.257103,0.26601 -0.433049,0.20205 -0.175946,-0.064 -0.266015,-0.25709 -0.202055,-0.43304 l 0.199471,-0.54932 c 0.04797,-0.13196 0.168694,-0.21559 0.30024,-0.22221 z m 1.168405,0.4408 c 0.04385,-0.002 0.08934,0.004 0.133325,0.0202 0.175946,0.064 0.266012,0.2571 0.202055,0.43305 l -0.199471,0.54932 c -0.06396,0.17595 -0.257103,0.26601 -0.433049,0.20205 -0.175955,-0.064 -0.266528,-0.2571 -0.202571,-0.43304 l 0.199987,-0.54932 c 0.04797,-0.13196 0.168173,-0.21559 0.299724,-0.22221 z m 1.2686565,0.45372 c 0.04385,-0.002 0.08882,0.004 0.132808,0.0202 0.175956,0.064 0.266016,0.25709 0.202055,0.43305 l -0.199471,0.5488 c -0.06396,0.17596 -0.257093,0.26653 -0.433048,0.20257 -0.1759465,-0.064 -0.2660155,-0.25709 -0.2020555,-0.43304 l 0.1994715,-0.54932 c 0.04797,-0.13197 0.168694,-0.21559 0.30024,-0.22221 z"
       sodipodi:nodetypes="ssssscscccccccsccccccssssccccssscccccccscccscccsccssscccsccssscccsccssscsssccss" />
  </g>
</svg>
