<?xml version="1.0" encoding="UTF-8" standalone="no"?>
<!-- Created with Inkscape (http://www.inkscape.org/) -->

<svg
   width="256"
   height="256"
   viewBox="0 0 67.733332 67.733333"
   version="1.1"
   id="svg16915"
   inkscape:version="1.2.1 (9c6d41e410, 2022-07-14, custom)"
   sodipodi:docname="inkmine.svg"
   xml:space="preserve"
   xmlns:inkscape="http://www.inkscape.org/namespaces/inkscape"
   xmlns:sodipodi="http://sodipodi.sourceforge.net/DTD/sodipodi-0.dtd"
   xmlns="http://www.w3.org/2000/svg"
   xmlns:svg="http://www.w3.org/2000/svg"><sodipodi:namedview
     id="namedview16917"
     pagecolor="#505050"
     bordercolor="#eeeeee"
     borderopacity="1"
     inkscape:showpageshadow="0"
     inkscape:pageopacity="0"
     inkscape:pagecheckerboard="0"
     inkscape:deskcolor="#505050"
     inkscape:document-units="mm"
     showgrid="false"
     inkscape:zoom="3.5849344"
     inkscape:cx="186.47482"
     inkscape:cy="130.1279"
     inkscape:window-width="1916"
     inkscape:window-height="1036"
     inkscape:window-x="0"
     inkscape:window-y="20"
     inkscape:window-maximized="1"
     inkscape:current-layer="layer1" /><defs
     id="defs16912"><linearGradient
       id="linearGradient53638"
       inkscape:swatch="solid"><stop
         style="stop-color:#3a0dcd;stop-opacity:1;"
         offset="0"
         id="stop53636" /></linearGradient></defs><g
     inkscape:label="Layer 1"
     inkscape:groupmode="layer"
     id="layer1"><path
       id="ellipse16134"
       class="ink"
       style="stroke-opacity:0;paint-order:stroke fill markers"
       d="m 11.498168,30.521219 a 1.3393269,4.6893783 0 0 1 -1.339327,4.689379 1.3393269,4.6893783 0 0 1 -1.3393267,-4.689379 1.3393269,4.6893783 0 0 1 1.3393267,-4.689378 1.3393269,4.6893783 0 0 1 1.339327,4.689378 z m 47.31211,-0.0081 a 1.3393269,4.6893783 0 0 1 -1.339327,4.689378 1.3393269,4.6893783 0 0 1 -1.339327,-4.689378 1.3393269,4.6893783 0 0 1 1.339327,-4.689379 1.3393269,4.6893783 0 0 1 1.339327,4.689379 z M 61.20892,18.615871 a 0.88262594,4.3444104 0 0 1 -0.882626,4.344411 0.88262594,4.3444104 0 0 1 -0.882626,-4.344411 0.88262594,4.3444104 0 0 1 0.882626,-4.34441 0.88262594,4.3444104 0 0 1 0.882626,4.34441 z m -53.3321515,0.09086 a 0.88262594,4.3444104 0 0 1 -0.882626,4.34441 0.88262594,4.3444104 0 0 1 -0.8826259,-4.34441 0.88262594,4.3444104 0 0 1 0.8826259,-4.34441 0.88262594,4.3444104 0 0 1 0.882626,4.34441 z m 8.9623485,-0.173132 a 1.980565,4.7477036 0 0 1 -1.980565,4.747704 1.980565,4.7477036 0 0 1 -1.980565,-4.747704 1.980565,4.7477036 0 0 1 1.980565,-4.747703 1.980565,4.7477036 0 0 1 1.980565,4.747703 z m 38.2,0.196995 a 1.980565,4.7477036 0 0 1 -1.980565,4.747703 1.980565,4.7477036 0 0 1 -1.980565,-4.747703 1.980565,4.7477036 0 0 1 1.980565,-4.747704 1.980565,4.7477036 0 0 1 1.980565,4.747704 z m -3.613103,11.91616 a 3.5588911,4.8668199 0 0 1 -3.558891,4.86682 3.5588911,4.8668199 0 0 1 -3.558891,-4.86682 3.5588911,4.8668199 0 0 1 3.558891,-4.866819 3.5588911,4.8668199 0 0 1 3.558891,4.866819 z M 23.364116,30.449507 a 3.5588911,4.8668199 0 0 1 -3.558891,4.86682 3.5588911,4.8668199 0 0 1 -3.558891,-4.86682 3.5588911,4.8668199 0 0 1 3.558891,-4.86682 3.5588911,4.8668199 0 0 1 3.558891,4.86682 z M 44.782223,18.553852 a 3.6012161,4.8495717 0 0 1 -3.601216,4.849572 3.6012161,4.8495717 0 0 1 -3.601216,-4.849572 3.6012161,4.8495717 0 0 1 3.601216,-4.849572 3.6012161,4.8495717 0 0 1 3.601216,4.849572 z m -14.506315,0.109125 a 3.6012161,4.8495717 0 0 1 -3.601216,4.849572 3.6012161,4.8495717 0 0 1 -3.601216,-4.849572 3.6012161,4.8495717 0 0 1 3.601216,-4.849571 3.6012161,4.8495717 0 0 1 3.601216,4.849571 z m 8.555469,12.035601 a 4.9187789,4.9187789 0 0 1 -4.918779,4.918779 4.9187789,4.9187789 0 0 1 -4.918779,-4.918779 4.9187789,4.9187789 0 0 1 4.918779,-4.918779 4.9187789,4.9187789 0 0 1 4.918779,4.918779 z m -16.085526,16.488057 -4.33539,-4.627338 -6.157092,0.595136 1.187551,8.158482 -5.3509732,-0.167793 -4.7561918,-3.345473 -2.88269436,0.886492 1.04489366,4.229278 5.854429,1.913531 3.7327487,3.105065 H 56.16424 l 2.862514,-2.865634 6.420563,-1.889259 0.711361,-4.047189 -3.556273,-1.007328 -5.142515,3.426437 -2.816636,-1.1684 -0.07938,-6.101309 -3.614169,-2.265449 -3.421408,0.966439 -2.38654,4.537902 -2.776969,0.411744 -3.186077,-1.459228 -2.622286,-4.85288 -2.811118,-0.689865 -2.425853,0.588456 -2.831229,5.209359 z" /></g></svg>
