<?xml version="1.0" encoding="UTF-8" standalone="no"?>
<!-- Created with Inkscape (http://www.inkscape.org/) -->

<svg
   width="64"
   height="64"
   viewBox="0 0 16.933333 16.933333"
   version="1.1"
   id="svg19867"
   inkscape:version="1.2.1 (9c6d41e410, 2022-07-14, custom)"
   sodipodi:docname="splatbomb.svg"
   xml:space="preserve"
   xmlns:inkscape="http://www.inkscape.org/namespaces/inkscape"
   xmlns:sodipodi="http://sodipodi.sourceforge.net/DTD/sodipodi-0.dtd"
   xmlns="http://www.w3.org/2000/svg"
   xmlns:svg="http://www.w3.org/2000/svg"><sodipodi:namedview
     id="namedview19869"
     pagecolor="#505050"
     bordercolor="#eeeeee"
     borderopacity="1"
     inkscape:showpageshadow="0"
     inkscape:pageopacity="0"
     inkscape:pagecheckerboard="0"
     inkscape:deskcolor="#505050"
     inkscape:document-units="mm"
     showgrid="false"
     inkscape:zoom="6.0937946"
     inkscape:cx="63.425177"
     inkscape:cy="60.471352"
     inkscape:window-width="1916"
     inkscape:window-height="1036"
     inkscape:window-x="0"
     inkscape:window-y="20"
     inkscape:window-maximized="1"
     inkscape:current-layer="layer1" /><defs
     id="defs19864"><linearGradient
       id="linearGradient53638"
       inkscape:swatch="solid"><stop
         style="stop-color:#3a0dcd;stop-opacity:1;"
         offset="0"
         id="stop53636" /></linearGradient></defs><g
     inkscape:label="Layer 1"
     inkscape:groupmode="layer"
     id="layer1"><path
       class="ink"
       style="fill-opacity:1;stroke:none;stroke-width:0.264583px;stroke-linecap:butt;stroke-linejoin:miter;stroke-opacity:1"
       d="M 8.4770149,6.0456437 4.5476539,12.851494 H 12.602041 Z"
       id="path4708" /><g
       id="g6051"
       transform="translate(-99.072423,-231.41323)"><path
         id="path4785"
         style="fill:#ffffff;fill-opacity:1;stroke:none;stroke-width:0.264583px;stroke-linecap:butt;stroke-linejoin:miter;stroke-opacity:1"
         d="m 106.04831,234.37174 0.43976,1.42317 -4.72064,7.92458 -1.788003,1.08262 2.268593,1.43867 0.21653,-0.20205 10.15597,0.10232 0.22841,0.16175 2.45359,-1.46503 -0.87798,-0.65009 -0.8785,-0.31781 -4.63486,-7.92665 0.25322,-1.51308 z m 1.603,1.62471 c 0.008,-2.2e-4 0.0152,-4e-5 0.0227,5.1e-4 0.23278,0.0171 0.54312,0.44235 0.54312,0.44235 l 4.50153,7.69411 c 0,0 0.28494,0.56642 0.16382,0.81597 -0.10677,0.21998 -0.65423,0.33176 -0.65423,0.33176 l -8.97413,-0.0357 c 0,0 -0.85241,0.0272 -1.03353,-0.28061 -0.14422,-0.24509 0.20413,-0.82837 0.20413,-0.82837 l 4.6271,-7.76904 c 0,0 0.35813,-0.36435 0.59945,-0.37103 z" /><path
         style="fill:#35bfc1;fill-opacity:1;stroke:none;stroke-width:0.264583px;stroke-linecap:butt;stroke-linejoin:miter;stroke-opacity:1"
         d="m 100.02451,244.7888 -0.33844,0.005 c 0,0 -0.244907,0.60945 -0.142368,0.89284 0.226538,0.6261 1.503898,1.31459 1.503898,1.31459 0,0 0.58361,0.10493 0.8514,0.0109 0.16663,-0.0585 0.40923,-0.33649 0.40923,-0.33649 l 0.0551,-0.5203 z"
         id="path5558"
         sodipodi:nodetypes="ccscsccc" /><path
         style="fill:#35bfc1;fill-opacity:1;stroke:none;stroke-width:0.264583px;stroke-linecap:butt;stroke-linejoin:miter;stroke-opacity:1"
         d="m 112.75907,246.25736 0.11701,0.20958 c 0,0 0.42974,0.49673 0.72863,0.53529 0.66035,0.0852 1.8572,-0.73531 1.8572,-0.73531 0,0 0.36044,-0.47084 0.39943,-0.75197 0.0243,-0.17493 -0.11184,-0.51787 -0.11184,-0.51787 l -0.43736,-0.28716 z"
         id="path6043"
         sodipodi:nodetypes="ccscsccc" /><path
         style="fill:#35bfc1;fill-opacity:1;stroke:none;stroke-width:0.264583px;stroke-linecap:butt;stroke-linejoin:miter;stroke-opacity:1"
         d="m 109.11546,234.42804 0.006,-0.23994 c 0,0 -0.1157,-0.64656 -0.35295,-0.83239 -0.52417,-0.41056 -1.97223,-0.31655 -1.97223,-0.31655 0,0 -0.55037,0.22065 -0.7275,0.44241 -0.11024,0.13798 -0.16839,0.50234 -0.16839,0.50234 l 0.15783,0.48224 z"
         id="path6045"
         sodipodi:nodetypes="ccscsccc" /></g></g></svg>
