<?xml version="1.0" encoding="UTF-8" standalone="no"?>
<!-- Created with Inkscape (http://www.inkscape.org/) -->

<svg
   width="64"
   height="64"
   viewBox="0 0 16.933333 16.933333"
   version="1.1"
   id="svg23394"
   inkscape:version="1.2.1 (9c6d41e410, 2022-07-14, custom)"
   sodipodi:docname="sprinkler.svg"
   xml:space="preserve"
   xmlns:inkscape="http://www.inkscape.org/namespaces/inkscape"
   xmlns:sodipodi="http://sodipodi.sourceforge.net/DTD/sodipodi-0.dtd"
   xmlns:xlink="http://www.w3.org/1999/xlink"
   xmlns="http://www.w3.org/2000/svg"
   xmlns:svg="http://www.w3.org/2000/svg"><sodipodi:namedview
     id="namedview23396"
     pagecolor="#505050"
     bordercolor="#eeeeee"
     borderopacity="1"
     inkscape:showpageshadow="0"
     inkscape:pageopacity="0"
     inkscape:pagecheckerboard="0"
     inkscape:deskcolor="#505050"
     inkscape:document-units="mm"
     showgrid="false"
     inkscape:zoom="19.066817"
     inkscape:cx="29.449069"
     inkscape:cy="33.749735"
     inkscape:window-width="1916"
     inkscape:window-height="1036"
     inkscape:window-x="0"
     inkscape:window-y="20"
     inkscape:window-maximized="1"
     inkscape:current-layer="layer1" /><defs
     id="defs23391"><linearGradient
       id="linearGradient53638"
       inkscape:swatch="solid"><stop
         style="stop-color:#3a0dcd;stop-opacity:1;"
         offset="0"
         id="stop53636" /></linearGradient><linearGradient
       inkscape:collect="always"
       xlink:href="#linearGradient10125"
       id="linearGradient39738"
       x1="81.618324"
       y1="255.57794"
       x2="85.572601"
       y2="255.57794"
       gradientUnits="userSpaceOnUse"
       gradientTransform="translate(-81.13543,-249.56446)" /><linearGradient
       id="linearGradient10125"
       inkscape:swatch="solid"><stop
         style="stop-color:#ffffff;stop-opacity:1;"
         offset="0"
         id="stop10123" /></linearGradient><linearGradient
       inkscape:collect="always"
       xlink:href="#linearGradient10125"
       id="linearGradient39744"
       gradientUnits="userSpaceOnUse"
       x1="81.618324"
       y1="255.57794"
       x2="85.572601"
       y2="255.57794"
       gradientTransform="matrix(-1,0,0,1,98.040043,-249.56446)" /></defs><g
     inkscape:label="Layer 1"
     inkscape:groupmode="layer"
     id="layer1"><path
       class="ink"
       style="fill-opacity:1;stroke:none;stroke-width:0.264583px;stroke-linecap:butt;stroke-linejoin:miter;stroke-opacity:1"
       d="m 7.377989,11.315677 v 0.59372 l -3.1077,1.79423 h 8.23432 l -3.044624,-1.75781 v -0.67605 z"
       id="path39691" /><rect
       class="ink"
       style="fill-opacity:1;fill-rule:nonzero;stroke:none;stroke-width:0.465;stroke-dasharray:1.31792, 1.31792;stroke-dashoffset:0;stroke-opacity:0;paint-order:stroke fill markers"
       id="rect39693"
       width="1.3605026"
       height="2.4193366"
       x="8.0997105"
       y="1.8651751"
       transform="rotate(35.408848)" /><rect
       class="ink"
       style="fill-opacity:1;fill-rule:nonzero;stroke:none;stroke-width:0.465;stroke-dasharray:1.31792, 1.31792;stroke-dashoffset:0;stroke-opacity:0;paint-order:stroke fill markers"
       id="rect39695"
       width="1.3605026"
       height="2.4193366"
       x="-5.526175"
       y="11.636451"
       transform="matrix(-0.81503833,0.57940704,0.57940704,0.81503833,0,0)" /><path
       id="path39729"
       style="fill:url(#linearGradient39738);fill-opacity:1;stroke:none;stroke-width:0.264583px;stroke-linecap:butt;stroke-linejoin:miter;stroke-opacity:1"
       d="M 1.6564625,4.26604 0.61518249,6.06903 V 6.93668 L 2.5044725,7.76092 h 1.046448 L 4.3048795,6.45609 V 5.77964 l -1.514119,-1.5136 z m 0.959115,0.75293 0.402559,0.27802 -0.861446,1.49241 h -0.563273 z" /><path
       id="path39740"
       style="fill:url(#linearGradient39744);fill-opacity:1;stroke:none;stroke-width:0.264583px;stroke-linecap:butt;stroke-linejoin:miter;stroke-opacity:1"
       d="m 15.248151,4.26604 1.04128,1.80299 v 0.86765 l -1.88929,0.82424 H 13.353693 L 12.599734,6.45609 V 5.77964 l 1.514119,-1.5136 z m -0.959115,0.75293 -0.402559,0.27802 0.861446,1.49241 h 0.563273 z" /><rect
       style="fill:#ffffff;fill-opacity:1;fill-rule:nonzero;stroke:none;stroke-width:0.465;stroke-dasharray:1.31792, 1.31792;stroke-dashoffset:0;stroke-opacity:0;paint-order:stroke fill markers"
       id="rect39806"
       width="8.5448122"
       height="0.69567966"
       x="3.9587133"
       y="13.802463"
       ry="0.28425279" /><path
       style="fill:#ffffff;fill-opacity:1;stroke:none;stroke-width:0.264583px;stroke-linecap:butt;stroke-linejoin:miter;stroke-opacity:1"
       d="m 6.735495,9.77938 -0.187018,0.69797 h 3.568462 L 9.977204,9.95585 V 9.4911 L 11.321837,8.7366188 10.775627,7.991 10.353578,7.3745914 9.481174,7.91478 9.174911,7.60852 V 6.95531 L 9.718672,6.01348 H 7.071352 L 7.506705,6.76754 V 7.49876 L 7.270104,7.90856 6.505673,7.1760263 5.903997,8.00287 5.4340308,8.6834804 6.729793,9.445 Z"
       id="path39808"
       sodipodi:nodetypes="ccccccccccccccccccccc" /><path
       style="fill:#35bcbc;fill-opacity:1;stroke:none;stroke-width:0.264583px;stroke-linecap:butt;stroke-linejoin:miter;stroke-opacity:1"
       d="m 7.589535,4.64492 c 0,0 -0.287381,-0.008 -0.341673,0.0467 -0.09516,0.0951 -0.08435,0.35704 -0.08435,0.35704 V 6.01348 H 9.594917 V 5.13856 c 0,0 -0.02579,-0.28802 -0.104411,-0.39049 C 9.418176,4.65377 9.25062,4.65877 9.25062,4.65877 H 8.598165 V 4.07744 H 8.107698 v 0.59999 z"
       id="path41673"
       sodipodi:nodetypes="csccccscccccc" /></g></svg>
