<?xml version="1.0" encoding="UTF-8" standalone="no"?>
<!-- Created with Inkscape (http://www.inkscape.org/) -->

<svg
   width="256"
   height="256"
   viewBox="0 0 67.733332 67.733333"
   version="1.1"
   id="svg1717"
   inkscape:version="1.2.1 (9c6d41e410, 2022-07-14, custom)"
   sodipodi:docname="lilbuddy.svg"
   inkscape:export-filename="lilbuddy.png"
   inkscape:export-xdpi="96"
   inkscape:export-ydpi="96"
   xml:space="preserve"
   xmlns:inkscape="http://www.inkscape.org/namespaces/inkscape"
   xmlns:sodipodi="http://sodipodi.sourceforge.net/DTD/sodipodi-0.dtd"
   xmlns="http://www.w3.org/2000/svg"
   xmlns:svg="http://www.w3.org/2000/svg"><sodipodi:namedview
     id="namedview1719"
     pagecolor="#505050"
     bordercolor="#eeeeee"
     borderopacity="1"
     inkscape:showpageshadow="0"
     inkscape:pageopacity="0"
     inkscape:pagecheckerboard="0"
     inkscape:deskcolor="#505050"
     inkscape:document-units="mm"
     showgrid="false"
     inkscape:zoom="3.5914086"
     inkscape:cx="98.707788"
     inkscape:cy="128.22267"
     inkscape:window-width="1916"
     inkscape:window-height="1036"
     inkscape:window-x="0"
     inkscape:window-y="20"
     inkscape:window-maximized="1"
     inkscape:current-layer="layer1" /><defs
     id="defs1714"><linearGradient
       id="linearGradient3628"
       inkscape:swatch="solid"><stop
         style="stop-color:#3a0dcd;stop-opacity:1;"
         offset="0"
         id="stop3626" /></linearGradient><linearGradient
       id="linearGradient53638"
       inkscape:swatch="solid"><stop
         style="stop-color:#aff5f0;stop-opacity:1;"
         offset="0"
         id="stop53636" /></linearGradient></defs><g
     inkscape:label="Layer 1"
     inkscape:groupmode="layer"
     id="layer1"><path
       class="ink"
       style="fill-opacity:1;stroke:none;stroke-width:1.11408px;stroke-linecap:butt;stroke-linejoin:miter;stroke-opacity:1"
       d="m 19.311256,52.17206 c 0,0 5.577853,-0.575855 8.340374,-1.043327 3.307457,-0.559685 6.682841,-0.974019 9.84065,-2.105727 2.905319,-1.041223 5.685946,-2.497703 8.223397,-4.254489 1.880047,-1.301654 5.094936,-4.59362 5.094936,-4.59362 0,0 2.598397,2.420561 3.14399,4.036418 0.818526,2.424141 -0.08043,7.675429 -0.08043,7.675429 0,0 -2.321884,2.592231 -3.739285,3.573956 -2.306646,1.597664 -4.957028,2.666761 -7.58436,3.651769 -1.987862,0.745253 -4.040754,1.377067 -6.14047,1.69047 -2.463819,0.367594 -5.296401,0.852288 -7.771079,0.566634 -1.686848,-0.194534 -4.257959,-0.65628 -5.514015,-1.657247 -0.753546,-0.60053 -2.685297,-3.130444 -3.427983,-5.013889 -0.312519,-0.792496 -0.385743,-2.526377 -0.385743,-2.526377 z"
       id="path48717"
       sodipodi:nodetypes="cssscscsssssscc" /><circle
        class="ink"
       style="fill-opacity:1;fill-rule:nonzero;stroke:none;stroke-width:2.80012;stroke-dasharray:none;stroke-dashoffset:0;stroke-opacity:1;paint-order:stroke fill markers"
       id="path48719"
       cx="23.867958"
       cy="18.877619"
       r="5.5347543" /><path
       class="ink"
       style="fill-opacity:1;stroke:none;stroke-width:1.11408px;stroke-linecap:butt;stroke-linejoin:miter;stroke-opacity:1"
       d="m 38.378447,13.614682 c 0,0 1.625216,1.721165 2.126626,2.772408 0.837807,1.756535 1.363757,5.676821 1.363757,5.676821 0,0 1.822748,-1.741376 2.914881,-2.49286 1.287295,-0.885762 2.730549,-1.710974 4.194045,-2.258618 1.810692,-0.677585 5.579481,-1.583938 5.579481,-1.583938 l -1.334613,-2.053306 c 0,0 -1.002695,0.518591 -1.508141,0.39707 -0.353237,-0.08506 -0.686181,-0.3857 -0.812745,-0.726262 -0.360984,-0.971324 0.40271,-3.082525 0.40271,-3.082525 0,0 -1.912831,-2.1942366 -3.028973,-3.1184436 -1.121251,-0.928416 -2.311623,-1.821505 -3.645219,-2.4052342 -0.827225,-0.3621207 -3.100947,-0.8679941 -3.100947,-0.8679941 0,0 -0.691477,3.8120302 -1.318113,5.6519792 -0.481245,1.4130247 -1.832749,4.0909027 -1.832749,4.0909027 z"
       id="path48721"
       sodipodi:nodetypes="cscssccsscsscsc" /><path
       id="path49439"
       style="fill:#ffffff;fill-opacity:1;stroke:none;stroke-width:1.11408px;stroke-linecap:butt;stroke-linejoin:miter;stroke-opacity:1"
       d="m 10.172992,21.337671 c -3.4175202,0.09306 -5.5784421,3.334746 -7.2983355,5.871902 -2.27792877,3.297019 1.4995813,4.358326 3.9806257,4.782722 4.8999048,1.222281 9.6480738,3.273607 13.6802378,6.333227 -0.695439,3.534713 -6.388151,2.105475 -9.233193,2.123497 0.180723,-1.779273 1.203169,-4.158738 0.901763,-5.09604 -0.997902,-0.684027 -4.3998175,-0.355804 -5.5454222,0.05306 -0.5439085,1.457491 0.5090861,3.330284 0.5308638,5.285016 0.00884,0.804875 0.5879819,0.641795 -0.4486541,1.206491 -2.3000054,1.252852 4.9220575,3.892243 7.7214095,3.912581 2.758504,0.0379 3.20504,4.011027 6.283153,3.568062 5.425721,0.195376 10.804665,-0.742894 16.106713,-1.79401 -0.556322,4.20455 2.934461,9.222439 7.519418,8.416511 3.447404,-0.994987 2.399046,-5.917546 0.02526,-7.596183 -1.430235,-1.201691 -5.10169,-3.637917 -1.171513,-3.795145 2.627842,-0.89591 6.773473,-2.345106 6.510898,-5.733497 C 48.661506,33.054991 44.60873,28.491815 40.725246,24.276064 39.274723,33.0312 29.135282,38.64764 20.853975,35.769375 14.702958,33.864203 9.880033,27.915413 10.172925,21.337923 Z"
       sodipodi:nodetypes="cccccccsssscsscccccc" /><path
       id="path49436"
       style="fill:#ffffff;fill-opacity:1;fill-rule:nonzero;stroke:none;stroke-width:2.80012;stroke-dasharray:none;stroke-dashoffset:0;stroke-opacity:1;paint-order:stroke fill markers"
       d="M 25.567759,8.5301158 A 13.090385,13.090385 0 0 0 12.477313,21.620545 13.090385,13.090385 0 0 0 25.567759,34.711016 13.090385,13.090385 0 0 0 38.658205,21.620545 13.090385,13.090385 0 0 0 25.567759,8.5301158 Z m -1.677647,6.1992432 a 4.3756506,4.3756506 0 0 1 4.375812,4.375799 4.3756506,4.3756506 0 0 1 -4.375812,4.3758 4.3756506,4.3756506 0 0 1 -4.375817,-4.3758 4.3756506,4.3756506 0 0 1 4.375817,-4.375799 z" /><path
       style="fill:#ffffff;fill-opacity:1;stroke:none;stroke-width:1.11408px;stroke-linecap:butt;stroke-linejoin:miter;stroke-opacity:1"
       d="m 56.6937,42.938615 0.844674,9.022306 3.066572,1.265483 c 0,0 1.524769,0.03368 1.76064,-0.531938 0.424565,-1.01861 -1.295965,-1.851191 -1.550948,-2.924877 -0.357783,-1.506546 -0.396142,-3.176972 0.09861,-4.644232 0.353193,-1.047411 1.951536,-2.681035 1.951536,-2.681035 0,0 -0.871336,-1.246367 -1.547503,-1.460776 -1.098512,-0.348225 -2.418263,-0.07495 -3.422291,0.490631 -0.550073,0.309907 -1.201295,1.464438 -1.201295,1.464438 z"
       id="path49791"
       sodipodi:nodetypes="cccssscssc" /></g></svg>
