<?xml version="1.0" encoding="UTF-8" standalone="no"?>
<!-- Created with Inkscape (http://www.inkscape.org/) -->

<svg
   width="64"
   height="64"
   viewBox="0 0 16.933333 16.933333"
   version="1.1"
   id="svg23671"
   inkscape:version="1.2.1 (9c6d41e410, 2022-07-14, custom)"
   sodipodi:docname="suction.svg"
   xml:space="preserve"
   xmlns:inkscape="http://www.inkscape.org/namespaces/inkscape"
   xmlns:sodipodi="http://sodipodi.sourceforge.net/DTD/sodipodi-0.dtd"
   xmlns="http://www.w3.org/2000/svg"
   xmlns:svg="http://www.w3.org/2000/svg"><sodipodi:namedview
     id="namedview23673"
     pagecolor="#505050"
     bordercolor="#eeeeee"
     borderopacity="1"
     inkscape:showpageshadow="0"
     inkscape:pageopacity="0"
     inkscape:pagecheckerboard="0"
     inkscape:deskcolor="#505050"
     inkscape:document-units="mm"
     showgrid="false"
     inkscape:zoom="28.926034"
     inkscape:cx="27.155469"
     inkscape:cy="50.629133"
     inkscape:window-width="1916"
     inkscape:window-height="1036"
     inkscape:window-x="0"
     inkscape:window-y="20"
     inkscape:window-maximized="1"
     inkscape:current-layer="layer1" /><defs
     id="defs23668"><linearGradient
       id="linearGradient53638"
       inkscape:swatch="solid"><stop
         style="stop-color:#3a0dcd;stop-opacity:1;"
         offset="0"
         id="stop53636" /></linearGradient></defs><g
     inkscape:label="Layer 1"
     inkscape:groupmode="layer"
     id="layer1"><rect
       class="ink"
       style="fill-opacity:1;stroke:none;stroke-width:0.264999;stroke-dasharray:none;paint-order:stroke fill markers"
       id="rect6523"
       width="5.8067427"
       height="6.1844358"
       x="5.6779947"
       y="2.129848" /><path
       class="ink"
       id="path6591"
       style="fill-opacity:1;stroke:none;stroke-width:0.264999;stroke-dasharray:none;paint-order:stroke fill markers"
       d="m 8.591254,13.258966 c -1.549441,5.9e-4 -2.617349,0.87132 -2.763115,2.01073 h 5.594088 c -0.145803,-1.1397 -1.281135,-2.01053 -2.830973,-2.01073 z"
       sodipodi:nodetypes="cccc" /><rect
       class="ink"
       style="fill-opacity:1;stroke:none;stroke-width:0.264999;stroke-dasharray:none;paint-order:stroke fill markers"
       id="rect7067"
       width="5.486711"
       height="0.94268799"
       x="5.7981501"
       y="15.247173" /><path
       id="path7556"
       style="fill:#ffffff;fill-opacity:1;stroke:none;stroke-width:0.1;stroke-dasharray:none;stroke-opacity:1;paint-order:stroke fill markers"
       d="m 8.573684,13.215556 c -1.583817,-10e-6 -2.823632,0.64854 -2.823832,1.52134 -3.1e-4,0.87299 -0.04156,1.14349 0.108641,1.59181 0.405443,0.0216 5.139587,-0.0346 5.577878,-0.0397 0.03083,-0.51865 0.0056,-0.91142 0.0054,-1.49316 -2e-4,-0.87279 -1.284237,-1.58027 -2.868042,-1.58027 z m 0.589112,0.5302 c 0.198166,1.3e-4 0.358724,0.1586 0.358634,0.35398 -2e-4,0.19517 -0.160678,0.35334 -0.358634,0.35347 -0.198157,1.5e-4 -0.358952,-0.1581 -0.359152,-0.35347 -9e-5,-0.19558 0.160785,-0.35413 0.359152,-0.35398 z m -0.846977,0.0274 c 0.198167,1.3e-4 0.358724,0.1586 0.358634,0.35398 9e-5,0.19538 -0.160467,0.35386 -0.358634,0.35399 -0.198367,1.5e-4 -0.359241,-0.15841 -0.359151,-0.35399 -9e-5,-0.19558 0.160784,-0.35413 0.359151,-0.35398 z m 0.859896,0.87798 c 0.198166,1.3e-4 0.358724,0.15861 0.358634,0.35399 -2e-4,0.19517 -0.160678,0.35333 -0.358634,0.35346 -0.198167,1.5e-4 -0.358952,-0.15808 -0.359152,-0.35346 -9e-5,-0.19559 0.160775,-0.35414 0.359152,-0.35399 z m -1.705839,0.0114 c 0.198166,1.3e-4 0.358724,0.1586 0.358634,0.35398 9e-5,0.19538 -0.160468,0.35386 -0.358634,0.35399 -0.198367,1.5e-4 -0.359242,-0.15841 -0.359152,-0.35399 -9e-5,-0.19558 0.160785,-0.35413 0.359152,-0.35398 z m 2.59209,0.004 c 0.198166,1.3e-4 0.358724,0.1586 0.358634,0.35398 9e-5,0.19538 -0.160468,0.35385 -0.358634,0.35398 -0.198367,1.5e-4 -0.359242,-0.1584 -0.359152,-0.35398 -9e-5,-0.19558 0.160785,-0.35413 0.359152,-0.35398 z m -1.744597,10e-4 c 0.198167,1.3e-4 0.358725,0.1586 0.358635,0.35398 9e-5,0.19538 -0.160468,0.35386 -0.358635,0.35399 -0.198367,1.5e-4 -0.359241,-0.15841 -0.359151,-0.35399 -9e-5,-0.19558 0.160784,-0.35413 0.359151,-0.35398 z"
       sodipodi:nodetypes="sccccsscscsscscsscscsscscsscscsscscs" /><rect
       style="fill:#ffffff;fill-opacity:1;stroke:#ffffff;stroke-width:0.264999;stroke-dasharray:none;stroke-opacity:1;paint-order:stroke fill markers"
       id="rect7484"
       width="6.3170323"
       height="0.47312921"
       x="5.500802"
       y="0.7675283" /><path
       style="fill:#ffffff;fill-opacity:1;stroke:none;stroke-width:0.1;stroke-dasharray:none;stroke-opacity:1;paint-order:stroke fill markers"
       d="m 8.265436,10.673696 h 0.688211 v 2.09585 H 8.265436 Z"
       id="path7599" /><path
       style="fill:#ffffff;fill-opacity:1;stroke:none;stroke-width:0.1;stroke-dasharray:none;stroke-opacity:1;paint-order:stroke fill markers"
       d="m 7.837562,12.665156 h 1.565729 v 0.71851 H 7.837562 Z"
       id="path7597" /><path
       style="fill:#ffffff;fill-opacity:1;stroke:none;stroke-width:0.1;stroke-dasharray:none;stroke-opacity:1;paint-order:stroke fill markers"
       d="m 6.75276,9.8906159 h 3.764363 V 10.684966 H 6.75276 Z"
       id="path7595" /><path
       style="fill:#ffffff;fill-opacity:1;stroke:none;stroke-width:0.1;stroke-dasharray:none;stroke-opacity:1;paint-order:stroke fill markers"
       d="M 11.767675,9.9298159 H 5.488488 l -0.002,-0.38707 0.139137,-0.32014 h 5.970153 l 0.167287,0.30674 z"
       id="path7593" /></g></svg>
