<?xml version="1.0" encoding="UTF-8" standalone="no"?>
<!-- Created with Inkscape (http://www.inkscape.org/) -->

<svg
   width="256"
   height="256"
   viewBox="0 0 67.733332 67.733333"
   version="1.1"
   id="svg18688"
   inkscape:version="1.2.1 (9c6d41e410, 2022-07-14, custom)"
   sodipodi:docname="toxicmist.svg"
   xml:space="preserve"
   xmlns:inkscape="http://www.inkscape.org/namespaces/inkscape"
   xmlns:sodipodi="http://sodipodi.sourceforge.net/DTD/sodipodi-0.dtd"
   xmlns="http://www.w3.org/2000/svg"
   xmlns:svg="http://www.w3.org/2000/svg"><sodipodi:namedview
     id="namedview18690"
     pagecolor="#505050"
     bordercolor="#eeeeee"
     borderopacity="1"
     inkscape:showpageshadow="0"
     inkscape:pageopacity="0"
     inkscape:pagecheckerboard="0"
     inkscape:deskcolor="#505050"
     inkscape:document-units="mm"
     showgrid="false"
     inkscape:zoom="3.0426494"
     inkscape:cx="219.38117"
     inkscape:cy="149.70506"
     inkscape:window-width="1916"
     inkscape:window-height="1036"
     inkscape:window-x="0"
     inkscape:window-y="20"
     inkscape:window-maximized="1"
     inkscape:current-layer="layer1" /><defs
     id="defs18685"><linearGradient
       id="linearGradient53638"
       inkscape:swatch="solid"><stop
         style="stop-color:#3a0dcd;stop-opacity:1;"
         offset="0"
         id="stop53636" /></linearGradient></defs><g
     inkscape:label="Layer 1"
     inkscape:groupmode="layer"
     id="layer1"><path
       id="path35532"
       class="ink"
       style="fill-opacity:1;fill-rule:nonzero;stroke:none;stroke-width:1.79561;stroke-dasharray:5.08921, 5.08921;stroke-dashoffset:0;stroke-opacity:0;paint-order:stroke fill markers"
       d="M 26.715101,33.301883 A 14.645568,14.645568 0 0 0 16.440048,37.524889 L 41.353393,47.531893 A 14.645568,14.645568 0 0 0 26.715101,33.301883 Z M 12.20053,49.839298 a 14.645568,14.645568 0 0 0 14.514571,12.753615 14.645568,14.645568 0 0 0 9.182184,-3.237375 z" /><rect
       class="ink"
       style="fill-opacity:1;fill-rule:nonzero;stroke:none;stroke-width:1.85547;stroke-dasharray:5.25883, 5.25883;stroke-dashoffset:0;stroke-opacity:0;paint-order:stroke fill markers"
       id="rect35647"
       width="9.5878258"
       height="3.8379292"
       x="38.30558"
       y="-9.7397232"
       transform="rotate(24.058474)" /><path
       class="ink"
       style="fill-opacity:1;stroke:none;stroke-width:1.05575px;stroke-linecap:butt;stroke-linejoin:miter;stroke-opacity:1"
       d="M 39.659381,5.0392214 40.050786,2.8150128 41.04406,0.74606486 49.651265,4.3871342 49.200614,6.580817 47.822307,8.6244257 Z"
       id="path35649" /><g
       id="g38171"
       transform="matrix(3.9902555,0,0,3.9902555,-182.04564,-924.79382)"><rect
         style="fill:#ffffff;fill-opacity:1;fill-rule:nonzero;stroke:none;stroke-width:0.465;stroke-dasharray:1.31792, 1.31792;stroke-dashoffset:0;stroke-opacity:0;paint-order:stroke fill markers"
         id="rect37458"
         width="2.6850481"
         height="1.6225816"
         x="142.81975"
         y="197.45532"
         transform="rotate(23.267383)"
         ry="0.2971614" /><g
         id="g38161"><rect
           style="fill:#ffffff;fill-opacity:1;fill-rule:nonzero;stroke:none;stroke-width:0.465;stroke-dasharray:1.31792, 1.31792;stroke-dashoffset:0;stroke-opacity:0;paint-order:stroke fill markers"
           id="rect35663"
           width="11.03544"
           height="1.5838013"
           x="138.23308"
           y="202.4913"
           transform="rotate(23.267383)"
           ry="0.47386983" /><path
           id="path35667"
           style="fill:#ffffff;fill-opacity:1;fill-rule:nonzero;stroke:none;stroke-width:0.465;stroke-dasharray:1.31792, 1.31792;stroke-dashoffset:0;stroke-opacity:0;paint-order:stroke fill markers"
           d="m 52.239752,238.95544 a 4.6560874,4.6560874 0 0 0 -3.457153,1.54099 l 1.128613,0.44494 a 3.546175,3.546175 0 0 1 2.32854,-0.87592 3.546175,3.546175 0 0 1 3.525366,3.18327 l 1.12758,0.44442 a 4.6560874,4.6560874 0 0 0 0.0031,-0.0816 4.6560874,4.6560874 0 0 0 -4.656046,-4.65605 z m -4.653463,4.58577 a 4.6560874,4.6560874 0 0 0 -0.0026,0.0703 4.6560874,4.6560874 0 0 0 4.656047,4.65604 4.6560874,4.6560874 0 0 0 3.448885,-1.5322 l -1.129647,-0.44545 a 3.546175,3.546175 0 0 1 -2.319238,0.86764 3.546175,3.546175 0 0 1 -3.523816,-3.17086 z" /><rect
           style="fill:#ffffff;fill-opacity:1;fill-rule:nonzero;stroke:none;stroke-width:0.465;stroke-dasharray:1.31792, 1.31792;stroke-dashoffset:0;stroke-opacity:0;paint-order:stroke fill markers"
           id="rect35727"
           width="4.925262"
           height="1.7584686"
           x="141.33881"
           y="195.07899"
           transform="rotate(23.267383)"
           ry="0.2971614" /><path
           style="fill:#ffffff;fill-opacity:1;stroke:none;stroke-width:0.264583px;stroke-linecap:butt;stroke-linejoin:miter;stroke-opacity:1"
           d="m 56.90934,245.47407 0.955381,0.33826 0.31633,-0.0459 0.46336,-0.66133 1.952749,-4.40264 0.168606,-0.62925 -0.218234,-0.37799 -3.708844,-1.67758 -0.23567,-0.43543 0.642819,-0.0484 3.67544,1.51956 0.553591,0.32134 0.220136,0.45343 -0.538332,2.11026 -1.81642,3.61907 -0.17829,0.66766 -0.363693,0.38518 -0.884807,-0.0229 -1.551352,-0.67969 z"
           id="path35729" /><path
           style="fill:#37bdbe;fill-opacity:1;stroke:none;stroke-width:0.264583px;stroke-linecap:butt;stroke-linejoin:miter;stroke-opacity:1"
           d="m 60.673588,240.7218 -0.31967,-0.0593 -0.180469,0.29975 -0.680712,0.88359 -0.588116,0.98932 -0.02143,1.24654 -0.18361,1.05981 0.950196,0.33041 0.321262,-0.6029 0.653304,-0.57987 0.597225,-0.94197 0.197459,-1.21402 -0.0021,-0.65816 0.25949,-0.29558 z"
           id="path36559" /><path
           id="path37460"
           style="fill:#ffffff;fill-opacity:1;stroke:none;stroke-width:0.264583px;stroke-linecap:butt;stroke-linejoin:miter;stroke-opacity:1"
           d="m 55.587868,233.0297 -0.874365,0.0687 -0.268718,1.83917 2.38125,0.91674 1.106393,-0.94155 0.02584,-0.76274 z m 0.03359,0.50075 1.529622,0.67076 0.160197,0.52348 -0.523482,0.38861 -1.558045,-0.73949 -0.0041,-0.64441 z" /></g></g></g></svg>
