<?xml version="1.0" encoding="UTF-8" standalone="no"?>
<!-- Created with Inkscape (http://www.inkscape.org/) -->

<svg
   width="128"
   height="128"
   viewBox="0 0 33.866666 33.866666"
   version="1.1"
   id="svg11778"
   inkscape:version="1.2.1 (9c6d41e410, 2022-07-14, custom)"
   sodipodi:docname="s3_booyah_bomb.svg"
   xml:space="preserve"
   xmlns:inkscape="http://www.inkscape.org/namespaces/inkscape"
   xmlns:sodipodi="http://sodipodi.sourceforge.net/DTD/sodipodi-0.dtd"
   xmlns:xlink="http://www.w3.org/1999/xlink"
   xmlns="http://www.w3.org/2000/svg"
   xmlns:svg="http://www.w3.org/2000/svg"><sodipodi:namedview
     id="namedview11780"
     pagecolor="#505050"
     bordercolor="#eeeeee"
     borderopacity="1"
     inkscape:showpageshadow="0"
     inkscape:pageopacity="0"
     inkscape:pagecheckerboard="0"
     inkscape:deskcolor="#505050"
     inkscape:document-units="mm"
     showgrid="false"
     inkscape:zoom="5.8614311"
     inkscape:cx="26.017537"
     inkscape:cy="62.356786"
     inkscape:window-width="1916"
     inkscape:window-height="1036"
     inkscape:window-x="0"
     inkscape:window-y="20"
     inkscape:window-maximized="1"
     inkscape:current-layer="layer1" /><defs
     id="defs11775"><linearGradient
       id="linearGradient861"
       inkscape:swatch="solid"><stop
         style="stop-color:#000000;stop-opacity:1;"
         offset="0"
         id="stop859" /></linearGradient><linearGradient
       id="ink"
       inkscape:swatch="solid"><stop
         style="stop-opacity:1;"
         offset="0"
         id="stop53636" /></linearGradient><linearGradient
       inkscape:collect="always"
       xlink:href="#ink"
       id="linearGradient863"
       x1="4.2189951"
       y1="15.984729"
       x2="29.17902"
       y2="15.984729"
       gradientUnits="userSpaceOnUse" /></defs><g
     inkscape:label="Layer 1"
     inkscape:groupmode="layer"
     id="layer1"><path
       style="fill:#ffffff;fill-opacity:1;stroke:none;stroke-width:0.260317px;stroke-linecap:butt;stroke-linejoin:miter;stroke-opacity:1"
       d="m 21.898263,28.6039 -0.0097,-0.431826 0.228329,-0.631992 0.7586,1.26019 c 0,0 0.841726,-0.122436 1.274787,0.0263 0.273482,0.09389 0.48522,0.471716 0.571788,0.595058 0.150403,0.214303 0.199542,0.402233 0.0887,0.810898 -0.110839,0.408665 -0.59088,0.66734 -1.021456,0.666354 -0.440246,-9.81e-4 -0.867042,-0.283353 -1.115368,-0.709179 -0.09303,-0.159518 -0.161583,-0.629205 -0.161583,-0.629205 z"
       id="path24630"
       sodipodi:nodetypes="ccccssssscc" /><path
       style="fill-opacity:1.0;stroke:none;stroke-width:0.260317px;stroke-linecap:butt;stroke-linejoin:miter;stroke-opacity:1;fill:url(#linearGradient863)"
       d="m 19.218362,25.329749 c 0,0 -0.846301,0.897829 -1.070718,1.457786 -0.300728,0.750359 -0.146816,1.614258 -0.312275,2.405739 -0.08784,0.420192 -0.359696,1.236458 -0.359696,1.236458 l 1.320298,0.2662 2.23808,-0.02531 1.106915,-0.29146 c 0,0 -0.239562,-0.594556 -0.279997,-0.909109 -0.05582,-0.434211 -0.02083,-0.881297 0.0565,-1.312178 0.07646,-0.426034 0.365783,-0.803952 0.398704,-1.235562 0.03052,-0.400144 -0.191605,-1.1885 -0.191605,-1.1885 l -1.679688,-1.007152 0.203144,-1.557543 1.57292,0.413296 1.774496,1.198776 -0.21939,0.693771 c 0,0 -0.03515,0.933206 0.225109,1.278396 0.241796,0.320701 0.684883,0.474938 1.082651,0.525654 0.315122,0.04019 0.700775,0.02787 0.93436,-0.187958 0.291982,-0.269807 0.467866,-1.020393 0.32864,-1.148001 -0.139226,-0.127599 -0.375889,-0.232991 -0.436756,-0.42769 -0.148789,-0.475932 0.190894,-0.979015 0.281414,-1.469458 0.0883,-0.478396 0.293803,-0.951954 0.255272,-1.43694 -0.04273,-0.537751 -0.349085,-1.267018 -0.531056,-1.528283 -0.252931,-0.363141 -0.556146,-0.708766 -0.926664,-0.949973 -0.341261,-0.222155 -0.693136,-0.285796 -1.14444,-0.425679 -0.253948,-0.07872 -0.873781,-0.234972 -1.172507,-0.255137 -0.674922,-0.04561 -1.121855,-0.05122 -1.69462,0.309606 -0.517206,0.325833 -0.927826,1.368717 -1.264557,1.879682 -0.35229,0.534588 -0.800937,1.257304 -0.800937,1.257304 l -0.501423,0.08718 -0.502423,0.945283 0.335235,1.129224 z"
       id="path892" /><path
       style="fill-opacity:1.0;stroke:none;stroke-width:0.260317px;stroke-linecap:butt;stroke-linejoin:miter;stroke-opacity:1;fill:url(#linearGradient863)"
       d="m 21.339099,11.56979 c 10e-7,3.115135 -2.518727,5.640453 -5.625736,5.640453 -3.107007,0 -5.625735,-2.525318 -5.625734,-5.640453 -10e-7,-3.1151333 2.518727,-5.6404512 5.625734,-5.6404512 3.107009,0 5.625737,2.5253179 5.625736,5.6404512 z"
       id="path890" /><path
       style="fill-opacity:1.0;stroke:none;stroke-width:0.260317px;stroke-linecap:butt;stroke-linejoin:miter;stroke-opacity:1;fill:url(#linearGradient863)"
       d="m 16.34172,6.052474 0.188152,-3.0011218 0.273673,-1.1036092 0.978758,-0.674216 0.98524,0.1990424 0.559274,1.0267763 -0.269665,1.0470608 -1.46894,2.8908923 z"
       id="path888" /><path
       style="fill-opacity:1.0;stroke:none;stroke-width:0.260317px;stroke-linecap:butt;stroke-linejoin:miter;stroke-opacity:1;fill:url(#linearGradient863)"
       d="m 10.306296,12.815914 -4.7504051,0.617017 -1.2048305,0.422162 -0.1320654,1.027751 0.5916141,0.874609 1.1294354,0.233966 4.7328085,-2.048282 z"
       id="path886" /><path
       style="fill-opacity:1.0;stroke:none;stroke-width:0.260317px;stroke-linecap:butt;stroke-linejoin:miter;stroke-opacity:1;fill:url(#linearGradient863)"
       d="M 10.680462,6.6892739 10.518978,5.6597094 9.6818747,3.9309254 8.5487529,3.3404581 7.3443424,4.0015321 7.1107121,5.0254025 7.8662048,5.8431367 10.375122,6.9232205 Z"
       id="path884" /><path
       style="fill-opacity:1.0;stroke:none;stroke-width:0.260317px;stroke-linecap:butt;stroke-linejoin:miter;stroke-opacity:1;fill:url(#linearGradient863)"
       d="m 23.614945,8.9499764 0.928815,0.2850075 1.814844,0.047878 1.001934,-0.6284156 -0.0065,-1.1784914 -0.745895,-0.5834333 -1.020576,0.2509998 -2.029455,1.4814493 z"
       id="path882" /><path
       style="fill-opacity:1.0;stroke:none;stroke-width:0.260317px;stroke-linecap:butt;stroke-linejoin:miter;stroke-opacity:1;fill:url(#linearGradient863)"
       d="m 12.377122,18.604672 -2.8635781,2.860658 -0.652927,1.852038 0.132311,0.837525 1.0155941,0.172876 1.130271,-0.08334 0.642086,-1.626051 0.765913,-1.915433 z"
       id="path880" /><path
       style="fill-opacity:1.0;stroke:none;stroke-width:0.260317px;stroke-linecap:butt;stroke-linejoin:miter;stroke-opacity:1;fill:url(#linearGradient863)"
       d="m 22.777123,13.718264 2.0198,-0.0403 1.909169,0.268102 1.555405,0.383396 0.917522,0.761019 -0.02351,0.955559 -0.936776,0.756959 -1.391902,-0.126465 -2.857419,-1.55708 z"
       id="path24616" /><path
       style="fill:#ffffff;fill-opacity:1;stroke:none;stroke-width:0.260317px;stroke-linecap:butt;stroke-linejoin:miter;stroke-opacity:1"
       d="m 21.003029,21.619261 c 0,0 0.687576,0.71515 1.105872,0.971027 0.49846,0.304917 1.061389,0.508658 1.629113,0.645557 0.374487,0.09034 1.150208,0.110653 1.150208,0.110653 l -0.123676,1.418723 -0.723566,1.180187 c 0,0 -0.567955,0.261048 -0.871827,0.267866 -0.547517,0.01231 -1.098003,-0.172236 -1.59081,-0.411739 -0.372275,-0.180926 -0.895788,-0.376185 -1.086119,-0.744468 -0.391566,-0.757679 0.0077,-2.567128 0.0077,-2.567128 z"
       id="path7608" /><path
       style="fill:#ffffff;fill-opacity:1;stroke:none;stroke-width:0.260317px;stroke-linecap:butt;stroke-linejoin:miter;stroke-opacity:1"
       d="m 19.634588,25.07273 c 0.07371,0.333587 -0.03651,0.993193 -0.09933,1.12946 -0.05235,0.11355 -0.341741,0.412163 -0.629495,0.495725 -0.332915,0.09664 -0.76628,0.05704 -1.025201,-0.17402 -0.28449,-0.253827 -0.320243,-1.099531 -0.320243,-1.099531 L 17.18094,21.806609 17.1108,20.633901 c 0,0 -0.924473,-0.27419 -1.281255,-0.578458 -0.265551,-0.22646 -0.59527,-0.525614 -0.576863,-0.874658 0.01253,-0.23764 0.239787,-0.446485 0.453193,-0.550656 0.371086,-0.181132 0.83513,-0.12218 1.237787,-0.03133 0.267145,0.06029 0.459352,0.368903 0.733166,0.371494 0.345202,0.003 0.616323,-0.164147 0.938891,-0.306031 0.217712,-0.09576 0.566796,0.09723 0.566796,0.281461 0,0.184255 -0.441618,0.863408 -0.495003,0.909345 -0.09469,0.08147 -0.263305,0.347211 -0.263305,0.347211 l 0.144932,1.199771 c 0,0 0.06889,1.532352 0.302551,2.253009 0.165569,0.510649 0.647062,0.893424 0.762896,1.417669 z"
       id="path7606"
       sodipodi:nodetypes="sssscccssssssssccss" /></g></svg>
