<?xml version="1.0" encoding="UTF-8" standalone="no"?>
<!-- Created with Inkscape (http://www.inkscape.org/) -->

<svg
   width="256"
   height="256"
   viewBox="0 0 67.733332 67.733333"
   version="1.1"
   id="svg13325"
   inkscape:version="1.2.1 (9c6d41e410, 2022-07-14, custom)"
   sodipodi:docname="s3_crab_tank.svg"
   xml:space="preserve"
   xmlns:inkscape="http://www.inkscape.org/namespaces/inkscape"
   xmlns:sodipodi="http://sodipodi.sourceforge.net/DTD/sodipodi-0.dtd"
   xmlns:xlink="http://www.w3.org/1999/xlink"
   xmlns="http://www.w3.org/2000/svg"
   xmlns:svg="http://www.w3.org/2000/svg"><sodipodi:namedview
     id="namedview13327"
     pagecolor="#505050"
     bordercolor="#eeeeee"
     borderopacity="1"
     inkscape:showpageshadow="0"
     inkscape:pageopacity="0"
     inkscape:pagecheckerboard="0"
     inkscape:deskcolor="#505050"
     inkscape:document-units="mm"
     showgrid="false"
     inkscape:zoom="3.0244251"
     inkscape:cx="74.559626"
     inkscape:cy="131.0993"
     inkscape:window-width="1916"
     inkscape:window-height="1036"
     inkscape:window-x="0"
     inkscape:window-y="20"
     inkscape:window-maximized="1"
     inkscape:current-layer="layer1" /><defs
     id="defs13322"><linearGradient
       id="linearGradient5451"
       inkscape:swatch="solid"><stop
         style="stop-color:#000000;stop-opacity:1;"
         offset="0"
         id="stop5449" /></linearGradient><linearGradient
       id="linearGradient5445"
       inkscape:swatch="solid"><stop
         style="stop-color:#000000;stop-opacity:1;"
         offset="0"
         id="stop5443" /></linearGradient><linearGradient
       id="linearGradient5439"
       inkscape:swatch="solid"><stop
         style="stop-color:#000000;stop-opacity:1;"
         offset="0"
         id="stop5437" /></linearGradient><linearGradient
       id="linearGradient5433"
       inkscape:swatch="solid"><stop
         style="stop-color:#000000;stop-opacity:1;"
         offset="0"
         id="stop5431" /></linearGradient><linearGradient
       id="linearGradient5427"
       inkscape:swatch="solid"><stop
         style="stop-color:#000000;stop-opacity:1;"
         offset="0"
         id="stop5425" /></linearGradient><linearGradient
       id="ink"
       inkscape:swatch="solid"><stop
         style="stop-opacity:1;"
         offset="0"
         id="stop53636" /></linearGradient><linearGradient
       inkscape:collect="always"
       xlink:href="#linearGradient2869"
       id="linearGradient3169"
       gradientUnits="userSpaceOnUse"
       gradientTransform="matrix(1.9993289,0,0,1.9993289,-157.82945,-286.02367)"
       x1="98.10273"
       y1="147.75198"
       x2="99.370705"
       y2="147.75198" /><linearGradient
       id="linearGradient2869"
       inkscape:swatch="solid"><stop
         style="stop-color:#ffffff;stop-opacity:1;"
         offset="0"
         id="stop2867" /></linearGradient><linearGradient
       inkscape:collect="always"
       xlink:href="#linearGradient2869"
       id="linearGradient3023"
       gradientUnits="userSpaceOnUse"
       gradientTransform="matrix(1.9993289,0,0,1.9993289,-158.09811,-286.01055)"
       x1="98.10273"
       y1="147.75198"
       x2="99.370705"
       y2="147.75198" /><linearGradient
       inkscape:collect="always"
       xlink:href="#linearGradient2869"
       id="linearGradient3021"
       x1="54.236336"
       y1="157.57022"
       x2="69.095016"
       y2="157.57022"
       gradientUnits="userSpaceOnUse"
       gradientTransform="matrix(1.9993289,0,0,1.9993289,-89.37833,-286.02367)" /><linearGradient
       inkscape:collect="always"
       xlink:href="#linearGradient2869"
       id="linearGradient3002"
       gradientUnits="userSpaceOnUse"
       gradientTransform="matrix(1.9993289,0,0,1.9993289,-158.734,-286.02367)"
       x1="98.10273"
       y1="147.75198"
       x2="99.370705"
       y2="147.75198" /><linearGradient
       inkscape:collect="always"
       xlink:href="#linearGradient2869"
       id="linearGradient13576"
       gradientUnits="userSpaceOnUse"
       gradientTransform="matrix(1.9993289,0,0,1.9993289,-157.82945,-286.02367)"
       x1="98.10273"
       y1="147.75198"
       x2="99.370705"
       y2="147.75198" /><linearGradient
       inkscape:collect="always"
       xlink:href="#linearGradient2869"
       id="linearGradient13578"
       gradientUnits="userSpaceOnUse"
       gradientTransform="matrix(1.9993289,0,0,1.9993289,-157.82945,-286.02367)"
       x1="98.10273"
       y1="147.75198"
       x2="99.370705"
       y2="147.75198" /><linearGradient
       inkscape:collect="always"
       xlink:href="#linearGradient2869"
       id="linearGradient13580"
       gradientUnits="userSpaceOnUse"
       gradientTransform="matrix(1.9993289,0,0,1.9993289,-157.82945,-286.02367)"
       x1="98.10273"
       y1="147.75198"
       x2="99.370705"
       y2="147.75198" /><linearGradient
       inkscape:collect="always"
       xlink:href="#ink"
       id="linearGradient5429"
       x1="15.469862"
       y1="24.498878"
       x2="51.790047"
       y2="24.498878"
       gradientUnits="userSpaceOnUse" /><linearGradient
       inkscape:collect="always"
       xlink:href="#ink"
       id="linearGradient5435"
       x1="0.6600889"
       y1="41.198605"
       x2="23.512033"
       y2="41.198605"
       gradientUnits="userSpaceOnUse" /><linearGradient
       inkscape:collect="always"
       xlink:href="#ink"
       id="linearGradient5441"
       x1="43.950855"
       y1="41.050697"
       x2="66.802803"
       y2="41.050697"
       gradientUnits="userSpaceOnUse" /><linearGradient
       inkscape:collect="always"
       xlink:href="#ink"
       id="linearGradient5447"
       x1="42.616348"
       y1="54.391453"
       x2="56.576935"
       y2="54.391453"
       gradientUnits="userSpaceOnUse" /><linearGradient
       inkscape:collect="always"
       xlink:href="#ink"
       id="linearGradient5453"
       x1="10.833612"
       y1="54.522488"
       x2="24.794195"
       y2="54.522488"
       gradientUnits="userSpaceOnUse" /></defs><g
     inkscape:label="Layer 1"
     inkscape:groupmode="layer"
     id="layer1"><path
       class="ink"
       style="fill-opacity:1.0;stroke:none;stroke-width:0.528988px;stroke-linecap:butt;stroke-linejoin:miter;stroke-opacity:1;fill:url(#linearGradient5453)"
       d="m 23.226914,50.010674 -7.160662,-0.89658 -5.23264,3.907269 2.495968,3.537612 5.304445,3.111276 3.635767,0.260632 2.524404,-0.03279 z"
       id="path2841" /><path
       class="ink"
       style="fill-opacity:1.0;stroke:none;stroke-width:0.528988px;stroke-linecap:butt;stroke-linejoin:miter;stroke-opacity:1;fill:url(#linearGradient5447)"
       d="m 44.183631,49.879637 7.160665,-0.896578 5.232639,3.907267 -2.495968,3.537613 -5.304445,3.111275 -3.635767,0.260634 -2.524405,-0.03279 z"
       id="path2849" /><path
       class="ink"
       style="fill-opacity:1.0;stroke:none;stroke-width:0.528988px;stroke-linecap:butt;stroke-linejoin:miter;stroke-opacity:1;fill:url(#linearGradient5435)"
       d="m 22.972247,28.6009 -11.559995,0.347184 -2.219233,2.645671 -1.9274072,-0.03018 -3.8214054,3.518319 -1.9115463,4.959914 -0.87257121,3.972267 0.85160221,4.763741 1.927167,5.018495 2.6797463,-0.04638 -1.1683216,-4.202149 -0.98908,-4.131333 0.539021,-3.945675 1.21541,-3.862525 1.2144699,-1.36588 -0.2773899,7.746379 1.6848375,3.881297 1.1993493,1.733918 1.1302904,-0.04119 4.713576,-4.335345 7.760782,-0.112157 0.370485,-16.076643 z"
       id="path2853" /><path
       class="ink"
       style="fill-opacity:1.0;stroke:none;stroke-width:0.528988px;stroke-linecap:butt;stroke-linejoin:miter;stroke-opacity:1;fill:url(#linearGradient5441)"
       d="m 44.490644,28.45299 11.559996,0.347184 2.219233,2.645671 1.927407,-0.03018 3.821405,3.518319 1.911546,4.959915 0.872571,3.972266 -0.851602,4.763742 -1.927167,5.018495 -2.679747,-0.04638 1.168323,-4.202149 0.98908,-4.131333 -0.539022,-3.945676 -1.215409,-3.862524 -1.214471,-1.365881 0.277391,7.746379 -1.684838,3.881298 -1.19935,1.733918 -1.13029,-0.04119 -4.713576,-4.335345 -7.760782,-0.112157 -0.370487,-16.076643 z"
       id="path2861" /><path
       class="ink"
       style="fill-opacity:1.0;stroke:none;stroke-width:0.528988px;stroke-linecap:butt;stroke-linejoin:miter;stroke-opacity:1;fill:url(#linearGradient5429)"
       d="m 25.372624,40.878319 2.200016,1.047088 2.679302,0.461665 4.546259,0.323152 4.369158,-0.755046 2.542031,-0.822944 0.310818,-12.330762 0.741119,-1.57681 1.916105,-1.07262 7.112613,0.26937 -1.183609,-1.920176 -3.455451,-3.338799 -4.712596,-2.874654 -4.541143,-1.169947 v -2.490404 l 1.866897,-1.866893 V 6.7404401 L 39.437271,6.4260455 H 37.571797 L 37.083856,6.9139813 V 12.90635 l -0.878149,4.243295 H 31.207008 L 30.115824,13.077272 V 6.6854985 L 29.717874,6.2875322 H 27.71414 l -0.463173,0.4631847 v 6.2921871 l 1.905522,1.90552 v 2.121888 l -4.988387,1.311139 -4.455016,3.106697 -4.243224,4.79821 7.709171,-0.03639 2.729179,2.691416 z"
       id="path2865" /><path
       style="fill:url(#linearGradient13576);stroke:none;stroke-width:0.649783;paint-order:stroke fill markers"
       d="m 16.066252,49.114094 3.090725,0.386991 -6.474563,6.140638 -1.848802,-2.62036 z"
       id="path3000"
       sodipodi:nodetypes="ccccc" /><path
       style="fill:url(#linearGradient3023);stroke:none;stroke-width:0.649783;paint-order:stroke fill markers"
       d="m 16.430467,58.479191 5.932759,-6.535607 1.197556,0.173342 0.449774,2.837448 -4.642424,4.768499 -0.734107,-0.05259 z"
       id="path2998"
       sodipodi:nodetypes="ccccccc" /><path
       style="fill:url(#linearGradient13578);stroke:none;stroke-width:0.649783;paint-order:stroke fill markers"
       d="m 43.684644,53.127127 0.266211,-2.066926 1.055623,-1.28359 2.420607,-0.303077 z"
       id="path2996"
       sodipodi:nodetypes="ccccc" /><path
       style="fill:url(#linearGradient13580);stroke:none;stroke-width:0.649783;paint-order:stroke fill markers"
       d="m 43.26441,59.775476 3.939224,-0.123559 8.537562,-7.385701 -2.372464,-1.771545 z"
       id="path2994"
       sodipodi:nodetypes="ccccc" /><path
       id="path2984"
       style="fill:url(#linearGradient3021);fill-opacity:1;stroke:none;stroke-width:0.649783;stroke-opacity:1;paint-order:stroke fill markers"
       d="m 27.885588,21.397518 -1.751242,1.751253 -1.822531,1.051767 -2.082895,0.557933 h -1.052813 l -1.676509,1.508873 0.721584,-0.004 1.309686,-0.006 1.648165,-0.008 1.063209,1.048509 1.66597,1.642909 -0.151629,3.379624 4.303862,4.303436 h 7.892476 l 3.969373,-3.937938 0.0979,-3.884417 0.741127,-1.577529 0.958053,-0.5363 0.958052,-0.53632 3.556306,0.134755 -1.981271,-1.680188 -1.61383,-0.432895 -4.809461,-2.776168 z m 3.638867,1.063144 1.679954,1.733678 -4.122394,3.996357 -1.679954,-1.733677 z m 4.527404,0.07338 3.996346,4.122395 -1.733678,1.679957 -3.996347,-4.122396 z m -6.742544,6.19186 3.996346,4.122397 -1.732647,1.679956 -3.996346,-4.122396 z m 9.353394,0.323392 1.679954,1.732638 -4.122397,3.996359 -1.679953,-1.732658 z"
       sodipodi:nodetypes="cccccccccccccccccccccccccccccccccccccccccccc" /><path
       style="fill:url(#linearGradient3169);stroke:none;stroke-width:0.649783;paint-order:stroke fill markers"
       d="m 28.663317,6.8820926 c 0.522234,0 0.94266,0.4204388 0.94266,0.9426638 v 3.2091626 c 0,0.522224 -0.420426,0.942643 -0.94266,0.942643 -0.522232,0 -0.942659,-0.420419 -0.942659,-0.942643 V 7.8247564 c 0,-0.522225 0.420427,-0.9426638 0.942659,-0.9426638 z"
       id="path2982" /><path
       style="fill:url(#linearGradient3002);stroke:none;stroke-width:0.649783;paint-order:stroke fill markers"
       d="m 38.673163,6.8339084 c 0.522228,0 0.942655,0.4204195 0.942655,0.9426432 v 3.2091634 c 0,0.522224 -0.420427,0.942663 -0.942655,0.942663 -0.522238,0 -0.942667,-0.420439 -0.942667,-0.942663 V 7.7765516 c 0,-0.5222237 0.420429,-0.9426432 0.942667,-0.9426432 z"
       id="rect2963" /></g></svg>
