<?xml version="1.0" encoding="UTF-8" standalone="no"?>
<!-- Created with Inkscape (http://www.inkscape.org/) -->

<svg
   width="256"
   height="256"
   viewBox="0 0 67.733332 67.733333"
   version="1.1"
   id="svg12494"
   inkscape:version="1.2.1 (9c6d41e410, 2022-07-14, custom)"
   sodipodi:docname="s3_ink_vac.svg"
   xml:space="preserve"
   xmlns:inkscape="http://www.inkscape.org/namespaces/inkscape"
   xmlns:sodipodi="http://sodipodi.sourceforge.net/DTD/sodipodi-0.dtd"
   xmlns:xlink="http://www.w3.org/1999/xlink"
   xmlns="http://www.w3.org/2000/svg"
   xmlns:svg="http://www.w3.org/2000/svg"><sodipodi:namedview
     id="namedview12496"
     pagecolor="#505050"
     bordercolor="#eeeeee"
     borderopacity="1"
     inkscape:showpageshadow="0"
     inkscape:pageopacity="0"
     inkscape:pagecheckerboard="0"
     inkscape:deskcolor="#505050"
     inkscape:document-units="mm"
     showgrid="false"
     inkscape:zoom="2.929707"
     inkscape:cx="179.36947"
     inkscape:cy="103.25265"
     inkscape:window-width="1916"
     inkscape:window-height="1036"
     inkscape:window-x="0"
     inkscape:window-y="20"
     inkscape:window-maximized="1"
     inkscape:current-layer="layer1" /><defs
     id="defs12491"><linearGradient
       id="linearGradient9063"
       inkscape:swatch="solid"><stop
         style="stop-color:#000000;stop-opacity:1;"
         offset="0"
         id="stop9061" /></linearGradient><linearGradient
       id="linearGradient9057"
       inkscape:swatch="solid"><stop
         style="stop-color:#000000;stop-opacity:1;"
         offset="0"
         id="stop9055" /></linearGradient><linearGradient
       id="linearGradient9047"
       inkscape:swatch="solid"><stop
         style="stop-color:#000000;stop-opacity:1;"
         offset="0"
         id="stop9045" /></linearGradient><linearGradient
       id="linearGradient9041"
       inkscape:swatch="solid"><stop
         style="stop-color:#000000;stop-opacity:1;"
         offset="0"
         id="stop9039" /></linearGradient><linearGradient
       id="ink"
       inkscape:swatch="solid"><stop
         style="stop-opacity:1;"
         offset="0"
         id="stop53636" /></linearGradient><linearGradient
       inkscape:collect="always"
       xlink:href="#ink"
       id="linearGradient67319"
       x1="37.719273"
       y1="28.512089"
       x2="42.716888"
       y2="28.512089"
       gradientUnits="userSpaceOnUse"
       gradientTransform="matrix(2.1375108,0,0,2.1375108,-26.975797,-8.6527349)" /><linearGradient
       inkscape:collect="always"
       xlink:href="#ink"
       id="linearGradient9043"
       x1="37.068089"
       y1="39.806164"
       x2="57.075291"
       y2="39.806164"
       gradientUnits="userSpaceOnUse" /><linearGradient
       inkscape:collect="always"
       xlink:href="#ink"
       id="linearGradient9049"
       x1="1.3467864"
       y1="39.204151"
       x2="10.143647"
       y2="39.204151"
       gradientUnits="userSpaceOnUse" /><linearGradient
       inkscape:collect="always"
       xlink:href="#ink"
       id="linearGradient9051"
       x1="20.357824"
       y1="49.031101"
       x2="47.555023"
       y2="49.031101"
       gradientUnits="userSpaceOnUse" /><linearGradient
       inkscape:collect="always"
       xlink:href="#ink"
       id="linearGradient9053"
       x1="29.628576"
       y1="20.533445"
       x2="62.732513"
       y2="20.533445"
       gradientUnits="userSpaceOnUse" /><linearGradient
       inkscape:collect="always"
       xlink:href="#ink"
       id="linearGradient9059"
       x1="41.428894"
       y1="23.401388"
       x2="50.765911"
       y2="23.401388"
       gradientUnits="userSpaceOnUse" /><linearGradient
       inkscape:collect="always"
       xlink:href="#ink"
       id="linearGradient9065"
       x1="38.980267"
       y1="6.5880895"
       x2="54.097565"
       y2="6.5880895"
       gradientUnits="userSpaceOnUse" /></defs><g
     inkscape:label="Layer 1"
     inkscape:groupmode="layer"
     id="layer1"><path
       id="path66501"
       class="ink"
       style="fill-opacity:1.0;stroke:none;stroke-width:0.565549px;stroke-linecap:butt;stroke-linejoin:miter;stroke-opacity:1;fill:url(#linearGradient9051)"
       d="m 32.979964,31.970167 -4.86903,9.512723 -1.159817,0.376665 -6.477312,9.773407 -0.115981,2.538345 6.321567,3.05861 -1.032791,2.746009 13.862595,6.11611 1.829201,-3.779905 3.701478,0.134769 2.515151,-5.826708 -2.888502,-2.117498 1.461371,-3.253015 -1.273591,-2.901757 -4.892225,-2.404691 -3.238656,-1.311146 -1.005178,-1.304521 -1.435966,-0.310391 -0.829547,-0.983084 2.181565,-4.527711 -0.60642,-0.326959 0.934483,-3.488293 z m -2.462128,23.615017 c 0.45561,0 0.821813,0.580688 0.821813,1.30231 v 1.829198 c 0,0.721619 -0.366203,1.302312 -0.821813,1.302312 -0.455613,0 -0.82292,-0.580693 -0.82292,-1.302312 v -1.829198 c 0,-0.721622 0.367307,-1.30231 0.82292,-1.30231 z m 3.599856,1.249289 c 0.455611,0 0.821813,0.580692 0.821813,1.30231 v 1.829201 c 0,0.72162 -0.366202,1.302311 -0.821813,1.302311 -0.455612,0 -0.82292,-0.580691 -0.82292,-1.302311 v -1.829201 c 0,-0.721618 0.367308,-1.30231 0.82292,-1.30231 z m 3.386671,1.613806 c 0.455612,0 0.822918,0.581793 0.822918,1.303416 v 1.828094 c 0,0.721618 -0.367306,1.302311 -0.822918,1.302311 -0.455614,0 -0.821816,-0.580693 -0.821816,-1.302311 v -1.828094 c 0,-0.721623 0.366202,-1.303416 0.821816,-1.303416 z" /><path
       class="ink"
       style="fill-opacity:1.0;stroke:none;stroke-width:0.566441;stroke-linecap:butt;stroke-linejoin:round;stroke-dasharray:none;stroke-opacity:1;fill:url(#linearGradient9049)"
       d="M 4.0847667,31.180873 10.143647,32.970967 7.7204946,47.227433 1.3467864,44.508462 Z"
       id="path67296" /><path
       id="rect67304"
       class="ink"
       style="stroke-width:0.5503;stroke-linecap:round;stroke-linejoin:round;paint-order:stroke fill markers;fill-opacity:1.0;fill:url(#linearGradient9043)"
       d="m 38.264852,33.243125 15.823859,-0.166704 0.718147,2.319579 1.845552,-0.02279 0.422882,4.940972 -1.44176,0.04498 0.04448,6.176746 H 37.068087 Z"
       sodipodi:nodetypes="ccccccccc" /><path
       class="inkstroke"
       style="fill:none;stroke-width:2.0627;stroke-linecap:butt;stroke-linejoin:miter;stroke-dasharray:none;stroke-opacity:1"
       d="m 56.109627,38.085322 c 0,0 3.154889,-0.595064 4.245328,0.312875 0.826711,0.688349 0.816286,3.122364 0.816286,3.122364 l 0.910654,8.242021 1.409553,5.26054 c 0,0 -0.0046,2.675306 0.0068,4.661439 0.01051,1.840358 -2.664165,4.323051 -4.249947,5.058431 -1.662544,0.770977 -7.453852,-1.605022 -7.453852,-1.605022"
       id="path67313"
       sodipodi:nodetypes="cscccssc" /><path
       id="path67321"
       class="ink"
       style="stroke-width:1.79816;stroke-linecap:round;stroke-linejoin:round;paint-order:stroke fill markers;fill-opacity:1.0;fill:url(#linearGradient9059)"
       d="m 50.303817,23.722698 c 0,1.856082 -2.106739,3.520364 -4.337056,3.520364 -2.230315,0 -4.038343,-1.504652 -4.038343,-3.360731 0,-1.856081 -1.50988,-4.189791 0.720434,-4.189794 1.366595,0 5.940203,-0.541972 7.635743,0.563645 1.071622,0.698776 0.01924,2.747724 0.01924,3.466516 z"
       sodipodi:nodetypes="ssssss" /><rect
       style="fill-opacity:1.0;stroke:none;stroke-width:2.0627;stroke-linecap:round;stroke-linejoin:round;stroke-dasharray:none;stroke-opacity:1;paint-order:stroke fill markers;fill:url(#linearGradient9053)"
       id="rect67330"
       width="33.103939"
       height="7.1956849"
       x="29.628576"
       y="16.935602"
       ry="1.2227732" /><path
       id="rect67338"
       class="ink"
       style="stroke-width:2.0627;stroke-linecap:round;stroke-linejoin:round;paint-order:stroke fill markers;fill-opacity:1.0;fill:url(#linearGradient9065)"
       d="m 40.332603,4.9041461 h 12.410641 c 0.677418,0 1.222774,0.5453581 1.222774,1.2227737 v 0.8507529 c 0,0.6774177 0.42488,1.2955282 -0.252538,1.294359 L 39.365766,8.2473008 C 38.68835,8.2461316 39.109831,7.6550991 39.109831,6.9776814 V 6.1269285 c 0,-0.6774156 0.545356,-1.2227737 1.222772,-1.2227737 z"
       sodipodi:nodetypes="sssssssss" /><path
       style="fill:none;stroke:#ffffff;stroke-width:3.04595;stroke-linecap:butt;stroke-linejoin:miter;stroke-dasharray:none;stroke-opacity:1"
       d="m 35.208163,39.586259 13.371656,7.492978 c 0,0 8.12687,4.997453 7.964155,9.000113 -0.0752,1.849826 -5.231377,4.246945 -5.231377,4.246945"
       id="path431"
       sodipodi:nodetypes="ccsc" /><path
       style="fill:#ffffff;fill-opacity:1;stroke-width:3.04595;stroke-linecap:round;stroke-linejoin:round;paint-order:stroke fill markers"
       d="m 50.71524,38.753068 a 3.4121169,3.4121169 0 0 1 -3.412117,3.412117 3.4121169,3.4121169 0 0 1 -3.412116,-3.412117 3.4121169,3.4121169 0 0 1 3.412116,-3.412116 3.4121169,3.4121169 0 0 1 3.412117,3.412116 z"
       id="path883" /><path
       id="path879"
       style="fill:#ffffff;fill-opacity:1;stroke-width:3.04595;stroke-linecap:round;stroke-linejoin:round;paint-order:stroke fill markers"
       d="m 41.074037,7.4635613 -0.642854,1.1131103 -2.134754,0.5720581 -2.936255,5.0844443 c 0,0 -1.075395,6.307474 -0.922889,9.343319 0.09583,1.907701 0.940459,5.192228 0.940459,5.192228 l 3.179134,4.01836 H 55.19979 l 2.57452,-2.57452 c 0,0 1.280472,-4.167756 1.459596,-6.689874 0.19551,-2.75284 -0.487562,-8.856464 -0.487562,-8.856464 L 55.402879,8.8748446 53.054702,8.2454257 52.60305,7.4635613 Z m 5.708696,12.2948567 c 1.740845,2.75e-4 3.151776,1.372335 3.151229,3.064413 -3.34e-4,1.691473 -1.411007,3.062587 -3.151229,3.062862 -1.740625,2.8e-4 -3.151927,-1.370997 -3.152262,-3.062862 -5.47e-4,-1.692471 1.411013,-3.064693 3.152262,-3.064413 z"
       sodipodi:nodetypes="ccccsccccscccccscscs" /><path
       style="fill:#ffffff;fill-opacity:1;stroke-width:3.04595;stroke-linecap:round;stroke-linejoin:round;paint-order:stroke fill markers"
       d="M 9.7703665,33.44379 28.182704,41.871752 21.71808,52.14094 6.5139594,45.782882 Z"
       id="path877" /><path
       style="fill:#ffffff;fill-opacity:1;stroke-width:3.04595;stroke-linecap:round;stroke-linejoin:round;paint-order:stroke fill markers"
       d="m 35.607674,37.970591 2.521036,1.351607 -2.732416,5.096539 -2.521036,-1.351604 z"
       id="path875" /><path
       style="fill:#ffffff;fill-opacity:1;stroke-width:3.04595;stroke-linecap:round;stroke-linejoin:round;paint-order:stroke fill markers"
       d="m 45.940025,56.806201 7.611358,3.357902 -2.23754,5.071831 -7.611355,-3.357899 z"
       id="rect1398" /></g></svg>
