<?xml version="1.0" encoding="UTF-8" standalone="no"?>
<!-- Created with Inkscape (http://www.inkscape.org/) -->

<svg
   width="256"
   height="256"
   viewBox="0 0 67.733332 67.733334"
   version="1.1"
   id="svg3746"
   inkscape:version="1.2.1 (9c6d41e410, 2022-07-14, custom)"
   sodipodi:docname="s3_tacticooler.svg"
   inkscape:export-filename="tacticooler.png"
   inkscape:export-xdpi="96"
   inkscape:export-ydpi="96"
   xml:space="preserve"
   xmlns:inkscape="http://www.inkscape.org/namespaces/inkscape"
   xmlns:sodipodi="http://sodipodi.sourceforge.net/DTD/sodipodi-0.dtd"
   xmlns:xlink="http://www.w3.org/1999/xlink"
   xmlns="http://www.w3.org/2000/svg"
   xmlns:svg="http://www.w3.org/2000/svg"><sodipodi:namedview
     id="namedview3748"
     pagecolor="#505050"
     bordercolor="#eeeeee"
     borderopacity="1"
     inkscape:showpageshadow="0"
     inkscape:pageopacity="0"
     inkscape:pagecheckerboard="0"
     inkscape:deskcolor="#505050"
     inkscape:document-units="mm"
     showgrid="false"
     inkscape:zoom="2.4833632"
     inkscape:cx="-8.2549341"
     inkscape:cy="-43.690749"
     inkscape:window-width="1916"
     inkscape:window-height="1036"
     inkscape:window-x="0"
     inkscape:window-y="20"
     inkscape:window-maximized="1"
     inkscape:current-layer="layer1" /><defs
     id="defs3743"><linearGradient
       id="linearGradient17842"
       inkscape:swatch="solid"><stop
         style="stop-color:#000000;stop-opacity:1;"
         offset="0"
         id="stop17840" /></linearGradient><linearGradient
       id="linearGradient17832"
       inkscape:swatch="solid"><stop
         style="stop-color:#000000;stop-opacity:1;"
         offset="0"
         id="stop17830" /></linearGradient><linearGradient
       id="linearGradient17826"
       inkscape:swatch="solid"><stop
         style="stop-color:#000000;stop-opacity:1;"
         offset="0"
         id="stop17824" /></linearGradient><linearGradient
       id="ink"
       inkscape:swatch="solid"><stop
         style="stop-opacity:1;"
         offset="0"
         id="stop53636" /></linearGradient><linearGradient
       inkscape:collect="always"
       xlink:href="#ink"
       id="linearGradient17828"
       x1="18.665779"
       y1="39.566414"
       x2="48.951408"
       y2="39.566414"
       gradientUnits="userSpaceOnUse" /><linearGradient
       inkscape:collect="always"
       xlink:href="#ink"
       id="linearGradient17834"
       x1="50.392574"
       y1="36.039883"
       x2="60.256664"
       y2="36.039883"
       gradientUnits="userSpaceOnUse" /><linearGradient
       inkscape:collect="always"
       xlink:href="#ink"
       id="linearGradient17836"
       x1="28.612328"
       y1="40.019791"
       x2="38.87542"
       y2="40.019791"
       gradientUnits="userSpaceOnUse" /><linearGradient
       inkscape:collect="always"
       xlink:href="#ink"
       id="linearGradient17838"
       x1="7.2147126"
       y1="35.575432"
       x2="17.0788"
       y2="35.575432"
       gradientUnits="userSpaceOnUse" /><linearGradient
       inkscape:collect="always"
       xlink:href="#ink"
       id="linearGradient17844"
       x1="28.632511"
       y1="8.8622713"
       x2="46.303772"
       y2="8.8622713"
       gradientUnits="userSpaceOnUse" /></defs><g
     inkscape:label="Layer 1"
     inkscape:groupmode="layer"
     id="layer1"><path
       id="path62990"
       class="ink"
       style="fill-opacity:1.0;stroke:none;stroke-width:0.53772px;stroke-linecap:butt;stroke-linejoin:miter;stroke-opacity:1;fill:url(#linearGradient17828)"
       d="m 48.951408,14.976185 -2.699096,1.499736 -6.095563,2.742162 -7.920883,0.865385 -5.007519,-0.911601 -4.889894,-1.831616 -3.672673,-2.208633 v 33.929933 1.629968 l 3.337647,1.86206 4.474001,1.228787 4.438293,0.221606 v 2.534212 l -0.279361,0.04735 -3.090841,0.772976 -0.872748,0.650102 -1.369505,0.260462 v 3.404863 L 27.64529,63.3564 c 0,0 2.9988,0.714487 3.306139,0.776126 0.307339,0.06158 5.718531,-0.01422 5.718531,-0.01422 l 4.116913,-1.136357 1.427284,-1.198301 v -3.317703 l -1.882017,-0.649044 -2.676009,-0.878008 -1.15211,-0.278307 v -2.407131 l 5.742694,-0.630143 4.879377,-1.947134 1.825316,-1.43147 z m -28.213514,11.191304 4.080164,1.16995 3.936279,0.853843 8.110966,-0.03679 6.434788,-0.926316 3.577102,-1.033438 v 15.343939 l -0.660588,0.381244 v 3.833359 l -10.268156,3.564482 h -4.654643 l -9.777686,-3.37649 v -4.227203 l -0.778226,-0.20795 z" /><path
       class="ink"
       style="fill-opacity:1.0;stroke:none;stroke-width:0.53772px;stroke-linecap:butt;stroke-linejoin:miter;stroke-opacity:1;fill:url(#linearGradient17836)"
       d="m 28.867734,33.14366 1.834088,1.058904 h 5.943752 l 2.229844,-1.287398 v 12.845597 l -0.944553,0.944547 -1.564094,0.419105 h -5.513799 l -1.369731,-0.367018 -0.870914,-0.870913 v -12.74695 z"
       id="path63001" /><path
       class="ink"
       style="fill-opacity:1.0;stroke:none;stroke-width:0.527163px;stroke-linecap:butt;stroke-linejoin:miter;stroke-opacity:1;fill:url(#linearGradient17838)"
       d="m 7.4601895,28.699303 1.7627853,1.058904 H 14.935646 L 17.0788,28.470808 v 12.845599 l -0.907831,0.944545 -1.503287,0.419107 H 9.3682452 L 8.0517675,42.313041 7.2147128,41.442126 V 28.695178 Z"
       id="path63009" /><path
       class="ink"
       style="fill-opacity:1.0;stroke:none;stroke-width:0.527163px;stroke-linecap:butt;stroke-linejoin:miter;stroke-opacity:1;fill:url(#linearGradient17834)"
       d="m 50.638058,29.163751 1.762781,1.058905 h 5.712673 l 2.143153,-1.2874 V 41.780855 L 59.348822,42.7254 57.84555,43.144507 h -5.29944 l -1.316481,-0.367018 -0.837055,-0.870914 v -12.74695 z"
       id="path63013" /><path
       class="ink"
       id="path63017"
       style="fill-opacity:1.0;stroke:none;stroke-width:0.53772px;stroke-linecap:butt;stroke-linejoin:miter;stroke-opacity:1;fill:url(#linearGradient17844)"
       d="m 42.532379,3.3994301 -5.240679,0.9441796 -3.253629,2.5846146 -2.346226,1.669883 -2.342023,1.1657643 -0.71731,2.5583564 3.124449,1.911425 6.554516,0.09146 3.304037,-1.378956 2.887106,-2.199183 1.801151,-3.3387097 -0.68896,-2.3126067 z m -1.348511,2.0311706 2.14248,0.87378 0.202624,1.4797995 -1.622632,1.7601792 -1.188852,-0.088201 -2.782076,-0.3948811 -2.473304,-0.2793644 0.247855,-0.6595508 3.372306,-2.058444 -0.101886,-0.00816 z" /><path
       style="fill:#ffffff;fill-opacity:1;stroke:none;stroke-width:0.53772px;stroke-linecap:butt;stroke-linejoin:miter;stroke-opacity:1"
       d="m 38.394671,31.608936 c -2.9e-5,0.71914 -2.002894,1.302093 -4.473541,1.302093 -2.47064,0 -4.473493,-0.582974 -4.473522,-1.302093 -1.1e-5,-0.719139 2.002855,-1.302113 4.473522,-1.302113 2.470674,0 4.473551,0.582974 4.473541,1.302113 z"
       id="path930" /><path
       style="fill:#ffffff;fill-opacity:1;stroke:none;stroke-width:0.53772px;stroke-linecap:butt;stroke-linejoin:miter;stroke-opacity:1"
       d="m 15.48376,27.396508 c 7e-6,0.719139 -1.402832,1.302113 -3.133322,1.302113 -1.730489,0 -3.1333291,-0.582974 -3.1333225,-1.302113 -6.6e-6,-0.719139 1.4028335,-1.302113 3.1333225,-1.302113 1.73049,0 3.133329,0.582974 3.133322,1.302113 z"
       id="path928" /><path
       style="fill:#ffffff;fill-opacity:1;stroke:none;stroke-width:0.53772px;stroke-linecap:butt;stroke-linejoin:miter;stroke-opacity:1"
       d="m 58.516218,27.438588 c 0,0.71914 -1.402814,1.302114 -3.133302,1.302114 -1.730487,0 -3.133323,-0.582974 -3.133323,-1.302114 2e-5,-0.719139 1.402857,-1.302092 3.133323,-1.302092 1.730467,0 3.133281,0.582974 3.133302,1.302092 z"
       id="path926" /><path
       style="fill:#ffffff;fill-opacity:1;stroke:none;stroke-width:0.53772px;stroke-linecap:butt;stroke-linejoin:miter;stroke-opacity:1"
       d="m 27.559919,39.826018 v 5.381668 l 1.32963,2.103338 2.798965,0.916663 h 5.100048 l 1.478316,-0.634615 1.415329,-1.236978 0.526915,-1.08063 v -5.600001 l 6.501826,1.488742 v 5.627783 l -5.2052,2.130775 -4.337079,0.534929 h -6.21665 L 25.462373,48.55361 21.097338,47.384005 v -5.927672 z"
       id="path924" /><path
       style="fill:#ffffff;fill-opacity:1;stroke:none;stroke-width:0.53772px;stroke-linecap:butt;stroke-linejoin:miter;stroke-opacity:1"
       d="m 31.562104,57.00062 v -2.756427 l -1.454742,-0.240425 -2.322098,0.652378 -1.542497,0.990536 -0.316962,2.180567 1.155908,2.002088 1.926484,1.112252 3.956885,0.525216 4.555667,-0.354215 2.942739,-1.024761 1.493437,-1.373448 0.116045,-2.35299 -0.9707,-1.127007 -2.102229,-0.942573 -1.998877,-0.138403 -0.67081,0.143889 -0.03739,2.36876 -0.665608,0.851973 -1.558675,0.420977 -1.027809,-0.05914 z"
       id="path922" /><path
       style="fill:#ffffff;fill-opacity:1;stroke:none;stroke-width:0.53772px;stroke-linecap:butt;stroke-linejoin:miter;stroke-opacity:1"
       d="m 18.539429,12.879391 2.982951,3.043514 6.445306,1.416025 7.673587,0.465525 9.793454,-1.652507 3.068248,-2.046637 0.544562,-0.327327 0.310195,1.446369 -2.731247,2.543601 c 0,0 -9.742748,2.302792 -9.913749,2.325839 -0.170919,0.02297 -9.040062,-0.515074 -9.040062,-0.515074 L 21.096423,18.009701 18.4471,15.232197 Z"
       id="path920" /><path
       style="fill:#ffffff;fill-opacity:1;stroke:none;stroke-width:0.53772px;stroke-linecap:butt;stroke-linejoin:miter;stroke-opacity:1"
       d="m 26.161332,8.7602063 -4.571276,1.5167477 -1.783085,1.772536 2.028,2.323439 11.083285,1.84316 4.84424,-0.212704 4.309805,-0.532714 3.458454,-1.080955 2.350022,-2.067752 -0.157505,-0.934037 -1.859642,-1.373591 -2.436864,1.104103 -4.365004,2.174165 -2.341953,0.737775 -4.613205,-0.275969 -3.019105,-1.62507 -0.410184,-1.317865 1.146273,-1.6322637 1.235494,-0.8824369 z"
       id="path918" /><path
       style="fill:#ffffff;fill-opacity:1;stroke:none;stroke-width:0.53772px;stroke-linecap:butt;stroke-linejoin:miter;stroke-opacity:1"
       d="m 35.592658,10.886082 c 5e-6,0.257619 -0.799545,0.466482 -1.785847,0.466482 -0.986309,0 -1.785873,-0.208843 -1.785869,-0.466482 -4e-6,-0.257637 0.79956,-0.46648 1.785869,-0.46648 0.986302,0 1.785852,0.208863 1.785847,0.46648 z"
       id="path916" /><path
       style="fill:#ffffff;fill-opacity:1;stroke:none;stroke-width:0.53772px;stroke-linecap:butt;stroke-linejoin:miter;stroke-opacity:1"
       d="m 35.737157,8.5025063 c 0.05528,0.010162 2.338093,1.5405467 2.338093,1.5405467 L 40.502427,9.242335 40.544697,8.7174456 39.592093,8.522749 Z"
       id="path63242" /><path
       id="path64708"
       style="fill:#35bfc1;fill-opacity:1;stroke:none;stroke-width:0.53772px;stroke-linecap:butt;stroke-linejoin:miter;stroke-opacity:1"
       d="m 7.2407648,53.21305 4.7931672,-4.058846 4.707016,4.029702 V 49.966831 L 12.125305,46.16034 6.9590031,50.125352 Z m 0.2597522,5.078829 4.793167,-4.058844 4.707015,4.029702 v -3.217076 l -4.615642,-3.80649 -5.1663021,3.965012 z m 0.00609,4.797659 4.793167,-4.058845 4.707014,4.029702 v -3.217076 l -4.615639,-3.80649 -5.1663021,3.965012 z m 43.44865,-50.015979 4.793166,-4.0588453 4.707016,4.0297033 V 9.827341 L 55.839798,6.0208498 50.673495,9.9858619 Z m 0.259752,5.078831 4.793166,-4.058846 4.707016,4.029702 v -3.217074 l -4.615643,-3.806491 -5.166301,3.965012 z m 0.006,4.797658 4.793166,-4.058845 4.707016,4.029701 v -3.217076 l -4.615642,-3.80649 -5.166303,3.965014 z" /></g></svg>
