<?xml version="1.0" encoding="UTF-8" standalone="no"?>
<!-- Created with Inkscape (http://www.inkscape.org/) -->

<svg
   width="256"
   height="256"
   viewBox="0 0 67.733332 67.733333"
   version="1.1"
   id="svg1233"
   inkscape:version="1.2.1 (9c6d41e410, 2022-07-14, custom)"
   sodipodi:docname="s3_tenta_missiles.svg"
   inkscape:export-filename="tentamissles.png"
   inkscape:export-xdpi="96"
   inkscape:export-ydpi="96"
   xml:space="preserve"
   xmlns:inkscape="http://www.inkscape.org/namespaces/inkscape"
   xmlns:sodipodi="http://sodipodi.sourceforge.net/DTD/sodipodi-0.dtd"
   xmlns:xlink="http://www.w3.org/1999/xlink"
   xmlns="http://www.w3.org/2000/svg"
   xmlns:svg="http://www.w3.org/2000/svg"><sodipodi:namedview
     id="namedview1235"
     pagecolor="#505050"
     bordercolor="#eeeeee"
     borderopacity="1"
     inkscape:showpageshadow="0"
     inkscape:pageopacity="0"
     inkscape:pagecheckerboard="0"
     inkscape:deskcolor="#505050"
     inkscape:document-units="mm"
     showgrid="false"
     inkscape:zoom="3.0286511"
     inkscape:cx="54.314609"
     inkscape:cy="63.559648"
     inkscape:window-width="1916"
     inkscape:window-height="1036"
     inkscape:window-x="0"
     inkscape:window-y="20"
     inkscape:window-maximized="1"
     inkscape:current-layer="layer1" /><defs
     id="defs1230"><linearGradient
       id="linearGradient18376"
       inkscape:swatch="solid"><stop
         style="stop-color:#000000;stop-opacity:1;"
         offset="0"
         id="stop18374" /></linearGradient><linearGradient
       id="ink"
       inkscape:swatch="solid"><stop
         style="stop-opacity:1;"
         offset="0"
         id="stop53636" /></linearGradient><linearGradient
       inkscape:collect="always"
       xlink:href="#ink"
       id="linearGradient18378"
       x1="45.173458"
       y1="23.337639"
       x2="59.081974"
       y2="23.337639"
       gradientUnits="userSpaceOnUse" /><linearGradient
       inkscape:collect="always"
       xlink:href="#ink"
       id="linearGradient18380"
       x1="45.112282"
       y1="37.607208"
       x2="56.725021"
       y2="37.607208"
       gradientUnits="userSpaceOnUse" /><linearGradient
       inkscape:collect="always"
       xlink:href="#ink"
       id="linearGradient18382"
       x1="35.769779"
       y1="50.307983"
       x2="44.568882"
       y2="50.307983"
       gradientUnits="userSpaceOnUse" /><linearGradient
       inkscape:collect="always"
       xlink:href="#ink"
       id="linearGradient18384"
       x1="3.1014881"
       y1="44.310604"
       x2="7.5055218"
       y2="44.310604"
       gradientUnits="userSpaceOnUse" /><linearGradient
       inkscape:collect="always"
       xlink:href="#ink"
       id="linearGradient18386"
       x1="5.8436899"
       y1="25.379019"
       x2="10.247722"
       y2="25.379019"
       gradientUnits="userSpaceOnUse" /><linearGradient
       inkscape:collect="always"
       xlink:href="#ink"
       id="linearGradient18388"
       x1="11.835926"
       y1="31.283522"
       x2="16.239956"
       y2="31.283522"
       gradientUnits="userSpaceOnUse" /><linearGradient
       inkscape:collect="always"
       xlink:href="#ink"
       id="linearGradient18390"
       x1="14.616503"
       y1="19.229847"
       x2="19.020535"
       y2="19.229847"
       gradientUnits="userSpaceOnUse" /><linearGradient
       inkscape:collect="always"
       xlink:href="#ink"
       id="linearGradient18392"
       x1="8.6663914"
       y1="13.354672"
       x2="13.070424"
       y2="13.354672"
       gradientUnits="userSpaceOnUse" /></defs><g
     inkscape:label="Layer 1"
     inkscape:groupmode="layer"
     id="layer1"><path
       id="ellipse61192"
       style="fill:#ffffff;stroke-width:1.19765;stroke-linecap:round;stroke-linejoin:round;paint-order:stroke fill markers"
       d="m 66.99321,29.914943 a 1.6020484,3.6293163 11.347382 0 1 -2.284812,3.24316 1.6020484,3.6293163 11.347382 0 1 -0.856647,-3.873588 1.6020484,3.6293163 11.347382 0 1 2.284833,-3.24316 1.6020484,3.6293163 11.347382 0 1 0.856626,3.873588 z M 64.611287,40.34855 a 1.6020484,3.6293163 11.347382 0 1 -2.284835,3.24314 1.6020484,3.6293163 11.347382 0 1 -0.856624,-3.873588 1.6020484,3.6293163 11.347382 0 1 2.284813,-3.243161 1.6020484,3.6293163 11.347382 0 1 0.856646,3.873609 z M 51.213853,51.547619 a 1.6020484,3.6293163 0 0 1 -1.602029,3.629327 1.6020484,3.6293163 0 0 1 -1.602048,-3.629327 1.6020484,3.6293163 0 0 1 1.602048,-3.629305 1.6020484,3.6293163 0 0 1 1.602029,3.629305 z" /><path
       id="path61194"
       style="fill:#35bfc1;fill-opacity:1;stroke:none;stroke-width:0.528133px;stroke-linecap:butt;stroke-linejoin:miter;stroke-opacity:1"
       d="m 46.746485,15.080538 c 0,0 2.170358,0.106399 3.075269,0.632044 0.773928,0.449563 1.267482,1.277943 1.772515,2.016878 0.37876,0.554198 0.836546,1.122806 0.926471,1.788027 0.08743,0.646434 -0.406686,1.914198 -0.406686,1.914198 l 1.199016,0.607673 c 0,0 3.27967,0.561959 3.51511,0.689011 0,0 1.679856,0.542401 2.207206,1.191134 0.550064,0.676695 0.689891,1.637318 0.745962,2.507577 0.06907,1.071824 -0.01398,2.230241 -0.514815,3.180723 -0.41984,0.797862 -1.111448,1.552385 -1.955917,1.868148 -1.398665,0.522979 -4.474794,-0.209668 -4.474794,-0.209668 l -4.354188,-1.268003 -0.666877,2.243414 5.139275,1.008369 c 0,0 1.902003,0.213883 2.671519,0.722669 0.629309,0.416086 1.090946,1.090328 1.399425,1.778823 0.415407,0.927189 0.654899,1.992306 0.533237,3.000995 -0.115772,0.959084 -0.530584,1.927692 -1.170931,2.650998 -0.615776,0.695539 -1.477692,1.27379 -2.393981,1.426711 -1.521507,0.253923 -4.529147,-0.949823 -4.529147,-0.949823 l -1.871443,-0.400618 -0.539645,0.270311 c 0,0 3.592238,5.532686 6.758648,6.844262 1.230097,0.509526 3.353009,1.091867 4.506054,0.426147 1.011423,-0.583957 1.751836,-3.034287 1.751836,-3.034287 l 5.401741,-20.159576 c 0,0 0.581344,-1.768366 0,-2.233435 C 62.181576,20.961444 52.986328,13.098373 52.986328,13.098373 l -5.094042,-2.000689 -0.83403,0.694802 -0.564197,2.781762 z m -3.249947,31.1368 c 0,0 1.654965,1.026654 1.884935,1.884936 0.344547,1.285866 -0.36802,2.704714 -1.033639,3.85758 -0.571202,0.989367 -1.339482,2.062688 -2.423444,2.423444 -1.430543,0.476109 -4.477029,-0.643843 -4.477029,-0.643843 l -0.191624,1.338424 5.221752,4.274085 c 0,0 2.847235,0.628474 4.037209,0 1.188676,-0.627791 2.273676,-3.330787 2.273676,-3.330787 l 1.460107,-5.077975 c 0,0 0.20462,-1.95478 -0.175259,-2.814639 C 49.169648,46.0833 45.404469,43.312056 45.404469,43.312056 Z M 16.945851,5.4143327 c 1.028468,0 5.045357,5.3288423 8.375971,7.7310683 1.330559,0.959664 1.511745,3.982555 1.237601,5.600013 -1.326427,7.825945 -4.088114,15.04657 -5.832045,22.424111 -0.313706,1.327127 -1.57562,2.539915 -2.892865,2.892865 -1.212312,0.324846 -3.636912,-0.974494 -3.636912,-0.974494 l -3.249448,12.127156 11.871715,1.035854 -0.23049,2.812463 -1.620333,2.068717 0.181446,1.761896 6.408579,0.360635 0.666875,-1.235665 -0.25574,-3.941875 0.398223,-1.232011 2.158241,0.124559 1.581908,-1.041424 3.050357,-11.384048 4.986036,1.336008 1.571467,-1.571489 5.891865,-21.98874 V 20.776489 L 35.519808,8.6879969 Z M 3.9201087,35.349002 c -0.2779374,0.08285 -0.3844095,0.487327 -0.3844095,0.487327 L 0.31124181,45.8885 c 0,0 -0.36137297,1.046636 -0.31568229,1.275729 0.04212102,0.211325 0.61044625,0.918324 0.61044625,0.918324 l 4.82291403,5.769083 c 0,0 0.8444297,0.718755 1.2646288,0.6241 0.4371049,-0.09841 0.7298532,-1.352615 0.7298532,-1.352615 L 10.247802,42.280094 c 0,0 0.350634,-1.234169 0.140725,-1.850762 C 10.199496,39.874196 9.3504154,39.310798 9.3504154,39.310798 L 4.6188625,35.658257 c 0,0 -0.3670018,-0.408062 -0.6988139,-0.309255 z m 1.4635793,1.864197 c 1.5609691,6.98e-4 2.8262556,3.176849 2.8263354,7.094752 C 8.2101633,48.226232 6.9448166,51.403022 5.383688,51.40372 3.8221594,51.404459 2.5561733,48.22725 2.5563145,44.307951 2.5563929,40.38903 3.8223202,37.21246 5.383688,37.213199 Z M 3.0693504,27.054894 c 0.088824,0.365464 0.6344418,0.699551 0.6344418,0.699551 L 15.734995,39.870204 c 0,0 0.720654,0.629949 1.054761,0.53775 0.328118,-0.09062 0.618291,-1.016114 0.618291,-1.016114 l 5.674409,-22.185118 c 0,0 0.295606,-0.908704 0.13793,-1.404374 -0.124155,-0.390498 -0.684582,-0.897006 -0.684582,-0.897006 L 10.646223,4.9140705 c 0,0 -0.510583,-0.4863495 -0.6988555,-0.4309579 C 9.750752,4.5409992 9.4999631,5.283588 9.4999631,5.283588 L 3.1527085,26.20228 c 0,0 -0.147313,0.589128 -0.083436,0.852614 z M 10.836272,7.0290759 c 1.400921,2.981e-4 2.536522,2.6871267 2.536482,6.0013501 -2.01e-4,3.313803 -1.13572,6.000012 -2.536482,6.000313 C 9.4351101,19.031736 8.2989505,16.345185 8.2987504,13.030426 8.2987099,9.7152454 9.4349296,7.0280167 10.836272,7.0290759 Z m 6.021968,6.0941871 c 1.400763,3.01e-4 2.536284,2.686491 2.536483,6.000292 4.1e-5,3.314223 -1.13556,6.001051 -2.536483,6.001351 -1.40094,-2.59e-4 -2.536541,-2.687128 -2.5365,-6.001351 1.98e-4,-3.313822 1.13574,-6.000031 2.5365,-6.000292 z m -8.7441287,5.966259 c 1.4013415,-0.0011 2.5375617,2.68617 2.5375207,6.00135 4.1e-5,3.315161 -1.1361792,6.002387 -2.5375207,6.00133 -1.4009412,-2.6e-4 -2.5365421,-2.687107 -2.5365016,-6.00133 -4.05e-5,-3.314222 1.1355604,-6.00109 2.5365016,-6.00135 z m 5.9652217,6.069418 c 1.401161,-9.98e-4 2.53732,2.685549 2.53752,6.00031 3.9e-5,3.315181 -1.136178,6.002408 -2.53752,6.001351 -1.400921,-3e-4 -2.536522,-2.687128 -2.536482,-6.001351 1.99e-4,-3.313803 1.135719,-6.000012 2.536482,-6.00031 z"
       sodipodi:nodetypes="csssccsssssccccssssscccssccsccccccssscccsccscccsssscccccccccccccccccccsccsccsccsccsscssscccsccsccsccscccccccccccccscccccccc" /><ellipse
       class="ink"
       style="fill-opacity:1.0;stroke:none;stroke-width:1.19765;stroke-linecap:round;stroke-linejoin:round;stroke-dasharray:none;stroke-opacity:1;paint-order:stroke fill markers;fill:url(#linearGradient18388)"
       id="ellipse62842"
       cx="14.037941"
       cy="31.283522"
       rx="2.2020147"
       ry="5.3613591" /><path
       class="ink"
       style="fill-opacity:1.0;stroke:none;stroke-width:0.528133px;stroke-linecap:butt;stroke-linejoin:miter;stroke-opacity:1;fill:url(#linearGradient18392)"
       d="m 13.070424,13.354672 a 2.2020145,5.3613587 0 0 1 -2.202015,5.361361 2.2020145,5.3613587 0 0 1 -2.2020175,-5.361361 2.2020145,5.3613587 0 0 1 2.2020175,-5.361361 2.2020145,5.3613587 0 0 1 2.202015,5.361361 z"
       id="path62892" /><path
       class="ink"
       style="fill-opacity:1.0;stroke:none;stroke-width:0.528133px;stroke-linecap:butt;stroke-linejoin:miter;stroke-opacity:1;fill:url(#linearGradient18390)"
       d="m 19.020534,19.229848 a 2.2020145,5.3613587 0 0 1 -2.202016,5.36136 2.2020145,5.3613587 0 0 1 -2.202015,-5.36136 2.2020145,5.3613587 0 0 1 2.202015,-5.361361 2.2020145,5.3613587 0 0 1 2.202016,5.361361 z"
       id="path62890" /><path
       class="ink"
       style="fill-opacity:1.0;stroke:none;stroke-width:0.528133px;stroke-linecap:butt;stroke-linejoin:miter;stroke-opacity:1;fill:url(#linearGradient18386)"
       d="M 10.247722,25.37903 A 2.2020145,5.3613587 0 0 1 8.0457054,30.74037 2.2020145,5.3613587 0 0 1 5.8436899,25.37903 2.2020145,5.3613587 0 0 1 8.0457054,20.017667 2.2020145,5.3613587 0 0 1 10.247722,25.37903 Z"
       id="path62886" /><path
       class="ink"
       style="fill-opacity:1.0;stroke:none;stroke-width:0.528133px;stroke-linecap:butt;stroke-linejoin:miter;stroke-opacity:1;fill:url(#linearGradient18384)"
       d="M 7.5055216,44.310605 A 2.2020145,5.3613587 0 0 1 5.3035048,49.671966 2.2020145,5.3613587 0 0 1 3.101488,44.310605 2.2020145,5.3613587 0 0 1 5.3035048,38.949244 2.2020145,5.3613587 0 0 1 7.5055216,44.310605 Z"
       id="path62884" /><path
       class="ink"
       style="fill-opacity:1.0;stroke:none;stroke-width:0.528133px;stroke-linecap:butt;stroke-linejoin:miter;stroke-opacity:1;fill:url(#linearGradient18378)"
       d="m 45.17346,15.28464 2.483605,2.050432 1.587637,3.258212 -0.23492,3.973832 -1.423318,5.416812 6.304356,1.40671 3.053832,-0.453613 1.585821,-2.0763 0.551501,-2.942411 -0.267757,-1.762254 c 0,0 -1.516695,-1.544662 -1.844454,-1.589314 -0.327761,-0.0447 -5.030806,-0.981281 -5.030806,-0.981281 l -0.08704,-2.293898 -0.920442,-2.37392 -1.913799,-1.002679 z"
       id="path62882" /><path
       class="ink"
       style="fill-opacity:1.0;stroke:none;stroke-width:0.528133px;stroke-linecap:butt;stroke-linejoin:miter;stroke-opacity:1;fill:url(#linearGradient18380)"
       d="m 47.473204,32.461345 -2.360924,8.811139 7.317757,1.480585 2.737469,-0.946031 1.557515,-2.515404 -0.222186,-3.680625 -1.984082,-1.632029 z"
       id="path62880" /><path
       class="ink"
       style="fill-opacity:1.0;stroke:none;stroke-width:0.528133px;stroke-linecap:butt;stroke-linejoin:miter;stroke-opacity:1;fill:url(#linearGradient18382)"
       d="m 42.909045,46.49791 -1.867449,1.469108 -4.26149,0.358578 -1.010326,4.961724 4.45631,0.830736 3.234378,-1.381222 1.108414,-2.643092 -0.375506,-2.422385 z"
       id="path62860" /></g></svg>
