<?xml version="1.0" encoding="UTF-8" standalone="no"?>
<!-- Created with Inkscape (http://www.inkscape.org/) -->

<svg
   width="256"
   height="256"
   viewBox="0 0 67.733332 67.733333"
   version="1.1"
   id="svg11056"
   inkscape:version="1.2.1 (9c6d41e410, 2022-07-14, custom)"
   sodipodi:docname="s3_wave_breaker.svg"
   xml:space="preserve"
   xmlns:inkscape="http://www.inkscape.org/namespaces/inkscape"
   xmlns:sodipodi="http://sodipodi.sourceforge.net/DTD/sodipodi-0.dtd"
   xmlns:xlink="http://www.w3.org/1999/xlink"
   xmlns="http://www.w3.org/2000/svg"
   xmlns:svg="http://www.w3.org/2000/svg"><sodipodi:namedview
     id="namedview11058"
     pagecolor="#505050"
     bordercolor="#eeeeee"
     borderopacity="1"
     inkscape:showpageshadow="0"
     inkscape:pageopacity="0"
     inkscape:pagecheckerboard="0"
     inkscape:deskcolor="#505050"
     inkscape:document-units="mm"
     showgrid="false"
     inkscape:zoom="3.6176597"
     inkscape:cx="93.8452"
     inkscape:cy="99.097214"
     inkscape:window-width="1916"
     inkscape:window-height="1036"
     inkscape:window-x="0"
     inkscape:window-y="20"
     inkscape:window-maximized="1"
     inkscape:current-layer="layer1" /><defs
     id="defs11053"><linearGradient
       id="linearGradient20556"
       inkscape:swatch="solid"><stop
         style="stop-color:#000000;stop-opacity:1;"
         offset="0"
         id="stop20554" /></linearGradient><linearGradient
       id="linearGradient1211"
       inkscape:swatch="solid"><stop
         style="stop-color:#000000;stop-opacity:1;"
         offset="0"
         id="stop1209" /></linearGradient><linearGradient
       id="linearGradient800"
       inkscape:swatch="solid"><stop
         style="stop-color:#000000;stop-opacity:1;"
         offset="0"
         id="stop798" /></linearGradient><linearGradient
       inkscape:collect="always"
       xlink:href="#ink"
       id="linearGradient53700"
       x1="81.488098"
       y1="25.228107"
       x2="110.76418"
       y2="25.228107"
       gradientUnits="userSpaceOnUse"
       gradientTransform="matrix(1.996056,0,0,1.996056,-158.08511,-3.7663486)" /><linearGradient
       id="ink"
       inkscape:swatch="solid"><stop
         style="stop-opacity:1;"
         offset="0"
         id="stop53636" /></linearGradient><linearGradient
       inkscape:collect="always"
       xlink:href="#ink"
       id="linearGradient53705"
       gradientUnits="userSpaceOnUse"
       gradientTransform="matrix(1.269542,0,0,1.1260886,-88.1695,17.78177)"
       x1="81.488098"
       y1="25.228107"
       x2="110.76418"
       y2="25.228107" /><linearGradient
       inkscape:collect="always"
       xlink:href="#ink"
       id="linearGradient20558"
       x1="2.8770742"
       y1="47.305786"
       x2="64.535957"
       y2="47.305786"
       gradientUnits="userSpaceOnUse" /><linearGradient
       inkscape:collect="always"
       xlink:href="#ink"
       id="linearGradient20560"
       x1="14.214243"
       y1="46.543583"
       x2="52.892605"
       y2="46.543583"
       gradientUnits="userSpaceOnUse" /><linearGradient
       inkscape:collect="always"
       xlink:href="#ink"
       id="linearGradient20562"
       x1="27.015572"
       y1="38.859867"
       x2="40.730091"
       y2="38.859867"
       gradientUnits="userSpaceOnUse" /><linearGradient
       inkscape:collect="always"
       xlink:href="#ink"
       id="linearGradient20564"
       x1="22.858473"
       y1="12.857746"
       x2="45.845634"
       y2="12.857746"
       gradientUnits="userSpaceOnUse" /></defs><g
     inkscape:label="Layer 1"
     inkscape:groupmode="layer"
     id="layer1"><path
       class="ink"
       id="ellipse1022"
       style="opacity:1;fill-opacity:1.0;stroke:none;stroke-width:0.429395;stroke-opacity:1;paint-order:stroke fill markers;fill:url(#linearGradient20558)"
       d="M 23.548433 29.928923 A 30.829388 17.876015 0 0 0 3.2581991 49.608858 A 30.829388 17.876015 0 0 0 33.061548 64.678739 A 30.829388 17.876015 0 0 0 63.925814 50.345247 A 30.829388 17.876015 0 0 0 45.073735 30.189889 L 42.638224 33.749878 A 25.949629 13.303198 0 0 1 59.502828 46.210099 A 25.949629 13.303198 0 0 1 33.553507 59.513163 A 25.949629 13.303198 0 0 1 7.6036702 46.210099 A 25.949629 13.303198 0 0 1 25.716777 33.531287 L 23.548433 29.928923 z " /><path
       class="ink"
       id="path856"
       style="opacity:1;stroke-width:0.264583;paint-order:stroke fill markers;fill-opacity:1.0;fill:url(#linearGradient20560)"
       d="M 41.43313 37.059237 L 39.597066 39.169185 A 15.005784 7.6927853 0 0 1 48.55931 46.210099 A 15.005784 7.6927853 0 0 1 33.553507 53.902653 A 15.005784 7.6927853 0 0 1 18.547705 46.210099 A 15.005784 7.6927853 0 0 1 25.247555 39.806356 L 22.732463 37.896395 A 19.339306 9.9143858 0 0 0 15.324129 49.423857 A 19.339306 9.9143858 0 0 0 35.235059 55.990381 A 19.339306 9.9143858 0 0 0 52.625728 47.754708 A 19.339306 9.9143858 0 0 0 41.43313 37.059237 z " /><path
       id="path53785"
       class="ink"
       style="stroke-width:3.92225;stroke-linecap:round;stroke-linejoin:round;paint-order:stroke fill markers;stroke:none;fill-opacity:1.0;fill:url(#linearGradient20562)"
       d="m 38.649403,39.90002 c -0.80369,1.781278 -2.954412,4.010065 -4.862525,4.010065 -1.908116,0 -3.399557,-1.917787 -4.270914,-3.854726 -0.863584,-1.919661 -3.772108,-6.028114 -1.863994,-6.028114 0.847174,2e-6 10.399332,1.106335 12.350391,-0.05349 1.951044,-1.159834 -0.550027,4.146685 -1.352958,5.926277 z"
       sodipodi:nodetypes="sssszs" /><path
       id="path1132"
       class="ink"
       style="display:inline;opacity:1;stroke:none;stroke-width:0.278151;paint-order:stroke fill markers;fill-opacity:1.0;fill:url(#linearGradient20564)"
       d="m 45.845633,16.370816 c -5.342771,2.893244 -7.0123,3.454729 -11.193661,3.34784 -6.345656,-0.162216 -8.148119,-0.808365 -11.793499,-3.34784 0.8707,-5.422816 5.145851,-10.3860563 11.49358,-10.3860563 6.347729,0 10.605016,4.7515133 11.49358,10.3860563 z"
       sodipodi:nodetypes="cscsc" /><path
       id="path1189"
       style="fill:#34bec1;fill-opacity:1;stroke:none;stroke-width:0.264583px;stroke-linecap:butt;stroke-linejoin:miter;stroke-opacity:1"
       d="m 46.439289,18.876616 -3.150712,2.139404 -4.620906,0.785482 -7.730795,-0.0708 -5.161958,-0.626318 -3.459737,-2.050004 -1.092439,0.895553 4.459158,11.095963 1.818494,0.348299 -1.011825,-3.069063 3.732589,0.415995 -0.1757,3.140377 0.35295,0.0677 1.58595,0.0186 -0.145728,-3.315044 4.934583,-0.01964 -0.185519,3.388424 0.553455,0.0067 1.510502,-0.365869 -0.192236,-3.34915 3.458703,-0.35605 -1.151867,3.19257 0.341581,-0.08268 1.469678,-0.05064 1.280542,-2.777608 2.220536,-5.46685 1.179256,-3.44475 z m -1.994193,3.364653 -1.779736,3.720703 -3.553272,0.763777 0.629936,-3.565674 z m -19.917131,0.476973 4.571298,0.566374 0.529683,3.371887 -3.958931,-0.364319 z m 13.240019,0.677478 -0.568441,3.695898 -5.459098,-0.01292 -0.896069,-3.609082 z" /><g
       id="g4927"
       transform="translate(68.03152,-1.4204878)"><path
         id="ellipse2364"
         style="opacity:1;fill:#ffffff;fill-opacity:1;stroke:none;stroke-width:0.392758;stroke-opacity:1;paint-order:stroke fill markers"
         d="m -29.410091,32.707564 c -1.476785,0.299318 -3.171604,0.457861 -4.899959,0.45837 -1.61894,-3.03e-4 -3.210485,-0.139278 -4.621941,-0.403593 l -4.128252,-1.199715 1.887046,2.5309 c 4.411988,0.825278 9.815479,0.794472 14.140222,-0.08061 l 1.18829,-0.471712 0.538286,-2.002013 z"
         sodipodi:nodetypes="ccccccccc" /><path
         id="rect2471"
         style="opacity:1;fill:#ffffff;stroke-width:0.264583;paint-order:stroke fill markers"
         d="m -42.389816,31.931736 1.690633,0.308393 -0.04728,16.88716 h -1.643356 z"
         sodipodi:nodetypes="ccccc" /><path
         id="path4863"
         style="opacity:1;fill:#ffffff;fill-opacity:1;stroke:none;stroke-width:0.238717;stroke-opacity:1;paint-order:stroke fill markers"
         d="m -30.342851,42.657889 -0.762744,1.115933 a 6.8306446,4.331432 0 0 1 4.137732,3.980472 6.8306446,4.331432 0 0 1 -6.830591,4.331081 6.8306446,4.331432 0 0 1 -6.830591,-4.331081 6.8306446,4.331432 0 0 1 3.583244,-3.808373 l -0.920357,-1.067607 a 8.6876078,5.5089646 0 0 0 -4.198193,6.318851 8.6876078,5.5089646 0 0 0 8.762255,4.01795 8.6876078,5.5089646 0 0 0 8.14834,-4.507619 8.6876078,5.5089646 0 0 0 -5.089095,-6.049607 z" /></g></g></svg>
