<?xml version="1.0" encoding="UTF-8" standalone="no"?>
<!-- Created with Inkscape (http://www.inkscape.org/) -->

<svg
   width="256"
   height="256"
   viewBox="0 0 67.733332 67.733333"
   version="1.1"
   id="svg2899"
   inkscape:version="1.2.1 (9c6d41e410, 2022-07-14, custom)"
   sodipodi:docname="s3_zipcaster.svg"
   inkscape:export-filename="zipcaster.png"
   inkscape:export-xdpi="96"
   inkscape:export-ydpi="96"
   xml:space="preserve"
   xmlns:inkscape="http://www.inkscape.org/namespaces/inkscape"
   xmlns:sodipodi="http://sodipodi.sourceforge.net/DTD/sodipodi-0.dtd"
   xmlns:xlink="http://www.w3.org/1999/xlink"
   xmlns="http://www.w3.org/2000/svg"
   xmlns:svg="http://www.w3.org/2000/svg"><sodipodi:namedview
     id="namedview2901"
     pagecolor="#ffffff"
     bordercolor="#666666"
     borderopacity="1.0"
     inkscape:showpageshadow="2"
     inkscape:pageopacity="0.0"
     inkscape:pagecheckerboard="0"
     inkscape:deskcolor="#d1d1d1"
     inkscape:document-units="mm"
     showgrid="false"
     inkscape:zoom="3.3780943"
     inkscape:cx="162.36965"
     inkscape:cy="63.201314"
     inkscape:window-width="1916"
     inkscape:window-height="1036"
     inkscape:window-x="0"
     inkscape:window-y="20"
     inkscape:window-maximized="1"
     inkscape:current-layer="layer1" /><defs
     id="defs2896"><linearGradient
       id="linearGradient21084"
       inkscape:swatch="solid"><stop
         style="stop-color:#000000;stop-opacity:1;"
         offset="0"
         id="stop21082" /></linearGradient><linearGradient
       id="ink"
       inkscape:swatch="solid"><stop
         style="stop-opacity:1;"
         offset="0"
         id="stop53636" /></linearGradient><linearGradient
       inkscape:collect="always"
       xlink:href="#ink"
       id="linearGradient21086"
       x1="3.9568443"
       y1="34.298264"
       x2="63.872597"
       y2="34.298264"
       gradientUnits="userSpaceOnUse" /></defs><g
     inkscape:label="Layer 1"
     inkscape:groupmode="layer"
     id="layer1"><path
       id="path52984"
       class="ink"
       style="fill-opacity:1.0;stroke:none;stroke-width:0.535192px;stroke-linecap:butt;stroke-linejoin:miter;stroke-opacity:1;fill:url(#linearGradient21086)"
       d="m 54.320446,21.945879 0.07809,1.959852 2.712405,-1.186397 -0.226672,-2.097124 -1.075653,-0.288826 z m -4.69412,12.419685 2.163827,-2.758772 1.604893,-4.735067 1.188705,2.879647 0.397982,1.992893 0.378684,1.827666 c 0,0 -0.279789,1.4018 -0.643931,1.957049 -0.261788,0.399186 -1.108402,0.896575 -1.574409,1.034412 -0.736271,0.217775 -1.848639,-0.360058 -1.848639,-0.360058 z m -28.31138,-22.13468 c -2.518281,1.734465 -3.495598,5.001609 -4.231823,7.969447 -1.010999,4.075494 -0.147542,12.596197 -0.147542,12.596197 0,0 0.814417,4.875981 2.652646,6.148782 1.690346,1.170408 6.14319,0.631157 6.14319,0.631157 1.525456,0.250947 4.03153,-2.435173 5.035303,-2.816569 l -3.42976,2.969381 -3.82284,4.795089 c -2.983735,2.398409 -5.607856,4.986072 -9.4393,6.938355 0,0 -4.8196163,0.124743 -7.1825618,2.157113 -1.3229539,1.137872 -2.3929816,4.607542 -2.3929816,4.607542 0,0 -1.338839,4.604897 0.1902625,5.777223 1.7946012,1.375878 6.6058249,-1.544596 6.6058249,-1.544596 l 2.721807,-1.116821 c 0,0 2.681455,1.878903 4.21397,1.841816 0.457783,-0.01115 1.230683,-0.610421 1.230683,-0.610421 l -0.427273,-3.773087 1.384215,-3.327068 9.212347,-13.189043 6.395973,-0.924745 -1.312518,2.491142 -3.044627,2.04861 c 0,0 -1.614319,0.50101 -2.144509,1.105785 -0.612417,0.698565 -0.942134,2.622941 -0.942134,2.622941 0,0 1.032319,1.465538 1.708077,2.039873 0.961412,0.817117 2.946787,2.275905 2.946787,2.275905 l 1.471914,-0.32882 0.0047,-1.271366 1.94464,-1.410316 c 0,0 0.962195,-0.846431 1.273617,-1.39315 0.393205,-0.690295 0.692823,-2.280363 0.692823,-2.280363 l -0.04558,-2.635598 -0.344155,-0.527558 1.406921,-3.911333 c 0,0 3.198641,-1.819487 4.584244,-3.012636 1.360015,-1.171118 3.592131,-4.010853 3.592131,-4.010853 l 2.46585,-3.976719 1.422923,-4.592617 0.378461,-2.784212 2.399036,-2.290745 c 0,0 3.232401,-2.689256 3.668533,-3.776831 0.334932,-0.835228 -0.06108,-2.698959 -0.06108,-2.698959 0,0 -0.452981,-0.561504 -0.548093,-0.920424 -0.265711,-1.002767 0.264276,-3.0606981 0.264276,-3.0606981 0,0 1.892452,0.217039 2.787269,-0.03325 0.788358,-0.2205008 2.114532,-1.248981 2.114532,-1.248981 0,0 1.267047,-1.1027984 1.15438,-1.8092582 -0.086,-0.5389272 -0.772019,-0.8064718 -1.266305,-1.03782 C 61.748156,4.5340591 60.766663,4.4829334 59.830419,4.4029245 58.440144,4.2841033 56.965962,4.030286 55.645108,4.4801153 55.115687,4.6604262 54.62138,5.0236481 54.297331,5.4794942 53.934383,5.990045 53.602749,6.6609505 53.736172,7.272987 c 0.08657,0.3974459 0.540264,0.6083424 0.816089,0.9073231 0.268241,0.2907661 0.306472,0.423334 0.327933,0.8183608 0.04127,0.760852 -1.037483,1.8380501 -1.179523,2.2844511 -0.364242,1.14482 0.148069,2.614047 0.148069,2.614047 0,0 -1.835269,0.557755 -2.783791,0.643692 -0.942331,0.08539 -2.83551,-0.132023 -2.83551,-0.132023 0,0 -1.909927,1.108219 -2.695272,1.868751 -0.81702,0.791192 -2.033095,2.740063 -2.033095,2.740063 l -0.964319,3.240542 -1.13571,0.185469 c 0,0 -0.143416,-0.461388 -4.66e-4,-0.687775 0.08132,-0.128911 0.355889,-0.26991 0.355889,-0.26991 l 0.268079,-5.72022 c 0,0 -0.09527,-2.364377 -0.491495,-2.655763 -0.664201,-0.488415 -2.934688,-0.309306 -2.934688,-0.309306 0,0 -0.537166,0.183366 -0.709884,0.271365 -1.47118,0.749517 -8.109624,0.486125 -8.109624,0.486125 L 24.924,11.831982 c 0,0 -2.612289,-0.287646 -3.609093,0.398901 z"
       sodipodi:nodetypes="ccccccccccccssccsscscccccscsccscccccccscsccccsccccscccccscscscssssssssscscscccsccscsccss" /><path
       id="path52986"
       style="fill:#ffffff;fill-opacity:1;stroke:none;stroke-width:0.535192px;stroke-linecap:butt;stroke-linejoin:miter;stroke-opacity:1"
       d="m 32.361079,24.814918 c -0.754507,0.238377 -1.288002,0.928707 -1.857498,1.478052 -0.450332,0.434397 -0.966814,0.854007 -1.22091,1.425789 -0.422729,0.951255 -0.399315,3.097225 -0.399315,3.097225 l 0.150535,2.53067 -2.039386,1.759239 -4.08399,-0.662719 -2.130311,-0.04181 -0.582236,0.773522 -0.130675,1.14565 0.981534,1.109063 1.378766,0.971084 1.421608,0.443206 1.597207,-0.179785 0.963773,-0.28641 1.213588,-0.704532 -0.08883,-1.248091 2.485711,-2.081191 c 0,0 1.080786,-0.477742 1.639039,-0.668991 0.570549,-0.195462 1.242758,-0.149483 1.742503,-0.487112 0.593822,-0.401178 0.968289,-1.126517 1.373335,-1.71771 0.426842,-0.623012 0.887288,-1.217721 1.113448,-1.923068 0.330565,-1.030961 0.661314,-2.208877 0.310456,-3.233112 -0.19955,-0.582493 -0.709187,-1.083352 -1.266909,-1.34425 -0.7778,-0.36385 -1.752634,-0.413409 -2.571437,-0.154723 z m -0.06168,1.671434 c 0.688739,0.0045 1.421302,0.312028 1.903494,0.803836 0.344082,0.35094 0.498458,0.880236 0.546677,1.369342 0.05663,0.574484 -0.106026,1.164936 -0.315675,1.702794 -0.17938,0.460193 -0.451599,0.892927 -0.787105,1.255406 -0.357209,0.385926 -0.793055,0.712838 -1.267957,0.938677 -0.371899,0.176851 -0.787371,0.349935 -1.196858,0.306272 -0.458485,-0.04889 -0.990956,-0.228225 -1.237638,-0.617771 -0.492429,-0.777616 -0.185751,-1.849052 -0.05853,-2.760636 0.09498,-0.680591 0.221137,-1.401273 0.606267,-1.970391 0.17497,-0.258555 0.439423,-0.470823 0.728586,-0.588504 0,0 0.690532,-0.441563 1.078747,-0.439025 z m -9.006302,8.841144 1.665152,0.26551 1.672494,0.361672 0.03762,0.959586 -0.446347,0.691989 -1.503147,0.506968 -2.336229,-0.639722 -0.989906,-1.692342 0.694076,-0.414983 z"
       sodipodi:nodetypes="ssscccccccccccccccssssssssssssssssssscccccccccc" /><path
       style="fill:#ffffff;fill-opacity:1;stroke:none;stroke-width:0.535192px;stroke-linecap:butt;stroke-linejoin:miter;stroke-opacity:1"
       d="m 28.10055,39.484391 3.54583,-2.042849 5.4577,-4.866934 2.556347,-2.970312 2.854841,-5.569416 c 0,0 1.619538,1.809809 1.619538,1.913728 0,0.103906 0.889697,2.018376 0.884499,3.089603 0,0 0.131481,2.232541 -0.01619,3.334037 -0.120348,0.898013 -0.703502,2.625546 -0.703502,2.625546 l -1.882541,3.578916 -1.116229,0.748244 c 0,0 0.747861,-1.211696 1.059895,-1.850345 0.296642,-0.607147 0.617818,-1.217203 0.768434,-1.875949 0.212007,-0.927219 0.24241,-1.899537 0.173352,-2.848175 -0.04775,-0.656432 4.04e-4,-1.41353 -0.404131,-1.932709 -0.407691,-0.523246 -1.125979,-0.885032 -1.789169,-0.871144 -0.660416,0.01375 -1.282667,0.468384 -1.743806,0.941335 -0.615304,0.631064 -0.891039,1.531153 -1.196798,2.357803 -0.494667,1.337376 -0.769524,2.751195 -1.012036,4.156354 -0.196715,1.139815 -0.356657,3.451619 -0.356657,3.451619 l -0.673383,1.304909 -2.504867,0.569911 -3.181023,-0.407074 -1.725754,-1.457476 z"
       id="path53357"
       sodipodi:nodetypes="cccccssscccsssssssscccccc" /></g></svg>
