<?xml version="1.0" encoding="UTF-8" standalone="no"?>
<!-- Created with Inkscape (http://www.inkscape.org/) -->

<svg
   width="256"
   height="256"
   viewBox="0 0 67.733332 67.733333"
   version="1.1"
   id="svg76171"
   xml:space="preserve"
   inkscape:version="1.2.2 (b0a8486541, 2022-12-01)"
   sodipodi:docname="s3custom_ink_armor.svg"
   inkscape:export-filename="s3custom_ink_armor.png"
   inkscape:export-xdpi="96"
   inkscape:export-ydpi="96"
   xmlns:inkscape="http://www.inkscape.org/namespaces/inkscape"
   xmlns:sodipodi="http://sodipodi.sourceforge.net/DTD/sodipodi-0.dtd"
   xmlns:xlink="http://www.w3.org/1999/xlink"
   xmlns="http://www.w3.org/2000/svg"
   xmlns:svg="http://www.w3.org/2000/svg"><sodipodi:namedview
     id="namedview76173"
     pagecolor="#3c3c3c"
     bordercolor="#666666"
     borderopacity="1.0"
     inkscape:showpageshadow="2"
     inkscape:pageopacity="0"
     inkscape:pagecheckerboard="0"
     inkscape:deskcolor="#d1d1d1"
     inkscape:document-units="mm"
     showgrid="false"
     inkscape:zoom="1.4389974"
     inkscape:cx="-234.88576"
     inkscape:cy="56.289191"
     inkscape:window-width="1906"
     inkscape:window-height="1026"
     inkscape:window-x="5"
     inkscape:window-y="25"
     inkscape:window-maximized="1"
     inkscape:current-layer="layer1" /><defs
     id="defs76168"><linearGradient
       id="linearGradient1048"
       inkscape:swatch="solid"><stop
         style="stop-color:#3a0dcd;stop-opacity:1;"
         offset="0"
         id="stop1046" /></linearGradient><linearGradient
       id="linearGradient1269"
       inkscape:swatch="solid"><stop
         style="stop-color:#3a0dcd;stop-opacity:1;"
         offset="0"
         id="stop1267" /></linearGradient><linearGradient
       id="linearGradient1263"
       inkscape:swatch="solid"><stop
         style="stop-color:#ffffff;stop-opacity:1;"
         offset="0"
         id="stop1261" /></linearGradient><inkscape:path-effect
       effect="mirror_symmetry"
       start_point="33.241071,0.80917921"
       end_point="33.241071,24.926659"
       center_point="33.241071,12.867919"
       id="path-effect1259"
       is_visible="true"
       lpeversion="1.2"
       lpesatellites=""
       mode="free"
       discard_orig_path="false"
       fuse_paths="true"
       oposite_fuse="false"
       split_items="false"
       split_open="false"
       link_styles="false" /><inkscape:path-effect
       effect="mirror_symmetry"
       start_point="33.546363,4.7695169"
       end_point="33.546363,67.275427"
       center_point="33.546363,36.022472"
       id="path-effect476"
       is_visible="true"
       lpeversion="1.2"
       lpesatellites=""
       mode="free"
       discard_orig_path="false"
       fuse_paths="true"
       oposite_fuse="false"
       split_items="false"
       split_open="false"
       link_styles="false" /><inkscape:path-effect
       effect="mirror_symmetry"
       start_point="26.211769,27.103502"
       end_point="36.098884,27.103502"
       center_point="31.155327,27.103502"
       id="path-effect473"
       is_visible="true"
       lpeversion="1.2"
       lpesatellites=""
       mode="free"
       discard_orig_path="false"
       fuse_paths="true"
       oposite_fuse="true"
       split_items="false"
       split_open="false"
       link_styles="false" /><inkscape:path-effect
       effect="mirror_symmetry"
       start_point="30.479849,21.274615"
       end_point="30.479849,33.707778"
       center_point="30.479849,27.491197"
       id="path-effect375"
       is_visible="true"
       lpeversion="1.2"
       lpesatellites=""
       mode="free"
       discard_orig_path="false"
       fuse_paths="true"
       oposite_fuse="true"
       split_items="false"
       split_open="false"
       link_styles="false" /><linearGradient
       id="linearGradient876"
       inkscape:swatch="solid"><stop
         style="stop-color:#000000;stop-opacity:1;"
         offset="0"
         id="stop874" /></linearGradient><linearGradient
       id="linearGradient870"
       inkscape:swatch="solid"><stop
         style="stop-color:#000000;stop-opacity:1;"
         offset="0"
         id="stop867" /></linearGradient><linearGradient
       id="linearGradient865"
       inkscape:swatch="solid"><stop
         style="stop-color:#000000;stop-opacity:1;"
         offset="0"
         id="stop863" /></linearGradient><linearGradient
       id="ink"
       inkscape:swatch="solid"><stop
         style="stop-opacity:1;"
         offset="0"
         id="stop3084" /></linearGradient><linearGradient
       id="linearGradient3052"
       inkscape:swatch="gradient"><stop
         style="stop-color:#3a0dcd;stop-opacity:1;"
         offset="0"
         id="stop3048" /><stop
         style="stop-color:#3a0dcd;stop-opacity:0;"
         offset="1"
         id="stop3050" /></linearGradient><linearGradient
       id="linearGradient3038"
       inkscape:swatch="solid"><stop
         style="stop-color:#000000;stop-opacity:1;"
         offset="0"
         id="stop3036" /></linearGradient><linearGradient
       id="linearGradient1182"
       inkscape:swatch="gradient"><stop
         style="stop-color:#5220f2;stop-opacity:1;"
         offset="0"
         id="stop1178" /><stop
         style="stop-color:#330bb2;stop-opacity:1;"
         offset="1"
         id="stop1180" /></linearGradient><linearGradient
       id="linearGradient1004"
       inkscape:swatch="gradient"><stop
         style="stop-color:#3a0dcd;stop-opacity:1;"
         offset="0"
         id="stop1000" /><stop
         style="stop-color:#320bb1;stop-opacity:1;"
         offset="1"
         id="stop1002" /></linearGradient><linearGradient
       id="linearGradient78115"
       inkscape:swatch="solid"><stop
         style="stop-color:#3a0dcd;stop-opacity:1;"
         offset="0"
         id="stop78113" /></linearGradient><linearGradient
       id="linearGradient78103"
       inkscape:swatch="solid"><stop
         style="stop-color:#3a0dcd;stop-opacity:1;"
         offset="0"
         id="stop78101" /></linearGradient><linearGradient
       id="linearGradient78097"
       inkscape:swatch="solid"><stop
         style="stop-color:#ffffff;stop-opacity:1;"
         offset="0"
         id="stop78095" /></linearGradient><linearGradient
       inkscape:collect="always"
       xlink:href="#linearGradient865"
       id="linearGradient867"
       x1="12.903942"
       y1="38.067516"
       x2="53.534305"
       y2="38.067516"
       gradientUnits="userSpaceOnUse" /><linearGradient
       inkscape:collect="always"
       xlink:href="#linearGradient865"
       id="linearGradient869"
       x1="18.044435"
       y1="12.770744"
       x2="49.688899"
       y2="12.770744"
       gradientUnits="userSpaceOnUse" /><inkscape:path-effect
       effect="mirror_symmetry"
       start_point="30.479849,21.274615"
       end_point="30.479849,33.707778"
       center_point="30.479849,27.491197"
       id="path-effect375-3"
       is_visible="true"
       lpeversion="1.2"
       lpesatellites=""
       mode="free"
       discard_orig_path="false"
       fuse_paths="true"
       oposite_fuse="true"
       split_items="false"
       split_open="false"
       link_styles="false" /><inkscape:path-effect
       effect="mirror_symmetry"
       start_point="26.211769,27.103502"
       end_point="36.098884,27.103502"
       center_point="31.155327,27.103502"
       id="path-effect473-6"
       is_visible="true"
       lpeversion="1.2"
       lpesatellites=""
       mode="free"
       discard_orig_path="false"
       fuse_paths="true"
       oposite_fuse="true"
       split_items="false"
       split_open="false"
       link_styles="false" /><linearGradient
       inkscape:collect="always"
       xlink:href="#ink"
       id="linearGradient1271"
       x1="18.078438"
       y1="12.770059"
       x2="48.403706"
       y2="12.770059"
       gradientUnits="userSpaceOnUse" /><linearGradient
       inkscape:collect="always"
       xlink:href="#ink"
       id="linearGradient1050"
       x1="13.084544"
       y1="36.43924"
       x2="54.008183"
       y2="36.43924"
       gradientUnits="userSpaceOnUse" /></defs><g
     inkscape:label="Layer 1"
     inkscape:groupmode="layer"
     id="layer1"><path
       style="fill:url(#linearGradient1050);fill-opacity:1.0;stroke:none;stroke-width:0.264583px;stroke-linecap:butt;stroke-linejoin:miter;stroke-opacity:1"
       d="m 33.546363,5.4217069 -11.786037,2.4531763 0.127515,5.1859898 -1.29642,1.318974 c 0,0 -1.520035,-0.03896 -3.242539,0.828311 -0.78542,0.395456 -3.083865,2.558533 -2.777568,3.382822 0.397997,1.071068 3.019372,2.178544 3.019372,2.178544 l 8.154084,1.368924 -0.05282,2.834838 -4.466748,-0.05269 c 0,0 -3.141144,1.758801 -4.389144,3.023106 -1.562138,1.582546 -3.356362,4.252418 -3.712432,5.542597 -0.158733,0.575151 0.217343,1.799475 0.217343,1.799475 l 1.991827,4.603467 -1.277275,1.367478 c 0,0 -0.321802,1.37767 -0.103896,2.005409 0.182496,0.525741 0.928707,1.265608 0.928707,1.265608 0,0 2.686991,0.200832 3.816759,-0.349162 0.812604,-0.395592 1.511555,-1.100062 1.76912,-1.935256 0.165574,-0.536898 -0.09286,-1.698464 -0.116269,-1.834878 -0.02341,-0.136413 -2.174465,-0.824865 -2.174465,-0.824865 0,0 -1.841605,-3.640317 -1.320311,-5.427924 0.365012,-1.251689 1.603165,-2.246261 2.822502,-2.707971 1.029965,-0.390003 3.627204,0.06564 3.627204,0.06564 0,0 1.403696,5.355133 1.584184,8.101335 0.112637,1.713818 -0.52573,5.125656 -0.52573,5.125656 l -3.576748,16.322607 -1.24714,1.450347 -3.1352,0.579443 -0.631116,1.45169 8.632114,2.912374 4.367413,-17.398642 c 0,0 1.555563,-1.840219 2.857241,-2.435236 0.38494,-0.175962 1.361873,-0.376684 1.916473,-0.48181 0.5546,0.105126 1.531533,0.305848 1.916473,0.48181 1.301678,0.595017 2.857241,2.435236 2.857241,2.435236 l 4.367413,17.398642 8.632114,-2.912374 -0.631116,-1.45169 -3.1352,-0.579443 -1.24714,-1.450347 L 42.7294,44.740311 c 0,0 -0.638367,-3.411838 -0.52573,-5.125656 0.180488,-2.746202 1.584184,-8.101335 1.584184,-8.101335 0,0 2.597239,-0.455643 3.627204,-0.06564 1.219337,0.46171 2.45749,1.456282 2.822502,2.707971 0.521294,1.787607 -1.320311,5.427924 -1.320311,5.427924 0,0 -2.151055,0.688452 -2.174465,0.824865 -0.02341,0.136414 -0.281843,1.29798 -0.116269,1.834878 0.257565,0.835194 0.956516,1.539664 1.76912,1.935256 1.129768,0.549994 3.816759,0.349162 3.816759,0.349162 0,0 0.746211,-0.739867 0.928707,-1.265608 0.217906,-0.627739 -0.103896,-2.005409 -0.103896,-2.005409 l -1.277275,-1.367478 1.991827,-4.603467 c 0,0 0.376076,-1.224324 0.217343,-1.799475 -0.35607,-1.290179 -2.150294,-3.960051 -3.712432,-5.542597 -1.248,-1.264305 -4.389144,-3.023106 -4.389144,-3.023106 l -4.466748,0.05269 -0.05282,-2.834838 8.154084,-1.368924 c 0,0 2.621375,-1.107476 3.019372,-2.178544 0.306297,-0.824289 -1.992148,-2.987366 -2.777568,-3.382822 -1.722504,-0.867271 -3.242539,-0.828311 -3.242539,-0.828311 L 45.204885,13.060873 45.3324,7.8748832 Z"
       id="path425"
       sodipodi:nodetypes="ccccssccccssccsscssccsscscccccccsc"
       inkscape:path-effect="#path-effect476"
       inkscape:original-d="m 33.957735,5.3360829 -12.197409,2.5388003 0.127515,5.1859898 -1.29642,1.318974 c 0,0 -1.520035,-0.03896 -3.242539,0.828311 -0.78542,0.395456 -3.083865,2.558533 -2.777568,3.382822 0.397997,1.071068 3.019372,2.178544 3.019372,2.178544 l 8.154084,1.368924 -0.05282,2.834838 -4.466748,-0.05269 c 0,0 -3.141144,1.758801 -4.389144,3.023106 -1.562138,1.582546 -3.356362,4.252418 -3.712432,5.542597 -0.158733,0.575151 0.217343,1.799475 0.217343,1.799475 l 1.991827,4.603467 -1.277275,1.367478 c 0,0 -0.321802,1.37767 -0.103896,2.005409 0.182496,0.525741 0.928707,1.265608 0.928707,1.265608 0,0 2.686991,0.200832 3.816759,-0.349162 0.812604,-0.395592 1.511555,-1.100062 1.76912,-1.935256 0.165574,-0.536898 -0.09286,-1.698464 -0.116269,-1.834878 -0.02341,-0.136413 -2.174465,-0.824865 -2.174465,-0.824865 0,0 -1.841605,-3.640317 -1.320311,-5.427924 0.365012,-1.251689 1.603165,-2.246261 2.822502,-2.707971 1.029965,-0.390003 3.627204,0.06564 3.627204,0.06564 0,0 1.403696,5.355133 1.584184,8.101335 0.112637,1.713818 -0.52573,5.125656 -0.52573,5.125656 l -3.576748,16.322607 -1.24714,1.450347 -3.1352,0.579443 -0.631116,1.45169 8.632114,2.912374 4.367413,-17.398642 c 0,0 1.555563,-1.840219 2.857241,-2.435236 0.551325,-0.252019 2.317006,-0.554829 2.317006,-0.554829"
       class="UnoptimicedTransforms"
       transform="translate(-0.40066683,-0.05277465)" /><path
       style="fill:url(#linearGradient1271);fill-opacity:1;stroke:none;stroke-width:0.264583px;stroke-linecap:butt;stroke-linejoin:miter;stroke-opacity:1"
       d="m 33.241071,0.60224598 c -1.20337,0.082122 -3.227415,0.24466607 -4.382262,0.47237892 -2.102114,0.4144948 -4.429183,1.292386 -6.028421,2.1905727 -0.954434,0.5360425 -2.427074,1.9300423 -2.993497,2.9343397 -0.422744,0.7495462 -0.451385,1.7066179 -0.664047,2.8002225 -0.2311,1.1884182 -0.358847,2.8469272 -0.58597,4.3733262 -0.163956,1.101883 -0.359631,3.218795 -0.425044,4.330887 -0.09808,1.667383 -0.144763,4.508582 0.06196,5.010413 0.33828,0.8212 0.942274,1.64405 1.724266,2.031289 0.523065,0.25902 1.198939,0.203831 1.841186,0.13421 0.773649,-0.08387 1.411301,-0.751509 1.992896,-1.294719 0.43461,-0.405924 0.819602,-0.841764 1.040227,-1.371415 0.301491,-0.723784 0.463042,-1.556459 0.329301,-2.329035 -0.195091,-1.12697 -1.302862,-1.932294 -1.594438,-3.038235 -0.246427,-0.934692 -0.216537,-1.939603 -0.09358,-2.898382 0.108885,-0.849049 0.331138,-1.704177 0.727855,-2.462699 0.35707,-0.682716 1.446902,-1.8024651 1.446902,-1.8024651 l 7.602666,0.045467 7.602666,-0.045467 c 0,0 1.089832,1.1197491 1.446902,1.8024651 0.396717,0.758522 0.61897,1.61365 0.727855,2.462699 0.122957,0.958779 0.152847,1.96369 -0.09358,2.898382 -0.291576,1.105941 -1.399347,1.911265 -1.594438,3.038235 -0.133741,0.772576 0.02781,1.605251 0.329301,2.329035 0.220625,0.529651 0.605617,0.965491 1.040227,1.371415 0.581595,0.54321 1.219247,1.210849 1.992896,1.294719 0.642247,0.06962 1.318121,0.12481 1.841186,-0.13421 0.781992,-0.387239 1.385986,-1.210089 1.724266,-2.031289 0.206723,-0.501831 0.16004,-3.34303 0.06196,-5.010413 -0.06541,-1.112092 -0.261088,-3.229004 -0.425044,-4.330887 -0.227123,-1.526399 -0.35487,-3.184908 -0.58597,-4.3733262 C 47.096636,7.9061552 47.067995,6.9490835 46.645251,6.1995373 46.078828,5.1952399 44.606188,3.8012401 43.651754,3.2651976 42.052516,2.3670109 39.725447,1.4891197 37.623333,1.0746249 36.468486,0.84691205 34.444441,0.68436802 33.241071,0.60224598 Z"
       id="path1257"
       inkscape:path-effect="#path-effect1259"
       inkscape:original-d="m 34.2201,0.541248 c 0,0 -3.642893,0.19454313 -5.361291,0.5333769 -2.102114,0.4144948 -4.429183,1.292386 -6.028421,2.1905727 -0.954434,0.5360425 -2.427074,1.9300423 -2.993497,2.9343397 -0.422744,0.7495462 -0.451385,1.7066179 -0.664047,2.8002225 -0.2311,1.1884182 -0.358847,2.8469272 -0.58597,4.3733262 -0.163956,1.101883 -0.359631,3.218795 -0.425044,4.330887 -0.09808,1.667383 -0.144763,4.508582 0.06196,5.010413 0.33828,0.8212 0.942274,1.64405 1.724266,2.031289 0.523065,0.25902 1.198939,0.203831 1.841186,0.13421 0.773649,-0.08387 1.411301,-0.751509 1.992896,-1.294719 0.43461,-0.405924 0.819602,-0.841764 1.040227,-1.371415 0.301491,-0.723784 0.463042,-1.556459 0.329301,-2.329035 -0.195091,-1.12697 -1.302862,-1.932294 -1.594438,-3.038235 -0.246427,-0.934692 -0.216537,-1.939603 -0.09358,-2.898382 0.108885,-0.849049 0.331138,-1.704177 0.727855,-2.462699 0.35707,-0.682716 1.446902,-1.8024651 1.446902,-1.8024651 l 8.245237,0.04931"
       class="UnoptimicedTransforms"
       sodipodi:nodetypes="cssssssssssssssscc"
       transform="translate(0.29087164,0.0805991)" /><path
       style="fill:#f4f4f4;fill-opacity:1;stroke:none;stroke-width:0.264583px;stroke-linecap:butt;stroke-linejoin:miter;stroke-opacity:1"
       d="m 25.567482,27.103502 c 0.525189,-0.109116 1.78281,-0.37314 2.219882,-0.489163 0.491936,-0.130587 0.989053,-0.173414 1.381023,-0.643144 0.367702,-0.440647 0.789846,-1.40465 0.896477,-1.900438 0.147634,-0.686435 0.310441,-1.452873 0.414985,-1.946334 0.104544,0.493461 0.267351,1.259899 0.414985,1.946334 0.106631,0.495788 0.528775,1.459791 0.896477,1.900438 0.39197,0.46973 0.889087,0.512557 1.381023,0.643144 0.437072,0.116023 1.694693,0.380047 2.219882,0.489163 -0.525189,0.109116 -1.78281,0.37314 -2.219882,0.489163 -0.491936,0.130587 -0.989053,0.173414 -1.381023,0.643144 -0.367702,0.440647 -0.789846,1.40465 -0.896477,1.900438 -0.147634,0.686435 -0.310441,1.452873 -0.414985,1.946334 -0.104544,-0.493461 -0.267351,-1.259899 -0.414985,-1.946334 -0.106631,-0.495788 -0.528775,-1.459791 -0.896477,-1.900438 -0.39197,-0.46973 -0.889087,-0.512557 -1.381023,-0.643144 -0.437072,-0.116023 -1.694693,-0.380047 -2.219882,-0.489163 z"
       id="path373"
       inkscape:path-effect="#path-effect375;#path-effect473"
       inkscape:original-d="m 30.369969,21.604943 c 0,0 0.282823,1.340425 0.524865,2.465814 0.106631,0.495788 0.528775,1.459791 0.896477,1.900438 0.39197,0.46973 0.889087,0.512557 1.381023,0.643144 0.55819,0.148174 2.454711,0.537742 2.454711,0.537742"
       class="UnoptimicedTransforms"
       sodipodi:nodetypes="csssc"
       transform="matrix(0.9934803,0,0,1,-1.9831046,-12.947148)" /><path
       style="fill:#f4f4f4;fill-opacity:1;stroke:none;stroke-width:0.264583px;stroke-linecap:butt;stroke-linejoin:miter;stroke-opacity:1"
       d="m 25.567482,27.103502 c 0.525189,-0.109116 1.78281,-0.37314 2.219882,-0.489163 0.491936,-0.130587 0.989053,-0.173414 1.381023,-0.643144 0.367702,-0.440647 0.789846,-1.40465 0.896477,-1.900438 0.147634,-0.686435 0.310441,-1.452873 0.414985,-1.946334 0.104544,0.493461 0.267351,1.259899 0.414985,1.946334 0.106631,0.495788 0.528775,1.459791 0.896477,1.900438 0.39197,0.46973 0.889087,0.512557 1.381023,0.643144 0.437072,0.116023 1.694693,0.380047 2.219882,0.489163 -0.525189,0.109116 -1.78281,0.37314 -2.219882,0.489163 -0.491936,0.130587 -0.989053,0.173414 -1.381023,0.643144 -0.367702,0.440647 -0.789846,1.40465 -0.896477,1.900438 -0.147634,0.686435 -0.310441,1.452873 -0.414985,1.946334 -0.104544,-0.493461 -0.267351,-1.259899 -0.414985,-1.946334 -0.106631,-0.495788 -0.528775,-1.459791 -0.896477,-1.900438 -0.39197,-0.46973 -0.889087,-0.512557 -1.381023,-0.643144 -0.437072,-0.116023 -1.694693,-0.380047 -2.219882,-0.489163 z"
       id="path373-7"
       inkscape:path-effect="#path-effect375-3;#path-effect473-6"
       inkscape:original-d="m 30.369969,21.604943 c 0,0 0.282823,1.340425 0.524865,2.465814 0.106631,0.495788 0.528775,1.459791 0.896477,1.900438 0.39197,0.46973 0.889087,0.512557 1.381023,0.643144 0.55819,0.148174 2.454711,0.537742 2.454711,0.537742"
       class="UnoptimicedTransforms"
       sodipodi:nodetypes="csssc"
       transform="matrix(0.9934803,0,0,1,6.9060818,-12.952226)" /></g></svg>
