<?xml version="1.0" encoding="UTF-8" standalone="no"?>
<!-- Created with Inkscape (http://www.inkscape.org/) -->

<svg
   width="256"
   height="256"
   viewBox="0 0 67.733332 67.733333"
   version="1.1"
   id="svg5"
   xml:space="preserve"
   inkscape:version="1.2.2 (b0a8486541, 2022-12-01)"
   sodipodi:docname="superchumlreal.svg"
   inkscape:export-filename="s3custom_super_chumpng"
   inkscape:export-xdpi="96"
   inkscape:export-ydpi="96"
   xmlns:inkscape="http://www.inkscape.org/namespaces/inkscape"
   xmlns:sodipodi="http://sodipodi.sourceforge.net/DTD/sodipodi-0.dtd"
   xmlns:xlink="http://www.w3.org/1999/xlink"
   xmlns="http://www.w3.org/2000/svg"
   xmlns:svg="http://www.w3.org/2000/svg"><sodipodi:namedview
     id="namedview7"
     pagecolor="#505050"
     bordercolor="#eeeeee"
     borderopacity="1"
     inkscape:showpageshadow="0"
     inkscape:pageopacity="0"
     inkscape:pagecheckerboard="0"
     inkscape:deskcolor="#505050"
     inkscape:document-units="mm"
     showgrid="false"
     inkscape:zoom="2.2425443"
     inkscape:cx="-19.620571"
     inkscape:cy="117.2775"
     inkscape:window-width="1906"
     inkscape:window-height="1026"
     inkscape:window-x="5"
     inkscape:window-y="25"
     inkscape:window-maximized="1"
     inkscape:current-layer="layer1" /><defs
     id="defs2"><linearGradient
       id="linearGradient916"
       inkscape:swatch="solid"><stop
         style="stop-color:#3a0dcd;stop-opacity:1;"
         offset="0"
         id="stop914" /></linearGradient><linearGradient
       id="linearGradient910"
       inkscape:swatch="solid"><stop
         style="stop-color:#3a0dcd;stop-opacity:1;"
         offset="0"
         id="stop908" /></linearGradient><linearGradient
       id="linearGradient904"
       inkscape:swatch="solid"><stop
         style="stop-color:#3a0dcd;stop-opacity:1;"
         offset="0"
         id="stop902" /></linearGradient><linearGradient
       id="linearGradient898"
       inkscape:swatch="solid"><stop
         style="stop-color:#3a0dcd;stop-opacity:1;"
         offset="0"
         id="stop896" /></linearGradient><linearGradient
       id="linearGradient892"
       inkscape:swatch="solid"><stop
         style="stop-opacity:1;"
         offset="0"
         id="stop890" /></linearGradient><linearGradient
       id="ink"
       inkscape:swatch="solid"><stop
         style="stop-opacity:1;"
         offset="0"
         id="stop884" /></linearGradient><inkscape:path-effect
       effect="mirror_symmetry"
       start_point="30.640239,55.933405"
       end_point="30.640239,61.7162"
       center_point="30.640239,58.824802"
       id="path-effect20660"
       is_visible="true"
       lpeversion="1.2"
       lpesatellites=""
       mode="free"
       discard_orig_path="false"
       fuse_paths="true"
       oposite_fuse="false"
       split_items="false"
       split_open="false"
       link_styles="false" /><inkscape:path-effect
       effect="mirror_symmetry"
       start_point="30.635876,56.124025"
       end_point="30.635876,61.616171"
       center_point="30.635876,58.870098"
       id="path-effect18146"
       is_visible="true"
       lpeversion="1.2"
       lpesatellites=""
       mode="free"
       discard_orig_path="false"
       fuse_paths="true"
       oposite_fuse="false"
       split_items="false"
       split_open="false"
       link_styles="false" /><inkscape:path-effect
       effect="mirror_symmetry"
       start_point="30.523805,39.379174"
       end_point="30.523805,50.15605"
       center_point="30.523805,44.767612"
       id="path-effect12287"
       is_visible="true"
       lpeversion="1.2"
       lpesatellites=""
       mode="free"
       discard_orig_path="false"
       fuse_paths="true"
       oposite_fuse="false"
       split_items="false"
       split_open="false"
       link_styles="false" /><inkscape:path-effect
       effect="mirror_symmetry"
       start_point="30.773017,30.72965"
       end_point="30.773017,35.345217"
       center_point="30.773017,33.037433"
       id="path-effect8642"
       is_visible="true"
       lpeversion="1.2"
       lpesatellites=""
       mode="free"
       discard_orig_path="false"
       fuse_paths="true"
       oposite_fuse="false"
       split_items="false"
       split_open="false"
       link_styles="false" /><inkscape:path-effect
       effect="mirror_symmetry"
       start_point="30.773017,30.72965"
       end_point="30.773017,35.345217"
       center_point="30.773017,33.037433"
       id="path-effect6401"
       is_visible="true"
       lpeversion="1.2"
       lpesatellites=""
       mode="free"
       discard_orig_path="false"
       fuse_paths="true"
       oposite_fuse="false"
       split_items="false"
       split_open="false"
       link_styles="false" /><inkscape:path-effect
       effect="mirror_symmetry"
       start_point="30.523805,39.379174"
       end_point="30.523805,50.15605"
       center_point="30.523805,44.767612"
       id="path-effect12287-5"
       is_visible="true"
       lpeversion="1.2"
       lpesatellites=""
       mode="free"
       discard_orig_path="false"
       fuse_paths="true"
       oposite_fuse="false"
       split_items="false"
       split_open="false"
       link_styles="false" /><inkscape:path-effect
       effect="mirror_symmetry"
       start_point="30.640239,55.933405"
       end_point="30.640239,61.7162"
       center_point="30.640239,58.824802"
       id="path-effect20660-3"
       is_visible="true"
       lpeversion="1.2"
       lpesatellites=""
       mode="free"
       discard_orig_path="false"
       fuse_paths="true"
       oposite_fuse="false"
       split_items="false"
       split_open="false"
       link_styles="false" /><inkscape:path-effect
       effect="mirror_symmetry"
       start_point="30.523805,39.379174"
       end_point="30.523805,50.15605"
       center_point="30.523805,44.767612"
       id="path-effect12287-0"
       is_visible="true"
       lpeversion="1.2"
       lpesatellites=""
       mode="free"
       discard_orig_path="false"
       fuse_paths="true"
       oposite_fuse="false"
       split_items="false"
       split_open="false"
       link_styles="false" /><inkscape:path-effect
       effect="mirror_symmetry"
       start_point="30.640239,55.933405"
       end_point="30.640239,61.7162"
       center_point="30.640239,58.824802"
       id="path-effect20660-6"
       is_visible="true"
       lpeversion="1.2"
       lpesatellites=""
       mode="free"
       discard_orig_path="false"
       fuse_paths="true"
       oposite_fuse="false"
       split_items="false"
       split_open="false"
       link_styles="false" /><linearGradient
       inkscape:collect="always"
       xlink:href="#ink"
       id="linearGradient888"
       x1="13.037417"
       y1="24.852352"
       x2="48.114345"
       y2="24.852352"
       gradientUnits="userSpaceOnUse" /><linearGradient
       inkscape:collect="always"
       xlink:href="#ink"
       id="linearGradient894"
       x1="21.050383"
       y1="44.692818"
       x2="39.996494"
       y2="44.692818"
       gradientUnits="userSpaceOnUse" /><linearGradient
       inkscape:collect="always"
       xlink:href="#ink"
       id="linearGradient900"
       x1="41.71714"
       y1="40.462887"
       x2="56.252335"
       y2="40.462887"
       gradientUnits="userSpaceOnUse" /><linearGradient
       inkscape:collect="always"
       xlink:href="#ink"
       id="linearGradient906"
       x1="21.050383"
       y1="44.692818"
       x2="39.996494"
       y2="44.692818"
       gradientUnits="userSpaceOnUse" /><linearGradient
       inkscape:collect="always"
       xlink:href="#ink"
       id="linearGradient912"
       x1="4.9932084"
       y1="40.040936"
       x2="19.781546"
       y2="40.040936"
       gradientUnits="userSpaceOnUse" /><linearGradient
       inkscape:collect="always"
       xlink:href="#ink"
       id="linearGradient918"
       x1="21.050383"
       y1="44.692818"
       x2="39.996494"
       y2="44.692818"
       gradientUnits="userSpaceOnUse" /></defs><g
     inkscape:label="Layer 1"
     inkscape:groupmode="layer"
     id="layer1"><path
       id="path354-5"
       style="fill:url(#linearGradient912);fill-opacity:1.0;stroke-width:0.924308;-inkscape-stroke:none;paint-order:stroke fill markers;stop-color:#000000"
       d="m 12.387376,32.646766 a 7.3941261,7.3941261 0 0 0 -7.3941678,7.394168 7.3941261,7.3941261 0 0 0 7.3941678,7.394169 7.3941261,7.3941261 0 0 0 7.394169,-7.394169 7.3941261,7.3941261 0 0 0 -7.394169,-7.394168 z M 8.7638226,40.928739 A 1.2850272,1.2850272 0 0 1 10.048798,42.213933 1.2850272,1.2850272 0 0 1 8.7638226,43.49891 1.2850272,1.2850272 0 0 1 7.4788462,42.213933 1.2850272,1.2850272 0 0 1 8.7638226,40.928739 Z m 7.4423164,0.07974 a 1.2850272,1.2850272 0 0 1 1.284977,1.285195 1.2850272,1.2850272 0 0 1 -1.284977,1.284976 1.2850272,1.2850272 0 0 1 -1.284976,-1.284976 1.2850272,1.2850272 0 0 1 1.284976,-1.285195 z m -7.4423164,0.297822 a 0.90758657,0.90758657 0 0 0 -0.9076315,0.907631 0.90758657,0.90758657 0 0 0 0.9076315,0.907414 0.90758657,0.90758657 0 0 0 0.907631,-0.907414 0.90758657,0.90758657 0 0 0 -0.907631,-0.907631 z m 7.4423164,0.07974 a 0.90758657,0.90758657 0 0 0 -0.907631,0.907632 0.90758657,0.90758657 0 0 0 0.907631,0.907413 0.90758657,0.90758657 0 0 0 0.907632,-0.907413 0.90758657,0.90758657 0 0 0 -0.907632,-0.907632 z M 8.7956312,41.70609 A 0.56004644,0.56004644 0 0 1 9.355548,42.266221 0.56004644,0.56004644 0 0 1 8.7956312,42.826138 0.56004644,0.56004644 0 0 1 8.2354959,42.266221 0.56004644,0.56004644 0 0 1 8.7956312,41.706087 Z m 7.4423168,0.07996 a 0.56004644,0.56004644 0 0 1 0.560135,0.559915 0.56004644,0.56004644 0 0 1 -0.560135,0.560135 0.56004644,0.56004644 0 0 1 -0.560135,-0.560135 0.56004644,0.56004644 0 0 1 0.560135,-0.559915 z m -4.780426,0.726148 c 0.05837,1.93e-4 0.11679,0.0065 0.17255,0.01612 0.179993,0.03111 0.31908,0.208866 0.491071,0.270373 0.120276,0.04301 0.365728,0.05287 0.399786,0.05403 0.03406,-0.0011 0.279726,-0.01097 0.400002,-0.05403 0.171993,-0.0615 0.311079,-0.239268 0.491071,-0.270373 0.148706,-0.0257 0.316478,-0.02636 0.450549,0.04292 0.171984,0.08887 0.325552,0.253808 0.379741,0.439655 0.06349,0.217774 -0.04641,0.532467 -0.09826,0.673425 -0.104746,0.284745 -0.225166,0.339982 -0.410897,0.477345 -0.138391,0.102356 -0.315431,0.206519 -0.52789,0.255557 -0.179996,0.04155 -0.684319,0.05686 -0.684319,0.05686 0,0 -0.504104,-0.01532 -0.6841,-0.05686 -0.212459,-0.04904 -0.389499,-0.153206 -0.52789,-0.255562 -0.185731,-0.137363 -0.306156,-0.1926 -0.410897,-0.477345 -0.05185,-0.140958 -0.161753,-0.455651 -0.09826,-0.673425 0.05419,-0.185847 0.207537,-0.350788 0.379524,-0.439655 0.08379,-0.04329 0.180938,-0.05936 0.278215,-0.05904 z m 1.772127,0.327453 c -0.03888,1.22e-4 -0.07789,0.0043 -0.115034,0.01073 -0.119899,0.02072 -0.212665,0.139422 -0.327236,0.180394 -0.08012,0.02865 -0.243763,0.03496 -0.26645,0.03573 -0.02269,-7.77e-4 -0.186113,-0.0071 -0.266232,-0.03573 -0.114571,-0.04097 -0.207339,-0.159673 -0.327236,-0.180394 -0.03715,-0.0065 -0.07594,-0.01036 -0.114815,-0.01048 -0.0648,-2.15e-4 -0.129587,0.01036 -0.185406,0.03922 -0.114559,0.0592 -0.216628,0.169011 -0.252724,0.292812 -0.0423,0.145067 0.03082,0.35469 0.06536,0.448588 0.06977,0.189678 0.149919,0.226579 0.273642,0.318085 0.09219,0.06818 0.210109,0.137485 0.351636,0.170153 0.119898,0.02767 0.455776,0.0379 0.455776,0.0379 0,0 0.336091,-0.01024 0.455995,-0.0379 0.141525,-0.03267 0.259448,-0.101965 0.351636,-0.170153 0.123722,-0.09151 0.203869,-0.128407 0.27364,-0.318085 0.03454,-0.09389 0.107659,-0.303521 0.06537,-0.448588 -0.0361,-0.123801 -0.138161,-0.233616 -0.252726,-0.292812 -0.05582,-0.02884 -0.120386,-0.03963 -0.185186,-0.03943 z" /><rect
       style="fill:#35bfc2;fill-opacity:1;stroke:none;stroke-width:0.885358;-inkscape-stroke:none;paint-order:stroke fill markers;stop-color:#000000"
       id="rect16318-6"
       width="1.2364475"
       height="2.3631787"
       x="11.865673"
       y="50.414753" /><path
       id="path10832-2"
       style="fill:url(#linearGradient918);fill-opacity:1.0;stroke-width:2.1;paint-order:stroke fill markers;stop-color:#000000"
       d="m 22.296875,39.230469 c -1.40851,0 -1.240234,1.225536 -1.240234,2.554687 0,1.329151 0.581724,2.470703 1.990234,2.470703 0.492579,0 1.294025,-1.032026 2.228516,-0.941406 0.720739,0.06989 2.150492,1.17096 2.583984,1.341797 0.09703,0.03824 1.086416,0.900264 1.191406,1.453125 0.04123,0.217085 -0.578155,1.261347 -0.912109,1.568359 -0.536678,0.493381 -1.397295,0.158034 -1.833984,0.626954 -0.535117,0.574612 -0.143497,1.572859 0.21875,1.568359 0.206497,-0.0026 1.572448,0.481095 2.09375,0.1875 0.401261,-0.22599 1.663638,-0.384967 1.90625,-0.414063 0.242611,0.0291 1.506941,0.188073 1.908203,0.414063 0.521302,0.293595 1.885298,-0.190052 2.091797,-0.1875 0.362246,0.0045 0.755819,-0.993747 0.220703,-1.568359 -0.436689,-0.46892 -1.297307,-0.133573 -1.833985,-0.626954 -0.333954,-0.307012 -0.953334,-1.351274 -0.912109,-1.568359 0.10499,-0.552861 1.092425,-1.414887 1.189453,-1.453125 0.433492,-0.170837 1.863245,-1.271906 2.583984,-1.341797 0.934491,-0.09062 1.735937,0.941406 2.228516,0.941406 1.40851,0 1.990234,-1.141552 1.990234,-2.470703 0,-1.329151 0.168276,-2.554687 -1.240234,-2.554687 -1.408511,0 -7.320312,2.626953 -7.320312,2.626953 l -0.90625,0.277344 -0.904297,-0.277344 c 0,0 -5.913755,-2.626953 -7.322266,-2.626953 z"
       sodipodi:nodetypes="ccsssssssssscc"
       inkscape:path-effect="#path-effect12287-5"
       inkscape:original-d="m 30.591591,42.156467 -0.02727,7.485009 c 0,0 -1.503126,0.169617 -1.947751,0.420029 -0.521302,0.293595 -1.885814,-0.190579 -2.092312,-0.188027 -0.362247,0.0045 -0.755065,-0.994117 -0.219949,-1.56873 0.436689,-0.46892 1.297327,-0.134554 1.834005,-0.627935 0.333954,-0.307012 0.953266,-1.349711 0.912041,-1.566796 -0.10499,-0.552861 -1.093122,-1.414868 -1.19015,-1.453106 -0.433492,-0.170837 -1.864024,-1.272652 -2.584763,-1.342543 -0.934491,-0.09062 -1.735918,0.940831 -2.228497,0.940831 -1.40851,0 -1.98985,-1.140232 -1.98985,-2.469383 0,-1.329151 -0.168204,-2.55581 1.240306,-2.55581 1.408511,0 7.321149,2.626561 7.321149,2.626561 z"
       class="UnoptimicedTransforms"
       transform="matrix(0.42159727,0,0,0.42159727,-0.45279886,29.57267)" /><rect
       style="fill:#35bfc2;fill-opacity:1;stroke:none;stroke-width:0.885358;-inkscape-stroke:none;paint-order:stroke fill markers;stop-color:#000000"
       id="rect12548-9"
       width="2.6418898"
       height="0.61420745"
       x="11.199049"
       y="48.732185" /><ellipse
       style="fill:#35bfc2;fill-opacity:1;stroke:none;stroke-width:0.885358;-inkscape-stroke:none;paint-order:stroke fill markers;stop-color:#000000"
       id="path17150-1"
       cx="12.549942"
       cy="51.507236"
       rx="1.4727679"
       ry="0.66017067" /><rect
       style="fill:#35bfc2;fill-opacity:1;stroke:none;stroke-width:0.885358;-inkscape-stroke:none;paint-order:stroke fill markers;stop-color:#000000"
       id="rect17152-2"
       width="2.1667612"
       height="1.6374204"
       x="8.3367271"
       y="50.693241"
       ry="0.15402199" /><rect
       style="fill:#35bfc2;fill-opacity:1;stroke:none;stroke-width:0.885358;-inkscape-stroke:none;paint-order:stroke fill markers;stop-color:#000000"
       id="rect17154-7"
       width="0.8740744"
       height="0.40831009"
       x="10.425226"
       y="51.239902" /><rect
       style="fill:#ffffff;fill-opacity:1;stroke:none;stroke-width:0.89679;-inkscape-stroke:none;paint-order:stroke fill markers;stop-color:#000000"
       id="rect17156-0"
       width="3.0142241"
       height="1.3206637"
       x="11.010909"
       y="52.393799"
       ry="0.20439316"
       rx="0.38825253" /><rect
       style="fill:#ffffff;fill-opacity:1;stroke:none;stroke-width:0.885358;-inkscape-stroke:none;paint-order:stroke fill markers;stop-color:#000000"
       id="rect19773-3"
       width="1.0296406"
       height="2.9504652"
       x="20.328041"
       y="38.431541"
       ry="0.12854935" /><path
       style="fill:#f9fcfd;fill-opacity:1;stroke:none;stroke-width:0.264583px;stroke-linecap:butt;stroke-linejoin:miter;stroke-opacity:1"
       d="m 30.640239,61.7162 h -10.88351 v -0.930432 l 8.263328,-4.852363 2.620182,0.0018 2.620182,-0.0018 8.263328,4.852363 V 61.7162 Z"
       id="path20658-6"
       inkscape:path-effect="#path-effect20660-3"
       inkscape:original-d="m 30.640239,61.7162 h -10.88351 v -0.930432 l 8.263328,-4.852363 2.837195,0.0019"
       class="UnoptimicedTransforms"
       sodipodi:nodetypes="ccccc"
       transform="matrix(0.42159727,0,0,0.42159727,-0.50333105,29.56325)" /><path
       id="path354"
       style="fill:url(#linearGradient888);fill-opacity:1;stroke-width:2.19239;-inkscape-stroke:none;paint-order:stroke fill markers;stop-color:#000000"
       d="M 30.575881,7.3138876 A 17.538363,17.538363 0 0 0 13.037417,24.852352 17.538363,17.538363 0 0 0 30.575881,42.390816 17.538363,17.538363 0 0 0 48.114345,24.852352 17.538363,17.538363 0 0 0 30.575881,7.3138876 Z M 21.981057,26.958167 a 3.047997,3.047997 0 0 1 3.047876,3.048392 3.047997,3.047997 0 0 1 -3.047876,3.047876 3.047997,3.047997 0 0 1 -3.047876,-3.047876 3.047997,3.047997 0 0 1 3.047876,-3.048392 z m 17.652669,0.189135 a 3.047997,3.047997 0 0 1 3.047876,3.048393 3.047997,3.047997 0 0 1 -3.047876,3.047876 3.047997,3.047997 0 0 1 -3.047876,-3.047876 3.047997,3.047997 0 0 1 3.047876,-3.048393 z m -17.652669,0.706417 a 2.1527336,2.1527336 0 0 0 -2.15284,2.15284 2.1527336,2.1527336 0 0 0 2.15284,2.152324 2.1527336,2.1527336 0 0 0 2.15284,-2.152324 2.1527336,2.1527336 0 0 0 -2.15284,-2.15284 z m 17.652669,0.189136 a 2.1527336,2.1527336 0 0 0 -2.15284,2.15284 2.1527336,2.1527336 0 0 0 2.15284,2.152323 2.1527336,2.1527336 0 0 0 2.15284,-2.152323 2.1527336,2.1527336 0 0 0 -2.15284,-2.15284 z m -17.577221,0.759127 a 1.328392,1.328392 0 0 1 1.328084,1.328601 1.328392,1.328392 0 0 1 -1.328084,1.328084 1.328392,1.328392 0 0 1 -1.328602,-1.328084 1.328392,1.328392 0 0 1 1.328602,-1.328601 z m 17.652669,0.189652 a 1.328392,1.328392 0 0 1 1.328601,1.328084 1.328392,1.328392 0 0 1 -1.328601,1.328602 1.328392,1.328392 0 0 1 -1.328601,-1.328602 1.328392,1.328392 0 0 1 1.328601,-1.328084 z M 28.370331,30.71401 c 0.138442,4.58e-4 0.277006,0.01538 0.409277,0.03824 0.42693,0.07378 0.756835,0.495414 1.164787,0.641305 0.285289,0.102024 0.86748,0.125415 0.948263,0.128157 0.08078,-0.0027 0.66349,-0.02613 0.948779,-0.128157 0.407956,-0.145891 0.737857,-0.567525 1.164787,-0.641305 0.352719,-0.06095 0.750664,-0.06251 1.068668,0.101803 0.407939,0.210783 0.77219,0.602013 0.900721,1.04283 0.150605,0.516544 -0.110078,1.262976 -0.233061,1.597319 -0.248437,0.675394 -0.534078,0.806412 -0.974618,1.13223 -0.328254,0.24278 -0.748182,0.489847 -1.25212,0.606165 -0.426939,0.09855 -1.623156,0.134875 -1.623156,0.134875 0,0 -1.195701,-0.03633 -1.62264,-0.134875 -0.503938,-0.116318 -0.923866,-0.363385 -1.25212,-0.606165 -0.44054,-0.325818 -0.726181,-0.456836 -0.974618,-1.13223 -0.122983,-0.334343 -0.383669,-1.080775 -0.23306,-1.597319 0.128527,-0.440817 0.492264,-0.832047 0.900203,-1.04283 0.198755,-0.102697 0.429172,-0.140808 0.659908,-0.140043 z m 4.203361,0.776696 c -0.09222,2.89e-4 -0.184741,0.0101 -0.272852,0.02532 -0.28439,0.04915 -0.504425,0.330697 -0.77618,0.427881 -0.190038,0.06796 -0.578189,0.08292 -0.632002,0.08475 -0.05381,-0.0018 -0.441448,-0.01679 -0.631486,-0.08475 -0.271755,-0.09718 -0.49179,-0.378734 -0.77618,-0.427881 -0.08811,-0.01523 -0.180114,-0.0245 -0.272335,-0.0248 -0.153702,-5.09e-4 -0.307369,0.02461 -0.439767,0.09302 -0.27174,0.14041 -0.513827,0.400884 -0.599446,0.694531 -0.100326,0.344089 0.07311,0.8413 0.155029,1.064018 0.165493,0.449904 0.355596,0.537434 0.649056,0.754476 0.218665,0.161724 0.498366,0.326109 0.834058,0.403593 0.284399,0.06564 1.081071,0.08992 1.081071,0.08992 0,0 0.797188,-0.02427 1.081587,-0.08992 0.335692,-0.07748 0.615393,-0.241869 0.834058,-0.403593 0.29346,-0.217042 0.483563,-0.304572 0.649056,-0.754476 0.08192,-0.222718 0.255355,-0.719929 0.155029,-1.064018 -0.08562,-0.293647 -0.327706,-0.554121 -0.599446,-0.694531 -0.132398,-0.06841 -0.285542,-0.09401 -0.43925,-0.09353 z" /><rect
       style="fill:#35bfc2;fill-opacity:1;stroke:none;stroke-width:2.1;-inkscape-stroke:none;paint-order:stroke fill markers;stop-color:#000000"
       id="rect16318"
       width="2.9327693"
       height="5.6052985"
       x="29.338438"
       y="49.458347" /><ellipse
       style="fill:#35bfc2;fill-opacity:1;stroke:none;stroke-width:2.1;-inkscape-stroke:none;paint-order:stroke fill markers;stop-color:#000000"
       id="path17150"
       cx="30.961479"
       cy="52.049637"
       rx="3.493305"
       ry="1.5658798" /><rect
       style="fill:#35bfc2;fill-opacity:1;stroke:none;stroke-width:2.1;-inkscape-stroke:none;paint-order:stroke fill markers;stop-color:#000000"
       id="rect17152"
       width="5.1394095"
       height="3.8838496"
       x="20.968019"
       y="50.118893"
       ry="0.36532968" /><rect
       style="fill:#35bfc2;fill-opacity:1;stroke:none;stroke-width:2.1;-inkscape-stroke:none;paint-order:stroke fill markers;stop-color:#000000"
       id="rect17154"
       width="2.073245"
       height="0.96848369"
       x="25.921793"
       y="51.415543" /><rect
       style="fill:#ffffff;fill-opacity:1;stroke:none;stroke-width:2.12712;-inkscape-stroke:none;paint-order:stroke fill markers;stop-color:#000000"
       id="rect17156"
       width="7.1495342"
       height="3.1325243"
       x="27.310995"
       y="54.152496"
       ry="0.48480663"
       rx="0.92090857" /><path
       style="fill:#ffffff;fill-opacity:1;stroke:none;stroke-width:0.264583px;stroke-linecap:butt;stroke-linejoin:miter;stroke-opacity:1"
       d=""
       id="path18144"
       inkscape:path-effect="#path-effect18146"
       inkscape:original-d="m 30.686987,56.124025 -2.97565,-0.01872 -8.070556,4.649901 v 0.860965 h 10.995095"
       class="UnoptimicedTransforms"
       sodipodi:nodetypes="ccccc"
       transform="translate(-9.3356282,-13.597445)" /><rect
       style="fill:#ffffff;fill-opacity:1;stroke:none;stroke-width:2.1;-inkscape-stroke:none;paint-order:stroke fill markers;stop-color:#000000"
       id="rect19771"
       width="44.826893"
       height="2.9770737"
       x="12.221954"
       y="23.357502"
       ry="0.30491033" /><rect
       style="fill:#ffffff;fill-opacity:1;stroke:none;stroke-width:2.1;-inkscape-stroke:none;paint-order:stroke fill markers;stop-color:#000000"
       id="rect19773"
       width="2.4422374"
       height="6.9983025"
       x="49.410614"
       y="21.034975"
       ry="0.3049103" /><path
       style="fill:#f9fcfd;stroke:none;stroke-width:0.264583px;stroke-linecap:butt;stroke-linejoin:miter;stroke-opacity:1;fill-opacity:1"
       d="m 30.640239,61.7162 h -10.88351 v -0.930432 l 8.263328,-4.852363 2.620182,0.0018 2.620182,-0.0018 8.263328,4.852363 V 61.7162 Z"
       id="path20658"
       inkscape:path-effect="#path-effect20660"
       inkscape:original-d="m 30.640239,61.7162 h -10.88351 v -0.930432 l 8.263328,-4.852363 2.837195,0.0019"
       class="UnoptimicedTransforms"
       sodipodi:nodetypes="ccccc" /><rect
       style="fill:#ffffff;fill-opacity:1;stroke:none;stroke-width:0.885358;-inkscape-stroke:none;paint-order:stroke fill markers;stop-color:#000000"
       id="rect19771-9"
       width="18.898895"
       height="1.255126"
       x="4.6494122"
       y="39.410709"
       ry="0.12854935" /><path
       id="path10832"
       style="fill:url(#linearGradient894);fill-opacity:1.0;stroke-width:2.1;paint-order:stroke fill markers;stop-color:#000000"
       d="m 22.296875,39.230469 c -1.40851,0 -1.240234,1.225536 -1.240234,2.554687 0,1.329151 0.581724,2.470703 1.990234,2.470703 0.492579,0 1.294025,-1.032026 2.228516,-0.941406 0.720739,0.06989 2.150492,1.17096 2.583984,1.341797 0.09703,0.03824 1.086416,0.900264 1.191406,1.453125 0.04123,0.217085 -0.578155,1.261347 -0.912109,1.568359 -0.536678,0.493381 -1.397295,0.158034 -1.833984,0.626954 -0.535117,0.574612 -0.143497,1.572859 0.21875,1.568359 0.206497,-0.0026 1.572448,0.481095 2.09375,0.1875 0.401261,-0.22599 1.663638,-0.384967 1.90625,-0.414063 0.242611,0.0291 1.506941,0.188073 1.908203,0.414063 0.521302,0.293595 1.885298,-0.190052 2.091797,-0.1875 0.362246,0.0045 0.755819,-0.993747 0.220703,-1.568359 -0.436689,-0.46892 -1.297307,-0.133573 -1.833985,-0.626954 -0.333954,-0.307012 -0.953334,-1.351274 -0.912109,-1.568359 0.10499,-0.552861 1.092425,-1.414887 1.189453,-1.453125 0.433492,-0.170837 1.863245,-1.271906 2.583984,-1.341797 0.934491,-0.09062 1.735937,0.941406 2.228516,0.941406 1.40851,0 1.990234,-1.141552 1.990234,-2.470703 0,-1.329151 0.168276,-2.554687 -1.240234,-2.554687 -1.408511,0 -7.320312,2.626953 -7.320312,2.626953 l -0.90625,0.277344 -0.904297,-0.277344 c 0,0 -5.913755,-2.626953 -7.322266,-2.626953 z"
       sodipodi:nodetypes="ccsssssssssscc"
       inkscape:path-effect="#path-effect12287"
       inkscape:original-d="m 30.591591,42.156467 -0.02727,7.485009 c 0,0 -1.503126,0.169617 -1.947751,0.420029 -0.521302,0.293595 -1.885814,-0.190579 -2.092312,-0.188027 -0.362247,0.0045 -0.755065,-0.994117 -0.219949,-1.56873 0.436689,-0.46892 1.297327,-0.134554 1.834005,-0.627935 0.333954,-0.307012 0.953266,-1.349711 0.912041,-1.566796 -0.10499,-0.552861 -1.093122,-1.414868 -1.19015,-1.453106 -0.433492,-0.170837 -1.864024,-1.272652 -2.584763,-1.342543 -0.934491,-0.09062 -1.735918,0.940831 -2.228497,0.940831 -1.40851,0 -1.98985,-1.140232 -1.98985,-2.469383 0,-1.329151 -0.168204,-2.55581 1.240306,-2.55581 1.408511,0 7.321149,2.626561 7.321149,2.626561 z"
       class="UnoptimicedTransforms"
       transform="translate(0.11985917,0.02234342)" /><rect
       style="fill:#35bfc2;fill-opacity:1;stroke:none;stroke-width:2.1;-inkscape-stroke:none;paint-order:stroke fill markers;stop-color:#000000"
       id="rect12548"
       width="6.2663827"
       height="1.4568582"
       x="27.757248"
       y="45.467403" /><path
       id="path354-2"
       style="fill:url(#linearGradient900);fill-opacity:1.0;stroke-width:0.908487;-inkscape-stroke:none;paint-order:stroke fill markers;stop-color:#000000"
       d="m 48.984737,33.19529 a 7.2675548,7.2675548 0 0 0 -7.267598,7.267596 7.2675548,7.2675548 0 0 0 7.267598,7.267598 7.2675548,7.2675548 0 0 0 7.267596,-7.267598 7.2675548,7.2675548 0 0 0 -7.267596,-7.267596 z m -3.561527,8.140205 a 1.2630304,1.2630304 0 0 1 1.262979,1.263194 1.2630304,1.2630304 0 0 1 -1.262979,1.26298 1.2630304,1.2630304 0 0 1 -1.262981,-1.26298 1.2630304,1.2630304 0 0 1 1.262981,-1.263194 z m 7.314921,0.07837 a 1.2630304,1.2630304 0 0 1 1.26298,1.263195 1.2630304,1.2630304 0 0 1 -1.26298,1.26298 1.2630304,1.2630304 0 0 1 -1.262981,-1.26298 1.2630304,1.2630304 0 0 1 1.262981,-1.263195 z M 45.42321,41.70659 a 0.89205071,0.89205071 0 0 0 -0.892095,0.892095 0.89205071,0.89205071 0 0 0 0.892095,0.891881 0.89205071,0.89205071 0 0 0 0.892094,-0.89188 0.89205071,0.89205071 0 0 0 -0.892094,-0.892096 z m 7.314921,0.07838 a 0.89205071,0.89205071 0 0 0 -0.892095,0.892095 0.89205071,0.89205071 0 0 0 0.892095,0.891881 0.89205071,0.89205071 0 0 0 0.892094,-0.891881 0.89205071,0.89205071 0 0 0 -0.892094,-0.892095 z m -7.283657,0.314567 a 0.55045969,0.55045969 0 0 1 0.550332,0.550546 0.55045969,0.55045969 0 0 1 -0.550332,0.550332 0.55045969,0.55045969 0 0 1 -0.550547,-0.550332 0.55045969,0.55045969 0 0 1 0.550547,-0.550546 z m 7.314921,0.07859 a 0.55045969,0.55045969 0 0 1 0.550546,0.550332 0.55045969,0.55045969 0 0 1 -0.550546,0.550547 0.55045969,0.55045969 0 0 1 -0.550547,-0.550547 0.55045969,0.55045969 0 0 1 0.550547,-0.550332 z M 48.0708,42.891846 c 0.05737,1.9e-4 0.114785,0.0064 0.169596,0.01585 0.176912,0.03057 0.313618,0.20529 0.482665,0.265744 0.118218,0.04228 0.359467,0.05197 0.392942,0.0531 0.03347,-0.0011 0.274937,-0.01083 0.393155,-0.0531 0.169049,-0.06046 0.305754,-0.235171 0.482665,-0.265744 0.14616,-0.02526 0.31106,-0.0259 0.442835,0.04219 0.169042,0.08734 0.319981,0.249462 0.373242,0.432128 0.06241,0.214046 -0.04562,0.523352 -0.09658,0.661898 -0.102948,0.27987 -0.221312,0.334161 -0.403863,0.469174 -0.136022,0.100603 -0.310032,0.202983 -0.518854,0.251183 -0.176915,0.04084 -0.672604,0.05589 -0.672604,0.05589 0,0 -0.495475,-0.01506 -0.672391,-0.05589 -0.208822,-0.0482 -0.382832,-0.15058 -0.518854,-0.251183 -0.182551,-0.135013 -0.300915,-0.189304 -0.403862,-0.469174 -0.05096,-0.138546 -0.158985,-0.447852 -0.09658,-0.661898 0.05326,-0.182666 0.203985,-0.344784 0.373027,-0.432128 0.08236,-0.04255 0.17784,-0.05835 0.273453,-0.05803 z m 1.74179,0.321847 c -0.03821,1.21e-4 -0.07655,0.0042 -0.113064,0.01049 -0.117846,0.02037 -0.209024,0.137035 -0.321634,0.177306 -0.07875,0.02816 -0.23959,0.03436 -0.261889,0.03512 -0.0223,-7.59e-4 -0.182928,-0.007 -0.261676,-0.03512 -0.11261,-0.04027 -0.203788,-0.15694 -0.321634,-0.177306 -0.03651,-0.0063 -0.07464,-0.01015 -0.11285,-0.01028 -0.06369,-2.11e-4 -0.127368,0.0102 -0.182231,0.03855 -0.112603,0.05819 -0.21292,0.166118 -0.248398,0.287799 -0.04157,0.142585 0.03029,0.348619 0.06424,0.440909 0.06858,0.186431 0.147353,0.222702 0.268957,0.31264 0.09061,0.06702 0.206513,0.135133 0.345617,0.167241 0.117849,0.0272 0.447975,0.03726 0.447975,0.03726 0,0 0.330339,-0.01006 0.448188,-0.03726 0.139104,-0.03211 0.255007,-0.100225 0.345618,-0.167241 0.121604,-0.08994 0.200379,-0.126209 0.268955,-0.31264 0.03395,-0.09229 0.105815,-0.298324 0.06424,-0.440909 -0.03548,-0.121681 -0.135794,-0.229616 -0.248398,-0.287799 -0.05486,-0.02835 -0.118323,-0.03895 -0.182017,-0.03876 z" /><rect
       style="fill:#35bfc2;fill-opacity:1;stroke:none;stroke-width:0.870198;-inkscape-stroke:none;paint-order:stroke fill markers;stop-color:#000000"
       id="rect16318-61"
       width="1.2152823"
       height="2.3227262"
       x="48.471966"
       y="50.65913" /><path
       id="path10832-8"
       style="fill:url(#linearGradient906);fill-opacity:1.0;stroke-width:2.1;paint-order:stroke fill markers;stop-color:#000000"
       d="m 22.296875,39.230469 c -1.40851,0 -1.240234,1.225536 -1.240234,2.554687 0,1.329151 0.581724,2.470703 1.990234,2.470703 0.492579,0 1.294025,-1.032026 2.228516,-0.941406 0.720739,0.06989 2.150492,1.17096 2.583984,1.341797 0.09703,0.03824 1.086416,0.900264 1.191406,1.453125 0.04123,0.217085 -0.578155,1.261347 -0.912109,1.568359 -0.536678,0.493381 -1.397295,0.158034 -1.833984,0.626954 -0.535117,0.574612 -0.143497,1.572859 0.21875,1.568359 0.206497,-0.0026 1.572448,0.481095 2.09375,0.1875 0.401261,-0.22599 1.663638,-0.384967 1.90625,-0.414063 0.242611,0.0291 1.506941,0.188073 1.908203,0.414063 0.521302,0.293595 1.885298,-0.190052 2.091797,-0.1875 0.362246,0.0045 0.755819,-0.993747 0.220703,-1.568359 -0.436689,-0.46892 -1.297307,-0.133573 -1.833985,-0.626954 -0.333954,-0.307012 -0.953334,-1.351274 -0.912109,-1.568359 0.10499,-0.552861 1.092425,-1.414887 1.189453,-1.453125 0.433492,-0.170837 1.863245,-1.271906 2.583984,-1.341797 0.934491,-0.09062 1.735937,0.941406 2.228516,0.941406 1.40851,0 1.990234,-1.141552 1.990234,-2.470703 0,-1.329151 0.168276,-2.554687 -1.240234,-2.554687 -1.408511,0 -7.320312,2.626953 -7.320312,2.626953 l -0.90625,0.277344 -0.904297,-0.277344 c 0,0 -5.913755,-2.626953 -7.322266,-2.626953 z"
       sodipodi:nodetypes="ccsssssssssscc"
       inkscape:path-effect="#path-effect12287-0"
       inkscape:original-d="m 30.591591,42.156467 -0.02727,7.485009 c 0,0 -1.503126,0.169617 -1.947751,0.420029 -0.521302,0.293595 -1.885814,-0.190579 -2.092312,-0.188027 -0.362247,0.0045 -0.755065,-0.994117 -0.219949,-1.56873 0.436689,-0.46892 1.297327,-0.134554 1.834005,-0.627935 0.333954,-0.307012 0.953266,-1.349711 0.912041,-1.566796 -0.10499,-0.552861 -1.093122,-1.414868 -1.19015,-1.453106 -0.433492,-0.170837 -1.864024,-1.272652 -2.584763,-1.342543 -0.934491,-0.09062 -1.735918,0.940831 -2.228497,0.940831 -1.40851,0 -1.98985,-1.140232 -1.98985,-2.469383 0,-1.329151 -0.168204,-2.55581 1.240306,-2.55581 1.408511,0 7.321149,2.626561 7.321149,2.626561 z"
       class="UnoptimicedTransforms"
       transform="matrix(0.41438046,0,0,0.41438046,36.364356,30.173816)" /><rect
       style="fill:#35bfc2;fill-opacity:1;stroke:none;stroke-width:0.870198;-inkscape-stroke:none;paint-order:stroke fill markers;stop-color:#000000"
       id="rect12548-7"
       width="2.5966666"
       height="0.60369354"
       x="47.81675"
       y="49.005363" /><ellipse
       style="fill:#35bfc2;fill-opacity:1;stroke:none;stroke-width:0.870198;-inkscape-stroke:none;paint-order:stroke fill markers;stop-color:#000000"
       id="path17150-9"
       cx="49.144524"
       cy="51.732914"
       rx="1.4475573"
       ry="0.64886999" /><rect
       style="fill:#35bfc2;fill-opacity:1;stroke:none;stroke-width:0.870198;-inkscape-stroke:none;paint-order:stroke fill markers;stop-color:#000000"
       id="rect17152-20"
       width="2.1296709"
       height="1.6093915"
       x="45.003426"
       y="50.932846"
       ry="0.15138549" /><rect
       style="fill:#35bfc2;fill-opacity:1;stroke:none;stroke-width:0.870198;-inkscape-stroke:none;paint-order:stroke fill markers;stop-color:#000000"
       id="rect17154-2"
       width="0.85911226"
       height="0.40132073"
       x="47.056171"
       y="51.470154" /><rect
       style="fill:#ffffff;fill-opacity:1;stroke:none;stroke-width:0.881438;-inkscape-stroke:none;paint-order:stroke fill markers;stop-color:#000000"
       id="rect17156-3"
       width="2.9626274"
       height="1.2980568"
       x="47.631832"
       y="52.604294"
       ry="0.20089439"
       rx="0.38160652" /><rect
       style="fill:#ffffff;fill-opacity:1;stroke:none;stroke-width:0.870198;-inkscape-stroke:none;paint-order:stroke fill markers;stop-color:#000000"
       id="rect19771-7"
       width="18.575388"
       height="1.2336411"
       x="41.379227"
       y="39.843452"
       ry="0.12634888" /><rect
       style="fill:#ffffff;fill-opacity:1;stroke:none;stroke-width:0.870198;-inkscape-stroke:none;paint-order:stroke fill markers;stop-color:#000000"
       id="rect19773-5"
       width="1.0120155"
       height="2.8999596"
       x="56.789482"
       y="38.881042"
       ry="0.12634887" /><path
       style="fill:#f9fcfd;fill-opacity:1;stroke:none;stroke-width:0.264583px;stroke-linecap:butt;stroke-linejoin:miter;stroke-opacity:1"
       d="m 30.640239,61.7162 h -10.88351 v -0.930432 l 8.263328,-4.852363 2.620182,0.0018 2.620182,-0.0018 8.263328,4.852363 V 61.7162 Z"
       id="path20658-9"
       inkscape:path-effect="#path-effect20660-6"
       inkscape:original-d="m 30.640239,61.7162 h -10.88351 v -0.930432 l 8.263328,-4.852363 2.837195,0.0019"
       class="UnoptimicedTransforms"
       sodipodi:nodetypes="ccccc"
       transform="matrix(0.41438046,0,0,0.41438046,36.314689,30.164558)" /></g></svg>
