<?xml version="1.0" encoding="UTF-8" standalone="no"?>
<!-- Created with Inkscape (http://www.inkscape.org/) -->

<svg
   width="256"
   height="256"
   viewBox="0 0 67.733332 67.733333"
   version="1.1"
   id="svg74315"
   inkscape:version="1.2.1 (9c6d41e410, 2022-07-14, custom)"
   sodipodi:docname="s3_echolocator.svg"
   inkscape:export-filename="echolocater.png"
   inkscape:export-xdpi="96"
   inkscape:export-ydpi="96"
   xmlns:inkscape="http://www.inkscape.org/namespaces/inkscape"
   xmlns:sodipodi="http://sodipodi.sourceforge.net/DTD/sodipodi-0.dtd"
   xmlns:xlink="http://www.w3.org/1999/xlink"
   xmlns="http://www.w3.org/2000/svg"
   xmlns:svg="http://www.w3.org/2000/svg">
  <sodipodi:namedview
     id="namedview74317"
     pagecolor="#ffffff"
     bordercolor="#666666"
     borderopacity="1.0"
     inkscape:showpageshadow="2"
     inkscape:pageopacity="0.0"
     inkscape:pagecheckerboard="0"
     inkscape:deskcolor="#d1d1d1"
     inkscape:document-units="mm"
     showgrid="false"
     inkscape:lockguides="true"
     inkscape:zoom="2.8008699"
     inkscape:cx="118.71312"
     inkscape:cy="144.41942"
     inkscape:window-width="1916"
     inkscape:window-height="1036"
     inkscape:window-x="0"
     inkscape:window-y="20"
     inkscape:window-maximized="1"
     inkscape:current-layer="layer1" />
  <defs
     id="defs74312">
    <linearGradient
       id="linearGradient6596"
       inkscape:swatch="solid">
      <stop
         style="stop-color:#000000;stop-opacity:1;"
         offset="0"
         id="stop6594" />
    </linearGradient>
    <linearGradient
       id="ink"
       inkscape:swatch="solid">
      <stop
         style="stop-opacity:1;"
         offset="0"
         id="stop6586" />
    </linearGradient>
    <linearGradient
       id="linearGradient74803"
       inkscape:swatch="solid">
      <stop
         style="stop-color:#000000;stop-opacity:1;"
         offset="0"
         id="stop74801" />
    </linearGradient>
    <linearGradient
       inkscape:collect="always"
       xlink:href="#ink"
       id="linearGradient6590"
       x1="15.332752"
       y1="35.153287"
       x2="54.152397"
       y2="35.153287"
       gradientUnits="userSpaceOnUse"
       gradientTransform="matrix(1.2838695,0,0,1.2838695,-6.8538788,-10.059747)" />
    <linearGradient
       inkscape:collect="always"
       xlink:href="#ink"
       id="linearGradient6592"
       x1="8.4582417"
       y1="32.151332"
       x2="53.704884"
       y2="32.151332"
       gradientUnits="userSpaceOnUse"
       gradientTransform="matrix(1.2838695,0,0,1.2838695,-6.8538788,-10.059747)" />
    <linearGradient
       inkscape:collect="always"
       xlink:href="#ink"
       id="linearGradient6598"
       x1="28.861885"
       y1="38.744709"
       x2="30.182764"
       y2="38.744709"
       gradientUnits="userSpaceOnUse"
       gradientTransform="matrix(1.2838695,1.6328002e-8,0,1.2838695,-0.87841512,-12.107208)" />
    <linearGradient
       inkscape:collect="always"
       xlink:href="#ink"
       id="linearGradient6600"
       x1="33.701862"
       y1="31.288511"
       x2="35.022739"
       y2="31.288511"
       gradientUnits="userSpaceOnUse"
       gradientTransform="matrix(1.2838695,0,-1.8330076e-8,1.2838696,-2.5650113,-11.801124)" />
    <linearGradient
       inkscape:collect="always"
       xlink:href="#ink"
       id="linearGradient6602"
       x1="-26.378595"
       y1="9.7230988"
       x2="-24.872927"
       y2="9.7230988"
       gradientUnits="userSpaceOnUse"
       gradientTransform="matrix(1.2838695,0,0,1.2838695,10.904849,-7.938388)" />
    <linearGradient
       inkscape:collect="always"
       xlink:href="#ink"
       id="linearGradient6604"
       x1="-26.981813"
       y1="9.6333399"
       x2="-25.50704"
       y2="9.6333399"
       gradientUnits="userSpaceOnUse"
       gradientTransform="matrix(1.2838695,0,1.4369492e-8,1.2838695,11.809121,-6.8213406)" />
  </defs>
  <g
     inkscape:label="Layer 1"
     inkscape:groupmode="layer"
     id="layer1">
    <path
       id="path74436"
       class="ink"
       style="display:inline;fill:url(#linearGradient6590);fill-opacity:1;stroke:none;stroke-width:0.33969px;stroke-linecap:butt;stroke-linejoin:miter;stroke-opacity:1"
       d="M 45.526484,5.1880342 47.6668,8.8941111 c 0,0 -6.078989,1.1868479 -9.703737,2.7778989 4.479321,2.418769 8.576558,5.277563 12.072282,8.53406 1.331528,-0.383944 2.222584,-0.599104 2.222584,-0.599104 l 3.647029,6.485965 5.143126,-8.901614 c 0,0 2.141734,-5.326547 1.504058,-6.801771 C 62.11724,9.3834233 57.257084,7.973895 57.257084,7.973895 Z M 26.58476,19.923436 c -2.93938,2.856107 -5.50825,6.079851 -7.561431,9.636064 -3.884958,6.728946 -5.073856,14.804596 -6.032823,22.515109 -0.430954,3.465052 0.149942,10.474011 0.149942,10.474011 0,0 0.398682,2.063184 1.073474,2.16818 0.828716,0.128946 2.070653,-2.022882 2.070653,-2.022882 0,0 0.520507,1.939925 1.062196,2.100508 0.856934,0.254036 2.056056,-1.916068 2.056056,-1.916068 0,0 0.450312,1.882239 1.219436,1.981087 0.796512,0.102363 1.740914,-1.66528 1.740914,-1.66528 0,0 0.882252,1.610694 1.678548,1.749539 0.954955,0.166509 2.604736,-1.29308 2.604736,-1.29308 0,0 0.414947,-13.643498 2.427593,-20.076901 1.754091,-5.606936 3.84272,-11.55568 7.568728,-16.072934 -1.493002,-1.952764 -3.245833,-3.747866 -5.359413,-5.27648 -1.156446,-0.836382 -2.84122,-1.611155 -4.698609,-2.300873 z" />
    <ellipse
       style="fill:#000000;fill-opacity:1;stroke:none;stroke-width:1.54641;paint-order:stroke fill markers"
       id="ellipse75260"
       cx="42.860249"
       cy="30.868382"
       rx="2.449918"
       ry="2.9776895"
       transform="matrix(0.95300103,-0.30296705,0.33939511,0.94064391,0,0)" />
    <ellipse
       style="fill:#000000;fill-opacity:1;stroke:none;stroke-width:1.54641;paint-order:stroke fill markers"
       id="ellipse75262"
       cx="42.310921"
       cy="26.373976"
       rx="2.449918"
       ry="2.9776895"
       transform="matrix(0.95300103,-0.30296705,0.33939511,0.94064391,0,0)" />
    <ellipse
       style="fill:#ffffff;fill-opacity:1;stroke:none;stroke-width:1.32556;paint-order:stroke fill markers"
       id="path74996"
       cx="39.397148"
       cy="30.514294"
       rx="2.100039"
       ry="2.5524385"
       transform="matrix(0.9198469,-0.39227756,0.42736444,0.90407944,0,0)" />
    <ellipse
       style="fill:#ffffff;fill-opacity:1;stroke:none;stroke-width:1.41461;paint-order:stroke fill markers"
       id="ellipse75258"
       cx="42.860249"
       cy="30.868382"
       rx="2.2411079"
       ry="2.723897"
       transform="matrix(0.95300103,-0.30296705,0.33939511,0.94064391,0,0)" />
    <ellipse
       style="fill:url(#linearGradient6600);fill-opacity:1;stroke:none;stroke-width:1.09551;paint-order:stroke fill markers"
       id="ellipse75268"
       cx="41.551697"
       cy="28.369242"
       rx="0.84791797"
       ry="1.7267166"
       transform="matrix(0.94024167,-0.34050785,0.37641739,0.92645019,0,0)" />
    <ellipse
       style="fill:#000000;fill-opacity:1;stroke:none;stroke-width:1.54641;paint-order:stroke fill markers"
       id="ellipse75264"
       cx="42.757874"
       cy="27.708122"
       rx="0.70496058"
       ry="2.4374061"
       transform="matrix(0.9412394,-0.33774013,0.3736901,0.92755361,0,0)" />
    <ellipse
       style="fill:url(#linearGradient6598);fill-opacity:1;stroke:none;stroke-width:1.09551;paint-order:stroke fill markers"
       id="ellipse75272"
       cx="37.024399"
       cy="37.635944"
       rx="0.84791797"
       ry="1.7267166"
       transform="matrix(0.88353688,-0.4683616,0.50199569,0.86487012,0,0)" />
    <ellipse
       style="fill:#000000;fill-opacity:1;stroke:none;stroke-width:1.54641;paint-order:stroke fill markers"
       id="ellipse75266"
       cx="35.333897"
       cy="40.135159"
       rx="0.71909589"
       ry="2.4374063"
       transform="matrix(0.85069086,-0.52566631,0.55799476,0.82984447,0,0)" />
    <ellipse
       style="fill:#000000;fill-opacity:1;stroke:none;stroke-width:1.09551;paint-order:stroke fill markers"
       id="ellipse75274"
       cx="46.523396"
       cy="22.088081"
       rx="0.84791797"
       ry="1.7267166"
       transform="matrix(0.99244191,-0.12271532,0.1607936,0.98698805,0,0)" />
    <path
       id="ellipse75278"
       style="fill:#000000;fill-opacity:1;stroke-width:1.09511;paint-order:stroke fill markers"
       d="m 50.949657,16.819659 c 0.391721,0.869473 0.484939,1.680595 0.05089,1.85639 -0.434042,0.175795 -1.103457,-0.386541 -1.49518,-1.256012 -0.391723,-0.869471 -0.357417,-1.716829 0.07662,-1.892624 0.434043,-0.175796 0.975935,0.422773 1.367658,1.292246 z"
       sodipodi:nodetypes="sssss" />
    <path
       id="ellipse75280"
       style="fill:#000000;fill-opacity:1;stroke-width:1.09511;paint-order:stroke fill markers"
       d="m 48.126583,11.615233 c 0.336158,0.89164 0.07566,1.591679 -0.392507,1.580844 -0.468167,-0.01078 -1.113916,-0.753239 -1.128536,-1.706766 -0.01462,-0.953526 0.353053,-1.7177293 0.82122,-1.7068953 0.468165,0.01078 0.363403,0.9404893 0.699823,1.8328173 z m 0.82054,1.17361 c 0.684584,0.663908 0.964973,1.464266 0.626269,1.787649 -0.338705,0.323383 -1.168245,0.04732 -1.852829,-0.616577 -0.684584,-0.663908 -0.964973,-1.464265 -0.626266,-1.787647 0.338704,-0.323382 1.168244,-0.04732 1.852826,0.616575 z"
       sodipodi:nodetypes="ssssssssss" />
    <path
       class="ink"
       style="display:inline;fill:url(#linearGradient6592);fill-opacity:1;stroke:none;stroke-width:0.351945px;stroke-linecap:butt;stroke-linejoin:miter;stroke-opacity:1"
       d="m 61.73581,56.523281 c 0,0 -0.464291,1.900075 -1.250807,1.996773 -0.965924,0.118758 -2.413883,-1.863356 -2.413883,-1.863356 0,0 -0.606695,1.786479 -1.23807,1.934369 -0.998816,0.23396 -2.396162,-1.764324 -2.396162,-1.764324 0,0 -0.524977,1.733469 -1.421444,1.824505 -0.928391,0.09427 -2.028897,-1.53396 -2.028897,-1.53396 0,0 -1.02841,1.483826 -1.956548,1.611698 -1.113064,0.153349 -3.03579,-1.191305 -3.03579,-1.191305 0,0 -0.483698,-12.564754 -2.829574,-18.489711 C 40.765477,32.988438 37.830842,26.493456 31.903529,22.20662 27.699917,19.166423 16.141762,16.974979 16.141762,16.974979 l -4.250635,5.973777 -5.9949663,-8.198079 c 0,0 -2.4957638,-4.9057413 -1.7525094,-6.2643755 C 4.6505601,7.5596956 10.315392,6.2614506 10.315392,6.2614506 l 13.672247,-2.5658852 -2.49423,3.4135305 c 0,0 8.906393,1.3727865 12.702705,3.1046281 8.443692,3.851932 15.80777,9.255392 20.682737,15.927133 4.528184,6.197143 5.914141,13.634913 7.031883,20.736049 0.502306,3.191201 -0.174924,9.646375 -0.174924,9.646375 z"
       id="path75334"
       sodipodi:nodetypes="cscscscscsscccscccsssc" />
    <ellipse
       style="fill:#000000;fill-opacity:1;stroke:none;stroke-width:1.61503;paint-order:stroke fill markers"
       id="ellipse75336"
       cx="-21.726002"
       cy="9.2422523"
       rx="2.8058789"
       ry="2.8358002"
       transform="matrix(-0.96986947,-0.24362514,-0.41538107,0.9096475,0,0)" />
    <ellipse
       style="fill:#000000;fill-opacity:1;stroke:none;stroke-width:1.61503;paint-order:stroke fill markers"
       id="ellipse75338"
       cx="-22.355143"
       cy="4.9620123"
       rx="2.8058789"
       ry="2.8358002"
       transform="matrix(-0.96986947,-0.24362514,-0.41538107,0.9096475,0,0)" />
    <ellipse
       style="fill:#ffffff;fill-opacity:1;stroke:none;stroke-width:1.38881;paint-order:stroke fill markers"
       id="ellipse75340"
       cx="-22.526239"
       cy="3.3776252"
       rx="2.3759329"
       ry="2.4765148"
       transform="matrix(-0.94764581,-0.31932338,-0.5133931,0.85815356,0,0)" />
    <ellipse
       style="fill:#ffffff;fill-opacity:1;stroke:none;stroke-width:1.47737;paint-order:stroke fill markers"
       id="ellipse75342"
       cx="-21.726002"
       cy="9.2422523"
       rx="2.5667298"
       ry="2.594101"
       transform="matrix(-0.96986947,-0.24362514,-0.41538107,0.9096475,0,0)" />
    <ellipse
       style="fill:url(#linearGradient6604);fill-opacity:1;stroke:none;stroke-width:1.1508;paint-order:stroke fill markers"
       id="ellipse75350"
       cx="-21.8853"
       cy="5.5466108"
       rx="0.94670779"
       ry="1.7065628"
       transform="matrix(-0.92235883,-0.38633431,-0.59201969,0.8059235,0,0)" />
    <ellipse
       style="fill:url(#linearGradient6602);fill-opacity:1;stroke:none;stroke-width:1.14566;paint-order:stroke fill markers"
       id="ellipse75348"
       cx="-21.995285"
       cy="4.5448022"
       rx="0.96654183"
       ry="1.6566533"
       transform="matrix(-0.96141311,-0.27510876,-0.45729503,0.88931505,0,0)" />
    <ellipse
       style="fill:#000000;fill-opacity:1;stroke:none;stroke-width:1.61703;paint-order:stroke fill markers"
       id="ellipse75344"
       cx="-20.714865"
       cy="4.0827365"
       rx="0.80388081"
       ry="2.3371789"
       transform="matrix(-0.96207868,-0.27277208,-0.45423944,0.89087964,0,0)" />
    <ellipse
       style="fill:#000000;fill-opacity:1;stroke:none;stroke-width:1.62727;paint-order:stroke fill markers"
       id="ellipse75346"
       cx="-20.864487"
       cy="4.37433"
       rx="0.79345953"
       ry="2.446028"
       transform="matrix(-0.89860962,-0.43874907,-0.64808792,0.76156553,0,0)" />
    <ellipse
       style="fill:#000000;fill-opacity:1;stroke:none;stroke-width:1.1378;paint-order:stroke fill markers"
       id="ellipse75352"
       cx="-21.597904"
       cy="11.882251"
       rx="0.98550582"
       ry="1.6025714"
       transform="matrix(-0.99526113,-0.09723833,-0.20193417,0.9793991,0,0)" />
    <path
       id="path75354"
       class="ink"
       style="fill:#000000;fill-opacity:1;stroke-width:1.13461;paint-order:stroke fill markers"
       d="m 17.66683,14.408185 c -0.456578,0.800757 -0.56523,1.547774 -0.05933,1.709675 0.505905,0.161901 1.286154,-0.355992 1.742732,-1.156746 0.45658,-0.800755 0.416593,-1.581143 -0.08932,-1.743044 -0.505908,-0.161904 -1.137518,0.389359 -1.594098,1.190115 z"
       sodipodi:nodetypes="sssss" />
    <path
       id="path75356"
       class="ink"
       style="fill:#000000;fill-opacity:1;stroke-width:1.13461;paint-order:stroke fill markers"
       d="m 20.957312,9.6150795 c -0.391816,0.8211705 -0.08819,1.4658855 0.457494,1.4559075 0.545679,-0.01001 1.298344,-0.693708 1.315383,-1.5718768 0.01704,-0.8781668 -0.411507,-1.5819725 -0.957186,-1.5719943 -0.54568,0.010014 -0.423571,0.86616 -0.815691,1.6879636 z m -0.956395,1.0808565 c -0.797928,0.611438 -1.124741,1.348541 -0.729958,1.646366 0.394782,0.297825 1.361668,0.04359 2.159597,-0.567846 0.797926,-0.611438 1.124739,-1.348541 0.729954,-1.646364 -0.394782,-0.2978243 -1.361666,-0.04359 -2.159593,0.567844 z"
       sodipodi:nodetypes="ssssssssss" />
  </g>
</svg>
