<?xml version="1.0" encoding="UTF-8" standalone="no"?>
<!-- Created with Inkscape (http://www.inkscape.org/) -->

<svg
   width="256"
   height="256"
   viewBox="0 0 67.733333 67.733333"
   version="1.1"
   id="svg12964"
   inkscape:version="1.2.1 (9c6d41e410, 2022-07-14, custom)"
   sodipodi:docname="s3_inkzooka.svg"
   xml:space="preserve"
   inkscape:export-filename="s3_inkzooka.png"
   inkscape:export-xdpi="96"
   inkscape:export-ydpi="96"
   xmlns:inkscape="http://www.inkscape.org/namespaces/inkscape"
   xmlns:sodipodi="http://sodipodi.sourceforge.net/DTD/sodipodi-0.dtd"
   xmlns:xlink="http://www.w3.org/1999/xlink"
   xmlns="http://www.w3.org/2000/svg"
   xmlns:svg="http://www.w3.org/2000/svg"><sodipodi:namedview
     id="namedview12966"
     pagecolor="#505050"
     bordercolor="#eeeeee"
     borderopacity="1"
     inkscape:showpageshadow="0"
     inkscape:pageopacity="0"
     inkscape:pagecheckerboard="0"
     inkscape:deskcolor="#505050"
     inkscape:document-units="mm"
     showgrid="false"
     inkscape:zoom="3.1502461"
     inkscape:cx="137.6083"
     inkscape:cy="102.05552"
     inkscape:window-width="1916"
     inkscape:window-height="1036"
     inkscape:window-x="0"
     inkscape:window-y="20"
     inkscape:window-maximized="1"
     inkscape:current-layer="layer1" /><defs
     id="defs12961"><linearGradient
       id="linearGradient10769"
       inkscape:swatch="solid"><stop
         style="stop-color:#000000;stop-opacity:1;"
         offset="0"
         id="stop10767" /></linearGradient><linearGradient
       id="ink"
       inkscape:swatch="solid"><stop
         style="stop-opacity:1;"
         offset="0"
         id="stop53636" /></linearGradient><linearGradient
       id="linearGradient2869"
       inkscape:swatch="solid"><stop
         style="stop-color:#ffffff;stop-opacity:1;"
         offset="0"
         id="stop2867" /></linearGradient><linearGradient
       inkscape:collect="always"
       xlink:href="#linearGradient2869"
       id="linearGradient13183"
       gradientUnits="userSpaceOnUse"
       gradientTransform="matrix(2.5702032,0.2031588,-0.2031588,2.5702032,-90.410716,-303.13625)"
       x1="53.074783"
       y1="127.16794"
       x2="70.09037"
       y2="127.16794" /><linearGradient
       inkscape:collect="always"
       xlink:href="#linearGradient2869"
       id="linearGradient13185"
       gradientUnits="userSpaceOnUse"
       gradientTransform="matrix(2.5702032,0.2031588,-0.2031588,2.5702032,-90.410716,-303.13625)"
       x1="53.074783"
       y1="127.16794"
       x2="70.09037"
       y2="127.16794" /><linearGradient
       inkscape:collect="always"
       xlink:href="#ink"
       id="linearGradient10771"
       x1="1.4150218"
       y1="16.30336"
       x2="10.613311"
       y2="16.30336"
       gradientUnits="userSpaceOnUse" /></defs><g
     inkscape:label="Layer 1"
     inkscape:groupmode="layer"
     id="layer1"><path
       style="fill-opacity:1.0;stroke:none;stroke-width:0.322279;paint-order:stroke fill markers;fill:url(#linearGradient10771)"
       d="M 8.3513697,10.469771 10.613311,13.452016 5.550673,22.136949 1.4150218,21.242998 Z"
       id="rect5837" /><path
       style="fill:url(#linearGradient13183);fill-opacity:1;stroke:none;stroke-width:0.682154px;stroke-linecap:butt;stroke-linejoin:miter;stroke-opacity:1"
       d="m 24.503748,22.604989 3.241163,2.011386 -3.364645,5.42183 -3.241168,-2.011361 z"
       id="path14231" /><path
       style="fill:url(#linearGradient13185);fill-opacity:1;stroke:none;stroke-width:0.682154px;stroke-linecap:butt;stroke-linejoin:miter;stroke-opacity:1"
       d="m 27.767419,32.234126 4.206724,2.113519 2.111901,1.302121 -0.543005,2.942838 1.184696,0.474808 -0.129837,1.098028 -0.604992,0.486423 0.03233,1.406508 0.351565,1.929802 2.700753,-0.731646 9.389576,3.249596 12.071787,7.185332 3.968383,-6.470164 c 0,0 -0.667294,0.289775 -2.302637,0.446628 -1.531547,0.146902 -4.578378,0.277898 -6.076361,-0.07317 -0.504556,-2.22533 -0.03518,-4.932204 -0.944262,-6.064919 -1.379729,-1.540204 -4.865514,-6.260013 -4.865514,-6.260013 -2.692119,-1.377825 -5.469429,-2.56019 -8.248141,-3.74734 l -3.672937,-2.421355 -2.902835,-1.661098 -2.080608,-1.396761 z"
       id="path14229"
       sodipodi:nodetypes="cccccccccccccscccccccc" /><path
       style="fill:#35bfc1;fill-opacity:1;stroke:none;stroke-width:0.682154px;stroke-linecap:butt;stroke-linejoin:miter;stroke-opacity:1"
       d="m 23.22938,21.292466 -3.519806,-1.937021 0.457836,-2.185049 -1.807682,-0.970903 -0.387371,-1.47189 0.925208,-2.329352 c 0.410411,-1.03328 -2.593027,-2.097821 -2.593027,-2.097821 l -4.74381,-0.3452369 -8.5708375,14.9857319 2.3945563,2.581152 2.1726237,1.455217 2.5155285,0.565621 0.998828,-2.124442 2.261397,0.155468 1.562156,-2.02498 4.326034,2.538535 z"
       id="path14243"
       sodipodi:nodetypes="ccccccccccccccccc" /><path
       style="fill:#35bfc1;fill-opacity:1;stroke:none;stroke-width:0.682154px;stroke-linecap:butt;stroke-linejoin:miter;stroke-opacity:1"
       d="m 31.133757,23.127784 c 1.500712,0.936113 1.955252,2.897875 1.019148,4.398606 l -3.086124,4.947515 c -0.936099,1.500704 -2.897864,1.955246 -4.398579,1.019158 -1.500713,-0.936114 -1.955254,-2.897875 -1.019151,-4.398579 l 3.086125,-4.947543 c 0.936099,-1.500703 2.897866,-1.955245 4.398581,-1.019157 z"
       id="path14241" /><path
       style="fill:#35bfc1;fill-opacity:1;stroke:none;stroke-width:0.682154px;stroke-linecap:butt;stroke-linejoin:miter;stroke-opacity:1"
       d="m 33.943986,42.508216 3.083865,1.093219 -2.122342,5.986845 -3.637195,-1.28939 z"
       id="path14239" /><path
       style="fill:#35bfc1;fill-opacity:1;stroke:none;stroke-width:0.682154px;stroke-linecap:butt;stroke-linejoin:miter;stroke-opacity:1"
       d="m 38.686453,35.948408 -2.263739,3.291361 0.845806,1.774798 -0.185984,2.352917 7.137234,3.620624 0.258516,1.39749 1.809811,0.143055 2.801216,-4.072837 -1.730173,-3.630565 -1.073126,0.511414 c 0,0 -2.700555,0.128866 -3.943314,-0.311695 -0.866646,-0.307228 -2.272794,-1.563197 -2.272794,-1.563197 z"
       id="path14237"
       sodipodi:nodetypes="ccccccccccscc" /><path
       style="fill:#35bfc1;fill-opacity:1;stroke:none;stroke-width:0.682154px;stroke-linecap:butt;stroke-linejoin:miter;stroke-opacity:1"
       d="m 61.997135,46.707731 -3.377003,6.051098 -0.175212,2.216645 1.308536,0.899976 4.473493,-8.065455 z"
       id="path9345" /><path
       style="fill:#35bfc1;fill-opacity:1;stroke:none;stroke-width:0.829973px;stroke-linecap:butt;stroke-linejoin:miter;stroke-opacity:1"
       d="m 48.945634,40.10449 -3.950701,-6.930057 9.250275,4.039147 2.592385,-1.235424 7.220176,6.533296 1.700318,-0.314541 0.950259,1.994005 -3.408237,4.955395 -4.878034,-0.385575 c -1.708655,-0.0211 -2.928699,-0.105696 -5.125963,-0.0633 -0.361575,-1.63589 0.951471,-3.49705 -0.0116,-4.854743 C 52.180003,42.28561 48.945634,40.10449 48.945634,40.10449 Z"
       id="path420"
       sodipodi:nodetypes="ccccccccccsc" /></g></svg>
