<?xml version="1.0" encoding="UTF-8" standalone="no"?>
<!-- Created with Inkscape (http://www.inkscape.org/) -->

<svg
   width="256"
   height="256"
   viewBox="0 0 67.733332 67.733333"
   version="1.1"
   id="svg76171"
   xml:space="preserve"
   inkscape:version="1.2.1 (9c6d41e410, 2022-07-14, custom)"
   sodipodi:docname="s3_bubbler.svg"
   inkscape:export-filename="bubbler.png"
   inkscape:export-xdpi="96"
   inkscape:export-ydpi="96"
   xmlns:inkscape="http://www.inkscape.org/namespaces/inkscape"
   xmlns:sodipodi="http://sodipodi.sourceforge.net/DTD/sodipodi-0.dtd"
   xmlns:xlink="http://www.w3.org/1999/xlink"
   xmlns="http://www.w3.org/2000/svg"
   xmlns:svg="http://www.w3.org/2000/svg"><sodipodi:namedview
     id="namedview76173"
     pagecolor="#3c3c3c"
     bordercolor="#666666"
     borderopacity="1.0"
     inkscape:showpageshadow="2"
     inkscape:pageopacity="0"
     inkscape:pagecheckerboard="0"
     inkscape:deskcolor="#d1d1d1"
     inkscape:document-units="mm"
     showgrid="false"
     inkscape:zoom="2.4898686"
     inkscape:cx="-12.249643"
     inkscape:cy="102.61586"
     inkscape:window-width="1916"
     inkscape:window-height="1036"
     inkscape:window-x="0"
     inkscape:window-y="20"
     inkscape:window-maximized="1"
     inkscape:current-layer="layer1" /><defs
     id="defs76168"><linearGradient
       id="linearGradient2268"
       inkscape:swatch="solid"><stop
         style="stop-color:#000000;stop-opacity:1;"
         offset="0"
         id="stop2266" /></linearGradient><linearGradient
       id="linearGradient2262"
       inkscape:swatch="solid"><stop
         style="stop-color:#000000;stop-opacity:1;"
         offset="0"
         id="stop2260" /></linearGradient><linearGradient
       id="linearGradient2256"
       inkscape:swatch="solid"><stop
         style="stop-color:#000000;stop-opacity:1;"
         offset="0"
         id="stop2254" /></linearGradient><linearGradient
       id="linearGradient892"
       inkscape:swatch="solid"><stop
         style="stop-color:#000000;stop-opacity:1;"
         offset="0"
         id="stop890" /></linearGradient><linearGradient
       id="ink"
       inkscape:swatch="solid"><stop
         style="stop-opacity:1;"
         offset="0"
         id="stop78113" /></linearGradient><linearGradient
       id="linearGradient78103"
       inkscape:swatch="solid"><stop
         style="stop-color:#3a0dcd;stop-opacity:1;"
         offset="0"
         id="stop78101" /></linearGradient><linearGradient
       id="linearGradient78097"
       inkscape:swatch="solid"><stop
         style="stop-color:#ffffff;stop-opacity:1;"
         offset="0"
         id="stop78095" /></linearGradient><linearGradient
       inkscape:collect="always"
       xlink:href="#linearGradient78097"
       id="linearGradient78099"
       x1="29.908385"
       y1="27.874551"
       x2="38.355624"
       y2="27.874551"
       gradientUnits="userSpaceOnUse"
       gradientTransform="matrix(1.3597778,0,0,1.3597778,-12.157037,-12.398035)" /><linearGradient
       inkscape:collect="always"
       xlink:href="#linearGradient78097"
       id="linearGradient78105"
       x1="26.145166"
       y1="34.505409"
       x2="30.268351"
       y2="34.505409"
       gradientUnits="userSpaceOnUse"
       gradientTransform="matrix(1.3597778,0,0,1.3597778,-12.157037,-12.398035)" /><linearGradient
       inkscape:collect="always"
       xlink:href="#linearGradient78097"
       id="linearGradient78107"
       x1="26.926628"
       y1="43.241177"
       x2="41.300621"
       y2="43.241177"
       gradientUnits="userSpaceOnUse"
       gradientTransform="matrix(1.3597778,0,0,1.3597778,-12.157037,-12.398035)" /><linearGradient
       inkscape:collect="always"
       xlink:href="#linearGradient78097"
       id="linearGradient78109"
       x1="38.387611"
       y1="34.521633"
       x2="42.510792"
       y2="34.521633"
       gradientUnits="userSpaceOnUse"
       gradientTransform="matrix(1.3597778,0,0,1.3597778,-12.157037,-12.398035)" /><linearGradient
       inkscape:collect="always"
       xlink:href="#ink"
       id="linearGradient2258"
       x1="10.03898"
       y1="34.460258"
       x2="57.541828"
       y2="34.460258"
       gradientUnits="userSpaceOnUse"
       gradientTransform="matrix(1.3597778,0,0,1.3597778,-12.157037,-12.398035)" /><linearGradient
       inkscape:collect="always"
       xlink:href="#ink"
       id="linearGradient2264"
       x1="28.168724"
       y1="25.95892"
       x2="40.831688"
       y2="25.95892"
       gradientUnits="userSpaceOnUse"
       gradientTransform="matrix(1.3597778,0,0,1.3597778,-12.157037,-12.398035)" /><linearGradient
       inkscape:collect="always"
       xlink:href="#ink"
       id="linearGradient2270"
       x1="29.977377"
       y1="34.236343"
       x2="38.967628"
       y2="34.236343"
       gradientUnits="userSpaceOnUse"
       gradientTransform="matrix(1.3597778,0,0,1.3597778,-12.157037,-12.398035)" /></defs><g
     inkscape:label="Layer 1"
     inkscape:groupmode="layer"
     id="layer1"><path
       id="path76292"
       class="ink"
       style="fill:url(#linearGradient2258);fill-opacity:1;stroke-width:0.872949;paint-order:stroke fill markers"
       d="M 33.790405,2.1635992 A 32.296699,32.296699 0 0 0 1.4937452,34.460258 32.296699,32.296699 0 0 0 33.790405,66.756918 32.296699,32.296699 0 0 0 66.087064,34.460258 32.296699,32.296699 0 0 0 33.790405,2.1635992 Z m 0,5.762658 A 26.533638,26.533638 0 0 1 60.323727,34.460258 26.533638,26.533638 0 0 1 33.790405,60.993581 26.533638,26.533638 0 0 1 7.2564032,34.460258 26.533638,26.533638 0 0 1 33.790405,7.9262572 Z" /><path
       style="fill:url(#linearGradient78107);fill-opacity:1;stroke:none;stroke-width:0.359774px;stroke-linecap:butt;stroke-linejoin:miter;stroke-opacity:1"
       d="m 29.592388,40.225955 h 9.66926 c 0,0 1.583146,6.674563 2.113917,9.10108 0.186937,0.854613 1.333129,0.74966 1.91353,1.240553 0.354191,0.299568 0.940332,1.025916 0.940332,1.025916 l -1.36089,0.202026 -3.931321,0.303942 0.0268,-1.547909 c 0,0 -0.543915,-2.171407 -0.909262,-3.227836 -0.449716,-1.300391 -1.574462,-3.815812 -1.574462,-3.815812 0,0 -1.687008,-1.935057 -2.319051,-1.843829 -0.900941,0.130035 -2.228954,1.577719 -2.228954,1.577719 0,0 -0.928025,2.694526 -1.334281,4.283867 -0.224113,0.876767 -0.608217,3.098995 -0.608217,3.098995 l -0.187273,0.994423 -0.206364,0.934738 c 0,0 -2.21857,-0.499724 -2.759899,-0.658312 -0.191953,-0.05624 -2.108617,-0.847564 -2.108617,-0.847564 0,0 0.236305,-0.511031 0.45564,-0.6674 0.477797,-0.340635 1.698028,-0.464332 1.698028,-0.464332 l 0.72473,-0.835389 z"
       id="path77604"
       sodipodi:nodetypes="ccssccccscscscccscsccc" /><path
       style="fill:url(#linearGradient78105);fill-opacity:1;stroke:none;stroke-width:0.359774px;stroke-linecap:butt;stroke-linejoin:miter;stroke-opacity:1"
       d="m 28.639014,29.044933 c 0,0 -2.107474,1.190327 -3.0343,1.958583 -0.430066,0.356488 -1.784943,2.179444 -2.074775,2.656978 -0.459952,0.757826 0.07637,1.454602 0.296194,2.140554 0.114425,0.357028 0.385017,0.647263 0.522152,0.996199 0.107518,0.27358 0.23195,0.850802 0.23195,0.850802 0,0 -0.512648,0.250113 -0.641489,0.597674 -0.06508,0.175559 -0.193547,0.675733 -0.130213,1.008833 0.05901,0.310431 -0.0024,0.631921 0.457918,0.830041 0.378861,0.163022 1.131679,0.118015 1.534691,0.03031 0.423143,-0.0921 0.906409,-0.265705 1.242497,-0.538788 0.233625,-0.18983 0.309895,-0.532499 0.3559,-0.829989 0.03635,-0.235059 0.06513,-0.514366 -0.06997,-0.710119 -0.243604,-0.352943 -1.152372,-0.572049 -1.152372,-0.572049 0,0 -0.698814,-1.379474 -0.766021,-2.131452 -0.04217,-0.47174 -0.0241,-1.005224 0.235818,-1.401153 0.292623,-0.445756 0.826179,-0.73505 1.3418,-0.870924 0.589094,-0.155235 2.28323,0.0785 2.28323,0.0785 z"
       id="path77606"
       sodipodi:nodetypes="csssscssssssacssscc" /><path
       style="fill:url(#linearGradient78109);fill-opacity:1;stroke:none;stroke-width:0.359774px;stroke-linecap:butt;stroke-linejoin:miter;stroke-opacity:1"
       d="m 40.403762,29.066996 c 0,0 2.107473,1.190326 3.034299,1.958583 0.430067,0.356487 0.864359,0.737459 1.154192,1.214991 0.459951,0.757826 0.875039,1.628435 0.864965,2.514863 -0.0083,0.733388 -0.538934,1.365418 -0.762728,2.063876 -0.08969,0.279932 -0.231949,0.850802 -0.231949,0.850802 0,0 0.790533,0.278012 0.919374,0.625573 0.06508,0.175559 -0.074,0.36959 -0.146207,0.542342 -0.193297,0.462468 -0.12646,0.775611 -0.586884,0.97373 -0.378862,0.163023 -0.998096,0.236619 -1.401109,0.148905 -0.423142,-0.0921 -1.112545,-0.06157 -1.448633,-0.334656 -0.233625,-0.189831 -0.109843,-0.560329 -0.155843,-0.857819 -0.03635,-0.235059 -0.149453,-0.618741 0.06997,-0.710119 0.219427,-0.09138 1.152372,-0.572049 1.152372,-0.572049 0,0 0.698814,-1.379475 0.766022,-2.131452 0.04217,-0.47174 0.02409,-1.005224 -0.235819,-1.401153 -0.292622,-0.445756 -0.826179,-0.73505 -1.3418,-0.870924 -0.589094,-0.155235 -1.824276,0.110332 -1.824276,0.110332 z"
       id="path78091"
       sodipodi:nodetypes="csssscssssssscssscc" /><path
       class="ink"
       style="fill:url(#linearGradient2270);fill-opacity:1;stroke:none;stroke-width:0.376227px;stroke-linecap:butt;stroke-linejoin:miter;stroke-opacity:1"
       d="m 28.605534,27.965136 0.136842,4.593677 1.002795,4.874221 -0.183271,3.043464 h 9.946845 v -2.817075 l 1.321536,-5.408134 v -4.416222 z"
       id="path78119" /><path
       style="fill:url(#linearGradient78099);fill-opacity:1;stroke:none;stroke-width:0.359774px;stroke-linecap:butt;stroke-linejoin:miter;stroke-opacity:1"
       d="m 29.757642,20.832307 c 0.119592,0.05485 9.52707,-0.05583 9.52707,-0.05583 l 2.426289,3.115444 0.403859,-0.842711 1.930685,1.248401 c 0,0 0.73455,0.608935 0.747082,1.094515 0.01698,0.658162 -0.99818,1.607884 -0.99818,1.607884 l -5.045639,1.133179 -1.584224,1.600288 -5.048853,0.03889 -2.740403,-1.839462 -3.631532,-0.656294 c 0,0 -1.386923,-0.658368 -1.598477,-1.315116 -0.194157,-0.60274 0.486714,-1.836311 0.486714,-1.836311 l 1.965613,-1.717651 2.131577,0.904074 z"
       id="path78093"
       sodipodi:nodetypes="cccccsccccccscccc" /><path
       class="ink"
       style="fill:url(#linearGradient2264);fill-opacity:1;stroke:none;stroke-width:0.359774px;stroke-linecap:butt;stroke-linejoin:miter;stroke-opacity:1"
       d="m 26.650545,22.281847 -0.428055,3.931946 c 0,0 -0.241619,1.603602 0.134958,2.256117 0.302659,0.524435 0.911463,0.962723 1.515748,1.001106 0.496454,0.03153 1.339326,-0.658297 1.339326,-0.658297 0,0 0.80027,-1.046056 0.807718,-1.661958 0.0095,-0.786362 -0.872766,-1.36713 -0.979647,-2.146252 -0.131491,-0.958502 0.0652,-1.979576 0.449625,-2.867399 0.1554,-0.35889 0.720938,-0.925638 0.720938,-0.925638 h 7.537568 l 0.845973,0.845977 c 0,0 0.639773,1.563701 0.639773,2.387665 0,0.720893 -0.559742,1.368094 -0.559742,2.088987 0,0.724345 0.562426,2.098992 0.562426,2.098992 0,0 1.139657,0.466279 1.740179,0.466279 0.634708,0 1.390436,-0.04402 1.839243,-0.492823 0.499426,-0.499426 0.548408,-1.34039 0.548408,-2.046684 0,-0.953695 -0.740506,-2.763594 -0.740506,-2.763594 0,0 -0.361575,-1.927142 -0.754517,-2.815894 -0.439599,-0.994282 -0.898172,-1.880483 -1.76208,-2.744391 -0.675155,-0.675155 -1.238167,-1.235309 -2.160446,-1.482432 -1.249214,-0.334726 -2.984465,-0.515179 -4.270619,-0.379596 -1.213153,0.127887 -2.480986,0.308229 -3.579178,0.763116 -0.930277,0.385334 -2.013873,1.237339 -2.013873,1.237339 0,0 -0.917619,0.610431 -1.074871,1.640501 -0.05488,0.35954 -0.358349,2.266933 -0.358349,2.266933 z"
       id="path78111"
       sodipodi:nodetypes="ccsscssscccsscssscssssscsc" /></g></svg>
