<?xml version="1.0" encoding="UTF-8" standalone="no"?>
<!-- Created with Inkscape (http://www.inkscape.org/) -->

<svg
   width="256"
   height="256"
   viewBox="0 0 67.733332 67.733333"
   version="1.1"
   id="svg4618"
   xml:space="preserve"
   inkscape:version="1.2.1 (9c6d41e410, 2022-07-14, custom)"
   sodipodi:docname="s3_splat_bomb_rush.svg"
   inkscape:export-filename="splat_bomb_rush.png"
   inkscape:export-xdpi="96"
   inkscape:export-ydpi="96"
   xmlns:inkscape="http://www.inkscape.org/namespaces/inkscape"
   xmlns:sodipodi="http://sodipodi.sourceforge.net/DTD/sodipodi-0.dtd"
   xmlns:xlink="http://www.w3.org/1999/xlink"
   xmlns="http://www.w3.org/2000/svg"
   xmlns:svg="http://www.w3.org/2000/svg"><sodipodi:namedview
     id="namedview4620"
     pagecolor="#505050"
     bordercolor="#eeeeee"
     borderopacity="1"
     inkscape:showpageshadow="0"
     inkscape:pageopacity="0"
     inkscape:pagecheckerboard="0"
     inkscape:deskcolor="#505050"
     inkscape:document-units="mm"
     showgrid="false"
     inkscape:zoom="2.6914836"
     inkscape:cx="133.941"
     inkscape:cy="130.22558"
     inkscape:window-width="1916"
     inkscape:window-height="1036"
     inkscape:window-x="0"
     inkscape:window-y="20"
     inkscape:window-maximized="1"
     inkscape:current-layer="layer1" /><defs
     id="defs4615"><linearGradient
       id="linearGradient862"
       inkscape:swatch="solid"><stop
         style="stop-color:#000000;stop-opacity:1;"
         offset="0"
         id="stop860" /></linearGradient><linearGradient
       id="linearGradient913"
       inkscape:swatch="solid"><stop
         style="stop-color:#000000;stop-opacity:1;"
         offset="0"
         id="stop911" /></linearGradient><linearGradient
       id="ink"
       inkscape:swatch="solid"><stop
         style="stop-opacity:1;"
         offset="0"
         id="stop53636" /></linearGradient><linearGradient
       inkscape:collect="always"
       xlink:href="#ink"
       id="linearGradient864"
       x1="11.842527"
       y1="35.328617"
       x2="58.229988"
       y2="35.328617"
       gradientUnits="userSpaceOnUse" /></defs><g
     inkscape:label="Layer 1"
     inkscape:groupmode="layer"
     id="layer1"><g
       id="g4772"
       transform="matrix(2.0069686,-0.66657193,0.66657193,2.0069686,-358.93972,-394.50155)"><path
         id="path4764"
         style="fill:#ffffff;fill-opacity:1;stroke:none;stroke-width:0.264583px;stroke-linecap:butt;stroke-linejoin:miter;stroke-opacity:1"
         d="m 106.04831,234.37174 0.43976,1.42317 -4.72064,7.92458 -1.788003,1.08262 2.268593,1.43867 0.21653,-0.20205 10.15597,0.10232 0.22841,0.16175 2.45359,-1.46503 -0.87798,-0.65009 -0.8785,-0.31781 -4.63486,-7.92665 0.25322,-1.51308 z m 1.603,1.62471 c 0.008,-2.2e-4 0.0152,-4e-5 0.0227,5.1e-4 0.23278,0.0171 0.54312,0.44235 0.54312,0.44235 l 4.50153,7.69411 c 0,0 0.28494,0.56642 0.16382,0.81597 -0.10677,0.21998 -0.65423,0.33176 -0.65423,0.33176 l -8.97413,-0.0357 c 0,0 -0.85241,0.0272 -1.03353,-0.28061 -0.14422,-0.24509 0.20413,-0.82837 0.20413,-0.82837 l 4.6271,-7.76904 c 0,0 0.35813,-0.36435 0.59945,-0.37103 z" /><path
         style="fill:#35bfc1;fill-opacity:1;stroke:none;stroke-width:0.264583px;stroke-linecap:butt;stroke-linejoin:miter;stroke-opacity:1"
         d="m 100.02451,244.7888 -0.33844,0.005 c 0,0 -0.244907,0.60945 -0.142368,0.89284 0.226538,0.6261 1.503898,1.31459 1.503898,1.31459 0,0 0.58361,0.10493 0.8514,0.0109 0.16663,-0.0585 0.40923,-0.33649 0.40923,-0.33649 l 0.0551,-0.5203 z"
         id="path4766"
         sodipodi:nodetypes="ccscsccc" /><path
         style="fill:#35bfc1;fill-opacity:1;stroke:none;stroke-width:0.264583px;stroke-linecap:butt;stroke-linejoin:miter;stroke-opacity:1"
         d="m 112.75907,246.25736 0.11701,0.20958 c 0,0 0.42974,0.49673 0.72863,0.53529 0.66035,0.0852 1.8572,-0.73531 1.8572,-0.73531 0,0 0.36044,-0.47084 0.39943,-0.75197 0.0243,-0.17493 -0.11184,-0.51787 -0.11184,-0.51787 l -0.43736,-0.28716 z"
         id="path4768"
         sodipodi:nodetypes="ccscsccc" /><path
         style="fill:#35bfc1;fill-opacity:1;stroke:none;stroke-width:0.264583px;stroke-linecap:butt;stroke-linejoin:miter;stroke-opacity:1"
         d="m 109.11546,234.42804 0.006,-0.23994 c 0,0 -0.1157,-0.64656 -0.35295,-0.83239 -0.52417,-0.41056 -1.97223,-0.31655 -1.97223,-0.31655 0,0 -0.55037,0.22065 -0.7275,0.44241 -0.11024,0.13798 -0.16839,0.50234 -0.16839,0.50234 l 0.15783,0.48224 z"
         id="path4770"
         sodipodi:nodetypes="ccscsccc" /></g><path
       id="path4785"
       style="fill:#ffffff;fill-opacity:1;stroke:none;stroke-width:0.559532px;stroke-linecap:butt;stroke-linejoin:miter;stroke-opacity:1"
       d="m 29.143764,37.425437 0.320934,3.133691 -13.079299,14.472231 -4.157147,1.502477 4.106767,3.925231 0.532895,-0.32906 21.01694,4.429302 0.406466,0.430249 5.696101,-2.019066 -1.550639,-1.712597 -1.689692,-1.023796 -6.319413,-18.361271 1.153364,-3.032378 z m 2.649343,4.034624 c 0.01668,0.0029 0.03154,0.0062 0.04686,0.01048 0.475592,0.132117 0.942534,1.14278 0.942534,1.14278 L 38.922,60.437034 c 0,0 0.355653,1.292846 8.76e-4,1.76002 -0.312742,0.411815 -1.494371,0.416277 -1.494371,0.416277 L 18.834566,58.812919 c 0,0 -1.778852,-0.29755 -2.026609,-1.011032 -0.197284,-0.568105 0.767254,-1.632947 0.767254,-1.632947 L 30.395959,41.980395 c 0,0 0.893911,-0.606807 1.397086,-0.520454 z" /><path
       style="fill:#35bfc1;fill-opacity:1;stroke:none;stroke-width:0.559532px;stroke-linecap:butt;stroke-linejoin:miter;stroke-opacity:1"
       d="m 12.327262,56.524957 -0.703865,-0.130165 c 0,0 -0.760905,1.162062 -0.665954,1.792277 0.209769,1.392349 2.572617,3.350409 2.572617,3.350409 0,0 1.166604,0.459919 1.760938,0.376135 0.369815,-0.05212 0.988303,-0.527819 0.988303,-0.527819 l 0.330303,-1.056015 z"
       id="path5558"
       sodipodi:nodetypes="ccscsccc" /><path
       style="fill:#35bfc1;fill-opacity:1;stroke:none;stroke-width:0.559532px;stroke-linecap:butt;stroke-linejoin:miter;stroke-opacity:1"
       d="m 38.123855,64.858021 0.155607,0.483172 c 0,0 0.684848,1.208463 1.288615,1.412532 1.333924,0.450872 4.156419,-0.753562 4.156419,-0.753562 0,0 0.942919,-0.826666 1.140504,-1.393428 0.123026,-0.352644 -0.01687,-1.120295 -0.01687,-1.120295 l -0.78767,-0.777063 z"
       id="path6043"
       sodipodi:nodetypes="ccscsccc" /><path
       style="fill:#35bfc1;fill-opacity:1;stroke:none;stroke-width:0.559532px;stroke-linecap:butt;stroke-linejoin:miter;stroke-opacity:1"
       d="m 35.480431,38.815774 0.112073,-0.495048 c 0,0 0.02856,-1.388751 -0.386238,-1.872603 -0.91644,-1.068992 -3.958175,-1.47534 -3.958175,-1.47534 0,0 -1.232869,0.229006 -1.692249,0.615297 -0.285888,0.240339 -0.557764,0.97173 -0.557764,0.97173 l 0.127033,1.06551 z"
       id="path6045"
       sodipodi:nodetypes="ccscsccc" /><path
       id="path4778"
       class="ink"
       style="fill-opacity:1.0;stroke:none;stroke-width:0.559531px;stroke-linecap:butt;stroke-linejoin:miter;stroke-opacity:1;fill:url(#linearGradient864)"
       d="m 56.268978,17.878778 -13.534942,9.644097 15.495953,7.071338 z M 30.974613,44.450243 20.000648,56.931244 36.702231,60.275721 Z M 15.192042,10.381515 11.842527,26.659844 28.007429,21.291016 Z" /><g
       id="g4788"
       transform="matrix(1.9239145,0.87794865,-0.87794865,1.9239145,57.829753,-533.39468)"><path
         id="path4780"
         style="fill:#ffffff;fill-opacity:1;stroke:none;stroke-width:0.264583px;stroke-linecap:butt;stroke-linejoin:miter;stroke-opacity:1"
         d="m 106.04831,234.37174 0.43976,1.42317 -4.72064,7.92458 -1.788003,1.08262 2.268593,1.43867 0.21653,-0.20205 10.15597,0.10232 0.22841,0.16175 2.45359,-1.46503 -0.87798,-0.65009 -0.8785,-0.31781 -4.63486,-7.92665 0.25322,-1.51308 z m 1.603,1.62471 c 0.008,-2.2e-4 0.0152,-4e-5 0.0227,5.1e-4 0.23278,0.0171 0.54312,0.44235 0.54312,0.44235 l 4.50153,7.69411 c 0,0 0.28494,0.56642 0.16382,0.81597 -0.10677,0.21998 -0.65423,0.33176 -0.65423,0.33176 l -8.97413,-0.0357 c 0,0 -0.85241,0.0272 -1.03353,-0.28061 -0.14422,-0.24509 0.20413,-0.82837 0.20413,-0.82837 l 4.6271,-7.76904 c 0,0 0.35813,-0.36435 0.59945,-0.37103 z" /><path
         style="fill:#35bfc1;fill-opacity:1;stroke:none;stroke-width:0.264583px;stroke-linecap:butt;stroke-linejoin:miter;stroke-opacity:1"
         d="m 100.02451,244.7888 -0.33844,0.005 c 0,0 -0.244907,0.60945 -0.142368,0.89284 0.226538,0.6261 1.503898,1.31459 1.503898,1.31459 0,0 0.58361,0.10493 0.8514,0.0109 0.16663,-0.0585 0.40923,-0.33649 0.40923,-0.33649 l 0.0551,-0.5203 z"
         id="path4782"
         sodipodi:nodetypes="ccscsccc" /><path
         style="fill:#35bfc1;fill-opacity:1;stroke:none;stroke-width:0.264583px;stroke-linecap:butt;stroke-linejoin:miter;stroke-opacity:1"
         d="m 112.75907,246.25736 0.11701,0.20958 c 0,0 0.42974,0.49673 0.72863,0.53529 0.66035,0.0852 1.8572,-0.73531 1.8572,-0.73531 0,0 0.36044,-0.47084 0.39943,-0.75197 0.0243,-0.17493 -0.11184,-0.51787 -0.11184,-0.51787 l -0.43736,-0.28716 z"
         id="path4784"
         sodipodi:nodetypes="ccscsccc" /><path
         style="fill:#35bfc1;fill-opacity:1;stroke:none;stroke-width:0.264583px;stroke-linecap:butt;stroke-linejoin:miter;stroke-opacity:1"
         d="m 109.11546,234.42804 0.006,-0.23994 c 0,0 -0.1157,-0.64656 -0.35295,-0.83239 -0.52417,-0.41056 -1.97223,-0.31655 -1.97223,-0.31655 0,0 -0.55037,0.22065 -0.7275,0.44241 -0.11024,0.13798 -0.16839,0.50234 -0.16839,0.50234 l 0.15783,0.48224 z"
         id="path4786"
         sodipodi:nodetypes="ccscsccc" /></g></g></svg>
