<?xml version="1.0" encoding="UTF-8" standalone="no"?>
<!-- Created with Inkscape (http://www.inkscape.org/) -->

<svg
   width="256"
   height="256"
   viewBox="0 0 67.733334 67.733333"
   version="1.1"
   id="svg1819"
   xml:space="preserve"
   inkscape:version="1.2.1 (9c6d41e410, 2022-07-14, custom)"
   sodipodi:docname="herodualies.svg"
   inkscape:export-filename="hero_dualies.png"
   inkscape:export-xdpi="96"
   inkscape:export-ydpi="96"
   xmlns:inkscape="http://www.inkscape.org/namespaces/inkscape"
   xmlns:sodipodi="http://sodipodi.sourceforge.net/DTD/sodipodi-0.dtd"
   xmlns:xlink="http://www.w3.org/1999/xlink"
   xmlns="http://www.w3.org/2000/svg"
   xmlns:svg="http://www.w3.org/2000/svg"><sodipodi:namedview
     id="namedview1821"
     pagecolor="#ffffff"
     bordercolor="#666666"
     borderopacity="1.0"
     inkscape:showpageshadow="2"
     inkscape:pageopacity="0.0"
     inkscape:pagecheckerboard="0"
     inkscape:deskcolor="#d1d1d1"
     inkscape:document-units="mm"
     showgrid="false"
     inkscape:zoom="4.7878739"
     inkscape:cx="117.4843"
     inkscape:cy="109.54758"
     inkscape:window-width="1916"
     inkscape:window-height="1036"
     inkscape:window-x="0"
     inkscape:window-y="20"
     inkscape:window-maximized="1"
     inkscape:current-layer="layer1" /><defs
     id="defs1816"><linearGradient
       id="linearGradient1606"
       inkscape:swatch="solid"><stop
         style="stop-color:#64be43;stop-opacity:1;"
         offset="0"
         id="stop1604" /></linearGradient><linearGradient
       id="linearGradient1600"
       inkscape:swatch="solid"><stop
         style="stop-color:#559435;stop-opacity:1;"
         offset="0"
         id="stop1598" /></linearGradient><linearGradient
       id="linearGradient4364"
       inkscape:swatch="solid"><stop
         style="stop-color:#000000;stop-opacity:1;"
         offset="0"
         id="stop4362" /></linearGradient><linearGradient
       id="linearGradient1712"
       inkscape:swatch="gradient"><stop
         style="stop-color:#47cfd8;stop-opacity:1;"
         offset="0"
         id="stop1708" /><stop
         style="stop-color:#000000;stop-opacity:1;"
         offset="1"
         id="stop1710" /></linearGradient><linearGradient
       id="linearGradient1157"
       inkscape:swatch="solid"><stop
         style="stop-color:#1f2124;stop-opacity:1;"
         offset="0"
         id="stop1155" /></linearGradient><linearGradient
       id="linearGradient1151"
       inkscape:swatch="solid"><stop
         style="stop-color:#1f2124;stop-opacity:1;"
         offset="0"
         id="stop1149" /></linearGradient><linearGradient
       id="linearGradient1145"
       inkscape:swatch="solid"><stop
         style="stop-color:#cfd4d0;stop-opacity:1;"
         offset="0"
         id="stop1143" /></linearGradient><linearGradient
       id="linearGradient1139"
       inkscape:swatch="solid"><stop
         style="stop-color:#202123;stop-opacity:1;"
         offset="0"
         id="stop1137" /></linearGradient><linearGradient
       id="linearGradient1133"
       inkscape:swatch="solid"><stop
         style="stop-color:#202123;stop-opacity:1;"
         offset="0"
         id="stop1131" /></linearGradient><linearGradient
       id="linearGradient1127"
       inkscape:swatch="solid"><stop
         style="stop-color:#cfd4d0;stop-opacity:1;"
         offset="0"
         id="stop1125" /></linearGradient><linearGradient
       id="linearGradient1119"
       inkscape:swatch="solid"><stop
         style="stop-color:#1f2124;stop-opacity:1;"
         offset="0"
         id="stop1117" /></linearGradient><linearGradient
       id="linearGradient1113"
       inkscape:swatch="solid"><stop
         style="stop-color:#4b4f50;stop-opacity:1;"
         offset="0"
         id="stop1111" /></linearGradient><linearGradient
       id="linearGradient1107"
       inkscape:swatch="solid"><stop
         style="stop-color:#4b4f50;stop-opacity:1;"
         offset="0"
         id="stop1105" /></linearGradient><linearGradient
       id="linearGradient1005"
       inkscape:swatch="solid"><stop
         style="stop-color:#559435;stop-opacity:1;"
         offset="0"
         id="stop1003" /></linearGradient><linearGradient
       id="linearGradient999"
       inkscape:swatch="solid"><stop
         style="stop-color:#559435;stop-opacity:1;"
         offset="0"
         id="stop997" /></linearGradient><linearGradient
       id="linearGradient993"
       inkscape:swatch="solid"><stop
         style="stop-color:#948935;stop-opacity:1;"
         offset="0"
         id="stop991" /></linearGradient><linearGradient
       id="linearGradient981"
       inkscape:swatch="solid"><stop
         style="stop-color:#61ba41;stop-opacity:1;"
         offset="0"
         id="stop979" /></linearGradient><linearGradient
       id="linearGradient971"
       inkscape:swatch="solid"><stop
         style="stop-color:#be329d;stop-opacity:1;"
         offset="0"
         id="stop969" /></linearGradient><linearGradient
       id="linearGradient965"
       inkscape:swatch="solid"><stop
         style="stop-color:#be329d;stop-opacity:1;"
         offset="0"
         id="stop963" /></linearGradient><linearGradient
       id="linearGradient959"
       inkscape:swatch="solid"><stop
         style="stop-color:#be329d;stop-opacity:1;"
         offset="0"
         id="stop957" /></linearGradient><linearGradient
       id="linearGradient953"
       inkscape:swatch="solid"><stop
         style="stop-color:#67e7e4;stop-opacity:1;"
         offset="0"
         id="stop951" /></linearGradient><linearGradient
       id="linearGradient947"
       inkscape:swatch="solid"><stop
         style="stop-color:#61ba41;stop-opacity:1;"
         offset="0"
         id="stop945" /></linearGradient><linearGradient
       id="linearGradient941"
       inkscape:swatch="solid"><stop
         style="stop-color:#61ba41;stop-opacity:1;"
         offset="0"
         id="stop939" /></linearGradient><linearGradient
       id="linearGradient935"
       inkscape:swatch="solid"><stop
         style="stop-color:#e4e849;stop-opacity:1;"
         offset="0"
         id="stop933" /></linearGradient><linearGradient
       id="linearGradient14224"
       inkscape:swatch="solid"><stop
         style="stop-color:#afa23e;stop-opacity:1;"
         offset="0"
         id="stop14222" /></linearGradient><linearGradient
       id="linearGradient10837"
       inkscape:swatch="solid"><stop
         style="stop-color:#000000;stop-opacity:1;"
         offset="0"
         id="stop10835" /></linearGradient><linearGradient
       id="linearGradient10623"
       inkscape:swatch="solid"><stop
         style="stop-color:#3d3f3f;stop-opacity:1;"
         offset="0"
         id="stop10621" /></linearGradient><linearGradient
       id="linearGradient9440"
       inkscape:swatch="solid"><stop
         style="stop-color:#1f2124;stop-opacity:1;"
         offset="0"
         id="stop9438" /></linearGradient><linearGradient
       id="linearGradient8880"
       inkscape:swatch="solid"><stop
         style="stop-color:#1f2124;stop-opacity:1;"
         offset="0"
         id="stop8878" /></linearGradient><linearGradient
       id="linearGradient8874"
       inkscape:swatch="solid"><stop
         style="stop-color:#4b4f50;stop-opacity:1;"
         offset="0"
         id="stop8872" /></linearGradient><linearGradient
       id="linearGradient8868"
       inkscape:swatch="solid"><stop
         style="stop-color:#4b4f50;stop-opacity:1;"
         offset="0"
         id="stop8866" /></linearGradient><linearGradient
       id="linearGradient8862"
       inkscape:swatch="solid"><stop
         style="stop-color:#4a5151;stop-opacity:1;"
         offset="0"
         id="stop8860" /></linearGradient><linearGradient
       id="linearGradient7959"
       inkscape:swatch="solid"><stop
         style="stop-color:#1f2124;stop-opacity:1;"
         offset="0"
         id="stop7957" /></linearGradient><linearGradient
       id="linearGradient7519"
       inkscape:swatch="solid"><stop
         style="stop-color:#4b4f50;stop-opacity:1;"
         offset="0"
         id="stop7517" /></linearGradient><linearGradient
       id="linearGradient7444"
       inkscape:swatch="solid"><stop
         style="stop-color:#000000;stop-opacity:1;"
         offset="0"
         id="stop7442" /></linearGradient><linearGradient
       inkscape:collect="always"
       xlink:href="#linearGradient7959"
       id="linearGradient7961"
       x1="42.543011"
       y1="39.268378"
       x2="44.826744"
       y2="39.268378"
       gradientUnits="userSpaceOnUse"
       gradientTransform="rotate(-10.738745,13.378171,1.9331966)" /><linearGradient
       inkscape:collect="always"
       xlink:href="#linearGradient8862"
       id="linearGradient8864"
       x1="45.933113"
       y1="39.739564"
       x2="47.232883"
       y2="39.739564"
       gradientUnits="userSpaceOnUse"
       gradientTransform="translate(-0.42518859,2.4937729)" /><linearGradient
       inkscape:collect="always"
       xlink:href="#linearGradient8862"
       id="linearGradient8870"
       x1="45.559334"
       y1="37.601337"
       x2="51.401951"
       y2="37.601337"
       gradientUnits="userSpaceOnUse"
       gradientTransform="translate(-0.12592289,2.5266246)" /><linearGradient
       inkscape:collect="always"
       xlink:href="#linearGradient8862"
       id="linearGradient8876"
       x1="59.570454"
       y1="-10.749995"
       x2="61.049244"
       y2="-10.749995"
       gradientUnits="userSpaceOnUse"
       gradientTransform="translate(1.9152718,1.6527016)" /><linearGradient
       inkscape:collect="always"
       xlink:href="#linearGradient7959"
       id="linearGradient8882"
       x1="2.3652935"
       y1="59.915333"
       x2="12.130275"
       y2="59.915333"
       gradientUnits="userSpaceOnUse"
       gradientTransform="translate(-1.6051882,1.9552645)" /><linearGradient
       inkscape:collect="always"
       xlink:href="#linearGradient9440"
       id="linearGradient9446"
       gradientUnits="userSpaceOnUse"
       x1="36.900097"
       y1="27.13674"
       x2="48.081944"
       y2="27.13674"
       gradientTransform="matrix(1.1732172,0,0,1.1732172,-7.71728,-2.0678095)" /><linearGradient
       inkscape:collect="always"
       xlink:href="#linearGradient10623"
       id="linearGradient10625"
       x1="37.042836"
       y1="27.1444"
       x2="47.931173"
       y2="27.1444"
       gradientUnits="userSpaceOnUse"
       gradientTransform="translate(-0.12592289,2.5266246)" /><linearGradient
       inkscape:collect="always"
       xlink:href="#linearGradient14224"
       id="linearGradient14226"
       x1="38.451566"
       y1="34.768654"
       x2="39.110416"
       y2="34.768654"
       gradientUnits="userSpaceOnUse"
       gradientTransform="translate(-0.12592289,2.5266246)" /><linearGradient
       inkscape:collect="always"
       xlink:href="#linearGradient14224"
       id="linearGradient14230"
       gradientUnits="userSpaceOnUse"
       x1="38.451566"
       y1="34.768654"
       x2="39.110416"
       y2="34.768654"
       gradientTransform="translate(-0.08604925,10.57843)" /><linearGradient
       inkscape:collect="always"
       xlink:href="#linearGradient7959"
       id="linearGradient419"
       gradientUnits="userSpaceOnUse"
       x1="2.3652935"
       y1="59.915333"
       x2="12.130275"
       y2="59.915333"
       gradientTransform="translate(-10.998829,-12.520988)" /><linearGradient
       inkscape:collect="always"
       xlink:href="#linearGradient8862"
       id="linearGradient421"
       gradientUnits="userSpaceOnUse"
       x1="59.570454"
       y1="-10.749995"
       x2="61.049244"
       y2="-10.749995"
       gradientTransform="translate(-12.78721,10.688154)" /><linearGradient
       inkscape:collect="always"
       xlink:href="#linearGradient8862"
       id="linearGradient423"
       gradientUnits="userSpaceOnUse"
       x1="45.933113"
       y1="39.739564"
       x2="47.232883"
       y2="39.739564"
       gradientTransform="translate(-15.758378,-5.4242852)" /><linearGradient
       inkscape:collect="always"
       xlink:href="#linearGradient8862"
       id="linearGradient425"
       gradientUnits="userSpaceOnUse"
       x1="45.559334"
       y1="37.601337"
       x2="51.401951"
       y2="37.601337"
       gradientTransform="translate(-16.291178,-3.5138124)" /><linearGradient
       inkscape:collect="always"
       xlink:href="#linearGradient7959"
       id="linearGradient427"
       gradientUnits="userSpaceOnUse"
       x1="42.543011"
       y1="39.268378"
       x2="44.826744"
       y2="39.268378"
       gradientTransform="rotate(-10.738745,-26.838361,84.90887)" /><linearGradient
       inkscape:collect="always"
       xlink:href="#linearGradient9440"
       id="linearGradient429"
       gradientUnits="userSpaceOnUse"
       gradientTransform="matrix(1.1732172,0,0,1.1732172,-23.882535,-8.1082465)"
       x1="36.900097"
       y1="27.13674"
       x2="48.081944"
       y2="27.13674" /><linearGradient
       inkscape:collect="always"
       xlink:href="#linearGradient10623"
       id="linearGradient431"
       gradientUnits="userSpaceOnUse"
       x1="37.042836"
       y1="27.1444"
       x2="47.931173"
       y2="27.1444"
       gradientTransform="translate(-16.291178,-3.5138124)" /><linearGradient
       inkscape:collect="always"
       xlink:href="#linearGradient14224"
       id="linearGradient433"
       gradientUnits="userSpaceOnUse"
       x1="38.451566"
       y1="34.768654"
       x2="39.110416"
       y2="34.768654"
       gradientTransform="translate(-16.291178,-3.5138124)" /><linearGradient
       inkscape:collect="always"
       xlink:href="#linearGradient14224"
       id="linearGradient435"
       gradientUnits="userSpaceOnUse"
       gradientTransform="translate(-16.251304,4.5379932)"
       x1="38.451566"
       y1="34.768654"
       x2="39.110416"
       y2="34.768654" /><linearGradient
       inkscape:collect="always"
       xlink:href="#linearGradient935"
       id="linearGradient937"
       x1="50.281223"
       y1="20.077482"
       x2="58.087818"
       y2="20.077482"
       gradientUnits="userSpaceOnUse"
       gradientTransform="translate(-0.12592289,2.5266246)" /><linearGradient
       inkscape:collect="always"
       xlink:href="#linearGradient935"
       id="linearGradient943"
       x1="41.603893"
       y1="32.502262"
       x2="44.549732"
       y2="32.502262"
       gradientUnits="userSpaceOnUse"
       gradientTransform="translate(-0.12592289,2.5266246)" /><linearGradient
       inkscape:collect="always"
       xlink:href="#linearGradient935"
       id="linearGradient949"
       x1="37.900528"
       y1="38.79966"
       x2="42.199429"
       y2="38.79966"
       gradientUnits="userSpaceOnUse"
       gradientTransform="translate(-0.12592289,2.5266246)" /><linearGradient
       inkscape:collect="always"
       xlink:href="#linearGradient953"
       id="linearGradient955"
       x1="56.665465"
       y1="20.253245"
       x2="58.593637"
       y2="20.253245"
       gradientUnits="userSpaceOnUse"
       gradientTransform="translate(-0.12592289,2.5266246)" /><linearGradient
       inkscape:collect="always"
       xlink:href="#linearGradient953"
       id="linearGradient961"
       x1="40.123474"
       y1="34.398159"
       x2="43.182564"
       y2="34.398159"
       gradientUnits="userSpaceOnUse"
       gradientTransform="translate(-0.79809053,2.4005708)" /><linearGradient
       inkscape:collect="always"
       xlink:href="#linearGradient953"
       id="linearGradient967"
       x1="46.340298"
       y1="26.213921"
       x2="50.186001"
       y2="26.213921"
       gradientUnits="userSpaceOnUse"
       gradientTransform="translate(-0.12592289,2.5266246)" /><linearGradient
       inkscape:collect="always"
       xlink:href="#linearGradient953"
       id="linearGradient973"
       x1="46.340298"
       y1="26.213921"
       x2="50.186001"
       y2="26.213921"
       gradientUnits="userSpaceOnUse"
       gradientTransform="translate(-16.291178,-3.5138124)" /><linearGradient
       inkscape:collect="always"
       xlink:href="#linearGradient953"
       id="linearGradient975"
       x1="40.123474"
       y1="34.398159"
       x2="43.182564"
       y2="34.398159"
       gradientUnits="userSpaceOnUse"
       gradientTransform="translate(-14.754694,-7.749088)" /><linearGradient
       inkscape:collect="always"
       xlink:href="#linearGradient953"
       id="linearGradient977"
       x1="56.665466"
       y1="20.253244"
       x2="58.593636"
       y2="20.253244"
       gradientUnits="userSpaceOnUse"
       gradientTransform="translate(-16.291178,-3.5138124)" /><linearGradient
       inkscape:collect="always"
       xlink:href="#linearGradient935"
       id="linearGradient983"
       x1="37.900528"
       y1="38.79966"
       x2="42.199429"
       y2="38.79966"
       gradientUnits="userSpaceOnUse"
       gradientTransform="translate(-16.291178,-3.5138124)" /><linearGradient
       inkscape:collect="always"
       xlink:href="#linearGradient935"
       id="linearGradient985"
       x1="24.697643"
       y1="25.180246"
       x2="26.678764"
       y2="25.180246"
       gradientUnits="userSpaceOnUse"
       gradientTransform="translate(-0.12592289,2.5266246)" /><linearGradient
       inkscape:collect="always"
       xlink:href="#linearGradient935"
       id="linearGradient987"
       x1="23.428093"
       y1="25.481918"
       x2="25.199537"
       y2="25.481918"
       gradientUnits="userSpaceOnUse"
       gradientTransform="translate(-0.12592289,2.5266246)" /><linearGradient
       inkscape:collect="always"
       xlink:href="#linearGradient935"
       id="linearGradient989"
       x1="41.603893"
       y1="32.502262"
       x2="44.549732"
       y2="32.502262"
       gradientUnits="userSpaceOnUse"
       gradientTransform="translate(-16.291178,-3.5138124)" /><linearGradient
       inkscape:collect="always"
       xlink:href="#linearGradient14224"
       id="linearGradient995"
       x1="40.221546"
       y1="37.816135"
       x2="42.987259"
       y2="37.816135"
       gradientUnits="userSpaceOnUse"
       gradientTransform="translate(-16.291178,-3.5138124)" /><linearGradient
       inkscape:collect="always"
       xlink:href="#linearGradient14224"
       id="linearGradient1001"
       x1="1.2966834"
       y1="52.962288"
       x2="2.8587914"
       y2="52.962288"
       gradientUnits="userSpaceOnUse"
       gradientTransform="rotate(-50.665745,-11.85684,15.449663)" /><linearGradient
       inkscape:collect="always"
       xlink:href="#linearGradient14224"
       id="linearGradient1007"
       x1="1.2966834"
       y1="52.962288"
       x2="2.8587914"
       y2="52.962288"
       gradientUnits="userSpaceOnUse"
       gradientTransform="rotate(-50.665745,2.6056326,1.3963107)" /><linearGradient
       inkscape:collect="always"
       xlink:href="#linearGradient8862"
       id="linearGradient1109"
       x1="58.006012"
       y1="-4.2034678"
       x2="61.364201"
       y2="-4.2034678"
       gradientUnits="userSpaceOnUse"
       gradientTransform="translate(1.9802603,1.5742482)" /><linearGradient
       inkscape:collect="always"
       xlink:href="#linearGradient8862"
       id="linearGradient1115"
       x1="58.006012"
       y1="-4.2034678"
       x2="61.364201"
       y2="-4.2034678"
       gradientUnits="userSpaceOnUse"
       gradientTransform="translate(-12.346511,11.194329)" /><linearGradient
       inkscape:collect="always"
       xlink:href="#linearGradient9440"
       id="linearGradient1121"
       x1="40.105045"
       y1="30.835327"
       x2="42.913143"
       y2="30.835327"
       gradientUnits="userSpaceOnUse"
       gradientTransform="translate(-0.12592289,2.5266246)" /><linearGradient
       inkscape:collect="always"
       xlink:href="#linearGradient9440"
       id="linearGradient1123"
       x1="37.799526"
       y1="32.134701"
       x2="41.096962"
       y2="32.134701"
       gradientUnits="userSpaceOnUse"
       gradientTransform="translate(-0.12592289,2.5266246)" /><linearGradient
       inkscape:collect="always"
       xlink:href="#linearGradient1712"
       id="linearGradient1129"
       x1="41.635399"
       y1="57.785786"
       x2="41.702854"
       y2="52.517727"
       gradientUnits="userSpaceOnUse"
       gradientTransform="rotate(54.814457,35.283401,45.33401)" /><linearGradient
       inkscape:collect="always"
       xlink:href="#linearGradient9440"
       id="linearGradient1135"
       x1="35.04866"
       y1="58.090439"
       x2="44.24181"
       y2="58.090439"
       gradientUnits="userSpaceOnUse"
       gradientTransform="translate(22.098864,-48.048152)" /><linearGradient
       inkscape:collect="always"
       xlink:href="#linearGradient9440"
       id="linearGradient1141"
       x1="35.04866"
       y1="58.090439"
       x2="44.24181"
       y2="58.090439"
       gradientUnits="userSpaceOnUse"
       gradientTransform="translate(7.8472307,-38.317103)" /><linearGradient
       inkscape:collect="always"
       xlink:href="#linearGradient9440"
       id="linearGradient1153"
       x1="31.030031"
       y1="31.030331"
       x2="37.99939"
       y2="31.030331"
       gradientUnits="userSpaceOnUse"
       gradientTransform="translate(-16.291178,-3.5138124)" /><linearGradient
       inkscape:collect="always"
       xlink:href="#linearGradient9440"
       id="linearGradient1159"
       x1="31.030031"
       y1="31.030331"
       x2="37.99939"
       y2="31.030331"
       gradientUnits="userSpaceOnUse"
       gradientTransform="translate(-0.12592289,2.5266246)" /><linearGradient
       inkscape:collect="always"
       xlink:href="#linearGradient1712"
       id="linearGradient1716"
       gradientUnits="userSpaceOnUse"
       x1="40.174679"
       y1="57.558189"
       x2="40.118439"
       y2="52.324657"
       gradientTransform="rotate(54.814457,33.025567,26.725636)" /><linearGradient
       inkscape:collect="always"
       xlink:href="#linearGradient14224"
       id="linearGradient1602"
       x1="40.095623"
       y1="40.342762"
       x2="42.861336"
       y2="40.342762"
       gradientUnits="userSpaceOnUse" /><linearGradient
       inkscape:collect="always"
       xlink:href="#linearGradient935"
       id="linearGradient1608"
       x1="33.990044"
       y1="16.563671"
       x2="41.796642"
       y2="16.563671"
       gradientUnits="userSpaceOnUse" /></defs><g
     inkscape:label="Layer 1"
     inkscape:groupmode="layer"
     id="layer1"><path
   style="fill:url(#linearGradient977);fill-opacity:1;stroke:none;stroke-width:0.264583px;stroke-linecap:butt;stroke-linejoin:miter;stroke-opacity:1"
   d="m 40.374287,14.51677 0.986602,0.0302 0.94157,3.513986 -0.901136,0.901139 z"
   id="path369" /><rect
   style="fill:url(#linearGradient975);fill-opacity:1;stroke:none;stroke-width:0.499999;stroke-dasharray:none;stroke-opacity:1;paint-order:stroke fill markers"
   id="rect371"
   width="3.0590899"
   height="2.4761817"
   x="25.36878"
   y="25.41098"
   transform="rotate(-15.536665)" /><path
   style="display:inline;fill:url(#linearGradient983);fill-opacity:1;stroke:none;stroke-width:0.264583px;stroke-linecap:butt;stroke-linejoin:miter;stroke-opacity:1"
   d="m 21.820953,30.590209 -0.211603,8.321019 0.855313,2.017517 3.443586,-1.765676 -1.690063,-9.520121 -2.384589,0.28294 z"
   id="path373" /><path
   style="fill:url(#linearGradient995);fill-opacity:1;stroke:none;stroke-width:0.264583px;stroke-linecap:butt;stroke-linejoin:miter;stroke-opacity:1"
   d="m 23.997753,29.677523 c 0,0 0.195773,0.743072 0.240915,1.123374 0.05015,0.42249 0.09605,0.855367 0.03196,1.275968 -0.04705,0.308744 -0.468217,0.651948 -0.301373,0.887133 0.118514,0.167058 0.453548,0.05761 0.571884,0.224795 0.09913,0.140043 0.03625,0.343761 0.01834,0.514398 -0.02843,0.270855 -0.198038,0.792665 -0.198038,0.792665 0,0 -0.209865,0.400184 -0.09425,0.61426 0.09884,0.183014 0.495711,0.282865 0.495711,0.282865 l 0.115094,0.699723 c 0,0 -0.259856,0.38231 -0.284197,0.494096 -0.02434,0.111789 0.01902,0.646282 0.112773,0.646282 0.09376,0 0.563139,0.108751 0.633307,0.188804 0.07016,0.08005 0.03328,0.623469 0.03328,0.623469 l -0.766958,1.257853 2.08988,-0.991396 -0.416774,-0.94846 -0.714187,-0.690039 0.03839,-0.603173 c 0,0 0.564872,-0.517131 0.548245,-0.784294 -0.01997,-0.320812 -0.657677,-0.383212 -0.741418,-0.383212 -0.08374,0 -0.119914,-0.626427 -0.119914,-0.626427 0,0 0.305572,-1.018138 0.240149,-1.213647 -0.06542,-0.195511 -0.473969,-0.34758 -0.473969,-0.34758 0,0 -0.112791,-0.494058 -0.07132,-0.765238 0.04647,-0.303869 0.290262,-0.443865 0.347464,-0.697125 0.06158,-0.272621 0.03815,-0.563977 -0.01519,-0.838327 -0.07582,-0.389953 -0.426474,-1.112848 -0.426474,-1.112848 z"
   id="path375"
   sodipodi:nodetypes="cssssscsccsssccccccsscscssscc" /><rect
   style="fill:url(#linearGradient419);fill-opacity:1;stroke-width:0.665001;paint-order:stroke fill markers"
   id="rect377"
   width="9.7649813"
   height="2.3940811"
   x="-8.6335354"
   y="46.197304"
   ry="1.1970396"
   transform="rotate(-36.531357)" /><path
   id="path379"
   style="fill:url(#linearGradient1716);fill-opacity:1;stroke-width:0.633133;paint-order:stroke fill markers"
   d="m 21.67063,42.823646 c -1.438862,-2.040809 -4.240344,-2.525792 -6.281155,-1.086929 l -6.6681354,4.701332 5.1946274,7.367801 6.668136,-4.701333 c 2.04081,-1.438863 2.525389,-4.240061 1.086527,-6.280871 z" /><rect
   style="fill:url(#linearGradient1141);fill-opacity:1;stroke-width:0.665001;paint-order:stroke fill markers"
   id="rect381"
   width="9.1931486"
   height="1.438221"
   x="42.895889"
   y="19.054224"
   transform="rotate(54.814457)" /><rect
   style="fill:url(#linearGradient1115);fill-opacity:1;stroke-width:0.665001;paint-order:stroke fill markers"
   id="rect385"
   width="3.3581896"
   height="2.0169666"
   x="45.6595"
   y="5.982378"
   transform="rotate(54.369508)"
   ry="0.13943213" /><rect
   style="fill:url(#linearGradient421);fill-opacity:1;stroke-width:0.665001;paint-order:stroke fill markers"
   id="rect387"
   width="1.4787917"
   height="1.0683633"
   x="46.783245"
   y="-0.59602296"
   transform="rotate(52.062026)" /><rect
   style="fill:url(#linearGradient423);fill-opacity:1;stroke-width:0.584496;paint-order:stroke fill markers"
   id="rect389"
   width="1.2997701"
   height="0.93902791"
   x="30.174736"
   y="33.845764"
   transform="rotate(-6.8227248)" /><path
   style="fill:none;fill-opacity:0;stroke:url(#linearGradient425);stroke-width:0.365;stroke-linecap:butt;stroke-linejoin:miter;stroke-dasharray:none;stroke-opacity:1"
   d="m 34.821763,30.756521 c 0,0 0.199622,1.500587 0.05228,1.825493 -0.147339,0.324905 -1.432772,1.829001 -1.432772,1.829001 l -4.06759,2.882685"
   id="path391" /><path
   style="fill:url(#linearGradient973);fill-opacity:1;stroke:none;stroke-width:0.264583px;stroke-linecap:butt;stroke-linejoin:miter;stroke-opacity:1"
   d="m 30.049119,23.027611 1.565013,1.375103 2.280692,-0.555985 -0.322434,-2.010317 -0.687764,0.06612 -1.030504,-0.905029 z"
   id="path393" /><path
   id="path395"
   style="fill:url(#linearGradient427);fill-opacity:1;stroke:none;stroke-width:0.365001;paint-order:stroke fill markers"
   d="m 32.269712,24.218727 0.740398,-0.305918 1.693482,0.882971 0.568828,5.071203 -1.290567,0.154407 z"
   sodipodi:nodetypes="cccccc" /><path
   style="display:inline;fill:url(#linearGradient429);fill-opacity:1;stroke:none;stroke-width:0.310413px;stroke-linecap:butt;stroke-linejoin:miter;stroke-opacity:1"
   d="m 19.58085,25.063947 2.130706,5.159361 3.21144,-0.766669 2.511812,-4.003471 2.199341,-1.726298 2.477727,-2.763552 -0.8363,-4.236154 -5.109758,2.587542 -4.880418,3.594809 z"
   id="path397"
   sodipodi:nodetypes="cccccccccc" /><path
   style="display:inline;fill:url(#linearGradient431);fill-opacity:1;stroke:none;stroke-width:0.264583px;stroke-linecap:butt;stroke-linejoin:miter;stroke-opacity:1"
   d="m 20.751658,24.747932 1.066051,4.858419 2.528485,-0.886513 3.103327,-3.627342 1.446559,-1.911184 2.743915,-2.449234 -0.916768,-3.077253 -4.355338,2.20551 -4.159859,3.064061 z"
   id="path399" /><path
   id="path401"
   style="fill:#1f2124;stroke-width:0.365001;paint-order:stroke fill markers"
   d="m 24.805783,28.52924 c 0,0.696997 -1.934107,1.358469 -2.631105,1.358468 -0.696997,1e-6 -0.666125,-0.574621 -0.666125,-1.271618 0,-0.696997 0.565028,-1.262025 1.262025,-1.262025 0.696997,0 2.035205,0.478178 2.035205,1.175175 z"
   sodipodi:nodetypes="sssss" /><path
   id="path403"
   style="fill:#1f2124;fill-opacity:1;stroke:none;stroke-width:0.432831;stroke-dasharray:none;stroke-opacity:1;paint-order:stroke fill markers"
   d="m 25.310417,25.861656 a 1.4965526,1.4965526 0 0 0 -1.496549,1.496549 1.4965526,1.4965526 0 0 0 1.033011,1.423169 l 1.775086,-2.143538 a 1.4965526,1.4965526 0 0 0 -1.311548,-0.77618 z" /><ellipse
   style="fill:url(#linearGradient433);fill-opacity:1;stroke:none;stroke-width:0.365001;stroke-dasharray:none;stroke-opacity:1;paint-order:stroke fill markers"
   id="ellipse405"
   cx="22.489813"
   cy="31.254841"
   rx="0.32942504"
   ry="0.35729077" /><ellipse
   style="fill:url(#linearGradient435);fill-opacity:1;stroke:none;stroke-width:0.365001;stroke-dasharray:none;stroke-opacity:1;paint-order:stroke fill markers"
   id="ellipse407"
   cx="22.529688"
   cy="39.306648"
   rx="0.32942504"
   ry="0.35729077" /><path
   style="fill:url(#linearGradient989);fill-opacity:1;stroke:none;stroke-width:0.264583px;stroke-linecap:butt;stroke-linejoin:miter;stroke-opacity:1"
   d="m 25.312717,28.691096 c 0,0 0.73938,0.963323 1.248077,1.268378 0.506025,0.303453 1.697762,0.500912 1.697762,0.500912 0,0 -0.785609,-0.677818 -1.100775,-1.08554 -0.437481,-0.565958 -1.073266,-1.858328 -1.073266,-1.858328 z"
   id="path409"
   sodipodi:nodetypes="cscscc" /><path
   id="path411"
   style="fill:url(#linearGradient1001);fill-opacity:1;stroke-width:0.365001;paint-order:stroke fill markers"
   d="m 25.312717,28.691096 0.771798,-1.174578 0.523466,0.989876 -0.709468,0.871424 c 0,0 -0.234225,-0.17215 -0.328014,-0.281899 -0.10173,-0.119039 -0.257782,-0.404824 -0.257782,-0.404823 z"
   sodipodi:nodetypes="ccccsc" /><path
   style="fill:none;fill-opacity:0;stroke:url(#linearGradient1153);stroke-width:0.5;stroke-linecap:butt;stroke-linejoin:miter;stroke-dasharray:none;stroke-opacity:1"
   d="m 20.001821,25.165907 -1.76331,3.253574 -3.409064,1.325427 3.031498,-1.022062 3.782044,1.022062"
   id="path413" /><path
   style="fill:url(#linearGradient1608);fill-opacity:1.0;stroke:none;stroke-width:0.264583px;stroke-linecap:butt;stroke-linejoin:miter;stroke-opacity:1"
   d="m 33.990045,16.71235 0.820409,3.06181 h 6.986188 l -1.720495,-6.420979 z"
   id="path415" /><path
   style="fill:url(#linearGradient955);fill-opacity:1;stroke:none;stroke-width:0.264583px;stroke-linecap:butt;stroke-linejoin:miter;stroke-opacity:1"
   d="m 56.539542,20.557207 0.986602,0.0302 0.94157,3.513986 -0.901136,0.901139 z"
   id="path20100" /><rect
   style="fill:url(#linearGradient961);fill-opacity:1;stroke:none;stroke-width:0.499999;stroke-dasharray:none;stroke-opacity:1;paint-order:stroke fill markers"
   id="rect19950"
   width="3.0590899"
   height="2.4761817"
   x="39.325382"
   y="35.560638"
   transform="rotate(-15.536665)" /><path
   style="display:inline;fill:url(#linearGradient949);fill-opacity:1;stroke:none;stroke-width:0.264583px;stroke-linecap:butt;stroke-linejoin:miter;stroke-opacity:1"
   d="m 37.986208,36.630646 -0.211603,8.321019 0.855313,2.017517 3.443586,-1.765676 -1.690063,-9.520121 -2.384589,0.28294 z"
   id="path14283" /><path
   style="fill:url(#linearGradient1602);fill-opacity:1.0;stroke:none;stroke-width:0.264583px;stroke-linecap:butt;stroke-linejoin:miter;stroke-opacity:1"
   d="m 40.163008,35.71796 c 0,0 0.195773,0.743072 0.240915,1.123374 0.05015,0.42249 0.09605,0.855367 0.03196,1.275968 -0.04705,0.308744 -0.468217,0.651948 -0.301373,0.887133 0.118514,0.167058 0.453548,0.05761 0.571884,0.224795 0.09913,0.140043 0.03625,0.343761 0.01834,0.514398 -0.02843,0.270855 -0.198038,0.792665 -0.198038,0.792665 0,0 -0.209865,0.400184 -0.09425,0.61426 0.09884,0.183014 0.495711,0.282865 0.495711,0.282865 l 0.115094,0.699723 c 0,0 -0.259856,0.38231 -0.284197,0.494096 -0.02434,0.111789 0.01902,0.646282 0.112773,0.646282 0.09376,0 0.563139,0.108751 0.633307,0.188804 0.07016,0.08005 0.03328,0.623469 0.03328,0.623469 l -0.766958,1.257853 2.08988,-0.991396 -0.416774,-0.94846 -0.714187,-0.690039 0.03839,-0.603173 c 0,0 0.564872,-0.517131 0.548245,-0.784294 -0.01997,-0.320812 -0.657677,-0.383212 -0.741418,-0.383212 -0.08374,0 -0.119914,-0.626427 -0.119914,-0.626427 0,0 0.305572,-1.018138 0.240149,-1.213647 -0.06542,-0.195511 -0.473969,-0.34758 -0.473969,-0.34758 0,0 -0.112791,-0.494058 -0.07132,-0.765238 0.04647,-0.303869 0.290262,-0.443865 0.347464,-0.697125 0.06158,-0.272621 0.03815,-0.563977 -0.01519,-0.838327 -0.07582,-0.389953 -0.426474,-1.112848 -0.426474,-1.112848 z"
   id="path14768"
   sodipodi:nodetypes="cssssscsccsssccccccsscscssscc" /><rect
   style="fill:url(#linearGradient8882);fill-opacity:1;stroke-width:0.665001;paint-order:stroke fill markers"
   id="rect4332"
   width="9.7649813"
   height="2.3940811"
   x="0.76010525"
   y="60.673557"
   ry="1.1970396"
   transform="rotate(-36.531357)" /><path
   id="rect2058"
   style="fill:url(#linearGradient1129);fill-opacity:1;stroke-width:0.633;stroke-dasharray:none;paint-order:stroke fill markers"
   d="M 37.835885,48.864083 C 36.397023,46.823274 33.595541,46.338291 31.55473,47.777154 l -6.668135,4.701332 5.194627,7.367801 6.668136,-4.701333 c 2.04081,-1.438863 2.525389,-4.240061 1.086527,-6.280871 z" /><rect
   style="fill:url(#linearGradient1135);fill-opacity:1;stroke-width:0.665001;paint-order:stroke fill markers"
   id="rect2065"
   width="9.1931486"
   height="1.438221"
   x="57.147522"
   y="9.3231745"
   transform="rotate(54.814457)" /><rect
   style="fill:url(#linearGradient1109);fill-opacity:1;stroke-width:0.665001;paint-order:stroke fill markers"
   id="rect3657"
   width="3.3581896"
   height="2.0169666"
   x="59.986271"
   y="-3.6377029"
   transform="rotate(54.369508)"
   ry="0.13943213" /><rect
   style="fill:url(#linearGradient8876);fill-opacity:1;stroke-width:0.665001;paint-order:stroke fill markers"
   id="rect5076"
   width="1.4787917"
   height="1.0683633"
   x="61.485725"
   y="-9.6314754"
   transform="rotate(52.062026)" /><rect
   style="fill:url(#linearGradient8864);fill-opacity:1;stroke-width:0.584496;paint-order:stroke fill markers"
   id="rect5216"
   width="1.2997701"
   height="0.93902791"
   x="45.507923"
   y="41.763824"
   transform="rotate(-6.8227248)" /><path
   style="fill:none;fill-opacity:0;stroke:url(#linearGradient8870);stroke-width:0.365;stroke-linecap:butt;stroke-linejoin:miter;stroke-dasharray:none;stroke-opacity:1"
   d="m 50.987018,36.796958 c 0,0 0.199622,1.500587 0.05228,1.825493 -0.147339,0.324905 -1.432772,1.829001 -1.432772,1.829001 l -4.06759,2.882685"
   id="path5246" /><path
   style="fill:url(#linearGradient967);fill-opacity:1;stroke:none;stroke-width:0.264583px;stroke-linecap:butt;stroke-linejoin:miter;stroke-opacity:1"
   d="m 46.214374,29.068048 1.565013,1.375103 2.280692,-0.555985 -0.322434,-2.010317 -0.687764,0.06612 -1.030504,-0.905029 z"
   id="path19413" /><path
   id="rect7388"
   style="fill:url(#linearGradient7961);fill-opacity:1;stroke:none;stroke-width:0.365001;paint-order:stroke fill markers"
   d="m 48.434967,30.259164 0.740398,-0.305918 1.693482,0.882971 0.568828,5.071203 -1.290567,0.154407 z"
   sodipodi:nodetypes="cccccc" /><path
   style="display:inline;fill:url(#linearGradient9446);fill-opacity:1;stroke:none;stroke-width:0.310413px;stroke-linecap:butt;stroke-linejoin:miter;stroke-opacity:1"
   d="m 35.746105,31.104384 2.130706,5.159361 3.21144,-0.766669 2.511812,-4.003471 2.199341,-1.726298 2.477727,-2.763552 -0.8363,-4.236154 -5.109758,2.587542 -4.880418,3.594809 z"
   id="path9444"
   sodipodi:nodetypes="cccccccccc" /><path
   style="display:inline;fill:url(#linearGradient10625);fill-opacity:1;stroke:none;stroke-width:0.264583px;stroke-linecap:butt;stroke-linejoin:miter;stroke-opacity:1"
   d="m 36.916913,30.788369 1.066051,4.858419 2.528485,-0.886513 3.103327,-3.627342 1.446559,-1.911184 2.743915,-2.449234 -0.916768,-3.077253 -4.355338,2.20551 -4.159859,3.064061 z"
   id="path8884" /><path
   id="path9500"
   style="fill:url(#linearGradient1123);fill-opacity:1;stroke-width:0.365001;paint-order:stroke fill markers"
   d="m 40.971038,34.569677 c 0,0.696997 -1.934107,1.358469 -2.631105,1.358468 -0.696997,10e-7 -0.666125,-0.574621 -0.666125,-1.271618 0,-0.696997 0.565028,-1.262025 1.262025,-1.262025 0.696997,0 2.035205,0.478178 2.035205,1.175175 z"
   sodipodi:nodetypes="sssss" /><path
   id="circle9502"
   style="fill:url(#linearGradient1121);fill-opacity:1;stroke:none;stroke-width:0.432831;stroke-dasharray:none;stroke-opacity:1;paint-order:stroke fill markers"
   d="m 41.475672,31.902093 a 1.4965526,1.4965526 0 0 0 -1.496549,1.496549 1.4965526,1.4965526 0 0 0 1.033011,1.423169 l 1.775086,-2.143538 a 1.4965526,1.4965526 0 0 0 -1.311548,-0.77618 z" /><ellipse
   style="fill:url(#linearGradient14226);fill-opacity:1;stroke:none;stroke-width:0.365001;stroke-dasharray:none;stroke-opacity:1;paint-order:stroke fill markers"
   id="path10833"
   cx="38.655067"
   cy="37.295277"
   rx="0.32942504"
   ry="0.35729077" /><ellipse
   style="fill:url(#linearGradient14230);fill-opacity:1;stroke:none;stroke-width:0.365001;stroke-dasharray:none;stroke-opacity:1;paint-order:stroke fill markers"
   id="ellipse14228"
   cx="38.694942"
   cy="45.347084"
   rx="0.32942504"
   ry="0.35729077" /><path
   style="fill:url(#linearGradient943);fill-opacity:1;stroke:none;stroke-width:0.264583px;stroke-linecap:butt;stroke-linejoin:miter;stroke-opacity:1"
   d="m 41.477972,34.731533 c 0,0 0.73938,0.963323 1.248077,1.268378 0.506025,0.303453 1.697762,0.500912 1.697762,0.500912 0,0 -0.785609,-0.677818 -1.100775,-1.08554 -0.437481,-0.565958 -1.073266,-1.858328 -1.073266,-1.858328 z"
   id="path16410"
   sodipodi:nodetypes="cscscc" /><path
   id="rect17076"
   style="fill:url(#linearGradient1007);fill-opacity:1;stroke-width:0.365001;paint-order:stroke fill markers"
   d="m 41.477972,34.731532 0.771798,-1.174577 0.523466,0.989876 -0.709468,0.871423 c 0,0 -0.234225,-0.172149 -0.328014,-0.281898 -0.10173,-0.11904 -0.257782,-0.404824 -0.257782,-0.404824 z"
   sodipodi:nodetypes="ccccsc" /><path
   style="fill:none;fill-opacity:0;stroke:url(#linearGradient1159);stroke-width:0.5;stroke-linecap:butt;stroke-linejoin:miter;stroke-dasharray:none;stroke-opacity:1"
   d="m 36.167076,31.206344 -1.76331,3.253574 -3.409064,1.325427 3.031498,-1.022062 3.782044,1.022062"
   id="path17272" /><path
   style="fill:url(#linearGradient937);fill-opacity:1;stroke:none;stroke-width:0.264583px;stroke-linecap:butt;stroke-linejoin:miter;stroke-opacity:1"
   d="m 50.1553,22.752787 0.820409,3.06181 h 6.986188 l -1.720495,-6.420979 z"
   id="path19952" /><ellipse
   style="opacity:1;fill:url(#linearGradient985);fill-opacity:1;stroke-width:0.731734;paint-order:stroke fill markers"
   id="path1043"
   cx="25.562281"
   cy="27.706871"
   rx="0.99056041"
   ry="0.96486109" /><path
   style="fill:url(#linearGradient987);fill-opacity:1;stroke:none;stroke-width:0.264583px;stroke-linecap:butt;stroke-linejoin:miter;stroke-opacity:1"
   d="m 24.702318,27.378957 c 0,0 -0.386745,0.494318 -0.629743,0.688413 -0.230959,0.184479 -0.770405,0.439144 -0.770405,0.439144 0,0 0.513092,0.145917 0.77441,0.130469 0.345712,-0.02044 0.997035,-0.292113 0.997035,-0.292113 z"
   id="path2349"
   sodipodi:nodetypes="cscscc" />
    <g
   id="patterngroup"
   transform="translate(-1.0024441,57.923507)">
      
      </g><g
   id="g638"
   transform="rotate(54.611147,19.62473,62.979207)"><circle
     style="fill:#47cfd8;stroke-width:0.264583;paint-order:stroke fill markers"
     id="path610"
     cx="1.69382"
     cy="60.693378"
     r="0.89203864" /><circle
     style="fill:#47cfd8;stroke-width:0.264583;paint-order:stroke fill markers"
     id="circle612"
     cx="4.1782856"
     cy="60.693378"
     r="0.89203864" /><circle
     style="fill:#47cfd8;stroke-width:0.264583;paint-order:stroke fill markers"
     id="circle614"
     cx="6.8179932"
     cy="60.693378"
     r="0.89203864" /><circle
     style="fill:#47cfd8;stroke-width:0.258013;paint-order:stroke fill markers"
     id="circle616"
     cx="5.606729"
     cy="58.768627"
     r="0.86988688" /><circle
     style="fill:#47cfd8;stroke-width:0.258013;paint-order:stroke fill markers"
     id="circle618"
     cx="2.8524354"
     cy="58.768627"
     r="0.86988688" /><circle
     style="fill:#47cfd8;stroke-width:0.238677;paint-order:stroke fill markers"
     id="circle620"
     cx="1.6056662"
     cy="57.250721"
     r="0.80469447" /><circle
     style="fill:#47cfd8;stroke-width:0.238677;paint-order:stroke fill markers"
     id="circle626"
     cx="4.3229423"
     cy="57.250721"
     r="0.80469447" /><circle
     style="fill:#47cfd8;stroke-width:0.238677;paint-order:stroke fill markers"
     id="circle628"
     cx="6.993679"
     cy="57.250721"
     r="0.80469447" /></g><g
   id="g1414"
   transform="rotate(54.611147,21.773454,81.945034)"><circle
     style="fill:#47cfd8;stroke-width:0.264583;paint-order:stroke fill markers"
     id="circle1398"
     cx="1.69382"
     cy="60.693378"
     r="0.89203864" /><circle
     style="fill:#47cfd8;stroke-width:0.264583;paint-order:stroke fill markers"
     id="circle1400"
     cx="4.1782856"
     cy="60.693378"
     r="0.89203864" /><circle
     style="fill:#47cfd8;stroke-width:0.264583;paint-order:stroke fill markers"
     id="circle1402"
     cx="6.8179932"
     cy="60.693378"
     r="0.89203864" /><circle
     style="fill:#47cfd8;stroke-width:0.258013;paint-order:stroke fill markers"
     id="circle1404"
     cx="5.606729"
     cy="58.768627"
     r="0.86988688" /><circle
     style="fill:#47cfd8;stroke-width:0.258013;paint-order:stroke fill markers"
     id="circle1406"
     cx="2.8524354"
     cy="58.768627"
     r="0.86988688" /><circle
     style="fill:#47cfd8;stroke-width:0.238677;paint-order:stroke fill markers"
     id="circle1408"
     cx="1.6056662"
     cy="57.250721"
     r="0.80469447" /><circle
     style="fill:#47cfd8;stroke-width:0.238677;paint-order:stroke fill markers"
     id="circle1410"
     cx="4.3229423"
     cy="57.250721"
     r="0.80469447" /><circle
     style="fill:#47cfd8;stroke-width:0.238677;paint-order:stroke fill markers"
     id="circle1412"
     cx="6.993679"
     cy="57.250721"
     r="0.80469447" /></g></g></svg>
