<?xml version="1.0" encoding="UTF-8" standalone="no"?>
<!-- Created with Inkscape (http://www.inkscape.org/) -->

<svg
   width="256"
   height="256"
   viewBox="0 0 67.733334 67.733334"
   version="1.1"
   id="svg37116"
   xml:space="preserve"
   inkscape:version="1.2.2 (b0a8486541, 2022-12-01)"
   sodipodi:docname="s3custom_enperry_splat_roller_2d.svg"
   xmlns:inkscape="http://www.inkscape.org/namespaces/inkscape"
   xmlns:sodipodi="http://sodipodi.sourceforge.net/DTD/sodipodi-0.dtd"
   xmlns:xlink="http://www.w3.org/1999/xlink"
   xmlns="http://www.w3.org/2000/svg"
   xmlns:svg="http://www.w3.org/2000/svg"><sodipodi:namedview
     id="namedview37118"
     pagecolor="#ffffff"
     bordercolor="#666666"
     borderopacity="1.0"
     inkscape:showpageshadow="2"
     inkscape:pageopacity="0.0"
     inkscape:pagecheckerboard="0"
     inkscape:deskcolor="#d1d1d1"
     inkscape:document-units="mm"
     showgrid="false"
     inkscape:zoom="3.4845178"
     inkscape:cx="80.929418"
     inkscape:cy="127.42079"
     inkscape:window-width="1906"
     inkscape:window-height="1026"
     inkscape:window-x="5"
     inkscape:window-y="25"
     inkscape:window-maximized="1"
     inkscape:current-layer="layer1" /><defs
     id="defs37113"><linearGradient
       id="linearGradient2520"
       inkscape:swatch="solid"><stop
         style="stop-color:#292929;stop-opacity:1;"
         offset="0"
         id="stop2518" /></linearGradient><linearGradient
       id="linearGradient2514"
       inkscape:swatch="solid"><stop
         style="stop-color:#292929;stop-opacity:1;"
         offset="0"
         id="stop2512" /></linearGradient><linearGradient
       id="linearGradient2508"
       inkscape:swatch="solid"><stop
         style="stop-color:#000000;stop-opacity:1;"
         offset="0"
         id="stop2506" /></linearGradient><linearGradient
       id="linearGradient2502"
       inkscape:swatch="solid"><stop
         style="stop-color:#292929;stop-opacity:1;"
         offset="0"
         id="stop2500" /></linearGradient><linearGradient
       id="gray"
       inkscape:swatch="solid"><stop
         style="stop-color:#334344;stop-opacity:1;"
         offset="0"
         id="stop2488" /></linearGradient><linearGradient
       id="linearGradient1758"
       inkscape:swatch="solid"><stop
         style="stop-color:#959595;stop-opacity:1;"
         offset="0"
         id="stop1756" /></linearGradient><linearGradient
       id="linearGradient1752"
       inkscape:swatch="solid"><stop
         style="stop-color:#959595;stop-opacity:1;"
         offset="0"
         id="stop1750" /></linearGradient><linearGradient
       id="metal"
       inkscape:swatch="solid"><stop
         style="stop-color:#e4e5ee;stop-opacity:1;"
         offset="0"
         id="stop1744" /></linearGradient><linearGradient
       id="dark_blue"
       inkscape:swatch="solid"><stop
         style="stop-color:#796c1b;stop-opacity:1;"
         offset="0"
         id="stop1738" /></linearGradient><linearGradient
       id="cap"
       inkscape:swatch="solid"><stop
         style="stop-color:#cac30a;stop-opacity:1;"
         offset="0"
         id="stop1732" /></linearGradient><linearGradient
       id="linearGradient1725"
       inkscape:swatch="solid"><stop
         style="stop-color:#371db2;stop-opacity:1;"
         offset="0"
         id="stop1723" /></linearGradient><linearGradient
       id="linearGradient1719"
       inkscape:swatch="solid"><stop
         style="stop-color:#371db2;stop-opacity:1;"
         offset="0"
         id="stop1717" /></linearGradient><linearGradient
       id="linearGradient987"
       inkscape:swatch="solid"><stop
         style="stop-color:#371db2;stop-opacity:1;"
         offset="0"
         id="stop985" /></linearGradient><linearGradient
       id="linearGradient981"
       inkscape:swatch="solid"><stop
         style="stop-color:#371db2;stop-opacity:1;"
         offset="0"
         id="stop979" /></linearGradient><linearGradient
       id="blue"
       inkscape:swatch="solid"><stop
         style="stop-color:#d4be4b;stop-opacity:1;"
         offset="0"
         id="stop967" /></linearGradient><linearGradient
       id="linearGradient963"
       inkscape:swatch="solid"><stop
         style="stop-color:#c9a100;stop-opacity:1;"
         offset="0"
         id="stop961" /></linearGradient><linearGradient
       id="roller_edge"
       inkscape:swatch="solid"><stop
         style="stop-color:#000bc9;stop-opacity:1;"
         offset="0"
         id="stop955" /></linearGradient><linearGradient
       id="linearGradient52202"><stop
         style="stop-color:#e0e4e1;stop-opacity:1;"
         offset="0"
         id="stop52250" /><stop
         style="stop-color:#cdd1cd;stop-opacity:1;"
         offset="1"
         id="stop52252" /></linearGradient><linearGradient
       id="linearGradient52202-1"><stop
         style="stop-color:#d0d6d2;stop-opacity:1;"
         offset="0"
         id="stop52198" /><stop
         style="stop-color:#b4b5b4;stop-opacity:1;"
         offset="1"
         id="stop52200" /></linearGradient><linearGradient
       id="linearGradient8602"
       inkscape:swatch="solid"><stop
         style="stop-color:#daaa00;stop-opacity:1;"
         offset="0"
         id="stop8600" /></linearGradient><linearGradient
       id="linearGradient8596"
       inkscape:swatch="solid"><stop
         style="stop-color:#d9a900;stop-opacity:1;"
         offset="0"
         id="stop8594" /></linearGradient><linearGradient
       id="linearGradient8590"
       inkscape:swatch="solid"><stop
         style="stop-color:#cca000;stop-opacity:1;"
         offset="0"
         id="stop8588" /></linearGradient><linearGradient
       id="linearGradient8584"
       inkscape:swatch="solid"><stop
         style="stop-color:#0003d0;stop-opacity:1;"
         offset="0"
         id="stop8582" /></linearGradient><linearGradient
       id="linearGradient8577"
       inkscape:swatch="solid"><stop
         style="stop-color:#18187d;stop-opacity:1;"
         offset="0"
         id="stop8575" /></linearGradient><linearGradient
       id="linearGradient8571"
       inkscape:swatch="solid"><stop
         style="stop-color:#1c1c90;stop-opacity:1;"
         offset="0"
         id="stop8569" /></linearGradient><linearGradient
       inkscape:collect="always"
       xlink:href="#linearGradient8584"
       id="linearGradient8598"
       x1="7.7550611"
       y1="32.064522"
       x2="43.449963"
       y2="32.064522"
       gradientUnits="userSpaceOnUse"
       gradientTransform="matrix(-0.06932145,-0.36694068,-0.36694068,0.06932145,46.699916,52.624405)" /><linearGradient
       inkscape:collect="always"
       xlink:href="#linearGradient52202"
       id="linearGradient52204"
       x1="39.340225"
       y1="14.100267"
       x2="39.366276"
       y2="8.964756"
       gradientUnits="userSpaceOnUse"
       spreadMethod="reflect" /><linearGradient
       inkscape:collect="always"
       xlink:href="#linearGradient52202-1"
       id="linearGradient52248"
       x1="35.253716"
       y1="22.891703"
       x2="33.797077"
       y2="28.116467"
       gradientUnits="userSpaceOnUse"
       spreadMethod="reflect" /><linearGradient
       inkscape:collect="always"
       xlink:href="#roller_edge"
       id="linearGradient959"
       x1="15.899576"
       y1="12.663021"
       x2="17.171906"
       y2="12.663021"
       gradientUnits="userSpaceOnUse" /><linearGradient
       inkscape:collect="always"
       xlink:href="#roller_edge"
       id="linearGradient965"
       x1="61.032993"
       y1="12.971263"
       x2="62.305321"
       y2="12.971263"
       gradientUnits="userSpaceOnUse" /><linearGradient
       inkscape:collect="always"
       xlink:href="#blue"
       id="linearGradient971"
       x1="62.171867"
       y1="13.315805"
       x2="63.221149"
       y2="13.315805"
       gradientUnits="userSpaceOnUse" /><linearGradient
       inkscape:collect="always"
       xlink:href="#blue"
       id="linearGradient983"
       x1="6.2756748"
       y1="22.488495"
       x2="27.497644"
       y2="22.488495"
       gradientUnits="userSpaceOnUse" /><linearGradient
       inkscape:collect="always"
       xlink:href="#blue"
       id="linearGradient989"
       x1="27.474022"
       y1="38.69883"
       x2="33.53344"
       y2="38.69883"
       gradientUnits="userSpaceOnUse" /><linearGradient
       inkscape:collect="always"
       xlink:href="#blue"
       id="linearGradient1721"
       x1="27.680136"
       y1="46.592537"
       x2="29.298615"
       y2="46.592537"
       gradientUnits="userSpaceOnUse" /><linearGradient
       inkscape:collect="always"
       xlink:href="#blue"
       id="linearGradient1727"
       x1="27.153023"
       y1="48.557499"
       x2="28.569254"
       y2="48.557499"
       gradientUnits="userSpaceOnUse" /><linearGradient
       inkscape:collect="always"
       xlink:href="#cap"
       id="linearGradient1736"
       x1="31.349882"
       y1="51.754091"
       x2="34.709835"
       y2="51.754091"
       gradientUnits="userSpaceOnUse" /><linearGradient
       inkscape:collect="always"
       xlink:href="#dark_blue"
       id="linearGradient1742"
       x1="37.649887"
       y1="40.20591"
       x2="38.543633"
       y2="40.20591"
       gradientUnits="userSpaceOnUse" /><linearGradient
       inkscape:collect="always"
       xlink:href="#metal"
       id="linearGradient1748"
       x1="26.366814"
       y1="44.168859"
       x2="28.247739"
       y2="44.168859"
       gradientUnits="userSpaceOnUse" /><linearGradient
       inkscape:collect="always"
       xlink:href="#metal"
       id="linearGradient1754"
       x1="62.887257"
       y1="14.668086"
       x2="63.885872"
       y2="14.668086"
       gradientUnits="userSpaceOnUse" /><linearGradient
       inkscape:collect="always"
       xlink:href="#metal"
       id="linearGradient1760"
       x1="58.686321"
       y1="25.241961"
       x2="62.082394"
       y2="25.241961"
       gradientUnits="userSpaceOnUse" /><linearGradient
       inkscape:collect="always"
       xlink:href="#gray"
       id="linearGradient2492"
       x1="24.56208"
       y1="53.454694"
       x2="28.391622"
       y2="53.454694"
       gradientUnits="userSpaceOnUse" /><linearGradient
       inkscape:collect="always"
       xlink:href="#gray"
       id="linearGradient2504"
       x1="26.046953"
       y1="30.273861"
       x2="32.580395"
       y2="30.273861"
       gradientUnits="userSpaceOnUse" /><linearGradient
       inkscape:collect="always"
       xlink:href="#gray"
       id="linearGradient2510"
       x1="18.083776"
       y1="29.243696"
       x2="21.46748"
       y2="29.243696"
       gradientUnits="userSpaceOnUse" /><linearGradient
       inkscape:collect="always"
       xlink:href="#gray"
       id="linearGradient2516"
       x1="26.151073"
       y1="20.515806"
       x2="30.942719"
       y2="20.515806"
       gradientUnits="userSpaceOnUse" /><linearGradient
       inkscape:collect="always"
       xlink:href="#gray"
       id="linearGradient2522"
       x1="21.28054"
       y1="20.482212"
       x2="26.072186"
       y2="20.482212"
       gradientUnits="userSpaceOnUse" /></defs><g
     inkscape:label="Layer 1"
     inkscape:groupmode="layer"
     id="layer1"><path
       style="fill:none;stroke:url(#linearGradient2504);stroke-width:0.965;stroke-linecap:butt;stroke-linejoin:round;stroke-dasharray:none;stroke-opacity:1"
       d="m 32.203974,31.678144 c 0,0 -0.894047,-1.114914 -1.502574,-1.455338 -1.3796,-0.771779 -4.594197,-1.176356 -4.594197,-1.176356"
       id="path45922"
       sodipodi:nodetypes="csc" /><path
       style="fill:url(#linearGradient2492);fill-opacity:1;stroke:none;stroke-width:0.264583px;stroke-linecap:butt;stroke-linejoin:miter;stroke-opacity:1"
       d="m 27.539884,49.102589 -0.273998,0.549198 -0.568954,-0.15245 -2.134852,7.967376 1.722652,0.340086 2.10689,-7.86302 -0.572156,-0.154867 0.160875,-0.600395 z"
       id="path43158"
       sodipodi:nodetypes="ccccccccc" /><path
       style="fill:url(#linearGradient989);fill-opacity:1.0;stroke:none;stroke-width:0.264583px;stroke-linecap:butt;stroke-linejoin:miter;stroke-opacity:1"
       d="m 32.489414,31.269899 c -0.555855,-0.05235 -1.548725,0.832223 -1.548725,0.832223 l -3.466668,13.397913 2.55974,0.62996 3.499678,-13.459862 c 0,0 -0.431629,-1.342556 -1.044025,-1.400234 z"
       id="path39577"
       sodipodi:nodetypes="sccccs" /><path
       style="fill:url(#linearGradient1721);fill-opacity:1.0;stroke:none;stroke-width:0.264583px;stroke-linecap:butt;stroke-linejoin:miter;stroke-opacity:1"
       d="m 28.06897,45.569103 c 0,0 0.0053,0.325322 -0.04111,0.478539 -0.05868,0.193608 -0.241524,0.336 -0.292521,0.531773 -0.07179,0.275608 -0.05298,0.815962 -0.05298,0.815962 l 0.997737,0.220592 c 0,0 0.426781,-0.404372 0.521568,-0.700576 0.06431,-0.200958 -4.99e-4,-0.476153 0.02146,-0.686003 0.01202,-0.114881 0.07549,-0.338204 0.07549,-0.338204 z"
       id="path39924"
       sodipodi:nodetypes="cssccsscc" /><rect
       style="fill:url(#linearGradient1742);fill-opacity:1;stroke:none;stroke-width:1.865;stroke-linecap:round;stroke-linejoin:round;stroke-dasharray:none;stroke-opacity:1;paint-order:stroke fill markers"
       id="rect40668"
       width="0.8937456"
       height="0.43580642"
       x="37.649887"
       y="39.988007"
       transform="rotate(12.922963)" /><rect
       style="display:inline;fill:#d2d7d3;fill-opacity:1;stroke:none;stroke-width:0.0989589"
       id="rect408"
       width="12.866194"
       height="5.7690868"
       x="-48.208427"
       y="-39.275787"
       transform="matrix(0.06292992,-0.99801795,-0.99801795,-0.06292992,0,0)"
       ry="2.8299334"
       rx="2.998667"
       inkscape:label="container" /><path
       style="fill:url(#linearGradient1736);fill-opacity:1;stroke:none;stroke-width:0.0988036px;stroke-linecap:butt;stroke-linejoin:miter;stroke-opacity:1"
       d="m 34.709835,50.675825 -0.788287,2.782964 -2.087274,-0.169749 -0.484392,-3.239648 0.243082,0.251539 z"
       id="path2258"
       inkscape:label="stock"
       sodipodi:nodetypes="cccccc" /><path
       style="fill:url(#linearGradient8598);fill-opacity:1;stroke:none;stroke-width:0.0988036px;stroke-linecap:butt;stroke-linejoin:miter;stroke-opacity:1"
       d="m 36.557995,51.593182 c 0,0 -0.987844,-0.498057 -1.513615,-0.661668 -0.267609,-0.08328 -0.549286,-0.112157 -0.825468,-0.159831 -0.885692,-0.15289 -1.847265,-0.03344 -2.665846,-0.404586 -0.398517,-0.180689 -0.775721,-0.47273 -1.003377,-0.84641 -0.223981,-0.367648 -0.287263,-1.259154 -0.287263,-1.259154 l 0.301457,-0.818574 c 0,0 0.229629,-0.418684 0.413894,-0.559714 0.287086,-0.219726 0.652847,-0.339956 1.010203,-0.394679 0.483216,-0.074 0.974363,0.110795 1.463103,0.100457 0.210651,-0.0045 0.426237,-0.0099 0.628216,-0.06992 0.162153,-0.04816 0.326651,-0.116041 0.453228,-0.22825 0.151517,-0.134319 0.268626,-0.315019 0.336303,-0.505857 0.08938,-0.252048 0.138056,-0.53855 0.07599,-0.798676 -0.05627,-0.235822 -0.219123,-0.441369 -0.388376,-0.614953 -0.508214,-0.521217 -1.221233,-0.793329 -1.816461,-1.212438 -0.419917,-0.295669 -0.926401,-0.509321 -1.237258,-0.918124 -0.284811,-0.37455 -0.418962,-0.855068 -0.507649,-1.317173 -0.04743,-0.24702 -0.0086,-0.754546 -0.0086,-0.754546 l 0.175778,-1.032752 0.03887,-0.09652 0.200558,0.226215 -0.107995,0.699918 0.323464,0.809589 0.391447,0.621125 c 0,0 0.397487,0.287276 0.910795,0.588236 0.584257,0.342557 1.261819,0.43171 1.837462,0.760368 0.360125,0.205609 0.723188,0.434058 0.99398,0.748123 0.240768,0.279242 0.441983,0.491127 0.527865,0.972041 0.07709,0.431686 0.111197,1.192353 -0.01743,1.611579 -0.09947,0.32421 -0.208073,0.58043 -0.437402,0.918553 -0.235355,0.34701 -0.523346,0.491883 -0.775363,0.653089 -0.288404,0.184481 -0.501789,0.228775 -0.769837,0.28207 -0.404443,0.08042 -0.82371,0.0573 -1.236023,0.05111 -0.314879,-0.0047 -0.628057,-0.08729 -0.94234,-0.06735 -0.215016,0.01364 -0.466226,-0.0084 -0.633711,0.127168 -0.130965,0.105973 -0.177179,0.297051 -0.200636,0.46388 -0.02383,0.169511 0.021,0.344118 0.06598,0.50928 0.05234,0.192151 0.08508,0.417713 0.23431,0.54959 0.23368,0.206505 0.594024,0.194073 0.899196,0.258266 0.755158,0.158849 1.538134,0.156054 2.293997,0.311511 0.46839,0.09633 0.941911,0.197365 1.382336,0.383632 0.311294,0.131655 0.875108,0.512173 0.875108,0.512173 z"
       id="path1701"
       inkscape:label="yellow wrapping"
       sodipodi:nodetypes="cssssccssssssssssscccccccssssssssssssssssscc" /><g
       id="g50809"
       style="fill-opacity:1.0;fill:url(#linearGradient2510)"><rect
         style="fill:url(#linearGradient2510);fill-opacity:1.0;stroke:none;stroke-width:2.165;stroke-linecap:round;stroke-linejoin:round;stroke-dasharray:none;stroke-opacity:1;paint-order:stroke fill markers"
         id="rect50609"
         width="3.1811087"
         height="1.4787655"
         x="22.855011"
         y="25.108627"
         transform="rotate(9.6328678)" /><rect
         style="fill:url(#linearGradient2510);fill-opacity:1.0;stroke:none;stroke-width:2.165;stroke-linecap:round;stroke-linejoin:round;stroke-dasharray:none;stroke-opacity:1;paint-order:stroke fill markers"
         id="rect50801"
         width="1.2844486"
         height="1.0548966"
         x="-26.698767"
         y="-23.74103"
         transform="rotate(-166.71786)" /></g><path
       style="fill:url(#linearGradient1727);fill-opacity:1.0;stroke:none;stroke-width:0.264583px;stroke-linecap:butt;stroke-linejoin:miter;stroke-opacity:1"
       d="m 27.584641,47.7927 c 0,0 -0.167561,0.348283 -0.256353,0.538615 -0.107296,0.229994 -0.175265,0.740926 -0.175265,0.740926 l 1.104485,0.250058 c 0,0 0.247349,-0.451527 0.295682,-0.700245 0.04135,-0.21279 -0.01019,-0.650231 -0.01019,-0.650231 z"
       id="path41774"
       sodipodi:nodetypes="csccscc" /><path
       style="fill:url(#linearGradient1748);stroke:none;stroke-width:0.264583px;stroke-linecap:butt;stroke-linejoin:miter;stroke-opacity:1;fill-opacity:1"
       d="m 28.247739,42.735473 -1.107715,-0.302572 -0.270656,1.067702 0.260126,0.04142 -0.76268,2.252221 0.565176,0.110574 0.784458,-2.539581 0.373435,0.116226 z"
       id="path43988" /><path
       style="fill:none;stroke:url(#linearGradient983);stroke-width:2.165;stroke-linecap:butt;stroke-linejoin:round;stroke-dasharray:none;stroke-opacity:1"
       d="M 27.217472,29.22857 11.534557,25.026346 c 0,0 -4.4442173,-3.793816 -4.1609268,-6.028026 0.2904835,-2.290937 5.7176068,-3.228828 5.7176068,-3.228828"
       id="path47174"
       sodipodi:nodetypes="ccsc" /><rect
       style="fill:#959595;fill-opacity:1;stroke:none;stroke-width:2.165;stroke-linecap:round;stroke-linejoin:round;stroke-dasharray:none;stroke-opacity:1;paint-order:stroke fill markers"
       id="rect47849"
       width="0.56888044"
       height="3.4237931"
       x="15.164882"
       y="11.211576"
       transform="rotate(13.314138)" /><rect
       style="fill:url(#linearGradient959);fill-opacity:1.0;stroke:none;stroke-width:2.165;stroke-linecap:round;stroke-linejoin:round;stroke-dasharray:none;stroke-opacity:1;paint-order:stroke fill markers"
       id="rect49412"
       width="1.2723293"
       height="8.3482533"
       x="15.899576"
       y="8.4888945"
       transform="rotate(14.11136)" /><rect
       style="fill:url(#linearGradient971);fill-opacity:1.0;stroke:none;stroke-width:2.165;stroke-linecap:round;stroke-linejoin:round;stroke-dasharray:none;stroke-opacity:1;paint-order:stroke fill markers"
       id="rect49554"
       width="1.0492821"
       height="6.7671723"
       x="62.171867"
       y="9.9322186"
       transform="rotate(14.11136)" /><rect
       style="fill:url(#linearGradient965);fill-opacity:1.0;stroke:none;stroke-width:2.165;stroke-linecap:round;stroke-linejoin:round;stroke-dasharray:none;stroke-opacity:1;paint-order:stroke fill markers"
       id="rect49552"
       width="1.2723274"
       height="8.9647379"
       x="61.032993"
       y="8.4888945"
       transform="rotate(14.11136)" /><path
       id="rect50323"
       style="display:inline;fill:url(#linearGradient52204);stroke-width:2.165;stroke-linecap:round;stroke-linejoin:round;paint-order:stroke fill markers;fill-opacity:1"
       transform="rotate(14.11136)"
       d="m 17.171906,8.4888945 43.861087,0 V 17.453632 L 17.171906,16.837147 Z"
       sodipodi:nodetypes="ccccc" /><path
       id="path50554"
       style="fill:url(#linearGradient52248);fill-opacity:1;stroke-width:2.165;stroke-linecap:round;stroke-linejoin:round;paint-order:stroke fill markers"
       d="m 18.225608,21.310387 c -0.06218,0.235933 -0.115832,0.437115 -0.394307,0.55382 -0.278474,0.116704 -1.11763,-0.178504 -1.11763,-0.178504 0,0 -0.485027,-0.0865 -0.800056,-0.142678 -0.215697,-0.104341 -0.383215,-0.102626 -0.383215,-0.433296 0,-0.768265 0.535877,-1.190409 1.304142,-1.190409 0.768265,0 1.586848,0.648167 1.391066,1.391067 z m 4.769496,1.203871 c -0.06218,0.235933 -0.115832,0.437115 -0.394307,0.55382 -0.278474,0.116704 -1.11763,-0.178504 -1.11763,-0.178504 0,0 -0.485027,-0.0865 -0.800056,-0.142678 -0.215697,-0.104341 -0.383215,-0.102626 -0.383215,-0.433296 0,-0.768265 0.535877,-1.190409 1.304142,-1.190409 0.768265,0 1.586848,0.648167 1.391066,1.391067 z m 4.975196,1.372318 c -0.06218,0.235933 -0.115832,0.437115 -0.394307,0.55382 -0.278474,0.116704 -1.11763,-0.178504 -1.11763,-0.178504 0,0 -0.485027,-0.0865 -0.800056,-0.142678 -0.215697,-0.104341 -0.383215,-0.102626 -0.383215,-0.433296 0,-0.768265 0.535877,-1.190409 1.304142,-1.190409 0.768265,0 1.586848,0.648167 1.391066,1.391067 z m 4.642187,1.358638 c -0.06218,0.235933 -0.115832,0.437115 -0.394307,0.55382 -0.278474,0.116704 -1.11763,-0.178504 -1.11763,-0.178504 0,0 -0.485027,-0.0865 -0.800056,-0.142678 -0.215697,-0.104341 -0.383215,-0.102626 -0.383215,-0.433296 0,-0.768265 0.535877,-1.190409 1.304142,-1.190409 0.768265,0 1.586848,0.648167 1.391066,1.391067 z m 5.144222,1.30688 c -0.06218,0.235933 -0.115832,0.437115 -0.394307,0.55382 -0.278474,0.116704 -1.11763,-0.178504 -1.11763,-0.178504 0,0 -0.485027,-0.0865 -0.800056,-0.142678 -0.215697,-0.104341 -0.383215,-0.102626 -0.383215,-0.433296 0,-0.768265 0.535877,-1.190409 1.304142,-1.190409 0.768265,0 1.586848,0.648167 1.391066,1.391067 z m 4.678005,1.23352 c -0.06218,0.235933 -0.115832,0.437115 -0.394307,0.55382 -0.278474,0.116704 -1.11763,-0.178504 -1.11763,-0.178504 0,0 -0.485027,-0.0865 -0.800056,-0.142678 -0.215697,-0.104341 -0.383215,-0.102626 -0.383215,-0.433296 0,-0.768265 0.535877,-1.190409 1.304142,-1.190409 0.768265,0 1.586848,0.648167 1.391066,1.391067 z m 4.817894,1.377942 c -0.06218,0.235933 0.05373,0.311294 -0.224749,0.427999 -0.278474,0.116704 -0.985077,-0.146554 -0.985077,-0.146554 0,0 -0.697702,-0.22454 -1.012731,-0.280718 -0.215697,-0.104341 -0.457086,-0.04211 -0.457086,-0.372784 0,-0.768265 0.520312,-1.01901 1.288577,-1.01901 0.768265,0 1.586848,0.648167 1.391066,1.391067 z m 5.077881,1.269122 c -0.06218,0.235933 -0.115832,0.437115 -0.394307,0.55382 -0.278474,0.116704 -1.11763,-0.178504 -1.11763,-0.178504 0,0 -0.485027,-0.0865 -0.800056,-0.142678 -0.215697,-0.104341 -0.383215,-0.102626 -0.383215,-0.433296 0,-0.768265 0.535877,-1.190409 1.304142,-1.190409 0.768265,0 1.586848,0.648167 1.391066,1.391067 z m 1.187294,-5.155035 c 0,0.768265 -0.622801,1.391067 -1.391066,1.391067 -0.768265,0 -1.391067,-0.622802 -1.391067,-1.391067 0,-0.768265 0.622802,-1.391067 1.391067,-1.391067 0.768265,0 1.391066,0.622802 1.391066,1.391067 z m -4.815956,-1.391067 c 0,0.768265 -0.622802,1.391066 -1.391067,1.391066 -0.768264,0 -1.391066,-0.622802 -1.391066,-1.391066 0,-0.768265 0.622801,-1.391067 1.391066,-1.391067 0.768265,0 1.391067,0.622802 1.391067,1.391067 z m -4.993965,-1.052029 c 0,0.768265 -0.622802,1.391067 -1.391067,1.391067 -0.768265,0 -1.391066,-0.622802 -1.391066,-1.391067 0,-0.768265 0.622801,-1.391067 1.391066,-1.391067 0.768265,0 1.391067,0.622802 1.391067,1.391067 z M 38.884784,21.44348 c 0,0.768265 -0.622802,1.391066 -1.391067,1.391066 -0.768265,0 -1.391067,-0.622801 -1.391067,-1.391066 0,-0.768265 0.622802,-1.391067 1.391067,-1.391067 0.768265,0 1.391067,0.622802 1.391067,1.391067 z m -4.823078,-1.25002 c 0,0.768265 -0.622802,1.391067 -1.391067,1.391067 -0.768265,0 -1.391067,-0.622802 -1.391067,-1.391067 0,-0.768265 0.622802,-1.391066 1.391067,-1.391066 0.768265,0 1.391067,0.622801 1.391067,1.391066 z m -4.823078,-1.277385 c 0,0.768265 -0.622802,1.391067 -1.391067,1.391067 -0.768265,0 -1.391067,-0.622802 -1.391067,-1.391067 0,-0.768265 0.622802,-1.391067 1.391067,-1.391067 0.768265,0 1.391067,0.622802 1.391067,1.391067 z M 24.41555,17.525007 c 0,0.768265 -0.622802,1.391067 -1.391067,1.391067 -0.768265,0 -1.391067,-0.622802 -1.391067,-1.391067 0,-0.768265 0.622802,-1.391067 1.391067,-1.391067 0.768265,0 1.391067,0.622802 1.391067,1.391067 z M 19.592471,16.13394 c 0,0.768265 -0.622801,1.391067 -1.391066,1.391067 -0.768265,0 -1.391067,-0.622802 -1.391067,-1.391067 0,-0.768265 0.622802,-1.391067 1.391067,-1.391067 0.768265,0 1.391066,0.622802 1.391066,1.391067 z"
       sodipodi:nodetypes="ssccsssssccsssssccsssssccsssssccsssssccsssssccsssssccsssssssssssssssssssssssssssssssssssssssssss" /><rect
       style="fill:url(#linearGradient2522);fill-opacity:1.0;stroke:none;stroke-width:2.165;stroke-linecap:round;stroke-linejoin:round;stroke-dasharray:none;stroke-opacity:1;paint-order:stroke fill markers"
       id="rect50803"
       width="4.7916451"
       height="1.4824301"
       x="21.28054"
       y="19.740997"
       transform="rotate(13.074094)"
       ry="0.31843975" /><rect
       style="fill:url(#linearGradient2516);fill-opacity:1.0;stroke:none;stroke-width:2.165;stroke-linecap:round;stroke-linejoin:round;stroke-dasharray:none;stroke-opacity:1;paint-order:stroke fill markers"
       id="rect50805"
       width="4.7916451"
       height="1.4824301"
       x="26.151073"
       y="19.774591"
       transform="rotate(13.074094)"
       ry="0.31843975" /><rect
       style="fill:url(#linearGradient1754);fill-opacity:1.0;stroke:none;stroke-width:2.165;stroke-linecap:round;stroke-linejoin:round;stroke-dasharray:none;stroke-opacity:1;paint-order:stroke fill markers"
       id="rect52516"
       width="0.99861449"
       height="2.9791932"
       x="62.887257"
       y="13.17849"
       transform="rotate(12.866035)" /><path
       style="fill:none;stroke:#000000;stroke-width:0;stroke-linecap:butt;stroke-linejoin:miter;stroke-opacity:1;stroke-dasharray:none"
       d="m 58.979654,27.142551 0.525468,-2.500689 0.825299,-0.821546 1.360863,0.01725 0.385582,0.819663 -0.656344,1.036594 -1.152056,0.226993"
       id="path52520" /><path
       style="fill:none;stroke:url(#linearGradient1760);stroke-width:0.465;stroke-linecap:butt;stroke-linejoin:miter;stroke-dasharray:none;stroke-opacity:1"
       d="m 58.915188,27.140006 0.353203,-1.974644 c 0,0 0.214066,-0.817629 0.479592,-1.128264 0.153282,-0.179323 0.393157,-0.363544 0.621002,-0.424687 0.363742,-0.09761 0.799015,-0.12656 1.108484,0.08807 0.25987,0.180229 0.332801,0.561961 0.362362,0.876828 0.02506,0.266907 0.0044,0.578439 -0.163457,0.787457 -0.197945,0.246472 -0.556358,0.320625 -0.865081,0.388599 -0.208373,0.04588 -0.640051,0.0072 -0.640051,0.0072"
       id="path52585"
       sodipodi:nodetypes="ccssssssc" /></g></svg>
