<?xml version="1.0" encoding="UTF-8" standalone="no"?>
<!-- Created with Inkscape (http://www.inkscape.org/) -->

<svg
   width="69mm"
   height="69mm"
   viewBox="0 0 69 69"
   version="1.1"
   id="svg1029"
   xml:space="preserve"
   inkscape:version="1.2.2 (b0a8486541, 2022-12-01)"
   sodipodi:docname="s3custom_pastel_luna_blaster_2d.svg"
   inkscape:export-filename="lunablaster.png"
   inkscape:export-xdpi="94.237679"
   inkscape:export-ydpi="94.237679"
   xmlns:inkscape="http://www.inkscape.org/namespaces/inkscape"
   xmlns:sodipodi="http://sodipodi.sourceforge.net/DTD/sodipodi-0.dtd"
   xmlns:xlink="http://www.w3.org/1999/xlink"
   xmlns="http://www.w3.org/2000/svg"
   xmlns:svg="http://www.w3.org/2000/svg"><sodipodi:namedview
     id="namedview1031"
     pagecolor="#ffffff"
     bordercolor="#666666"
     borderopacity="1.0"
     inkscape:showpageshadow="2"
     inkscape:pageopacity="0.0"
     inkscape:pagecheckerboard="true"
     inkscape:deskcolor="#d1d1d1"
     inkscape:document-units="mm"
     showgrid="false"
     inkscape:zoom="3.4159834"
     inkscape:cx="81.089387"
     inkscape:cy="99.824841"
     inkscape:window-width="1906"
     inkscape:window-height="1026"
     inkscape:window-x="5"
     inkscape:window-y="25"
     inkscape:window-maximized="1"
     inkscape:current-layer="layer1" /><defs
     id="defs1026"><linearGradient
       inkscape:collect="always"
       id="linearGradient4960"><stop
         style="stop-color:#f1c0e8;stop-opacity:0.60392159;"
         offset="0"
         id="stop4958" /><stop
         style="stop-color:#cfbaf0;stop-opacity:0.84705883;"
         offset="1"
         id="stop4956" /></linearGradient><linearGradient
       id="linearGradient4030"
       inkscape:swatch="gradient"><stop
         style="stop-color:#b3b3b3;stop-opacity:0.22956848;"
         offset="0"
         id="stop4026" /><stop
         style="stop-color:#666666;stop-opacity:1"
         offset="1"
         id="stop4028" /></linearGradient><linearGradient
       id="linearGradient3756"
       inkscape:swatch="solid"><stop
         style="stop-color:#b3bdbd;stop-opacity:0.61176473;"
         offset="0"
         id="stop3754" /></linearGradient><linearGradient
       id="linearGradient1776"
       inkscape:swatch="solid"><stop
         style="stop-color:#ffd42a;stop-opacity:1;"
         offset="0"
         id="stop1774" /></linearGradient><linearGradient
       id="linearGradient1770"
       inkscape:swatch="solid"><stop
         style="stop-color:#ac8602;stop-opacity:1;"
         offset="0"
         id="stop1768" /></linearGradient><linearGradient
       inkscape:collect="always"
       id="linearGradient32213"><stop
         style="stop-color:#f1c0e8;stop-opacity:0.77618361;"
         offset="0"
         id="stop32209" /><stop
         style="stop-color:#cfbaf0;stop-opacity:0.97097951;"
         offset="1"
         id="stop32211" /></linearGradient><linearGradient
       inkscape:collect="always"
       id="linearGradient21910"><stop
         style="stop-color:#fde4cf;stop-opacity:1;"
         offset="0"
         id="stop21906" /><stop
         style="stop-color:#ffcfd2;stop-opacity:1;"
         offset="1"
         id="stop21908" /></linearGradient><linearGradient
       inkscape:collect="always"
       id="linearGradient18344"><stop
         style="stop-color:#98f5e1;stop-opacity:1;"
         offset="0"
         id="stop18340" /><stop
         style="stop-color:#b9fbc0;stop-opacity:1;"
         offset="1"
         id="stop18342" /></linearGradient><radialGradient
       inkscape:collect="always"
       xlink:href="#linearGradient18344"
       id="radialGradient18346"
       cx="51.141857"
       cy="14.541354"
       fx="51.141857"
       fy="14.541354"
       r="5.7334862"
       gradientUnits="userSpaceOnUse"
       gradientTransform="translate(0.02900202,0.75548427)" /><radialGradient
       inkscape:collect="always"
       xlink:href="#linearGradient21910"
       id="radialGradient21912"
       cx="36.142227"
       cy="40.786957"
       fx="36.142227"
       fy="40.786957"
       r="12.407692"
       gradientTransform="matrix(-0.99972955,-0.02325547,0.0288185,-1.2388788,71.099261,92.157557)"
       gradientUnits="userSpaceOnUse" /><radialGradient
       inkscape:collect="always"
       xlink:href="#linearGradient32213"
       id="radialGradient32215"
       cx="43.731404"
       cy="33.822587"
       fx="43.731404"
       fy="33.822587"
       r="9.182502"
       gradientTransform="matrix(1,0,0,0.94609702,0,1.8231382)"
       gradientUnits="userSpaceOnUse" /><linearGradient
       inkscape:collect="always"
       xlink:href="#linearGradient1770"
       id="linearGradient1772"
       x1="13.239173"
       y1="41.648933"
       x2="21.374659"
       y2="41.648933"
       gradientUnits="userSpaceOnUse" /><linearGradient
       inkscape:collect="always"
       xlink:href="#linearGradient1770"
       id="linearGradient1778"
       x1="37.342522"
       y1="42.047283"
       x2="39.037853"
       y2="42.047283"
       gradientUnits="userSpaceOnUse" /><radialGradient
       inkscape:collect="always"
       xlink:href="#linearGradient4960"
       id="radialGradient4962"
       cx="14.402307"
       cy="41.250057"
       fx="14.402307"
       fy="41.250057"
       r="8.1748549"
       gradientTransform="matrix(0.91933507,-0.09000019,0.06539238,0.66797079,-1.535678,14.69905)"
       gradientUnits="userSpaceOnUse" /></defs><g
     inkscape:label="Layer 1"
     inkscape:groupmode="layer"
     id="layer1"><path
       style="display:inline;fill:#ffffff;fill-opacity:1;stroke:none;stroke-width:0.264583px;stroke-linecap:butt;stroke-linejoin:miter;stroke-opacity:1"
       d="m 34.548902,26.303096 13.259067,16.207029 c 0,0 2.450109,-1.505808 3.23805,-2.335212 0.976599,-1.027989 1.867887,-3.249542 1.867887,-3.249542 l -2.57697,-9.165235 c 0,0 -0.462267,-0.227503 -4.107854,-1.803927 -2.683327,-1.160324 -8.205058,-0.751181 -8.205058,-0.751181 z"
       id="path909"
       sodipodi:nodetypes="ccsccscc" /><path
       id="path353"
       style="display:inline;fill:#ffffff;fill-opacity:1;stroke-width:0.964999;stroke-linejoin:round"
       d="m 25.228807,42.430114 c -0.888402,-0.588805 -1.449593,-1.51634 -2.036411,-1.589829 -0.585553,-0.07333 -2.047942,0.231717 -2.410793,0.272779 -0.733819,0.08304 -1.155232,0.868506 -1.19327,0.982513 -0.726857,2.178501 -2.782923,3.748956 -5.205788,3.748956 -3.030203,0 -5.4866683,-2.456466 -5.4866681,-5.486669 3e-7,-3.030203 2.4564651,-5.486668 5.4866681,-5.486668 2.201314,0 4.099842,1.296375 4.973785,3.167325 0.08844,0.189325 0.58971,1.308405 1.281167,1.256561 0.493572,-0.03701 1.384531,-0.02101 2.061318,-0.166583 0.67431,-0.145044 0.869625,-1.389428 1.061764,-2.172354 0.143715,-0.585606 1.660255,5.601239 1.468228,5.473969 z"
       sodipodi:nodetypes="ssssssssssss" /><g
       id="g20960"
       transform="translate(2.4067251,-0.2306073)"><path
         style="fill:#a9b4b5;fill-opacity:1;stroke:none;stroke-width:0.264583px;stroke-linecap:butt;stroke-linejoin:miter;stroke-opacity:1"
         d="m 15.542931,38.453433 0.30521,4.328951 -0.221865,0.795342 -0.839033,0.517295 -0.817566,-0.518752 -0.03244,-0.932927 -0.404754,-3.869504 0.08466,-0.981081 0.298872,-0.516554 0.820632,-0.01976 z"
         id="path7669" /><path
         style="fill:#748587;fill-opacity:1;stroke:none;stroke-width:0.264583px;stroke-linecap:butt;stroke-linejoin:miter;stroke-opacity:1"
         d="m 15.47837,38.45855 0.885936,0.134831 0.107466,3.979963 -0.639344,0.26157 z"
         id="path11391" /><rect
         style="fill:url(#linearGradient1772);fill-opacity:1;fill-rule:evenodd;stroke:none;stroke-width:0.264583"
         id="rect11445"
         width="9.6787081"
         height="0.81268328"
         x="13.239173"
         y="41.268787"
         transform="rotate(-4.3970299)" /></g><path
       style="display:inline;fill:#b9fbc0;fill-opacity:1;stroke:none;stroke-width:0.265;stroke-linecap:butt;stroke-linejoin:miter;stroke-dasharray:none;stroke-opacity:1"
       d="m 45.0532,25.622091 c -0.500404,0.776327 -0.12131,3.622375 -0.12131,3.622375 l 1.807888,0.380977 1.004671,-0.809352 c 0,0 0.909749,-0.972202 1.050583,-1.592292 0.234651,-1.033164 -0.693884,-2.257767 -0.432723,-3.148833 0.18642,-0.636053 0.520367,-1.23198 0.910921,-1.767501 0.528996,-0.72535 1.90247,-1.906391 1.90247,-1.906391 l -3.604781,-1.266131 c 0,0 0.177866,1.363987 0.14147,2.046969 -0.04084,0.766378 -0.09291,1.564545 -0.401958,2.267036 -0.186124,0.423077 -0.51214,0.778173 -0.842928,1.100997 -0.493411,0.481532 -1.030614,0.47689 -1.414303,1.072146 z"
       id="path13744"
       sodipodi:nodetypes="scccsssccssss" /><g
       id="g1548"
       transform="translate(1.31789,1.0818075)"
       style="display:inline"><path
         id="rect21731"
         style="fill:#575c5e;fill-rule:evenodd;stroke-width:0.264999"
         transform="rotate(-13.206637,-5.3314692,5.151304)"
         d="m 33.29909,36.472041 2.278246,1.772159 0.266147,9.248124 -2.984371,0.984503 z"
         sodipodi:nodetypes="ccccc" /><rect
         style="fill:url(#linearGradient1778);fill-rule:evenodd;stroke-width:0.264583;fill-opacity:1.0"
         id="rect1430"
         width="1.6953301"
         height="8.1705713"
         x="37.342522"
         y="37.961998"
         transform="rotate(-13.742129)" /><rect
         style="fill:#6d6f69;fill-rule:evenodd;stroke-width:0.264583"
         id="rect1432"
         width="3.1329846"
         height="9.2536278"
         x="33.618435"
         y="37.692657"
         transform="rotate(-14.603494)" /><rect
         style="display:inline;fill:#4d4d4d;fill-rule:evenodd;stroke-width:0.251456"
         id="rect1486"
         width="3.930701"
         height="10.736102"
         x="28.914646"
         y="34.54697"
         transform="rotate(-12.250358)" /></g><rect
       style="display:inline;fill:#4d4d4d;fill-opacity:1;stroke-width:0.964999;stroke-linejoin:round"
       id="rect1879"
       width="2.6798108"
       height="9.349968"
       x="38.501431"
       y="40.231522"
       transform="rotate(-15.592523)"
       ry="0" /><path
       style="display:inline;fill:#a3c4f3;fill-opacity:1;stroke:none;stroke-width:0.264583px;stroke-linecap:butt;stroke-linejoin:miter;stroke-opacity:1"
       d="m 28.5478,49.233185 3.19595,0.03159 -0.491966,-3.702272 z"
       id="path19987" /><path
       style="display:inline;fill:url(#radialGradient21912);fill-opacity:1;stroke:none;stroke-width:0.264583px;stroke-linecap:butt;stroke-linejoin:miter;stroke-opacity:1"
       d="m 35.387258,25.857664 13.162659,16.130052 c 0,0 -1.26846,0.91546 -1.95964,1.27572 -2.042399,1.06455 -4.158253,2.088418 -6.406639,2.587839 -2.191163,0.48671 -6.724152,0.358473 -6.724152,0.358473 l -1.726698,0.04924 c 0,0 -1.597082,1.038058 -2.116955,1.806305 -0.350617,0.518127 -0.610647,1.152808 -0.600032,1.778328 0.02663,1.569137 1.655699,4.407352 1.655699,4.407352 l -4.62946,1.465279 c 0,0 -1.146114,-2.48589 -1.310266,-3.82293 -0.110303,-0.89843 0.0622,-1.816585 0.23289,-2.705521 0.310191,-1.615424 2.269645,-4.147178 2.269645,-4.147178 L 25.165852,42.478317 23.734534,37.071983 24.5542,34.654559 c 0,0 1.198303,-2.571717 2.101171,-3.644749 1.065132,-1.265879 2.394451,-2.325616 3.812672,-3.17744 1.155669,-0.694128 3.74523,-1.526343 3.74523,-1.526343 z"
       id="path6393"
       sodipodi:nodetypes="ccssccssccssccccsscc" /><path
       style="display:inline;fill:url(#radialGradient32215);fill-opacity:1;stroke:none;stroke-width:0.264583px;stroke-linecap:butt;stroke-linejoin:miter;stroke-opacity:1"
       d="m 34.548902,26.303096 13.259067,16.207029 c 0,0 2.450109,-1.505808 3.23805,-2.335212 0.976599,-1.027989 1.867887,-3.249542 1.867887,-3.249542 l -2.57697,-9.165235 c 0,0 -0.462267,-0.227503 -4.107854,-1.803927 -2.683327,-1.160324 -8.205058,-0.751181 -8.205058,-0.751181 z"
       id="path1552"
       sodipodi:nodetypes="ccsccscc" /><circle
       style="fill:url(#radialGradient18346);fill-opacity:1;fill-rule:evenodd;stroke:none;stroke-width:0.264583"
       id="path15937"
       cx="51.170856"
       cy="15.296839"
       r="5.7334862" /><path
       id="path2322"
       style="display:inline;fill:url(#radialGradient4962);fill-opacity:1;stroke-width:0.964999;stroke-linejoin:round"
       d="m 25.228807,42.430114 c -0.888402,-0.588805 -1.449593,-1.51634 -2.036411,-1.589829 -0.585553,-0.07333 -2.047942,0.231717 -2.410793,0.272779 -0.733819,0.08304 -1.155232,0.868506 -1.19327,0.982513 -0.726857,2.178501 -2.782923,3.748956 -5.205788,3.748956 -3.030203,0 -5.4866683,-2.456466 -5.4866681,-5.486669 3e-7,-3.030203 2.4564651,-5.486668 5.4866681,-5.486668 2.201314,0 4.099842,1.296375 4.973785,3.167325 0.08844,0.189325 0.58971,1.308405 1.281167,1.256561 0.493572,-0.03701 1.384531,-0.02101 2.061318,-0.166583 0.67431,-0.145044 0.869625,-1.389428 1.061764,-2.172354 0.143715,-0.585606 1.660255,5.601239 1.468228,5.473969 z"
       sodipodi:nodetypes="ssssssssssss" /></g></svg>
