<?xml version="1.0" encoding="UTF-8" standalone="no"?>
<!-- Created with Inkscape (http://www.inkscape.org/) -->

<svg
   width="256"
   height="256"
   viewBox="0 0 67.733332 67.733333"
   version="1.1"
   id="svg38167"
   xml:space="preserve"
   inkscape:version="1.2.2 (b0a8486541, 2022-12-01)"
   sodipodi:docname="rangeblaster_zf.svg"
   inkscape:export-filename="rangeblaster_zf.png"
   inkscape:export-xdpi="96"
   inkscape:export-ydpi="96"
   xmlns:inkscape="http://www.inkscape.org/namespaces/inkscape"
   xmlns:sodipodi="http://sodipodi.sourceforge.net/DTD/sodipodi-0.dtd"
   xmlns:xlink="http://www.w3.org/1999/xlink"
   xmlns="http://www.w3.org/2000/svg"
   xmlns:svg="http://www.w3.org/2000/svg"><sodipodi:namedview
     id="namedview38169"
     pagecolor="#ffffff"
     bordercolor="#666666"
     borderopacity="1.0"
     inkscape:showpageshadow="2"
     inkscape:pageopacity="0.0"
     inkscape:pagecheckerboard="0"
     inkscape:deskcolor="#d1d1d1"
     inkscape:document-units="mm"
     showgrid="false"
     inkscape:zoom="4.4866518"
     inkscape:cx="92.942359"
     inkscape:cy="123.92315"
     inkscape:window-width="1906"
     inkscape:window-height="1026"
     inkscape:window-x="5"
     inkscape:window-y="25"
     inkscape:window-maximized="1"
     inkscape:current-layer="layer1" /><defs
     id="defs38164"><linearGradient
       id="linearGradient3727"
       inkscape:swatch="solid"><stop
         style="stop-color:#3e3e41;stop-opacity:1;"
         offset="0"
         id="stop3725" /></linearGradient><linearGradient
       id="linearGradient3721"
       inkscape:swatch="solid"><stop
         style="stop-color:#3e3e41;stop-opacity:1;"
         offset="0"
         id="stop3719" /></linearGradient><linearGradient
       id="linearGradient3715"
       inkscape:swatch="solid"><stop
         style="stop-color:#262659;stop-opacity:1;"
         offset="0"
         id="stop3713" /></linearGradient><linearGradient
       id="linearGradient2977"
       inkscape:swatch="solid"><stop
         style="stop-color:#192464;stop-opacity:1;"
         offset="0"
         id="stop2975" /></linearGradient><linearGradient
       id="linearGradient2971"
       inkscape:swatch="solid"><stop
         style="stop-color:#0b1a2f;stop-opacity:1;"
         offset="0"
         id="stop2969" /></linearGradient><linearGradient
       id="linearGradient2951"
       inkscape:swatch="solid"><stop
         style="stop-color:#000000;stop-opacity:1;"
         offset="0"
         id="stop2949" /></linearGradient><linearGradient
       id="linearGradient2945"
       inkscape:swatch="solid"><stop
         style="stop-color:#0f121c;stop-opacity:1;"
         offset="0"
         id="stop2943" /></linearGradient><linearGradient
       id="linearGradient2939"
       inkscape:swatch="solid"><stop
         style="stop-color:#000000;stop-opacity:1;"
         offset="0"
         id="stop2937" /></linearGradient><linearGradient
       id="linearGradient971"
       inkscape:swatch="solid"><stop
         style="stop-color:#0f121c;stop-opacity:1;"
         offset="0"
         id="stop969" /></linearGradient><linearGradient
       id="linearGradient965"
       inkscape:swatch="solid"><stop
         style="stop-color:#0f121c;stop-opacity:1;"
         offset="0"
         id="stop963" /></linearGradient><linearGradient
       id="linearGradient959"
       inkscape:swatch="solid"><stop
         style="stop-color:#000000;stop-opacity:1;"
         offset="0"
         id="stop957" /></linearGradient><linearGradient
       id="linearGradient953"
       inkscape:swatch="solid"><stop
         style="stop-color:#213362;stop-opacity:1;"
         offset="0"
         id="stop951" /></linearGradient><linearGradient
       inkscape:collect="always"
       xlink:href="#linearGradient953"
       id="linearGradient955"
       x1="30.463426"
       y1="27.544868"
       x2="61.454422"
       y2="27.544868"
       gradientUnits="userSpaceOnUse" /><linearGradient
       inkscape:collect="always"
       xlink:href="#linearGradient953"
       id="linearGradient961"
       x1="23.956409"
       y1="42.055462"
       x2="27.87612"
       y2="42.055462"
       gradientUnits="userSpaceOnUse" /><linearGradient
       inkscape:collect="always"
       xlink:href="#linearGradient953"
       id="linearGradient967"
       x1="37.029179"
       y1="44.41481"
       x2="39.689354"
       y2="44.41481"
       gradientUnits="userSpaceOnUse" /><linearGradient
       inkscape:collect="always"
       xlink:href="#linearGradient953"
       id="linearGradient973"
       x1="27.879875"
       y1="43.463116"
       x2="38.129295"
       y2="43.463116"
       gradientUnits="userSpaceOnUse" /><linearGradient
       inkscape:collect="always"
       xlink:href="#linearGradient953"
       id="linearGradient2941"
       x1="39.556744"
       y1="37.636902"
       x2="47.984367"
       y2="37.636902"
       gradientUnits="userSpaceOnUse" /><linearGradient
       inkscape:collect="always"
       xlink:href="#linearGradient953"
       id="linearGradient2947"
       x1="19.748114"
       y1="36.261894"
       x2="34.370209"
       y2="36.261894"
       gradientUnits="userSpaceOnUse" /><linearGradient
       inkscape:collect="always"
       xlink:href="#linearGradient953"
       id="linearGradient2953"
       x1="25.149834"
       y1="44.940315"
       x2="35.213387"
       y2="44.940315"
       gradientUnits="userSpaceOnUse" /><linearGradient
       inkscape:collect="always"
       xlink:href="#linearGradient2977"
       id="linearGradient2973"
       x1="26.503208"
       y1="46.404018"
       x2="28.629684"
       y2="46.404018"
       gradientUnits="userSpaceOnUse" /><linearGradient
       inkscape:collect="always"
       xlink:href="#linearGradient2977"
       id="linearGradient2979"
       x1="25.820454"
       y1="46.405498"
       x2="29.903102"
       y2="46.405498"
       gradientUnits="userSpaceOnUse" /><linearGradient
       inkscape:collect="always"
       xlink:href="#linearGradient3715"
       id="linearGradient3717"
       x1="35.115353"
       y1="48.011533"
       x2="36.31348"
       y2="48.011533"
       gradientUnits="userSpaceOnUse" /><linearGradient
       inkscape:collect="always"
       xlink:href="#linearGradient3715"
       id="linearGradient3723"
       x1="33.108864"
       y1="48.051369"
       x2="34.306992"
       y2="48.051369"
       gradientUnits="userSpaceOnUse" /><linearGradient
       inkscape:collect="always"
       xlink:href="#linearGradient3715"
       id="linearGradient3729"
       x1="31.078955"
       y1="48.209988"
       x2="32.277081"
       y2="48.209988"
       gradientUnits="userSpaceOnUse" /></defs><g
     inkscape:label="Layer 1"
     inkscape:groupmode="layer"
     id="layer1"><rect
       style="fill:#717173;fill-opacity:1;stroke:none;stroke-width:1.165;stroke-linecap:round;stroke-linejoin:round;stroke-dasharray:none;stroke-opacity:1"
       id="rect50130"
       width="1.1981277"
       height="13.616263"
       x="46.747509"
       y="-40.741894"
       transform="rotate(75.065977)" /><path
       style="display:inline;fill:url(#linearGradient2941);fill-opacity:1.0;stroke:none;stroke-width:0.264583px;stroke-linecap:butt;stroke-linejoin:miter;stroke-opacity:1"
       d="m 40.530152,40.53051 7.136562,-1.912234 0.317653,-3.874982 -8.427625,2.258177 c 0.380125,1.156242 0.658022,2.351995 0.97341,3.529039 z"
       id="path48690"
       sodipodi:nodetypes="ccccc" /><rect
       style="fill:url(#linearGradient3729);fill-opacity:1.0;stroke:none;stroke-width:1.165;stroke-linecap:round;stroke-linejoin:round;stroke-dasharray:none;stroke-opacity:1"
       id="rect49089"
       width="1.1981273"
       height="3.9967144"
       x="31.078955"
       y="46.211632"
       transform="rotate(-13.496585)" /><rect
       style="fill:url(#linearGradient3723);fill-opacity:1.0;stroke:none;stroke-width:1.165;stroke-linecap:round;stroke-linejoin:round;stroke-dasharray:none;stroke-opacity:1"
       id="rect50126"
       width="1.1981273"
       height="3.9967144"
       x="33.108864"
       y="46.053013"
       transform="rotate(-13.496585)" /><rect
       style="fill:url(#linearGradient3717);fill-opacity:1;stroke:none;stroke-width:1.165;stroke-linecap:round;stroke-linejoin:round;stroke-dasharray:none;stroke-opacity:1"
       id="rect50128"
       width="1.1981273"
       height="3.9967144"
       x="35.115353"
       y="46.013176"
       transform="rotate(-13.496585)" /><rect
       style="fill-opacity:1.0;stroke:none;stroke-width:1.165;stroke-linecap:round;stroke-linejoin:round;stroke-dasharray:none;stroke-opacity:1;fill:url(#linearGradient961)"
       id="rect51773"
       width="3.9197097"
       height="12.614922"
       x="23.956409"
       y="35.748001"
       transform="rotate(-15.181013)" /><path
       style="fill:#a8a6ae;stroke:none;stroke-width:0.264583px;stroke-linecap:butt;stroke-linejoin:miter;stroke-opacity:1;fill-opacity:0.99607843"
       d="m 36.518524,28.261834 3.369477,-0.07447 0.702209,2.863467 -2.913631,1.641821 z"
       id="path51982" /><rect
       style="fill:#717173;fill-opacity:1;stroke:none;stroke-width:1.165;stroke-linecap:round;stroke-linejoin:round;stroke-dasharray:none;stroke-opacity:1"
       id="rect52105"
       width="6.8369107"
       height="2.7287657"
       x="30.343174"
       y="38.228897"
       transform="rotate(-16.128136)" /><rect
       style="fill:url(#linearGradient967);fill-opacity:1.0;stroke:none;stroke-width:1.165;stroke-linecap:round;stroke-linejoin:round;stroke-dasharray:none;stroke-opacity:1"
       id="rect52247"
       width="2.660176"
       height="2.8617973"
       x="37.029179"
       y="42.983913"
       transform="rotate(-15.968313)" /><path
       style="fill:none;stroke:#a8a6ae;stroke-width:1.165;stroke-linecap:round;stroke-linejoin:round;stroke-opacity:1;stroke-dasharray:none"
       d="m 50.381204,31.18073 1.642401,6.129525 14.480251,3.879972"
       id="path40668" /><path
       style="fill:url(#linearGradient955);stroke:none;stroke-width:0.264583px;stroke-linecap:butt;stroke-linejoin:miter;stroke-opacity:1;fill-opacity:1"
       d="m 30.463426,26.083859 2.358769,1.287629 c 0,0 8.74188,-0.0043 12.501573,1.267764 3.835895,1.297857 8.347339,7.914091 8.347339,7.914091 0,0 2.390777,-0.388788 3.568597,-0.750306 1.177821,-0.361519 4.214718,-1.844317 4.214718,-1.844317 L 57.208726,18.661028 c 0,0 -3.957871,-0.224063 -5.928156,-0.07134 -2.248262,0.17427 -4.493411,0.537733 -6.671183,1.122851 -3.040635,0.81695 -5.998494,1.967927 -8.845886,3.311516 -1.844891,0.870543 -5.300075,3.059804 -5.300075,3.059804 z"
       id="path38300"
       sodipodi:nodetypes="ccsczccsssc" /><path
       style="fill:#c97b17;fill-opacity:1;stroke:none;stroke-width:0.264583px;stroke-linecap:butt;stroke-linejoin:miter;stroke-opacity:1"
       d="m 59.632233,19.124373 3.75022,13.31049 -1.714727,1.417602 -0.843209,0.438212 c 0,0 -0.989047,-0.363256 -1.47324,-0.247068 -0.511011,0.122623 -0.777585,0.747028 -1.267201,0.937935 -0.725211,0.282768 -2.181664,0.247954 -2.321964,0.247954 -0.140304,0 -1.342068,0.414978 -1.342068,0.414978 0,0 0.55335,-0.337788 0.915962,-0.499763 0.537873,-0.240262 0.943286,-0.147775 1.520806,-0.263978 0.447509,-0.09004 1.069811,-0.237533 1.18985,-0.677945 0.110131,-0.404059 -0.260149,-0.884356 -0.625047,-1.089885 -0.507608,-0.285911 -1.74726,0.04224 -1.74726,0.04224 -0.2901,0.007 -0.198328,0.355811 -0.633979,0.596603 -0.19978,0.110422 -0.913117,0.659827 -0.913117,0.659827 0,0 0.611575,-0.854328 0.982247,-1.223164 0.201539,-0.20054 0.401474,-0.430939 0.667692,-0.530749 1.236186,-0.463466 2.77507,0.408035 3.956484,-0.181215 0.345569,-0.172358 0.751511,-0.506622 0.738542,-0.892572 -0.01177,-0.350212 -0.723014,-0.763109 -0.723014,-0.763109 -0.264688,-0.279366 -0.709793,-0.403922 -1.093242,-0.371173 -0.475177,0.04058 -0.902888,0.363757 -1.257147,0.683037 -0.252748,0.227792 -0.273017,0.689963 -0.577604,0.841614 -0.800421,0.398521 -1.7913,-0.223238 -2.679665,-0.121754 -0.551976,0.06306 -1.605023,0.449205 -1.605023,0.449205 0,0 0.377934,-0.61961 0.687199,-0.770671 0.839794,-0.410199 2.095467,0.431397 2.797733,-0.185319 0.269863,-0.236988 0.333667,-0.719887 0.209495,-1.056889 -0.0949,-0.257555 -0.371443,-0.508093 -0.645912,-0.510744 -0.646175,-0.0062 -0.927315,0.978469 -1.543597,1.172832 -0.501918,0.158295 -1.577679,-0.06114 -1.577679,-0.06114 0,0 1.072296,-0.510808 1.553245,-0.854012 0.329808,-0.23535 0.531149,-0.649506 0.90017,-0.816798 0.870775,-0.394757 2.05608,0.206123 2.849489,-0.327342 0.384899,-0.258795 0.821938,-0.782486 0.668665,-1.220242 -0.146892,-0.419533 -0.786527,-0.53878 -1.230357,-0.514282 -0.848289,0.04682 -1.473119,0.848138 -2.229107,1.235782 -0.488581,0.250527 -0.940467,0.688292 -1.489318,0.703712 -0.646267,0.01816 -1.027185,-0.699974 -1.797415,-0.728844 -0.374544,-0.01404 -0.987779,0.09928 -1.35485,0.152873 -0.344422,0.05029 -1.076073,-0.07845 -1.076073,-0.07845 0,0 0.950965,0.01979 1.154316,-0.324273 0.04985,-0.08434 0.0073,-0.222166 -0.06682,-0.286224 -0.448492,-0.387547 -1.193162,-0.276596 -1.77197,-0.148854 -0.209108,0.04615 -0.558065,0.318225 -0.558065,0.318225 -0.161052,-0.21021 0.374211,-0.553471 0.666653,-0.671833 0.669673,-0.27104 1.46621,-0.13241 2.166892,0.04357 0.242821,0.06099 0.438329,0.24408 0.668954,0.341514 0.674039,0.284765 1.364455,0.865677 2.078543,0.705998 0.257361,-0.05755 0.534908,-0.287828 0.569394,-0.54928 0.03605,-0.273319 -0.166209,-0.616635 -0.425993,-0.708911 -0.755854,-0.26848 -0.846207,0.08396 -1.60746,0.336723 -0.259189,0.08606 -1.122856,0.419261 -1.15267,0.169665 -0.02981,-0.249596 0.400261,-0.404814 0.642771,-0.659696 0.306465,-0.322101 0.797358,-0.421631 1.233685,-0.507005 0.629816,-0.123232 1.28525,0.05398 1.925265,0.0067 0.477777,-0.03529 1.019594,0.04555 1.420894,-0.216131 0.316495,-0.206379 0.563413,-0.58149 0.607934,-0.956695 0.04092,-0.344824 -0.05403,-0.784915 -0.337434,-0.985566 -0.478688,-0.338915 -1.622301,0.01543 -1.75949,0.01543 -0.137192,0 -1.59593,0.356872 -2.167689,0.888818 -0.312109,0.290375 -0.21342,0.91038 -0.569179,1.145252 -0.491624,0.32457 -1.182951,0.0068 -1.764385,0.101502 -0.601496,0.098 -1.442513,0.160944 -2.589413,0.08589 0.761876,-0.417674 0.545465,-0.470863 1.665356,-0.521106 0.57502,-0.0258 1.213612,0.293373 1.726496,0.0321 0.287429,-0.146421 0.654139,-0.486515 0.554297,-0.79325 -0.124733,-0.383205 -0.741805,-0.357071 -1.143148,-0.393514 -0.87581,-0.07953 -1.802278,0.04399 -2.608448,0.395352 -0.486029,0.211833 -0.714991,0.483926 -1.233324,0.595406 -0.312189,0.06714 -0.940479,0.159241 -0.940479,0.159241 0,0 1.930999,-1.015287 2.93234,-1.445126 0.6197,-0.266015 1.232407,-0.593231 1.898356,-0.699551 0.904669,-0.144433 1.902065,0.455241 2.746555,0.100102 0.545186,-0.22927 0.948668,-0.774277 1.194025,-1.312415 0.06343,-0.139121 0.157727,-0.343475 0.05371,-0.45554 -0.56906,-0.613089 -1.698225,-0.105323 -2.507146,0.107641 -1.50522,0.396277 -2.641654,1.776245 -4.159078,2.122869 -0.941389,0.215041 -1.938355,0.05671 -2.896161,-0.06603 -0.349624,-0.0448 -0.841235,-0.243242 -1.029092,-0.243242 -0.187859,0 -1.554194,0.639851 -1.554194,0.639851 0,0 0.987925,-0.816192 1.552699,-0.829717 0.799191,-0.01914 1.579374,-0.02228 2.453101,-0.05763 0.434636,-0.01758 1.038282,0.199838 1.296281,-0.150382 0.118966,-0.16149 0.02896,-0.447702 -0.110961,-0.591417 -0.391109,-0.401718 -1.083768,-0.368308 -1.644256,-0.354283 -0.693174,0.01735 -1.356808,0.303982 -2.009045,0.539307 -0.631462,0.227829 -1.830358,0.840025 -1.830358,0.840025 0,0 0.604461,-0.636092 0.956966,-0.893309 0.440634,-0.321524 0.924427,-0.589738 1.428374,-0.798479 0.729221,-0.302053 1.495473,-0.545242 2.27851,-0.644504 1.684114,-0.213488 3.426133,0.449379 5.091372,0.119537 0.830551,-0.164511 1.594496,-0.594867 2.324899,-1.023107 0.483669,-0.283578 1.115175,-0.500326 1.343067,-1.012593 0.15843,-0.356127 0.2856,-1.126894 -0.102325,-1.164847 -0.680455,-0.06657 -1.768809,-0.172143 -2.617973,0.02922 -1.056172,0.25045 -1.93084,0.995672 -2.925797,1.429591 -0.826176,0.36031 -1.634981,0.818125 -2.522944,0.972759 -0.672564,0.117123 -1.374466,0.06689 -2.047508,-0.04745 -0.427485,-0.07263 -1.237472,-0.401031 -1.237472,-0.401031 0,0 0.129347,0.573429 -0.259948,0.82645 -0.298165,0.193791 -0.498024,0.505186 -0.498024,0.505186 0,0 0.384156,-0.774114 0.279767,-1.156876 -0.0878,-0.321923 -0.696699,-0.718813 -0.696699,-0.718813 l 1.068061,-0.330523 1.175296,-0.312503 c 0,0 -0.485798,0.516022 -0.361404,0.771218 0.163268,0.334946 0.716976,0.254581 1.089567,0.249907 0.629694,-0.0079 1.522262,0.08088 1.83024,-0.468412 0.178125,-0.317696 -0.321067,-1.044437 -0.321067,-1.044437 0,0 3.512888,-0.534036 5.194229,-0.592652 1.289583,-0.04496 2.686909,-0.08422 4.02093,0.04639 1.049934,0.102795 3.11164,0.577979 3.11164,0.57798 z"
       id="path38302"
       sodipodi:nodetypes="ccccssscsssssscssssssssscssssscssssssssscssscssssssscsssssssssscsssssscssssssssscsssssscssssssssssscscscscssscssc" /><rect
       style="fill:url(#linearGradient973);fill-opacity:1.0;stroke:none;stroke-width:1.165;stroke-linecap:round;stroke-linejoin:round;stroke-dasharray:none;stroke-opacity:1"
       id="rect52458"
       width="10.249419"
       height="1.4645008"
       x="27.879875"
       y="42.730865"
       transform="rotate(-14.592002)" /><path
       style="fill:#a8a6ae;stroke:none;stroke-width:0.264583px;stroke-linecap:butt;stroke-linejoin:miter;stroke-opacity:1;fill-opacity:1"
       d="m 38.739863,33.381061 1.321953,-0.461164 1.814769,2.455251 -0.05561,0.531294 -1.382829,0.356487 z"
       id="path52460" /><path
       style="fill:#a8a6ae;fill-opacity:1;stroke:none;stroke-width:0.264583px;stroke-linecap:butt;stroke-linejoin:miter;stroke-opacity:1"
       d="m 41.068864,32.582342 1.321953,-0.461164 1.814769,2.455251 -0.05561,0.531294 -1.382829,0.356487 z"
       id="path55912" /><path
       style="fill:#a8a6ae;fill-opacity:1;stroke:none;stroke-width:0.264583px;stroke-linecap:butt;stroke-linejoin:miter;stroke-opacity:1"
       d="m 43.54503,31.992266 1.321953,-0.461164 1.814769,2.455251 -0.05561,0.531294 -1.382829,0.356487 z"
       id="path56052" /><path
       style="fill:#a8a6ae;fill-opacity:1;stroke:none;stroke-width:0.264583px;stroke-linecap:butt;stroke-linejoin:miter;stroke-opacity:1"
       d="m 45.964277,31.255703 1.321953,-0.461164 1.814769,2.455251 -0.05561,0.531294 -1.382829,0.356487 z"
       id="path56054" /><g
       id="g80538"
       transform="translate(-0.44592489,-0.30564887)"
       style="fill-opacity:1.0;fill:url(#linearGradient2953)"><path
         style="display:inline;fill:url(#linearGradient2953);fill-opacity:1.0;stroke:none;stroke-width:0.264583px;stroke-linecap:butt;stroke-linejoin:miter;stroke-opacity:1"
         d="m 25.149833,42.200972 0.597959,7.233031 0.76731,0.57808 3.497596,-0.899567 0.277064,-0.964541 -1.443469,-1.76076 0.30095,-3.650739 4.578736,-1.461146 0.0693,1.041548 -5.361559,1.811073 0.01201,1.336059 0.709933,-0.09714 6.057725,-2.308072 -0.304813,-3.19025 z"
         id="path56056"
         inkscape:label="handle" /><g
         id="g2983"
         style="fill:none"><path
           style="fill:none;fill-opacity:1;stroke:url(#linearGradient2979);stroke-width:0.264583px;stroke-linecap:butt;stroke-linejoin:miter;stroke-opacity:1"
           d="m 25.959019,43.560028 0.379735,5.445871 0.523299,0.561031 2.19211,-0.753682 0.681098,-0.02614 -0.182819,-0.731441 -1.163365,-1.538264 0.01109,-2.590141 -1.664213,-0.692846 z"
           id="path57576" /><path
           style="fill:none;fill-opacity:1;stroke:url(#linearGradient2973);stroke-width:0.265;stroke-linecap:butt;stroke-linejoin:round;stroke-dasharray:none;stroke-opacity:1"
           d="m 26.665235,44.112261 1.206071,0.323165 -1.235636,0.331089 1.096251,0.293738 -1.030306,0.276071 1.0961,0.293699 -0.979903,0.262564 0.939091,0.251629 -0.935916,0.250778 1.192397,0.3195 -1.096986,0.293939 1.373238,0.367959 c 0,0 -1.556065,0.344908 -1.499251,0.401722 0.05681,0.05681 1.70684,0.457345 1.70684,0.457345 l -1.701067,0.455801 h 1.740133"
           id="path64555" /></g><path
         style="fill:url(#linearGradient2953);fill-opacity:1.0;stroke:none;stroke-width:0.264583px;stroke-linecap:butt;stroke-linejoin:miter;stroke-opacity:1"
         d="m 29.397976,42.487455 0.452493,0.874382 0.307895,-0.03703 -0.311594,-1.032368 z"
         id="path64561" /></g><path
       style="fill:none;stroke:#717173;stroke-width:0.965;stroke-linecap:butt;stroke-linejoin:round;stroke-opacity:1;fill-opacity:0;stroke-dasharray:none"
       d="M 28.732318,31.516081 V 28.745315 H 17.392123 v 4.299592"
       id="path73106" /><rect
       style="display:inline;fill:#a8a6ae;fill-opacity:1;stroke:none;stroke-width:0.264999;stroke-linecap:round;stroke-linejoin:round;stroke-dasharray:none;stroke-opacity:1"
       id="rect65115"
       width="9.9891262"
       height="10.439661"
       x="16.607533"
       y="35.832832"
       ry="1.5585148"
       rx="1.4853086"
       transform="rotate(-11.756996)" /><path
       style="fill:#213362;fill-opacity:1;stroke:none;stroke-width:0.264583px;stroke-linecap:butt;stroke-linejoin:miter;stroke-opacity:1"
       d="m 4.3585122,32.334678 -1.5186951,1.131459 v 9.635411 L 4.4503387,43.950503 23.502653,43.410602 24.71445,42.558361 24.209469,31.888186 20.192191,32.03875 Z"
       id="path74084" /><g
       id="g74404"
       inkscape:label="eyeball"><circle
         style="fill:#ffffff;fill-opacity:1;stroke:#000000;stroke-width:0.3;stroke-linecap:butt;stroke-linejoin:round;stroke-dasharray:none;stroke-opacity:1"
         id="path74138"
         cx="19.936623"
         cy="36.554958"
         r="1.3496618" /><circle
         style="fill:#000000;fill-opacity:1;stroke:none;stroke-width:0.3;stroke-linecap:butt;stroke-linejoin:round;stroke-dasharray:none;stroke-opacity:1"
         id="path74296"
         cx="19.950386"
         cy="36.558952"
         r="0.61273205" /></g><g
       id="g74410"
       inkscape:label="eyeball"
       transform="translate(0.13099483,4.2433443)"><circle
         style="fill:#ffffff;fill-opacity:1;stroke:#000000;stroke-width:0.3;stroke-linecap:butt;stroke-linejoin:round;stroke-dasharray:none;stroke-opacity:1"
         id="circle74406"
         cx="19.936623"
         cy="36.554958"
         r="1.3496618" /><circle
         style="fill:#000000;fill-opacity:1;stroke:none;stroke-width:0.3;stroke-linecap:butt;stroke-linejoin:round;stroke-dasharray:none;stroke-opacity:1"
         id="circle74408"
         cx="19.950386"
         cy="36.558952"
         r="0.61273205" /></g><g
       inkscape:label="Layer 1"
       id="g6036"
       transform="matrix(0.05742188,0.02021718,-0.02021718,0.05742188,2.7520568,35.266447)"><path
         style="fill:#231815;fill-opacity:1;stroke:none;stroke-width:4.48178;stroke-dasharray:none;stroke-opacity:1;paint-order:markers stroke fill"
         d="m 23.794235,57.136243 c 0,0 -1.049723,-1.035223 -1.21569,-1.906281 -0.761454,-3.996426 2.964053,-12.272 2.964053,-12.272 l 18.061398,-0.640134 c 0,0 2.887893,9.464414 1.651674,13.438507 -0.250393,0.80494 -3.001795,1.300875 -3.001795,1.300875 z"
         id="path5996"
         sodipodi:nodetypes="csccscc" /><path
         style="fill:#e83828;fill-opacity:1;stroke:none;stroke-width:3.7;stroke-dasharray:none;stroke-opacity:1;paint-order:markers stroke fill"
         d="m 25.591977,55.962707 c 0,0 -0.866615,-0.854644 -1.003631,-1.573759 -0.62863,-3.29931 2.447018,-10.131335 2.447018,-10.131335 l 14.91086,-0.528472 c 0,0 2.384144,7.81349 1.363564,11.094362 -0.206715,0.66453 -2.478177,1.073957 -2.478177,1.073957 z"
         id="path5998"
         sodipodi:nodetypes="csccscc" /><path
         style="fill:#231815;fill-opacity:1;stroke:none;stroke-width:3.25799;stroke-linecap:butt;stroke-linejoin:miter;stroke-dasharray:none;stroke-opacity:1;paint-order:markers stroke fill"
         d="m 22.93426,42.480679 c 0,0 -2.622626,6.715061 -2.422301,9.800883 0.04807,0.740519 0.891421,1.227536 0.891421,1.227536 l 4.622057,0.440061 1.474936,-11.595852 z"
         id="path6000"
         sodipodi:nodetypes="cscccc" /><ellipse
         style="fill:#ffffff;fill-opacity:1;stroke:none;stroke-width:2.79073;stroke-linejoin:round;stroke-dasharray:none;stroke-opacity:1;paint-order:markers stroke fill;stop-color:#000000"
         id="ellipse6002"
         cx="33.919746"
         cy="46.713211"
         rx="7.0274954"
         ry="6.0992723" /><path
         style="fill:#231815;fill-opacity:1;stroke:none;stroke-width:3.25799;stroke-linecap:butt;stroke-linejoin:miter;stroke-dasharray:none;stroke-opacity:1;paint-order:markers stroke fill"
         d="m 44.516676,43.158307 c 0,0 2.622626,6.715061 2.422301,9.800883 -0.04807,0.740519 -0.891421,1.227536 -0.891421,1.227536 l -4.622057,0.440061 -1.474936,-11.595852 z"
         id="path6004"
         sodipodi:nodetypes="cscccc" /><path
         style="fill:#ffffff;fill-opacity:1;stroke:none;stroke-width:2.601;stroke-linecap:butt;stroke-linejoin:miter;stroke-dasharray:none;stroke-opacity:1;paint-order:markers stroke fill"
         d="m 44.415564,44.456974 c 0,0 2.093763,5.360943 1.933835,7.824497 -0.03838,0.591191 -0.711663,0.979999 -0.711663,0.979999 l -3.690001,0.351321 -1.17751,-9.257504 z"
         id="path6006"
         sodipodi:nodetypes="cscccc" /><path
         style="fill:#ffffff;fill-opacity:1;stroke:#231815;stroke-width:3.9;stroke-linecap:butt;stroke-linejoin:round;stroke-dasharray:none;stroke-opacity:1;paint-order:markers stroke fill"
         d="m 32.276676,18.802897 -2.102635,-7.221733 c 2.810206,-0.559982 5.518447,-0.435615 8.180313,0 l -1.273653,7.19164 z"
         id="path6008"
         sodipodi:nodetypes="ccccc" /><path
         style="fill:#ffffff;fill-opacity:1;stroke:none;stroke-width:2.601;stroke-linecap:butt;stroke-linejoin:miter;stroke-dasharray:none;stroke-opacity:1;paint-order:markers stroke fill"
         d="m 23.035372,43.779346 c 0,0 -2.093763,5.360943 -1.933835,7.824497 0.03838,0.591191 0.711663,0.979999 0.711663,0.979999 l 3.690001,0.351321 1.17751,-9.257504 z"
         id="path6010"
         sodipodi:nodetypes="cscccc" /><g
         id="g6016"><path
           id="path6012"
           style="fill:#231815;fill-opacity:1;stroke:none;stroke-width:3.29419;stroke-dasharray:none;stroke-opacity:1;paint-order:stroke fill markers;stop-color:#000000"
           d="m 53.503892,34.337805 c 10e-7,9.756746 -8.674839,11.335241 -19.375793,11.335241 -10.70095,0 -19.375789,-1.578495 -19.375788,-11.335241 0,-9.756747 8.674838,-17.666153 19.375788,-17.666153 10.700954,0 19.375793,7.909406 19.375793,17.666153 z"
           sodipodi:nodetypes="sssss" /><path
           id="path6014"
           style="fill:#e83828;fill-opacity:1;stroke:none;stroke-width:3;stroke-dasharray:none;stroke-opacity:1;paint-order:stroke fill markers;stop-color:#000000"
           d="m 51.773483,34.055105 c 1e-6,8.885393 -7.900108,10.322915 -17.645384,10.322915 -9.745272,0 -17.64538,-1.437522 -17.645379,-10.322915 0,-8.885393 7.900107,-16.088427 17.645379,-16.088427 9.745276,0 17.645384,7.203034 17.645384,16.088427 z"
           sodipodi:nodetypes="sssss" /></g><path
         style="fill:#231815;fill-opacity:1;stroke:none;stroke-width:4.58442;stroke-linejoin:round;stroke-dasharray:none;paint-order:markers stroke fill;stop-color:#000000"
         d="m 27.720444,35.991243 c -1.691866,0 -3.063708,1.213475 -3.063708,2.709707 0,0.908578 0.03033,5.070946 0.03033,5.070946 l 5.944762,0.713667 c 0,0 0.151597,-4.28838 0.151597,-5.784613 0,-1.496232 -1.371105,-2.709707 -3.062971,-2.709707 z"
         id="path6018" /><rect
         style="fill:#231815;fill-opacity:1;stroke:none;stroke-width:3.429;stroke-dasharray:none;stroke-opacity:1;paint-order:stroke fill markers;stop-color:#000000"
         id="rect6020"
         width="23.495626"
         height="1.7743086"
         x="22.15925"
         y="29.017897"
         ry="0.88715428" /><ellipse
         style="fill:#231815;fill-opacity:1;stroke:none;stroke-width:0.155499;paint-order:stroke fill markers;stop-color:#000000"
         id="ellipse6022"
         cx="26.217831"
         cy="32.396088"
         rx="2.3172526"
         ry="3.197191" /><ellipse
         style="fill:#231815;fill-opacity:1;stroke:none;stroke-width:0.155499;paint-order:stroke fill markers;stop-color:#000000"
         id="ellipse6024"
         cx="41.493908"
         cy="32.322121"
         rx="2.3172526"
         ry="3.197191" /><path
         style="fill:#231815;fill-opacity:1;stroke:none;stroke-width:4.97761;stroke-linejoin:round;stroke-dasharray:none;paint-order:markers stroke fill;stop-color:#000000"
         d="m 33.466877,35.99546 c -1.646639,1.32e-4 -2.981487,1.287926 -2.98168,2.876576 3.89e-4,0.07856 0.0041,0.157048 0.01117,0.235303 v 5.785685 h 5.981831 V 38.79562 h -0.02971 c -0.04312,-1.558711 -1.365444,-2.80056 -2.981627,-2.800163 z"
         id="path6026" /><path
         style="fill:#231815;fill-opacity:1;stroke:none;stroke-width:4.69385;stroke-linejoin:round;stroke-dasharray:none;paint-order:markers stroke fill;stop-color:#000000"
         d="m 39.255152,36.303127 c 1.773603,0 3.211721,1.213475 3.211721,2.709707 0,0.908578 -0.0318,5.070946 -0.0318,5.070946 l -6.231964,0.713667 c 0,0 -0.158921,-4.28838 -0.158921,-5.784613 0,-1.496232 1.437345,-2.709707 3.210948,-2.709707 z"
         id="path6028" /><path
         style="fill:#ffffff;stroke:none;stroke-width:3.3;stroke-linejoin:round;stroke-dasharray:none;paint-order:markers stroke fill;stop-color:#000000"
         d="m 33.597862,37.746175 a 1.9189054,1.9649693 0 0 0 -1.918746,1.964738 1.9189054,1.9649693 0 0 0 0.0072,0.160714 v 3.951697 h 3.849377 V 39.65872 h -0.01912 a 1.9189054,1.9649693 0 0 0 -1.918711,-1.912548 z"
         id="path6030" /><path
         style="fill:#ffffff;stroke:none;stroke-width:3.3;stroke-linejoin:round;stroke-dasharray:none;paint-order:markers stroke fill;stop-color:#000000"
         d="m 27.729563,37.302749 c -1.182295,0 -2.140954,0.89976 -2.140954,2.009179 0,0.673687 0.02119,3.759978 0.02119,3.759978 l 4.154268,0.529166 c 0,0 0.105937,-3.179725 0.105937,-4.289144 0,-1.109419 -0.958143,-2.009179 -2.140438,-2.009179 z"
         id="path6032" /><path
         style="fill:#ffffff;stroke:none;stroke-width:3.3;stroke-linejoin:round;stroke-dasharray:none;paint-order:markers stroke fill;stop-color:#000000"
         d="m 39.287253,37.523037 c -1.182295,0 -2.140955,0.899244 -2.140955,2.008663 0,1.109419 0.105937,4.289661 0.105937,4.289661 l 4.154268,-0.529167 c 0,0 0.02119,-3.086808 0.02119,-3.760494 0,-1.109419 -0.958143,-2.008663 -2.140437,-2.008663 z"
         id="path6034" /></g><g
       inkscape:label="Layer 1"
       id="g6120"
       transform="matrix(0.02187127,0.05681245,-0.05681245,0.02187127,8.3683152,37.838324)"><path
         style="fill:#231815;fill-opacity:1;stroke:none;stroke-width:4.48178;stroke-dasharray:none;stroke-opacity:1;paint-order:markers stroke fill"
         d="m 23.794235,57.136243 c 0,0 -1.049723,-1.035223 -1.21569,-1.906281 -0.761454,-3.996426 2.964053,-12.272 2.964053,-12.272 l 18.061398,-0.640134 c 0,0 2.887893,9.464414 1.651674,13.438507 -0.250393,0.80494 -3.001795,1.300875 -3.001795,1.300875 z"
         id="path6080"
         sodipodi:nodetypes="csccscc" /><path
         style="fill:#e83828;fill-opacity:1;stroke:none;stroke-width:3.7;stroke-dasharray:none;stroke-opacity:1;paint-order:markers stroke fill"
         d="m 25.591977,55.962707 c 0,0 -0.866615,-0.854644 -1.003631,-1.573759 -0.62863,-3.29931 2.447018,-10.131335 2.447018,-10.131335 l 14.91086,-0.528472 c 0,0 2.384144,7.81349 1.363564,11.094362 -0.206715,0.66453 -2.478177,1.073957 -2.478177,1.073957 z"
         id="path6082"
         sodipodi:nodetypes="csccscc" /><path
         style="fill:#231815;fill-opacity:1;stroke:none;stroke-width:3.25799;stroke-linecap:butt;stroke-linejoin:miter;stroke-dasharray:none;stroke-opacity:1;paint-order:markers stroke fill"
         d="m 22.93426,42.480679 c 0,0 -2.622626,6.715061 -2.422301,9.800883 0.04807,0.740519 0.891421,1.227536 0.891421,1.227536 l 4.622057,0.440061 1.474936,-11.595852 z"
         id="path6084"
         sodipodi:nodetypes="cscccc" /><ellipse
         style="fill:#ffffff;fill-opacity:1;stroke:none;stroke-width:2.79073;stroke-linejoin:round;stroke-dasharray:none;stroke-opacity:1;paint-order:markers stroke fill;stop-color:#000000"
         id="ellipse6086"
         cx="33.919746"
         cy="46.713211"
         rx="7.0274954"
         ry="6.0992723" /><path
         style="fill:#231815;fill-opacity:1;stroke:none;stroke-width:3.25799;stroke-linecap:butt;stroke-linejoin:miter;stroke-dasharray:none;stroke-opacity:1;paint-order:markers stroke fill"
         d="m 44.516676,43.158307 c 0,0 2.622626,6.715061 2.422301,9.800883 -0.04807,0.740519 -0.891421,1.227536 -0.891421,1.227536 l -4.622057,0.440061 -1.474936,-11.595852 z"
         id="path6088"
         sodipodi:nodetypes="cscccc" /><path
         style="fill:#ffffff;fill-opacity:1;stroke:none;stroke-width:2.601;stroke-linecap:butt;stroke-linejoin:miter;stroke-dasharray:none;stroke-opacity:1;paint-order:markers stroke fill"
         d="m 44.415564,44.456974 c 0,0 2.093763,5.360943 1.933835,7.824497 -0.03838,0.591191 -0.711663,0.979999 -0.711663,0.979999 l -3.690001,0.351321 -1.17751,-9.257504 z"
         id="path6090"
         sodipodi:nodetypes="cscccc" /><path
         style="fill:#ffffff;fill-opacity:1;stroke:#231815;stroke-width:3.9;stroke-linecap:butt;stroke-linejoin:round;stroke-dasharray:none;stroke-opacity:1;paint-order:markers stroke fill"
         d="m 32.276676,18.802897 -2.102635,-7.221733 c 2.810206,-0.559982 5.518447,-0.435615 8.180313,0 l -1.273653,7.19164 z"
         id="path6092"
         sodipodi:nodetypes="ccccc" /><path
         style="fill:#ffffff;fill-opacity:1;stroke:none;stroke-width:2.601;stroke-linecap:butt;stroke-linejoin:miter;stroke-dasharray:none;stroke-opacity:1;paint-order:markers stroke fill"
         d="m 23.035372,43.779346 c 0,0 -2.093763,5.360943 -1.933835,7.824497 0.03838,0.591191 0.711663,0.979999 0.711663,0.979999 l 3.690001,0.351321 1.17751,-9.257504 z"
         id="path6094"
         sodipodi:nodetypes="cscccc" /><g
         id="g6100"><path
           id="path6096"
           style="fill:#231815;fill-opacity:1;stroke:none;stroke-width:3.29419;stroke-dasharray:none;stroke-opacity:1;paint-order:stroke fill markers;stop-color:#000000"
           d="m 53.503892,34.337805 c 10e-7,9.756746 -8.674839,11.335241 -19.375793,11.335241 -10.70095,0 -19.375789,-1.578495 -19.375788,-11.335241 0,-9.756747 8.674838,-17.666153 19.375788,-17.666153 10.700954,0 19.375793,7.909406 19.375793,17.666153 z"
           sodipodi:nodetypes="sssss" /><path
           id="path6098"
           style="fill:#e83828;fill-opacity:1;stroke:none;stroke-width:3;stroke-dasharray:none;stroke-opacity:1;paint-order:stroke fill markers;stop-color:#000000"
           d="m 51.773483,34.055105 c 1e-6,8.885393 -7.900108,10.322915 -17.645384,10.322915 -9.745272,0 -17.64538,-1.437522 -17.645379,-10.322915 0,-8.885393 7.900107,-16.088427 17.645379,-16.088427 9.745276,0 17.645384,7.203034 17.645384,16.088427 z"
           sodipodi:nodetypes="sssss" /></g><path
         style="fill:#231815;fill-opacity:1;stroke:none;stroke-width:4.58442;stroke-linejoin:round;stroke-dasharray:none;paint-order:markers stroke fill;stop-color:#000000"
         d="m 27.720444,35.991243 c -1.691866,0 -3.063708,1.213475 -3.063708,2.709707 0,0.908578 0.03033,5.070946 0.03033,5.070946 l 5.944762,0.713667 c 0,0 0.151597,-4.28838 0.151597,-5.784613 0,-1.496232 -1.371105,-2.709707 -3.062971,-2.709707 z"
         id="path6102" /><rect
         style="fill:#231815;fill-opacity:1;stroke:none;stroke-width:3.429;stroke-dasharray:none;stroke-opacity:1;paint-order:stroke fill markers;stop-color:#000000"
         id="rect6104"
         width="23.495626"
         height="1.7743086"
         x="22.15925"
         y="29.017897"
         ry="0.88715428" /><ellipse
         style="fill:#231815;fill-opacity:1;stroke:none;stroke-width:0.155499;paint-order:stroke fill markers;stop-color:#000000"
         id="ellipse6106"
         cx="26.217831"
         cy="32.396088"
         rx="2.3172526"
         ry="3.197191" /><ellipse
         style="fill:#231815;fill-opacity:1;stroke:none;stroke-width:0.155499;paint-order:stroke fill markers;stop-color:#000000"
         id="ellipse6108"
         cx="41.493908"
         cy="32.322121"
         rx="2.3172526"
         ry="3.197191" /><path
         style="fill:#231815;fill-opacity:1;stroke:none;stroke-width:4.97761;stroke-linejoin:round;stroke-dasharray:none;paint-order:markers stroke fill;stop-color:#000000"
         d="m 33.466877,35.99546 c -1.646639,1.32e-4 -2.981487,1.287926 -2.98168,2.876576 3.89e-4,0.07856 0.0041,0.157048 0.01117,0.235303 v 5.785685 h 5.981831 V 38.79562 h -0.02971 c -0.04312,-1.558711 -1.365444,-2.80056 -2.981627,-2.800163 z"
         id="path6110" /><path
         style="fill:#231815;fill-opacity:1;stroke:none;stroke-width:4.69385;stroke-linejoin:round;stroke-dasharray:none;paint-order:markers stroke fill;stop-color:#000000"
         d="m 39.255152,36.303127 c 1.773603,0 3.211721,1.213475 3.211721,2.709707 0,0.908578 -0.0318,5.070946 -0.0318,5.070946 l -6.231964,0.713667 c 0,0 -0.158921,-4.28838 -0.158921,-5.784613 0,-1.496232 1.437345,-2.709707 3.210948,-2.709707 z"
         id="path6112" /><path
         style="fill:#ffffff;stroke:none;stroke-width:3.3;stroke-linejoin:round;stroke-dasharray:none;paint-order:markers stroke fill;stop-color:#000000"
         d="m 33.597862,37.746175 a 1.9189054,1.9649693 0 0 0 -1.918746,1.964738 1.9189054,1.9649693 0 0 0 0.0072,0.160714 v 3.951697 h 3.849377 V 39.65872 h -0.01912 a 1.9189054,1.9649693 0 0 0 -1.918711,-1.912548 z"
         id="path6114" /><path
         style="fill:#ffffff;stroke:none;stroke-width:3.3;stroke-linejoin:round;stroke-dasharray:none;paint-order:markers stroke fill;stop-color:#000000"
         d="m 27.729563,37.302749 c -1.182295,0 -2.140954,0.89976 -2.140954,2.009179 0,0.673687 0.02119,3.759978 0.02119,3.759978 l 4.154268,0.529166 c 0,0 0.105937,-3.179725 0.105937,-4.289144 0,-1.109419 -0.958143,-2.009179 -2.140438,-2.009179 z"
         id="path6116" /><path
         style="fill:#ffffff;stroke:none;stroke-width:3.3;stroke-linejoin:round;stroke-dasharray:none;paint-order:markers stroke fill;stop-color:#000000"
         d="m 39.287253,37.523037 c -1.182295,0 -2.140955,0.899244 -2.140955,2.008663 0,1.109419 0.105937,4.289661 0.105937,4.289661 l 4.154268,-0.529167 c 0,0 0.02119,-3.086808 0.02119,-3.760494 0,-1.109419 -0.958143,-2.008663 -2.140437,-2.008663 z"
         id="path6118" /></g><g
       id="g75781"
       transform="matrix(0.90506545,0,0,1,-3.7148869,-0.02441034)"
       inkscape:label="ribbon"><rect
         style="fill:#f5fa61;fill-opacity:1;stroke:none;stroke-width:0.3;stroke-linecap:butt;stroke-linejoin:round;stroke-dasharray:none;stroke-opacity:1"
         id="rect74464"
         width="2.8545551"
         height="11.917741"
         x="8.5762644"
         y="32.231926"
         rx="0"
         ry="0" /><path
         style="fill:#c9302a;fill-opacity:1;stroke:none;stroke-width:0.264583px;stroke-linecap:butt;stroke-linejoin:miter;stroke-opacity:1"
         d="m 8.5941225,32.223084 0.014998,2.641802 0.5587343,0.04155 0.4454744,0.829427 0.4044708,-0.523775 0.676435,0.653108 0.118788,-0.92302 0.62249,-0.0081 -0.02229,-2.717926 z"
         id="path75225"
         sodipodi:nodetypes="cccccccccc" /></g><rect
       style="fill:#a8a6ae;fill-opacity:1;stroke:none;stroke-width:0.3;stroke-linecap:butt;stroke-linejoin:round;stroke-dasharray:none;stroke-opacity:1"
       id="rect75835"
       width="0.93633336"
       height="10.07683"
       x="1.9077029"
       y="33.237316" /><g
       inkscape:label="Layer 1"
       id="g6162"
       transform="matrix(0.05948691,0.01293496,-0.01293496,0.05948691,15.19483,39.348072)"><path
         style="fill:#231815;fill-opacity:1;stroke:none;stroke-width:4.48178;stroke-dasharray:none;stroke-opacity:1;paint-order:markers stroke fill"
         d="m 23.794235,57.136243 c 0,0 -1.049723,-1.035223 -1.21569,-1.906281 -0.761454,-3.996426 2.964053,-12.272 2.964053,-12.272 l 18.061398,-0.640134 c 0,0 2.887893,9.464414 1.651674,13.438507 -0.250393,0.80494 -3.001795,1.300875 -3.001795,1.300875 z"
         id="path6122"
         sodipodi:nodetypes="csccscc" /><path
         style="fill:#e83828;fill-opacity:1;stroke:none;stroke-width:3.7;stroke-dasharray:none;stroke-opacity:1;paint-order:markers stroke fill"
         d="m 25.591977,55.962707 c 0,0 -0.866615,-0.854644 -1.003631,-1.573759 -0.62863,-3.29931 2.447018,-10.131335 2.447018,-10.131335 l 14.91086,-0.528472 c 0,0 2.384144,7.81349 1.363564,11.094362 -0.206715,0.66453 -2.478177,1.073957 -2.478177,1.073957 z"
         id="path6124"
         sodipodi:nodetypes="csccscc" /><path
         style="fill:#231815;fill-opacity:1;stroke:none;stroke-width:3.25799;stroke-linecap:butt;stroke-linejoin:miter;stroke-dasharray:none;stroke-opacity:1;paint-order:markers stroke fill"
         d="m 22.93426,42.480679 c 0,0 -2.622626,6.715061 -2.422301,9.800883 0.04807,0.740519 0.891421,1.227536 0.891421,1.227536 l 4.622057,0.440061 1.474936,-11.595852 z"
         id="path6126"
         sodipodi:nodetypes="cscccc" /><ellipse
         style="fill:#ffffff;fill-opacity:1;stroke:none;stroke-width:2.79073;stroke-linejoin:round;stroke-dasharray:none;stroke-opacity:1;paint-order:markers stroke fill;stop-color:#000000"
         id="ellipse6128"
         cx="33.919746"
         cy="46.713211"
         rx="7.0274954"
         ry="6.0992723" /><path
         style="fill:#231815;fill-opacity:1;stroke:none;stroke-width:3.25799;stroke-linecap:butt;stroke-linejoin:miter;stroke-dasharray:none;stroke-opacity:1;paint-order:markers stroke fill"
         d="m 44.516676,43.158307 c 0,0 2.622626,6.715061 2.422301,9.800883 -0.04807,0.740519 -0.891421,1.227536 -0.891421,1.227536 l -4.622057,0.440061 -1.474936,-11.595852 z"
         id="path6130"
         sodipodi:nodetypes="cscccc" /><path
         style="fill:#ffffff;fill-opacity:1;stroke:none;stroke-width:2.601;stroke-linecap:butt;stroke-linejoin:miter;stroke-dasharray:none;stroke-opacity:1;paint-order:markers stroke fill"
         d="m 44.415564,44.456974 c 0,0 2.093763,5.360943 1.933835,7.824497 -0.03838,0.591191 -0.711663,0.979999 -0.711663,0.979999 l -3.690001,0.351321 -1.17751,-9.257504 z"
         id="path6132"
         sodipodi:nodetypes="cscccc" /><path
         style="fill:#ffffff;fill-opacity:1;stroke:#231815;stroke-width:3.9;stroke-linecap:butt;stroke-linejoin:round;stroke-dasharray:none;stroke-opacity:1;paint-order:markers stroke fill"
         d="m 32.276676,18.802897 -2.102635,-7.221733 c 2.810206,-0.559982 5.518447,-0.435615 8.180313,0 l -1.273653,7.19164 z"
         id="path6134"
         sodipodi:nodetypes="ccccc" /><path
         style="fill:#ffffff;fill-opacity:1;stroke:none;stroke-width:2.601;stroke-linecap:butt;stroke-linejoin:miter;stroke-dasharray:none;stroke-opacity:1;paint-order:markers stroke fill"
         d="m 23.035372,43.779346 c 0,0 -2.093763,5.360943 -1.933835,7.824497 0.03838,0.591191 0.711663,0.979999 0.711663,0.979999 l 3.690001,0.351321 1.17751,-9.257504 z"
         id="path6136"
         sodipodi:nodetypes="cscccc" /><g
         id="g6142"><path
           id="path6138"
           style="fill:#231815;fill-opacity:1;stroke:none;stroke-width:3.29419;stroke-dasharray:none;stroke-opacity:1;paint-order:stroke fill markers;stop-color:#000000"
           d="m 53.503892,34.337805 c 10e-7,9.756746 -8.674839,11.335241 -19.375793,11.335241 -10.70095,0 -19.375789,-1.578495 -19.375788,-11.335241 0,-9.756747 8.674838,-17.666153 19.375788,-17.666153 10.700954,0 19.375793,7.909406 19.375793,17.666153 z"
           sodipodi:nodetypes="sssss" /><path
           id="path6140"
           style="fill:#e83828;fill-opacity:1;stroke:none;stroke-width:3;stroke-dasharray:none;stroke-opacity:1;paint-order:stroke fill markers;stop-color:#000000"
           d="m 51.773483,34.055105 c 1e-6,8.885393 -7.900108,10.322915 -17.645384,10.322915 -9.745272,0 -17.64538,-1.437522 -17.645379,-10.322915 0,-8.885393 7.900107,-16.088427 17.645379,-16.088427 9.745276,0 17.645384,7.203034 17.645384,16.088427 z"
           sodipodi:nodetypes="sssss" /></g><path
         style="fill:#231815;fill-opacity:1;stroke:none;stroke-width:4.58442;stroke-linejoin:round;stroke-dasharray:none;paint-order:markers stroke fill;stop-color:#000000"
         d="m 27.720444,35.991243 c -1.691866,0 -3.063708,1.213475 -3.063708,2.709707 0,0.908578 0.03033,5.070946 0.03033,5.070946 l 5.944762,0.713667 c 0,0 0.151597,-4.28838 0.151597,-5.784613 0,-1.496232 -1.371105,-2.709707 -3.062971,-2.709707 z"
         id="path6144" /><rect
         style="fill:#231815;fill-opacity:1;stroke:none;stroke-width:3.429;stroke-dasharray:none;stroke-opacity:1;paint-order:stroke fill markers;stop-color:#000000"
         id="rect6146"
         width="23.495626"
         height="1.7743086"
         x="22.15925"
         y="29.017897"
         ry="0.88715428" /><ellipse
         style="fill:#231815;fill-opacity:1;stroke:none;stroke-width:0.155499;paint-order:stroke fill markers;stop-color:#000000"
         id="ellipse6148"
         cx="26.217831"
         cy="32.396088"
         rx="2.3172526"
         ry="3.197191" /><ellipse
         style="fill:#231815;fill-opacity:1;stroke:none;stroke-width:0.155499;paint-order:stroke fill markers;stop-color:#000000"
         id="ellipse6150"
         cx="41.493908"
         cy="32.322121"
         rx="2.3172526"
         ry="3.197191" /><path
         style="fill:#231815;fill-opacity:1;stroke:none;stroke-width:4.97761;stroke-linejoin:round;stroke-dasharray:none;paint-order:markers stroke fill;stop-color:#000000"
         d="m 33.466877,35.99546 c -1.646639,1.32e-4 -2.981487,1.287926 -2.98168,2.876576 3.89e-4,0.07856 0.0041,0.157048 0.01117,0.235303 v 5.785685 h 5.981831 V 38.79562 h -0.02971 c -0.04312,-1.558711 -1.365444,-2.80056 -2.981627,-2.800163 z"
         id="path6152" /><path
         style="fill:#231815;fill-opacity:1;stroke:none;stroke-width:4.69385;stroke-linejoin:round;stroke-dasharray:none;paint-order:markers stroke fill;stop-color:#000000"
         d="m 39.255152,36.303127 c 1.773603,0 3.211721,1.213475 3.211721,2.709707 0,0.908578 -0.0318,5.070946 -0.0318,5.070946 l -6.231964,0.713667 c 0,0 -0.158921,-4.28838 -0.158921,-5.784613 0,-1.496232 1.437345,-2.709707 3.210948,-2.709707 z"
         id="path6154" /><path
         style="fill:#ffffff;stroke:none;stroke-width:3.3;stroke-linejoin:round;stroke-dasharray:none;paint-order:markers stroke fill;stop-color:#000000"
         d="m 33.597862,37.746175 a 1.9189054,1.9649693 0 0 0 -1.918746,1.964738 1.9189054,1.9649693 0 0 0 0.0072,0.160714 v 3.951697 h 3.849377 V 39.65872 h -0.01912 a 1.9189054,1.9649693 0 0 0 -1.918711,-1.912548 z"
         id="path6156" /><path
         style="fill:#ffffff;stroke:none;stroke-width:3.3;stroke-linejoin:round;stroke-dasharray:none;paint-order:markers stroke fill;stop-color:#000000"
         d="m 27.729563,37.302749 c -1.182295,0 -2.140954,0.89976 -2.140954,2.009179 0,0.673687 0.02119,3.759978 0.02119,3.759978 l 4.154268,0.529166 c 0,0 0.105937,-3.179725 0.105937,-4.289144 0,-1.109419 -0.958143,-2.009179 -2.140438,-2.009179 z"
         id="path6158" /><path
         style="fill:#ffffff;stroke:none;stroke-width:3.3;stroke-linejoin:round;stroke-dasharray:none;paint-order:markers stroke fill;stop-color:#000000"
         d="m 39.287253,37.523037 c -1.182295,0 -2.140955,0.899244 -2.140955,2.008663 0,1.109419 0.105937,4.289661 0.105937,4.289661 l 4.154268,-0.529167 c 0,0 0.02119,-3.086808 0.02119,-3.760494 0,-1.109419 -0.958143,-2.008663 -2.140437,-2.008663 z"
         id="path6160" /></g><rect
       style="fill:#a8a6ae;fill-opacity:1;stroke:none;stroke-width:0.3;stroke-linecap:butt;stroke-linejoin:round;stroke-dasharray:none;stroke-opacity:1"
       id="rect75835-0"
       width="1.3843861"
       height="11.302217"
       x="16.988958"
       y="32.262905" /><path
       style="fill:url(#linearGradient2947);stroke:none;stroke-width:0.264583px;stroke-linecap:butt;stroke-linejoin:miter;stroke-opacity:1;fill-opacity:1.0"
       d="m 31.220997,31.308616 -2.420549,0.972013 c 0,0 -0.61315,0.268611 -1.721141,0.147058 -1.10799,-0.121554 -2.817959,-1.579919 -2.817959,-1.579919 0,0 -1.460191,-0.506196 -1.65795,-0.506196 -0.197759,0 -2.094137,0.629232 -2.094137,0.629232 0,0 -0.84059,1.427359 -0.755033,1.949596 0.08556,0.522237 0.193213,1.261776 0.579346,1.732716 0.631467,0.770156 2.221173,0.76797 2.295437,1.721499 0.05235,0.672184 -0.9524,0.891681 -1.410749,1.449463 -0.467683,0.56914 -0.697936,1.672007 -0.09519,2.366797 0.899694,1.037083 2.469456,1.991338 2.469456,1.991338 l 3.541994,-0.202525 c 0,0 1.587099,-0.704531 2.804192,-1.582625 1.23622,-0.891893 3.856519,-1.619436 3.856519,-1.619436 l 0.574974,-1.486771 c 0,0 -0.447273,-1.357757 -1.120492,-1.427051 -0.673219,-0.0693 -3.291596,0.287059 -3.291596,0.287059 l -0.556697,-0.14696 2.497029,-1.114967 1.069057,-1.171493 -0.155621,-1.204803 -0.4945,-1.010392 z"
       id="path65928"
       sodipodi:nodetypes="ccscscsssssccsccsccccccc" /><g
       inkscape:label="Layer 1"
       id="layer1-3"
       transform="matrix(0.05236264,0.03105093,-0.03105093,0.05236264,14.480128,32.631104)"><path
         style="fill:#231815;fill-opacity:1;stroke:none;stroke-width:4.48178;stroke-dasharray:none;stroke-opacity:1;paint-order:markers stroke fill"
         d="m 23.794235,57.136243 c 0,0 -1.049723,-1.035223 -1.21569,-1.906281 -0.761454,-3.996426 2.964053,-12.272 2.964053,-12.272 l 18.061398,-0.640134 c 0,0 2.887893,9.464414 1.651674,13.438507 -0.250393,0.80494 -3.001795,1.300875 -3.001795,1.300875 z"
         id="path11730"
         sodipodi:nodetypes="csccscc" /><path
         style="fill:#e83828;fill-opacity:1;stroke:none;stroke-width:3.7;stroke-dasharray:none;stroke-opacity:1;paint-order:markers stroke fill"
         d="m 25.591977,55.962707 c 0,0 -0.866615,-0.854644 -1.003631,-1.573759 -0.62863,-3.29931 2.447018,-10.131335 2.447018,-10.131335 l 14.91086,-0.528472 c 0,0 2.384144,7.81349 1.363564,11.094362 -0.206715,0.66453 -2.478177,1.073957 -2.478177,1.073957 z"
         id="path3615"
         sodipodi:nodetypes="csccscc" /><path
         style="fill:#231815;fill-opacity:1;stroke:none;stroke-width:3.25799;stroke-linecap:butt;stroke-linejoin:miter;stroke-dasharray:none;stroke-opacity:1;paint-order:markers stroke fill"
         d="m 22.93426,42.480679 c 0,0 -2.622626,6.715061 -2.422301,9.800883 0.04807,0.740519 0.891421,1.227536 0.891421,1.227536 l 4.622057,0.440061 1.474936,-11.595852 z"
         id="path6430"
         sodipodi:nodetypes="cscccc" /><ellipse
         style="fill:#ffffff;fill-opacity:1;stroke:none;stroke-width:2.79073;stroke-linejoin:round;stroke-dasharray:none;stroke-opacity:1;paint-order:markers stroke fill;stop-color:#000000"
         id="path3617"
         cx="33.919746"
         cy="46.713211"
         rx="7.0274954"
         ry="6.0992723" /><path
         style="fill:#231815;fill-opacity:1;stroke:none;stroke-width:3.25799;stroke-linecap:butt;stroke-linejoin:miter;stroke-dasharray:none;stroke-opacity:1;paint-order:markers stroke fill"
         d="m 44.516676,43.158307 c 0,0 2.622626,6.715061 2.422301,9.800883 -0.04807,0.740519 -0.891421,1.227536 -0.891421,1.227536 l -4.622057,0.440061 -1.474936,-11.595852 z"
         id="path6359"
         sodipodi:nodetypes="cscccc" /><path
         style="fill:#ffffff;fill-opacity:1;stroke:none;stroke-width:2.601;stroke-linecap:butt;stroke-linejoin:miter;stroke-dasharray:none;stroke-opacity:1;paint-order:markers stroke fill"
         d="m 44.415564,44.456974 c 0,0 2.093763,5.360943 1.933835,7.824497 -0.03838,0.591191 -0.711663,0.979999 -0.711663,0.979999 l -3.690001,0.351321 -1.17751,-9.257504 z"
         id="path3613"
         sodipodi:nodetypes="cscccc" /><path
         style="fill:#ffffff;fill-opacity:1;stroke:#231815;stroke-width:3.9;stroke-linecap:butt;stroke-linejoin:round;stroke-dasharray:none;stroke-opacity:1;paint-order:markers stroke fill"
         d="m 32.276676,18.802897 -2.102635,-7.221733 c 2.810206,-0.559982 5.518447,-0.435615 8.180313,0 l -1.273653,7.19164 z"
         id="path1599"
         sodipodi:nodetypes="ccccc" /><path
         style="fill:#ffffff;fill-opacity:1;stroke:none;stroke-width:2.601;stroke-linecap:butt;stroke-linejoin:miter;stroke-dasharray:none;stroke-opacity:1;paint-order:markers stroke fill"
         d="m 23.035372,43.779346 c 0,0 -2.093763,5.360943 -1.933835,7.824497 0.03838,0.591191 0.711663,0.979999 0.711663,0.979999 l 3.690001,0.351321 1.17751,-9.257504 z"
         id="path6432"
         sodipodi:nodetypes="cscccc" /><g
         id="g6436"><path
           id="path6288"
           style="fill:#231815;fill-opacity:1;stroke:none;stroke-width:3.29419;stroke-dasharray:none;stroke-opacity:1;paint-order:stroke fill markers;stop-color:#000000"
           d="m 53.503892,34.337805 c 10e-7,9.756746 -8.674839,11.335241 -19.375793,11.335241 -10.70095,0 -19.375789,-1.578495 -19.375788,-11.335241 0,-9.756747 8.674838,-17.666153 19.375788,-17.666153 10.700954,0 19.375793,7.909406 19.375793,17.666153 z"
           sodipodi:nodetypes="sssss" /><path
           id="path373"
           style="fill:#e83828;fill-opacity:1;stroke:none;stroke-width:3;stroke-dasharray:none;stroke-opacity:1;paint-order:stroke fill markers;stop-color:#000000"
           d="m 51.773483,34.055105 c 1e-6,8.885393 -7.900108,10.322915 -17.645384,10.322915 -9.745272,0 -17.64538,-1.437522 -17.645379,-10.322915 0,-8.885393 7.900107,-16.088427 17.645379,-16.088427 9.745276,0 17.645384,7.203034 17.645384,16.088427 z"
           sodipodi:nodetypes="sssss" /></g><path
         style="fill:#231815;fill-opacity:1;stroke:none;stroke-width:4.58442;stroke-linejoin:round;stroke-dasharray:none;paint-order:markers stroke fill;stop-color:#000000"
         d="m 27.720444,35.991243 c -1.691866,0 -3.063708,1.213475 -3.063708,2.709707 0,0.908578 0.03033,5.070946 0.03033,5.070946 l 5.944762,0.713667 c 0,0 0.151597,-4.28838 0.151597,-5.784613 0,-1.496232 -1.371105,-2.709707 -3.062971,-2.709707 z"
         id="path14362" /><rect
         style="fill:#231815;fill-opacity:1;stroke:none;stroke-width:3.429;stroke-dasharray:none;stroke-opacity:1;paint-order:stroke fill markers;stop-color:#000000"
         id="rect2256"
         width="23.495626"
         height="1.7743086"
         x="22.15925"
         y="29.017897"
         ry="0.88715428" /><ellipse
         style="fill:#231815;fill-opacity:1;stroke:none;stroke-width:0.155499;paint-order:stroke fill markers;stop-color:#000000"
         id="path946"
         cx="26.217831"
         cy="32.396088"
         rx="2.3172526"
         ry="3.197191" /><ellipse
         style="fill:#231815;fill-opacity:1;stroke:none;stroke-width:0.155499;paint-order:stroke fill markers;stop-color:#000000"
         id="ellipse1534"
         cx="41.493908"
         cy="32.322121"
         rx="2.3172526"
         ry="3.197191" /><path
         style="fill:#231815;fill-opacity:1;stroke:none;stroke-width:4.97761;stroke-linejoin:round;stroke-dasharray:none;paint-order:markers stroke fill;stop-color:#000000"
         d="m 33.466877,35.99546 c -1.646639,1.32e-4 -2.981487,1.287926 -2.98168,2.876576 3.89e-4,0.07856 0.0041,0.157048 0.01117,0.235303 v 5.785685 h 5.981831 V 38.79562 h -0.02971 c -0.04312,-1.558711 -1.365444,-2.80056 -2.981627,-2.800163 z"
         id="path14364" /><path
         style="fill:#231815;fill-opacity:1;stroke:none;stroke-width:4.69385;stroke-linejoin:round;stroke-dasharray:none;paint-order:markers stroke fill;stop-color:#000000"
         d="m 39.255152,36.303127 c 1.773603,0 3.211721,1.213475 3.211721,2.709707 0,0.908578 -0.0318,5.070946 -0.0318,5.070946 l -6.231964,0.713667 c 0,0 -0.158921,-4.28838 -0.158921,-5.784613 0,-1.496232 1.437345,-2.709707 3.210948,-2.709707 z"
         id="path14366" /><path
         style="fill:#ffffff;stroke:none;stroke-width:3.3;stroke-linejoin:round;stroke-dasharray:none;paint-order:markers stroke fill;stop-color:#000000"
         d="m 33.597862,37.746175 a 1.9189054,1.9649693 0 0 0 -1.918746,1.964738 1.9189054,1.9649693 0 0 0 0.0072,0.160714 v 3.951697 h 3.849377 V 39.65872 h -0.01912 a 1.9189054,1.9649693 0 0 0 -1.918711,-1.912548 z"
         id="path14372" /><path
         style="fill:#ffffff;stroke:none;stroke-width:3.3;stroke-linejoin:round;stroke-dasharray:none;paint-order:markers stroke fill;stop-color:#000000"
         d="m 27.729563,37.302749 c -1.182295,0 -2.140954,0.89976 -2.140954,2.009179 0,0.673687 0.02119,3.759978 0.02119,3.759978 l 4.154268,0.529166 c 0,0 0.105937,-3.179725 0.105937,-4.289144 0,-1.109419 -0.958143,-2.009179 -2.140438,-2.009179 z"
         id="path14370" /><path
         style="fill:#ffffff;stroke:none;stroke-width:3.3;stroke-linejoin:round;stroke-dasharray:none;paint-order:markers stroke fill;stop-color:#000000"
         d="m 39.287253,37.523037 c -1.182295,0 -2.140955,0.899244 -2.140955,2.008663 0,1.109419 0.105937,4.289661 0.105937,4.289661 l 4.154268,-0.529167 c 0,0 0.02119,-3.086808 0.02119,-3.760494 0,-1.109419 -0.958143,-2.008663 -2.140437,-2.008663 z"
         id="path2459" /></g><g
       inkscape:label="Layer 1"
       id="g5994"
       transform="matrix(0.02841555,-0.0538383,0.0538383,0.02841555,6.6352463,34.868299)"><path
         style="fill:#231815;fill-opacity:1;stroke:none;stroke-width:4.48178;stroke-dasharray:none;stroke-opacity:1;paint-order:markers stroke fill"
         d="m 23.794235,57.136243 c 0,0 -1.049723,-1.035223 -1.21569,-1.906281 -0.761454,-3.996426 2.964053,-12.272 2.964053,-12.272 l 18.061398,-0.640134 c 0,0 2.887893,9.464414 1.651674,13.438507 -0.250393,0.80494 -3.001795,1.300875 -3.001795,1.300875 z"
         id="path5954"
         sodipodi:nodetypes="csccscc" /><path
         style="fill:#e83828;fill-opacity:1;stroke:none;stroke-width:3.7;stroke-dasharray:none;stroke-opacity:1;paint-order:markers stroke fill"
         d="m 25.591977,55.962707 c 0,0 -0.866615,-0.854644 -1.003631,-1.573759 -0.62863,-3.29931 2.447018,-10.131335 2.447018,-10.131335 l 14.91086,-0.528472 c 0,0 2.384144,7.81349 1.363564,11.094362 -0.206715,0.66453 -2.478177,1.073957 -2.478177,1.073957 z"
         id="path5956"
         sodipodi:nodetypes="csccscc" /><path
         style="fill:#231815;fill-opacity:1;stroke:none;stroke-width:3.25799;stroke-linecap:butt;stroke-linejoin:miter;stroke-dasharray:none;stroke-opacity:1;paint-order:markers stroke fill"
         d="m 22.93426,42.480679 c 0,0 -2.622626,6.715061 -2.422301,9.800883 0.04807,0.740519 0.891421,1.227536 0.891421,1.227536 l 4.622057,0.440061 1.474936,-11.595852 z"
         id="path5958"
         sodipodi:nodetypes="cscccc" /><ellipse
         style="fill:#ffffff;fill-opacity:1;stroke:none;stroke-width:2.79073;stroke-linejoin:round;stroke-dasharray:none;stroke-opacity:1;paint-order:markers stroke fill;stop-color:#000000"
         id="ellipse5960"
         cx="33.919746"
         cy="46.713211"
         rx="7.0274954"
         ry="6.0992723" /><path
         style="fill:#231815;fill-opacity:1;stroke:none;stroke-width:3.25799;stroke-linecap:butt;stroke-linejoin:miter;stroke-dasharray:none;stroke-opacity:1;paint-order:markers stroke fill"
         d="m 44.516676,43.158307 c 0,0 2.622626,6.715061 2.422301,9.800883 -0.04807,0.740519 -0.891421,1.227536 -0.891421,1.227536 l -4.622057,0.440061 -1.474936,-11.595852 z"
         id="path5962"
         sodipodi:nodetypes="cscccc" /><path
         style="fill:#ffffff;fill-opacity:1;stroke:none;stroke-width:2.601;stroke-linecap:butt;stroke-linejoin:miter;stroke-dasharray:none;stroke-opacity:1;paint-order:markers stroke fill"
         d="m 44.415564,44.456974 c 0,0 2.093763,5.360943 1.933835,7.824497 -0.03838,0.591191 -0.711663,0.979999 -0.711663,0.979999 l -3.690001,0.351321 -1.17751,-9.257504 z"
         id="path5964"
         sodipodi:nodetypes="cscccc" /><path
         style="fill:#ffffff;fill-opacity:1;stroke:#231815;stroke-width:3.9;stroke-linecap:butt;stroke-linejoin:round;stroke-dasharray:none;stroke-opacity:1;paint-order:markers stroke fill"
         d="m 32.276676,18.802897 -2.102635,-7.221733 c 2.810206,-0.559982 5.518447,-0.435615 8.180313,0 l -1.273653,7.19164 z"
         id="path5966"
         sodipodi:nodetypes="ccccc" /><path
         style="fill:#ffffff;fill-opacity:1;stroke:none;stroke-width:2.601;stroke-linecap:butt;stroke-linejoin:miter;stroke-dasharray:none;stroke-opacity:1;paint-order:markers stroke fill"
         d="m 23.035372,43.779346 c 0,0 -2.093763,5.360943 -1.933835,7.824497 0.03838,0.591191 0.711663,0.979999 0.711663,0.979999 l 3.690001,0.351321 1.17751,-9.257504 z"
         id="path5968"
         sodipodi:nodetypes="cscccc" /><g
         id="g5974"><path
           id="path5970"
           style="fill:#231815;fill-opacity:1;stroke:none;stroke-width:3.29419;stroke-dasharray:none;stroke-opacity:1;paint-order:stroke fill markers;stop-color:#000000"
           d="m 53.503892,34.337805 c 10e-7,9.756746 -8.674839,11.335241 -19.375793,11.335241 -10.70095,0 -19.375789,-1.578495 -19.375788,-11.335241 0,-9.756747 8.674838,-17.666153 19.375788,-17.666153 10.700954,0 19.375793,7.909406 19.375793,17.666153 z"
           sodipodi:nodetypes="sssss" /><path
           id="path5972"
           style="fill:#e83828;fill-opacity:1;stroke:none;stroke-width:3;stroke-dasharray:none;stroke-opacity:1;paint-order:stroke fill markers;stop-color:#000000"
           d="m 51.773483,34.055105 c 1e-6,8.885393 -7.900108,10.322915 -17.645384,10.322915 -9.745272,0 -17.64538,-1.437522 -17.645379,-10.322915 0,-8.885393 7.900107,-16.088427 17.645379,-16.088427 9.745276,0 17.645384,7.203034 17.645384,16.088427 z"
           sodipodi:nodetypes="sssss" /></g><path
         style="fill:#231815;fill-opacity:1;stroke:none;stroke-width:4.58442;stroke-linejoin:round;stroke-dasharray:none;paint-order:markers stroke fill;stop-color:#000000"
         d="m 27.720444,35.991243 c -1.691866,0 -3.063708,1.213475 -3.063708,2.709707 0,0.908578 0.03033,5.070946 0.03033,5.070946 l 5.944762,0.713667 c 0,0 0.151597,-4.28838 0.151597,-5.784613 0,-1.496232 -1.371105,-2.709707 -3.062971,-2.709707 z"
         id="path5976" /><rect
         style="fill:#231815;fill-opacity:1;stroke:none;stroke-width:3.429;stroke-dasharray:none;stroke-opacity:1;paint-order:stroke fill markers;stop-color:#000000"
         id="rect5978"
         width="23.495626"
         height="1.7743086"
         x="22.15925"
         y="29.017897"
         ry="0.88715428" /><ellipse
         style="fill:#231815;fill-opacity:1;stroke:none;stroke-width:0.155499;paint-order:stroke fill markers;stop-color:#000000"
         id="ellipse5980"
         cx="26.217831"
         cy="32.396088"
         rx="2.3172526"
         ry="3.197191" /><ellipse
         style="fill:#231815;fill-opacity:1;stroke:none;stroke-width:0.155499;paint-order:stroke fill markers;stop-color:#000000"
         id="ellipse5982"
         cx="41.493908"
         cy="32.322121"
         rx="2.3172526"
         ry="3.197191" /><path
         style="fill:#231815;fill-opacity:1;stroke:none;stroke-width:4.97761;stroke-linejoin:round;stroke-dasharray:none;paint-order:markers stroke fill;stop-color:#000000"
         d="m 33.466877,35.99546 c -1.646639,1.32e-4 -2.981487,1.287926 -2.98168,2.876576 3.89e-4,0.07856 0.0041,0.157048 0.01117,0.235303 v 5.785685 h 5.981831 V 38.79562 h -0.02971 c -0.04312,-1.558711 -1.365444,-2.80056 -2.981627,-2.800163 z"
         id="path5984" /><path
         style="fill:#231815;fill-opacity:1;stroke:none;stroke-width:4.69385;stroke-linejoin:round;stroke-dasharray:none;paint-order:markers stroke fill;stop-color:#000000"
         d="m 39.255152,36.303127 c 1.773603,0 3.211721,1.213475 3.211721,2.709707 0,0.908578 -0.0318,5.070946 -0.0318,5.070946 l -6.231964,0.713667 c 0,0 -0.158921,-4.28838 -0.158921,-5.784613 0,-1.496232 1.437345,-2.709707 3.210948,-2.709707 z"
         id="path5986" /><path
         style="fill:#ffffff;stroke:none;stroke-width:3.3;stroke-linejoin:round;stroke-dasharray:none;paint-order:markers stroke fill;stop-color:#000000"
         d="m 33.597862,37.746175 a 1.9189054,1.9649693 0 0 0 -1.918746,1.964738 1.9189054,1.9649693 0 0 0 0.0072,0.160714 v 3.951697 h 3.849377 V 39.65872 h -0.01912 a 1.9189054,1.9649693 0 0 0 -1.918711,-1.912548 z"
         id="path5988" /><path
         style="fill:#ffffff;stroke:none;stroke-width:3.3;stroke-linejoin:round;stroke-dasharray:none;paint-order:markers stroke fill;stop-color:#000000"
         d="m 27.729563,37.302749 c -1.182295,0 -2.140954,0.89976 -2.140954,2.009179 0,0.673687 0.02119,3.759978 0.02119,3.759978 l 4.154268,0.529166 c 0,0 0.105937,-3.179725 0.105937,-4.289144 0,-1.109419 -0.958143,-2.009179 -2.140438,-2.009179 z"
         id="path5990" /><path
         style="fill:#ffffff;stroke:none;stroke-width:3.3;stroke-linejoin:round;stroke-dasharray:none;paint-order:markers stroke fill;stop-color:#000000"
         d="m 39.287253,37.523037 c -1.182295,0 -2.140955,0.899244 -2.140955,2.008663 0,1.109419 0.105937,4.289661 0.105937,4.289661 l 4.154268,-0.529167 c 0,0 0.02119,-3.086808 0.02119,-3.760494 0,-1.109419 -0.958143,-2.008663 -2.140437,-2.008663 z"
         id="path5992" /></g><g
       inkscape:label="Layer 1"
       id="g6078"
       transform="matrix(0.04262048,-0.0434684,0.0434684,0.04262048,8.2339273,41.465154)"><path
         style="fill:#231815;fill-opacity:1;stroke:none;stroke-width:4.48178;stroke-dasharray:none;stroke-opacity:1;paint-order:markers stroke fill"
         d="m 23.794235,57.136243 c 0,0 -1.049723,-1.035223 -1.21569,-1.906281 -0.761454,-3.996426 2.964053,-12.272 2.964053,-12.272 l 18.061398,-0.640134 c 0,0 2.887893,9.464414 1.651674,13.438507 -0.250393,0.80494 -3.001795,1.300875 -3.001795,1.300875 z"
         id="path6038"
         sodipodi:nodetypes="csccscc" /><path
         style="fill:#e83828;fill-opacity:1;stroke:none;stroke-width:3.7;stroke-dasharray:none;stroke-opacity:1;paint-order:markers stroke fill"
         d="m 25.591977,55.962707 c 0,0 -0.866615,-0.854644 -1.003631,-1.573759 -0.62863,-3.29931 2.447018,-10.131335 2.447018,-10.131335 l 14.91086,-0.528472 c 0,0 2.384144,7.81349 1.363564,11.094362 -0.206715,0.66453 -2.478177,1.073957 -2.478177,1.073957 z"
         id="path6040"
         sodipodi:nodetypes="csccscc" /><path
         style="fill:#231815;fill-opacity:1;stroke:none;stroke-width:3.25799;stroke-linecap:butt;stroke-linejoin:miter;stroke-dasharray:none;stroke-opacity:1;paint-order:markers stroke fill"
         d="m 22.93426,42.480679 c 0,0 -2.622626,6.715061 -2.422301,9.800883 0.04807,0.740519 0.891421,1.227536 0.891421,1.227536 l 4.622057,0.440061 1.474936,-11.595852 z"
         id="path6042"
         sodipodi:nodetypes="cscccc" /><ellipse
         style="fill:#ffffff;fill-opacity:1;stroke:none;stroke-width:2.79073;stroke-linejoin:round;stroke-dasharray:none;stroke-opacity:1;paint-order:markers stroke fill;stop-color:#000000"
         id="ellipse6044"
         cx="33.919746"
         cy="46.713211"
         rx="7.0274954"
         ry="6.0992723" /><path
         style="fill:#231815;fill-opacity:1;stroke:none;stroke-width:3.25799;stroke-linecap:butt;stroke-linejoin:miter;stroke-dasharray:none;stroke-opacity:1;paint-order:markers stroke fill"
         d="m 44.516676,43.158307 c 0,0 2.622626,6.715061 2.422301,9.800883 -0.04807,0.740519 -0.891421,1.227536 -0.891421,1.227536 l -4.622057,0.440061 -1.474936,-11.595852 z"
         id="path6046"
         sodipodi:nodetypes="cscccc" /><path
         style="fill:#ffffff;fill-opacity:1;stroke:none;stroke-width:2.601;stroke-linecap:butt;stroke-linejoin:miter;stroke-dasharray:none;stroke-opacity:1;paint-order:markers stroke fill"
         d="m 44.415564,44.456974 c 0,0 2.093763,5.360943 1.933835,7.824497 -0.03838,0.591191 -0.711663,0.979999 -0.711663,0.979999 l -3.690001,0.351321 -1.17751,-9.257504 z"
         id="path6048"
         sodipodi:nodetypes="cscccc" /><path
         style="fill:#ffffff;fill-opacity:1;stroke:#231815;stroke-width:3.9;stroke-linecap:butt;stroke-linejoin:round;stroke-dasharray:none;stroke-opacity:1;paint-order:markers stroke fill"
         d="m 32.276676,18.802897 -2.102635,-7.221733 c 2.810206,-0.559982 5.518447,-0.435615 8.180313,0 l -1.273653,7.19164 z"
         id="path6050"
         sodipodi:nodetypes="ccccc" /><path
         style="fill:#ffffff;fill-opacity:1;stroke:none;stroke-width:2.601;stroke-linecap:butt;stroke-linejoin:miter;stroke-dasharray:none;stroke-opacity:1;paint-order:markers stroke fill"
         d="m 23.035372,43.779346 c 0,0 -2.093763,5.360943 -1.933835,7.824497 0.03838,0.591191 0.711663,0.979999 0.711663,0.979999 l 3.690001,0.351321 1.17751,-9.257504 z"
         id="path6052"
         sodipodi:nodetypes="cscccc" /><g
         id="g6058"><path
           id="path6054"
           style="fill:#231815;fill-opacity:1;stroke:none;stroke-width:3.29419;stroke-dasharray:none;stroke-opacity:1;paint-order:stroke fill markers;stop-color:#000000"
           d="m 53.503892,34.337805 c 10e-7,9.756746 -8.674839,11.335241 -19.375793,11.335241 -10.70095,0 -19.375789,-1.578495 -19.375788,-11.335241 0,-9.756747 8.674838,-17.666153 19.375788,-17.666153 10.700954,0 19.375793,7.909406 19.375793,17.666153 z"
           sodipodi:nodetypes="sssss" /><path
           id="path6056"
           style="fill:#e83828;fill-opacity:1;stroke:none;stroke-width:3;stroke-dasharray:none;stroke-opacity:1;paint-order:stroke fill markers;stop-color:#000000"
           d="m 51.773483,34.055105 c 1e-6,8.885393 -7.900108,10.322915 -17.645384,10.322915 -9.745272,0 -17.64538,-1.437522 -17.645379,-10.322915 0,-8.885393 7.900107,-16.088427 17.645379,-16.088427 9.745276,0 17.645384,7.203034 17.645384,16.088427 z"
           sodipodi:nodetypes="sssss" /></g><path
         style="fill:#231815;fill-opacity:1;stroke:none;stroke-width:4.58442;stroke-linejoin:round;stroke-dasharray:none;paint-order:markers stroke fill;stop-color:#000000"
         d="m 27.720444,35.991243 c -1.691866,0 -3.063708,1.213475 -3.063708,2.709707 0,0.908578 0.03033,5.070946 0.03033,5.070946 l 5.944762,0.713667 c 0,0 0.151597,-4.28838 0.151597,-5.784613 0,-1.496232 -1.371105,-2.709707 -3.062971,-2.709707 z"
         id="path6060" /><rect
         style="fill:#231815;fill-opacity:1;stroke:none;stroke-width:3.429;stroke-dasharray:none;stroke-opacity:1;paint-order:stroke fill markers;stop-color:#000000"
         id="rect6062"
         width="23.495626"
         height="1.7743086"
         x="22.15925"
         y="29.017897"
         ry="0.88715428" /><ellipse
         style="fill:#231815;fill-opacity:1;stroke:none;stroke-width:0.155499;paint-order:stroke fill markers;stop-color:#000000"
         id="ellipse6064"
         cx="26.217831"
         cy="32.396088"
         rx="2.3172526"
         ry="3.197191" /><ellipse
         style="fill:#231815;fill-opacity:1;stroke:none;stroke-width:0.155499;paint-order:stroke fill markers;stop-color:#000000"
         id="ellipse6066"
         cx="41.493908"
         cy="32.322121"
         rx="2.3172526"
         ry="3.197191" /><path
         style="fill:#231815;fill-opacity:1;stroke:none;stroke-width:4.97761;stroke-linejoin:round;stroke-dasharray:none;paint-order:markers stroke fill;stop-color:#000000"
         d="m 33.466877,35.99546 c -1.646639,1.32e-4 -2.981487,1.287926 -2.98168,2.876576 3.89e-4,0.07856 0.0041,0.157048 0.01117,0.235303 v 5.785685 h 5.981831 V 38.79562 h -0.02971 c -0.04312,-1.558711 -1.365444,-2.80056 -2.981627,-2.800163 z"
         id="path6068" /><path
         style="fill:#231815;fill-opacity:1;stroke:none;stroke-width:4.69385;stroke-linejoin:round;stroke-dasharray:none;paint-order:markers stroke fill;stop-color:#000000"
         d="m 39.255152,36.303127 c 1.773603,0 3.211721,1.213475 3.211721,2.709707 0,0.908578 -0.0318,5.070946 -0.0318,5.070946 l -6.231964,0.713667 c 0,0 -0.158921,-4.28838 -0.158921,-5.784613 0,-1.496232 1.437345,-2.709707 3.210948,-2.709707 z"
         id="path6070" /><path
         style="fill:#ffffff;stroke:none;stroke-width:3.3;stroke-linejoin:round;stroke-dasharray:none;paint-order:markers stroke fill;stop-color:#000000"
         d="m 33.597862,37.746175 a 1.9189054,1.9649693 0 0 0 -1.918746,1.964738 1.9189054,1.9649693 0 0 0 0.0072,0.160714 v 3.951697 h 3.849377 V 39.65872 h -0.01912 a 1.9189054,1.9649693 0 0 0 -1.918711,-1.912548 z"
         id="path6072" /><path
         style="fill:#ffffff;stroke:none;stroke-width:3.3;stroke-linejoin:round;stroke-dasharray:none;paint-order:markers stroke fill;stop-color:#000000"
         d="m 27.729563,37.302749 c -1.182295,0 -2.140954,0.89976 -2.140954,2.009179 0,0.673687 0.02119,3.759978 0.02119,3.759978 l 4.154268,0.529166 c 0,0 0.105937,-3.179725 0.105937,-4.289144 0,-1.109419 -0.958143,-2.009179 -2.140438,-2.009179 z"
         id="path6074" /><path
         style="fill:#ffffff;stroke:none;stroke-width:3.3;stroke-linejoin:round;stroke-dasharray:none;paint-order:markers stroke fill;stop-color:#000000"
         d="m 39.287253,37.523037 c -1.182295,0 -2.140955,0.899244 -2.140955,2.008663 0,1.109419 0.105937,4.289661 0.105937,4.289661 l 4.154268,-0.529167 c 0,0 0.02119,-3.086808 0.02119,-3.760494 0,-1.109419 -0.958143,-2.008663 -2.140437,-2.008663 z"
         id="path6076" /></g><g
       inkscape:label="Layer 1"
       id="g6204"
       transform="matrix(-0.04449483,0.04154776,-0.04154776,-0.04449483,15.728279,38.312425)"><path
         style="fill:#231815;fill-opacity:1;stroke:none;stroke-width:4.48178;stroke-dasharray:none;stroke-opacity:1;paint-order:markers stroke fill"
         d="m 23.794235,57.136243 c 0,0 -1.049723,-1.035223 -1.21569,-1.906281 -0.761454,-3.996426 2.964053,-12.272 2.964053,-12.272 l 18.061398,-0.640134 c 0,0 2.887893,9.464414 1.651674,13.438507 -0.250393,0.80494 -3.001795,1.300875 -3.001795,1.300875 z"
         id="path6164"
         sodipodi:nodetypes="csccscc" /><path
         style="fill:#e83828;fill-opacity:1;stroke:none;stroke-width:3.7;stroke-dasharray:none;stroke-opacity:1;paint-order:markers stroke fill"
         d="m 25.591977,55.962707 c 0,0 -0.866615,-0.854644 -1.003631,-1.573759 -0.62863,-3.29931 2.447018,-10.131335 2.447018,-10.131335 l 14.91086,-0.528472 c 0,0 2.384144,7.81349 1.363564,11.094362 -0.206715,0.66453 -2.478177,1.073957 -2.478177,1.073957 z"
         id="path6166"
         sodipodi:nodetypes="csccscc" /><path
         style="fill:#231815;fill-opacity:1;stroke:none;stroke-width:3.25799;stroke-linecap:butt;stroke-linejoin:miter;stroke-dasharray:none;stroke-opacity:1;paint-order:markers stroke fill"
         d="m 22.93426,42.480679 c 0,0 -2.622626,6.715061 -2.422301,9.800883 0.04807,0.740519 0.891421,1.227536 0.891421,1.227536 l 4.622057,0.440061 1.474936,-11.595852 z"
         id="path6168"
         sodipodi:nodetypes="cscccc" /><ellipse
         style="fill:#ffffff;fill-opacity:1;stroke:none;stroke-width:2.79073;stroke-linejoin:round;stroke-dasharray:none;stroke-opacity:1;paint-order:markers stroke fill;stop-color:#000000"
         id="ellipse6170"
         cx="33.919746"
         cy="46.713211"
         rx="7.0274954"
         ry="6.0992723" /><path
         style="fill:#231815;fill-opacity:1;stroke:none;stroke-width:3.25799;stroke-linecap:butt;stroke-linejoin:miter;stroke-dasharray:none;stroke-opacity:1;paint-order:markers stroke fill"
         d="m 44.516676,43.158307 c 0,0 2.622626,6.715061 2.422301,9.800883 -0.04807,0.740519 -0.891421,1.227536 -0.891421,1.227536 l -4.622057,0.440061 -1.474936,-11.595852 z"
         id="path6172"
         sodipodi:nodetypes="cscccc" /><path
         style="fill:#ffffff;fill-opacity:1;stroke:none;stroke-width:2.601;stroke-linecap:butt;stroke-linejoin:miter;stroke-dasharray:none;stroke-opacity:1;paint-order:markers stroke fill"
         d="m 44.415564,44.456974 c 0,0 2.093763,5.360943 1.933835,7.824497 -0.03838,0.591191 -0.711663,0.979999 -0.711663,0.979999 l -3.690001,0.351321 -1.17751,-9.257504 z"
         id="path6174"
         sodipodi:nodetypes="cscccc" /><path
         style="fill:#ffffff;fill-opacity:1;stroke:#231815;stroke-width:3.9;stroke-linecap:butt;stroke-linejoin:round;stroke-dasharray:none;stroke-opacity:1;paint-order:markers stroke fill"
         d="m 32.276676,18.802897 -2.102635,-7.221733 c 2.810206,-0.559982 5.518447,-0.435615 8.180313,0 l -1.273653,7.19164 z"
         id="path6176"
         sodipodi:nodetypes="ccccc" /><path
         style="fill:#ffffff;fill-opacity:1;stroke:none;stroke-width:2.601;stroke-linecap:butt;stroke-linejoin:miter;stroke-dasharray:none;stroke-opacity:1;paint-order:markers stroke fill"
         d="m 23.035372,43.779346 c 0,0 -2.093763,5.360943 -1.933835,7.824497 0.03838,0.591191 0.711663,0.979999 0.711663,0.979999 l 3.690001,0.351321 1.17751,-9.257504 z"
         id="path6178"
         sodipodi:nodetypes="cscccc" /><g
         id="g6184"><path
           id="path6180"
           style="fill:#231815;fill-opacity:1;stroke:none;stroke-width:3.29419;stroke-dasharray:none;stroke-opacity:1;paint-order:stroke fill markers;stop-color:#000000"
           d="m 53.503892,34.337805 c 10e-7,9.756746 -8.674839,11.335241 -19.375793,11.335241 -10.70095,0 -19.375789,-1.578495 -19.375788,-11.335241 0,-9.756747 8.674838,-17.666153 19.375788,-17.666153 10.700954,0 19.375793,7.909406 19.375793,17.666153 z"
           sodipodi:nodetypes="sssss" /><path
           id="path6182"
           style="fill:#e83828;fill-opacity:1;stroke:none;stroke-width:3;stroke-dasharray:none;stroke-opacity:1;paint-order:stroke fill markers;stop-color:#000000"
           d="m 51.773483,34.055105 c 1e-6,8.885393 -7.900108,10.322915 -17.645384,10.322915 -9.745272,0 -17.64538,-1.437522 -17.645379,-10.322915 0,-8.885393 7.900107,-16.088427 17.645379,-16.088427 9.745276,0 17.645384,7.203034 17.645384,16.088427 z"
           sodipodi:nodetypes="sssss" /></g><path
         style="fill:#231815;fill-opacity:1;stroke:none;stroke-width:4.58442;stroke-linejoin:round;stroke-dasharray:none;paint-order:markers stroke fill;stop-color:#000000"
         d="m 27.720444,35.991243 c -1.691866,0 -3.063708,1.213475 -3.063708,2.709707 0,0.908578 0.03033,5.070946 0.03033,5.070946 l 5.944762,0.713667 c 0,0 0.151597,-4.28838 0.151597,-5.784613 0,-1.496232 -1.371105,-2.709707 -3.062971,-2.709707 z"
         id="path6186" /><rect
         style="fill:#231815;fill-opacity:1;stroke:none;stroke-width:3.429;stroke-dasharray:none;stroke-opacity:1;paint-order:stroke fill markers;stop-color:#000000"
         id="rect6188"
         width="23.495626"
         height="1.7743086"
         x="22.15925"
         y="29.017897"
         ry="0.88715428" /><ellipse
         style="fill:#231815;fill-opacity:1;stroke:none;stroke-width:0.155499;paint-order:stroke fill markers;stop-color:#000000"
         id="ellipse6190"
         cx="26.217831"
         cy="32.396088"
         rx="2.3172526"
         ry="3.197191" /><ellipse
         style="fill:#231815;fill-opacity:1;stroke:none;stroke-width:0.155499;paint-order:stroke fill markers;stop-color:#000000"
         id="ellipse6192"
         cx="41.493908"
         cy="32.322121"
         rx="2.3172526"
         ry="3.197191" /><path
         style="fill:#231815;fill-opacity:1;stroke:none;stroke-width:4.97761;stroke-linejoin:round;stroke-dasharray:none;paint-order:markers stroke fill;stop-color:#000000"
         d="m 33.466877,35.99546 c -1.646639,1.32e-4 -2.981487,1.287926 -2.98168,2.876576 3.89e-4,0.07856 0.0041,0.157048 0.01117,0.235303 v 5.785685 h 5.981831 V 38.79562 h -0.02971 c -0.04312,-1.558711 -1.365444,-2.80056 -2.981627,-2.800163 z"
         id="path6194" /><path
         style="fill:#231815;fill-opacity:1;stroke:none;stroke-width:4.69385;stroke-linejoin:round;stroke-dasharray:none;paint-order:markers stroke fill;stop-color:#000000"
         d="m 39.255152,36.303127 c 1.773603,0 3.211721,1.213475 3.211721,2.709707 0,0.908578 -0.0318,5.070946 -0.0318,5.070946 l -6.231964,0.713667 c 0,0 -0.158921,-4.28838 -0.158921,-5.784613 0,-1.496232 1.437345,-2.709707 3.210948,-2.709707 z"
         id="path6196" /><path
         style="fill:#ffffff;stroke:none;stroke-width:3.3;stroke-linejoin:round;stroke-dasharray:none;paint-order:markers stroke fill;stop-color:#000000"
         d="m 33.597862,37.746175 a 1.9189054,1.9649693 0 0 0 -1.918746,1.964738 1.9189054,1.9649693 0 0 0 0.0072,0.160714 v 3.951697 h 3.849377 V 39.65872 h -0.01912 a 1.9189054,1.9649693 0 0 0 -1.918711,-1.912548 z"
         id="path6198" /><path
         style="fill:#ffffff;stroke:none;stroke-width:3.3;stroke-linejoin:round;stroke-dasharray:none;paint-order:markers stroke fill;stop-color:#000000"
         d="m 27.729563,37.302749 c -1.182295,0 -2.140954,0.89976 -2.140954,2.009179 0,0.673687 0.02119,3.759978 0.02119,3.759978 l 4.154268,0.529166 c 0,0 0.105937,-3.179725 0.105937,-4.289144 0,-1.109419 -0.958143,-2.009179 -2.140438,-2.009179 z"
         id="path6200" /><path
         style="fill:#ffffff;stroke:none;stroke-width:3.3;stroke-linejoin:round;stroke-dasharray:none;paint-order:markers stroke fill;stop-color:#000000"
         d="m 39.287253,37.523037 c -1.182295,0 -2.140955,0.899244 -2.140955,2.008663 0,1.109419 0.105937,4.289661 0.105937,4.289661 l 4.154268,-0.529167 c 0,0 0.02119,-3.086808 0.02119,-3.760494 0,-1.109419 -0.958143,-2.008663 -2.140437,-2.008663 z"
         id="path6202" /></g></g></svg>
