<?xml version="1.0" encoding="UTF-8" standalone="no"?>
<!-- Created with Inkscape (http://www.inkscape.org/) -->

<svg
   width="256"
   height="256"
   viewBox="0 0 67.733334 67.733334"
   version="1.1"
   id="svg5"
   inkscape:version="1.2.2 (b0a8486541, 2022-12-01)"
   xml:space="preserve"
   sodipodi:docname="s3custom_copper_splash-o-matic_2d.svg"
   xmlns:inkscape="http://www.inkscape.org/namespaces/inkscape"
   xmlns:sodipodi="http://sodipodi.sourceforge.net/DTD/sodipodi-0.dtd"
   xmlns:xlink="http://www.w3.org/1999/xlink"
   xmlns="http://www.w3.org/2000/svg"
   xmlns:svg="http://www.w3.org/2000/svg"><sodipodi:namedview
     id="namedview7"
     pagecolor="#505050"
     bordercolor="#eeeeee"
     borderopacity="1"
     inkscape:showpageshadow="0"
     inkscape:pageopacity="0"
     inkscape:pagecheckerboard="0"
     inkscape:deskcolor="#505050"
     inkscape:document-units="mm"
     showgrid="false"
     inkscape:zoom="4.4850887"
     inkscape:cx="121.73672"
     inkscape:cy="95.873244"
     inkscape:window-width="1906"
     inkscape:window-height="1026"
     inkscape:window-x="5"
     inkscape:window-y="25"
     inkscape:window-maximized="1"
     inkscape:current-layer="layer1" /><defs
     id="defs2"><linearGradient
       id="linearGradient3129"
       inkscape:swatch="solid"><stop
         style="stop-color:#a08e00;stop-opacity:1;"
         offset="0"
         id="stop3127" /></linearGradient><linearGradient
       id="linearGradient18926"
       inkscape:swatch="solid"><stop
         style="stop-color:#252525;stop-opacity:1;"
         offset="0"
         id="stop18924" /></linearGradient><linearGradient
       id="linearGradient17958"
       inkscape:swatch="solid"><stop
         style="stop-color:#a08e00;stop-opacity:1;"
         offset="0"
         id="stop17956" /></linearGradient><linearGradient
       id="linearGradient17859"
       inkscape:swatch="solid"><stop
         style="stop-color:#a08e00;stop-opacity:1;"
         offset="0"
         id="stop17857" /></linearGradient><linearGradient
       id="linearGradient17851"
       inkscape:swatch="solid"><stop
         style="stop-color:#a08e00;stop-opacity:1;"
         offset="0"
         id="stop17849" /></linearGradient><linearGradient
       id="linearGradient17843"
       inkscape:swatch="solid"><stop
         style="stop-color:#a08e00;stop-opacity:1;"
         offset="0"
         id="stop17841" /></linearGradient><linearGradient
       id="linearGradient17053"
       inkscape:swatch="solid"><stop
         style="stop-color:#a08e00;stop-opacity:1;"
         offset="0"
         id="stop17051" /></linearGradient><linearGradient
       id="needle"
       inkscape:swatch="solid"><stop
         style="stop-color:#be0e22;stop-opacity:1;"
         offset="0"
         id="stop14142" /></linearGradient><linearGradient
       id="linearGradient11101"
       inkscape:swatch="solid"><stop
         style="stop-color:#3f3f3f;stop-opacity:1;"
         offset="0"
         id="stop11099" /></linearGradient><linearGradient
       id="linearGradient11095"
       inkscape:swatch="solid"><stop
         style="stop-color:#3f3f3f;stop-opacity:1;"
         offset="0"
         id="stop11093" /></linearGradient><linearGradient
       id="frame"
       inkscape:swatch="solid"><stop
         style="stop-color:#3f3f3f;stop-opacity:1;"
         offset="0"
         id="stop11087" /></linearGradient><linearGradient
       id="grip"
       inkscape:swatch="solid"><stop
         style="stop-color:#242424;stop-opacity:1;"
         offset="0"
         id="stop10034" /></linearGradient><linearGradient
       id="screw"
       inkscape:swatch="solid"><stop
         style="stop-color:#667273;stop-opacity:1;"
         offset="0"
         id="stop9890" /></linearGradient><linearGradient
       id="linearGradient9127"
       inkscape:swatch="solid"><stop
         style="stop-color:#000000;stop-opacity:1;"
         offset="0"
         id="stop9125" /></linearGradient><linearGradient
       id="linearGradient8059"
       inkscape:swatch="solid"><stop
         style="stop-color:#3e3e3e;stop-opacity:1;"
         offset="0"
         id="stop8057" /></linearGradient><linearGradient
       id="ink"
       inkscape:swatch="solid"><stop
         style="stop-color:#b6b6b6;stop-opacity:1;"
         offset="0"
         id="stop5934" /></linearGradient><linearGradient
       id="linearGradient5236"
       inkscape:swatch="solid"><stop
         style="stop-color:#000000;stop-opacity:1;"
         offset="0"
         id="stop5234" /></linearGradient><linearGradient
       id="linearGradient5230"
       inkscape:swatch="solid"><stop
         style="stop-color:#000000;stop-opacity:1;"
         offset="0"
         id="stop5228" /></linearGradient><linearGradient
       id="linearGradient5222"
       inkscape:swatch="solid"><stop
         style="stop-color:#3a3a3a;stop-opacity:1;"
         offset="0"
         id="stop5220" /></linearGradient><linearGradient
       id="metal"
       inkscape:swatch="solid"><stop
         style="stop-color:#b7772a;stop-opacity:1;"
         offset="0"
         id="stop1960" /></linearGradient><linearGradient
       inkscape:collect="always"
       xlink:href="#metal"
       id="linearGradient1964"
       x1="45.130364"
       y1="31.508266"
       x2="54.223838"
       y2="31.508266"
       gradientUnits="userSpaceOnUse" /><linearGradient
       inkscape:collect="always"
       xlink:href="#metal"
       id="linearGradient5224"
       x1="32.321384"
       y1="35.645943"
       x2="45.441875"
       y2="35.645943"
       gradientUnits="userSpaceOnUse" /><linearGradient
       inkscape:collect="always"
       xlink:href="#metal"
       id="linearGradient5238"
       x1="52.075943"
       y1="30.610846"
       x2="54.410995"
       y2="30.610846"
       gradientUnits="userSpaceOnUse" /><linearGradient
       inkscape:collect="always"
       xlink:href="#ink"
       id="linearGradient5938"
       x1="59.342583"
       y1="28.773646"
       x2="60.437291"
       y2="28.773646"
       gradientUnits="userSpaceOnUse"
       gradientTransform="rotate(6.2687606,59.876128,29.165393)" /><linearGradient
       inkscape:collect="always"
       xlink:href="#metal"
       id="linearGradient8061"
       x1="27.326248"
       y1="43.427132"
       x2="31.556458"
       y2="43.427132"
       gradientUnits="userSpaceOnUse" /><linearGradient
       inkscape:collect="always"
       xlink:href="#screw"
       id="linearGradient9894"
       x1="24.097569"
       y1="46.291897"
       x2="25.926804"
       y2="46.291897"
       gradientUnits="userSpaceOnUse"
       gradientTransform="translate(1.6376998,-0.14499407)" /><linearGradient
       inkscape:collect="always"
       xlink:href="#grip"
       id="linearGradient10038"
       x1="24.30659"
       y1="48.805414"
       x2="31.954061"
       y2="48.805414"
       gradientUnits="userSpaceOnUse" /><linearGradient
       inkscape:collect="always"
       xlink:href="#frame"
       id="linearGradient11091"
       x1="6.0413485"
       y1="45.776011"
       x2="8.5941496"
       y2="45.776011"
       gradientUnits="userSpaceOnUse" /><linearGradient
       inkscape:collect="always"
       xlink:href="#frame"
       id="linearGradient11097"
       x1="6.0209475"
       y1="40.53561"
       x2="8.5737486"
       y2="40.53561"
       gradientUnits="userSpaceOnUse" /><linearGradient
       inkscape:collect="always"
       xlink:href="#frame"
       id="linearGradient11103"
       x1="20.115664"
       y1="44.077061"
       x2="28.10993"
       y2="44.077061"
       gradientUnits="userSpaceOnUse" /><linearGradient
       inkscape:collect="always"
       xlink:href="#needle"
       id="linearGradient14146"
       x1="37.806252"
       y1="28.44109"
       x2="39.672466"
       y2="28.44109"
       gradientUnits="userSpaceOnUse" /><linearGradient
       inkscape:collect="always"
       xlink:href="#ink"
       id="linearGradient17055"
       x1="29.499617"
       y1="25.790367"
       x2="32.431683"
       y2="25.790367"
       gradientUnits="userSpaceOnUse"
       gradientTransform="translate(0.09817206,0.14204963)" /><linearGradient
       inkscape:collect="always"
       xlink:href="#ink"
       id="linearGradient17845"
       x1="31.249496"
       y1="24.507706"
       x2="33.9506"
       y2="24.507706"
       gradientUnits="userSpaceOnUse"
       gradientTransform="translate(-22.757388,14.803373)" /><linearGradient
       inkscape:collect="always"
       xlink:href="#ink"
       id="linearGradient17853"
       x1="8.3798227"
       y1="31.436886"
       x2="31.945518"
       y2="31.436886"
       gradientUnits="userSpaceOnUse" /><linearGradient
       inkscape:collect="always"
       xlink:href="#screw"
       id="linearGradient17861"
       x1="11.407174"
       y1="36.776653"
       x2="12.349211"
       y2="36.776653"
       gradientUnits="userSpaceOnUse"
       gradientTransform="translate(0.74612816,0.05501182)" /><linearGradient
       inkscape:collect="always"
       xlink:href="#ink"
       id="linearGradient17960"
       x1="6.5223017"
       y1="42.493378"
       x2="7.412333"
       y2="42.493378"
       gradientUnits="userSpaceOnUse"
       gradientTransform="translate(-11.096648,0.58232174)" /><linearGradient
       inkscape:collect="always"
       xlink:href="#ink"
       id="linearGradient18928"
       x1="10.06672"
       y1="43.327717"
       x2="25.752234"
       y2="43.327717"
       gradientUnits="userSpaceOnUse"
       gradientTransform="translate(-0.46287526,-0.38164802)" /><linearGradient
       inkscape:collect="always"
       xlink:href="#metal"
       id="linearGradient3131"
       x1="26.258608"
       y1="28.435043"
       x2="36.37048"
       y2="28.435043"
       gradientUnits="userSpaceOnUse" /></defs><g
     inkscape:label="Layer 1"
     inkscape:groupmode="layer"
     id="layer1"><rect
       style="display:inline;fill:url(#linearGradient18928);fill-opacity:1;stroke:none;stroke-width:0;paint-order:markers stroke fill;stop-color:#000000"
       id="rect18922"
       width="18.361496"
       height="5.4139929"
       x="9.6525459"
       y="40.610649"
       transform="rotate(-15)" /><path
       style="fill:#262626;fill-opacity:1;stroke:none;stroke-width:0.264583px;stroke-linecap:butt;stroke-linejoin:miter;stroke-opacity:1"
       d="m 35.455354,38.06813 c 0,0 2.466293,-0.0515 3.640995,-0.382071 0.904911,-0.25465 2.546641,-1.211614 2.546641,-1.211614 l 1.498976,-6.247414 -5.167329,0.522296 -0.760507,0.592159 -1.639703,0.687186 -1.45634,0.608605 2.672344,0.514763 c 0,0 1.071723,0.611474 1.303964,1.064157 0.325943,0.63533 -0.198252,1.826114 -0.198252,1.826114 z"
       id="path18930"
       sodipodi:nodetypes="cscccccccscc" /><path
       style="fill:#252525;fill-opacity:1;stroke:none;stroke-width:0.264583px;stroke-linecap:butt;stroke-linejoin:miter;stroke-opacity:1"
       d="m 21.877917,36.129682 -2.552808,0.419923 -3.723621,0.672843 -4.91047,1.543428 -4.4535086,2.284828 1.0282759,3.723048 6.3907707,-0.446543 3.289634,-0.870577 5.123538,-1.498991 1.423778,-0.42931 z"
       id="path17952"
       sodipodi:nodetypes="ccccccccccc" /><path
       style="fill:url(#linearGradient3131);fill-opacity:1.0;stroke:none;stroke-width:0.264583px;stroke-linecap:butt;stroke-linejoin:miter;stroke-opacity:1"
       d="m 27.997771,28.685146 -0.699537,-0.743675 -1.039626,0.390334 0.986897,2.679848 c 0,0 2.730121,-0.560254 4.199755,-0.616084 1.60264,-0.06088 4.925219,0.326358 4.925219,0.326358 l -0.342662,-4.863491 -3.68328,1.094202 c 0,0 -2.550161,0.590689 -3.688056,1.205479 -0.247399,0.133667 -0.65871,0.527029 -0.65871,0.527029 z"
       id="path16857"
       sodipodi:nodetypes="ccccscccsc" /><path
       style="fill:url(#linearGradient11103);stroke:none;stroke-width:0.264583px;stroke-linecap:butt;stroke-linejoin:miter;stroke-opacity:1;fill-opacity:1"
       d="m 20.838301,44.243585 3.851901,2.175719 2.570342,-2.086944 0.667962,-2.583823 -3.356596,0.704205 -4.281083,-0.258273 z"
       id="path11085" /><path
       style="fill:url(#linearGradient8061);fill-opacity:1;stroke:none;stroke-width:0.264583px;stroke-linecap:butt;stroke-linejoin:miter;stroke-opacity:1"
       d="m 29.765442,41.018235 c 0,0 0.03319,1.588531 0.307369,2.318223 0.269111,0.716196 1.271339,1.910998 1.271339,1.910998 l -2.445703,0.652328 -1.428122,-1.863553 0.504531,-1.974234 z"
       id="path8055"
       sodipodi:nodetypes="csccccc" /><path
       style="fill:#282828;stroke:none;stroke-width:0.264583px;stroke-linecap:butt;stroke-linejoin:miter;stroke-opacity:1;fill-opacity:1"
       d="m 53.561366,29.340016 5.839753,-0.837081 0.202592,0.616715 -5.584526,2.288942 z"
       id="path5240" /><path
       style="fill:#3a3a3a;stroke:none;stroke-width:0.264583px;stroke-linecap:butt;stroke-linejoin:miter;stroke-opacity:1;fill-opacity:0.98039216"
       d="m 52.359504,28.005764 -1.318313,-0.802113 -6.80938,1.756772 -0.343969,7.924755 9.142092,-2.462532 0.607827,-0.853763 z"
       id="path443" /><rect
       style="fill:#2d2d2d;fill-opacity:1;stroke:#d6dbd7;stroke-width:0;paint-order:markers stroke fill;stop-color:#000000"
       id="rect1256"
       width="0.56920069"
       height="7.4372296"
       x="35.217411"
       y="39.595211"
       transform="rotate(-15.038059)" /><path
       style="fill:url(#linearGradient5224);stroke:none;stroke-width:0.264583px;stroke-linecap:butt;stroke-linejoin:miter;stroke-opacity:1;fill-opacity:1"
       d="m 33.648345,45.04537 0.327906,-1.538705 -0.118226,-0.760818 -1.313318,-1.721987 3.180747,-0.893657 4.382564,-2.008971 1.471781,-1.867072 0.32307,-5.600483 0.159993,-4.41409 3.037166,0.24223 0.209264,10.930631 -0.682352,2.913637 c 0,0 -0.903828,2.434812 -1.019112,2.476354 -0.115282,0.04154 -6.055434,1.85003 -6.055434,1.85003 z"
       id="path441" /><rect
       style="fill:#2d2d2d;fill-opacity:1;stroke:#d6dbd7;stroke-width:0;paint-order:markers stroke fill;stop-color:#000000"
       id="rect549"
       width="0.60403508"
       height="7.4568157"
       x="36.52314"
       y="39.57288"
       transform="rotate(-15.038059)" /><rect
       style="fill:#2d2d2d;fill-opacity:1;stroke:#d6dbd7;stroke-width:0;paint-order:markers stroke fill;stop-color:#000000"
       id="rect1258"
       width="0.59578812"
       height="7.4125538"
       x="38.053333"
       y="39.6054"
       transform="rotate(-15.038059)" /><rect
       style="fill:#2d2d2d;fill-opacity:1;stroke:#d6dbd7;stroke-width:0;paint-order:markers stroke fill;stop-color:#000000"
       id="rect1260"
       width="0.61171943"
       height="7.4179196"
       x="40.878681"
       y="39.584282"
       transform="rotate(-15.038059)" /><path
       id="rect1262"
       style="fill:#2d2d2d;fill-opacity:1;stroke:#d6dbd7;stroke-width:0;paint-order:markers stroke fill;stop-color:#000000"
       d="M 42.39033 39.678268 L 42.390411 46.913765 L 42.945205 46.456026 L 42.945253 40.259707 L 42.39033 39.678268 z "
       transform="rotate(-15.038059)" /><path
       style="fill:url(#linearGradient1964);stroke:none;stroke-width:0.264583px;stroke-linecap:butt;stroke-linejoin:miter;stroke-opacity:1;fill-opacity:1"
       d="m 51.443109,43.286425 -1.182315,-4.445328 0.863712,-0.795935 -0.785374,-2.374733 -0.552254,-0.274233 -2.105001,-7.272406 0.327697,-0.750853 -0.561676,-2.46901 -0.775089,-0.146896 -1.375,-4.267658 2.547408,-0.755566 1.060569,4.177017 -0.740648,0.832561 0.581126,2.119025 0.984861,1.042794 1.847244,6.786325 -0.385575,1.00739 0.646401,2.273988 0.972162,0.06344 1.249669,4.544552 z"
       id="path1264" /><path
       style="fill:url(#linearGradient5238);fill-opacity:1;stroke:none;stroke-width:0.264583px;stroke-linecap:butt;stroke-linejoin:miter;stroke-opacity:1"
       d="m 52.075942,27.746108 1.380887,0.505645 c 0,0 0.516789,1.225116 0.673983,1.868202 0.166932,0.682924 0.280184,2.090396 0.280184,2.090396 l -0.856209,1.368198 z"
       id="path5226"
       sodipodi:nodetypes="ccsccc" /><path
       style="fill:url(#linearGradient5938);fill-opacity:1;stroke:none;stroke-width:0.264583px;stroke-linecap:butt;stroke-linejoin:miter;stroke-opacity:1"
       d="m 59.413294,28.492461 1.102372,-0.0098 -0.931822,0.615439 z"
       id="path5311" /><path
       id="path7498"
       style="fill:#3e3e3e;fill-opacity:1;stroke:none;stroke-width:0;paint-order:markers stroke fill;stop-color:#000000"
       d="M 30.417782 40.099361 A 3.5693026 3.5693026 0 0 0 26.84849 43.668652 A 3.5693026 3.5693026 0 0 0 30.417782 47.237944 A 3.5693026 3.5693026 0 0 0 33.987073 43.668652 A 3.5693026 3.5693026 0 0 0 30.417782 40.099361 z M 30.417782 40.981478 A 2.6872549 2.6872549 0 0 1 33.104956 43.668652 A 2.6872549 2.6872549 0 0 1 30.417782 46.356344 A 2.6872549 2.6872549 0 0 1 27.730607 43.668652 A 2.6872549 2.6872549 0 0 1 30.417782 40.981478 z " /><path
       style="fill:url(#linearGradient10038);stroke:none;stroke-width:0.264583px;stroke-linecap:butt;stroke-linejoin:miter;stroke-opacity:1;fill-opacity:1"
       d="m 31.783194,52.804377 -2.610019,-7.475995 c 0,0 -0.648197,-0.921376 -1.140918,-1.131271 -0.527158,-0.224564 -1.165287,-0.191038 -1.718483,-0.04171 -0.583074,0.157393 -1.197898,0.453912 -1.54314,0.949449 -0.321673,0.461708 -0.331734,1.655228 -0.331734,1.655228 l 0.202548,6.200474 c 0,0 2.050202,0.611469 3.105451,0.615018 1.369762,0.0046 4.036295,-0.771193 4.036295,-0.771193 z"
       id="path8793"
       sodipodi:nodetypes="ccsssccsc" /><circle
       style="fill:url(#linearGradient9894);fill-opacity:1;stroke:none;stroke-width:0;paint-order:markers stroke fill;stop-color:#000000"
       id="path8847"
       cx="26.649885"
       cy="46.146904"
       r="0.91461664" /><rect
       style="fill:url(#linearGradient11091);fill-opacity:1;stroke:none;stroke-width:0;paint-order:markers stroke fill;stop-color:#000000"
       id="rect10874"
       width="2.5528011"
       height="5.1800508"
       x="6.0413485"
       y="43.185986"
       transform="rotate(-15.293559)" /><rect
       style="fill:url(#linearGradient11097);fill-opacity:1.0;stroke:none;stroke-width:0;paint-order:markers stroke fill;stop-color:#000000"
       id="rect11083"
       width="2.5528011"
       height="5.1800508"
       x="6.0209475"
       y="37.945583"
       transform="rotate(-15.293559)" /><circle
       style="display:inline;fill:#ba7300;fill-opacity:1;stroke:none;stroke-width:0;paint-order:markers stroke fill;stop-color:#000000"
       id="circle12619"
       cx="38.889839"
       cy="27.679716"
       r="4.7108192" /><circle
       style="display:inline;fill:#c6cbc7;fill-opacity:1;stroke:none;stroke-width:0;paint-order:markers stroke fill;stop-color:#000000"
       id="path12617"
       cx="38.814842"
       cy="27.808245"
       r="3.7183602" /><path
       id="path14930"
       style="fill:#9fa59d;fill-opacity:1;stroke:none;stroke-width:0;paint-order:markers stroke fill;stop-color:#000000"
       d="m 38.795138,25.924014 a 1.859087,1.859087 0 0 0 -1.858801,1.859318 1.859087,1.859087 0 0 0 1.858801,1.858801 1.859087,1.859087 0 0 0 1.859318,-1.858801 1.859087,1.859087 0 0 0 -1.859318,-1.859318 z m 0,0.189135 a 1.6699632,1.6699632 0 0 1 1.670182,1.670183 1.6699632,1.6699632 0 0 1 -1.670182,1.669665 1.6699632,1.6699632 0 0 1 -1.669666,-1.669665 1.6699632,1.6699632 0 0 1 1.669666,-1.670183 z" /><path
       style="fill:url(#linearGradient14146);stroke:none;stroke-width:0.264583px;stroke-linecap:butt;stroke-linejoin:miter;stroke-opacity:1;fill-opacity:1"
       d="m 38.273974,27.013225 1.196149,0.547502 -1.478296,2.026002 z"
       id="path12760" /><rect
       style="fill:#9fa59d;fill-opacity:1;stroke:none;stroke-width:0;paint-order:markers stroke fill;stop-color:#000000"
       id="rect15944"
       width="0.79944563"
       height="0.27650902"
       x="35.211933"
       y="28.315626" /><rect
       style="fill:#9fa59d;fill-opacity:1;stroke:none;stroke-width:0;paint-order:markers stroke fill;stop-color:#000000"
       id="rect15946"
       width="0.66678619"
       height="0.26619366"
       x="43.502346"
       y="7.0746679"
       transform="rotate(26.733193)" /><rect
       style="fill:#9fa59d;fill-opacity:1;stroke:none;stroke-width:0;paint-order:markers stroke fill;stop-color:#000000"
       id="rect15948"
       width="0.66678619"
       height="0.26619366"
       x="36.002316"
       y="-27.170578"
       transform="rotate(69.348683)" /><rect
       style="fill:#9fa59d;fill-opacity:1;stroke:none;stroke-width:0;paint-order:markers stroke fill;stop-color:#000000"
       id="rect15950"
       width="0.66678619"
       height="0.26619366"
       x="-8.5778885"
       y="-47.003872"
       transform="rotate(131.316)" /><rect
       style="fill:#9fa59d;fill-opacity:1;stroke:none;stroke-width:0;paint-order:markers stroke fill;stop-color:#000000"
       id="rect15952"
       width="0.66678619"
       height="0.26619366"
       x="-36.050716"
       y="-35.143204"
       transform="rotate(168.11106)" /><rect
       style="fill:#9fa59d;fill-opacity:1;stroke:none;stroke-width:0;paint-order:markers stroke fill;stop-color:#000000"
       id="rect15954"
       width="0.66678619"
       height="0.26619366"
       x="-49.232716"
       y="-15.466312"
       transform="rotate(-162.33679)" /><rect
       style="fill:#9fa59d;fill-opacity:1;stroke:none;stroke-width:0;paint-order:markers stroke fill;stop-color:#000000"
       id="rect15956"
       width="0.66678619"
       height="0.26619366"
       x="-33.534134"
       y="37.605541"
       transform="rotate(-93.256189)" /><rect
       style="fill:#9fa59d;fill-opacity:1;stroke:none;stroke-width:0;paint-order:markers stroke fill;stop-color:#000000"
       id="rect15958"
       width="0.66678619"
       height="0.26619366"
       x="0.68585891"
       y="47.977383"
       transform="rotate(-49.175449)" /><circle
       style="fill:url(#linearGradient17055);fill-opacity:1;stroke:none;stroke-width:0;paint-order:markers stroke fill;stop-color:#000000"
       id="path17049"
       cx="31.06382"
       cy="25.932417"
       r="1.466032" /><rect
       style="fill:url(#linearGradient17845);fill-opacity:1;stroke:none;stroke-width:0;paint-order:markers stroke fill;stop-color:#000000"
       id="rect17839"
       width="3.0238497"
       height="1.1367894"
       x="8.4921074"
       y="38.776588"
       transform="rotate(-39.13165)" /><path
       style="display:inline;fill:url(#linearGradient17853);fill-opacity:1;stroke:none;stroke-width:0.264583px;stroke-linecap:butt;stroke-linejoin:miter;stroke-opacity:1"
       d="m 29.92556,26.024058 -1.426152,0.94522 c 0,0 -2.202545,-0.164067 -3.28845,-0.04332 -1.419162,0.157809 -2.849127,0.362028 -4.112104,1.028222 -1.849975,0.975824 -3.567832,2.195301 -4.801937,4.038954 -0.566757,0.84669 -1.264493,3.00313 -1.264493,3.00313 l -0.888516,0.610132 c 0,0 0.120543,0.98574 -0.01144,1.452215 -0.128943,0.455734 -0.587091,0.813061 -1.031287,0.977406 -0.372022,0.137642 -0.827342,0.104687 -1.188526,-0.0593 C 11.58147,37.82635 11.154424,37.192032 11.154424,37.192032 L 9.3863876,38.469387 8.5787068,37.465613 11.37628,35.812632 c 0,0 0.578608,-1.029272 0.865988,-1.558622 1.045644,-1.926062 2.226942,-3.778598 3.922251,-5.167486 1.698254,-1.391301 3.698985,-2.426133 5.746774,-3.217554 2.037994,-0.787635 6.37168,-1.263007 6.37168,-1.263007 l 3.314867,-0.226054 z"
       id="path17847"
       sodipodi:nodetypes="ccsssccsssccccsssccc" /><circle
       style="fill:url(#linearGradient17861);fill-opacity:1;stroke:none;stroke-width:0;paint-order:markers stroke fill;stop-color:#000000"
       id="path17855"
       cx="12.624321"
       cy="36.831665"
       r="0.47101846" /><path
       id="rect17954"
       style="display:inline;fill:url(#linearGradient17960);fill-opacity:1;stroke:none;stroke-width:0;paint-order:markers stroke fill;stop-color:#000000"
       d="m -0.37581766,40.208596 -0.0844745,0.002 -0.80537354,0.157841 7.49e-5,5.554294 0.89005896,0.190309 z m -1.65076664,0.308991 -0.8902352,0.174261 4.527e-4,4.877328 0.8899159,0.190805 z m -1.6579711,0.324661 -0.8897386,0.174404 -8.68e-5,4.197947 0.8900589,0.190309 z"
       transform="rotate(-16.073496)" /></g></svg>
