<?xml version="1.0" encoding="UTF-8" standalone="no"?>
<!-- Created with Inkscape (http://www.inkscape.org/) -->

<svg
   width="256"
   height="256"
   viewBox="0 0 67.733332 67.733333"
   version="1.1"
   id="svg5"
   xml:space="preserve"
   inkscape:version="1.2.2 (b0a8486541, 2022-12-01)"
   sodipodi:docname="s3custom_pastel_splat_charger_2d.svg"
   xmlns:inkscape="http://www.inkscape.org/namespaces/inkscape"
   xmlns:sodipodi="http://sodipodi.sourceforge.net/DTD/sodipodi-0.dtd"
   xmlns:xlink="http://www.w3.org/1999/xlink"
   xmlns="http://www.w3.org/2000/svg"
   xmlns:svg="http://www.w3.org/2000/svg"><sodipodi:namedview
     id="namedview7"
     pagecolor="#505050"
     bordercolor="#eeeeee"
     borderopacity="1"
     inkscape:showpageshadow="0"
     inkscape:pageopacity="0"
     inkscape:pagecheckerboard="0"
     inkscape:deskcolor="#505050"
     inkscape:document-units="mm"
     showgrid="false"
     inkscape:zoom="1.4142136"
     inkscape:cx="1.4142136"
     inkscape:cy="-31.112698"
     inkscape:window-width="1906"
     inkscape:window-height="1026"
     inkscape:window-x="5"
     inkscape:window-y="25"
     inkscape:window-maximized="1"
     inkscape:current-layer="layer1" /><defs
     id="defs2"><linearGradient
       id="linearGradient13650"
       inkscape:swatch="solid"><stop
         style="stop-color:#808080;stop-opacity:1;"
         offset="0"
         id="stop13648" /></linearGradient><linearGradient
       id="linearGradient13644"
       inkscape:swatch="solid"><stop
         style="stop-color:#272727;stop-opacity:1;"
         offset="0"
         id="stop13642" /></linearGradient><linearGradient
       id="med_gray"
       inkscape:swatch="solid"><stop
         style="stop-color:#ff7f7f;stop-opacity:1;"
         offset="0"
         id="stop3312" /></linearGradient><linearGradient
       id="light_gray"
       inkscape:swatch="solid"><stop
         style="stop-color:#ff9e9e;stop-opacity:1;"
         offset="0"
         id="stop3306" /></linearGradient><linearGradient
       id="linearGradient3302"
       inkscape:swatch="solid"><stop
         style="stop-color:#272727;stop-opacity:1;"
         offset="0"
         id="stop3300" /></linearGradient><linearGradient
       id="cap"
       inkscape:swatch="solid"><stop
         style="stop-color:#9bf6ff;stop-opacity:1;"
         offset="0"
         id="stop2505" /></linearGradient><linearGradient
       id="gray"
       inkscape:swatch="solid"><stop
         style="stop-color:#ffb7b7;stop-opacity:1;"
         offset="0"
         id="stop2499" /></linearGradient><linearGradient
       id="linearGradient2495"
       inkscape:swatch="solid"><stop
         style="stop-color:#3d51c8;stop-opacity:1;"
         offset="0"
         id="stop2493" /></linearGradient><linearGradient
       id="linearGradient2489"
       inkscape:swatch="solid"><stop
         style="stop-color:#3d51c8;stop-opacity:1;"
         offset="0"
         id="stop2487" /></linearGradient><linearGradient
       id="linearGradient2483"
       inkscape:swatch="solid"><stop
         style="stop-color:#3d51c8;stop-opacity:1;"
         offset="0"
         id="stop2481" /></linearGradient><linearGradient
       id="secondary_light"
       inkscape:swatch="solid"><stop
         style="stop-color:#9bf6ff;stop-opacity:1;"
         offset="0"
         id="stop2475" /></linearGradient><linearGradient
       id="secondary"
       inkscape:swatch="solid"><stop
         style="stop-color:#a0c4ff;stop-opacity:1;"
         offset="0"
         id="stop1017" /></linearGradient><linearGradient
       id="linearGradient1013"
       inkscape:swatch="solid"><stop
         style="stop-color:#c19700;stop-opacity:1;"
         offset="0"
         id="stop1011" /></linearGradient><linearGradient
       id="linearGradient1007"
       inkscape:swatch="solid"><stop
         style="stop-color:#cb9f00;stop-opacity:1;"
         offset="0"
         id="stop1005" /></linearGradient><linearGradient
       id="linearGradient1001"
       inkscape:swatch="solid"><stop
         style="stop-color:#c19700;stop-opacity:1;"
         offset="0"
         id="stop999" /></linearGradient><linearGradient
       id="linearGradient995"
       inkscape:swatch="solid"><stop
         style="stop-color:#c19700;stop-opacity:1;"
         offset="0"
         id="stop993" /></linearGradient><linearGradient
       id="linearGradient989"
       inkscape:swatch="solid"><stop
         style="stop-color:#c19700;stop-opacity:1;"
         offset="0"
         id="stop987" /></linearGradient><linearGradient
       id="primary"
       inkscape:swatch="solid"><stop
         style="stop-color:#ffd6a5;stop-opacity:1;"
         offset="0"
         id="stop981" /></linearGradient><inkscape:path-effect
       effect="mirror_symmetry"
       start_point="66.110788,19.867761"
       end_point="66.110788,22.963231"
       center_point="66.110788,21.415496"
       id="path-effect59261"
       is_visible="true"
       lpeversion="1.2"
       lpesatellites=""
       mode="free"
       discard_orig_path="false"
       fuse_paths="true"
       oposite_fuse="true"
       split_items="false"
       split_open="false"
       link_styles="false" /><linearGradient
       inkscape:collect="always"
       xlink:href="#primary"
       id="linearGradient985"
       x1="28.267268"
       y1="28.187869"
       x2="49.921217"
       y2="28.187869"
       gradientUnits="userSpaceOnUse" /><linearGradient
       inkscape:collect="always"
       xlink:href="#primary"
       id="linearGradient991"
       x1="59.890717"
       y1="20.467299"
       x2="63.702652"
       y2="20.467299"
       gradientUnits="userSpaceOnUse" /><linearGradient
       inkscape:collect="always"
       xlink:href="#primary"
       id="linearGradient997"
       x1="53.730988"
       y1="36.400047"
       x2="57.581036"
       y2="36.400047"
       gradientUnits="userSpaceOnUse" /><linearGradient
       inkscape:collect="always"
       xlink:href="#primary"
       id="linearGradient1003"
       x1="64.689949"
       y1="21.323292"
       x2="67.531631"
       y2="21.323292"
       gradientUnits="userSpaceOnUse" /><linearGradient
       inkscape:collect="always"
       xlink:href="#primary"
       id="linearGradient1009"
       x1="24.34882"
       y1="39.228065"
       x2="26.507765"
       y2="39.228065"
       gradientUnits="userSpaceOnUse" /><linearGradient
       inkscape:collect="always"
       xlink:href="#primary"
       id="linearGradient1015"
       x1="0.46736342"
       y1="43.638729"
       x2="8.0380888"
       y2="43.638729"
       gradientUnits="userSpaceOnUse" /><linearGradient
       inkscape:collect="always"
       xlink:href="#secondary"
       id="linearGradient1021"
       x1="11.106129"
       y1="36.226149"
       x2="49.701743"
       y2="36.226149"
       gradientUnits="userSpaceOnUse" /><linearGradient
       inkscape:collect="always"
       xlink:href="#secondary_light"
       id="linearGradient2479"
       x1="41.547588"
       y1="24.921044"
       x2="42.346072"
       y2="24.921044"
       gradientUnits="userSpaceOnUse" /><linearGradient
       inkscape:collect="always"
       xlink:href="#secondary_light"
       id="linearGradient2485"
       x1="41.626896"
       y1="26.764805"
       x2="42.425381"
       y2="26.764805"
       gradientUnits="userSpaceOnUse" /><linearGradient
       inkscape:collect="always"
       xlink:href="#secondary_light"
       id="linearGradient2491"
       x1="43.464466"
       y1="25.911217"
       x2="44.262951"
       y2="25.911217"
       gradientUnits="userSpaceOnUse" /><linearGradient
       inkscape:collect="always"
       xlink:href="#secondary_light"
       id="linearGradient2497"
       x1="45.14817"
       y1="25.100082"
       x2="45.946655"
       y2="25.100082"
       gradientUnits="userSpaceOnUse" /><linearGradient
       inkscape:collect="always"
       xlink:href="#gray"
       id="linearGradient2503"
       x1="22.056147"
       y1="38.339444"
       x2="52.274492"
       y2="38.339444"
       gradientUnits="userSpaceOnUse" /><linearGradient
       inkscape:collect="always"
       xlink:href="#cap"
       id="linearGradient2509"
       x1="7.8311539"
       y1="36.539574"
       x2="11.476097"
       y2="36.539574"
       gradientUnits="userSpaceOnUse" /><linearGradient
       inkscape:collect="always"
       xlink:href="#gray"
       id="linearGradient3304"
       x1="49.033928"
       y1="29.30611"
       x2="50.250046"
       y2="29.30611"
       gradientUnits="userSpaceOnUse" /><linearGradient
       inkscape:collect="always"
       xlink:href="#light_gray"
       id="linearGradient3310"
       x1="22.415457"
       y1="37.789569"
       x2="25.049156"
       y2="37.789569"
       gradientUnits="userSpaceOnUse" /><linearGradient
       inkscape:collect="always"
       xlink:href="#med_gray"
       id="linearGradient3316"
       x1="26.933318"
       y1="32.307082"
       x2="28.725227"
       y2="32.307082"
       gradientUnits="userSpaceOnUse" /><linearGradient
       inkscape:collect="always"
       xlink:href="#gray"
       id="linearGradient13646"
       x1="52.371578"
       y1="37.776634"
       x2="52.912289"
       y2="37.776634"
       gradientUnits="userSpaceOnUse" /><linearGradient
       inkscape:collect="always"
       xlink:href="#light_gray"
       id="linearGradient13652"
       x1="-2.4655352"
       y1="41.330276"
       x2="1.9343758"
       y2="41.330276"
       gradientUnits="userSpaceOnUse" /></defs><g
     inkscape:label="Layer 1"
     inkscape:groupmode="layer"
     id="layer1"><path
       style="fill:url(#linearGradient3316);fill-opacity:1;stroke:none;stroke-width:0.264583px;stroke-linecap:butt;stroke-linejoin:miter;stroke-opacity:1"
       d="m 26.933318,30.707406 1.403771,0.121168 0.388138,2.871809 -1.412695,0.206376 z"
       id="path876"
       sodipodi:nodetypes="ccccc" /><rect
       style="fill:#caffbf;fill-opacity:1;stroke-width:0.0649999;paint-order:markers stroke fill;stop-color:#000000"
       id="rect300"
       width="17.328547"
       height="5.0421076"
       x="0.51027566"
       y="35.641113"
       ry="2.0417287"
       transform="rotate(-15.668154)" /><rect
       style="fill:url(#linearGradient2503);fill-opacity:1;stroke:none;stroke-width:0.0649999;paint-order:markers stroke fill;stop-color:#000000"
       id="rect37270"
       width="30.218346"
       height="2.1507046"
       x="22.056147"
       y="37.264091"
       ry="0"
       transform="rotate(-14.137769)" /><rect
       style="fill:url(#linearGradient3310);fill-opacity:1;stroke:none;stroke-width:0.0649999;paint-order:markers stroke fill;stop-color:#000000"
       id="rect63651"
       width="2.6336992"
       height="1.1113043"
       x="22.415457"
       y="37.233917"
       transform="rotate(-11.406094)" /><path
       style="fill:url(#linearGradient985);fill-opacity:1;stroke:none;stroke-width:0.264583px;stroke-linecap:butt;stroke-linejoin:miter;stroke-opacity:1"
       d="m 28.580289,33.70645 -0.313021,-2.826628 0.783095,-0.165547 0.214629,0.166756 0.452789,-0.02452 0.03095,-0.407451 1.078848,-0.08194 0.08392,0.193282 0.367768,-0.07045 0.205045,-0.626942 0.863302,-0.0055 0.116104,0.226735 0.491621,-0.06673 0.108932,-0.387585 0.923588,-0.298383 0.241926,0.298453 0.293553,-0.0366 0.165806,-0.396861 0.950694,-0.179273 0.197467,0.332591 0.262565,-0.142645 0.377104,-0.694823 0.900773,-0.02812 0.04306,0.905922 3.159578,0.0357 c 0,0 2.008459,-0.294137 2.633675,-0.993807 0.513955,-0.57516 0.569246,-2.242897 0.569246,-2.242897 l 3.636801,-0.965852 c 0,0 0.302874,-0.407619 0.370679,-0.646636 0.143057,-0.504287 0.05083,-1.571735 0.05083,-1.571735 l 0.412578,-0.303785 0.462446,-0.03189 1.124405,3.518539 c 0,0 0.166282,0.85538 0.0199,1.243079 -0.08259,0.218746 -0.471969,0.518927 -0.471969,0.518927 l -6.214255,1.781974 -3.708501,1.030957 -3.154278,0.02805 -5.92505,1.575303 -0.368726,1.046263 z"
       id="path17532"
       sodipodi:nodetypes="cccccccccccccccccccccccccsccsccccsccccccc" /><rect
       style="fill:url(#linearGradient13646);fill-opacity:1.0;stroke:none;stroke-width:0.0649999;paint-order:markers stroke fill;stop-color:#000000"
       id="rect45500"
       width="0.5407095"
       height="2.9334335"
       x="52.371578"
       y="36.309917"
       transform="rotate(-13.688439)" /><rect
       style="fill:url(#linearGradient997);fill-opacity:1.0;stroke:none;stroke-width:0.0649999;paint-order:markers stroke fill;stop-color:#000000"
       id="rect55676"
       width="3.8500478"
       height="3.5456171"
       x="53.730988"
       y="34.627239"
       transform="rotate(-12.380522)" /><path
       style="fill:url(#linearGradient1003);stroke:none;stroke-width:0.264583px;stroke-linecap:butt;stroke-linejoin:miter;stroke-opacity:1;fill-opacity:1.0"
       d="m 66.110788,19.934887 0.877103,6.48e-4 0.543739,0.991823 -0.06066,1.784338 h -1.360179 -1.360179 l -0.06066,-1.784338 0.543739,-0.991823 z"
       id="path58533"
       inkscape:path-effect="#path-effect59261"
       inkscape:original-d="m 66.058047,19.934848 0.929844,6.87e-4 0.543739,0.991823 -0.06066,1.784338 h -1.43266"
       class="UnoptimicedTransforms"
       transform="rotate(77.88019,64.367518,21.263413)"
       sodipodi:nodetypes="ccccc" /><path
       id="path61456"
       style="fill:url(#linearGradient991);fill-opacity:1.0;stroke:none;stroke-width:0.667333px;stroke-linecap:butt;stroke-linejoin:miter;stroke-opacity:1"
       d="m 62.111957,18.310676 -2.221239,3.995162 2.443659,0.401912 1.368275,-1.11382 -1.022537,-3.367082 z m 0.0117,1.287688 0.506253,1.554109 -1.581662,0.384953 z"
       sodipodi:nodetypes="cccccccccc" /><path
       style="fill:url(#linearGradient1009);fill-opacity:1.0;stroke:none;stroke-width:0.264583px;stroke-linecap:butt;stroke-linejoin:miter;stroke-opacity:1"
       d="m 24.34882,39.046405 1.302334,1.158664 c 0,0 0.477775,0.141937 0.646816,0.05542 0.223039,-0.114156 0.20964,-0.547192 0.20964,-0.547192 0,0 -0.282476,-0.371441 -0.423713,-0.557161 -0.232336,-0.30551 -0.08368,-0.772283 -0.08368,-0.772283 l -0.682996,-0.216164 -0.282086,0.151832 z"
       id="path68059"
       sodipodi:nodetypes="ccscscccc" /><rect
       style="fill:url(#linearGradient13652);fill-opacity:1.0;stroke:none;stroke-width:0.0649999;paint-order:markers stroke fill;stop-color:#000000"
       id="rect69374"
       width="4.3999109"
       height="1.3849646"
       x="-2.4655352"
       y="40.637794"
       transform="rotate(-13.733081)" /><path
       style="fill:url(#linearGradient3304);stroke:none;stroke-width:0.264583px;stroke-linecap:butt;stroke-linejoin:miter;stroke-opacity:1;fill-opacity:1.0"
       d="m 49.033929,30.014079 1.048645,-0.488482 0.167473,-0.927454 -1.180264,0.333459 z"
       id="path72743" /><path
       style="fill:url(#linearGradient1021);fill-opacity:1;stroke:none;stroke-width:0.264583px;stroke-linecap:butt;stroke-linejoin:miter;stroke-opacity:1"
       d="m 20.717165,42.071287 c 0,0 0.564036,-1.118997 0.620717,-1.798075 0.05089,-0.609687 -0.119711,-1.237121 -0.573755,-1.594515 -0.484055,-0.381018 -1.977531,0.666455 -1.977531,0.666455 l -2.03676,2.512217 c 0,0 -0.077,0.183168 -0.327016,0.208602 -0.238781,0.02429 -0.351127,-0.148782 -0.351127,-0.148782 0,0 -1.379989,-0.828169 -2.093272,-0.997162 -0.857977,-0.203274 -2.411914,0.07452 -2.411914,0.07452 l -0.460378,-2.082774 15.15449,-4.055642 1.837485,-1.452001 21.603639,-5.357088 -0.608647,1.906572 -0.66234,0.814776 -2.998401,0.983057 -18.453102,6.09758 c 0,0 -1.075827,0.578039 -1.726202,1.136606 -0.541563,0.465115 -1.281998,1.441734 -1.281998,1.441734 0,0 -0.02956,0.297901 -0.104779,0.421664 -0.07394,0.121654 -0.32049,0.282287 -0.32049,0.282287 l -0.0492,0.467444 c 0,0 0.321622,0.04503 0.384803,0.170262 0.07223,0.143156 -0.104833,0.469469 -0.104833,0.469469 l -0.154101,0.202618 0.729098,1.328893 -0.04961,0.429107 -1.012793,0.206145 -2.109113,-0.76286 -0.638555,-0.421691 z"
       id="path66695"
       sodipodi:nodetypes="cssccscscccccccccscsccscccccccc" /><rect
       style="fill:url(#linearGradient2479);fill-opacity:1;stroke:none;stroke-width:0.0649999;paint-order:markers stroke fill;stop-color:#000000"
       id="rect66801"
       width="0.79848373"
       height="3.3043759"
       x="41.547588"
       y="23.268856"
       ry="0.54383892"
       transform="rotate(13.280499)" /><rect
       style="fill:url(#linearGradient2485);fill-opacity:1.0;stroke:none;stroke-width:0.0649999;paint-order:markers stroke fill;stop-color:#000000"
       id="rect67286"
       width="0.79848373"
       height="3.3043759"
       x="41.626896"
       y="25.112616"
       ry="0.54383892"
       transform="rotate(9.6801658)" /><rect
       style="fill:url(#linearGradient2491);fill-opacity:1.0;stroke:none;stroke-width:0.0649999;paint-order:markers stroke fill;stop-color:#000000"
       id="rect67288"
       width="0.79848373"
       height="3.3043759"
       x="43.464466"
       y="24.259029"
       ry="0.54383892"
       transform="rotate(9.6801658)" /><rect
       style="fill:url(#linearGradient2497);fill-opacity:1.0;stroke:none;stroke-width:0.0649999;paint-order:markers stroke fill;stop-color:#000000"
       id="rect67290"
       width="0.79848373"
       height="3.3043759"
       x="45.14817"
       y="23.447895"
       ry="0.54383892"
       transform="rotate(9.6801658)" /><path
       style="fill:url(#linearGradient1015);stroke:none;stroke-width:0.264583px;stroke-linecap:butt;stroke-linejoin:miter;stroke-opacity:1;fill-opacity:1.0"
       d="m 0.46736341,39.93607 2.30291529,8.391141 4.6845249,-1.09484 -0.2829282,-1.154652 c 0,0 -1.1129174,-0.112249 -1.5634917,-0.407244 C 5.0265853,45.289566 4.4441119,44.473259 4.1545211,43.714156 3.9918511,43.28775 4.0317541,42.350528 4.0317541,42.350528 l 4.0063343,-0.940406 -0.7203726,-1.754769 -3.4516197,1.06409 c 0,0 -0.1933231,-0.394685 -0.1637025,-0.599805 0.041331,-0.286213 0.4558687,-0.738119 0.4558687,-0.738119 L 4.0424708,38.950246 Z"
       id="path68111"
       sodipodi:nodetypes="ccccssccccsccc" /><path
       style="fill:url(#linearGradient2509);stroke:none;stroke-width:0.264583px;stroke-linecap:butt;stroke-linejoin:miter;stroke-opacity:1;fill-opacity:1.0"
       d="M 10.657488,34.955125 7.8311538,36.27484 8.2921199,38.124018 11.476097,37.98154 Z"
       id="path69537" /></g></svg>
