<?xml version="1.0" encoding="UTF-8" standalone="no"?>
<!-- Created with Inkscape (http://www.inkscape.org/) -->

<svg
   width="256"
   height="256"
   viewBox="0 0 67.733332 67.733333"
   version="1.1"
   id="svg5736"
   xml:space="preserve"
   inkscape:version="1.2.1 (9c6d41e410, 2022-07-14, custom)"
   sodipodi:docname="curlingbomb_rush.svg"
   inkscape:export-filename="curlingbomb_rush.png"
   inkscape:export-xdpi="96"
   inkscape:export-ydpi="96"
   xmlns:inkscape="http://www.inkscape.org/namespaces/inkscape"
   xmlns:sodipodi="http://sodipodi.sourceforge.net/DTD/sodipodi-0.dtd"
   xmlns:xlink="http://www.w3.org/1999/xlink"
   xmlns="http://www.w3.org/2000/svg"
   xmlns:svg="http://www.w3.org/2000/svg"><sodipodi:namedview
     id="namedview5738"
     pagecolor="#505050"
     bordercolor="#eeeeee"
     borderopacity="1"
     inkscape:showpageshadow="0"
     inkscape:pageopacity="0"
     inkscape:pagecheckerboard="0"
     inkscape:deskcolor="#505050"
     inkscape:document-units="mm"
     showgrid="false"
     inkscape:zoom="3.1459359"
     inkscape:cx="189.60971"
     inkscape:cy="143.20063"
     inkscape:window-width="1916"
     inkscape:window-height="1036"
     inkscape:window-x="0"
     inkscape:window-y="20"
     inkscape:window-maximized="1"
     inkscape:current-layer="layer1" /><defs
     id="defs5733"><linearGradient
       inkscape:collect="always"
       xlink:href="#ink"
       id="linearGradient20840"
       x1="46.159122"
       y1="277.7435"
       x2="48.552834"
       y2="277.7435"
       gradientUnits="userSpaceOnUse"
       gradientTransform="translate(-46.084237,-267.1471)" /><linearGradient
       id="ink"
       inkscape:swatch="solid"><stop
         style="stop-color:#3a0dcd;stop-opacity:1;"
         offset="0"
         id="stop53636" /></linearGradient><linearGradient
       inkscape:collect="always"
       xlink:href="#ink"
       id="linearGradient20856"
       gradientUnits="userSpaceOnUse"
       gradientTransform="matrix(3.64541,0,0,1,-164.59928,-267.1471)"
       x1="46.159122"
       y1="277.7435"
       x2="48.552834"
       y2="277.7435" /><linearGradient
       inkscape:collect="always"
       xlink:href="#ink"
       id="linearGradient5887"
       gradientUnits="userSpaceOnUse"
       gradientTransform="translate(-46.084237,-267.1471)"
       x1="46.159122"
       y1="277.7435"
       x2="48.552834"
       y2="277.7435" /><linearGradient
       inkscape:collect="always"
       xlink:href="#ink"
       id="linearGradient5907"
       gradientUnits="userSpaceOnUse"
       gradientTransform="translate(-46.084237,-267.1471)"
       x1="46.159122"
       y1="277.7435"
       x2="48.552834"
       y2="277.7435" /><linearGradient
       inkscape:collect="always"
       xlink:href="#ink"
       id="linearGradient5909"
       gradientUnits="userSpaceOnUse"
       gradientTransform="translate(-46.084237,-267.1471)"
       x1="46.159122"
       y1="277.7435"
       x2="48.552834"
       y2="277.7435" /><linearGradient
       inkscape:collect="always"
       xlink:href="#ink"
       id="linearGradient5911"
       gradientUnits="userSpaceOnUse"
       gradientTransform="matrix(3.64541,0,0,1,-164.59928,-267.1471)"
       x1="46.159122"
       y1="277.7435"
       x2="48.552834"
       y2="277.7435" /><linearGradient
       inkscape:collect="always"
       xlink:href="#ink"
       id="linearGradient5931"
       gradientUnits="userSpaceOnUse"
       gradientTransform="translate(-46.084237,-267.1471)"
       x1="46.159122"
       y1="277.7435"
       x2="48.552834"
       y2="277.7435" /><linearGradient
       inkscape:collect="always"
       xlink:href="#ink"
       id="linearGradient5933"
       gradientUnits="userSpaceOnUse"
       gradientTransform="translate(-46.084237,-267.1471)"
       x1="46.159122"
       y1="277.7435"
       x2="48.552834"
       y2="277.7435" /><linearGradient
       inkscape:collect="always"
       xlink:href="#ink"
       id="linearGradient5935"
       gradientUnits="userSpaceOnUse"
       gradientTransform="matrix(3.64541,0,0,1,-164.59928,-267.1471)"
       x1="46.159122"
       y1="277.7435"
       x2="48.552834"
       y2="277.7435" /></defs><g
     inkscape:label="Layer 1"
     inkscape:groupmode="layer"
     id="layer1"><g
       inkscape:label="Layer 1"
       id="layer1-3"
       transform="matrix(1.437293,0,0,1.437293,5.8362068,27.749324)"><rect
         style="fill:url(#linearGradient5887);fill-opacity:1;fill-rule:nonzero;stroke:none;stroke-width:0.1;stroke-dasharray:none;stroke-opacity:0;paint-order:stroke fill markers"
         id="rect20834"
         width="2.3937099"
         height="5.3120713"
         x="0.074885562"
         y="7.9403615" /><rect
         style="fill:url(#linearGradient20840);fill-opacity:1;fill-rule:nonzero;stroke:none;stroke-width:0.1;stroke-dasharray:none;stroke-opacity:0;paint-order:stroke fill markers"
         id="rect20842"
         width="2.3937099"
         height="5.3120713"
         x="0.074885562"
         y="7.9403615" /><rect
         style="fill:url(#ink);fill-opacity:1;fill-rule:nonzero;stroke:none;stroke-width:0.117865;stroke-dasharray:none;stroke-opacity:0;paint-order:stroke fill markers"
         id="rect20850"
         width="3.325402"
         height="5.3120713"
         x="13.52423"
         y="7.9403615" /><rect
         style="fill:url(#linearGradient20856);fill-opacity:1;fill-rule:nonzero;stroke:none;stroke-width:0.190929;stroke-dasharray:none;stroke-opacity:0;paint-order:stroke fill markers"
         id="rect20854"
         width="8.7260542"
         height="5.3120713"
         x="3.6696427"
         y="7.9403615" /><g
         id="g21695"
         transform="translate(-63.816428,-267.1471)"><path
           style="fill:#ffffff;fill-opacity:1;stroke:none;stroke-width:0.264583px;stroke-linecap:butt;stroke-linejoin:miter;stroke-opacity:1"
           d="m 65.63787,281.14577 -0.02532,0.43548 0.702098,0.85929 h 11.434165 l 0.796393,-0.74751 v -0.60997 z"
           id="path20858" /><path
           style="fill:#ffffff;fill-opacity:1;stroke:none;stroke-width:0.264583px;stroke-linecap:butt;stroke-linejoin:miter;stroke-opacity:1"
           d="m 71.057362,273.29537 c 0,0 -0.245786,-0.65746 -0.281115,-1.00282 -0.03165,-0.30937 -0.147779,-0.70364 0.06472,-0.9307 0.270024,-0.28852 0.86444,-0.28765 1.257782,-0.2497 0.532338,0.0514 0.972244,0.41914 1.435718,0.6063 0.692874,0.27979 1.47171,0.53034 2.206604,0.39511 0.34967,-0.0643 0.914223,-0.54944 0.914223,-0.54944 0,0 0.219724,-1.04736 0,-1.49442 -0.138925,-0.28266 -0.433692,-0.59617 -0.748081,-0.57721 -1.80507,0.10884 -4.339621,-0.32087 -5.688517,0 -0.445633,0.10601 -0.939369,0.33538 -1.159957,0.73684 -0.407145,0.74098 0.159937,1.7062 0,2.5364 -0.0465,0.24139 -0.273977,0.68469 -0.273977,0.68469 l 2.341552,0.014 z"
           id="path20860"
           sodipodi:nodetypes="cssssscsssssccc" /><path
           style="fill:#35bfc1;fill-opacity:1;stroke:none;stroke-width:0.217532px;stroke-linecap:butt;stroke-linejoin:miter;stroke-opacity:1"
           d="m 66.777752,274.50852 -0.02065,-0.36118 0.572209,-0.7127 h 9.318816 l 0.649059,0.61998 v 0.50591 z"
           id="path20862" /></g></g><g
       inkscape:label="Layer 1"
       id="g5905"
       transform="matrix(-1.437293,0,0,1.437293,61.099493,27.894954)"><rect
         style="fill:url(#linearGradient5907);fill-opacity:1;fill-rule:nonzero;stroke:none;stroke-width:0.1;stroke-dasharray:none;stroke-opacity:0;paint-order:stroke fill markers"
         id="rect5889"
         width="2.3937099"
         height="5.3120713"
         x="0.074885562"
         y="7.9403615" /><rect
         style="fill:url(#linearGradient5909);fill-opacity:1;fill-rule:nonzero;stroke:none;stroke-width:0.1;stroke-dasharray:none;stroke-opacity:0;paint-order:stroke fill markers"
         id="rect5891"
         width="2.3937099"
         height="5.3120713"
         x="0.074885562"
         y="7.9403615" /><rect
         style="fill:url(#ink);fill-opacity:1;fill-rule:nonzero;stroke:none;stroke-width:0.117865;stroke-dasharray:none;stroke-opacity:0;paint-order:stroke fill markers"
         id="rect5893"
         width="3.325402"
         height="5.3120713"
         x="13.52423"
         y="7.9403615" /><rect
         style="fill:url(#linearGradient5911);fill-opacity:1;fill-rule:nonzero;stroke:none;stroke-width:0.190929;stroke-dasharray:none;stroke-opacity:0;paint-order:stroke fill markers"
         id="rect5895"
         width="8.7260542"
         height="5.3120713"
         x="3.6696427"
         y="7.9403615" /><g
         id="g5903"
         transform="translate(-63.816428,-267.1471)"><path
           style="fill:#ffffff;fill-opacity:1;stroke:none;stroke-width:0.264583px;stroke-linecap:butt;stroke-linejoin:miter;stroke-opacity:1"
           d="m 65.63787,281.14577 -0.02532,0.43548 0.702098,0.85929 h 11.434165 l 0.796393,-0.74751 v -0.60997 z"
           id="path5897" /><path
           style="fill:#ffffff;fill-opacity:1;stroke:none;stroke-width:0.264583px;stroke-linecap:butt;stroke-linejoin:miter;stroke-opacity:1"
           d="m 71.057362,273.29537 c 0,0 -0.245786,-0.65746 -0.281115,-1.00282 -0.03165,-0.30937 -0.147779,-0.70364 0.06472,-0.9307 0.270024,-0.28852 0.86444,-0.28765 1.257782,-0.2497 0.532338,0.0514 0.972244,0.41914 1.435718,0.6063 0.692874,0.27979 1.47171,0.53034 2.206604,0.39511 0.34967,-0.0643 0.914223,-0.54944 0.914223,-0.54944 0,0 0.219724,-1.04736 0,-1.49442 -0.138925,-0.28266 -0.433692,-0.59617 -0.748081,-0.57721 -1.80507,0.10884 -4.339621,-0.32087 -5.688517,0 -0.445633,0.10601 -0.939369,0.33538 -1.159957,0.73684 -0.407145,0.74098 0.159937,1.7062 0,2.5364 -0.0465,0.24139 -0.273977,0.68469 -0.273977,0.68469 l 2.341552,0.014 z"
           id="path5899"
           sodipodi:nodetypes="cssssscsssssccc" /><path
           style="fill:#35bfc1;fill-opacity:1;stroke:none;stroke-width:0.217532px;stroke-linecap:butt;stroke-linejoin:miter;stroke-opacity:1"
           d="m 66.777752,274.50852 -0.02065,-0.36118 0.572209,-0.7127 h 9.318816 l 0.649059,0.61998 v 0.50591 z"
           id="path5901" /></g></g><g
       inkscape:label="Layer 1"
       id="g5929"
       transform="matrix(-1.437293,0,0,1.437293,45.230857,2.5935218)"><rect
         style="fill:url(#linearGradient5931);fill-opacity:1;fill-rule:nonzero;stroke:none;stroke-width:0.1;stroke-dasharray:none;stroke-opacity:0;paint-order:stroke fill markers"
         id="rect5913"
         width="2.3937099"
         height="5.3120713"
         x="0.074885562"
         y="7.9403615" /><rect
         style="fill:url(#linearGradient5933);fill-opacity:1;fill-rule:nonzero;stroke:none;stroke-width:0.1;stroke-dasharray:none;stroke-opacity:0;paint-order:stroke fill markers"
         id="rect5915"
         width="2.3937099"
         height="5.3120713"
         x="0.074885562"
         y="7.9403615" /><rect
         style="fill:url(#ink);fill-opacity:1;fill-rule:nonzero;stroke:none;stroke-width:0.117865;stroke-dasharray:none;stroke-opacity:0;paint-order:stroke fill markers"
         id="rect5917"
         width="3.325402"
         height="5.3120713"
         x="13.52423"
         y="7.9403615" /><rect
         style="fill:url(#linearGradient5935);fill-opacity:1;fill-rule:nonzero;stroke:none;stroke-width:0.190929;stroke-dasharray:none;stroke-opacity:0;paint-order:stroke fill markers"
         id="rect5919"
         width="8.7260542"
         height="5.3120713"
         x="3.6696427"
         y="7.9403615" /><g
         id="g5927"
         transform="translate(-63.816428,-267.1471)"><path
           style="fill:#ffffff;fill-opacity:1;stroke:none;stroke-width:0.264583px;stroke-linecap:butt;stroke-linejoin:miter;stroke-opacity:1"
           d="m 65.63787,281.14577 -0.02532,0.43548 0.702098,0.85929 h 11.434165 l 0.796393,-0.74751 v -0.60997 z"
           id="path5921" /><path
           style="fill:#ffffff;fill-opacity:1;stroke:none;stroke-width:0.264583px;stroke-linecap:butt;stroke-linejoin:miter;stroke-opacity:1"
           d="m 71.057362,273.29537 c 0,0 -0.245786,-0.65746 -0.281115,-1.00282 -0.03165,-0.30937 -0.147779,-0.70364 0.06472,-0.9307 0.270024,-0.28852 0.86444,-0.28765 1.257782,-0.2497 0.532338,0.0514 0.972244,0.41914 1.435718,0.6063 0.692874,0.27979 1.47171,0.53034 2.206604,0.39511 0.34967,-0.0643 0.914223,-0.54944 0.914223,-0.54944 0,0 0.219724,-1.04736 0,-1.49442 -0.138925,-0.28266 -0.433692,-0.59617 -0.748081,-0.57721 -1.80507,0.10884 -4.339621,-0.32087 -5.688517,0 -0.445633,0.10601 -0.939369,0.33538 -1.159957,0.73684 -0.407145,0.74098 0.159937,1.7062 0,2.5364 -0.0465,0.24139 -0.273977,0.68469 -0.273977,0.68469 l 2.341552,0.014 z"
           id="path5923"
           sodipodi:nodetypes="cssssscsssssccc" /><path
           style="fill:#35bfc1;fill-opacity:1;stroke:none;stroke-width:0.217532px;stroke-linecap:butt;stroke-linejoin:miter;stroke-opacity:1"
           d="m 66.777752,274.50852 -0.02065,-0.36118 0.572209,-0.7127 h 9.318816 l 0.649059,0.61998 v 0.50591 z"
           id="path5925" /></g></g></g></svg>
