<?xml version="1.0" encoding="UTF-8" standalone="no"?>
<!-- Created with Inkscape (http://www.inkscape.org/) -->

<svg
   width="256"
   height="256"
   viewBox="0 0 67.733332 67.733333"
   version="1.1"
   id="svg5"
   inkscape:version="1.2.2 (b0a8486541, 2022-12-01)"
   sodipodi:docname="sting_ray.svg"
   inkscape:export-filename="sting_ray.png"
   inkscape:export-xdpi="96"
   inkscape:export-ydpi="96"
   xmlns:inkscape="http://www.inkscape.org/namespaces/inkscape"
   xmlns:sodipodi="http://sodipodi.sourceforge.net/DTD/sodipodi-0.dtd"
   xmlns:xlink="http://www.w3.org/1999/xlink"
   xmlns="http://www.w3.org/2000/svg"
   xmlns:svg="http://www.w3.org/2000/svg">
  <sodipodi:namedview
     id="namedview7"
     pagecolor="#505050"
     bordercolor="#eeeeee"
     borderopacity="1"
     inkscape:showpageshadow="0"
     inkscape:pageopacity="0"
     inkscape:pagecheckerboard="0"
     inkscape:deskcolor="#505050"
     inkscape:document-units="mm"
     showgrid="false"
     inkscape:zoom="2.2968278"
     inkscape:cx="114.94114"
     inkscape:cy="50.939823"
     inkscape:window-width="1906"
     inkscape:window-height="1026"
     inkscape:window-x="5"
     inkscape:window-y="25"
     inkscape:window-maximized="1"
     inkscape:current-layer="layer1" />
  <defs
     id="defs2">
    <linearGradient
       id="linearGradient1397"
       inkscape:swatch="solid">
      <stop
         style="stop-color:#35bfc1;stop-opacity:1;"
         offset="0"
         id="stop1395" />
    </linearGradient>
    <linearGradient
       inkscape:collect="always"
       xlink:href="#linearGradient1397"
       id="linearGradient1399"
       x1="19.689228"
       y1="27.897754"
       x2="45.766468"
       y2="27.897754"
       gradientUnits="userSpaceOnUse"
       gradientTransform="matrix(0.77217979,0,0,0.77217979,34.439438,-4.1433918)" />
  </defs>
  <g
     inkscape:label="Layer 1"
     inkscape:groupmode="layer"
     id="layer1">
    <rect
       style="fill-opacity:1;stroke:none;stroke-width:0.264583;paint-order:stroke fill markers;fill:#3a0dcd"
       id="rect1960"
       width="3.1874504"
       height="22.586937"
       x="-12.673738"
       y="12.012582"
       ry="0"
       transform="rotate(-56.535623)" />
    <path
       style="fill:#ffffff;fill-opacity:1;stroke:none;stroke-width:0.264583px;stroke-linecap:butt;stroke-linejoin:miter;stroke-opacity:1"
       d="m 54.70928,45.523793 4.607206,2.656599 c 0,0 1.162498,1.803012 1.07556,2.798617 -0.07165,0.820542 -1.272791,2.117974 -1.272791,2.117974 l -1.967828,0.68109 0.275021,-2.992382 -0.541912,-1.049811 -5.91399,-3.294647 z"
       id="path1763"
       sodipodi:nodetypes="ccscccccc" />
    <rect
       style="fill:url(#linearGradient1399);fill-opacity:1;stroke-width:0.204306;paint-order:stroke fill markers"
       id="rect1030"
       width="20.136318"
       height="29.263193"
       x="49.643059"
       y="0.89587843"
       ry="4.7845392"
       transform="rotate(16.574236)" />
    <rect
       style="fill:#ffffff;fill-opacity:1;stroke:none;stroke-width:0.264583;paint-order:stroke fill markers"
       id="rect1884"
       width="3.1874504"
       height="20.578062"
       x="-12.648416"
       y="34.056355"
       ry="0"
       transform="rotate(-56.535623)" />
    <path
       id="path1819"
       style="fill:#ffffff;fill-opacity:1;stroke:none;stroke-width:0.363882;paint-order:stroke fill markers"
       d="m 36.435778,18.505181 a 9.8930836,16.007347 35.713304 0 0 -14.979292,8.274477 9.8930836,16.007347 35.713304 0 0 -3.071909,16.834124 l 2.287147,-3.181344 a 7.3877228,11.953589 35.713304 0 1 2.296631,-12.565859 7.3877228,11.953589 35.713304 0 1 11.179864,-6.179481 z" />
    <path
       id="path1888"
       style="fill:#ffffff;stroke-width:0.350828;paint-order:stroke fill markers"
       d="m 23.300244,28.534112 c -2.187845,3.131464 0.684065,8.915154 3.815531,11.102998 3.131466,2.187844 5.336808,-0.04854 7.524651,-3.180009 2.187846,-3.131465 3.529507,-5.971906 0.398042,-8.15975 -3.131463,-2.187844 -9.550379,-2.894704 -11.738224,0.236761 z m 1.24585,0.443656 c 2.109219,-1.750567 6.516964,-1.1393 8.777287,0.439907 2.260318,1.579206 1.597942,3.584721 0.158032,5.802888 z m -0.317537,0.820821 8.935317,6.242795 c -1.587532,2.115024 -3.242848,3.426808 -5.503163,1.847606 -2.260323,-1.579208 -4.350405,-5.507752 -3.432154,-8.090401 z" />
    <path
       id="rect2123"
       style="fill:#35bfc1;fill-opacity:1;stroke-width:0.264583;paint-order:stroke fill markers"
       d="M 54.238085 11.943612 C 52.952331 12.640347 52.082937 14.000674 52.082937 15.57139 L 52.082977 25.472581 C 52.082977 27.757259 53.922281 29.596546 56.206959 29.596546 L 63.776453 29.596725 C 66.061131 29.596725 67.900418 27.757421 67.900418 25.472743 L 67.900379 15.571552 C 67.900379 13.286874 66.061075 11.447587 63.776397 11.447587 L 56.206903 11.447408 C 55.492941 11.447408 54.822518 11.626915 54.238085 11.943612 z M 56.31585 15.041574 C 56.689242 14.839237 57.117552 14.724394 57.573699 14.724394 L 62.409905 14.724348 C 63.869575 14.724348 65.044312 15.899288 65.044312 17.358958 L 65.044719 23.685082 C 65.044719 25.144752 63.869327 26.319739 62.409657 26.319739 L 57.57345 26.319785 C 56.11378 26.319785 54.939043 25.144845 54.939043 23.685175 L 54.938636 17.359051 C 54.938636 16.355528 55.494388 15.486714 56.31585 15.041574 z "
       transform="rotate(29.041471)" />
    <path
       id="rect297"
       style="fill:#3a0dcd;fill-opacity:1;stroke:none;stroke-width:0.264583;paint-order:stroke fill markers"
       d="M -15.638378 50.326427 L -18.825767 50.45775 L -18.825885 70.610525 L -15.638328 70.479691 L -15.638378 50.326427 z "
       transform="rotate(-71.07569)" />
  </g>
</svg>
