<?xml version="1.0" encoding="UTF-8" standalone="no"?>
<!-- Created with Inkscape (http://www.inkscape.org/) -->

<svg
   width="256"
   height="256"
   viewBox="0 0 67.733332 67.733333"
   version="1.1"
   id="svg5"
   xml:space="preserve"
   inkscape:version="1.2.2 (b0a8486541, 2022-12-01)"
   sodipodi:docname="s3custom_custom_dual_squelcher_2d.svg"
   xmlns:inkscape="http://www.inkscape.org/namespaces/inkscape"
   xmlns:sodipodi="http://sodipodi.sourceforge.net/DTD/sodipodi-0.dtd"
   xmlns:xlink="http://www.w3.org/1999/xlink"
   xmlns="http://www.w3.org/2000/svg"
   xmlns:svg="http://www.w3.org/2000/svg"><sodipodi:namedview
     id="namedview7"
     pagecolor="#505050"
     bordercolor="#eeeeee"
     borderopacity="1"
     inkscape:showpageshadow="0"
     inkscape:pageopacity="0"
     inkscape:pagecheckerboard="0"
     inkscape:deskcolor="#505050"
     inkscape:document-units="mm"
     showgrid="false"
     inkscape:zoom="3.0762802"
     inkscape:cx="32.486667"
     inkscape:cy="138.25809"
     inkscape:window-width="1906"
     inkscape:window-height="1026"
     inkscape:window-x="5"
     inkscape:window-y="5"
     inkscape:window-maximized="1"
     inkscape:current-layer="layer1"
     inkscape:rotation="1" /><defs
     id="defs2"><linearGradient
       id="linearGradient85757"
       inkscape:swatch="solid"><stop
         style="stop-color:#647364;stop-opacity:1;"
         offset="0"
         id="stop85755" /></linearGradient><linearGradient
       id="linearGradient85751"
       inkscape:swatch="solid"><stop
         style="stop-color:#647364;stop-opacity:1;"
         offset="0"
         id="stop85749" /></linearGradient><linearGradient
       id="linearGradient85745"
       inkscape:swatch="solid"><stop
         style="stop-color:#647364;stop-opacity:1;"
         offset="0"
         id="stop85743" /></linearGradient><linearGradient
       id="linearGradient85739"
       inkscape:swatch="solid"><stop
         style="stop-color:#647364;stop-opacity:1;"
         offset="0"
         id="stop85737" /></linearGradient><linearGradient
       id="linearGradient85733"
       inkscape:swatch="solid"><stop
         style="stop-color:#647364;stop-opacity:1;"
         offset="0"
         id="stop85731" /></linearGradient><linearGradient
       id="linearGradient85727"
       inkscape:swatch="solid"><stop
         style="stop-color:#8a8d00;stop-opacity:1;"
         offset="0"
         id="stop85725" /></linearGradient><linearGradient
       id="linearGradient84546"
       inkscape:swatch="solid"><stop
         style="stop-color:#4e4c4c;stop-opacity:1;"
         offset="0"
         id="stop84544" /></linearGradient><linearGradient
       id="linearGradient83850"
       inkscape:swatch="solid"><stop
         style="stop-color:#818c81;stop-opacity:1;"
         offset="0"
         id="stop83848" /></linearGradient><linearGradient
       id="linearGradient83832"
       inkscape:swatch="solid"><stop
         style="stop-color:#c7be2d;stop-opacity:1;"
         offset="0"
         id="stop83830" /></linearGradient><linearGradient
       inkscape:collect="always"
       xlink:href="#linearGradient83832"
       id="linearGradient83834"
       x1="53.691417"
       y1="25.605139"
       x2="60.211821"
       y2="25.605139"
       gradientUnits="userSpaceOnUse" /><linearGradient
       inkscape:collect="always"
       xlink:href="#linearGradient83832"
       id="linearGradient84548"
       x1="54.436535"
       y1="34.174053"
       x2="60.95694"
       y2="34.174053"
       gradientUnits="userSpaceOnUse" /><linearGradient
       inkscape:collect="always"
       xlink:href="#linearGradient85727"
       id="linearGradient85729"
       x1="45.965424"
       y1="40.894106"
       x2="46.495583"
       y2="40.894106"
       gradientUnits="userSpaceOnUse" /><linearGradient
       inkscape:collect="always"
       xlink:href="#linearGradient85727"
       id="linearGradient85735"
       x1="44.94178"
       y1="40.828182"
       x2="45.49255"
       y2="40.828182"
       gradientUnits="userSpaceOnUse" /><linearGradient
       inkscape:collect="always"
       xlink:href="#linearGradient85727"
       id="linearGradient85741"
       x1="44.148075"
       y1="49.328018"
       x2="44.678234"
       y2="49.328018"
       gradientUnits="userSpaceOnUse" /><linearGradient
       inkscape:collect="always"
       xlink:href="#linearGradient85727"
       id="linearGradient85747"
       x1="43.124432"
       y1="49.262096"
       x2="43.675201"
       y2="49.262096"
       gradientUnits="userSpaceOnUse" /><linearGradient
       inkscape:collect="always"
       xlink:href="#linearGradient85727"
       id="linearGradient85753"
       x1="51.82605"
       y1="25.904072"
       x2="54.424175"
       y2="25.904072"
       gradientUnits="userSpaceOnUse" /><linearGradient
       inkscape:collect="always"
       xlink:href="#linearGradient85727"
       id="linearGradient85759"
       x1="52.571167"
       y1="34.499329"
       x2="55.169296"
       y2="34.499329"
       gradientUnits="userSpaceOnUse" /></defs><g
     inkscape:label="Layer 1"
     inkscape:groupmode="layer"
     id="layer1"><rect
       style="fill:#090909;fill-opacity:1;stroke:none;stroke-width:0.765;stroke-dasharray:none;stroke-opacity:1;paint-order:markers stroke fill;stop-color:#000000"
       id="rect71411"
       width="10.419385"
       height="1.0456587"
       x="32.336857"
       y="46.533943"
       transform="rotate(-14.1999)" /><path
       style="fill:#363433;fill-opacity:1;stroke:none;stroke-width:0.264583px;stroke-linecap:butt;stroke-linejoin:miter;stroke-opacity:1"
       d="m 36.894699,40.597347 6.445546,-2.129152 -0.476006,-1.589442 -6.41694,1.011597 z"
       id="path71413" /><path
       style="fill:url(#linearGradient85759);fill-opacity:1.0;stroke:none;stroke-width:0.264583px;stroke-linecap:butt;stroke-linejoin:miter;stroke-opacity:1"
       d="m 52.571166,34.257218 0.493768,1.662452 2.104361,-0.170349 -0.58093,-2.670332 z"
       id="path71415" /><path
       style="fill:url(#linearGradient84548);fill-opacity:1.0;stroke:none;stroke-width:0.264583px;stroke-linecap:butt;stroke-linejoin:miter;stroke-opacity:1"
       d="m 54.436535,32.634333 0.845596,3.854208 5.674808,-2.474427 -0.540308,-2.154551 z"
       id="path71417"
       sodipodi:nodetypes="ccccc" /><rect
       style="fill:url(#linearGradient85747);fill-opacity:1.0;stroke:none;stroke-width:0.765;stroke-dasharray:none;stroke-opacity:1;paint-order:markers stroke fill;stop-color:#000000"
       id="rect71419"
       width="0.55077004"
       height="3.6355786"
       x="43.124432"
       y="47.444305"
       transform="rotate(-17.114772)" /><rect
       style="fill:url(#linearGradient85741);fill-opacity:1.0;stroke:none;stroke-width:0.765;stroke-dasharray:none;stroke-opacity:1;paint-order:markers stroke fill;stop-color:#000000"
       id="rect71421"
       width="0.53015971"
       height="3.4340177"
       x="44.148075"
       y="47.611012"
       transform="rotate(-17.114772)" /><path
       style="fill:#090909;stroke:none;stroke-width:0.264583px;stroke-linecap:butt;stroke-linejoin:miter;stroke-opacity:1;fill-opacity:1"
       d="m 34.542539,38.321107 -0.02585,-0.981269 1.14853,-0.272719 0.531402,0.858091 z"
       id="path50089" /><path
       style="fill:#383635;fill-opacity:1;stroke:none;stroke-width:0.264583px;stroke-linecap:butt;stroke-linejoin:miter;stroke-opacity:1"
       d="m 25.357368,40.59075 0.396168,-0.422077 10.734117,-2.472772 1.730452,2.292627 -0.35768,0.921545 -3.015317,1.710664 -4.26223,0.801933 -4.745266,-1.94968 z"
       id="path34495"
       sodipodi:nodetypes="ccccccccc" /><path
       style="fill:#000a0a;stroke:none;stroke-width:0.264583px;stroke-linecap:butt;stroke-linejoin:miter;stroke-opacity:1;fill-opacity:1"
       d="m 17.80787,38.566992 1.050244,-0.399405 -0.192325,-1.284808 -0.986312,0.538006 0.139049,1.108348 z"
       id="path25440" /><path
       style="display:inline;fill:#3a3837;fill-opacity:1;stroke:none;stroke-width:0.264583px;stroke-linecap:butt;stroke-linejoin:miter;stroke-opacity:1"
       d="m 7.3963106,32.464113 -1.5491611,0.841803 1.4516902,3.105645 4.1523763,2.531785 10.808493,-2.939317 z"
       id="path3014" /><rect
       style="fill:#090909;fill-opacity:1;stroke:none;stroke-width:0.765;stroke-dasharray:none;stroke-opacity:1;paint-order:markers stroke fill;stop-color:#000000"
       id="rect58563"
       width="10.419385"
       height="1.0456587"
       x="33.722969"
       y="38.018524"
       transform="rotate(-14.1999)" /><path
       style="fill:#363433;stroke:none;stroke-width:0.264583px;stroke-linecap:butt;stroke-linejoin:miter;stroke-opacity:1;fill-opacity:1"
       d="m 36.149581,32.002089 6.445546,-2.129152 -0.476006,-1.589442 -6.41694,1.011597 z"
       id="path56859" /><path
       style="fill:none;stroke:#090909;stroke-width:0.765;stroke-linecap:butt;stroke-linejoin:miter;stroke-dasharray:none;stroke-opacity:1"
       d="m 35.213491,37.422508 c 0,0 0.111707,-1.580138 0.494747,-2.087701 0.779386,-1.032757 3.348611,-1.962925 3.348611,-1.962925 0,0 1.828743,-0.832131 2.271178,-1.658601 0.385238,-0.719626 0.369929,-1.674354 0.105236,-2.446499 -0.183578,-0.535521 -0.580667,-1.066647 -1.098619,-1.295141 -0.616823,-0.272111 -1.391671,-0.167729 -2.021195,0.07355 -0.43681,0.167417 -1.077303,0.899388 -1.077303,0.899388 l -1.449221,2.135577"
       id="path52557"
       sodipodi:nodetypes="cscsssscc" /><path
       style="display:inline;fill:#9a281f;fill-opacity:1;stroke:none;stroke-width:0.264583px;stroke-linecap:butt;stroke-linejoin:miter;stroke-opacity:1"
       d="M 7.147017,30.814438 7.16703,32.611422 8.0504618,35.67022 15.524998,34.507434 25.635353,36.845025 36.502088,32.527228 35.758534,29.095006 22.857791,29.697005 20.243889,29.042214 7.5851701,30.467919 Z"
       id="path497"
       sodipodi:nodetypes="ccccccccccc" /><path
       style="fill:#7a000e;fill-opacity:1;stroke:none;stroke-width:0.264583px;stroke-linecap:butt;stroke-linejoin:miter;stroke-opacity:1"
       d="m 28.342456,35.813629 -0.631268,-0.744416 c 0,0 -0.301504,-1.818999 0.08257,-2.594274 0.348493,-0.703454 1.083382,-1.235052 1.827302,-1.485807 0.578471,-0.194987 1.269427,-0.18134 1.830385,0.05944 0.580227,0.249051 1.053193,0.772098 1.348737,1.330079 0.253222,0.478079 0.293492,1.596242 0.293492,1.596242 z"
       id="path553"
       sodipodi:nodetypes="ccsssscc" /><circle
       style="fill:#353333;stroke-width:0;paint-order:markers stroke fill;stop-color:#000000;fill-opacity:1"
       id="path551"
       cx="30.431726"
       cy="33.532879"
       r="2.1761279" /><path
       style="fill:#adb0b5;stroke:none;stroke-width:0.264583px;stroke-linecap:butt;stroke-linejoin:miter;stroke-opacity:1;fill-opacity:1"
       d="m 7.7815135,30.736153 -0.0266,1.222412 6.1884265,-0.840176 -0.08333,-1.172983 z"
       id="path4101" /><rect
       style="fill:#3b3938;fill-opacity:1;stroke:none;stroke-width:0;paint-order:markers stroke fill;stop-color:#000000"
       id="rect4347"
       width="5.6903625"
       height="0.34163341"
       x="2.6353233"
       y="-33.748024"
       transform="matrix(0.98605551,-0.16641674,-0.16641674,-0.98605551,0,0)" /><rect
       style="fill:#3b3938;fill-opacity:1;stroke:none;stroke-width:0;paint-order:markers stroke fill;stop-color:#000000"
       id="rect8704"
       width="5.6903625"
       height="0.34163341"
       x="2.5619435"
       y="-34.417652"
       transform="matrix(0.98605551,-0.16641674,-0.16641674,-0.98605551,0,0)" /><rect
       style="fill:#3b3938;fill-opacity:1;stroke:none;stroke-width:0;paint-order:markers stroke fill;stop-color:#000000"
       id="rect8706"
       width="5.6903625"
       height="0.34163341"
       x="2.613894"
       y="-35.036507"
       transform="matrix(0.98605551,-0.16641674,-0.16641674,-0.98605551,0,0)" /><rect
       style="fill:#3b3938;fill-opacity:1;stroke:none;stroke-width:0;paint-order:markers stroke fill;stop-color:#000000"
       id="rect8708"
       width="5.6903625"
       height="0.34163341"
       x="2.6366279"
       y="-35.649883"
       transform="matrix(0.98605551,-0.16641674,-0.16641674,-0.98605551,0,0)" /><circle
       style="fill:#0a0a0a;fill-opacity:1;stroke:none;stroke-width:0;paint-order:markers stroke fill;stop-color:#000000"
       id="path8762"
       cx="11.701763"
       cy="38.062485"
       r="0.33747962" /><path
       style="fill:#6e000b;stroke:none;stroke-width:0.264583px;stroke-linecap:butt;stroke-linejoin:miter;stroke-opacity:1;fill-opacity:1"
       d="m 14.925228,44.445316 3.653012,-0.747641 -0.441886,-1.486437 -0.295226,-2.071764 0.182251,-3.094749 -3.856431,0.920229 c 0,0 0.05654,1.525428 0.110948,2.286574 0.04354,0.609097 0.08197,1.219906 0.172405,1.823823 0.08537,0.570094 0.348727,1.693828 0.348727,1.693828 z"
       id="path9454"
       sodipodi:nodetypes="ccccccsscc" /><path
       style="fill:#9a281f;fill-opacity:1;stroke:none;stroke-width:0.264583px;stroke-linecap:butt;stroke-linejoin:miter;stroke-opacity:1"
       d="m 12.767845,44.027338 c -1.362084,0.433398 -2.8533044,1.353011 -2.8533044,1.353011 l 2.7417784,9.430929 6.79715,-2.870001 0.126736,-0.833564 0.496461,-0.05863 0.384213,0.571381 0.704841,-0.454702 -0.189993,-0.58822 0.657311,-0.378465 0.318347,0.724766 0.546697,-0.247502 -0.185514,-0.605303 0.823071,-0.423577 0.08602,0.884629 0.886087,-0.477647 -0.353379,-0.705308 0.869112,-0.381172 0.190962,0.950061 1.143849,-0.421566 2.081342,-2.261024 10.432984,-5.890715 -0.220695,-1.41392 -0.348125,0.571609 c 0,0 -3.056115,1.797207 -4.751633,2.098455 -1.44524,0.25678 -2.857731,0.187424 -4.244044,-0.280001 -1.288598,-0.43448 -3.412088,-2.049274 -3.412088,-2.049274 l -2.214368,1.399455 -0.4349,0.60088 -0.485351,-0.468019 -0.703164,0.263665 -0.317979,0.582938 -0.613195,-0.351869 -0.524382,0.106669 -0.261987,0.693319 -0.68912,-0.524872 -1.071787,0.176948 c 0,0 -4.018967,0.833402 -5.411953,1.276633 z"
       id="path29230"
       sodipodi:nodetypes="scccccccccccccccccccccccsscccccccccccss" /><rect
       style="fill:#172427;fill-opacity:1;stroke:none;stroke-width:0;paint-order:markers stroke fill;stop-color:#000000"
       id="rect9629"
       width="1.9111849"
       height="0.49312687"
       x="-12.470143"
       y="40.145931"
       transform="rotate(-38.467528)" /><rect
       style="fill:#172427;fill-opacity:1;stroke:none;stroke-width:0;paint-order:markers stroke fill;stop-color:#000000"
       id="rect10256"
       width="1.9111849"
       height="0.49312687"
       x="-13.049163"
       y="40.974861"
       transform="rotate(-38.467528)" /><rect
       style="fill:#172427;fill-opacity:1;stroke:none;stroke-width:0;paint-order:markers stroke fill;stop-color:#000000"
       id="rect10258"
       width="1.9111849"
       height="0.49312687"
       x="-13.602678"
       y="41.636841"
       transform="rotate(-38.467528)" /><rect
       style="fill:#172427;fill-opacity:1;stroke:none;stroke-width:0;paint-order:markers stroke fill;stop-color:#000000"
       id="rect10260"
       width="1.9111849"
       height="0.49312687"
       x="-14.054869"
       y="42.303307"
       transform="rotate(-38.467528)" /><rect
       style="fill:#172427;fill-opacity:1;stroke:none;stroke-width:0;paint-order:markers stroke fill;stop-color:#000000"
       id="rect10262"
       width="1.9111849"
       height="0.49312687"
       x="-14.404948"
       y="43.181656"
       transform="rotate(-38.467528)" /><g
       id="g12134"
       transform="translate(-0.09810195,0.01957074)"
       style="fill:#79000e;fill-opacity:1;stroke:none"><path
         style="fill:#79000e;fill-opacity:1;stroke:none;stroke-width:0.278959px;stroke-linecap:butt;stroke-linejoin:miter;stroke-opacity:1"
         d="m 10.145184,45.820245 c 0,0 1.911953,0.03498 2.714294,0.461731 0.669026,0.35584 1.199642,0.977448 1.584275,1.630345 0.444357,0.754275 0.789749,1.638909 0.760283,2.513846 -0.03479,1.03313 -0.363248,2.171515 -1.095418,2.901236 -0.413274,0.411891 -1.83546,0.48848 -1.83546,0.48848 l -0.165336,-0.546505 c 0,0 1.222615,-0.01466 1.588583,-0.379399 0.648363,-0.646194 0.939222,-1.654274 0.970032,-2.569147 0.02609,-0.774788 -0.279764,-1.558163 -0.673258,-2.2261 -0.340606,-0.578163 -0.810485,-1.128619 -1.402931,-1.443728 -0.710502,-0.377896 -2.376138,-0.427276 -2.376138,-0.427276 z"
         id="path12130"
         sodipodi:nodetypes="cssssccsssscc" /></g><path
       style="fill:#090909;stroke:none;stroke-width:0.264583px;stroke-linecap:butt;stroke-linejoin:miter;stroke-opacity:1;fill-opacity:1"
       d="M 8.1399268,48.751534 8.556658,50.668673 9.1443645,52.794984 10.910601,52.647918 10.677039,50.479507 9.8097244,47.992331 Z"
       id="path21237" /><path
       style="fill:#79000e;stroke:none;stroke-width:0.264583px;stroke-linecap:butt;stroke-linejoin:miter;stroke-opacity:1;fill-opacity:1"
       d="M 10.062585,46.168159 9.4036747,47.312365 7.819056,47.983282 7.4085737,48.965252 10.591044,47.890361 Z"
       id="path16036" /><path
       style="fill:#79000e;fill-opacity:1;stroke:none;stroke-width:0.264583px;stroke-linecap:butt;stroke-linejoin:miter;stroke-opacity:1"
       d="M 12.207023,53.869281 11.063344,53.209456 9.3558687,53.423172 8.5084756,52.779211 11.801075,52.114158 Z"
       id="path19045" /><rect
       style="fill:#383535;fill-opacity:1;stroke:none;stroke-width:0;paint-order:markers stroke fill;stop-color:#000000"
       id="rect30032"
       width="1.050487"
       height="2.0571306"
       x="2.206701"
       y="53.563053"
       transform="rotate(-23.279629)" /><rect
       style="fill:#383535;fill-opacity:1;stroke:none;stroke-width:0;paint-order:markers stroke fill;stop-color:#000000"
       id="rect30034"
       width="1.050487"
       height="2.0571306"
       x="0.58110726"
       y="53.456417"
       transform="rotate(-23.279629)" /><rect
       style="fill:#383535;fill-opacity:1;stroke:none;stroke-width:0;paint-order:markers stroke fill;stop-color:#000000"
       id="rect30036"
       width="1.050487"
       height="2.0571306"
       x="-0.83931768"
       y="53.334583"
       transform="rotate(-23.279629)" /><rect
       style="fill:#383535;fill-opacity:1;stroke:none;stroke-width:0;paint-order:markers stroke fill;stop-color:#000000"
       id="rect30038"
       width="1.050487"
       height="2.0571306"
       x="-2.544147"
       y="53.194302"
       transform="rotate(-23.279629)" /><rect
       style="fill:#383535;fill-opacity:1;stroke:none;stroke-width:0;paint-order:markers stroke fill;stop-color:#000000"
       id="rect30040"
       width="1.050487"
       height="2.0571306"
       x="9.929554"
       y="45.636898"
       transform="rotate(-12.085797)" /><rect
       style="fill:#383535;fill-opacity:1;stroke:none;stroke-width:0;paint-order:markers stroke fill;stop-color:#000000"
       id="rect30042"
       width="1.050487"
       height="2.0571306"
       x="11.446639"
       y="45.539692"
       transform="rotate(-12.085797)" /><rect
       style="fill:#383535;fill-opacity:1;stroke:none;stroke-width:0;paint-order:markers stroke fill;stop-color:#000000"
       id="rect30044"
       width="1.050487"
       height="2.0571306"
       x="13.097944"
       y="45.537113"
       transform="rotate(-12.085797)" /><circle
       style="fill:#090909;fill-opacity:1;stroke:none;stroke-width:0;paint-order:markers stroke fill;stop-color:#000000"
       id="path41119"
       cx="36.405422"
       cy="38.75568"
       r="0.44280249" /><circle
       style="fill:#0b0b0b;fill-opacity:1;stroke:none;stroke-width:0;paint-order:markers stroke fill;stop-color:#000000"
       id="path42840"
       cx="27.553938"
       cy="40.546474"
       r="0.4703097" /><circle
       style="fill:#4c4a49;fill-opacity:1;stroke:none;stroke-width:0;paint-order:markers stroke fill;stop-color:#000000"
       id="path43831"
       cx="29.668385"
       cy="41.059601"
       r="0.84596854" /><circle
       style="fill:#4c4a49;fill-opacity:1;stroke:none;stroke-width:0;paint-order:markers stroke fill;stop-color:#000000"
       id="circle44178"
       cx="32.778507"
       cy="41.313622"
       r="0.84596854" /><path
       style="fill:url(#linearGradient85753);stroke:none;stroke-width:0.264583px;stroke-linecap:butt;stroke-linejoin:miter;stroke-opacity:1;fill-opacity:1.0"
       d="m 51.826048,25.66196 0.493768,1.662452 2.104361,-0.170349 -0.58093,-2.670332 z"
       id="path61968" /><path
       style="fill:url(#linearGradient83834);fill-opacity:1;stroke:none;stroke-width:0.264583px;stroke-linecap:butt;stroke-linejoin:miter;stroke-opacity:1"
       d="m 53.691417,24.039075 0.906276,3.906897 5.614128,-2.527116 -0.540308,-2.154551 z"
       id="path64258"
       sodipodi:nodetypes="ccccc" /><rect
       style="fill:url(#linearGradient85735);fill-opacity:1.0;stroke:none;stroke-width:0.765;stroke-dasharray:none;stroke-opacity:1;paint-order:markers stroke fill;stop-color:#000000"
       id="rect64364"
       width="0.55077004"
       height="3.6355786"
       x="44.94178"
       y="39.010391"
       transform="rotate(-17.114772)" /><rect
       style="fill:#424140;fill-opacity:1;stroke:none;stroke-width:0.765;stroke-dasharray:none;stroke-opacity:1;paint-order:markers stroke fill;stop-color:#000000"
       id="rect64366"
       width="0.53015971"
       height="3.4340177"
       x="45.965424"
       y="39.177097"
       transform="rotate(-17.114772)" /><rect
       style="fill:url(#linearGradient85729);fill-opacity:1;stroke:none;stroke-width:0.765;stroke-dasharray:none;stroke-opacity:1;paint-order:markers stroke fill;stop-color:#000000"
       id="rect85723"
       width="0.53015971"
       height="3.4340177"
       x="45.965424"
       y="39.177097"
       transform="rotate(-17.114772)" /><g
       id="g11108"
       transform="matrix(0.4244794,0.03424905,-0.03424905,0.4244794,0.3430379,16.665916)"><path
         style="fill:#f3e727;fill-opacity:1;stroke:#1d2974;stroke-width:0.65591px;stroke-linecap:butt;stroke-linejoin:miter;stroke-opacity:1"
         d="m 42.211582,60.239049 -5.049884,1.992877 -0.02759,7.621848 13.258181,2.150209 4.483292,-1.932307 0.320707,-7.362598 z"
         id="path579" /><path
         style="fill:#1d2974;fill-opacity:1;stroke:none;stroke-width:0.264583px;stroke-linecap:butt;stroke-linejoin:miter;stroke-opacity:1"
         d="m 38.664713,64.005822 -0.05611,4.732874 0.984557,-0.03109 -0.0087,-0.977172 c 0,0 0.276681,-0.449757 0.503256,-0.457491 0.246013,-0.0084 0.593748,0.361962 0.593748,0.361962 l 0.0026,1.15369 1.051888,-0.05672 0.02257,-4.647528 -1.570892,-0.02561 -0.0038,0.968497 0.539922,-0.01696 0.0077,1.319798 -1.111972,-0.06945 -0.06533,-2.2914 z"
         id="path635"
         sodipodi:nodetypes="ccccsccccccccccc" /><path
         id="path2154"
         style="fill:#1d2974;fill-opacity:1;stroke:none;stroke-width:0.264583px;stroke-linecap:butt;stroke-linejoin:miter;stroke-opacity:1"
         d="m 44.602445,64.071541 -2.48977,0.0217 -0.04444,2.093413 c 0,0 0.291803,0.378224 0.454356,0.475678 0.267062,0.16011 0.53129,0.183255 0.842206,0.200249 0.245943,0.01344 0.505097,-0.03016 0.725537,-0.140043 0.200186,-0.09979 0.498161,-0.449585 0.498161,-0.449585 z m -0.83354,0.972551 0.02325,0.63562 c 0,0 -0.269772,0.235145 -0.435116,0.238745 -0.159768,0.0034 -0.429431,-0.21239 -0.429431,-0.21239 l -0.01034,-0.656291 z"
         sodipodi:nodetypes="cccssscccccccc" /><rect
         style="fill:#1d2974;fill-opacity:1;stroke:none;stroke-width:0.765;paint-order:markers stroke fill;stop-color:#000000"
         id="rect5042"
         width="2.4775739"
         height="0.87322813"
         x="42.140182"
         y="67.838127" /><path
         id="path5044"
         style="display:inline;fill:#1d2974;fill-opacity:1;stroke:none;stroke-width:0.765;paint-order:markers stroke fill;stop-color:#000000"
         d="m 46.475199,64.010563 a 1.703635,2.3677852 0 0 0 -1.703255,2.367814 1.703635,2.3677852 0 0 0 1.703255,2.367814 1.703635,2.3677852 0 0 0 1.703772,-2.367814 1.703635,2.3677852 0 0 0 -1.703772,-2.367814 z m -0.02636,0.729671 a 0.85066086,1.6641856 0 0 1 0.850594,1.663981 0.85066086,1.6641856 0 0 1 -0.850594,1.664498 0.85066086,1.6641856 0 0 1 -0.850594,-1.664498 0.85066086,1.6641856 0 0 1 0.850594,-1.663981 z" /><path
         id="path5049"
         style="display:inline;fill:#1d2974;fill-opacity:1;stroke:none;stroke-width:0.765;paint-order:markers stroke fill;stop-color:#000000"
         d="m 51.631333,63.95143 a 1.703635,2.3677852 0 0 0 -1.703255,2.367814 1.703635,2.3677852 0 0 0 1.703255,2.367814 1.703635,2.3677852 0 0 0 1.703772,-2.367814 1.703635,2.3677852 0 0 0 -1.703772,-2.367814 z m -0.02635,0.729671 a 0.85066086,1.6641856 0 0 1 0.850594,1.663981 0.85066086,1.6641856 0 0 1 -0.850594,1.664498 0.85066086,1.6641856 0 0 1 -0.850594,-1.664498 0.85066086,1.6641856 0 0 1 0.850594,-1.663981 z" /><path
         style="fill:#1d2974;fill-opacity:1;stroke:none;stroke-width:0.264583px;stroke-linecap:butt;stroke-linejoin:miter;stroke-opacity:1"
         d="m 48.225675,64.012619 0.01585,0.948711 0.188039,-0.03014 -0.145079,2.732672 c 0,0 0.06841,0.517886 0.193372,0.711545 0.105961,0.164215 0.467803,0.351839 0.467803,0.351839 l 1.242454,-0.01434 -0.01371,-0.879692 c 0,0 -0.738938,0.111016 -0.988003,-0.150744 -0.650271,-0.683412 -0.01362,-2.700517 -0.01362,-2.700517 l 0.463976,0.03123 0.08512,-0.967896 z"
         id="path5051"
         sodipodi:nodetypes="ccccscccscccc" /></g></g></svg>
