<?xml version="1.0" encoding="UTF-8" standalone="no"?>
<!-- Created with Inkscape (http://www.inkscape.org/) -->

<svg
   width="256"
   height="256"
   viewBox="0 0 67.733334 67.733333"
   version="1.1"
   id="svg1819"
   xml:space="preserve"
   inkscape:version="1.2.1 (9c6d41e410, 2022-07-14, custom)"
   sodipodi:docname="kensadualies.svg"
   inkscape:export-filename="kensadualies.png"
   inkscape:export-xdpi="96"
   inkscape:export-ydpi="96"
   xmlns:inkscape="http://www.inkscape.org/namespaces/inkscape"
   xmlns:sodipodi="http://sodipodi.sourceforge.net/DTD/sodipodi-0.dtd"
   xmlns:xlink="http://www.w3.org/1999/xlink"
   xmlns="http://www.w3.org/2000/svg"
   xmlns:svg="http://www.w3.org/2000/svg"><sodipodi:namedview
     id="namedview1821"
     pagecolor="#cccccc"
     bordercolor="#666666"
     borderopacity="1.0"
     inkscape:showpageshadow="2"
     inkscape:pageopacity="0"
     inkscape:pagecheckerboard="0"
     inkscape:deskcolor="#d1d1d1"
     inkscape:document-units="mm"
     showgrid="false"
     inkscape:zoom="2.6858633"
     inkscape:cx="50.07701"
     inkscape:cy="61.618923"
     inkscape:window-width="1916"
     inkscape:window-height="1036"
     inkscape:window-x="0"
     inkscape:window-y="20"
     inkscape:window-maximized="1"
     inkscape:current-layer="layer1" /><defs
     id="defs1816"><linearGradient
       id="linearGradient4690"
       inkscape:swatch="solid"><stop
         style="stop-color:#64be43;stop-opacity:1;"
         offset="0"
         id="stop4688" /></linearGradient><linearGradient
       id="linearGradient4684"
       inkscape:swatch="solid"><stop
         style="stop-color:#64be43;stop-opacity:1;"
         offset="0"
         id="stop4682" /></linearGradient><linearGradient
       id="linearGradient4678"
       inkscape:swatch="solid"><stop
         style="stop-color:#e2e5e5;stop-opacity:1;"
         offset="0"
         id="stop4676" /></linearGradient><linearGradient
       id="linearGradient3922"
       inkscape:swatch="solid"><stop
         style="stop-color:#64be43;stop-opacity:1;"
         offset="0"
         id="stop3920" /></linearGradient><linearGradient
       id="linearGradient3914"
       inkscape:swatch="solid"><stop
         style="stop-color:#1f2124;stop-opacity:1;"
         offset="0"
         id="stop3912" /></linearGradient><linearGradient
       id="linearGradient3908"
       inkscape:swatch="solid"><stop
         style="stop-color:#559435;stop-opacity:1;"
         offset="0"
         id="stop3906" /></linearGradient><linearGradient
       id="linearGradient1157"
       inkscape:swatch="solid"><stop
         style="stop-color:#1f2124;stop-opacity:1;"
         offset="0"
         id="stop1155" /></linearGradient><linearGradient
       id="linearGradient1151"
       inkscape:swatch="solid"><stop
         style="stop-color:#1f2124;stop-opacity:1;"
         offset="0"
         id="stop1149" /></linearGradient><linearGradient
       id="linearGradient1145"
       inkscape:swatch="solid"><stop
         style="stop-color:#cfd4d0;stop-opacity:1;"
         offset="0"
         id="stop1143" /></linearGradient><linearGradient
       id="linearGradient1139"
       inkscape:swatch="solid"><stop
         style="stop-color:#202123;stop-opacity:1;"
         offset="0"
         id="stop1137" /></linearGradient><linearGradient
       id="linearGradient1133"
       inkscape:swatch="solid"><stop
         style="stop-color:#202123;stop-opacity:1;"
         offset="0"
         id="stop1131" /></linearGradient><linearGradient
       id="linearGradient1127"
       inkscape:swatch="solid"><stop
         style="stop-color:#0e100e;stop-opacity:1;"
         offset="0"
         id="stop1125" /></linearGradient><linearGradient
       id="linearGradient1119"
       inkscape:swatch="solid"><stop
         style="stop-color:#1f2124;stop-opacity:1;"
         offset="0"
         id="stop1117" /></linearGradient><linearGradient
       id="linearGradient1113"
       inkscape:swatch="solid"><stop
         style="stop-color:#4b4f50;stop-opacity:1;"
         offset="0"
         id="stop1111" /></linearGradient><linearGradient
       id="linearGradient1107"
       inkscape:swatch="solid"><stop
         style="stop-color:#4b4f50;stop-opacity:1;"
         offset="0"
         id="stop1105" /></linearGradient><linearGradient
       id="linearGradient1005"
       inkscape:swatch="solid"><stop
         style="stop-color:#559435;stop-opacity:1;"
         offset="0"
         id="stop1003" /></linearGradient><linearGradient
       id="linearGradient999"
       inkscape:swatch="solid"><stop
         style="stop-color:#559435;stop-opacity:1;"
         offset="0"
         id="stop997" /></linearGradient><linearGradient
       id="linearGradient993"
       inkscape:swatch="solid"><stop
         style="stop-color:#559435;stop-opacity:1;"
         offset="0"
         id="stop991" /></linearGradient><linearGradient
       id="linearGradient981"
       inkscape:swatch="solid"><stop
         style="stop-color:#61ba41;stop-opacity:1;"
         offset="0"
         id="stop979" /></linearGradient><linearGradient
       id="linearGradient971"
       inkscape:swatch="solid"><stop
         style="stop-color:#be329d;stop-opacity:1;"
         offset="0"
         id="stop969" /></linearGradient><linearGradient
       id="linearGradient965"
       inkscape:swatch="solid"><stop
         style="stop-color:#be329d;stop-opacity:1;"
         offset="0"
         id="stop963" /></linearGradient><linearGradient
       id="linearGradient959"
       inkscape:swatch="solid"><stop
         style="stop-color:#be329d;stop-opacity:1;"
         offset="0"
         id="stop957" /></linearGradient><linearGradient
       id="linearGradient953"
       inkscape:swatch="solid"><stop
         style="stop-color:#0f0e0e;stop-opacity:1;"
         offset="0"
         id="stop951" /></linearGradient><linearGradient
       id="linearGradient947"
       inkscape:swatch="solid"><stop
         style="stop-color:#61ba41;stop-opacity:1;"
         offset="0"
         id="stop945" /></linearGradient><linearGradient
       id="linearGradient941"
       inkscape:swatch="solid"><stop
         style="stop-color:#61ba41;stop-opacity:1;"
         offset="0"
         id="stop939" /></linearGradient><linearGradient
       id="linearGradient935"
       inkscape:swatch="solid"><stop
         style="stop-color:#131613;stop-opacity:1;"
         offset="0"
         id="stop933" /></linearGradient><linearGradient
       id="linearGradient14224"
       inkscape:swatch="solid"><stop
         style="stop-color:#0a0b09;stop-opacity:1;"
         offset="0"
         id="stop14222" /></linearGradient><linearGradient
       id="linearGradient10837"
       inkscape:swatch="solid"><stop
         style="stop-color:#000000;stop-opacity:1;"
         offset="0"
         id="stop10835" /></linearGradient><linearGradient
       id="linearGradient10623"
       inkscape:swatch="solid"><stop
         style="stop-color:#101010;stop-opacity:1;"
         offset="0"
         id="stop10621" /></linearGradient><linearGradient
       id="linearGradient9440"
       inkscape:swatch="solid"><stop
         style="stop-color:#010101;stop-opacity:1;"
         offset="0"
         id="stop9438" /></linearGradient><linearGradient
       id="linearGradient8880"
       inkscape:swatch="solid"><stop
         style="stop-color:#1f2124;stop-opacity:1;"
         offset="0"
         id="stop8878" /></linearGradient><linearGradient
       id="linearGradient8874"
       inkscape:swatch="solid"><stop
         style="stop-color:#4b4f50;stop-opacity:1;"
         offset="0"
         id="stop8872" /></linearGradient><linearGradient
       id="linearGradient8868"
       inkscape:swatch="solid"><stop
         style="stop-color:#4b4f50;stop-opacity:1;"
         offset="0"
         id="stop8866" /></linearGradient><linearGradient
       id="linearGradient8862"
       inkscape:swatch="solid"><stop
         style="stop-color:#e2e5e5;stop-opacity:1;"
         offset="0"
         id="stop8860" /></linearGradient><linearGradient
       id="linearGradient7959"
       inkscape:swatch="solid"><stop
         style="stop-color:#141517;stop-opacity:1;"
         offset="0"
         id="stop7957" /></linearGradient><linearGradient
       id="linearGradient7519"
       inkscape:swatch="solid"><stop
         style="stop-color:#4b4f50;stop-opacity:1;"
         offset="0"
         id="stop7517" /></linearGradient><linearGradient
       id="linearGradient7444"
       inkscape:swatch="solid"><stop
         style="stop-color:#e5e5e5;stop-opacity:1;"
         offset="0"
         id="stop7442" /></linearGradient><linearGradient
       inkscape:collect="always"
       xlink:href="#linearGradient7959"
       id="linearGradient7961"
       x1="42.543011"
       y1="39.268378"
       x2="44.826744"
       y2="39.268378"
       gradientUnits="userSpaceOnUse"
       gradientTransform="rotate(-10.738745)" /><linearGradient
       inkscape:collect="always"
       xlink:href="#linearGradient8862"
       id="linearGradient8864"
       x1="45.933113"
       y1="39.739564"
       x2="47.232883"
       y2="39.739564"
       gradientUnits="userSpaceOnUse" /><linearGradient
       inkscape:collect="always"
       xlink:href="#linearGradient7959"
       id="linearGradient8870"
       x1="45.559334"
       y1="37.601337"
       x2="51.401951"
       y2="37.601337"
       gradientUnits="userSpaceOnUse" /><linearGradient
       inkscape:collect="always"
       xlink:href="#linearGradient8862"
       id="linearGradient8876"
       x1="59.570454"
       y1="-10.749995"
       x2="61.049244"
       y2="-10.749995"
       gradientUnits="userSpaceOnUse" /><linearGradient
       inkscape:collect="always"
       xlink:href="#linearGradient7959"
       id="linearGradient8882"
       x1="2.3652935"
       y1="59.915333"
       x2="12.130275"
       y2="59.915333"
       gradientUnits="userSpaceOnUse" /><linearGradient
       inkscape:collect="always"
       xlink:href="#linearGradient9440"
       id="linearGradient9446"
       gradientUnits="userSpaceOnUse"
       x1="36.900097"
       y1="27.13674"
       x2="48.081944"
       y2="27.13674"
       gradientTransform="matrix(1.1732172,0,0,1.1732172,-7.5913571,-4.5944341)" /><linearGradient
       inkscape:collect="always"
       xlink:href="#linearGradient10623"
       id="linearGradient10625"
       x1="37.042836"
       y1="27.1444"
       x2="47.931173"
       y2="27.1444"
       gradientUnits="userSpaceOnUse" /><linearGradient
       inkscape:collect="always"
       xlink:href="#linearGradient14224"
       id="linearGradient14226"
       x1="38.451566"
       y1="34.768654"
       x2="39.110416"
       y2="34.768654"
       gradientUnits="userSpaceOnUse" /><linearGradient
       inkscape:collect="always"
       xlink:href="#linearGradient14224"
       id="linearGradient14230"
       gradientUnits="userSpaceOnUse"
       x1="38.451566"
       y1="34.768654"
       x2="39.110416"
       y2="34.768654"
       gradientTransform="translate(0.03987364,8.0518056)" /><linearGradient
       inkscape:collect="always"
       xlink:href="#linearGradient7959"
       id="linearGradient419"
       gradientUnits="userSpaceOnUse"
       x1="2.3652935"
       y1="59.915333"
       x2="12.130275"
       y2="59.915333" /><linearGradient
       inkscape:collect="always"
       xlink:href="#linearGradient8862"
       id="linearGradient421"
       gradientUnits="userSpaceOnUse"
       x1="59.570454"
       y1="-10.749995"
       x2="61.049244"
       y2="-10.749995" /><linearGradient
       inkscape:collect="always"
       xlink:href="#linearGradient8862"
       id="linearGradient423"
       gradientUnits="userSpaceOnUse"
       x1="45.933113"
       y1="39.739564"
       x2="47.232883"
       y2="39.739564" /><linearGradient
       inkscape:collect="always"
       xlink:href="#linearGradient9440"
       id="linearGradient425"
       gradientUnits="userSpaceOnUse"
       x1="45.559334"
       y1="37.601337"
       x2="51.401951"
       y2="37.601337" /><linearGradient
       inkscape:collect="always"
       xlink:href="#linearGradient7959"
       id="linearGradient427"
       gradientUnits="userSpaceOnUse"
       x1="42.543011"
       y1="39.268378"
       x2="44.826744"
       y2="39.268378" /><linearGradient
       inkscape:collect="always"
       xlink:href="#linearGradient9440"
       id="linearGradient429"
       gradientUnits="userSpaceOnUse"
       gradientTransform="matrix(1.1732172,0,0,1.1732172,-7.5913571,-4.5944341)"
       x1="36.900097"
       y1="27.13674"
       x2="48.081944"
       y2="27.13674" /><linearGradient
       inkscape:collect="always"
       xlink:href="#linearGradient10623"
       id="linearGradient431"
       gradientUnits="userSpaceOnUse"
       x1="37.042836"
       y1="27.1444"
       x2="47.931173"
       y2="27.1444" /><linearGradient
       inkscape:collect="always"
       xlink:href="#linearGradient14224"
       id="linearGradient433"
       gradientUnits="userSpaceOnUse"
       x1="38.451566"
       y1="34.768654"
       x2="39.110416"
       y2="34.768654" /><linearGradient
       inkscape:collect="always"
       xlink:href="#linearGradient14224"
       id="linearGradient435"
       gradientUnits="userSpaceOnUse"
       gradientTransform="translate(0.03987364,8.0518056)"
       x1="38.451566"
       y1="34.768654"
       x2="39.110416"
       y2="34.768654" /><linearGradient
       inkscape:collect="always"
       xlink:href="#linearGradient935"
       id="linearGradient937"
       x1="50.281223"
       y1="20.077482"
       x2="58.087818"
       y2="20.077482"
       gradientUnits="userSpaceOnUse" /><linearGradient
       inkscape:collect="always"
       xlink:href="#linearGradient935"
       id="linearGradient943"
       x1="41.603893"
       y1="32.502262"
       x2="44.549732"
       y2="32.502262"
       gradientUnits="userSpaceOnUse" /><linearGradient
       inkscape:collect="always"
       xlink:href="#linearGradient935"
       id="linearGradient949"
       x1="37.900528"
       y1="38.79966"
       x2="42.199429"
       y2="38.79966"
       gradientUnits="userSpaceOnUse" /><linearGradient
       inkscape:collect="always"
       xlink:href="#linearGradient8862"
       id="linearGradient955"
       x1="56.665466"
       y1="20.253244"
       x2="58.593636"
       y2="20.253244"
       gradientUnits="userSpaceOnUse" /><linearGradient
       inkscape:collect="always"
       xlink:href="#linearGradient953"
       id="linearGradient961"
       x1="40.123474"
       y1="34.398159"
       x2="43.182564"
       y2="34.398159"
       gradientUnits="userSpaceOnUse" /><linearGradient
       inkscape:collect="always"
       xlink:href="#linearGradient953"
       id="linearGradient967"
       x1="46.340298"
       y1="26.213921"
       x2="50.186001"
       y2="26.213921"
       gradientUnits="userSpaceOnUse" /><linearGradient
       inkscape:collect="always"
       xlink:href="#linearGradient953"
       id="linearGradient973"
       x1="46.340298"
       y1="26.213921"
       x2="50.186001"
       y2="26.213921"
       gradientUnits="userSpaceOnUse" /><linearGradient
       inkscape:collect="always"
       xlink:href="#linearGradient953"
       id="linearGradient975"
       x1="40.123474"
       y1="34.398159"
       x2="43.182564"
       y2="34.398159"
       gradientUnits="userSpaceOnUse" /><linearGradient
       inkscape:collect="always"
       xlink:href="#linearGradient8862"
       id="linearGradient977"
       x1="56.665466"
       y1="20.253244"
       x2="58.593636"
       y2="20.253244"
       gradientUnits="userSpaceOnUse" /><linearGradient
       inkscape:collect="always"
       xlink:href="#linearGradient935"
       id="linearGradient983"
       x1="37.900528"
       y1="38.79966"
       x2="42.199429"
       y2="38.79966"
       gradientUnits="userSpaceOnUse" /><linearGradient
       inkscape:collect="always"
       xlink:href="#linearGradient935"
       id="linearGradient985"
       x1="24.697643"
       y1="25.180246"
       x2="26.678764"
       y2="25.180246"
       gradientUnits="userSpaceOnUse" /><linearGradient
       inkscape:collect="always"
       xlink:href="#linearGradient935"
       id="linearGradient987"
       x1="23.428093"
       y1="25.481918"
       x2="25.199537"
       y2="25.481918"
       gradientUnits="userSpaceOnUse" /><linearGradient
       inkscape:collect="always"
       xlink:href="#linearGradient935"
       id="linearGradient989"
       x1="41.603893"
       y1="32.502262"
       x2="44.549732"
       y2="32.502262"
       gradientUnits="userSpaceOnUse" /><linearGradient
       inkscape:collect="always"
       xlink:href="#linearGradient14224"
       id="linearGradient995"
       x1="40.221546"
       y1="37.816135"
       x2="42.987259"
       y2="37.816135"
       gradientUnits="userSpaceOnUse" /><linearGradient
       inkscape:collect="always"
       xlink:href="#linearGradient14224"
       id="linearGradient1001"
       x1="1.2966834"
       y1="52.962288"
       x2="2.8587914"
       y2="52.962288"
       gradientUnits="userSpaceOnUse" /><linearGradient
       inkscape:collect="always"
       xlink:href="#linearGradient14224"
       id="linearGradient1007"
       x1="1.2966834"
       y1="52.962288"
       x2="2.8587914"
       y2="52.962288"
       gradientUnits="userSpaceOnUse"
       gradientTransform="rotate(-50.665745)" /><linearGradient
       inkscape:collect="always"
       xlink:href="#linearGradient8862"
       id="linearGradient1109"
       x1="58.006012"
       y1="-4.2034678"
       x2="61.364201"
       y2="-4.2034678"
       gradientUnits="userSpaceOnUse" /><linearGradient
       inkscape:collect="always"
       xlink:href="#linearGradient8862"
       id="linearGradient1115"
       x1="58.006012"
       y1="-4.2034678"
       x2="61.364201"
       y2="-4.2034678"
       gradientUnits="userSpaceOnUse" /><linearGradient
       inkscape:collect="always"
       xlink:href="#linearGradient9440"
       id="linearGradient1121"
       x1="40.105045"
       y1="30.835327"
       x2="42.913143"
       y2="30.835327"
       gradientUnits="userSpaceOnUse" /><linearGradient
       inkscape:collect="always"
       xlink:href="#linearGradient9440"
       id="linearGradient1123"
       x1="37.799526"
       y1="32.134701"
       x2="41.096962"
       y2="32.134701"
       gradientUnits="userSpaceOnUse" /><linearGradient
       inkscape:collect="always"
       xlink:href="#linearGradient1127"
       id="linearGradient1129"
       x1="35.131601"
       y1="51.615032"
       x2="44.146513"
       y2="51.615032"
       gradientUnits="userSpaceOnUse" /><linearGradient
       inkscape:collect="always"
       xlink:href="#linearGradient7444"
       id="linearGradient1135"
       x1="35.04866"
       y1="58.090439"
       x2="44.24181"
       y2="58.090439"
       gradientUnits="userSpaceOnUse" /><linearGradient
       inkscape:collect="always"
       xlink:href="#linearGradient7444"
       id="linearGradient1141"
       x1="35.04866"
       y1="58.090439"
       x2="44.24181"
       y2="58.090439"
       gradientUnits="userSpaceOnUse" /><linearGradient
       inkscape:collect="always"
       xlink:href="#linearGradient1127"
       id="linearGradient1147"
       x1="35.131599"
       y1="51.615032"
       x2="44.146515"
       y2="51.615032"
       gradientUnits="userSpaceOnUse" /><linearGradient
       inkscape:collect="always"
       xlink:href="#linearGradient9440"
       id="linearGradient1153"
       x1="31.030031"
       y1="31.030331"
       x2="37.99939"
       y2="31.030331"
       gradientUnits="userSpaceOnUse" /><linearGradient
       inkscape:collect="always"
       xlink:href="#linearGradient9440"
       id="linearGradient1159"
       x1="31.030031"
       y1="31.030331"
       x2="37.99939"
       y2="31.030331"
       gradientUnits="userSpaceOnUse" /><linearGradient
       inkscape:collect="always"
       xlink:href="#linearGradient14224"
       id="linearGradient3910"
       x1="40.221546"
       y1="37.816135"
       x2="42.987259"
       y2="37.816135"
       gradientUnits="userSpaceOnUse" /><linearGradient
       inkscape:collect="always"
       xlink:href="#linearGradient9440"
       id="linearGradient3916"
       x1="37.799526"
       y1="32.134701"
       x2="41.096962"
       y2="32.134701"
       gradientUnits="userSpaceOnUse" /><linearGradient
       inkscape:collect="always"
       xlink:href="#linearGradient9440"
       id="linearGradient3918"
       x1="40.105045"
       y1="30.835327"
       x2="42.913143"
       y2="30.835327"
       gradientUnits="userSpaceOnUse" /><linearGradient
       inkscape:collect="always"
       xlink:href="#linearGradient935"
       id="linearGradient3924"
       x1="50.281223"
       y1="20.077482"
       x2="58.087818"
       y2="20.077482"
       gradientUnits="userSpaceOnUse" /><linearGradient
       inkscape:collect="always"
       xlink:href="#linearGradient8862"
       id="linearGradient4787"
       gradientUnits="userSpaceOnUse"
       x1="37.042835"
       y1="27.1444"
       x2="47.931171"
       y2="27.1444" /></defs><g
     inkscape:label="Layer 1"
     inkscape:groupmode="layer"
     id="layer1"><g
       id="g417"
       transform="translate(-16.165255,-6.040437)"
       style="opacity:1"><path
         style="fill:url(#linearGradient977);fill-opacity:1.0;stroke:none;stroke-width:0.264583px;stroke-linecap:butt;stroke-linejoin:miter;stroke-opacity:1"
         d="m 56.665465,18.030582 0.986602,0.0302 0.94157,3.513986 -0.901136,0.901139 z"
         id="path369" /><rect
         style="fill:url(#linearGradient975);fill-opacity:1;stroke:none;stroke-width:0.499999;stroke-dasharray:none;stroke-opacity:1;paint-order:stroke fill markers"
         id="rect371"
         width="3.0590899"
         height="2.4761817"
         x="40.123474"
         y="33.160069"
         transform="rotate(-15.536665)" /><path
         style="display:inline;fill:url(#linearGradient983);fill-opacity:1;stroke:none;stroke-width:0.264583px;stroke-linecap:butt;stroke-linejoin:miter;stroke-opacity:1"
         d="m 38.112131,34.104021 -0.211603,8.321019 0.855313,2.017517 3.443586,-1.765676 -1.690063,-9.520121 -2.384589,0.28294 z"
         id="path373" /><path
         style="fill:url(#linearGradient995);fill-opacity:1;stroke:none;stroke-width:0.264583px;stroke-linecap:butt;stroke-linejoin:miter;stroke-opacity:1"
         d="m 40.288931,33.191335 c 0,0 0.195773,0.743072 0.240915,1.123374 0.05015,0.42249 0.09605,0.855367 0.03196,1.275968 -0.04705,0.308744 -0.468217,0.651948 -0.301373,0.887133 0.118514,0.167058 0.453548,0.05761 0.571884,0.224795 0.09913,0.140043 0.03625,0.343761 0.01834,0.514398 -0.02843,0.270855 -0.198038,0.792665 -0.198038,0.792665 0,0 -0.209865,0.400184 -0.09425,0.61426 0.09884,0.183014 0.495711,0.282865 0.495711,0.282865 l 0.115094,0.699723 c 0,0 -0.259856,0.38231 -0.284197,0.494096 -0.02434,0.111789 0.01902,0.646282 0.112773,0.646282 0.09376,0 0.563139,0.108751 0.633307,0.188804 0.07016,0.08005 0.03328,0.623469 0.03328,0.623469 l -0.766958,1.257853 2.08988,-0.991396 -0.416774,-0.94846 -0.714187,-0.690039 0.03839,-0.603173 c 0,0 0.564872,-0.517131 0.548245,-0.784294 -0.01997,-0.320812 -0.657677,-0.383212 -0.741418,-0.383212 -0.08374,0 -0.119914,-0.626427 -0.119914,-0.626427 0,0 0.305572,-1.018138 0.240149,-1.213647 -0.06542,-0.195511 -0.473969,-0.34758 -0.473969,-0.34758 0,0 -0.112791,-0.494058 -0.07132,-0.765238 0.04647,-0.303869 0.290262,-0.443865 0.347464,-0.697125 0.06158,-0.272621 0.03815,-0.563977 -0.01519,-0.838327 -0.07582,-0.389953 -0.426474,-1.112848 -0.426474,-1.112848 z"
         id="path375"
         sodipodi:nodetypes="cssssscsccsssccccccsscscssscc" /><rect
         style="fill:url(#linearGradient419);fill-opacity:1;stroke-width:0.665001;paint-order:stroke fill markers"
         id="rect377"
         width="9.7649813"
         height="2.3940811"
         x="2.3652935"
         y="58.718292"
         ry="1.1970396"
         transform="rotate(-36.531357)" /><g
         id="g383"
         transform="rotate(54.814457,37.782787,44.192125)"><path
           id="path379"
           style="fill:url(#linearGradient1147);fill-opacity:1;stroke-width:0.633133;paint-order:stroke fill markers"
           d="m 39.639303,45.28201 c -2.497043,0 -4.507702,2.010165 -4.507702,4.50721 v 8.158833 h 9.014912 V 49.78922 c 0,-2.497045 -2.010166,-4.50721 -4.50721,-4.50721 z" /><rect
           style="fill:url(#linearGradient1141);fill-opacity:1;stroke-width:0.665001;paint-order:stroke fill markers"
           id="rect381"
           width="9.1931486"
           height="1.438221"
           x="35.04866"
           y="57.371326" /></g><rect
         style="fill:url(#linearGradient1115);fill-opacity:1;stroke-width:0.665001;paint-order:stroke fill markers"
         id="rect385"
         width="3.3581896"
         height="2.0169666"
         x="58.006012"
         y="-5.2119513"
         transform="rotate(54.369508)"
         ry="0.13943213" /><path
         style="fill:none;fill-opacity:0;stroke:url(#linearGradient425);stroke-width:0.365;stroke-linecap:butt;stroke-linejoin:miter;stroke-dasharray:none;stroke-opacity:1"
         d="m 51.112941,34.270333 c 0,0 0.199622,1.500587 0.05228,1.825493 -0.147339,0.324905 -1.432772,1.829001 -1.432772,1.829001 l -4.06759,2.882685"
         id="path391" /><rect
         style="fill:url(#linearGradient421);fill-opacity:1;stroke-width:0.665001;paint-order:stroke fill markers"
         id="rect387"
         width="1.4787917"
         height="1.0683633"
         x="59.570454"
         y="-11.284177"
         transform="rotate(52.062026)" /><rect
         style="fill:url(#linearGradient423);fill-opacity:1;stroke-width:0.584496;paint-order:stroke fill markers"
         id="rect389"
         width="1.2997701"
         height="0.93902791"
         x="45.933113"
         y="39.27005"
         transform="rotate(-6.8227248)" /><path
         style="fill:url(#linearGradient973);fill-opacity:1;stroke:none;stroke-width:0.264583px;stroke-linecap:butt;stroke-linejoin:miter;stroke-opacity:1"
         d="m 46.340297,26.541423 1.565013,1.375103 2.280692,-0.555985 -0.322434,-2.010317 -0.687764,0.06612 -1.030504,-0.905029 z"
         id="path393" /><path
         id="path395"
         style="fill:url(#linearGradient427);fill-opacity:1;stroke:none;stroke-width:0.365001;paint-order:stroke fill markers"
         d="m 42.543011,36.295261 0.784433,-0.162601 1.4993,1.183056 -0.386057,5.088381 -1.296736,-0.08877 z"
         sodipodi:nodetypes="cccccc"
         transform="rotate(-10.738745)" /><path
         style="display:inline;fill:url(#linearGradient429);fill-opacity:1;stroke:none;stroke-width:0.310413px;stroke-linecap:butt;stroke-linejoin:miter;stroke-opacity:1"
         d="m 35.872028,28.577759 2.130706,5.159361 3.21144,-0.766669 2.511812,-4.003471 2.199341,-1.726298 2.477727,-2.763552 -0.8363,-4.236154 -5.109758,2.587542 -4.880418,3.594809 z"
         id="path397"
         sodipodi:nodetypes="cccccccccc" /><path
         style="display:inline;fill:url(#linearGradient431);fill-opacity:1;stroke:none;stroke-width:0.264583px;stroke-linecap:butt;stroke-linejoin:miter;stroke-opacity:1"
         d="m 37.042836,28.261744 1.066051,4.858419 2.528485,-0.886513 3.103327,-3.627342 1.446559,-1.911184 2.743915,-2.449234 -0.916768,-3.077253 -4.355338,2.20551 -4.159859,3.064061 z"
         id="path399" /><path
         id="path401"
         style="fill:url(#linearGradient3916);stroke-width:0.365001;paint-order:stroke fill markers;fill-opacity:1.0"
         d="m 41.096961,32.043052 c 0,0.696997 -1.934107,1.358469 -2.631105,1.358468 -0.696997,1e-6 -0.666125,-0.574621 -0.666125,-1.271618 0,-0.696997 0.565028,-1.262025 1.262025,-1.262025 0.696997,0 2.035205,0.478178 2.035205,1.175175 z"
         sodipodi:nodetypes="sssss" /><path
         id="path403"
         style="fill:url(#linearGradient3918);fill-opacity:1.0;stroke:none;stroke-width:0.432831;stroke-dasharray:none;stroke-opacity:1;paint-order:stroke fill markers"
         d="m 41.601595,29.375468 a 1.4965526,1.4965526 0 0 0 -1.496549,1.496549 1.4965526,1.4965526 0 0 0 1.033011,1.423169 l 1.775086,-2.143538 a 1.4965526,1.4965526 0 0 0 -1.311548,-0.77618 z" /><ellipse
         style="fill:url(#linearGradient433);fill-opacity:1;stroke:none;stroke-width:0.365001;stroke-dasharray:none;stroke-opacity:1;paint-order:stroke fill markers"
         id="ellipse405"
         cx="38.780991"
         cy="34.768654"
         rx="0.32942504"
         ry="0.35729077" /><ellipse
         style="fill:url(#linearGradient435);fill-opacity:1;stroke:none;stroke-width:0.365001;stroke-dasharray:none;stroke-opacity:1;paint-order:stroke fill markers"
         id="ellipse407"
         cx="38.820866"
         cy="42.820461"
         rx="0.32942504"
         ry="0.35729077" /><path
         style="fill:url(#linearGradient989);fill-opacity:1;stroke:none;stroke-width:0.264583px;stroke-linecap:butt;stroke-linejoin:miter;stroke-opacity:1"
         d="m 41.603895,32.204908 c 0,0 0.73938,0.963323 1.248077,1.268378 0.506025,0.303453 1.697762,0.500912 1.697762,0.500912 0,0 -0.785609,-0.677818 -1.100775,-1.08554 C 43.011478,32.3227 42.375693,31.03033 42.375693,31.03033 Z"
         id="path409"
         sodipodi:nodetypes="cscscc" /><path
         id="path411"
         style="fill:url(#linearGradient1001);stroke-width:0.365001;paint-order:stroke fill markers;fill-opacity:1"
         transform="rotate(-50.665745)"
         d="m 1.4611015,52.591875 1.3976898,-0.147542 -0.4338357,1.032307 -1.123704,0.0036 c 0,0 -0.015311,-0.29028 0.010128,-0.432386 0.027592,-0.154136 0.1497223,-0.455979 0.1497219,-0.455979 z"
         sodipodi:nodetypes="ccccsc" /><path
         style="fill:none;fill-opacity:0;stroke:url(#linearGradient1153);stroke-width:0.5;stroke-linecap:butt;stroke-linejoin:miter;stroke-dasharray:none;stroke-opacity:1"
         d="m 36.292999,28.679719 -1.76331,3.253574 -3.409064,1.325427 3.031498,-1.022062 3.782044,1.022062"
         id="path413" /><path
         style="fill:url(#linearGradient3924);fill-opacity:1.0;stroke:none;stroke-width:0.264583px;stroke-linecap:butt;stroke-linejoin:miter;stroke-opacity:1"
         d="m 50.281223,20.226162 0.820409,3.06181 h 6.986188 l -1.720495,-6.420979 z"
         id="path415" /></g><path
       style="fill:url(#linearGradient955);fill-opacity:1;stroke:none;stroke-width:0.264583px;stroke-linecap:butt;stroke-linejoin:miter;stroke-opacity:1"
       d="m 56.665465,18.030582 0.986602,0.0302 0.94157,3.513986 -0.901136,0.901139 z"
       id="path20100" /><rect
       style="fill:url(#linearGradient961);fill-opacity:1;stroke:none;stroke-width:0.499999;stroke-dasharray:none;stroke-opacity:1;paint-order:stroke fill markers"
       id="rect19950"
       width="3.0590899"
       height="2.4761817"
       x="40.123474"
       y="33.160069"
       transform="rotate(-15.536665)" /><path
       style="display:inline;fill:url(#linearGradient949);fill-opacity:1;stroke:none;stroke-width:0.264583px;stroke-linecap:butt;stroke-linejoin:miter;stroke-opacity:1"
       d="m 38.112131,34.104021 -0.211603,8.321019 0.855313,2.017517 3.443586,-1.765676 -1.690063,-9.520121 -2.384589,0.28294 z"
       id="path14283" /><path
       style="fill:url(#linearGradient3910);fill-opacity:1;stroke:none;stroke-width:0.264583px;stroke-linecap:butt;stroke-linejoin:miter;stroke-opacity:1"
       d="m 40.288931,33.191335 c 0,0 0.195773,0.743072 0.240915,1.123374 0.05015,0.42249 0.09605,0.855367 0.03196,1.275968 -0.04705,0.308744 -0.468217,0.651948 -0.301373,0.887133 0.118514,0.167058 0.453548,0.05761 0.571884,0.224795 0.09913,0.140043 0.03625,0.343761 0.01834,0.514398 -0.02843,0.270855 -0.198038,0.792665 -0.198038,0.792665 0,0 -0.209865,0.400184 -0.09425,0.61426 0.09884,0.183014 0.495711,0.282865 0.495711,0.282865 l 0.115094,0.699723 c 0,0 -0.259856,0.38231 -0.284197,0.494096 -0.02434,0.111789 0.01902,0.646282 0.112773,0.646282 0.09376,0 0.563139,0.108751 0.633307,0.188804 0.07016,0.08005 0.03328,0.623469 0.03328,0.623469 l -0.766958,1.257853 2.08988,-0.991396 -0.416774,-0.94846 -0.714187,-0.690039 0.03839,-0.603173 c 0,0 0.564872,-0.517131 0.548245,-0.784294 -0.01997,-0.320812 -0.657677,-0.383212 -0.741418,-0.383212 -0.08374,0 -0.119914,-0.626427 -0.119914,-0.626427 0,0 0.305572,-1.018138 0.240149,-1.213647 -0.06542,-0.195511 -0.473969,-0.34758 -0.473969,-0.34758 0,0 -0.112791,-0.494058 -0.07132,-0.765238 0.04647,-0.303869 0.290262,-0.443865 0.347464,-0.697125 0.06158,-0.272621 0.03815,-0.563977 -0.01519,-0.838327 -0.07582,-0.389953 -0.426474,-1.112848 -0.426474,-1.112848 z"
       id="path14768"
       sodipodi:nodetypes="cssssscsccsssccccccsscscssscc" /><rect
       style="fill:url(#linearGradient8882);fill-opacity:1;stroke-width:0.665001;paint-order:stroke fill markers"
       id="rect4332"
       width="9.7649813"
       height="2.3940811"
       x="2.3652935"
       y="58.718292"
       ry="1.1970396"
       transform="rotate(-36.531357)" /><path
       style="fill:none;fill-opacity:0;stroke:url(#linearGradient8870);stroke-width:0.365;stroke-linecap:butt;stroke-linejoin:miter;stroke-dasharray:none;stroke-opacity:1"
       d="m 51.112941,34.270333 c 0,0 0.199622,1.500587 0.05228,1.825493 -0.147339,0.324905 -1.432772,1.829001 -1.432772,1.829001 l -4.06759,2.882685"
       id="path5246" /><g
       id="g3603"
       transform="rotate(54.814457,37.782787,44.192125)"><path
         id="rect2058"
         style="fill:url(#linearGradient1129);fill-opacity:1;stroke-width:0.633;stroke-dasharray:none;paint-order:stroke fill markers"
         d="m 39.639303,45.28201 c -2.497043,0 -4.507702,2.010165 -4.507702,4.50721 v 8.158833 h 9.014912 V 49.78922 c 0,-2.497045 -2.010166,-4.50721 -4.50721,-4.50721 z" /><rect
         style="fill:url(#linearGradient1135);fill-opacity:1;stroke-width:0.665001;paint-order:stroke fill markers"
         id="rect2065"
         width="9.1931486"
         height="1.438221"
         x="35.04866"
         y="57.371326" /></g><rect
       style="fill:url(#linearGradient1109);fill-opacity:1;stroke-width:0.665001;paint-order:stroke fill markers"
       id="rect3657"
       width="3.3581896"
       height="2.0169666"
       x="58.006012"
       y="-5.2119513"
       transform="rotate(54.369508)"
       ry="0.13943213" /><rect
       style="fill:url(#linearGradient8876);fill-opacity:1;stroke-width:0.665001;paint-order:stroke fill markers"
       id="rect5076"
       width="1.4787917"
       height="1.0683633"
       x="59.570454"
       y="-11.284177"
       transform="rotate(52.062026)" /><rect
       style="fill:url(#linearGradient8864);fill-opacity:1;stroke-width:0.584496;paint-order:stroke fill markers"
       id="rect5216"
       width="1.2997701"
       height="0.93902791"
       x="45.933113"
       y="39.27005"
       transform="rotate(-6.8227248)" /><path
       style="fill:url(#linearGradient967);fill-opacity:1;stroke:none;stroke-width:0.264583px;stroke-linecap:butt;stroke-linejoin:miter;stroke-opacity:1"
       d="m 46.340297,26.541423 1.565013,1.375103 2.280692,-0.555985 -0.322434,-2.010317 -0.687764,0.06612 -1.030504,-0.905029 z"
       id="path19413" /><path
       id="rect7388"
       style="fill:url(#linearGradient7961);fill-opacity:1;stroke:none;stroke-width:0.365001;paint-order:stroke fill markers"
       d="m 48.56089,27.732539 0.740398,-0.305917 1.693482,0.882971 0.568828,5.071202 -1.290567,0.154407 z"
       sodipodi:nodetypes="cccccc" /><path
       style="display:inline;fill:url(#linearGradient9446);fill-opacity:1;stroke:none;stroke-width:0.310413px;stroke-linecap:butt;stroke-linejoin:miter;stroke-opacity:1"
       d="m 35.872028,28.577759 2.130706,5.159361 3.21144,-0.766669 2.511812,-4.003471 2.199341,-1.726298 2.477727,-2.763552 -0.8363,-4.236154 -5.109758,2.587542 -4.880418,3.594809 z"
       id="path9444"
       sodipodi:nodetypes="cccccccccc" /><path
       style="display:inline;fill:url(#linearGradient10625);fill-opacity:1;stroke:none;stroke-width:0.264583px;stroke-linecap:butt;stroke-linejoin:miter;stroke-opacity:1"
       d="m 37.042836,28.261744 1.066051,4.858419 2.528485,-0.886513 3.103327,-3.627342 1.446559,-1.911184 2.743915,-2.449234 -0.916768,-3.077253 -4.355338,2.20551 -4.159859,3.064061 z"
       id="path8884" /><path
       id="path4784"
       style="display:inline;fill:url(#linearGradient4787);fill-opacity:1;stroke:none;stroke-width:0.264583px;stroke-linecap:butt;stroke-linejoin:miter;stroke-opacity:1"
       d="M 41.47137 25.427389 L 39.080819 26.705347 L 38.814168 26.206152 L 38.499459 26.43818 L 37.052002 28.250472 L 37.681938 29.428695 L 38.3651 29.063859 L 39.67148 31.508671 L 41.208854 30.687016 L 39.901957 28.242204 L 42.293026 26.964246 L 41.47137 25.427389 z M 41.290503 27.630872 L 40.21615 28.204997 L 40.945821 29.547034 L 42.36899 29.979049 L 42.732792 29.784229 L 43.740483 28.606523 L 43.861922 28.445809 L 43.639197 28.02878 L 42.712122 28.524357 L 41.751457 28.492834 L 41.290503 27.630872 z " /><path
       id="path9500"
       style="fill:url(#linearGradient1123);fill-opacity:1;stroke-width:0.365001;paint-order:stroke fill markers"
       d="m 41.096961,32.043052 c 0,0.696997 -1.934107,1.358469 -2.631105,1.358468 -0.696997,1e-6 -0.666125,-0.574621 -0.666125,-1.271618 0,-0.696997 0.565028,-1.262025 1.262025,-1.262025 0.696997,0 2.035205,0.478178 2.035205,1.175175 z"
       sodipodi:nodetypes="sssss" /><path
       id="circle9502"
       style="fill:url(#linearGradient1121);fill-opacity:1;stroke:none;stroke-width:0.432831;stroke-dasharray:none;stroke-opacity:1;paint-order:stroke fill markers"
       d="m 41.601595,29.375468 a 1.4965526,1.4965526 0 0 0 -1.496549,1.496549 1.4965526,1.4965526 0 0 0 1.033011,1.423169 l 1.775086,-2.143538 a 1.4965526,1.4965526 0 0 0 -1.311548,-0.77618 z" /><ellipse
       style="fill:url(#linearGradient14226);fill-opacity:1;stroke:none;stroke-width:0.365001;stroke-dasharray:none;stroke-opacity:1;paint-order:stroke fill markers"
       id="path10833"
       cx="38.780991"
       cy="34.768654"
       rx="0.32942504"
       ry="0.35729077" /><ellipse
       style="fill:url(#linearGradient14230);fill-opacity:1;stroke:none;stroke-width:0.365001;stroke-dasharray:none;stroke-opacity:1;paint-order:stroke fill markers"
       id="ellipse14228"
       cx="38.820866"
       cy="42.820461"
       rx="0.32942504"
       ry="0.35729077" /><path
       style="fill:url(#linearGradient943);fill-opacity:1;stroke:none;stroke-width:0.264583px;stroke-linecap:butt;stroke-linejoin:miter;stroke-opacity:1"
       d="m 41.603895,32.204908 c 0,0 0.73938,0.963323 1.248077,1.268378 0.506025,0.303453 1.697762,0.500912 1.697762,0.500912 0,0 -0.785609,-0.677818 -1.100775,-1.08554 C 43.011478,32.3227 42.375693,31.03033 42.375693,31.03033 Z"
       id="path16410"
       sodipodi:nodetypes="cscscc" /><path
       id="rect17076"
       style="fill:url(#linearGradient1007);fill-opacity:1;stroke-width:0.365001;paint-order:stroke fill markers"
       d="m 41.603895,32.204908 0.771798,-1.174578 0.523466,0.989876 -0.709468,0.871424 c 0,0 -0.234225,-0.17215 -0.328014,-0.281899 -0.10173,-0.119039 -0.257782,-0.404824 -0.257782,-0.404823 z"
       sodipodi:nodetypes="ccccsc" /><path
       style="fill:none;fill-opacity:0;stroke:url(#linearGradient1159);stroke-width:0.5;stroke-linecap:butt;stroke-linejoin:miter;stroke-dasharray:none;stroke-opacity:1"
       d="m 36.292999,28.679719 -1.76331,3.253574 -3.409064,1.325427 3.031498,-1.022062 3.782044,1.022062"
       id="path17272" /><path
       style="fill:url(#linearGradient937);fill-opacity:1;stroke:none;stroke-width:0.264583px;stroke-linecap:butt;stroke-linejoin:miter;stroke-opacity:1"
       d="m 50.281223,20.226162 0.820409,3.06181 h 6.986188 l -1.720495,-6.420979 z"
       id="path19952" /><ellipse
       style="opacity:1;fill:url(#linearGradient985);fill-opacity:1.0;stroke-width:0.731734;paint-order:stroke fill markers"
       id="path1043"
       cx="25.688204"
       cy="25.180246"
       rx="0.99056041"
       ry="0.96486109" /><path
       style="fill:url(#linearGradient987);fill-opacity:1.0;stroke:none;stroke-width:0.264583px;stroke-linecap:butt;stroke-linejoin:miter;stroke-opacity:1"
       d="m 24.828241,24.852332 c 0,0 -0.386745,0.494318 -0.629743,0.688413 -0.230959,0.184479 -0.770405,0.439144 -0.770405,0.439144 0,0 0.513092,0.145917 0.77441,0.130469 0.345712,-0.02044 0.997035,-0.292113 0.997035,-0.292113 z"
       id="path2349"
       sodipodi:nodetypes="cscscc" /><g
       id="g5697"
       transform="rotate(-20.276627,14.013551,32.100155)"><path
         id="path5426"
         style="fill:#808080;fill-opacity:1;stroke:none;stroke-width:0.767447;paint-order:stroke fill markers"
         d="m 14.585708,25.797203 a 1.9832062,1.9832062 0 0 0 -1.982947,1.983573 1.9832062,1.9832062 0 0 0 1.982947,1.982948 1.9832062,1.9832062 0 0 0 1.983574,-1.982948 1.9832062,1.9832062 0 0 0 -1.983574,-1.983573 z m 0,0.270658 a 1.7128013,1.7128013 0 0 1 1.712916,1.712915 1.7128013,1.7128013 0 0 1 -1.712916,1.712288 1.7128013,1.7128013 0 0 1 -1.712915,-1.712288 1.7128013,1.7128013 0 0 1 1.712915,-1.712915 z" /><path
         id="rect5020"
         style="fill:#ff0000;stroke-width:0.633;paint-order:stroke fill markers"
         d="m 9.940247,24.564387 c 0,0 2.745697,1.682544 4.297245,1.751244 1.43446,0.06352 4.437566,0.624606 4.437566,0.624606 l -0.01858,0.727112 c 0,0 -3.12628,-0.170489 -4.663835,-0.443636 -1.432842,-0.254549 -4.2226648,-1.108864 -4.2226648,-1.108864 z"
         sodipodi:nodetypes="csccscc" /><path
         id="path5127"
         style="fill:#ff0000;stroke-width:0.633;paint-order:stroke fill markers"
         d="m 9.9878812,31.075277 c 0,0 2.7456958,-1.682544 4.2972438,-1.751245 1.434461,-0.06352 4.437566,-0.624606 4.437566,-0.624606 l -0.01858,-0.727112 c 0,0 -3.126281,0.170489 -4.663836,0.443637 -1.432841,0.254548 -4.2226638,1.108864 -4.2226638,1.108864 z"
         sodipodi:nodetypes="csccscc" /><path
         id="rect5189"
         style="fill:#ff0000;stroke-width:0.633;paint-order:stroke fill markers"
         d="m 15.119602,27.156201 h 0.916599 c 0,0 -0.260879,0.457196 -0.260879,0.679393 0,0.272166 0.260879,0.803697 0.260879,0.803697 h -0.916599 c 0,0 0.207932,-0.55606 0.210045,-0.798346 0.0023,-0.263049 -0.210045,-0.684744 -0.210045,-0.684744 z"
         sodipodi:nodetypes="ccsccsc" /></g><g
       id="g5707"
       transform="rotate(-20.276627,39.153537,-9.8379881)"><path
         id="path5699"
         style="fill:#808080;fill-opacity:1;stroke:none;stroke-width:0.767447;paint-order:stroke fill markers"
         d="m 14.585708,25.797203 a 1.9832062,1.9832062 0 0 0 -1.982947,1.983573 1.9832062,1.9832062 0 0 0 1.982947,1.982948 1.9832062,1.9832062 0 0 0 1.983574,-1.982948 1.9832062,1.9832062 0 0 0 -1.983574,-1.983573 z m 0,0.270658 a 1.7128013,1.7128013 0 0 1 1.712916,1.712915 1.7128013,1.7128013 0 0 1 -1.712916,1.712288 1.7128013,1.7128013 0 0 1 -1.712915,-1.712288 1.7128013,1.7128013 0 0 1 1.712915,-1.712915 z" /><path
         id="path5701"
         style="fill:#ff0000;stroke-width:0.633;paint-order:stroke fill markers"
         d="m 9.940247,24.564387 c 0,0 2.745697,1.682544 4.297245,1.751244 1.43446,0.06352 4.437566,0.624606 4.437566,0.624606 l -0.01858,0.727112 c 0,0 -3.12628,-0.170489 -4.663835,-0.443636 -1.432842,-0.254549 -4.2226648,-1.108864 -4.2226648,-1.108864 z"
         sodipodi:nodetypes="csccscc" /><path
         id="path5703"
         style="fill:#ff0000;stroke-width:0.633;paint-order:stroke fill markers"
         d="m 9.9878812,31.075277 c 0,0 2.7456958,-1.682544 4.2972438,-1.751245 1.434461,-0.06352 4.437566,-0.624606 4.437566,-0.624606 l -0.01858,-0.727112 c 0,0 -3.126281,0.170489 -4.663836,0.443637 -1.432841,0.254548 -4.2226638,1.108864 -4.2226638,1.108864 z"
         sodipodi:nodetypes="csccscc" /><path
         id="path5705"
         style="fill:#ff0000;stroke-width:0.633;paint-order:stroke fill markers"
         d="m 15.119602,27.156201 h 0.916599 c 0,0 -0.260879,0.457196 -0.260879,0.679393 0,0.272166 0.260879,0.803697 0.260879,0.803697 h -0.916599 c 0,0 0.207932,-0.55606 0.210045,-0.798346 0.0023,-0.263049 -0.210045,-0.684744 -0.210045,-0.684744 z"
         sodipodi:nodetypes="ccsccsc" /></g></g></svg>
